<?xml version="1.0" encoding="UTF-8" standalone="no"?>
<svg xmlns:dc="http://purl.org/dc/elements/1.1/" xmlns:cc="http://creativecommons.org/ns#" xmlns:rdf="http://www.w3.org/1999/02/22-rdf-syntax-ns#" xmlns:svg="http://www.w3.org/2000/svg" xmlns="http://www.w3.org/2000/svg" xmlns:sodipodi="http://sodipodi.sourceforge.net/DTD/sodipodi-0.dtd" xmlns:inkscape="http://www.inkscape.org/namespaces/inkscape" inkscape:version="1.0 (4035a4fb49, 2020-05-01)" sodipodi:docname="block.svg" id="svg12" version="1.1" viewBox="0 0 210 297" style="shape-rendering:geometricPrecision; text-rendering:geometricPrecision; image-rendering:optimizeQuality; fill-rule:evenodd; clip-rule:evenodd" height="297mm" width="210mm" xml:space="preserve" xmlns:csurvey="http://www.csurvey.it" csurvey:caption="" csurvey:author="" csurvey:note="" csurvey:sign="1290">
  <metadata id="metadata16">
    <rdf:RDF>
      <cc:Work rdf:about="">
        <dc:format>image/svg+xml</dc:format>
        <dc:type rdf:resource="http://purl.org/dc/dcmitype/StillImage" />
        <dc:title>
        </dc:title>
      </cc:Work>
    </rdf:RDF>
  </metadata>
  <sodipodi:namedview inkscape:current-layer="svg12" inkscape:window-maximized="1" inkscape:window-y="-8" inkscape:window-x="-8" inkscape:cy="89.444297" inkscape:cx="84.682606" inkscape:zoom="2.1417558" showgrid="false" id="namedview14" inkscape:window-height="1017" inkscape:window-width="2560" inkscape:pageshadow="2" inkscape:pageopacity="0" guidetolerance="10" gridtolerance="10" objecttolerance="10" borderopacity="1" bordercolor="#666666" pagecolor="#ffffff" />
 <defs id="defs4">
  <style id="style2" type="text/css">
   <![CDATA[
    .str0 {stroke:black;stroke-width:0.0529}
    .str1 {stroke:black;stroke-width:0.2}
    .fil1 {fill:none}
    .fil0 {fill:white}
   ]]>
  </style>
 </defs>
 <g transform="translate(-74.424706,-7.3376471)" id="Livello_x0020_1">
  <metadata id="CorelCorpID_0Corel-Layer" />
  
  
 </g>
<path sodipodi:nodetypes="cccczczsccccz" d="M 22.497845,16.885106 C 21.628948,13.023258 20.229573,8.3973029 18.777428,4.4472857 M 3.429294,31.747353 c 6.102895,-2.569596 19.068551,-14.862247 19.068551,-14.862247 0,0 2.305356,0.295749 4.241978,0.994431 1.936623,0.698681 14.919971,7.511516 15.746471,10.266816 M 6.753294,8.4793529 c -1.362846,2.7066681 -3.324,15.1666001 -3.324,23.2680001 0,7.0762 17.431,12.143 23.822,12.742 5.0878,0.4769 10.9838,-13.32 15.235,-16.343 9.0704,-6.4501 -3.2485,-17.9784 -8.587,-21.0520001 -6.6998,-3.8575 -6.385666,-3.9230672 -15.121866,-2.6470672 C 16.74688,4.7897406 8.11614,5.7726852 6.753294,8.4793529 Z" style="fill:none;fill-rule:evenodd;stroke:#000000;stroke-width:0.264583px;stroke-linecap:butt;stroke-linejoin:miter;stroke-opacity:1" id="path843" /></svg>