<?xml version="1.0" encoding="UTF-8" standalone="no"?>
<!-- Creator: CorelDRAW -->

<svg
   xml:space="preserve"
   width="77.230629mm"
   height="72.251442mm"
   style="clip-rule:evenodd;fill-rule:evenodd;image-rendering:optimizeQuality;shape-rendering:geometricPrecision;text-rendering:geometricPrecision"
   viewBox="0 0 77.230629 72.251442"
   version="1.1"
   inkscape:version="1.2.1 (9c6d41e410, 2022-07-14)"
   sodipodi:docname="debrits2.svg"
   id="svg2"
   xmlns:inkscape="http://www.inkscape.org/namespaces/inkscape"
   xmlns:sodipodi="http://sodipodi.sourceforge.net/DTD/sodipodi-0.dtd"
   xmlns="http://www.w3.org/2000/svg"
   xmlns:svg="http://www.w3.org/2000/svg"
   xmlns:rdf="http://www.w3.org/1999/02/22-rdf-syntax-ns#"
   xmlns:cc="http://creativecommons.org/ns#"
   xmlns:dc="http://purl.org/dc/elements/1.1/"
   xmlns:csurvey="http://www.csurvey.it"><metadata
   id="metadata57"><rdf:RDF><cc:Work
       rdf:about=""><dc:format>image/svg+xml</dc:format><dc:type
         rdf:resource="http://purl.org/dc/dcmitype/StillImage" /></cc:Work></rdf:RDF></metadata><sodipodi:namedview
   pagecolor="#ffffff"
   bordercolor="#666666"
   borderopacity="1"
   objecttolerance="10"
   gridtolerance="10"
   guidetolerance="10"
   inkscape:pageopacity="0"
   inkscape:pageshadow="2"
   inkscape:window-width="2560"
   inkscape:window-height="1017"
   id="namedview55"
   showgrid="false"
   inkscape:zoom="1.4068647"
   inkscape:cx="273.30276"
   inkscape:cy="133.63048"
   inkscape:window-x="-8"
   inkscape:window-y="-8"
   inkscape:window-maximized="1"
   inkscape:current-layer="svg2"
   inkscape:showpageshadow="0"
   inkscape:pagecheckerboard="0"
   inkscape:deskcolor="#d1d1d1"
   inkscape:document-units="mm"
   csurvey:sign="1290"
   csurvey:author=""
   csurvey:note=""
   csurvey:rotationangledelta="0.0" />
 <defs
   id="defs4"><style
     type="text/css"
     id="style6">
   
    .str0 {stroke:black;stroke-width:0.0762}
    .fil0 {fill:white}
   
  </style></defs>
 <path
   style="fill:#ffffff;stroke:#000000;stroke-width:0.127433"
   id="path16"
   d="m 5.6023731,5.7215141 c -7.9885605,7.8147569 -3.9265099,20.5856369 0,30.8784559 7.6075759,2.572026 5.6595709,4.239625 19.8257049,-7.984774 L 42.274137,12.047629 C 37.403093,8.2283581 32.012788,4.8442331 24.769796,2.5971441 18.633729,0.69342216 16.017334,0.82608636 14.009932,0.81957798 11.463853,0.81132311 10.069177,1.3518927 5.6023731,5.7215141 Z"
   class="fil0 str0"
   sodipodi:nodetypes="sccccss" /><path
   style="fill:#ffffff;stroke:#000000;stroke-width:0.133909"
   id="path14"
   d="M 0.07638165,69.649902 C 29.786569,74.591997 27.669472,75.037685 43.978597,45.073083 40.006397,36.769373 23.237579,31.310632 15.384636,28.215963 14.388921,31.059854 9.4115505,39.704702 6.4825127,47.655598 4.1493222,53.98847 1.158568,62.720264 0.07638165,69.649902 Z"
   class="fil0 str0" /><path
   style="fill:#ffffff;stroke:#000000;stroke-width:0.144588"
   id="path40"
   d="M 39.376931,5.7682492 46.488823,32.980922 C 62.405873,27.710383 62.696654,26.724911 77.147921,18.574714 75.991713,13.616692 67.040811,2.6294812 63.659244,1.3046892 c -6.671466,-2.613237 -18.885318,1.967898 -24.282313,4.46356 z"
   class="fil0 str0" /><path
   style="fill:#ffffff;stroke:#000000;stroke-width:0.185744"
   id="path46"
   d="M 75.885882,50.409766 49.557433,20.325087 c -5.315683,4.284461 -9.792452,8.530106 -13.506189,15.563131 -2.505334,4.744513 -0.884294,6.223863 1.612113,10.017125 3.138177,4.768953 16.288267,21.118963 22.823511,18.445158 C 66.59534,61.85161 73.649109,55.89012 75.885882,50.409766 Z"
   class="fil0 str0" />
 <g
   id="Livello_x0020_1"
   inkscape:label="Livello 1"
   inkscape:groupmode="layer"
   transform="translate(-2.1473705,-12.596405)">
  <metadata
   id="CorelCorpID_1Corel-Layer" />
  <sodipodi:namedview
   id="base"
   pagecolor="#ffffff"
   bordercolor="#666666"
   borderopacity="1.0"
   inkscape:pageopacity="0.0"
   inkscape:pageshadow="2"
   inkscape:zoom="1.0568359"
   inkscape:cx="375"
   inkscape:cy="709.24413"
   inkscape:document-units="px"
   inkscape:current-layer="layer1"
   showgrid="false"
   inkscape:window-width="1680"
   inkscape:window-height="1000"
   inkscape:window-x="-8"
   inkscape:window-y="-8"
   inkscape:window-maximized="1" />
 </g>
</svg>
