<?xml version="1.0" encoding="UTF-8" standalone="no"?>
<!-- Created with Inkscape (http://www.inkscape.org/) -->
<svg xmlns:dc="http://purl.org/dc/elements/1.1/" xmlns:cc="http://creativecommons.org/ns#" xmlns:rdf="http://www.w3.org/1999/02/22-rdf-syntax-ns#" xmlns:svg="http://www.w3.org/2000/svg" xmlns="http://www.w3.org/2000/svg" xmlns:sodipodi="http://sodipodi.sourceforge.net/DTD/sodipodi-0.dtd" xmlns:inkscape="http://www.inkscape.org/namespaces/inkscape" width="744.09448819" height="1052.3622047" id="svg52781" version="1.1" inkscape:version="0.48.4 r9939" sodipodi:docname="lowend.svg" xmlns:csurvey="http://www.csurvey.it" csurvey:caption="" csurvey:author="" csurvey:note="" csurvey:sign="260">
  <defs id="defs52783" />
  <sodipodi:namedview id="base" pagecolor="#ffffff" bordercolor="#666666" borderopacity="1.0" inkscape:pageopacity="0.0" inkscape:pageshadow="2" inkscape:zoom="0.35" inkscape:cx="375" inkscape:cy="520" inkscape:document-units="px" inkscape:current-layer="layer1" showgrid="false" inkscape:window-width="518" inkscape:window-height="423" inkscape:window-x="320" inkscape:window-y="16" inkscape:window-maximized="0" />
  <metadata id="metadata52786">
    <rdf:RDF>
      <cc:Work rdf:about="">
        <dc:format>image/svg+xml</dc:format>
        <dc:type rdf:resource="http://purl.org/dc/dcmitype/StillImage" />
        <dc:title>
        </dc:title>
      </cc:Work>
    </rdf:RDF>
  </metadata>
  <g inkscape:label="Livello 1" inkscape:groupmode="layer" id="layer1">
    <g id="g17409" transform="matrix(1.6532262,0,0,-1.6532262,316.19049,575.21841)">
      <path inkscape:connector-curvature="0" d="m 55.5205,43.1072 c 0,-4.379 3.2215,-7.604 5.9999,-5.9999 -1.121,-3.0797 2.0617,-5.9999 5.9999,-5.9999" style="fill:none;stroke:#000000;stroke-width:1.49997997;stroke-linecap:round;stroke-linejoin:round;stroke-miterlimit:10;stroke-opacity:1;stroke-dasharray:none" id="path17411" />
    </g>
    <g id="g17413" transform="matrix(1.6532262,0,0,-1.6532262,316.19049,575.21841)">
      <path inkscape:connector-curvature="0" d="m 61.5204,43.1072 c 0,-4.379 3.2215,-7.604 5.9999,-5.9999 -1.121,-3.0797 2.0617,-5.9999 5.9998,-5.9999" style="fill:none;stroke:#000000;stroke-width:1.49997997;stroke-linecap:round;stroke-linejoin:round;stroke-miterlimit:10;stroke-opacity:1;stroke-dasharray:none" id="path17415" />
    </g>
    <g id="g17417" transform="matrix(1.6532262,0,0,-1.6532262,316.19049,575.21841)">
      <path inkscape:connector-curvature="0" d="m 55.5205,19.1077 c 0,4.379 3.2215,7.6039 5.9999,5.9999 -1.121,3.0797 2.0617,5.9998 5.9999,5.9998" style="fill:none;stroke:#000000;stroke-width:1.49997997;stroke-linecap:round;stroke-linejoin:round;stroke-miterlimit:10;stroke-opacity:1;stroke-dasharray:none" id="path17419" />
    </g>
    <g id="g17421" transform="matrix(1.6532262,0,0,-1.6532262,316.19049,575.21841)">
      <path inkscape:connector-curvature="0" d="m 61.5204,19.1077 c 0,4.379 3.2215,7.6039 5.9999,5.9999 -1.121,3.0797 2.0617,5.9998 5.9998,5.9998" style="fill:none;stroke:#000000;stroke-width:1.49997997;stroke-linecap:round;stroke-linejoin:round;stroke-miterlimit:10;stroke-opacity:1;stroke-dasharray:none" id="path17423" />
    </g>
  </g>
</svg>