<?xml version="1.0" encoding="UTF-8" standalone="no"?>
<!-- Created with Inkscape (http://www.inkscape.org/) -->
<svg xmlns:dc="http://purl.org/dc/elements/1.1/" xmlns:cc="http://creativecommons.org/ns#" xmlns:rdf="http://www.w3.org/1999/02/22-rdf-syntax-ns#" xmlns:svg="http://www.w3.org/2000/svg" xmlns="http://www.w3.org/2000/svg" xmlns:sodipodi="http://sodipodi.sourceforge.net/DTD/sodipodi-0.dtd" xmlns:inkscape="http://www.inkscape.org/namespaces/inkscape" width="744.09448819" height="1052.3622047" id="svg52781" version="1.1" inkscape:version="0.48.4 r9939" sodipodi:docname="gypsum.svg" xmlns:csurvey="http://www.csurvey.it" csurvey:caption="" csurvey:author="" csurvey:note="" csurvey:sign="531">
  <defs id="defs52783">
    <clipPath id="clipPath25208" clipPathUnits="userSpaceOnUse">
      <path inkscape:connector-curvature="0" id="path25210" d="m 263.1935,4696 129.613,0 0,82 -129.613,0 0,-82 z" />
    </clipPath>
    <clipPath id="clipPath25214" clipPathUnits="userSpaceOnUse">
      <path inkscape:connector-curvature="0" id="path25216" clip-rule="evenodd" d="m 265.8387,4698.645 124.5863,0 0,76.994 -124.5863,0 0,-76.994 z" />
    </clipPath>
    <clipPath id="clipPath25220" clipPathUnits="userSpaceOnUse">
      <path inkscape:connector-curvature="0" id="path25222" d="m 263,4696 130,0 0,82 -130,0 0,-82 z" />
    </clipPath>
  </defs>
  <sodipodi:namedview id="base" pagecolor="#ffffff" bordercolor="#666666" borderopacity="1.0" inkscape:pageopacity="0.0" inkscape:pageshadow="2" inkscape:zoom="3.959798" inkscape:cx="384.8267" inkscape:cy="540.80174" inkscape:document-units="px" inkscape:current-layer="layer1" showgrid="false" inkscape:window-width="1440" inkscape:window-height="837" inkscape:window-x="-8" inkscape:window-y="-8" inkscape:window-maximized="1" />
  <metadata id="metadata52786">
    <rdf:RDF>
      <cc:Work rdf:about="">
        <dc:format>image/svg+xml</dc:format>
        <dc:type rdf:resource="http://purl.org/dc/dcmitype/StillImage" />
        <dc:title>
        </dc:title>
      </cc:Work>
    </rdf:RDF>
  </metadata>
  <g inkscape:label="Livello 1" inkscape:groupmode="layer" id="layer1">
    <g id="g27298" transform="matrix(1.6532262,0,0,-1.6532262,279.66026,561.5097)">
      <path inkscape:connector-curvature="0" d="m 54.4995,31.1074 c -2.8098,0 -5.3501,1.8347 -5.3998,4.4998 -0.0551,2.9515 2.8945,5.0009 5.9999,4.5003 4.0451,-0.6522 6.4459,-4.76 5.9998,-9.0001 C 60.6615,26.9448 57.688,23.4501 53.5995,22.7075 46.1591,21.3561 41.0887,28.6984 37.1,35.6072" style="fill:none;stroke:#000000;stroke-width:1.49997997;stroke-linecap:round;stroke-linejoin:round;stroke-miterlimit:10;stroke-opacity:1;stroke-dasharray:none" id="path27300" />
    </g>
  </g>
</svg>