<?xml version="1.0" encoding="UTF-8" standalone="no"?>
<!-- Creator: CorelDRAW -->

<svg
   xml:space="preserve"
   width="57.736511mm"
   height="53.683197mm"
   style="clip-rule:evenodd;fill-rule:evenodd;image-rendering:optimizeQuality;shape-rendering:geometricPrecision;text-rendering:geometricPrecision"
   viewBox="0 0 57.736511 53.683197"
   version="1.1"
   inkscape:version="1.2.1 (9c6d41e410, 2022-07-14)"
   sodipodi:docname="pebbles1.svg"
   id="svg15"
   csurvey:sign="1284"
   csurvey:author=""
   csurvey:note=""
   csurvey:rotationangledelta="0.0"
   xmlns:inkscape="http://www.inkscape.org/namespaces/inkscape"
   xmlns:sodipodi="http://sodipodi.sourceforge.net/DTD/sodipodi-0.dtd"
   xmlns="http://www.w3.org/2000/svg"
   xmlns:svg="http://www.w3.org/2000/svg"
   xmlns:csurvey="http://www.csurvey.it">
 <defs
   id="defs4">
  <style
   type="text/css"
   id="style2">
   <![CDATA[
    .str0 {stroke:black;stroke-width:0.2646}
    .fil0 {fill:white}
   ]]>
  </style>
 </defs>
 <g
   id="Livello_x0020_1"
   inkscape:label="Livello 1"
   inkscape:groupmode="layer"
   transform="translate(-16.530479,-15.582564)">
  <metadata
   id="CorelCorpID_0Corel-Layer" />
  <sodipodi:namedview
   id="base"
   pagecolor="#ffffff"
   bordercolor="#666666"
   borderopacity="1.0"
   inkscape:pageopacity="0.0"
   inkscape:pageshadow="2"
   inkscape:zoom="0.52841795"
   inkscape:cx="477.84145"
   inkscape:cy="287.65109"
   inkscape:document-units="px"
   inkscape:current-layer="layer1"
   showgrid="false"
   inkscape:window-width="2560"
   inkscape:window-height="1017"
   inkscape:window-x="-8"
   inkscape:window-y="-8"
   inkscape:window-maximized="1"
   inkscape:showpageshadow="0"
   inkscape:pagecheckerboard="0"
   inkscape:deskcolor="#d1d1d1" />
  <g
   id="layer1"
   inkscape:label="Livello 1"
   inkscape:groupmode="layer">
   <path
   id="path2816"
   class="fil0 str0"
   d="m 26.0901,29.6036 c -3.7146,1.921 -4.9647,3.4484 -7.2603,6.5092 -5.0696,6.7594 -1.067,19.9359 10.2645,14.2702 4.9224,-2.4612 8.9613,-20.7794 -3.0042,-20.7794 z"
   style="fill:#ffffff" />
   <path
   id="path2820"
   class="fil0 str0"
   d="m 46.1185,16.0844 c -3.8888,-0.7641 -8.3816,1.2308 -9.2631,4.7567 -2.2044,8.8175 19.1122,11.154 26.2872,8.7624 1.0173,-0.3391 1.8761,-7.2001 1.0014,-8.512 -2.3429,-3.5143 -12.003,-6.4304 -18.0255,-5.0071 z"
   style="fill:#ffffff" />
   <path
   id="path2822"
   class="fil0 str0"
   d="m 52.878,38.6163 c -2.7088,-0.058 -4.256,1.4289 -4.256,4.0057 0,11.2229 14.9451,-0.3809 4.256,-4.0057 z"
   style="fill:#ffffff" />
   <path
   id="path2824"
   class="fil0 str0"
   d="m 68.1496,39.8681 c -0.3691,0.9011 -1.5021,2.9974 -1.5021,3.7553 0,25.5654 15.7919,-6.9137 1.5021,-3.7553 z"
   style="fill:#ffffff" />
   <path
   id="path2826"
   class="fil0 str0"
   d="m 47.3702,54.1383 c -2.9432,-0.4063 -6.0074,-0.2504 -9.0128,-0.2504 -7.1037,0 -10.9544,13.597 -6.2589,14.7709 9.3379,2.3345 23.1518,-4.2023 15.2716,-14.5205 z"
   style="fill:#ffffff" />
  </g>
 </g>
</svg>
