<?xml version="1.0" encoding="UTF-8"?>
<!DOCTYPE svg PUBLIC "-//W3C//DTD SVG 1.1//EN" "http://www.w3.org/Graphics/SVG/1.1/DTD/svg11.dtd">
<!-- Creator: CorelDRAW -->
<svg xmlns="http://www.w3.org/2000/svg" xml:space="preserve" width="210mm" height="297mm" style="shape-rendering:geometricPrecision; text-rendering:geometricPrecision; image-rendering:optimizeQuality; fill-rule:evenodd; clip-rule:evenodd"
viewBox="0 0 210 297"
 xmlns:xlink="http://www.w3.org/1999/xlink">
 <defs>
  <style type="text/css">
   <![CDATA[
    .fil0 {fill:#1F1A17}
   ]]>
  </style>
 </defs>
 <g id="Livello_x0020_1">
  <metadata id="CorelCorpID_0Corel-Layer"/>
  <g id="_137717792">
   <path id="_130697848" class="fil0" d="M73.8887 112.675l-0.1692 0 -0.5922 0.5921 2.284 0.5076 0.5921 0.8459 -0.5075 2.2839 0.1691 1.2689 -0.5921 -0.1692 -1.1842 -1.7764 -1.2689 -1.0151 -0.3384 0 0 3.1298 0.3384 1.0997 1.2689 -1.2688 0.6767 0 -0.3384 3.0452 -1.0997 1.438 0.5922 0.7613 1.7764 -2.7068 1.5226 -2.7069 1.5226 -5.8367 0.8459 -0.7613 1.0997 0.1691 0.6767 1.0997 -0.3384 2.1148 -3.0452 4.4832 -0.9305 1.9456 1.6918 -0.3384 0.2538 0.1692 -1.3535 1.7764 0.1692 0.1692 5.6675 -5.4984 3.5528 -1.7763 0.1692 0 -6.3442 8.036 1.2688 -0.3384 6.1751 -3.0452 0.5075 0.1692 -1.6072 1.438 -2.6223 2.4531 -3.7219 1.7764 -2.1148 0.5075 1.9456 2.0302 1.0151 2.1148 0.3383 1.2688 0.423 0 3.8911 -2.5377 1.438 -0.5075 -0.5921 1.438 -2.6223 3.299 -3.2144 2.7069 1.438 -0.1692 4.3987 -0.9305 -1.0151 1.0997 -1.6072 1.0996 -1.9456 0.5076 -0.2537 0.3383 -0.8459 0 -0.1692 0.1692 3.5528 2.1994 1.2688 1.1842 0.1692 0 0.5075 -2.2839 0 -0.5075 0.3384 0 1.9456 2.9606 0.7613 -1.0151 1.1842 -0.8459 1.4381 -0.2537 1.2688 0.2537 0 0.5076 -1.1842 1.3534 -0.5922 1.5226 -0.1692 0.2538 3.722 2.7069 2.5377 0 0.1692 0.1691 0.3383 0 0 -0.6767 -3.7219 -1.0996 -0.7613 -0.6768 0 -0.2537 2.0301 -0.5076 1.0151 0.0846 -0.3384 -2.0301 -0.1691 -0.1692 -0.6768 0.3383 -1.8609 -3.2144 0 -1.0151 -2.7915 -0.1691 -1.438 -0.5922 -1.2689 0 -0.3383 0.3384 -0.5922 -0.2538 0.5922 -1.438 1.9455 -1.2689 2.3686 -0.1691 1.3534 0.1691 0 -2.3685 1.2688 -2.1147 0.3384 -1.0151 0.4229 0.8459 0.3384 1.6072 1.2689 1.7764 1.6918 -1.0997 1.438 -0.3383 1.0997 0.3383 0.8459 1.0997 0 0.5075 -1.7764 0.5922 -0.8459 1.3534 -0.3384 0.2538 0.1692 0.1692 2.1147 -1.2689 1.6072 -0.3384 0.8459 0.3384 0.1692 0.1692 1.0997 -1.9456 1.9456 -1.2688 1.438 -0.3384 0 3.2144 -0.3384 0.5076 -0.1692 0.1691 0 0.3384 1.0997 0.2538 0.8459 0.5075 0.6767 1.0151 0.5922 0.2538 0.1691 0.1691 -0.5075 0.8459 -1.438 0.7614 -2.3685 -0.1692 0.3383 2.6223 5.4138 -2.1148 0.5075 0 -2.2839 2.8761 -3.9757 3.1298 -1.6072 0.9305 1.9455 0 4.1449 -0.5076 2.6223 0.1692 0 0.3384 -2.9606 1.6072 -0.1692 0.1692 1.438 0.1692 4.2295 1.9455 0.1692 0 -1.6072 -3.5528 -0.5076 -3.5527 -0.1691 -0.1692 0.5075 0 3.3836 3.2144 0.3384 0.7613 0.3383 0.423 2.2839 -2.1148 1.2689 2.8761 -0.1692 0.7613 0 0.3383 0.1692 0.1692 1.438 -2.1993 1.4381 -3.2144 0.3383 -0.423 -6.3442 -0.0846 -3.8066 -1.6072 -2.4531 -1.2688 0 -0.423 0.3384 -0.2537 5.6675 -0.1692 2.8761 0.6767 3.7219 2.1993 0.1692 0 0 -0.5921 -3.3836 -4.0603 -0.8459 -5.8367 0.3384 -0.2538 1.6072 2.8761 2.876 4.9908 0.3384 1.7764 0 0.1691 0.1692 0.1692 2.5377 -4.8216 -1.4381 -2.7915 0 -3.0452 0.5076 -1.2689 -0.5076 -3.3836 0.1692 -1.438 0.3384 0 0.8459 1.2689 0.4229 0.5075 2.6223 -3.6374 -0.3384 2.6223 -0.6767 3.3836 0.5076 1.6072 0 0.1692 0.1691 0.1692 2.1994 -5.4984 2.6223 -3.5527 1.1842 -0.9305 -1.1842 5.7521 -1.4381 3.0452 -0.5075 0.5076 0 0.1692 0.6767 0 5.16 -2.1994 0.2538 0 0 0.423 -4.6525 4.2295 -1.0996 0.2537 -0.1692 0.2538 0.3383 0.2538 3.2145 0.8459 3.7219 2.2839 0 0.2538 -4.0603 0.3383 -3.5528 -0.9305 -1.438 -1.015 -0.7613 -1.2689 -0.1692 -0.1692 -1.2688 1.9456 -2.284 5.3292 0 0.1691 1.4381 -0.1691 1.7763 -0.6768 2.8761 0 5.3292 1.2689 0.7613 -0.2538 0.2538 0.1692 0 0.2538 -7.1056 1.7764 -3.299 -0.2538 -0.0846 0.1692 2.3685 1.5226 3.0453 4.0603 0.8459 1.0151 0.1691 0.1692 -0.3383 0.2537 -1.6072 -0.4229 -3.9758 -0.8459 -0.6767 0 -1.438 1.0151 -0.1692 0.0846 0.423 0.3383 5.4983 0.6767 0 0.3384 -1.9456 0.5921 -0.2537 0.3384 8.2052 1.2688 0.0846 0.1692 0 0.3384 -4.3141 0.1692 -6.0905 1.2688 -0.1692 0 -0.1691 0.1692 0 0.1692 3.5527 0.3383 3.722 0.7613 4.6524 2.284 0.1692 0 0.1692 0.1691 0 0.1692 -0.3384 0.3384 -8.5435 -0.2538 -0.3384 0.6767 -0.1692 1.0151 -0.4229 0.423 2.1993 1.6918 0 0.2537 0.6767 0.5076 0.1692 0 0 0.3383 -2.1147 1.0997 -1.6073 -0.3384 -0.6767 -0.7613 -0.0846 0 -0.4229 2.7069 -0.9305 1.438 0 0.8459 -0.1692 0.1692 -1.7764 -2.7915 0 -0.5075 -0.3383 -0.2538 -0.423 0.2538 -2.1147 -0.2538 -0.3384 0.6768 0.1692 7.0209 -0.1692 0.1692 0 0.3384 -1.2688 -2.4532 -1.9456 -4.9908 -0.1692 -0.0845 -2.876 5.0753 -0.5076 -0.1691 -0.2537 -2.1994 0 -0.5075 -0.2538 -0.1692 -2.1994 2.4531 -2.1147 1.438 0 0.1692 4.9908 0 2.9606 0.6767 -0.2537 0.5922 -5.9213 1.3534 -5.16 0 0.3384 1.861 -0.3384 2.4531 -0.3384 0.5921 0 0.5076 -0.1691 -0.1692 -0.2538 0 -1.0151 -2.7069 -0.1692 -1.6072 -3.2144 0.7613 -2.7915 0 -1.2688 -0.4229 -0.1692 -0.1692 4.2295 -1.7764 0.3384 0 0.2537 -0.3384 -2.7068 -0.9305 -0.2538 0.2538 -1.6918 -1.6072 -0.9305 4.2295 -0.5075 0.5075 1.9455 1.4381 1.2689 1.2688 -1.6072 0.6767 -1.9456 -0.1691 0.1692 1.6918 -0.5921 1.5226 0 1.438 -1.0151 -0.1692 -1.6072 -1.7764 -0.5076 -1.438 0 -0.1692 -0.1692 -0.1692 -1.5226 1.1843 -2.2839 -0.2538 -2.2839 -1.438 -0.9305 -1.0997 0 -0.1691 1.861 0.3383 0.6767 0.1692 0.5075 0 0.1692 -0.1692 -3.3836 -2.7069 -1.438 -1.438 -0.1692 5.5829 -0.1692 1.1843 0 0.0846 -2.1147 -4.4833 -0.3384 -4.0603 -0.1692 -0.1692 -0.5921 0.8459 -1.1843 2.4531 -3.6373 4.3141 -0.5076 0.5076 -0.1691 0 0 -0.6768 2.5377 -6.2596 1.015 -1.6072 0 -0.1692 -1.2688 0.5921 -4.5679 2.4531 -1.438 0.3384 -0.1692 0 2.1148 -2.8761 -1.2689 -0.3383 1.9456 -3.5528 2.3685 -1.9456 0.3384 0 0.3383 -0.3383 -3.2144 -1.2689 -0.3384 -0.3383 -0.3383 0 -1.438 4.6524 -0.6768 1.6918 -0.1691 0.0846 -0.3384 0 -0.423 -6.0905 0.0846 -1.438 0 -0.5075 -0.0846 -0.1692 -1.6072 2.2839 -2.4531 1.2689 -0.1691 -0.1692 0 -0.5921 0.6767 -1.3535 0 -0.1692 -0.6767 0 -4.6525 2.6223 -1.6072 0.3384 -0.5075 -0.1692 1.2688 -1.438 4.2295 -3.2144 -5.16 -0.5076 -2.1147 -1.0151 -0.3384 -0.3383 6.0059 -1.6918 4.0603 0.1692 1.0997 0.4229 0.1692 0.1692 0.1691 -0.1692 -2.1147 -3.5528 0 -4.0603 2.7069 2.1148 1.7764 2.1147 0.1691 0.8459 0.3384 0.2538 1.2688 -1.5226 1.4381 -0.8459 0.5075 -0.5076 -3.3836 -5.5829 -1.0151 -2.4531 0 -0.6767 0.2538 -0.0846 7.6977 5.7521 0.3384 0 0.4229 0.5075 1.1843 -0.5075 0.1691 0 0.1692 -0.1692 -5.16 -10.32 -0.3383 -0.9305 -0.1692 -0.1691 -1.2689 1.7764 -6.0058 3.8911 -0.3384 0 -0.0846 -0.2538 2.5377 -4.3141 -4.2295 1.3535 -0.4229 -0.1692 -0.1692 0 -0.1692 -0.2538 1.9456 -1.6918 2.3685 -1.6918 -3.9757 -0.2537 -2.7915 -1.0151 -1.0997 -0.7613 0.3384 -0.3384 2.2839 -0.3384 5.7521 -0.1691 2.284 0 0.1691 -0.0846 -2.6223 -1.3535 -2.1147 -1.9455 1.6072 0 3.6374 1.7764 0 0.1691 0.0846 0.1692 0 -1.2688 -1.6072 -5.3292 0 -0.6767 -0.1692 -0.1692 -1.4381 1.438 0 -3.3836 -1.9455 3.722 -2.0302 2.2839 -2.4531 1.9456 -0.6767 0 4.2295 -7.2747 -1.438 0.6767 -1.6072 0.7613 -4.2295 1.0151 -1.9456 -0.3384 -0.1692 0 5.4984 -2.7915 3.8911 -1.0996 -6.0059 -2.0302 -3.722 -1.9456 -0.4229 -0.1691 0 -0.3384 5.4983 0.7613 3.0453 1.0151 -0.8459 -2.6223 0.3383 -0.4229 2.4532 0 1.2688 0.4229 0.1692 0.1692 -0.1692 -1.0997 -1.1843 -2.2839 -3.9757 2.7915 -0.8459 -1.4381 0.1692 -1.5226 1.1843 -1.6072 0.7613 -0.423 0.1691 -0.1691 -2.2839 -1.9456 -0.2538 -1.6072 0 -0.6767 4.3141 1.015 1.2689 1.2689 0.8459 -1.438 1.438 -1.1843 2.4531 -0.7613 0.423 0 -1.6072 3.2144zm2.4531 50.2464l-1.4381 0 -0.1691 -0.1691 1.6072 -1.6918 1.2688 0.9304 -1.2688 0.9305zm0.9305 -3.0452l0.8459 -1.9456 1.0996 1.7764 -1.9455 0.1692zm6.9363 -2.1993l-1.0996 -1.6918 1.0996 0 0 1.6918zm1.4381 -5.3292l-1.2689 -1.6072 -0.1692 -0.6767 3.0453 1.9455 -1.6072 0.3384zm-0.0846 -4.2295l0.5921 0 1.438 -1.0151 0.8459 2.1148 -2.876 -1.0997zm8.3744 0.8459l0.0846 0.0846 -1.861 2.1147 0 -3.2144 -0.1692 -0.3383 0.9305 0.1691 1.0151 1.1843zm11.758 7.6977l-1.7764 -0.3384 1.438 -1.0996 1.0151 0.5075 -0.6767 0.9305zm5.7521 2.4531l-1.9456 -1.0151 -0.1692 -0.1692 0.423 -0.7613 0.5921 -0.5075 3.3836 0.1692 -2.2839 2.2839zm-0.1692 -5.8367l0.5075 -1.9456 0.3384 -0.4229 2.2839 2.5377 -3.1298 -0.1692zm20.8091 -20.4708l-1.0996 2.2839 0.5921 -2.9606 0.2538 0 0.2537 0.6767zm-2.7068 14.7187l-1.4381 0.4229 0.6767 -1.7764 0.5922 1.1843 0.1692 0.1692zm-36.9658 24.4465l1.5226 0.9304 0.3383 0 0.2538 -0.2537 0 -1.9456 0.3384 -0.3384 0 3.722 0.3383 0.3384 0.5076 0 1.9455 -3.8912 0.0846 -1.0151 0.6767 2.9607 0 0.2538 -0.6767 -0.7613 -0.5921 0 0.1692 2.7068 -0.5076 1.9456 -0.6767 0 -1.7764 -1.0997 -1.6072 -1.9455 -1.438 -3.5528 0 -0.5076 0.1692 0.1692 0.9305 2.284zm-3.6374 1.6072l0.5921 -0.3384 0.3384 -0.5075 0.1692 -0.0846 3.7219 5.7521 -0.3383 1.5226 -2.284 -3.3836 -3.3836 -3.6374 0.8459 -0.4229 0 0.7613 0.3384 0.3384zm37.5579 -8.2053l-0.3383 0 -1.2689 -3.3836 2.5377 2.8761 -0.9305 0.5075zm5.16 -4.8216l-0.3384 0.5921 -1.015 0.6768 -1.5227 -0.5076 -2.2839 -1.9455 -1.0997 -2.1148 4.145 2.4531 2.1147 0.8459zm-20.6399 -9.6432l-2.9607 2.5377 -0.7613 0 4.3141 -3.8912 0.3383 0.9305 -0.9304 0.423zm-4.7371 -8.459l-2.3685 2.1147 0.5075 -1.2688 0 -0.6767 -3.1298 0.5075 -0.4229 0.3384 0.7613 -1.6073 2.4531 -2.4531 0.7613 1.9456 1.438 1.0997zm-7.6977 -5.4984l2.6223 0.423 0.423 0.0846 0.1692 0.1691 -2.5377 3.5528 -0.3384 1.0151 -0.3384 0.2538 0 -3.2144 0.5076 -1.0997 -0.6767 -1.438 -0.5076 -0.3384 1.438 -0.3384 0.1692 -0.1691 -0.9305 1.015 0 0.0846zm-12.2655 6.1751l1.0997 1.2688 -2.0302 0.1692 -3.0452 1.7764 -2.1148 -4.1449 -0.5075 -1.3534 4.0603 2.1147 2.5377 0.1692zm-4.4833 -10.8275l-3.7219 3.8911 0 0.1692 -2.1148 -6.4288 -0.1692 -1.0151 1.7764 1.6072 4.2295 1.7764z"/>
   <polygon id="_130697872" class="fil0" points="73.7195,111.998 71.5201,113.521 71.0126,113.521 71.5201,111.744 73.1273,110.56 74.0578,110.221 74.3962,110.221 "/>
   <polygon id="_130697920" class="fil0" points="69.7438,112.844 69.8283,113.774 68.3903,114.113 66.6985,113.774 65.5143,112.675 65.1759,111.067 68.8979,111.998 "/>
   <polygon id="_130698016" class="fil0" points="80.4021,113.521 77.949,116.397 79.0486,112.505 79.7254,111.829 80.4021,111.998 "/>
   <polygon id="_130698112" class="fil0" points="71.0126,114.113 70.6742,114.451 70.0821,114.451 69.9975,113.859 70.8434,113.774 "/>
   <polygon id="_130698208" class="fil0" points="75.0729,114.113 75.4113,114.62 75.4959,114.789 75.0729,116.566 75.0729,117.158 73.4657,115.212 71.7739,114.451 73.2119,113.944 74.5654,114.113 "/>
   <polygon id="_130698280" class="fil0" points="78.7949,116.65 79.0486,115.72 80.4021,114.62 79.387,116.058 "/>
   <polygon id="_130698376" class="fil0" points="69.5746,114.959 69.4054,115.889 65.8526,118.934 65.5143,118.596 65.6834,116.904 66.3602,116.058 67.7982,115.128 69.067,114.789 69.2362,114.959 "/>
   <polygon id="_130698448" class="fil0" points="71.6893,115.381 72.1123,120.288 71.9431,120.372 70.1667,116.65 70.5051,115.212 70.8434,115.128 71.351,115.128 "/>
   <polygon id="_130713872" class="fil0" points="82.6014,120.711 79.8945,123.756 78.1182,124.602 75.4959,124.602 77.6106,123.756 82.4322,118.511 85.5621,116.566 85.5621,116.989 "/>
   <polygon id="_130713968" class="fil0" points="67.4598,118.173 69.2362,116.65 67.629,118.173 "/>
   <polygon id="_130714040" class="fil0" points="76.6801,120.372 75.8342,121.387 75.4959,121.726 77.7798,117.158 78.4565,117.327 "/>
   <polygon id="_130714112" class="fil0" points="72.9582,121.895 72.9582,120.034 73.8887,118.765 73.7195,121.049 "/>
   <polygon id="_130714208" class="fil0" points="73.8887,124.433 71.5201,123.925 68.5595,122.656 67.629,121.218 67.629,120.542 69.2362,121.218 70.8434,122.995 71.0126,123.333 71.6893,123.925 72.1123,123.671 70.1667,121.218 68.8979,120.372 70.6742,120.88 "/>
   <polygon id="_130714280" class="fil0" points="85.2237,123.418 80.6559,125.871 78.2873,126.04 76.3418,125.702 78.1182,125.532 79.7254,124.771 79.8945,124.771 82.9398,123.418 86.3234,121.557 86.6617,121.557 "/>
   <polygon id="_130714376" class="fil0" points="76.5109,122.995 74.9037,123.925 74.3962,123.925 76.6801,121.98 77.2723,121.726 77.6106,121.726 "/>
   <polygon id="_130714472" class="fil0" points="70.5051,124.771 70.1667,125.109 67.629,124.602 63.3995,122.995 61.9615,122.149 65.8526,122.825 "/>
   <polygon id="_130714544" class="fil0" points="135.47,130.185 133.44,132.13 133.525,130.692 134.878,127.14 137.247,123.333 137.923,122.825 136.908,127.478 "/>
   <polygon id="_130714616" class="fil0" points="61.6231,129.254 67.2906,126.717 70.0821,126.04 71.351,125.363 66.191,128.493 "/>
   <polygon id="_130714712" class="fil0" points="74.227,125.702 73.7195,127.985 73.1273,128.916 72.789,129.254 72.9582,127.055 73.5503,125.363 73.8887,125.363 "/>
   <polygon id="_130714784" class="fil0" points="130.987,127.647 132.256,125.363 131.579,128.324 "/>
   <polygon id="_130714880" class="fil0" points="68.8979,131.707 66.191,133.991 69.067,128.747 72.4506,125.702 71.1818,127.816 "/>
   <polygon id="_130714952" class="fil0" points="80.825,130.185 80.9942,131.369 78.5411,130.523 76.6801,129.085 75.4113,127.309 75.0729,125.871 78.8795,127.478 "/>
   <polygon id="_130715024" class="fil0" points="132.087,131.2 132.087,131.707 130.479,130.692 129.38,128.493 129.041,127.14 129.211,126.378 131.579,129.593 "/>
   <polygon id="_130715120" class="fil0" points="77.6106,138.136 77.1031,137.967 74.5654,130.1 74.5654,127.478 77.4414,137.967 "/>
   <polygon id="_130715216" class="fil0" points="136.147,133.145 133.694,133.145 133.525,132.976 135.809,131.538 140.207,129.762 138.262,132.046 "/>
   <polygon id="_130715288" class="fil0" points="84.8853,132.638 80.4021,136.529 78.5411,137.798 78.2873,137.459 78.7949,136.021 82.7706,132.13 86.3234,130.1 86.4926,130.1 "/>
   <polygon id="_130715360" class="fil0" points="96.6433,132.638 96.4742,134.076 95.9666,134.583 95.3745,133.568 95.3745,133.145 95.0361,132.807 94.867,133.822 94.867,134.414 94.0211,133.315 94.5286,131.538 95.3745,130.185 96.1358,132.046 "/>
   <polygon id="_130715456" class="fil0" points="130.649,133.315 130.141,135.514 130.141,136.021 129.211,134.245 129.38,131.2 129.549,130.692 130.649,131.538 "/>
   <polygon id="_130715528" class="fil0" points="106.117,136.021 104.849,136.021 105.864,133.145 107.471,132.046 108.232,131.876 108.401,134.245 "/>
   <polygon id="_130715600" class="fil0" points="101.973,133.145 100.704,133.484 99.5194,134.753 98.2506,135.683 97.3201,135.429 96.9817,135.429 97.743,133.484 98.9273,132.469 100.365,132.046 101.296,132.299 "/>
   <polygon id="_130715672" class="fil0" points="130.141,138.813 128.618,142.45 128.365,142.45 127.942,142.958 129.718,138.898 130.818,136.698 132.002,134.414 132.763,133.145 132.763,134.076 "/>
   <polygon id="_130715744" class="fil0" points="141.476,136.867 141.645,136.952 138.854,137.375 135.216,136.191 133.694,134.245 133.694,134.076 139.7,135.683 "/>
   <polygon id="_130715816" class="fil0" points="126.757,141.181 126.757,141.689 123.712,138.136 123.289,134.753 123.12,134.245 126.673,139.913 "/>
   <polygon id="_130748440" class="fil0" points="75.0729,136.867 72.4506,135.514 71.6893,134.583 74.5654,136.191 "/>
   <polygon id="_130748512" class="fil0" points="91.3142,135.26 91.145,135.429 91.145,135.514 93.9365,135.683 94.0211,135.852 94.3594,135.852 94.3594,136.36 93.7673,136.952 91.3142,136.952 89.3686,136.191 88.6073,136.36 88.7765,135.683 90.2145,134.753 90.9758,134.583 93.9365,134.922 "/>
   <polygon id="_130748584" class="fil0" points="104.256,135.429 103.918,136.867 102.988,137.206 101.973,136.952 100.534,136.36 100.196,136.36 101.634,135.26 102.988,134.753 103.749,134.922 "/>
   <polygon id="_130748656" class="fil0" points="96.1358,135.429 96.1358,135.852 95.7129,136.021 95.2053,136.021 95.2053,135.26 95.9666,135.26 "/>
   <polygon id="_130748728" class="fil0" points="111.024,137.798 109.501,138.813 107.809,138.644 106.963,138.136 106.456,136.952 108.232,136.021 109.755,136.191 "/>
   <polygon id="_130748824" class="fil0" points="84.7162,136.952 79.8945,138.136 83.6165,136.529 85.2237,136.191 85.5621,136.191 "/>
   <polygon id="_130748896" class="fil0" points="98.0814,137.798 97.6584,139.405 95.9666,140.843 94.5286,139.067 94.5286,137.629 95.3745,136.867 95.3745,138.475 95.7974,138.813 96.1358,137.375 96.4742,136.698 97.3201,136.867 "/>
   <polygon id="_130748968" class="fil0" points="105.864,137.459 105.864,137.967 104.849,137.629 104.679,136.867 105.695,137.206 "/>
   <polygon id="_130749064" class="fil0" points="75.665,138.475 75.8342,138.475 73.7195,139.574 66.9523,139.405 65.3451,138.644 66.191,138.136 68.1365,137.798 75.0729,138.136 "/>
   <polygon id="_130749136" class="fil0" points="104.087,138.644 101.634,140.843 101.042,141.52 101.042,141.351 100.788,141.181 99.5194,141.858 100.534,140.082 102.142,138.136 104.087,138.136 "/>
   <polygon id="_130749232" class="fil0" points="107.302,140.589 106.794,142.281 105.018,140.589 104.849,139.574 105.187,138.644 106.963,139.405 "/>
   <polygon id="_130749304" class="fil0" points="84.8853,141.689 85.5621,142.281 83.7857,142.281 80.4867,140.759 79.2178,139.236 79.387,138.898 81.9247,139.574 "/>
   <polygon id="_130749376" class="fil0" points="77.2723,141.351 76.1726,142.958 71.7739,146.003 71.351,146.172 72.2814,144.142 75.1575,141.012 77.0185,139.405 77.4414,139.405 "/>
   <polygon id="_130749448" class="fil0" points="81.5018,146.849 81.3326,147.357 82.1785,147.949 84.547,152.77 84.2086,152.77 82.7706,150.486 79.0486,143.296 78.2873,140.843 78.1182,139.574 78.7949,140.759 "/>
   <polygon id="_130749520" class="fil0" points="125.235,142.619 125.489,142.958 122.443,143.465 118.721,142.619 114.83,140.759 114.661,140.589 117.96,140.082 122.105,140.843 "/>
   <polygon id="_130749592" class="fil0" points="69.5746,143.465 68.7287,143.465 71.1818,141.52 73.5503,140.336 74.227,140.251 72.1123,142.281 "/>
   <polygon id="_130749664" class="fil0" points="106.371,145.665 102.48,147.103 103.241,146.003 106.117,143.296 106.456,143.296 106.625,143.127 106.625,143.296 106.963,143.635 107.302,143.635 107.64,143.296 107.64,142.281 111.447,140.589 112.631,140.251 110.685,142.619 "/>
   <polygon id="_130749736" class="fil0" points="88.7765,143.973 88.4381,144.227 87.1693,143.465 86.8309,142.619 87.1693,140.336 88.7765,142.789 "/>
   <polygon id="_130749808" class="fil0" points="96.9817,141.52 97.4047,140.336 97.9122,143.719 "/>
   <polygon id="_130749904" class="fil0" points="91.3142,143.465 90.3837,143.973 89.3686,143.465 89.707,142.196 90.0453,141.52 91.8217,140.759 92.583,140.759 "/>
   <polygon id="_130749976" class="fil0" points="139.7,142.619 134.201,143.719 129.211,142.958 132.932,141.52 136.147,141.689 "/>
   <polygon id="_130750048" class="fil0" points="99.181,144.565 99.0965,144.734 98.7581,144.142 99.0965,142.45 100.196,142.027 100.196,143.296 "/>
   <polygon id="_130750120" class="fil0" points="102.48,146.003 101.127,147.103 99.3502,147.103 100.196,144.903 101.465,143.719 102.311,143.465 103.241,143.465 "/>
   <polygon id="_130750192" class="fil0" points="127.603,144.227 127.603,146.849 126.757,148.456 126.504,148.795 125.996,146.172 126.927,143.719 127.265,143.973 "/>
   <polygon id="_130750264" class="fil0" points="97.6584,144.734 97.9122,145.073 97.9122,145.411 95.9666,145.073 94.867,144.396 96.1358,144.142 97.3201,144.565 "/>
   <polygon id="_130750336" class="fil0" points="133.102,145.665 136.316,149.725 136.485,150.232 136.654,150.402 132.087,149.387 129.718,146.849 128.618,144.142 131.156,144.734 "/>
   <polygon id="_130750408" class="fil0" points="89.5378,145.073 89.0303,145.58 88.6073,145.58 88.4381,145.411 89.1994,144.227 89.5378,144.565 "/>
   <polygon id="_137328344" class="fil0" points="93.7673,146.511 93.2598,146.341 92.9214,146.341 92.7522,147.018 91.8217,146.849 90.5529,145.242 90.3837,145.073 90.3837,144.734 91.145,144.396 93.7673,146.172 "/>
   <polygon id="_137328416" class="fil0" points="119.229,148.118 119.06,150.486 118.552,150.063 117.96,150.063 116.184,147.018 115.845,144.396 117.96,146.003 "/>
   <polygon id="_137328488" class="fil0" points="87.7614,145.58 87.5922,146.172 85.8158,147.526 82.4322,147.103 85.3083,145.242 85.8158,145.073 87.7614,145.242 "/>
   <polygon id="_137328560" class="fil0" points="91.4834,148.625 91.4834,150.232 91.145,150.486 89.0303,149.048 88.4381,147.526 88.6073,146.341 89.8762,145.665 91.145,147.103 "/>
   <polygon id="_137328632" class="fil0" points="113.223,146.511 111.024,148.118 108.909,148.964 106.371,149.048 105.187,147.779 104.849,147.526 110.347,146.341 112.885,146.511 "/>
   <polygon id="_137328704" class="fil0" points="122.105,150.063 121.344,151.163 120.498,151.163 119.736,149.725 119.99,147.779 121.428,146.341 122.443,148.118 "/>
   <polygon id="_137328776" class="fil0" points="98.5889,147.61 97.6584,148.964 96.1358,149.218 94.5286,148.625 93.9365,147.61 93.9365,147.357 96.1358,147.018 98.2506,147.357 "/>
   <polygon id="_137328848" class="fil0" points="124.558,149.894 123.289,150.402 124.558,148.625 125.319,147.103 125.319,148.118 "/>
   <polygon id="_137328944" class="fil0" points="100.196,148.456 99.181,148.795 98.7581,148.795 98.5889,148.625 98.9273,147.779 100.196,147.949 "/>
   <polygon id="_137329016" class="fil0" points="105.525,149.218 106.117,150.063 104.679,150.74 101.973,150.232 101.127,149.218 101.127,148.625 101.042,148.456 102.734,147.949 104.51,148.118 "/>
   <polygon id="_137329112" class="fil0" points="90.2145,150.486 91.145,151.332 89.0303,151.671 84.8853,149.725 83.6165,148.456 86.3234,149.048 "/>
   <polygon id="_137329184" class="fil0" points="105.695,151.163 103.241,153.109 102.48,153.109 102.311,152.178 102.311,151.671 104.679,151.671 107.302,150.232 107.471,149.725 109.755,149.387 111.277,148.456 111.193,149.218 "/>
   <polygon id="_137329256" class="fil0" points="130.987,149.387 127.434,151.84 127.265,151.671 128.195,150.74 128.195,150.486 125.658,150.232 125.658,149.387 126.165,150.232 126.673,150.232 127.434,148.964 128.618,148.456 130.141,148.625 "/>
   <polygon id="_137329328" class="fil0" points="116.184,150.486 116.353,150.74 115.507,151.332 114.238,151.501 114.069,151.671 115.507,152.939 115.507,153.109 114.069,152.178 112.123,149.387 111.954,148.795 112.715,148.795 "/>
   <polygon id="_137329400" class="fil0" points="101.465,152.009 101.973,154.885 101.803,155.054 100.027,151.501 100.027,149.387 100.534,149.725 "/>
   <polygon id="_137329472" class="fil0" points="78.2873,154.124 78.1182,154.293 78.1182,154.716 80.2329,155.562 82.6014,158.099 80.825,157.169 78.7949,156.831 79.2178,156.154 79.2178,155.985 78.8795,155.731 78.1182,155.815 74.3962,149.894 74.3962,149.556 78.7949,154.124 "/>
   <polygon id="_137329544" class="fil0" points="98.7581,151.501 96.8125,153.278 95.7974,153.616 95.7974,151.84 96.305,150.063 98.4197,149.556 99.0965,149.556 "/>
   <polygon id="_137329616" class="fil0" points="80.6559,153.785 80.2329,153.87 79.7254,153.87 75.665,149.894 78.8795,152.347 "/>
   <polygon id="_137329688" class="fil0" points="94.2748,151.163 93.0906,152.009 93.0906,151.163 93.4289,150.74 94.2748,150.063 94.6978,150.232 "/>
   <polygon id="_137329760" class="fil0" points="104.51,153.447 104.087,153.447 105.695,152.009 109.501,150.402 105.695,153.616 "/>
   <polygon id="_137329832" class="fil0" points="126.927,151.163 125.996,152.601 124.812,153.109 122.951,152.601 122.443,152.347 122.274,152.178 124.051,150.74 126.165,150.909 "/>
   <polygon id="_137329904" class="fil0" points="119.736,152.347 118.468,153.278 116.776,153.109 115.338,152.347 115.168,152.178 117.622,150.994 119.229,151.332 "/>
   <polygon id="_137329976" class="fil0" points="130.818,153.447 128.111,154.124 123.289,155.393 122.782,154.716 122.951,154.293 123.12,154.293 126.334,153.278 127.603,152.432 129.718,151.84 131.156,151.671 134.032,152.178 "/>
   <polygon id="_137330048" class="fil0" points="91.9909,152.347 92.3293,152.601 84.3778,153.616 82.7706,154.124 82.1785,154.124 89.8762,152.178 90.8912,152.009 91.9909,152.178 "/>
   <polygon id="_137330120" class="fil0" points="109.247,153.278 110.685,152.009 110.347,153.278 "/>
   <polygon id="_137330192" class="fil0" points="121.344,152.263 121.344,152.432 120.329,152.855 119.99,151.924 120.751,151.755 121.344,152.178 "/>
   <polygon id="_137330264" class="fil0" points="94.5286,152.601 92.583,152.601 93.7673,152.432 94.0211,152.178 95.0361,152.178 "/>
   <polygon id="_137524328" class="fil0" points="99.6886,152.601 99.181,152.601 99.0965,152.432 99.3502,152.178 99.6886,152.432 "/>
   <polygon id="_137524400" class="fil0" points="122.274,153.616 121.851,152.939 123.12,153.447 "/>
   <polygon id="_137524472" class="fil0" points="100.027,153.616 93.7673,154.716 90.8912,154.885 84.547,155.393 79.5562,154.885 79.387,154.716 82.2631,154.716 90.2145,153.616 94.867,153.278 94.867,153.87 94.6978,154.124 96.8125,154.124 97.6584,153.785 98.7581,153.785 98.9273,153.616 98.4197,153.109 100.027,153.278 "/>
   <polygon id="_137524544" class="fil0" points="121.936,154.547 121.597,156.154 120.498,157.761 119.398,156.323 119.567,154.378 120.498,153.278 121.428,153.785 "/>
   <polygon id="_137524616" class="fil0" points="118.891,154.124 118.721,154.885 118.045,155.393 112.462,155.815 108.909,155.393 105.948,154.293 111.024,153.87 117.453,154.124 "/>
   <polygon id="_137524688" class="fil0" points="135.216,155.393 126.757,156.492 124.558,155.815 126.673,155.054 131.156,154.124 131.833,153.87 137.754,154.547 "/>
   <polygon id="_137524760" class="fil0" points="101.296,155.731 99.8578,155.223 97.4047,154.716 100.027,154.124 100.534,154.293 "/>
   <polygon id="_137524832" class="fil0" points="102.48,156.154 102.311,155.731 102.565,154.716 103.411,154.124 104.679,154.547 "/>
   <polygon id="_137524904" class="fil0" points="73.7195,159.114 73.5503,160.637 73.2119,162.329 70.8434,159.707 69.7438,157.254 69.8283,154.716 73.1273,157.677 "/>
   <polygon id="_137524976" class="fil0" points="101.042,156.323 101.127,156.492 98.4197,157.169 95.7129,156.492 94.0211,155.731 94.2748,155.393 98.2506,155.562 "/>
   <polygon id="_137525048" class="fil0" points="92.3293,156.661 91.9909,157 91.3142,155.562 92.7522,155.562 "/>
   <polygon id="_137525120" class="fil0" points="83.4473,157.677 83.4473,157.761 81.1634,155.731 81.9247,155.815 "/>
   <polygon id="_137525192" class="fil0" points="91.9909,157.93 91.9909,158.438 87.7614,155.985 87.5076,156.492 91.145,162.498 90.0453,161.991 88.4381,159.199 86.3234,157 85.6467,156.323 85.5621,156.323 85.5621,155.985 90.0453,155.815 90.2145,155.731 90.6375,155.731 "/>
   <polygon id="_137525264" class="fil0" points="97.1509,157.677 95.9666,158.945 95.7129,157.761 95.2053,157.761 93.4289,159.537 92.7522,159.114 92.4139,158.776 92.3293,157.254 93.2598,155.815 96.305,157.507 "/>
   <polygon id="_137525336" class="fil0" points="117.622,157.507 116.522,158.607 115.676,158.607 113.138,160.214 112.293,159.537 113.9,157.761 115.845,156.492 118.045,155.985 118.468,155.985 "/>
   <polygon id="_137525408" class="fil0" points="126.504,160.383 128.365,162.16 127.942,162.16 127.603,162.498 128.111,163.429 128.111,163.936 127.265,163.936 125.319,161.821 123.374,156.661 122.951,155.985 123.374,155.985 "/>
   <polygon id="_137525480" class="fil0" points="108.401,157.507 106.963,156.831 106.794,156.831 107.471,156.154 109.332,156.661 "/>
   <polygon id="_137525552" class="fil0" points="74.227,162.16 75.4959,158.607 77.2723,157.169 77.7798,156.831 76.5109,159.707 "/>
   <polygon id="_137525624" class="fil0" points="88.9457,161.483 87.5076,161.314 85.985,160.891 85.2237,159.368 85.2237,158.099 85.0545,156.831 87.0001,158.438 "/>
   <polygon id="_137525696" class="fil0" points="119.06,161.06 117.283,162.329 116.607,162.498 116.184,162.498 115.845,162.16 116.014,160.637 117.96,158.099 118.891,156.831 120.329,158.945 "/>
   <polygon id="_137525768" class="fil0" points="129.718,157.169 131.325,157.507 134.032,157.507 139.023,158.945 141.138,160.045 141.307,160.045 140.461,160.383 134.032,160.045 131.833,157.93 130.818,157.677 130.31,157.93 131.325,158.945 131.325,159.368 129.211,158.945 125.658,156.831 127.942,157.169 "/>
   <polygon id="_137525840" class="fil0" points="111.616,159.876 112.293,160.553 108.401,160.553 103.918,158.607 102.48,157.507 102.311,157.254 103.072,157 107.471,157.677 "/>
   <polygon id="_137525912" class="fil0" points="92.3293,159.368 92.7522,160.383 92.4139,161.991 93.0906,163.429 93.2598,163.598 92.7522,163.598 88.9457,157.507 90.8912,158.269 "/>
   <polygon id="_137525984" class="fil0" points="98.0814,159.876 96.9817,161.991 97.4047,162.498 98.7581,162.329 97.9122,162.921 96.4742,163.429 96.8125,161.821 96.1358,159.368 97.9122,157.761 99.8578,157.507 100.365,157.507 "/>
   <polygon id="_137526056" class="fil0" points="118.721,163.09 117.96,163.598 117.791,163.598 120.836,159.537 121.597,157.507 120.836,160.637 "/>
   <polygon id="_137526128" class="fil0" points="82.2631,158.776 83.2781,158.776 84.3778,159.707 85.0545,160.383 85.0545,160.553 82.9398,159.876 80.825,159.707 79.387,158.776 78.8795,157.677 81.1634,158.099 "/>
   <polygon id="_137526200" class="fil0" points="100.365,160.637 98.2506,161.821 97.9122,161.821 98.9273,159.707 100.704,157.93 101.127,157.761 101.127,159.114 "/>
   <polygon id="_137526272" class="fil0" points="124.727,164.528 124.812,164.697 124.812,165.036 124.389,165.036 124.812,166.981 124.812,171.211 123.12,162.16 122.613,157.761 123.374,159.368 "/>
   <polygon id="_130009288" class="fil0" points="103.241,162.16 102.988,161.314 102.734,159.199 102.565,158.438 103.241,160.214 "/>
   <polygon id="_130009360" class="fil0" points="95.7974,160.045 96.1358,161.991 95.7129,163.259 94.6978,164.021 93.9365,163.767 93.2598,162.498 93.5981,160.383 94.867,158.776 95.2053,158.776 "/>
   <polygon id="_130009456" class="fil0" points="101.634,162.752 99.3502,162.752 99.181,162.583 99.5194,161.991 100.704,161.314 101.973,159.114 102.48,162.329 "/>
   <polygon id="_130009528" class="fil0" points="133.525,160.553 133.525,161.821 132.256,162.583 130.987,162.498 130.818,162.329 132.087,160.891 132.087,159.114 132.932,159.537 "/>
   <polygon id="_130009624" class="fil0" points="104.087,160.045 104.087,160.383 103.58,159.537 103.58,159.199 104.426,159.537 "/>
   <polygon id="_130009696" class="fil0" points="123.12,165.713 123.881,170.027 124.981,172.903 124.981,173.579 122.443,166.643 121.428,161.314 121.936,159.199 122.782,165.036 "/>
   <polygon id="_130009768" class="fil0" points="114.069,163.09 114.238,163.259 114.238,163.598 113.223,162.583 113.561,161.06 115.338,159.537 114.069,161.314 "/>
   <polygon id="_130009840" class="fil0" points="106.117,161.145 104.849,162.16 104.426,162.16 104.679,160.383 105.018,160.045 106.371,160.553 "/>
   <polygon id="_130009912" class="fil0" points="86.8309,161.821 83.8703,162.498 83.4473,162.921 78.8795,161.991 77.2723,160.891 77.0185,160.553 78.8795,160.383 83.6165,160.637 "/>
   <polygon id="_130009984" class="fil0" points="115.507,162.921 115.845,163.259 116.014,163.09 116.184,163.09 116.184,163.429 114.83,163.429 114.576,162.329 115.168,160.891 115.168,162.498 "/>
   <polygon id="_130010056" class="fil0" points="108.909,161.991 106.371,161.991 106.456,161.821 106.456,161.483 107.132,161.06 109.247,161.652 "/>
   <polygon id="_130010128" class="fil0" points="72.1123,162.583 68.3903,163.598 62.1307,163.429 61.3693,162.921 64.9221,161.652 67.7982,161.145 70.1667,161.652 "/>
   <polygon id="_130010200" class="fil0" points="112.462,162.329 112.462,162.583 111.193,163.259 108.401,163.936 110.009,162.921 110.009,162.583 109.839,162.498 109.332,162.498 109.501,161.991 111.277,161.314 112.631,161.483 "/>
   <polygon id="_130010272" class="fil0" points="121.851,166.474 120.836,169.265 119.398,171.465 119.398,171.634 118.891,170.027 120.159,168.927 120.498,168.589 120.498,167.827 120.159,167.404 119.567,167.912 119.229,168.25 119.398,164.021 120.836,161.821 121.344,164.867 "/>
   <polygon id="_130010344" class="fil0" points="90.8912,163.259 88.4381,164.444 87.2539,164.444 88.2689,162.329 90.6375,163.09 "/>
   <polygon id="_130010416" class="fil0" points="80.825,163.259 80.9942,163.259 81.1634,163.429 79.7254,164.274 77.2723,163.259 77.1031,163.09 78.1182,162.583 79.5562,162.752 "/>
   <polygon id="_130010488" class="fil0" points="85.3083,166.474 84.0394,167.404 82.2631,167.32 81.9247,166.812 82.6014,164.528 84.7162,162.752 85.5621,162.583 87.2539,162.583 "/>
   <polygon id="_130010560" class="fil0" points="104.256,165.713 101.465,166.305 100.196,165.882 102.142,163.598 102.142,163.259 105.187,162.752 108.401,162.921 "/>
   <polygon id="_130010632" class="fil0" points="130.564,163.09 129.972,163.598 129.38,163.598 128.703,162.921 128.872,162.583 129.38,162.414 129.972,162.583 "/>
   <polygon id="_130010704" class="fil0" points="72.9582,164.528 70.8434,167.15 69.5746,167.912 70.6742,165.543 72.789,162.921 73.2119,162.921 "/>
   <polygon id="_130010776" class="fil0" points="75.4959,165.966 75.0729,169.519 74.0578,171.295 74.0578,171.634 73.5503,167.15 74.0578,163.259 75.1575,164.528 "/>
   <polygon id="_130010848" class="fil0" points="100.534,164.697 99.181,165.713 96.4742,165.543 95.7974,165.205 96.1358,164.528 98.7581,163.259 100.788,163.767 "/>
   <polygon id="_130010920" class="fil0" points="135.216,164.697 135.639,165.205 134.37,166.136 133.102,165.966 131.156,163.259 133.863,163.598 "/>
   <polygon id="_130010992" class="fil0" points="81.3326,166.474 80.4021,164.697 82.4322,163.598 81.5018,165.882 "/>
   <polygon id="_130011064" class="fil0" points="114.576,164.444 112.631,165.713 111.277,165.882 109.755,165.205 109.501,165.036 111.954,163.767 112.631,163.598 114.069,164.444 "/>
   <polygon id="_130011136" class="fil0" points="79.8945,165.205 80.825,166.643 79.7254,167.658 77.2723,166.812 76.1726,165.543 75.8342,163.767 78.1182,164.274 "/>
   <polygon id="_130011208" class="fil0" points="70.3359,164.867 65.8526,167.658 63.5687,168.589 63.3149,168.589 66.191,165.882 70.5051,163.936 71.0126,163.936 "/>
   <polygon id="_137542736" class="fil0" points="93.5981,165.036 92.9214,166.136 92.3293,166.474 88.2689,165.966 90.0453,164.274 90.9758,163.936 93.2598,164.528 "/>
   <polygon id="_137542808" class="fil0" points="117.114,164.021 115.845,164.697 115.845,164.444 116.607,163.936 116.776,164.021 "/>
   <polygon id="_137542904" class="fil0" points="131.325,167.827 130.141,169.35 129.211,167.827 129.38,165.882 129.718,165.543 129.718,164.528 130.056,163.936 131.325,165.882 "/>
   <polygon id="_137542976" class="fil0" points="127.603,166.981 125.658,166.474 125.235,165.882 126.927,165.882 128.111,165.036 128.703,164.021 128.703,165.966 "/>
   <polygon id="_137543048" class="fil0" points="108.74,164.528 108.232,165.036 110.685,166.474 109.332,168.25 108.401,166.812 106.371,165.205 107.132,164.528 108.909,164.528 "/>
   <polygon id="_137543120" class="fil0" points="118.214,167.827 117.791,167.15 118.214,165.036 118.552,164.697 118.214,167.404 "/>
   <polygon id="_137543192" class="fil0" points="117.283,167.912 118.468,168.927 119.229,168.927 118.468,169.265 116.607,168.927 115.845,167.912 116.184,165.882 117.453,164.867 117.114,166.305 "/>
   <polygon id="_137543264" class="fil0" points="86.8309,166.643 87.1693,166.981 88.6073,166.812 89.0303,166.812 88.4381,169.35 88.7765,170.703 88.4381,171.042 88.4381,171.211 86.6617,169.096 84.0394,168.081 85.3083,167.404 86.8309,165.543 87.0001,165.036 88.2689,165.036 "/>
   <polygon id="_137543336" class="fil0" points="95.0361,165.882 94.5286,165.966 94.3594,165.966 93.5981,165.459 94.1057,164.697 94.9516,164.951 "/>
   <polygon id="_137543408" class="fil0" points="114.83,168.081 113.561,169.35 113.223,168.25 114.069,165.882 115.168,165.036 115.507,165.374 "/>
   <polygon id="_137543480" class="fil0" points="108.063,167.404 108.571,168.758 104.679,167.32 103.411,166.981 103.072,166.643 105.018,165.882 105.948,165.966 "/>
   <polygon id="_137543552" class="fil0" points="96.9817,170.365 95.7129,173.156 95.3745,171.803 95.7974,168.927 96.4742,168.081 96.305,166.812 95.7129,165.966 97.3201,166.474 "/>
   <polygon id="_137543624" class="fil0" points="111.954,169.096 111.616,166.474 112.885,166.136 112.293,168.758 "/>
   <polygon id="_137543696" class="fil0" points="101.634,169.519 102.48,172.649 102.48,173.749 99.181,170.027 98.0814,166.474 98.2506,166.305 100.027,166.474 "/>
   <polygon id="_137543768" class="fil0" points="95.7974,167.404 93.9365,170.534 93.5981,171.972 92.3293,170.534 92.3293,168.589 92.7522,167.658 93.9365,166.643 95.7129,166.981 "/>
   <polygon id="_137543840" class="fil0" points="89.707,168.589 89.1994,169.265 89.3686,167.827 89.5378,167.827 89.707,166.812 90.2145,166.981 "/>
   <polygon id="_137543912" class="fil0" points="91.6525,167.15 91.8217,167.658 91.6525,169.096 91.145,168.758 90.8912,166.981 91.3142,167.15 "/>
   <polygon id="_137543984" class="fil0" points="105.018,169.096 102.565,167.912 102.142,167.912 101.973,168.081 102.48,169.265 101.296,166.981 104.426,167.912 "/>
   <polygon id="_137544056" class="fil0" points="81.6709,167.658 81.6709,167.912 81.3326,168.25 80.5713,168.25 80.4021,167.489 81.0788,167.066 "/>
   <polygon id="_137544128" class="fil0" points="111.277,169.857 111.024,172.649 109.839,174.425 109.755,174.594 109.247,171.211 110.009,168.419 110.685,167.404 111.024,167.404 "/>
   <polygon id="_137544200" class="fil0" points="108.571,171.295 108.571,171.634 107.64,170.365 105.695,169.265 105.018,168.25 108.74,169.519 "/>
   <polygon id="_137544272" class="fil0" points="112.885,170.027 113.392,170.534 114.069,169.857 114.238,170.196 114.238,170.703 111.616,172.48 112.123,169.688 112.715,168.589 112.885,169.688 "/>
   <polygon id="_137544344" class="fil0" points="87.9306,171.634 87.2539,172.31 85.6467,172.31 83.4473,171.042 82.2631,169.35 82.2631,168.927 83.109,168.758 85.985,169.35 "/>
   <polygon id="_137544416" class="fil0" points="114.83,170.365 114.576,169.688 115.338,168.758 116.522,169.519 "/>
   <polygon id="_137544488" class="fil0" points="81.3326,170.196 80.825,171.295 79.2178,172.733 76.0034,173.918 75.8342,173.749 77.2723,171.042 79.0486,169.519 80.4867,168.927 81.3326,169.096 "/>
   <polygon id="_137544560" class="fil0" points="89.1994,172.141 89.1994,171.042 90.2145,168.927 90.0453,170.788 "/>
   <polygon id="_137544632" class="fil0" points="108.401,172.649 108.74,174.256 106.794,173.579 105.018,171.972 103.58,169.857 103.241,169.096 106.625,170.534 "/>
   <polygon id="_137544704" class="fil0" points="103.918,171.972 103.072,171.465 102.48,169.857 103.749,171.465 "/>
   <polygon id="_137586328" class="fil0" points="113.223,173.41 111.447,174.256 111.193,174.256 112.631,172.48 114.999,170.788 116.776,170.196 116.184,171.465 "/>
   <polygon id="_137586400" class="fil0" points="81.5018,171.295 81.9247,170.365 82.7706,171.295 "/>
   <polygon id="_137586472" class="fil0" points="95.5437,177.132 95.7129,177.132 95.9666,177.471 95.5437,177.978 94.0211,177.809 91.8217,174.594 90.5529,171.803 90.8912,170.788 92.7522,174.594 "/>
   <polygon id="_137586544" class="fil0" points="100.534,174.087 100.534,174.425 100.365,174.594 99.5194,173.579 99.0965,171.211 100.704,172.733 "/>
   <polygon id="_137586616" class="fil0" points="79.0486,175.017 75.4959,176.625 77.0185,174.594 80.4867,172.649 80.9942,172.141 82.2631,171.972 82.9398,171.972 "/>
   <polygon id="_137586688" class="fil0" points="82.2631,177.471 78.8795,181.362 81.5018,175.356 82.9398,173.241 83.8703,172.31 83.8703,173.749 "/>
   <polygon id="_137586760" class="fil0" points="105.695,174.848 103.58,174.087 103.072,172.903 103.072,172.31 108.063,174.848 "/>
   <polygon id="_137586832" class="fil0" points="86.6617,179.247 86.4926,181.023 86.4926,181.446 85.2237,179.078 84.8853,174.087 85.0545,173.156 86.3234,175.863 "/>
   <polygon id="_137586904" class="fil0" points="92.1601,179.247 92.583,180.008 92.583,180.177 90.8912,179.416 87.5076,176.117 86.4926,174.679 86.1542,173.156 88.9457,174.679 "/>
   <polygon id="_137586976" class="fil0" points="97.4047,177.64 96.305,178.401 95.9666,178.401 95.9666,178.063 96.6433,177.978 97.4047,176.963 97.743,173.41 98.0814,175.187 "/>
   <polygon id="_137587072" class="fil0" points="100.027,176.794 98.7581,178.063 97.9122,178.063 98.5889,176.54 98.5889,173.749 100.027,175.356 "/>
   <polygon id="_137587144" class="fil0" points="118.045,175.694 112.885,176.117 110.009,175.525 110.009,175.187 112.715,174.679 115.845,174.256 120.667,174.848 "/>
   <polygon id="_137587216" class="fil0" points="107.302,177.301 105.356,177.809 102.565,177.64 104.087,176.794 108.571,175.525 109.078,175.694 "/>
   <polygon id="_137587288" class="fil0" points="110.178,180.177 109.839,180.685 109.247,178.739 109.501,176.286 110.178,177.301 "/>
   <polygon id="_137587360" class="fil0" points="101.465,179.924 101.973,180.347 101.042,180.854 98.7581,180.347 97.4047,179.501 97.4047,179.078 98.7581,178.739 100.027,178.739 "/>
   <polygon id="_137587432" class="fil0" points="93.0906,181.615 90.3837,181.446 89.707,181.193 92.1601,181.446 93.2598,181.023 94.0211,179.67 94.2748,178.909 93.9365,181.362 "/>
   <polygon id="_137587504" class="fil0" points="96.4742,179.078 96.6433,179.247 96.1358,180.008 95.2053,179.67 94.867,178.909 95.9666,179.078 "/>
   <polygon id="_137587576" class="fil0" points="99.181,182.292 98.4197,184.83 98.4197,185.168 96.8125,183.392 96.4742,181.023 96.4742,180.347 96.8125,180.177 98.7581,181.446 "/>
   <polygon id="_137587648" class="fil0" points="95.3745,181.615 94.0211,182.8 92.3293,182.631 91.6525,182.292 94.2748,182.123 94.867,181.193 94.867,180.347 95.3745,180.347 "/>
  </g>
 </g>
</svg>
