<?xml version="1.0" encoding="UTF-8" standalone="no"?>
<svg
   xmlns:dc="http://purl.org/dc/elements/1.1/"
   xmlns:cc="http://creativecommons.org/ns#"
   xmlns:rdf="http://www.w3.org/1999/02/22-rdf-syntax-ns#"
   xmlns:svg="http://www.w3.org/2000/svg"
   xmlns="http://www.w3.org/2000/svg"
   xmlns:sodipodi="http://sodipodi.sourceforge.net/DTD/sodipodi-0.dtd"
   xmlns:inkscape="http://www.inkscape.org/namespaces/inkscape"
   version="1.1"
   id="Layer_1"
   x="0px"
   y="0px"
   viewBox="0 0 32 32"
   style="enable-background:new 0 0 32 32;"
   xml:space="preserve"
   sodipodi:docname="item_concretion_borders.svg"
   inkscape:version="1.0.2 (e86c870879, 2021-01-15, custom)"><rect
   style="fill:#ffffff;stroke-width:1.5;stroke-miterlimit:22.9256;stroke-dasharray:3, 1.5"
   id="rect900"
   width="24"
   height="20"
   x="4"
   y="6" /><path
   class="fil7 str2"
   d="m 9.75162,4.9447377 10.868811,0.095223 c -2.055991,1.7409336 -2.403494,2.0875006 -3.79838,3.3308826 -1.827421,3.2174677 -0.312875,8.8702407 0.02047,12.0309467 0.119266,1.130077 0.748237,3.969355 1.690713,5.046809 1.008915,1.15351 3.329101,1.323014 1.314712,1.365992 L 11.225867,26.99855 C 8.151104,26.578513 8.909025,27.02933 10.442004,25.639045 13.719605,22.666684 14.880984,7.4932683 9.751617,4.9447377 Z"
   id="path322"
   style="clip-rule:evenodd;fill:#f2f2f2;fill-opacity:1;fill-rule:evenodd;stroke:#e6e6e6;stroke-width:1.5;stroke-miterlimit:4;stroke-dasharray:none;image-rendering:optimizeQuality;shape-rendering:geometricPrecision;text-rendering:geometricPrecision;stroke-opacity:1"
   sodipodi:nodetypes="cccccsccc" /><metadata
   id="metadata20"><rdf:RDF><cc:Work
       rdf:about=""><dc:format>image/svg+xml</dc:format><dc:type
         rdf:resource="http://purl.org/dc/dcmitype/StillImage" /><dc:title></dc:title></cc:Work></rdf:RDF></metadata><defs
   id="defs18"><mask
     maskUnits="userSpaceOnUse"
     id="mask1189"><rect
       style="fill:#ffffff;stroke:#000000;stroke-width:1;stroke-miterlimit:22.9256;stroke-dasharray:none;stroke-dashoffset:0"
       id="rect1191"
       width="24"
       height="20"
       x="4"
       y="6" /></mask><mask
     maskUnits="userSpaceOnUse"
     id="mask1189-1"><rect
       style="fill:#ffffff;stroke:#000000;stroke-width:1;stroke-miterlimit:22.9256;stroke-dasharray:none;stroke-dashoffset:0"
       id="rect1191-1"
       width="24"
       height="20"
       x="4"
       y="6" /></mask><clipPath
     id="id7"><path
       d="m 130486.3,39.6 h 25840.8 c 1672.1,0 3040.1,1368 3040.1,3040.1 v 25840.8 c 0,1672.1 -1368,3040.1 -3040.1,3040.1 h -25840.8 c -1672.1,0 -3040.1,-1368 -3040.1,-3040.1 V 3079.7 c 0,-1672.1 1368,-3040.1 3040.1,-3040.1 z"
       id="path49" /></clipPath><clipPath
     id="id7-4"><path
       d="m 130486.3,39.6 h 25840.8 c 1672.1,0 3040.1,1368 3040.1,3040.1 v 25840.8 c 0,1672.1 -1368,3040.1 -3040.1,3040.1 h -25840.8 c -1672.1,0 -3040.1,-1368 -3040.1,-3040.1 V 3079.7 c 0,-1672.1 1368,-3040.1 3040.1,-3040.1 z"
       id="path49-0" /></clipPath><mask
     maskUnits="userSpaceOnUse"
     id="mask1189-2"><rect
       style="fill:#ffffff;stroke:#000000;stroke-width:1;stroke-miterlimit:22.9256;stroke-dasharray:none;stroke-dashoffset:0"
       id="rect1191-9"
       width="24"
       height="20"
       x="4"
       y="6" /></mask><mask
     maskUnits="userSpaceOnUse"
     id="mask1189-1-3"><rect
       style="fill:#ffffff;stroke:#000000;stroke-width:1;stroke-miterlimit:22.9256;stroke-dasharray:none;stroke-dashoffset:0"
       id="rect1191-1-0"
       width="24"
       height="20"
       x="4"
       y="6" /></mask><clipPath
     id="id7-3"><path
       d="m 130486.3,39.6 h 25840.8 c 1672.1,0 3040.1,1368 3040.1,3040.1 v 25840.8 c 0,1672.1 -1368,3040.1 -3040.1,3040.1 h -25840.8 c -1672.1,0 -3040.1,-1368 -3040.1,-3040.1 V 3079.7 c 0,-1672.1 1368,-3040.1 3040.1,-3040.1 z"
       id="path49-4" /></clipPath><mask
     maskUnits="userSpaceOnUse"
     id="mask1189-0"><rect
       style="fill:#ffffff;stroke:#000000;stroke-width:1;stroke-miterlimit:22.9256;stroke-dasharray:none;stroke-dashoffset:0"
       id="rect1191-2"
       width="24"
       height="20"
       x="4"
       y="6" /></mask><mask
     maskUnits="userSpaceOnUse"
     id="mask1189-1-33"><rect
       style="fill:#ffffff;stroke:#000000;stroke-width:1;stroke-miterlimit:22.9256;stroke-dasharray:none;stroke-dashoffset:0"
       id="rect1191-1-2"
       width="24"
       height="20"
       x="4"
       y="6" /></mask><clipPath
     id="id7-49"><path
       d="m 130486.3,39.6 h 25840.8 c 1672.1,0 3040.1,1368 3040.1,3040.1 v 25840.8 c 0,1672.1 -1368,3040.1 -3040.1,3040.1 h -25840.8 c -1672.1,0 -3040.1,-1368 -3040.1,-3040.1 V 3079.7 c 0,-1672.1 1368,-3040.1 3040.1,-3040.1 z"
       id="path49-3" /></clipPath></defs><sodipodi:namedview
   pagecolor="#ffffff"
   bordercolor="#666666"
   borderopacity="1"
   objecttolerance="10"
   gridtolerance="10"
   guidetolerance="10"
   inkscape:pageopacity="0"
   inkscape:pageshadow="2"
   inkscape:window-width="2560"
   inkscape:window-height="1017"
   id="namedview16"
   showgrid="false"
   inkscape:zoom="4.5714936"
   inkscape:cx="5.4915107"
   inkscape:cy="-4.6562809"
   inkscape:window-x="-8"
   inkscape:window-y="-8"
   inkscape:window-maximized="1"
   inkscape:current-layer="Layer_1"
   inkscape:document-rotation="0" />
<style
   type="text/css"
   id="style2">
	.Yellow{fill:#FFB115;}
	.Red{fill:#D11C1C;}
	.Black{fill:#727272;}
	.Blue{fill:#1177D7;}
	.White{fill:#FFFFFF;}
	.Green{fill:#039C23;}
	.st0{opacity:0.75;}
	.st1{opacity:0.5;}
	.st2{opacity:0.25;}
	.st3{fill:#FFB115;}
</style>

<g
   id="Images">
	<path
   class="Black"
   d="M 29,4 H 3 C 2.5,4 2,4.5 2,5 v 22 c 0,0.5 0.5,1 1,1 h 26 c 0.5,0 1,-0.5 1,-1 V 5 C 30,4.5 29.5,4 29,4 Z M 28,26 H 4 V 6 h 24 z"
   id="path4" />
	
	
	<g
   class="st1"
   id="g12">
		
	</g>
</g><g
   id="g372"
   style="clip-rule:evenodd;fill:#000000;fill-rule:evenodd;stroke:#000000;image-rendering:optimizeQuality;shape-rendering:geometricPrecision;text-rendering:geometricPrecision"
   transform="matrix(7.3574504e-4,0,0,7.3574504e-4,-128.61364,-108.45355)" /><style
   type="text/css"
   id="style2-1">
	.Yellow{fill:#FFB115;}
	.Red{fill:#D11C1C;}
	.Black{fill:#727272;}
	.Blue{fill:#1177D7;}
	.White{fill:#FFFFFF;}
	.Green{fill:#039C23;}
	.st0{opacity:0.75;}
	.st1{opacity:0.5;}
	.st2{opacity:0.25;}
	.st3{fill:#FFB115;}
</style><style
   type="text/css"
   id="style2-4">
	.Yellow{fill:#FFB115;}
	.Red{fill:#D11C1C;}
	.Black{fill:#727272;}
	.Blue{fill:#1177D7;}
	.White{fill:#FFFFFF;}
	.Green{fill:#039C23;}
	.st0{opacity:0.75;}
	.st1{opacity:0.5;}
	.st2{opacity:0.25;}
	.st3{fill:#FFB115;}
</style><style
   type="text/css"
   id="style2-1-6">
	.Yellow{fill:#FFB115;}
	.Red{fill:#D11C1C;}
	.Black{fill:#727272;}
	.Blue{fill:#1177D7;}
	.White{fill:#FFFFFF;}
	.Green{fill:#039C23;}
	.st0{opacity:0.75;}
	.st1{opacity:0.5;}
	.st2{opacity:0.25;}
	.st3{fill:#FFB115;}
</style><style
   type="text/css"
   id="style916">
	.Black{fill:#727272;}
	.Blue{fill:#1177D7;}
</style><style
   type="text/css"
   id="style2-2">
	.Yellow{fill:#FFB115;}
	.Red{fill:#D11C1C;}
	.Black{fill:#727272;}
	.Blue{fill:#1177D7;}
	.White{fill:#FFFFFF;}
	.Green{fill:#039C23;}
	.st0{opacity:0.75;}
	.st1{opacity:0.5;}
	.st2{opacity:0.25;}
	.st3{fill:#FFB115;}
</style><style
   type="text/css"
   id="style2-1-7">
	.Yellow{fill:#FFB115;}
	.Red{fill:#D11C1C;}
	.Black{fill:#727272;}
	.Blue{fill:#1177D7;}
	.White{fill:#FFFFFF;}
	.Green{fill:#039C23;}
	.st0{opacity:0.75;}
	.st1{opacity:0.5;}
	.st2{opacity:0.25;}
	.st3{fill:#FFB115;}
</style><style
   type="text/css"
   id="style916-7">
	.Black{fill:#727272;}
	.Blue{fill:#1177D7;}
</style><path
   style="fill:none;fill-rule:evenodd;stroke:#1177d7;stroke-width:1.4;stroke-linecap:round;stroke-linejoin:round;stroke-opacity:1;stroke-miterlimit:4;stroke-dasharray:none"
   d="m 13.562307,24.718398 c 0.417342,-1.258997 0.793632,-2.592926 0.984361,-4.265564"
   id="path1091"
   sodipodi:nodetypes="cc" /><path
   style="fill:none;fill-rule:evenodd;stroke:#1177d7;stroke-width:1.5;stroke-linecap:round;stroke-linejoin:round;stroke-opacity:1;stroke-miterlimit:4;stroke-dasharray:none"
   d="m 14.656041,12.577946 c -0.314489,-0.786225 -0.190981,-0.352509 -0.32812,-1.312481 0.01205,-0.0844 0.23779,-1.165022 0.109374,-1.4218551 -0.04612,-0.092232 -0.172627,-0.1265149 -0.218747,-0.2187469 -0.05808,-0.1161636 0.03217,-0.3087945 0,-0.4374938 C 14.086935,8.6609185 14.139953,8.0458199 13.890427,7.5467676 13.647497,7.0609066 13.363621,6.9768167 12.906066,6.67178"
   id="path1093"
   sodipodi:nodetypes="ccsccsc" /></svg>
