<?xml version="1.0" encoding="UTF-8" standalone="no"?>
<svg
   xmlns:dc="http://purl.org/dc/elements/1.1/"
   xmlns:cc="http://creativecommons.org/ns#"
   xmlns:rdf="http://www.w3.org/1999/02/22-rdf-syntax-ns#"
   xmlns:svg="http://www.w3.org/2000/svg"
   xmlns="http://www.w3.org/2000/svg"
   xmlns:sodipodi="http://sodipodi.sourceforge.net/DTD/sodipodi-0.dtd"
   xmlns:inkscape="http://www.inkscape.org/namespaces/inkscape"
   version="1.1"
   id="Layer_1"
   x="0px"
   y="0px"
   viewBox="0 0 32 32"
   style="enable-background:new 0 0 32 32;"
   xml:space="preserve"
   sodipodi:docname="item_quota.svg"
   inkscape:version="1.0.2 (e86c870879, 2021-01-15, custom)"><metadata
   id="metadata20"><rdf:RDF><cc:Work
       rdf:about=""><dc:format>image/svg+xml</dc:format><dc:type
         rdf:resource="http://purl.org/dc/dcmitype/StillImage" /><dc:title /></cc:Work></rdf:RDF></metadata><defs
   id="defs18"><mask
     maskUnits="userSpaceOnUse"
     id="mask1189"><rect
       style="fill:#ffffff;stroke:#000000;stroke-width:1;stroke-miterlimit:22.9256;stroke-dasharray:none;stroke-dashoffset:0"
       id="rect1191"
       width="24"
       height="20"
       x="4"
       y="6" /></mask></defs><sodipodi:namedview
   pagecolor="#ffffff"
   bordercolor="#666666"
   borderopacity="1"
   objecttolerance="10"
   gridtolerance="10"
   guidetolerance="10"
   inkscape:pageopacity="0"
   inkscape:pageshadow="2"
   inkscape:window-width="2560"
   inkscape:window-height="1017"
   id="namedview16"
   showgrid="false"
   inkscape:zoom="13.28125"
   inkscape:cx="20.618665"
   inkscape:cy="20.24623"
   inkscape:window-x="-8"
   inkscape:window-y="-8"
   inkscape:window-maximized="1"
   inkscape:current-layer="Layer_1"
   inkscape:document-rotation="0" />
<style
   type="text/css"
   id="style2">
	.Yellow{fill:#FFB115;}
	.Red{fill:#D11C1C;}
	.Black{fill:#727272;}
	.Blue{fill:#1177D7;}
	.White{fill:#FFFFFF;}
	.Green{fill:#039C23;}
	.st0{opacity:0.75;}
	.st1{opacity:0.5;}
	.st2{opacity:0.25;}
	.st3{fill:#FFB115;}
</style>

<rect
   style="fill:#ffffff;stroke:none;stroke-width:1.5;stroke-miterlimit:22.9256;stroke-dasharray:3, 1.5"
   id="rect850"
   width="24"
   height="20"
   x="4"
   y="6" /><g
   id="Images">
	<path
   class="Black"
   d="M29,4H3C2.5,4,2,4.5,2,5v22c0,0.5,0.5,1,1,1h26c0.5,0,1-0.5,1-1V5C30,4.5,29.5,4,29,4z M28,26H4V6h24V26z"
   id="path4" />
	
	
	<g
   class="st1"
   id="g12">
		
	</g>
</g><g
   id="g372"
   style="clip-rule:evenodd;fill:#000000;fill-rule:evenodd;stroke:#000000;image-rendering:optimizeQuality;shape-rendering:geometricPrecision;text-rendering:geometricPrecision"
   transform="matrix(7.3574504e-4,0,0,7.3574504e-4,-128.61364,-108.45355)" /><g
   id="g1262"
   transform="matrix(0.22181202,0,0,0.22181202,1.3367978,10.57238)"><g
     id="g726"
     style="clip-rule:evenodd;fill:#000000;fill-rule:evenodd;image-rendering:optimizeQuality;shape-rendering:geometricPrecision;text-rendering:geometricPrecision"
     transform="matrix(0.00377953,0,0,0.00377953,-1097.8688,-502.50255)"><path
       id="path724"
       style="fill:#000000;stroke-width:0.00377953"
       d="m 25.423828,-16.214844 4.111328,14.8144534 4.28711,-4.1855469 10.125209,9.8963492 1.823278,-1.9241881 -9.921144,-9.9526298 4.28711,-4.1874998 z m 57.855101,57.309839 -2.258823,2.098993 14.102941,13.993512 -4.287109,4.1875 14.712892,4.458984 -4.11133,-14.8125 -4.287109,4.185547 z"
       transform="matrix(264.58316,0,0,264.58316,290477.6,132953.71)"
       sodipodi:nodetypes="cccccccccccccccc" /></g><g
     id="g730"
     style="clip-rule:evenodd;fill:#000000;fill-rule:evenodd;image-rendering:optimizeQuality;shape-rendering:geometricPrecision;text-rendering:geometricPrecision"
     transform="matrix(0.00377953,0,0,0.00377953,-1097.8688,-502.50255)"><path
       class="fil8 str10"
       d="m 305146.6,142581 h -1554.2 v -5880.3 c -567.2,533.2 -1236.5,928.4 -2008,1183.6 v -1418 c 406.5,-132.4 847.1,-383.9 1321.7,-756.3 476.4,-370.6 801.7,-803.6 979.4,-1297.1 h 1261.1 z"
       id="path728"
       style="fill:#000000" /></g><g
     id="g734"
     style="clip-rule:evenodd;fill:#000000;fill-rule:evenodd;image-rendering:optimizeQuality;shape-rendering:geometricPrecision;text-rendering:geometricPrecision"
     transform="matrix(0.00377953,0,0,0.00377953,-1097.8688,-502.50255)"><path
       id="path732"
       class="fil8 str10"
       d="m 307701.1,136693.2 h 1429.4 v 803.5 c 512.4,-618.3 1123.1,-928.3 1832.1,-928.3 376.3,0 703.4,77.5 979.5,232.5 277.9,155.1 504.8,389.5 680.6,703.4 259.1,-313.9 538.9,-548.3 837.6,-703.4 298.8,-155 618.3,-232.5 958.7,-232.5 431.1,0 796,86.9 1096.6,262.8 298.7,175.8 521.9,433 669.3,773.3 107.8,249.6 160.8,656.1 160.8,1217.7 v 3758.8 h -1554.3 v -3359.9 c 0,-584.2 -52.9,-960.5 -160.7,-1128.8 -143.7,-221.2 -366.8,-332.8 -665.5,-332.8 -217.5,0 -423.6,66.2 -616.4,198.6 -191,134.2 -330.9,329 -416,584.2 -85.1,257.2 -126.7,661.8 -126.7,1215.8 v 2822.9 h -1554.2 v -3221.9 c 0,-571 -28.3,-941.6 -83.2,-1106.1 -54.8,-166.4 -139.9,-291.1 -257.1,-372.4 -115.3,-81.3 -274.2,-121.1 -472.7,-121.1 -240.1,0 -455.7,64.3 -646.6,192.9 -192.9,130.5 -329,315.8 -412.2,559.7 -83.2,243.9 -124.8,648.5 -124.8,1212 v 2856.9 h -1554.2 z"
       style="fill:#000000" /></g></g></svg>
