<?xml version="1.0" encoding="UTF-8" standalone="no"?>
<svg
   xmlns:dc="http://purl.org/dc/elements/1.1/"
   xmlns:cc="http://creativecommons.org/ns#"
   xmlns:rdf="http://www.w3.org/1999/02/22-rdf-syntax-ns#"
   xmlns:svg="http://www.w3.org/2000/svg"
   xmlns="http://www.w3.org/2000/svg"
   xmlns:sodipodi="http://sodipodi.sourceforge.net/DTD/sodipodi-0.dtd"
   xmlns:inkscape="http://www.inkscape.org/namespaces/inkscape"
   version="1.1"
   id="Layer_1"
   x="0px"
   y="0px"
   viewBox="0 0 32 32"
   style="enable-background:new 0 0 32 32;"
   xml:space="preserve"
   sodipodi:docname="item_presumedhang.svg"
   inkscape:version="1.0.2 (e86c870879, 2021-01-15, custom)"><metadata
   id="metadata20"><rdf:RDF><cc:Work
       rdf:about=""><dc:format>image/svg+xml</dc:format><dc:type
         rdf:resource="http://purl.org/dc/dcmitype/StillImage" /><dc:title></dc:title></cc:Work></rdf:RDF></metadata><defs
   id="defs18" /><sodipodi:namedview
   pagecolor="#ffffff"
   bordercolor="#666666"
   borderopacity="1"
   objecttolerance="10"
   gridtolerance="10"
   guidetolerance="10"
   inkscape:pageopacity="0"
   inkscape:pageshadow="2"
   inkscape:window-width="2560"
   inkscape:window-height="1017"
   id="namedview16"
   showgrid="false"
   inkscape:zoom="12.930136"
   inkscape:cx="21.075508"
   inkscape:cy="14.212748"
   inkscape:window-x="-8"
   inkscape:window-y="-8"
   inkscape:window-maximized="1"
   inkscape:current-layer="Layer_1"
   inkscape:document-rotation="0" />
<style
   type="text/css"
   id="style2">
	.Yellow{fill:#FFB115;}
	.Red{fill:#D11C1C;}
	.Black{fill:#727272;}
	.Blue{fill:#1177D7;}
	.White{fill:#FFFFFF;}
	.Green{fill:#039C23;}
	.st0{opacity:0.75;}
	.st1{opacity:0.5;}
	.st2{opacity:0.25;}
	.st3{fill:#FFB115;}
</style>

<rect
   style="fill:#ffffff;stroke:none;stroke-width:1.5;stroke-miterlimit:22.9256;stroke-dasharray:3, 1.5"
   id="rect850"
   width="24"
   height="20"
   x="4"
   y="6" /><g
   id="g944"
   transform="matrix(0.20547272,0,0,0.19579754,70.103418,2.6765328)"><path
     class="fil1 str8"
     d="m -321.71384,16.973999 c -1.13008,19.277115 14.11994,21.988927 27.58301,28.720271 17.30344,8.651722 10.48026,39.633663 44.80368,39.633663 30.94641,0 26.606,10.922086 36.76954,32.734507"
     id="path582"
     style="clip-rule:evenodd;fill:none;fill-rule:evenodd;stroke:#000000;stroke-width:5.66929;stroke-miterlimit:22.9256;stroke-dasharray:5.66929, 5.66929;image-rendering:optimizeQuality;shape-rendering:geometricPrecision;text-rendering:geometricPrecision" /><g
     id="g586"
     style="clip-rule:evenodd;fill-rule:evenodd;stroke:#000000;image-rendering:optimizeQuality;shape-rendering:geometricPrecision;text-rendering:geometricPrecision"
     transform="matrix(0.00377953,0,0,0.00377953,-294.14973,-582.14576)"><path
       class="fil3"
       d="m -2644.9,163876.8 -352.5,606.4 -1122.8,-37.4 352.5,-606.4 z m 2323.8,-4982.1 -424.9,6759.8 -5237.2,-3044.3 z"
       id="path584"
       style="stroke:#000000" /></g><g
     id="g590"
     style="clip-rule:evenodd;fill-rule:evenodd;stroke:#000000;image-rendering:optimizeQuality;shape-rendering:geometricPrecision;text-rendering:geometricPrecision"
     transform="matrix(0.00377953,0,0,0.00377953,-294.14973,-582.14576)"><path
       class="fil3"
       d="m 7274.5,174147.4 -506.1,485.6 -1068.8,-345.8 506.1,-485.6 z m 3608.1,-4147.6 -2273.4,6380.3 -4194,-4371.1 z"
       id="path588"
       style="stroke:#000000" /></g><g
     id="g594"
     style="clip-rule:evenodd;fill-rule:evenodd;stroke:#000000;image-rendering:optimizeQuality;shape-rendering:geometricPrecision;text-rendering:geometricPrecision"
     transform="matrix(0.00377953,0,0,0.00377953,-294.14973,-582.14576)"><path
       class="fil3"
       d="m 19430.4,178745 -540.5,447 -1040.4,-423.6 540.5,-447 z m 3903.9,-3870.6 -2737.2,6195.5 -3860.6,-4668.2 z"
       id="path592"
       style="stroke:#000000" /></g></g><g
   id="Images">
	<path
   class="Black"
   d="M29,4H3C2.5,4,2,4.5,2,5v22c0,0.5,0.5,1,1,1h26c0.5,0,1-0.5,1-1V5C30,4.5,29.5,4,29,4z M28,26H4V6h24V26z"
   id="path4" />
	
	
	<g
   class="st1"
   id="g12">
		
	</g>
</g><style
   type="text/css"
   id="style2-3">
	.Yellow{fill:#FFB115;}
	.Red{fill:#D11C1C;}
	.Black{fill:#727272;}
	.Blue{fill:#1177D7;}
	.White{fill:#FFFFFF;}
	.Green{fill:#039C23;}
	.st0{opacity:0.75;}
	.st1{opacity:0.5;}
	.st2{opacity:0.25;}
	.st3{fill:#FFB115;}
</style></svg>
