<?xml version="1.0" encoding="UTF-8" standalone="no"?>
<svg
   xmlns:dc="http://purl.org/dc/elements/1.1/"
   xmlns:cc="http://creativecommons.org/ns#"
   xmlns:rdf="http://www.w3.org/1999/02/22-rdf-syntax-ns#"
   xmlns:svg="http://www.w3.org/2000/svg"
   xmlns="http://www.w3.org/2000/svg"
   xmlns:sodipodi="http://sodipodi.sourceforge.net/DTD/sodipodi-0.dtd"
   xmlns:inkscape="http://www.inkscape.org/namespaces/inkscape"
   version="1.1"
   id="Layer_1"
   x="0px"
   y="0px"
   viewBox="0 0 32 32"
   style="enable-background:new 0 0 32 32;"
   xml:space="preserve"
   sodipodi:docname="item_text.svg"
   inkscape:version="1.0.2 (e86c870879, 2021-01-15, custom)"><metadata
   id="metadata20"><rdf:RDF><cc:Work
       rdf:about=""><dc:format>image/svg+xml</dc:format><dc:type
         rdf:resource="http://purl.org/dc/dcmitype/StillImage" /><dc:title /></cc:Work></rdf:RDF></metadata><defs
   id="defs18"><mask
     maskUnits="userSpaceOnUse"
     id="mask1189"><rect
       style="fill:#ffffff;stroke:#000000;stroke-width:1;stroke-miterlimit:22.9256;stroke-dasharray:none;stroke-dashoffset:0"
       id="rect1191"
       width="24"
       height="20"
       x="4"
       y="6" /></mask></defs><sodipodi:namedview
   pagecolor="#ffffff"
   bordercolor="#666666"
   borderopacity="1"
   objecttolerance="10"
   gridtolerance="10"
   guidetolerance="10"
   inkscape:pageopacity="0"
   inkscape:pageshadow="2"
   inkscape:window-width="2560"
   inkscape:window-height="1017"
   id="namedview16"
   showgrid="false"
   inkscape:zoom="9.3912619"
   inkscape:cx="46.151701"
   inkscape:cy="21.758502"
   inkscape:window-x="-8"
   inkscape:window-y="-8"
   inkscape:window-maximized="1"
   inkscape:current-layer="Layer_1"
   inkscape:document-rotation="0" />
<style
   type="text/css"
   id="style2">
	.Yellow{fill:#FFB115;}
	.Red{fill:#D11C1C;}
	.Black{fill:#727272;}
	.Blue{fill:#1177D7;}
	.White{fill:#FFFFFF;}
	.Green{fill:#039C23;}
	.st0{opacity:0.75;}
	.st1{opacity:0.5;}
	.st2{opacity:0.25;}
	.st3{fill:#FFB115;}
</style>

<rect
   style="fill:#ffffff;stroke:none;stroke-width:1.5;stroke-miterlimit:22.9256;stroke-dasharray:3, 1.5"
   id="rect850"
   width="24"
   height="20"
   x="4"
   y="6" /><g
   id="Images">
	<path
   class="Black"
   d="M29,4H3C2.5,4,2,4.5,2,5v22c0,0.5,0.5,1,1,1h26c0.5,0,1-0.5,1-1V5C30,4.5,29.5,4,29,4z M28,26H4V6h24V26z"
   id="path4" />
	
	
	<g
   class="st1"
   id="g12">
		
	</g>
</g><g
   aria-label="Abc"
   id="text15"
   style="font-style:normal;font-weight:normal;font-size:11.0686px;line-height:1.25;font-family:sans-serif;fill:#000000;fill-opacity:1;stroke:none;stroke-width:0.276715"><path
     d="M 13.061906,19.759842 H 10.916284 L 10.359611,18.13306 H 7.3762777 L 6.8196049,19.759842 H 4.7280287 l 2.9725244,-8.047434 h 2.3888289 z m -3.2049216,-3.102235 -0.98904,-2.88605 -0.9890399,2.88605 z"
     style="font-style:normal;font-variant:normal;font-weight:bold;font-stretch:normal;font-family:sans-serif;-inkscape-font-specification:'sans-serif Bold';fill:#000000;stroke:none;stroke-width:0.276715"
     id="path837" /><path
     d="m 20.444576,16.641394 q 0,1.432216 -0.794475,2.334782 -0.78907,0.902567 -1.972675,0.902567 -0.508031,0 -0.891757,-0.108092 -0.383726,-0.108092 -0.72962,-0.313466 l -0.08107,0.302657 H 14.110397 V 11.3503 h 1.945652 v 2.972525 q 0.448581,-0.356703 0.913376,-0.578291 0.470199,-0.221589 1.080918,-0.221589 1.151177,0 1.772705,0.832307 0.621528,0.826902 0.621528,2.286142 z m -2.005103,0.03783 q 0,-0.810689 -0.275634,-1.24846 -0.275634,-0.437772 -0.983635,-0.437772 -0.275634,0 -0.567482,0.08647 -0.291848,0.08107 -0.556673,0.237802 v 3.048189 q 0.210779,0.07566 0.39994,0.102687 0.18916,0.02702 0.453985,0.02702 0.772857,0 1.151178,-0.453986 0.378321,-0.453985 0.378321,-1.361956 z"
     style="font-style:normal;font-variant:normal;font-weight:bold;font-stretch:normal;font-family:sans-serif;-inkscape-font-specification:'sans-serif Bold';fill:#000000;stroke:none;stroke-width:0.276715"
     id="path839" /><path
     d="m 25.011454,19.92198 q -0.794475,0 -1.453835,-0.189161 -0.653955,-0.189161 -1.140368,-0.583696 -0.481009,-0.394535 -0.745833,-0.994444 -0.264825,-0.59991 -0.264825,-1.405194 0,-0.84852 0.281038,-1.464643 0.286444,-0.616124 0.794475,-1.021468 0.491818,-0.383726 1.134964,-0.562077 0.643146,-0.178352 1.334934,-0.178352 0.621527,0 1.145773,0.135115 0.524245,0.135115 0.97823,0.351298 v 1.65921 h -0.275634 q -0.113496,-0.09728 -0.275634,-0.226993 -0.156733,-0.12971 -0.38913,-0.254016 -0.221589,-0.118901 -0.486413,-0.194565 -0.264825,-0.08107 -0.616124,-0.08107 -0.778261,0 -1.199819,0.497222 -0.416153,0.491818 -0.416153,1.340338 0,0.875544 0.426963,1.32953 Q 24.27643,18.533 25.0655,18.533 q 0.367512,0 0.65936,-0.08107 0.297252,-0.08647 0.491818,-0.19997 0.183756,-0.108091 0.324275,-0.226992 0.140519,-0.118901 0.25942,-0.232398 h 0.275634 v 1.659209 q -0.45939,0.216184 -0.962017,0.340489 -0.497222,0.129711 -1.102536,0.129711 z"
     style="font-style:normal;font-variant:normal;font-weight:bold;font-stretch:normal;font-family:sans-serif;-inkscape-font-specification:'sans-serif Bold';fill:#000000;stroke:none;stroke-width:0.276715"
     id="path841" /></g></svg>
