<?xml version="1.0" encoding="UTF-8" standalone="no"?>
<svg
   xmlns:dc="http://purl.org/dc/elements/1.1/"
   xmlns:cc="http://creativecommons.org/ns#"
   xmlns:rdf="http://www.w3.org/1999/02/22-rdf-syntax-ns#"
   xmlns:svg="http://www.w3.org/2000/svg"
   xmlns="http://www.w3.org/2000/svg"
   xmlns:sodipodi="http://sodipodi.sourceforge.net/DTD/sodipodi-0.dtd"
   xmlns:inkscape="http://www.inkscape.org/namespaces/inkscape"
   version="1.1"
   id="Layer_1"
   x="0px"
   y="0px"
   viewBox="0 0 32 32"
   style="enable-background:new 0 0 32 32;"
   xml:space="preserve"
   sodipodi:docname="item_presumedslope.svg"
   inkscape:version="1.0.2 (e86c870879, 2021-01-15, custom)"><metadata
   id="metadata20"><rdf:RDF><cc:Work
       rdf:about=""><dc:format>image/svg+xml</dc:format><dc:type
         rdf:resource="http://purl.org/dc/dcmitype/StillImage" /><dc:title></dc:title></cc:Work></rdf:RDF></metadata><defs
   id="defs18" /><sodipodi:namedview
   pagecolor="#ffffff"
   bordercolor="#666666"
   borderopacity="1"
   objecttolerance="10"
   gridtolerance="10"
   guidetolerance="10"
   inkscape:pageopacity="0"
   inkscape:pageshadow="2"
   inkscape:window-width="2560"
   inkscape:window-height="1017"
   id="namedview16"
   showgrid="false"
   inkscape:zoom="12.930136"
   inkscape:cx="3.5322244"
   inkscape:cy="24.444748"
   inkscape:window-x="-8"
   inkscape:window-y="-8"
   inkscape:window-maximized="1"
   inkscape:current-layer="Layer_1"
   inkscape:document-rotation="0" />
<style
   type="text/css"
   id="style2">
	.Yellow{fill:#FFB115;}
	.Red{fill:#D11C1C;}
	.Black{fill:#727272;}
	.Blue{fill:#1177D7;}
	.White{fill:#FFFFFF;}
	.Green{fill:#039C23;}
	.st0{opacity:0.75;}
	.st1{opacity:0.5;}
	.st2{opacity:0.25;}
	.st3{fill:#FFB115;}
</style>

<rect
   style="fill:#ffffff;stroke:none;stroke-width:1.5;stroke-miterlimit:22.9256;stroke-dasharray:3, 1.5"
   id="rect850"
   width="24"
   height="20"
   x="4"
   y="6" /><g
   id="g876"
   transform="matrix(0.59338809,0,0,0.55442063,1.3521857,-7.0083473)"><path
     class="fil1 str8"
     d="m 4.4477101,23.462957 c -0.4032718,6.879092 5.0387423,7.84681 9.8430739,10.248909 6.174783,3.087391 3.73991,14.143383 15.98832,14.143383 11.043314,0 9.494426,3.897577 13.121312,11.681402"
     id="path480"
     style="clip-rule:evenodd;fill:none;fill-rule:evenodd;stroke:#000000;stroke-width:2.0231;stroke-miterlimit:22.9256;stroke-dasharray:2.0231, 2.0231;image-rendering:optimizeQuality;shape-rendering:geometricPrecision;text-rendering:geometricPrecision" /><g
     id="g484"
     style="clip-rule:evenodd;fill-rule:evenodd;stroke:#000000;image-rendering:optimizeQuality;shape-rendering:geometricPrecision;text-rendering:geometricPrecision"
     transform="matrix(0.00134874,0,0,0.00134874,85.57606,-90.038965)"><path
       class="fil3"
       d="m -48714.7,102256.6 626.4,533.8 -533.8,626.4 -626.4,-533.8 z m 1067.6,-1252.8 626.4,533.8 -533.8,626.4 -626.4,-533.8 z m 1067.7,-1252.8 626.4,533.8 -533.9,626.4 -626.4,-533.8 z m 1067.8,-1252.8 626.4,533.8 -533.9,626.4 -626.4,-533.8 z m 3447.7,-3411.2 -1350.1,5469.3 -3834.7,-3268.1 z"
       id="path482"
       style="stroke:#000000" /></g><g
     id="g488"
     style="clip-rule:evenodd;fill-rule:evenodd;stroke:#000000;image-rendering:optimizeQuality;shape-rendering:geometricPrecision;text-rendering:geometricPrecision"
     transform="matrix(0.00134874,0,0,0.00134874,85.57606,-90.038965)"><path
       class="fil3"
       d="m -37352.1,106440.7 671.6,475.8 -475.7,671.5 -671.6,-475.8 z m 951.4,-1343.1 671.6,475.8 -475.7,671.6 -671.6,-475.8 z m 951.4,-1343.2 671.6,475.8 -475.7,671.6 -671.6,-475.8 z m 951.5,-1343.2 671.6,475.8 -475.8,671.6 -671.6,-475.8 z m 1161.5,-215.6 -14.1,19.8 -671.6,-475.8 14.1,-19.8 z m 2424.7,-4134.8 -856.2,5568.7 -4111.8,-2912.8 z"
       id="path486"
       style="stroke:#000000" /></g><g
     id="g492"
     style="clip-rule:evenodd;fill-rule:evenodd;stroke:#000000;image-rendering:optimizeQuality;shape-rendering:geometricPrecision;text-rendering:geometricPrecision"
     transform="matrix(0.00134874,0,0,0.00134874,85.57606,-90.038965)"><path
       class="fil3"
       d="m -55985,93062.5 546,615.8 -615.8,545.9 -546,-615.8 z m 1231.7,-1091.8 546,615.8 -615.9,545.9 -546,-615.8 z m 1231.8,-1091.9 546,615.8 -615.9,546 -546,-615.8 z m 1231.8,-1092 546,615.8 -615.9,546 -546,-615.8 z m 3889.3,-2897.7 -2098.7,5228 -3342.2,-3770.4 z"
       id="path490"
       style="stroke:#000000" /></g></g><g
   id="Images">
	<path
   class="Black"
   d="M29,4H3C2.5,4,2,4.5,2,5v22c0,0.5,0.5,1,1,1h26c0.5,0,1-0.5,1-1V5C30,4.5,29.5,4,29,4z M28,26H4V6h24V26z"
   id="path4" />
	
	
	<g
   class="st1"
   id="g12">
		
	</g>
</g><style
   type="text/css"
   id="style2-3">
	.Yellow{fill:#FFB115;}
	.Red{fill:#D11C1C;}
	.Black{fill:#727272;}
	.Blue{fill:#1177D7;}
	.White{fill:#FFFFFF;}
	.Green{fill:#039C23;}
	.st0{opacity:0.75;}
	.st1{opacity:0.5;}
	.st2{opacity:0.25;}
	.st3{fill:#FFB115;}
</style></svg>
