<svg width="32px" height="32px" version="1.1" viewBox="0 0 32 32" xmlns="http://www.w3.org/2000/svg" xmlns:svg="http://www.w3.org/2000/svg" xmlns:xlink="http://www.w3.org/1999/xlink" xmlns:csurvey="http://www.csurvey.it">
  <defs />
  <rect x="0" y="0" width="32" height="32" style="fill:#FFFFFF;opacity:1;stroke:none" />
  <g>
    <clipPath id="clip_49482d2d-7daa-43d4-9dab-1b4886d708fd">
      <path d="M 0 0 L 32 0  32 32  0 32 Z " />
    </clipPath>
    <g style="fill:#FFFFFF;opacity:1;stroke:none" clip-path="url(#clip_49482d2d-7daa-43d4-9dab-1b4886d708fd)">
      <path d="M 0.9760591 30.92507 C 1.812346 30.93784  2.177098 30.78689  2.871111 30.46459  4.403762 29.75284  4.944516 27.05224  2.411778 26.97906  1.311555 26.94727  -1.132594 29.79348  0.9760591 30.92507 Z " />
    </g>
    <g style="fill:#FFFFFF;opacity:1;stroke:none" clip-path="url(#clip_49482d2d-7daa-43d4-9dab-1b4886d708fd)">
      <path d="M -0.4537973 24.58888 C 0.02645135 24.93883  0.5811927 25.20114  1.110828 25.48537  2.362696 26.15718  4.327187 24.12518  3.610727 23.47424  2.185908 22.17974  -0.8666795 22.0253  -0.4537791 24.58889 L -0.453797 24.58888 Z " />
    </g>
    <g style="fill:none;stroke:#000000;stroke-width:0.2;stroke-linejoin:round;stroke-linecap:round;stroke-opacity:1" clip-path="url(#clip_49482d2d-7daa-43d4-9dab-1b4886d708fd)">
      <path d="M 0.9760591 30.92507 C 1.812346 30.93784  2.177098 30.78689  2.871111 30.46459  4.403762 29.75284  4.944516 27.05224  2.411778 26.97906  1.311555 26.94727  -1.132594 29.79348  0.9760591 30.92507 Z " />
    </g>
    <g style="fill:none;stroke:#000000;stroke-width:0.2;stroke-linejoin:round;stroke-linecap:round;stroke-opacity:1" clip-path="url(#clip_49482d2d-7daa-43d4-9dab-1b4886d708fd)">
      <path d="M -0.4537973 24.58888 C 0.02645135 24.93883  0.5811927 25.20114  1.110828 25.48537  2.362696 26.15718  4.327187 24.12518  3.610727 23.47424  2.185908 22.17974  -0.8666795 22.0253  -0.4537791 24.58889 L -0.453797 24.58888 Z " />
    </g>
    <g style="fill:#FFFFFF;opacity:1;stroke:none" clip-path="url(#clip_49482d2d-7daa-43d4-9dab-1b4886d708fd)">
      <path d="M 7.469347 -0.8927047 C 6.934963 -0.8028629  6.686543 -0.452897  6.782847 0.0533843  7.202285 2.258426  9.704981 -0.5800033  7.469347 -0.8927047 Z " />
    </g>
    <g style="fill:#FFFFFF;opacity:1;stroke:none" clip-path="url(#clip_49482d2d-7daa-43d4-9dab-1b4886d708fd)">
      <path d="M 6.967302 2.362857 C 6.373846 2.393026  5.777627 2.538176  5.187135 2.650497  3.791421 2.915987  3.543014 5.731399  4.509443 5.786556  6.431375 5.896243  8.901186 4.095639  6.967281 2.36286 L 6.967301 2.362856 Z " />
    </g>
    <g style="fill:none;stroke:#000000;stroke-width:0.2;stroke-linejoin:round;stroke-linecap:round;stroke-opacity:1" clip-path="url(#clip_49482d2d-7daa-43d4-9dab-1b4886d708fd)">
      <path d="M 7.469347 -0.8927047 C 6.934963 -0.8028629  6.686543 -0.452897  6.782847 0.0533843  7.202285 2.258426  9.704981 -0.5800033  7.469347 -0.8927047 Z " />
    </g>
    <g style="fill:none;stroke:#000000;stroke-width:0.2;stroke-linejoin:round;stroke-linecap:round;stroke-opacity:1" clip-path="url(#clip_49482d2d-7daa-43d4-9dab-1b4886d708fd)">
      <path d="M 6.967302 2.362857 C 6.373846 2.393026  5.777627 2.538176  5.187135 2.650497  3.791421 2.915987  3.543014 5.731399  4.509443 5.786556  6.431375 5.896243  8.901186 4.095639  6.967281 2.36286 L 6.967301 2.362856 Z " />
    </g>
    <g style="fill:#FFFFFF;opacity:1;stroke:none" clip-path="url(#clip_49482d2d-7daa-43d4-9dab-1b4886d708fd)">
      <path d="M 1.938378 15.70572 C 2.122762 16.52153  2.355299 16.84052  2.831858 17.4392  3.884276 18.76133  6.636284 18.65142  6.111432 16.17258  5.883432 15.09577  2.542009 13.39  1.938378 15.70572 Z " />
    </g>
    <g style="fill:#FFFFFF;opacity:1;stroke:none" clip-path="url(#clip_49482d2d-7daa-43d4-9dab-1b4886d708fd)">
      <path d="M 0.3323521 11.14755 C -0.01170725 11.86162  0.1477209 12.83176  0.7856293 13.18023  2.380899 14.05168  3.908462 10.04408  3.807569 8.534834  3.793263 8.320845  2.508757 7.808519  2.210735 7.911621  1.412408 8.18776  0.3607173 9.910198  0.3323521 11.14755 Z " />
    </g>
    <g style="fill:#FFFFFF;opacity:1;stroke:none" clip-path="url(#clip_49482d2d-7daa-43d4-9dab-1b4886d708fd)">
      <path d="M 5.034018 10.97605 C 4.886141 11.49736  5.095852 11.87181  5.594548 12.0018  7.76655 12.56797  6.274776 9.090217  5.034018 10.97605 Z " />
    </g>
    <g style="fill:#FFFFFF;opacity:1;stroke:none" clip-path="url(#clip_49482d2d-7daa-43d4-9dab-1b4886d708fd)">
      <path d="M 6.046699 8.083639 C 6.202471 8.200531  6.551017 8.525556  6.697696 8.56379  11.64544 9.853504  6.156331 5.158756  6.046699 8.083639 Z " />
    </g>
    <g style="fill:#FFFFFF;opacity:1;stroke:none" clip-path="url(#clip_49482d2d-7daa-43d4-9dab-1b4886d708fd)">
      <path d="M 7.760182 12.82504 C 7.533072 13.37415  7.408663 13.97503  7.257048 14.55668  6.898683 15.93148  9.335892 17.36265  9.799957 16.51314  10.72283 14.82372  10.15463 11.82051  7.760177 12.82506 L 7.760182 12.82504 Z " />
    </g>
    <g style="fill:none;stroke:#000000;stroke-width:0.2;stroke-linejoin:round;stroke-linecap:round;stroke-opacity:1" clip-path="url(#clip_49482d2d-7daa-43d4-9dab-1b4886d708fd)">
      <path d="M 1.938378 15.70572 C 2.122762 16.52153  2.355299 16.84052  2.831858 17.4392  3.884276 18.76133  6.636284 18.65142  6.111432 16.17258  5.883432 15.09577  2.542009 13.39  1.938378 15.70572 Z " />
    </g>
    <g style="fill:none;stroke:#000000;stroke-width:0.2;stroke-linejoin:round;stroke-linecap:round;stroke-opacity:1" clip-path="url(#clip_49482d2d-7daa-43d4-9dab-1b4886d708fd)">
      <path d="M 0.3323521 11.14755 C -0.01170725 11.86162  0.1477209 12.83176  0.7856293 13.18023  2.380899 14.05168  3.908462 10.04408  3.807569 8.534834  3.793263 8.320845  2.508757 7.808519  2.210735 7.911621  1.412408 8.18776  0.3607173 9.910198  0.3323521 11.14755 Z " />
    </g>
    <g style="fill:none;stroke:#000000;stroke-width:0.2;stroke-linejoin:round;stroke-linecap:round;stroke-opacity:1" clip-path="url(#clip_49482d2d-7daa-43d4-9dab-1b4886d708fd)">
      <path d="M 5.034018 10.97605 C 4.886141 11.49736  5.095852 11.87181  5.594548 12.0018  7.76655 12.56797  6.274776 9.090217  5.034018 10.97605 Z " />
    </g>
    <g style="fill:none;stroke:#000000;stroke-width:0.2;stroke-linejoin:round;stroke-linecap:round;stroke-opacity:1" clip-path="url(#clip_49482d2d-7daa-43d4-9dab-1b4886d708fd)">
      <path d="M 6.046699 8.083639 C 6.202471 8.200531  6.551017 8.525556  6.697696 8.56379  11.64544 9.853504  6.156331 5.158756  6.046699 8.083639 Z " />
    </g>
    <g style="fill:none;stroke:#000000;stroke-width:0.2;stroke-linejoin:round;stroke-linecap:round;stroke-opacity:1" clip-path="url(#clip_49482d2d-7daa-43d4-9dab-1b4886d708fd)">
      <path d="M 7.760182 12.82504 C 7.533072 13.37415  7.408663 13.97503  7.257048 14.55668  6.898683 15.93148  9.335892 17.36265  9.799957 16.51314  10.72283 14.82372  10.15463 11.82051  7.760177 12.82506 L 7.760182 12.82504 Z " />
    </g>
    <g style="fill:#FFFFFF;opacity:1;stroke:none" clip-path="url(#clip_49482d2d-7daa-43d4-9dab-1b4886d708fd)">
      <path d="M 6.200855 28.96841 C 7.016955 29.15149  7.404827 29.07812  8.149992 28.90417  9.795605 28.52002  10.87587 25.98651  8.411308 25.39822  7.340703 25.14267  4.367365 27.43047  6.200855 28.96841 Z " />
    </g>
    <g style="fill:#FFFFFF;opacity:1;stroke:none" clip-path="url(#clip_49482d2d-7daa-43d4-9dab-1b4886d708fd)">
      <path d="M 1.394243 28.46571 C 1.891919 29.08262  2.836762 29.3544  3.425023 28.92743  4.896126 27.85964  1.930068 24.76178  0.5232382 24.20604  0.3237706 24.12724  -0.6896734 25.06818  -0.7242614 25.38163  -0.8169514 26.22127  0.2884698 27.90972  1.394243 28.46571 Z " />
    </g>
    <g style="fill:#FFFFFF;opacity:1;stroke:none" clip-path="url(#clip_49482d2d-7daa-43d4-9dab-1b4886d708fd)">
      <path d="M 3.254519 24.14431 C 3.662137 24.50136  4.090329 24.47239  4.421526 24.07754  5.864015 22.35784  2.082512 22.215  3.254519 24.14431 Z " />
    </g>
    <g style="fill:#FFFFFF;opacity:1;stroke:none" clip-path="url(#clip_49482d2d-7daa-43d4-9dab-1b4886d708fd)">
      <path d="M 1.075326 21.98962 C 1.247703 21.89899  1.690753 21.7234  1.788166 21.60726  5.074106 17.68984  -1.520272 20.63691  1.075326 21.98962 Z " />
    </g>
    <g style="fill:#FFFFFF;opacity:1;stroke:none" clip-path="url(#clip_49482d2d-7daa-43d4-9dab-1b4886d708fd)">
      <path d="M 6.09354 22.47378 C 6.492309 22.91433  6.981878 23.28428  7.4424 23.67057  8.530909 24.58361  10.86859 22.99506  10.29997 22.21167  9.169171 20.65374  6.212268 19.87987  6.093556 22.47379 L 6.093541 22.47378 Z " />
    </g>
    <g style="fill:none;stroke:#000000;stroke-width:0.2;stroke-linejoin:round;stroke-linecap:round;stroke-opacity:1" clip-path="url(#clip_49482d2d-7daa-43d4-9dab-1b4886d708fd)">
      <path d="M 6.200855 28.96841 C 7.016955 29.15149  7.404827 29.07812  8.149992 28.90417  9.795605 28.52002  10.87587 25.98651  8.411308 25.39822  7.340703 25.14267  4.367365 27.43047  6.200855 28.96841 Z " />
    </g>
    <g style="fill:none;stroke:#000000;stroke-width:0.2;stroke-linejoin:round;stroke-linecap:round;stroke-opacity:1" clip-path="url(#clip_49482d2d-7daa-43d4-9dab-1b4886d708fd)">
      <path d="M 1.394243 28.46571 C 1.891919 29.08262  2.836762 29.3544  3.425023 28.92743  4.896126 27.85964  1.930068 24.76178  0.5232382 24.20604  0.3237706 24.12724  -0.6896734 25.06818  -0.7242614 25.38163  -0.8169514 26.22127  0.2884698 27.90972  1.394243 28.46571 Z " />
    </g>
    <g style="fill:none;stroke:#000000;stroke-width:0.2;stroke-linejoin:round;stroke-linecap:round;stroke-opacity:1" clip-path="url(#clip_49482d2d-7daa-43d4-9dab-1b4886d708fd)">
      <path d="M 3.254519 24.14431 C 3.662137 24.50136  4.090329 24.47239  4.421526 24.07754  5.864015 22.35784  2.082512 22.215  3.254519 24.14431 Z " />
    </g>
    <g style="fill:none;stroke:#000000;stroke-width:0.2;stroke-linejoin:round;stroke-linecap:round;stroke-opacity:1" clip-path="url(#clip_49482d2d-7daa-43d4-9dab-1b4886d708fd)">
      <path d="M 1.075326 21.98962 C 1.247703 21.89899  1.690753 21.7234  1.788166 21.60726  5.074106 17.68984  -1.520272 20.63691  1.075326 21.98962 Z " />
    </g>
    <g style="fill:none;stroke:#000000;stroke-width:0.2;stroke-linejoin:round;stroke-linecap:round;stroke-opacity:1" clip-path="url(#clip_49482d2d-7daa-43d4-9dab-1b4886d708fd)">
      <path d="M 6.09354 22.47378 C 6.492309 22.91433  6.981878 23.28428  7.4424 23.67057  8.530909 24.58361  10.86859 22.99506  10.29997 22.21167  9.169171 20.65374  6.212268 19.87987  6.093556 22.47379 L 6.093541 22.47378 Z " />
    </g>
    <g style="fill:#FFFFFF;opacity:1;stroke:none" clip-path="url(#clip_49482d2d-7daa-43d4-9dab-1b4886d708fd)">
      <path d="M 13.12889 0.3915808 C 12.79988 1.160536  12.8012 1.555285  12.83618 2.319685  12.91342 4.007775  15.20712 5.532442  16.23549 3.21672  16.68221 2.210767  14.97573 -1.130296  13.12889 0.3915808 Z " />
    </g>
    <g style="fill:#FFFFFF;opacity:1;stroke:none" clip-path="url(#clip_49482d2d-7daa-43d4-9dab-1b4886d708fd)">
      <path d="M 19.53395 1.471851 C 19.028 1.783482  18.57488 2.197277  18.111 2.57953  17.01457 3.48304  18.14961 6.071463  19.02365 5.655436  20.76185 4.828084  22.06258 2.062175  19.53393 1.471864 L 19.53395 1.471851 Z " />
    </g>
    <g style="fill:none;stroke:#000000;stroke-width:0.2;stroke-linejoin:round;stroke-linecap:round;stroke-opacity:1" clip-path="url(#clip_49482d2d-7daa-43d4-9dab-1b4886d708fd)">
      <path d="M 13.12889 0.3915808 C 12.79988 1.160536  12.8012 1.555285  12.83618 2.319685  12.91342 4.007775  15.20712 5.532442  16.23549 3.21672  16.68221 2.210767  14.97573 -1.130296  13.12889 0.3915808 Z " />
    </g>
    <g style="fill:none;stroke:#000000;stroke-width:0.2;stroke-linejoin:round;stroke-linecap:round;stroke-opacity:1" clip-path="url(#clip_49482d2d-7daa-43d4-9dab-1b4886d708fd)">
      <path d="M 19.53395 1.471851 C 19.028 1.783482  18.57488 2.197277  18.111 2.57953  17.01457 3.48304  18.14961 6.071463  19.02365 5.655436  20.76185 4.828084  22.06258 2.062175  19.53393 1.471864 L 19.53395 1.471851 Z " />
    </g>
    <g style="fill:#FFFFFF;opacity:1;stroke:none" clip-path="url(#clip_49482d2d-7daa-43d4-9dab-1b4886d708fd)">
      <path d="M 25.03916 8.752503 C 25.00318 7.916893  24.83124 7.561555  24.46905 6.887498  23.66922 5.398918  20.9417 5.016422  21.0162 7.549122  21.04857 8.649328  24.03234 10.9235  25.03916 8.752503 Z " />
    </g>
    <g style="fill:#FFFFFF;opacity:1;stroke:none" clip-path="url(#clip_49482d2d-7daa-43d4-9dab-1b4886d708fd)">
      <path d="M 25.8068 13.52398 C 26.27265 12.88269  26.28874 11.89967  25.72318 11.44305  24.30884 10.30115  22.09125 13.97219  21.92144 15.47525  21.89737 15.68836  23.06995 16.42149  23.38158 16.37317  24.21635 16.24379  25.55828 14.73645  25.8068 13.52398 Z " />
    </g>
    <g style="fill:#FFFFFF;opacity:1;stroke:none" clip-path="url(#clip_49482d2d-7daa-43d4-9dab-1b4886d708fd)">
      <path d="M 21.14988 12.85449 C 21.38833 12.36789  21.24874 11.96205  20.78121 11.74523  18.74495 10.8009  19.59278 14.48889  21.14988 12.85449 Z " />
    </g>
    <g style="fill:#FFFFFF;opacity:1;stroke:none" clip-path="url(#clip_49482d2d-7daa-43d4-9dab-1b4886d708fd)">
      <path d="M 19.63774 15.52001 C 19.50531 15.37722  19.22029 14.99526  19.08278 14.93148  14.44424 12.78032  19.0084 18.37848  19.63774 15.52001 Z " />
    </g>
    <g style="fill:#FFFFFF;opacity:1;stroke:none" clip-path="url(#clip_49482d2d-7daa-43d4-9dab-1b4886d708fd)">
      <path d="M 18.79704 10.54908 C 19.11841 10.04926  19.34796 9.480181  19.60085 8.934886  20.19858 7.646004  18.05557 5.803237  17.44749 6.556404  16.23819 8.054221  16.26187 11.11062  18.79705 10.54906 L 18.79704 10.54908 Z " />
    </g>
    <g style="fill:none;stroke:#000000;stroke-width:0.2;stroke-linejoin:round;stroke-linecap:round;stroke-opacity:1" clip-path="url(#clip_49482d2d-7daa-43d4-9dab-1b4886d708fd)">
      <path d="M 25.03916 8.752503 C 25.00318 7.916893  24.83124 7.561555  24.46905 6.887498  23.66922 5.398918  20.9417 5.016422  21.0162 7.549122  21.04857 8.649328  24.03234 10.9235  25.03916 8.752503 Z " />
    </g>
    <g style="fill:none;stroke:#000000;stroke-width:0.2;stroke-linejoin:round;stroke-linecap:round;stroke-opacity:1" clip-path="url(#clip_49482d2d-7daa-43d4-9dab-1b4886d708fd)">
      <path d="M 25.8068 13.52398 C 26.27265 12.88269  26.28874 11.89967  25.72318 11.44305  24.30884 10.30115  22.09125 13.97219  21.92144 15.47525  21.89737 15.68836  23.06995 16.42149  23.38158 16.37317  24.21635 16.24379  25.55828 14.73645  25.8068 13.52398 Z " />
    </g>
    <g style="fill:none;stroke:#000000;stroke-width:0.2;stroke-linejoin:round;stroke-linecap:round;stroke-opacity:1" clip-path="url(#clip_49482d2d-7daa-43d4-9dab-1b4886d708fd)">
      <path d="M 21.14988 12.85449 C 21.38833 12.36789  21.24874 11.96205  20.78121 11.74523  18.74495 10.8009  19.59278 14.48889  21.14988 12.85449 Z " />
    </g>
    <g style="fill:none;stroke:#000000;stroke-width:0.2;stroke-linejoin:round;stroke-linecap:round;stroke-opacity:1" clip-path="url(#clip_49482d2d-7daa-43d4-9dab-1b4886d708fd)">
      <path d="M 19.63774 15.52001 C 19.50531 15.37722  19.22029 14.99526  19.08278 14.93148  14.44424 12.78032  19.0084 18.37848  19.63774 15.52001 Z " />
    </g>
    <g style="fill:none;stroke:#000000;stroke-width:0.2;stroke-linejoin:round;stroke-linecap:round;stroke-opacity:1" clip-path="url(#clip_49482d2d-7daa-43d4-9dab-1b4886d708fd)">
      <path d="M 18.79704 10.54908 C 19.11841 10.04926  19.34796 9.480181  19.60085 8.934886  20.19858 7.646004  18.05557 5.803237  17.44749 6.556404  16.23819 8.054221  16.26187 11.11062  18.79705 10.54906 L 18.79704 10.54908 Z " />
    </g>
    <g style="fill:#FFFFFF;opacity:1;stroke:none" clip-path="url(#clip_49482d2d-7daa-43d4-9dab-1b4886d708fd)">
      <path d="M 20.49085 25.45076 C 21.15337 24.94026  21.34492 24.5951  21.68754 23.91089  22.44419 22.3999  21.18666 19.94954  19.1587 21.46858  18.27775 22.12845  18.13609 25.87741  20.49085 25.45076 Z " />
    </g>
    <g style="fill:#FFFFFF;opacity:1;stroke:none" clip-path="url(#clip_49482d2d-7daa-43d4-9dab-1b4886d708fd)">
      <path d="M 17.03141 28.82544 C 17.82395 28.83714  18.63698 28.28436  18.68473 27.55904  18.80414 25.74519  14.52581 26.04548  13.19908 26.77197  13.01097 26.87498  13.08661 28.25582  13.30553 28.48281  13.89191 29.09086  15.89696 29.32028  17.03141 28.82544 Z " />
    </g>
    <g style="fill:#FFFFFF;opacity:1;stroke:none" clip-path="url(#clip_49482d2d-7daa-43d4-9dab-1b4886d708fd)">
      <path d="M 14.89774 24.63228 C 15.43289 24.54711  15.68435 24.19932  15.59247 23.69222  15.19229 21.4836  12.66492 24.30008  14.89774 24.63228 Z " />
    </g>
    <g style="fill:#FFFFFF;opacity:1;stroke:none" clip-path="url(#clip_49482d2d-7daa-43d4-9dab-1b4886d708fd)">
      <path d="M 11.84772 24.93048 C 11.88822 24.73999  12.03644 24.28704  12.00942 24.13789  11.09782 19.10673  9.148165 26.06158  11.84772 24.93048 Z " />
    </g>
    <g style="fill:#FFFFFF;opacity:1;stroke:none" clip-path="url(#clip_49482d2d-7daa-43d4-9dab-1b4886d708fd)">
      <path d="M 15.42817 21.38123 C 16.02187 21.35624  16.61933 21.2163  17.21078 21.10913  18.60876 20.85583  18.88173 18.04269  17.91581 17.9791  15.99491 17.85265  13.50948 19.63163  15.42819 21.38122 L 15.42817 21.38123 Z " />
    </g>
    <g style="fill:none;stroke:#000000;stroke-width:0.2;stroke-linejoin:round;stroke-linecap:round;stroke-opacity:1" clip-path="url(#clip_49482d2d-7daa-43d4-9dab-1b4886d708fd)">
      <path d="M 20.49085 25.45076 C 21.15337 24.94026  21.34492 24.5951  21.68754 23.91089  22.44419 22.3999  21.18666 19.94954  19.1587 21.46858  18.27775 22.12845  18.13609 25.87741  20.49085 25.45076 Z " />
    </g>
    <g style="fill:none;stroke:#000000;stroke-width:0.2;stroke-linejoin:round;stroke-linecap:round;stroke-opacity:1" clip-path="url(#clip_49482d2d-7daa-43d4-9dab-1b4886d708fd)">
      <path d="M 17.03141 28.82544 C 17.82395 28.83714  18.63698 28.28436  18.68473 27.55904  18.80414 25.74519  14.52581 26.04548  13.19908 26.77197  13.01097 26.87498  13.08661 28.25582  13.30553 28.48281  13.89191 29.09086  15.89696 29.32028  17.03141 28.82544 Z " />
    </g>
    <g style="fill:none;stroke:#000000;stroke-width:0.2;stroke-linejoin:round;stroke-linecap:round;stroke-opacity:1" clip-path="url(#clip_49482d2d-7daa-43d4-9dab-1b4886d708fd)">
      <path d="M 14.89774 24.63228 C 15.43289 24.54711  15.68435 24.19932  15.59247 23.69222  15.19229 21.4836  12.66492 24.30008  14.89774 24.63228 Z " />
    </g>
    <g style="fill:none;stroke:#000000;stroke-width:0.2;stroke-linejoin:round;stroke-linecap:round;stroke-opacity:1" clip-path="url(#clip_49482d2d-7daa-43d4-9dab-1b4886d708fd)">
      <path d="M 11.84772 24.93048 C 11.88822 24.73999  12.03644 24.28704  12.00942 24.13789  11.09782 19.10673  9.148165 26.06158  11.84772 24.93048 Z " />
    </g>
    <g style="fill:none;stroke:#000000;stroke-width:0.2;stroke-linejoin:round;stroke-linecap:round;stroke-opacity:1" clip-path="url(#clip_49482d2d-7daa-43d4-9dab-1b4886d708fd)">
      <path d="M 15.42817 21.38123 C 16.02187 21.35624  16.61933 21.2163  17.21078 21.10913  18.60876 20.85583  18.88173 18.04269  17.91581 17.9791  15.99491 17.85265  13.50948 19.63163  15.42819 21.38122 L 15.42817 21.38123 Z " />
    </g>
    <g style="fill:#FFFFFF;opacity:1;stroke:none" clip-path="url(#clip_49482d2d-7daa-43d4-9dab-1b4886d708fd)">
      <path d="M 22.41434 31.67954 C 22.59963 31.73951  23.03483 31.93373  23.18598 31.92226  28.2844 31.53533  21.5682 28.87758  22.41434 31.67954 Z " />
    </g>
    <g style="fill:none;stroke:#000000;stroke-width:0.2;stroke-linejoin:round;stroke-linecap:round;stroke-opacity:1" clip-path="url(#clip_49482d2d-7daa-43d4-9dab-1b4886d708fd)">
      <path d="M 22.41434 31.67954 C 22.59963 31.73951  23.03483 31.93373  23.18598 31.92226  28.2844 31.53533  21.5682 28.87758  22.41434 31.67954 Z " />
    </g>
    <g style="fill:#FFFFFF;opacity:1;stroke:none" clip-path="url(#clip_49482d2d-7daa-43d4-9dab-1b4886d708fd)">
      <path d="M 30.17913 25.8949 C 29.37409 25.6681  28.98282 25.72045  28.22936 25.85398  26.56544 26.14887  25.35018 28.62047  27.77944 29.34075  28.83472 29.65363  31.92705 27.52944  30.17913 25.8949 Z " />
    </g>
    <g style="fill:none;stroke:#000000;stroke-width:0.2;stroke-linejoin:round;stroke-linecap:round;stroke-opacity:1" clip-path="url(#clip_49482d2d-7daa-43d4-9dab-1b4886d708fd)">
      <path d="M 30.17913 25.8949 C 29.37409 25.6681  28.98282 25.72045  28.22936 25.85398  26.56544 26.14887  25.35018 28.62047  27.77944 29.34075  28.83472 29.65363  31.92705 27.52944  30.17913 25.8949 Z " />
    </g>
  </g>
  <rect x="0" y="0" width="32" height="32" style="fill:none;stroke:#000000;stroke-width:1;stroke-linejoin:round;stroke-linecap:round;stroke-opacity:1" />
</svg>