<svg width="32px" height="32px" version="1.1" viewBox="0 0 32 32" xmlns="http://www.w3.org/2000/svg" xmlns:svg="http://www.w3.org/2000/svg" xmlns:xlink="http://www.w3.org/1999/xlink" xmlns:csurvey="http://www.csurvey.it">
  <defs />
  <rect x="0" y="0" width="32" height="32" style="fill:#FFFFFF;opacity:1;stroke:none" />
  <g>
    <clipPath id="clip_7eb9d8cc-9d9c-4ee4-90a2-f11ad6957216">
      <path d="M 0 0 L 32 0  32 32  0 32 Z " />
    </clipPath>
    <g style="fill:#FFFFFF;opacity:1;stroke:none" clip-path="url(#clip_7eb9d8cc-9d9c-4ee4-90a2-f11ad6957216)">
      <path d="M 4.67033 4.292942 C 5.971807 5.1432  5.70145 4.930702  7.363223 5.437856 L 9.223932 3.603439  7.329128 2.201904 C 7.256065 2.263302  6.444313 2.682462  5.949008 3.058581  5.674591 3.266968  4.834143 3.96418  4.670331 4.292944 Z " />
    </g>
    <g style="fill:#FFFFFF;opacity:1;stroke:none" clip-path="url(#clip_7eb9d8cc-9d9c-4ee4-90a2-f11ad6957216)">
      <path d="M 0.4168802 2.317642 L 3.041811 3.5941  4.040212 2.416258  2.119805 0.5367053 C 1.428442 0.8828926  0.8920121 1.521838  0.4168802 2.317642 Z " />
    </g>
    <g style="fill:#FFFFFF;opacity:1;stroke:none" clip-path="url(#clip_7eb9d8cc-9d9c-4ee4-90a2-f11ad6957216)">
      <path d="M 11.05762 8.635511 C 11.19547 8.58599  11.37023 8.460512  11.50572 8.380119  12.72574 7.656224  12.66057 8.174124  11.76959 5.371536  11.34419 5.527482  10.32165 6.566584  10.33406 6.856008  10.33623 6.906739  11.01666 8.576605  11.05762 8.635511 Z " />
    </g>
    <g style="fill:#FFFFFF;opacity:1;stroke:none" clip-path="url(#clip_7eb9d8cc-9d9c-4ee4-90a2-f11ad6957216)">
      <path d="M 13.9236 3.585404 L 15.5329 1.843089 C 14.47273 0.7530224  15.02109 1.202047  13.566 0.3051436  13.4601 1.040162  13.62953 3.142109  13.9236 3.585404 Z " />
    </g>
    <g style="fill:#FFFFFF;opacity:1;stroke:none" clip-path="url(#clip_7eb9d8cc-9d9c-4ee4-90a2-f11ad6957216)">
      <path d="M 6.27829 9.498502 C 6.975378 9.500034  7.354553 9.40531  7.874694 9.186809  8.430675 8.953262  8.301965 8.131629  8.227979 7.611084  7.799013 7.563829  6.828537 7.804055  6.392097 7.902525  6.06869 7.975472  5.97087 7.882899  6.013027 8.601954  6.032541 8.934999  6.09258 9.258023  6.278291 9.498501 Z " />
    </g>
    <g style="fill:#FFFFFF;opacity:1;stroke:none" clip-path="url(#clip_7eb9d8cc-9d9c-4ee4-90a2-f11ad6957216)">
      <path d="M 9.011524 0.8896697 C 9.216591 1.11148  9.445524 1.505286  9.689982 1.791342 L 10.57205 2.649572 C 10.7067 2.487773  10.92762 2.375761  11.12187 2.160734 L 11.61292 1.40515 C 11.38062 1.070147  10.76256 0.5622327  10.31633 0.4198182  10.04411 0.3329325  9.218843 0.6623769  9.011524 0.8896697 Z " />
    </g>
    <g style="fill:#FFFFFF;opacity:1;stroke:none" clip-path="url(#clip_7eb9d8cc-9d9c-4ee4-90a2-f11ad6957216)">
      <path d="M 1.495818 5.769904 L 2.207576 7.322478 C 2.535589 7.291995  3.145455 6.96702  3.499648 6.64216  3.703602 6.455107  3.710958 6.135403  3.721612 5.878375  3.73474 5.561972  3.713533 5.397309  3.643295 5.120716  3.102778 5.169697  1.892867 5.509667  1.495818 5.769904 Z " />
    </g>
    <g style="fill:#FFFFFF;opacity:1;stroke:none" clip-path="url(#clip_7eb9d8cc-9d9c-4ee4-90a2-f11ad6957216)">
      <path d="M 8.007336 13.15943 C 8.430841 13.01114  8.812996 12.27161  9.038634 11.90615 L 7.616268 10.78461 C 7.473488 10.8548  7.205489 11.1528  7.089266 11.30395  6.903193 11.54594  6.935903 11.52624  7.167558 11.96945  7.400966 12.41602  7.654256 12.74181  8.007335 13.15942 Z " />
    </g>
    <g style="fill:#FFFFFF;opacity:1;stroke:none" clip-path="url(#clip_7eb9d8cc-9d9c-4ee4-90a2-f11ad6957216)">
      <path d="M 2.070461 10.48063 C 3.226593 11.28106  2.899863 11.13067  4.169035 11.57213 L 4.446599 10.13055 C 4.066161 10.08643  3.587208 10.15844  3.227657 10.2139  2.6297 10.30613  2.558619 10.36564  2.070461 10.48063 Z " />
    </g>
    <g style="fill:none;stroke:#000000;stroke-width:0.2;stroke-linejoin:round;stroke-linecap:round;stroke-opacity:1" clip-path="url(#clip_7eb9d8cc-9d9c-4ee4-90a2-f11ad6957216)">
      <path d="M 4.67033 4.292942 C 5.971807 5.1432  5.70145 4.930702  7.363223 5.437856 L 9.223932 3.603439  7.329128 2.201904 C 7.256065 2.263302  6.444313 2.682462  5.949008 3.058581  5.674591 3.266968  4.834143 3.96418  4.670331 4.292944 Z " />
    </g>
    <g style="fill:none;stroke:#000000;stroke-width:0.2;stroke-linejoin:round;stroke-linecap:round;stroke-opacity:1" clip-path="url(#clip_7eb9d8cc-9d9c-4ee4-90a2-f11ad6957216)">
      <path d="M 0.4168802 2.317642 L 3.041811 3.5941  4.040212 2.416258  2.119805 0.5367053 C 1.428442 0.8828926  0.8920121 1.521838  0.4168802 2.317642 Z " />
    </g>
    <g style="fill:none;stroke:#000000;stroke-width:0.2;stroke-linejoin:round;stroke-linecap:round;stroke-opacity:1" clip-path="url(#clip_7eb9d8cc-9d9c-4ee4-90a2-f11ad6957216)">
      <path d="M 11.05762 8.635511 C 11.19547 8.58599  11.37023 8.460512  11.50572 8.380119  12.72574 7.656224  12.66057 8.174124  11.76959 5.371536  11.34419 5.527482  10.32165 6.566584  10.33406 6.856008  10.33623 6.906739  11.01666 8.576605  11.05762 8.635511 Z " />
    </g>
    <g style="fill:none;stroke:#000000;stroke-width:0.2;stroke-linejoin:round;stroke-linecap:round;stroke-opacity:1" clip-path="url(#clip_7eb9d8cc-9d9c-4ee4-90a2-f11ad6957216)">
      <path d="M 13.9236 3.585404 L 15.5329 1.843089 C 14.47273 0.7530224  15.02109 1.202047  13.566 0.3051436  13.4601 1.040162  13.62953 3.142109  13.9236 3.585404 Z " />
    </g>
    <g style="fill:none;stroke:#000000;stroke-width:0.2;stroke-linejoin:round;stroke-linecap:round;stroke-opacity:1" clip-path="url(#clip_7eb9d8cc-9d9c-4ee4-90a2-f11ad6957216)">
      <path d="M 6.27829 9.498502 C 6.975378 9.500034  7.354553 9.40531  7.874694 9.186809  8.430675 8.953262  8.301965 8.131629  8.227979 7.611084  7.799013 7.563829  6.828537 7.804055  6.392097 7.902525  6.06869 7.975472  5.97087 7.882899  6.013027 8.601954  6.032541 8.934999  6.09258 9.258023  6.278291 9.498501 Z " />
    </g>
    <g style="fill:none;stroke:#000000;stroke-width:0.2;stroke-linejoin:round;stroke-linecap:round;stroke-opacity:1" clip-path="url(#clip_7eb9d8cc-9d9c-4ee4-90a2-f11ad6957216)">
      <path d="M 9.011524 0.8896697 C 9.216591 1.11148  9.445524 1.505286  9.689982 1.791342 L 10.57205 2.649572 C 10.7067 2.487773  10.92762 2.375761  11.12187 2.160734 L 11.61292 1.40515 C 11.38062 1.070147  10.76256 0.5622327  10.31633 0.4198182  10.04411 0.3329325  9.218843 0.6623769  9.011524 0.8896697 Z " />
    </g>
    <g style="fill:none;stroke:#000000;stroke-width:0.2;stroke-linejoin:round;stroke-linecap:round;stroke-opacity:1" clip-path="url(#clip_7eb9d8cc-9d9c-4ee4-90a2-f11ad6957216)">
      <path d="M 1.495818 5.769904 L 2.207576 7.322478 C 2.535589 7.291995  3.145455 6.96702  3.499648 6.64216  3.703602 6.455107  3.710958 6.135403  3.721612 5.878375  3.73474 5.561972  3.713533 5.397309  3.643295 5.120716  3.102778 5.169697  1.892867 5.509667  1.495818 5.769904 Z " />
    </g>
    <g style="fill:none;stroke:#000000;stroke-width:0.2;stroke-linejoin:round;stroke-linecap:round;stroke-opacity:1" clip-path="url(#clip_7eb9d8cc-9d9c-4ee4-90a2-f11ad6957216)">
      <path d="M 8.007336 13.15943 C 8.430841 13.01114  8.812996 12.27161  9.038634 11.90615 L 7.616268 10.78461 C 7.473488 10.8548  7.205489 11.1528  7.089266 11.30395  6.903193 11.54594  6.935903 11.52624  7.167558 11.96945  7.400966 12.41602  7.654256 12.74181  8.007335 13.15942 Z " />
    </g>
    <g style="fill:none;stroke:#000000;stroke-width:0.2;stroke-linejoin:round;stroke-linecap:round;stroke-opacity:1" clip-path="url(#clip_7eb9d8cc-9d9c-4ee4-90a2-f11ad6957216)">
      <path d="M 2.070461 10.48063 C 3.226593 11.28106  2.899863 11.13067  4.169035 11.57213 L 4.446599 10.13055 C 4.066161 10.08643  3.587208 10.15844  3.227657 10.2139  2.6297 10.30613  2.558619 10.36564  2.070461 10.48063 Z " />
    </g>
    <g style="fill:#FFFFFF;opacity:1;stroke:none" clip-path="url(#clip_7eb9d8cc-9d9c-4ee4-90a2-f11ad6957216)">
      <path d="M 12.84533 20.30458 C 14.32297 19.82152  13.98804 19.89942  15.42353 18.92061 L 15.1571 16.32132  12.87817 16.92219 C 12.88034 17.0176  12.6993 17.91307  12.68271 18.53477  12.67352 18.87922  12.6914 19.97107  12.84533 20.30458 Z " />
    </g>
    <g style="fill:#FFFFFF;opacity:1;stroke:none" clip-path="url(#clip_7eb9d8cc-9d9c-4ee4-90a2-f11ad6957216)">
      <path d="M 8.642849 22.38613 L 11.28113 21.13749  10.9872 19.62167  8.319398 19.94337 C 8.156775 20.69927  8.319458 21.51752  8.642849 22.38613 Z " />
    </g>
    <g style="fill:#FFFFFF;opacity:1;stroke:none" clip-path="url(#clip_7eb9d8cc-9d9c-4ee4-90a2-f11ad6957216)">
      <path d="M 0.5030438 25.62994 C 2.520808 25.04811  2.399659 25.13783  2.580289 22.84219  2.093701 22.45776  0.8791238 22.62471  0.2950585 22.67035  0.3128093 22.87185  0.2434981 23.54222  0.283947 24.10989  0.3161511 24.56205  0.3748527 25.17878  0.5030438 25.62994 Z " />
    </g>
    <g style="fill:#FFFFFF;opacity:1;stroke:none" clip-path="url(#clip_7eb9d8cc-9d9c-4ee4-90a2-f11ad6957216)">
      <path d="M 0.3853795 17.69351 L 1.353446 19.7573 C 1.914451 19.70387  1.843728 19.87302  2.354983 18.63641 L 2.899296 17.03014 C 2.471982 16.91915  2.025524 16.85262  1.497727 16.91697  0.483467 17.04061  0.8262604 17.10366  0.3853792 17.69351 Z " />
    </g>
    <g style="fill:#FFFFFF;opacity:1;stroke:none" clip-path="url(#clip_7eb9d8cc-9d9c-4ee4-90a2-f11ad6957216)">
      <path d="M 7.513546 25.15068 C 7.807902 25.9599  8.27457 26.30611  8.859239 26.857 L 10.28686 24.76344  9.382113 23.71721  7.513547 25.15069 Z " />
    </g>
    <g style="fill:#FFFFFF;opacity:1;stroke:none" clip-path="url(#clip_7eb9d8cc-9d9c-4ee4-90a2-f11ad6957216)">
      <path d="M 2.83786 30.73153 C 3.143974 31.09494  4.141446 31.38921  4.611464 31.4959  4.852497 31.5506  4.844757 31.49118  5.02533 31.29978 L 6.109937 30.16314 C 5.906575 29.96972  5.074172 29.3668  4.753234 29.23836  3.817961 29.67707  3.47026 30.15149  2.83786 30.73153 Z " />
    </g>
    <g style="fill:#FFFFFF;opacity:1;stroke:none" clip-path="url(#clip_7eb9d8cc-9d9c-4ee4-90a2-f11ad6957216)">
      <path d="M 20.22958 18.04006 C 20.27723 17.90155  20.28872 17.68671  20.31079 17.53073  20.50963 16.12611  20.87281 16.50104  18.12925 15.44217  17.98467 15.87157  18.15528 17.3194  18.38879 17.49084  18.42972 17.5209  20.15801 18.03514  20.22958 18.04006 Z " />
    </g>
    <g style="fill:#FFFFFF;opacity:1;stroke:none" clip-path="url(#clip_7eb9d8cc-9d9c-4ee4-90a2-f11ad6957216)">
      <path d="M 7.434845 30.9173 C 8.32745 30.61472  8.846554 30.03789  9.458714 29.43513 L 7.838284 27.65434 C 7.529708 28.09767  7.338307 30.17461  7.434844 30.9173 Z " />
    </g>
    <g style="fill:#FFFFFF;opacity:1;stroke:none" clip-path="url(#clip_7eb9d8cc-9d9c-4ee4-90a2-f11ad6957216)">
      <path d="M 18.08403 12.64432 L 17.73211 10.29876 C 16.21843 10.44353  16.91182 10.29681  15.30167 10.8705  15.80871 11.41306  17.55424 12.59628  18.08403 12.64432 Z " />
    </g>
    <g style="fill:#FFFFFF;opacity:1;stroke:none" clip-path="url(#clip_7eb9d8cc-9d9c-4ee4-90a2-f11ad6957216)">
      <path d="M 17.91187 22.30795 C 18.34929 21.76519  18.51269 21.41016  18.66776 20.86772  18.83352 20.28791  18.11211 19.87413  17.65979 19.60609  17.35449 19.91111  16.93455 20.8184  16.73824 21.22045  16.59275 21.51835  16.45933 21.53672  17.04657 21.95381  17.31855 22.14701  17.60808 22.30232  17.91187 22.30795 Z " />
    </g>
    <g style="fill:#FFFFFF;opacity:1;stroke:none" clip-path="url(#clip_7eb9d8cc-9d9c-4ee4-90a2-f11ad6957216)">
      <path d="M 7.568401 17.52925 L 8.890337 18.7835  10.55965 17.3331 C 10.40509 17.08078  10.2223 16.8718  10.02809 16.70004  9.719434 16.42705  9.726272 16.5199  9.295789 16.673  8.687895 16.8892  8.103457 17.19425  7.568403 17.52925 Z " />
    </g>
    <g style="fill:#FFFFFF;opacity:1;stroke:none" clip-path="url(#clip_7eb9d8cc-9d9c-4ee4-90a2-f11ad6957216)">
      <path d="M 13.31231 27.79133 C 13.01937 27.50372  11.57889 27.19814  11.1378 27.09181  10.84911 27.45619  10.72322 27.76685  10.63873 28.17193  10.58563 28.42652  10.58706 28.4429  10.92281 28.59965  11.03047 28.6499  11.36211 28.76908  11.47803 28.80309  12.4186 29.07901  12.6636 28.95994  13.04995 28.35232  13.17774 28.15136  13.21859 27.96511  13.31231 27.79132 Z " />
    </g>
    <g style="fill:#FFFFFF;opacity:1;stroke:none" clip-path="url(#clip_7eb9d8cc-9d9c-4ee4-90a2-f11ad6957216)">
      <path d="M 12.90746 14.78875 C 13.2088 14.76761  13.65923 14.83548  14.03533 14.82382 L 15.25673 14.67288 C 15.21479 14.4666  15.26567 14.22419  15.21951 13.93811 L 14.93745 13.08226 C 14.53078 13.05381  13.74784 13.21805  13.35751 13.47698  13.11939 13.63494  12.85991 14.48481  12.90746 14.78875 Z " />
    </g>
    <g style="fill:#FFFFFF;opacity:1;stroke:none" clip-path="url(#clip_7eb9d8cc-9d9c-4ee4-90a2-f11ad6957216)">
      <path d="M 12.01078 23.70494 L 13.66718 24.12136 C 13.84867 23.84644  13.97684 23.16738  13.9451 22.68782  13.92683 22.41168  13.68207 22.20587  13.48826 22.03672  13.24968 21.82848  13.10797 21.74198  12.84828 21.62367  12.54823 22.07592  12.05626 23.2324  12.01078 23.70494 Z " />
    </g>
    <g style="fill:#FFFFFF;opacity:1;stroke:none" clip-path="url(#clip_7eb9d8cc-9d9c-4ee4-90a2-f11ad6957216)">
      <path d="M 4.42611 22.48827 L 6.085702 24.04876 C 6.574738 23.77644  6.836787 23.20153  7.094583 22.7444  6.87168 22.40312  6.171421 22.04455  5.914335 21.94899  5.421971 21.76598  4.836023 22.166  4.42611 22.48827 Z " />
    </g>
    <g style="fill:#FFFFFF;opacity:1;stroke:none" clip-path="url(#clip_7eb9d8cc-9d9c-4ee4-90a2-f11ad6957216)">
      <path d="M 4.28167 15.1428 L 5.400368 16.39429 C 6.243396 15.65483  6.236482 15.59375  6.917429 14.74235  6.722158 14.51032  5.897969 14.17976  5.657521 14.20607  5.183154 14.25801  4.549734 14.85416  4.28167 15.1428 Z " />
    </g>
    <g style="fill:#FFFFFF;opacity:1;stroke:none" clip-path="url(#clip_7eb9d8cc-9d9c-4ee4-90a2-f11ad6957216)">
      <path d="M 21.84938 23.25027 C 21.99874 22.82715  21.66106 22.06627  21.51721 21.66158 L 19.75231 22.06917 C 19.71772 22.22447  19.78244 22.61999  19.82761 22.80523  19.89992 23.1018  19.90502 23.06396  20.39569 23.16062  20.89007 23.25802  21.30269 23.26433  21.84938 23.25027 Z " />
    </g>
    <g style="fill:#FFFFFF;opacity:1;stroke:none" clip-path="url(#clip_7eb9d8cc-9d9c-4ee4-90a2-f11ad6957216)">
      <path d="M 10.7039 15.08463 L 11.22449 13.25125 C 9.950432 13.07421  9.924174 12.96602  9.604801 13.94068  9.519024 14.20241  9.3635 14.72297  9.674683 14.88509  9.912616 15.00906  10.36523 15.14462  10.7039 15.08463 Z " />
    </g>
    <g style="fill:#FFFFFF;opacity:1;stroke:none" clip-path="url(#clip_7eb9d8cc-9d9c-4ee4-90a2-f11ad6957216)">
      <path d="M 6.931497 18.82459 L 5.138178 18.00158 C 4.996418 18.30508  4.890585 18.58959  4.877463 18.98479  4.86861 19.2514  4.971092 19.28516  5.161138 19.40585  5.400051 19.55758  6.323903 20.02867  6.553349 19.77314  6.767819 19.5343  6.950059 19.11905  6.931496 18.82459 Z " />
    </g>
    <g style="fill:#FFFFFF;opacity:1;stroke:none" clip-path="url(#clip_7eb9d8cc-9d9c-4ee4-90a2-f11ad6957216)">
      <path d="M 16.04472 26.20464 C 17.39254 25.80376  17.07078 25.9645  18.20934 25.25081 L 17.25861 24.13219 C 16.98613 24.40133  16.74257 24.81997  16.56083 25.13512  16.25857 25.65924  16.26051 25.75192  16.04472 26.20464 Z " />
    </g>
    <g style="fill:#FFFFFF;opacity:1;stroke:none" clip-path="url(#clip_7eb9d8cc-9d9c-4ee4-90a2-f11ad6957216)">
      <path d="M 5.601855 27.22866 L 5.667298 25.79403  3.357779 26.52467 C 3.829035 26.83282  5.197225 27.31194  5.601854 27.22865 Z " />
    </g>
    <g style="fill:none;stroke:#000000;stroke-width:0.2;stroke-linejoin:round;stroke-linecap:round;stroke-opacity:1" clip-path="url(#clip_7eb9d8cc-9d9c-4ee4-90a2-f11ad6957216)">
      <path d="M 12.84533 20.30458 C 14.32297 19.82152  13.98804 19.89942  15.42353 18.92061 L 15.1571 16.32132  12.87817 16.92219 C 12.88034 17.0176  12.6993 17.91307  12.68271 18.53477  12.67352 18.87922  12.6914 19.97107  12.84533 20.30458 Z " />
    </g>
    <g style="fill:none;stroke:#000000;stroke-width:0.2;stroke-linejoin:round;stroke-linecap:round;stroke-opacity:1" clip-path="url(#clip_7eb9d8cc-9d9c-4ee4-90a2-f11ad6957216)">
      <path d="M 8.642849 22.38613 L 11.28113 21.13749  10.9872 19.62167  8.319398 19.94337 C 8.156775 20.69927  8.319458 21.51752  8.642849 22.38613 Z " />
    </g>
    <g style="fill:none;stroke:#000000;stroke-width:0.2;stroke-linejoin:round;stroke-linecap:round;stroke-opacity:1" clip-path="url(#clip_7eb9d8cc-9d9c-4ee4-90a2-f11ad6957216)">
      <path d="M 0.5030438 25.62994 C 2.520808 25.04811  2.399659 25.13783  2.580289 22.84219  2.093701 22.45776  0.8791238 22.62471  0.2950585 22.67035  0.3128093 22.87185  0.2434981 23.54222  0.283947 24.10989  0.3161511 24.56205  0.3748527 25.17878  0.5030438 25.62994 Z " />
    </g>
    <g style="fill:none;stroke:#000000;stroke-width:0.2;stroke-linejoin:round;stroke-linecap:round;stroke-opacity:1" clip-path="url(#clip_7eb9d8cc-9d9c-4ee4-90a2-f11ad6957216)">
      <path d="M 0.3853795 17.69351 L 1.353446 19.7573 C 1.914451 19.70387  1.843728 19.87302  2.354983 18.63641 L 2.899296 17.03014 C 2.471982 16.91915  2.025524 16.85262  1.497727 16.91697  0.483467 17.04061  0.8262604 17.10366  0.3853792 17.69351 Z " />
    </g>
    <g style="fill:none;stroke:#000000;stroke-width:0.2;stroke-linejoin:round;stroke-linecap:round;stroke-opacity:1" clip-path="url(#clip_7eb9d8cc-9d9c-4ee4-90a2-f11ad6957216)">
      <path d="M 7.513546 25.15068 C 7.807902 25.9599  8.27457 26.30611  8.859239 26.857 L 10.28686 24.76344  9.382113 23.71721  7.513547 25.15069 Z " />
    </g>
    <g style="fill:none;stroke:#000000;stroke-width:0.2;stroke-linejoin:round;stroke-linecap:round;stroke-opacity:1" clip-path="url(#clip_7eb9d8cc-9d9c-4ee4-90a2-f11ad6957216)">
      <path d="M 2.83786 30.73153 C 3.143974 31.09494  4.141446 31.38921  4.611464 31.4959  4.852497 31.5506  4.844757 31.49118  5.02533 31.29978 L 6.109937 30.16314 C 5.906575 29.96972  5.074172 29.3668  4.753234 29.23836  3.817961 29.67707  3.47026 30.15149  2.83786 30.73153 Z " />
    </g>
    <g style="fill:none;stroke:#000000;stroke-width:0.2;stroke-linejoin:round;stroke-linecap:round;stroke-opacity:1" clip-path="url(#clip_7eb9d8cc-9d9c-4ee4-90a2-f11ad6957216)">
      <path d="M 20.22958 18.04006 C 20.27723 17.90155  20.28872 17.68671  20.31079 17.53073  20.50963 16.12611  20.87281 16.50104  18.12925 15.44217  17.98467 15.87157  18.15528 17.3194  18.38879 17.49084  18.42972 17.5209  20.15801 18.03514  20.22958 18.04006 Z " />
    </g>
    <g style="fill:none;stroke:#000000;stroke-width:0.2;stroke-linejoin:round;stroke-linecap:round;stroke-opacity:1" clip-path="url(#clip_7eb9d8cc-9d9c-4ee4-90a2-f11ad6957216)">
      <path d="M 7.434845 30.9173 C 8.32745 30.61472  8.846554 30.03789  9.458714 29.43513 L 7.838284 27.65434 C 7.529708 28.09767  7.338307 30.17461  7.434844 30.9173 Z " />
    </g>
    <g style="fill:none;stroke:#000000;stroke-width:0.2;stroke-linejoin:round;stroke-linecap:round;stroke-opacity:1" clip-path="url(#clip_7eb9d8cc-9d9c-4ee4-90a2-f11ad6957216)">
      <path d="M 18.08403 12.64432 L 17.73211 10.29876 C 16.21843 10.44353  16.91182 10.29681  15.30167 10.8705  15.80871 11.41306  17.55424 12.59628  18.08403 12.64432 Z " />
    </g>
    <g style="fill:none;stroke:#000000;stroke-width:0.2;stroke-linejoin:round;stroke-linecap:round;stroke-opacity:1" clip-path="url(#clip_7eb9d8cc-9d9c-4ee4-90a2-f11ad6957216)">
      <path d="M 17.91187 22.30795 C 18.34929 21.76519  18.51269 21.41016  18.66776 20.86772  18.83352 20.28791  18.11211 19.87413  17.65979 19.60609  17.35449 19.91111  16.93455 20.8184  16.73824 21.22045  16.59275 21.51835  16.45933 21.53672  17.04657 21.95381  17.31855 22.14701  17.60808 22.30232  17.91187 22.30795 Z " />
    </g>
    <g style="fill:none;stroke:#000000;stroke-width:0.2;stroke-linejoin:round;stroke-linecap:round;stroke-opacity:1" clip-path="url(#clip_7eb9d8cc-9d9c-4ee4-90a2-f11ad6957216)">
      <path d="M 7.568401 17.52925 L 8.890337 18.7835  10.55965 17.3331 C 10.40509 17.08078  10.2223 16.8718  10.02809 16.70004  9.719434 16.42705  9.726272 16.5199  9.295789 16.673  8.687895 16.8892  8.103457 17.19425  7.568403 17.52925 Z " />
    </g>
    <g style="fill:none;stroke:#000000;stroke-width:0.2;stroke-linejoin:round;stroke-linecap:round;stroke-opacity:1" clip-path="url(#clip_7eb9d8cc-9d9c-4ee4-90a2-f11ad6957216)">
      <path d="M 13.31231 27.79133 C 13.01937 27.50372  11.57889 27.19814  11.1378 27.09181  10.84911 27.45619  10.72322 27.76685  10.63873 28.17193  10.58563 28.42652  10.58706 28.4429  10.92281 28.59965  11.03047 28.6499  11.36211 28.76908  11.47803 28.80309  12.4186 29.07901  12.6636 28.95994  13.04995 28.35232  13.17774 28.15136  13.21859 27.96511  13.31231 27.79132 Z " />
    </g>
    <g style="fill:none;stroke:#000000;stroke-width:0.2;stroke-linejoin:round;stroke-linecap:round;stroke-opacity:1" clip-path="url(#clip_7eb9d8cc-9d9c-4ee4-90a2-f11ad6957216)">
      <path d="M 12.90746 14.78875 C 13.2088 14.76761  13.65923 14.83548  14.03533 14.82382 L 15.25673 14.67288 C 15.21479 14.4666  15.26567 14.22419  15.21951 13.93811 L 14.93745 13.08226 C 14.53078 13.05381  13.74784 13.21805  13.35751 13.47698  13.11939 13.63494  12.85991 14.48481  12.90746 14.78875 Z " />
    </g>
    <g style="fill:none;stroke:#000000;stroke-width:0.2;stroke-linejoin:round;stroke-linecap:round;stroke-opacity:1" clip-path="url(#clip_7eb9d8cc-9d9c-4ee4-90a2-f11ad6957216)">
      <path d="M 12.01078 23.70494 L 13.66718 24.12136 C 13.84867 23.84644  13.97684 23.16738  13.9451 22.68782  13.92683 22.41168  13.68207 22.20587  13.48826 22.03672  13.24968 21.82848  13.10797 21.74198  12.84828 21.62367  12.54823 22.07592  12.05626 23.2324  12.01078 23.70494 Z " />
    </g>
    <g style="fill:none;stroke:#000000;stroke-width:0.2;stroke-linejoin:round;stroke-linecap:round;stroke-opacity:1" clip-path="url(#clip_7eb9d8cc-9d9c-4ee4-90a2-f11ad6957216)">
      <path d="M 4.42611 22.48827 L 6.085702 24.04876 C 6.574738 23.77644  6.836787 23.20153  7.094583 22.7444  6.87168 22.40312  6.171421 22.04455  5.914335 21.94899  5.421971 21.76598  4.836023 22.166  4.42611 22.48827 Z " />
    </g>
    <g style="fill:none;stroke:#000000;stroke-width:0.2;stroke-linejoin:round;stroke-linecap:round;stroke-opacity:1" clip-path="url(#clip_7eb9d8cc-9d9c-4ee4-90a2-f11ad6957216)">
      <path d="M 4.28167 15.1428 L 5.400368 16.39429 C 6.243396 15.65483  6.236482 15.59375  6.917429 14.74235  6.722158 14.51032  5.897969 14.17976  5.657521 14.20607  5.183154 14.25801  4.549734 14.85416  4.28167 15.1428 Z " />
    </g>
    <g style="fill:none;stroke:#000000;stroke-width:0.2;stroke-linejoin:round;stroke-linecap:round;stroke-opacity:1" clip-path="url(#clip_7eb9d8cc-9d9c-4ee4-90a2-f11ad6957216)">
      <path d="M 21.84938 23.25027 C 21.99874 22.82715  21.66106 22.06627  21.51721 21.66158 L 19.75231 22.06917 C 19.71772 22.22447  19.78244 22.61999  19.82761 22.80523  19.89992 23.1018  19.90502 23.06396  20.39569 23.16062  20.89007 23.25802  21.30269 23.26433  21.84938 23.25027 Z " />
    </g>
    <g style="fill:none;stroke:#000000;stroke-width:0.2;stroke-linejoin:round;stroke-linecap:round;stroke-opacity:1" clip-path="url(#clip_7eb9d8cc-9d9c-4ee4-90a2-f11ad6957216)">
      <path d="M 10.7039 15.08463 L 11.22449 13.25125 C 9.950432 13.07421  9.924174 12.96602  9.604801 13.94068  9.519024 14.20241  9.3635 14.72297  9.674683 14.88509  9.912616 15.00906  10.36523 15.14462  10.7039 15.08463 Z " />
    </g>
    <g style="fill:none;stroke:#000000;stroke-width:0.2;stroke-linejoin:round;stroke-linecap:round;stroke-opacity:1" clip-path="url(#clip_7eb9d8cc-9d9c-4ee4-90a2-f11ad6957216)">
      <path d="M 6.931497 18.82459 L 5.138178 18.00158 C 4.996418 18.30508  4.890585 18.58959  4.877463 18.98479  4.86861 19.2514  4.971092 19.28516  5.161138 19.40585  5.400051 19.55758  6.323903 20.02867  6.553349 19.77314  6.767819 19.5343  6.950059 19.11905  6.931496 18.82459 Z " />
    </g>
    <g style="fill:none;stroke:#000000;stroke-width:0.2;stroke-linejoin:round;stroke-linecap:round;stroke-opacity:1" clip-path="url(#clip_7eb9d8cc-9d9c-4ee4-90a2-f11ad6957216)">
      <path d="M 16.04472 26.20464 C 17.39254 25.80376  17.07078 25.9645  18.20934 25.25081 L 17.25861 24.13219 C 16.98613 24.40133  16.74257 24.81997  16.56083 25.13512  16.25857 25.65924  16.26051 25.75192  16.04472 26.20464 Z " />
    </g>
    <g style="fill:none;stroke:#000000;stroke-width:0.2;stroke-linejoin:round;stroke-linecap:round;stroke-opacity:1" clip-path="url(#clip_7eb9d8cc-9d9c-4ee4-90a2-f11ad6957216)">
      <path d="M 5.601855 27.22866 L 5.667298 25.79403  3.357779 26.52467 C 3.829035 26.83282  5.197225 27.31194  5.601854 27.22865 Z " />
    </g>
    <g style="fill:#FFFFFF;opacity:1;stroke:none" clip-path="url(#clip_7eb9d8cc-9d9c-4ee4-90a2-f11ad6957216)">
      <path d="M 12.53757 27.74169 C 12.34706 29.83301  12.30746 29.68755  14.38084 30.68938  14.91572 30.37558  15.20115 29.18327  15.3707 28.6225  15.1765 28.56587  14.57705 28.25789  14.03343 28.08946  13.60044 27.95529  13.00448 27.78606  12.53757 27.74169 Z " />
    </g>
    <g style="fill:#FFFFFF;opacity:1;stroke:none" clip-path="url(#clip_7eb9d8cc-9d9c-4ee4-90a2-f11ad6957216)">
      <path d="M 6.93639 28.06484 C 6.486633 28.21811  5.850279 29.04067  5.580211 29.43987  5.441726 29.64459  5.499904 29.65896  5.612679 29.8967 L 6.277943 31.31999 C 6.531994 31.20073  7.396005 30.64405  7.632208 30.39165  7.563024 29.36091  7.247226 28.86469  6.93639 28.06484 Z " />
    </g>
    <g style="fill:none;stroke:#000000;stroke-width:0.2;stroke-linejoin:round;stroke-linecap:round;stroke-opacity:1" clip-path="url(#clip_7eb9d8cc-9d9c-4ee4-90a2-f11ad6957216)">
      <path d="M 12.53757 27.74169 C 12.34706 29.83301  12.30746 29.68755  14.38084 30.68938  14.91572 30.37558  15.20115 29.18327  15.3707 28.6225  15.1765 28.56587  14.57705 28.25789  14.03343 28.08946  13.60044 27.95529  13.00448 27.78606  12.53757 27.74169 Z " />
    </g>
    <g style="fill:none;stroke:#000000;stroke-width:0.2;stroke-linejoin:round;stroke-linecap:round;stroke-opacity:1" clip-path="url(#clip_7eb9d8cc-9d9c-4ee4-90a2-f11ad6957216)">
      <path d="M 6.93639 28.06484 C 6.486633 28.21811  5.850279 29.04067  5.580211 29.43987  5.441726 29.64459  5.499904 29.65896  5.612679 29.8967 L 6.277943 31.31999 C 6.531994 31.20073  7.396005 30.64405  7.632208 30.39165  7.563024 29.36091  7.247226 28.86469  6.93639 28.06484 Z " />
    </g>
    <g style="fill:#FFFFFF;opacity:1;stroke:none" clip-path="url(#clip_7eb9d8cc-9d9c-4ee4-90a2-f11ad6957216)">
      <path d="M 21.92276 13.78158 C 21.7124 15.32188  21.78851 14.98653  22.04257 16.7053 L 24.49748 17.60015  24.95159 15.2875 C 24.8648 15.2478  24.13817 14.69406  23.58605 14.40777  23.28016 14.24916  22.29 13.78866  21.92275 13.78158 Z " />
    </g>
    <g style="fill:#FFFFFF;opacity:1;stroke:none" clip-path="url(#clip_7eb9d8cc-9d9c-4ee4-90a2-f11ad6957216)">
      <path d="M 21.88429 9.091995 L 21.85613 12.0107  23.34823 12.40789  24.22325 9.867216 C 23.61415 9.390964  22.80694 9.180172  21.88429 9.091995 Z " />
    </g>
    <g style="fill:#FFFFFF;opacity:1;stroke:none" clip-path="url(#clip_7eb9d8cc-9d9c-4ee4-90a2-f11ad6957216)">
      <path d="M 22.51873 0.3526447 C 22.16148 2.422009  22.13364 2.273852  24.12021 3.438382  24.67847 3.168395  25.05841 2.002752  25.27229 1.457345  25.08325 1.38536  24.51037 1.030396  23.98197 0.8190052  23.5611 0.650618  22.9806 0.4342371  22.51873 0.3526447 Z " />
    </g>
    <g style="fill:#FFFFFF;opacity:1;stroke:none" clip-path="url(#clip_7eb9d8cc-9d9c-4ee4-90a2-f11ad6957216)">
      <path d="M 29.71058 3.710936 L 27.43122 3.681098 C 27.23442 4.209159  27.1131 4.071695  28.00253 5.071443 L 29.21012 6.262283 C 29.4965 5.926271  29.75123 5.553625  29.92372 5.050676  30.25519 4.084168  30.04883 4.365063  29.71058 3.710936 Z " />
    </g>
    <g style="fill:#FFFFFF;opacity:1;stroke:none" clip-path="url(#clip_7eb9d8cc-9d9c-4ee4-90a2-f11ad6957216)">
      <path d="M 19.88992 6.869256 C 19.03338 6.780878  18.5182 7.049629  17.76736 7.335205 L 19.02782 9.533468  20.36403 9.17612  19.88992 6.869256 Z " />
    </g>
    <g style="fill:#FFFFFF;opacity:1;stroke:none" clip-path="url(#clip_7eb9d8cc-9d9c-4ee4-90a2-f11ad6957216)">
      <path d="M 16.90966 0.2265232 C 16.44908 0.3433125  15.74894 1.112306  15.44779 1.488616  15.29337 1.681599  15.35021 1.700573  15.4436 1.94658 L 15.99283 3.418543 C 16.25561 3.319998  17.1614 2.834245  17.41704 2.601556  17.43056 1.568588  17.15549 1.048679  16.90966 0.2265232 Z " />
    </g>
    <g style="fill:#FFFFFF;opacity:1;stroke:none" clip-path="url(#clip_7eb9d8cc-9d9c-4ee4-90a2-f11ad6957216)">
      <path d="M 20.73703 21.4137 C 20.84086 21.51702  21.02913 21.62114  21.15984 21.70909  22.33679 22.50108  21.84095 22.66419  23.99115 20.65796  23.66792 20.34045  22.29082 19.86198  22.03465 19.99725  21.98975 20.02095  20.7727 21.35145  20.73703 21.4137 Z " />
    </g>
    <g style="fill:#FFFFFF;opacity:1;stroke:none" clip-path="url(#clip_7eb9d8cc-9d9c-4ee4-90a2-f11ad6957216)">
      <path d="M 14.736 4.281394 C 14.61861 5.216549  14.91102 5.935374  15.18612 6.749237 L 17.49561 6.068612 C 17.23143 5.597474  15.44634 4.518712  14.736 4.281394 Z " />
    </g>
    <g style="fill:#FFFFFF;opacity:1;stroke:none" clip-path="url(#clip_7eb9d8cc-9d9c-4ee4-90a2-f11ad6957216)">
      <path d="M 26.52815 21.8385 L 28.79208 22.54568 C 29.32253 21.12061  29.15188 21.80851  29.33854 20.10943  28.62907 20.32879  26.80261 21.3828  26.52815 21.8385 Z " />
    </g>
    <g style="fill:#FFFFFF;opacity:1;stroke:none" clip-path="url(#clip_7eb9d8cc-9d9c-4ee4-90a2-f11ad6957216)">
      <path d="M 17.90882 17.46555 C 18.20622 18.09602  18.45432 18.39799  18.87468 18.77428  19.32399 19.1765  20.01115 18.70804  20.44975 18.41808  20.30857 18.01026  19.67557 17.23642  19.39954 16.88431  19.19501 16.62338  19.23672 16.49532  18.60514 16.84161  18.3126 17.00199  18.04649 17.19469  17.90882 17.46555 Z " />
    </g>
    <g style="fill:#FFFFFF;opacity:1;stroke:none" clip-path="url(#clip_7eb9d8cc-9d9c-4ee4-90a2-f11ad6957216)">
      <path d="M 26.72306 10.24527 L 25.0176 10.88717  25.5939 13.02214 C 25.88838 12.99322  26.15619 12.91998  26.39549 12.82022  26.77582 12.66167  26.6893 12.6273  26.73946 12.17316  26.81028 11.53187  26.79092 10.87289  26.72306 10.24527 Z " />
    </g>
    <g style="fill:#FFFFFF;opacity:1;stroke:none" clip-path="url(#clip_7eb9d8cc-9d9c-4ee4-90a2-f11ad6957216)">
      <path d="M 14.98302 10.93386 C 15.36965 10.79583  16.27333 9.633203  16.56153 9.282752  16.3597 8.863975  16.13515 8.61511  15.80758 8.362281  15.60169 8.203381  15.58634 8.197515  15.29876 8.431178  15.20654 8.506106  14.95456 8.752465  14.87337 8.841914  14.21458 9.567717  14.21477 9.840119  14.5928 10.45294  14.71783 10.65563  14.86758 10.77368  14.98302 10.93386 Z " />
    </g>
    <g style="fill:#FFFFFF;opacity:1;stroke:none" clip-path="url(#clip_7eb9d8cc-9d9c-4ee4-90a2-f11ad6957216)">
      <path d="M 26.85829 16.24507 C 26.74578 16.52542  26.48811 16.90105  26.33444 17.24452 L 25.93711 18.40931 C 26.14101 18.46162  26.3369 18.6132  26.61444 18.69654 L 27.50757 18.81634 C 27.71067 18.46287  27.90465 17.68675  27.84206 17.22255  27.80388 16.93937  27.1525 16.33496  26.85829 16.24507 Z " />
    </g>
    <g style="fill:#FFFFFF;opacity:1;stroke:none" clip-path="url(#clip_7eb9d8cc-9d9c-4ee4-90a2-f11ad6957216)">
      <path d="M 19.22768 11.54651 L 18.13003 12.85504 C 18.29816 13.13832  18.85318 13.55004  19.2985 13.7308  19.55491 13.8349  19.84692 13.70451  20.0837 13.60397  20.37519 13.48022  20.51487 13.39048  20.73467 13.20847  20.45874 12.74111  19.63299 11.79369  19.22768 11.54651 Z " />
    </g>
    <g style="fill:#FFFFFF;opacity:1;stroke:none" clip-path="url(#clip_7eb9d8cc-9d9c-4ee4-90a2-f11ad6957216)">
      <path d="M 23.63295 5.253568 L 21.50457 6.065586 C 21.53613 6.624444  21.93899 7.11115  22.23775 7.542621  22.6421 7.491041  23.27036 7.01752  23.46856 6.82793  23.84813 6.464827  23.74398 5.763036  23.63295 5.253567 Z " />
    </g>
    <g style="fill:#FFFFFF;opacity:1;stroke:none" clip-path="url(#clip_7eb9d8cc-9d9c-4ee4-90a2-f11ad6957216)">
      <path d="M 30.3048 8.329821 L 28.69052 8.790062 C 28.98785 9.87131  29.04582 9.891751  29.51461 10.87603  29.8086 10.80162  30.46576 10.20438  30.54704 9.976557  30.70736 9.527093  30.44748 8.696988  30.3048 8.329822 Z " />
    </g>
    <g style="fill:#FFFFFF;opacity:1;stroke:none" clip-path="url(#clip_7eb9d8cc-9d9c-4ee4-90a2-f11ad6957216)">
      <path d="M 15.34233 20.59686 C 15.65782 20.91593  16.48978 20.94423  16.91668 20.99144 L 17.32032 19.22565 C 17.1957 19.12673  16.81159 19.01233  16.62522 18.97211  16.32683 18.90772  16.35865 18.92882  16.05751 19.32809  15.75409 19.73038  15.5683 20.09886  15.34233 20.59686 Z " />
    </g>
    <g style="fill:#FFFFFF;opacity:1;stroke:none" clip-path="url(#clip_7eb9d8cc-9d9c-4ee4-90a2-f11ad6957216)">
      <path d="M 27.55391 14.13335 L 28.97619 15.40199 C 29.69158 14.33297  29.80039 14.35658  29.06288 13.64381  28.86484 13.45239  28.46437 13.08525  28.18268 13.29446  27.96729 13.45442  27.64776 13.80246  27.55391 14.13335 Z " />
    </g>
    <g style="fill:#FFFFFF;opacity:1;stroke:none" clip-path="url(#clip_7eb9d8cc-9d9c-4ee4-90a2-f11ad6957216)">
      <path d="M 25.83563 9.106841 L 27.35886 7.852607 C 27.14768 7.592588  26.9379 7.373188  26.58806 7.188881  26.35206 7.064545  26.27695 7.142013  26.08541 7.260319  25.84461 7.409041  25.01752 8.034616  25.14727 8.352589  25.26854 8.649797  25.56261 8.995016  25.83563 9.106839 Z " />
    </g>
    <g style="fill:#FFFFFF;opacity:1;stroke:none" clip-path="url(#clip_7eb9d8cc-9d9c-4ee4-90a2-f11ad6957216)">
      <path d="M 15.21792 14.0848 C 14.99029 15.47243  14.98612 15.11277  15.13125 16.44867 L 16.55267 16.08155 C 16.42946 15.71893  16.15912 15.31706  15.9549 15.01598  15.61528 14.51527  15.53104 14.47656  15.21792 14.0848 Z " />
    </g>
    <g style="fill:#FFFFFF;opacity:1;stroke:none" clip-path="url(#clip_7eb9d8cc-9d9c-4ee4-90a2-f11ad6957216)">
      <path d="M 18.85478 4.242279 L 20.11696 4.927354  20.46767 2.53054 C 19.98473 2.820031  18.95646 3.841875  18.85478 4.242279 Z " />
    </g>
    <g style="fill:none;stroke:#000000;stroke-width:0.2;stroke-linejoin:round;stroke-linecap:round;stroke-opacity:1" clip-path="url(#clip_7eb9d8cc-9d9c-4ee4-90a2-f11ad6957216)">
      <path d="M 21.92276 13.78158 C 21.7124 15.32188  21.78851 14.98653  22.04257 16.7053 L 24.49748 17.60015  24.95159 15.2875 C 24.8648 15.2478  24.13817 14.69406  23.58605 14.40777  23.28016 14.24916  22.29 13.78866  21.92275 13.78158 Z " />
    </g>
    <g style="fill:none;stroke:#000000;stroke-width:0.2;stroke-linejoin:round;stroke-linecap:round;stroke-opacity:1" clip-path="url(#clip_7eb9d8cc-9d9c-4ee4-90a2-f11ad6957216)">
      <path d="M 21.88429 9.091995 L 21.85613 12.0107  23.34823 12.40789  24.22325 9.867216 C 23.61415 9.390964  22.80694 9.180172  21.88429 9.091995 Z " />
    </g>
    <g style="fill:none;stroke:#000000;stroke-width:0.2;stroke-linejoin:round;stroke-linecap:round;stroke-opacity:1" clip-path="url(#clip_7eb9d8cc-9d9c-4ee4-90a2-f11ad6957216)">
      <path d="M 22.51873 0.3526447 C 22.16148 2.422009  22.13364 2.273852  24.12021 3.438382  24.67847 3.168395  25.05841 2.002752  25.27229 1.457345  25.08325 1.38536  24.51037 1.030396  23.98197 0.8190052  23.5611 0.650618  22.9806 0.4342371  22.51873 0.3526447 Z " />
    </g>
    <g style="fill:none;stroke:#000000;stroke-width:0.2;stroke-linejoin:round;stroke-linecap:round;stroke-opacity:1" clip-path="url(#clip_7eb9d8cc-9d9c-4ee4-90a2-f11ad6957216)">
      <path d="M 29.71058 3.710936 L 27.43122 3.681098 C 27.23442 4.209159  27.1131 4.071695  28.00253 5.071443 L 29.21012 6.262283 C 29.4965 5.926271  29.75123 5.553625  29.92372 5.050676  30.25519 4.084168  30.04883 4.365063  29.71058 3.710936 Z " />
    </g>
    <g style="fill:none;stroke:#000000;stroke-width:0.2;stroke-linejoin:round;stroke-linecap:round;stroke-opacity:1" clip-path="url(#clip_7eb9d8cc-9d9c-4ee4-90a2-f11ad6957216)">
      <path d="M 19.88992 6.869256 C 19.03338 6.780878  18.5182 7.049629  17.76736 7.335205 L 19.02782 9.533468  20.36403 9.17612  19.88992 6.869256 Z " />
    </g>
    <g style="fill:none;stroke:#000000;stroke-width:0.2;stroke-linejoin:round;stroke-linecap:round;stroke-opacity:1" clip-path="url(#clip_7eb9d8cc-9d9c-4ee4-90a2-f11ad6957216)">
      <path d="M 16.90966 0.2265232 C 16.44908 0.3433125  15.74894 1.112306  15.44779 1.488616  15.29337 1.681599  15.35021 1.700573  15.4436 1.94658 L 15.99283 3.418543 C 16.25561 3.319998  17.1614 2.834245  17.41704 2.601556  17.43056 1.568588  17.15549 1.048679  16.90966 0.2265232 Z " />
    </g>
    <g style="fill:none;stroke:#000000;stroke-width:0.2;stroke-linejoin:round;stroke-linecap:round;stroke-opacity:1" clip-path="url(#clip_7eb9d8cc-9d9c-4ee4-90a2-f11ad6957216)">
      <path d="M 20.73703 21.4137 C 20.84086 21.51702  21.02913 21.62114  21.15984 21.70909  22.33679 22.50108  21.84095 22.66419  23.99115 20.65796  23.66792 20.34045  22.29082 19.86198  22.03465 19.99725  21.98975 20.02095  20.7727 21.35145  20.73703 21.4137 Z " />
    </g>
    <g style="fill:none;stroke:#000000;stroke-width:0.2;stroke-linejoin:round;stroke-linecap:round;stroke-opacity:1" clip-path="url(#clip_7eb9d8cc-9d9c-4ee4-90a2-f11ad6957216)">
      <path d="M 14.736 4.281394 C 14.61861 5.216549  14.91102 5.935374  15.18612 6.749237 L 17.49561 6.068612 C 17.23143 5.597474  15.44634 4.518712  14.736 4.281394 Z " />
    </g>
    <g style="fill:none;stroke:#000000;stroke-width:0.2;stroke-linejoin:round;stroke-linecap:round;stroke-opacity:1" clip-path="url(#clip_7eb9d8cc-9d9c-4ee4-90a2-f11ad6957216)">
      <path d="M 26.52815 21.8385 L 28.79208 22.54568 C 29.32253 21.12061  29.15188 21.80851  29.33854 20.10943  28.62907 20.32879  26.80261 21.3828  26.52815 21.8385 Z " />
    </g>
    <g style="fill:none;stroke:#000000;stroke-width:0.2;stroke-linejoin:round;stroke-linecap:round;stroke-opacity:1" clip-path="url(#clip_7eb9d8cc-9d9c-4ee4-90a2-f11ad6957216)">
      <path d="M 17.90882 17.46555 C 18.20622 18.09602  18.45432 18.39799  18.87468 18.77428  19.32399 19.1765  20.01115 18.70804  20.44975 18.41808  20.30857 18.01026  19.67557 17.23642  19.39954 16.88431  19.19501 16.62338  19.23672 16.49532  18.60514 16.84161  18.3126 17.00199  18.04649 17.19469  17.90882 17.46555 Z " />
    </g>
    <g style="fill:none;stroke:#000000;stroke-width:0.2;stroke-linejoin:round;stroke-linecap:round;stroke-opacity:1" clip-path="url(#clip_7eb9d8cc-9d9c-4ee4-90a2-f11ad6957216)">
      <path d="M 26.72306 10.24527 L 25.0176 10.88717  25.5939 13.02214 C 25.88838 12.99322  26.15619 12.91998  26.39549 12.82022  26.77582 12.66167  26.6893 12.6273  26.73946 12.17316  26.81028 11.53187  26.79092 10.87289  26.72306 10.24527 Z " />
    </g>
    <g style="fill:none;stroke:#000000;stroke-width:0.2;stroke-linejoin:round;stroke-linecap:round;stroke-opacity:1" clip-path="url(#clip_7eb9d8cc-9d9c-4ee4-90a2-f11ad6957216)">
      <path d="M 14.98302 10.93386 C 15.36965 10.79583  16.27333 9.633203  16.56153 9.282752  16.3597 8.863975  16.13515 8.61511  15.80758 8.362281  15.60169 8.203381  15.58634 8.197515  15.29876 8.431178  15.20654 8.506106  14.95456 8.752465  14.87337 8.841914  14.21458 9.567717  14.21477 9.840119  14.5928 10.45294  14.71783 10.65563  14.86758 10.77368  14.98302 10.93386 Z " />
    </g>
    <g style="fill:none;stroke:#000000;stroke-width:0.2;stroke-linejoin:round;stroke-linecap:round;stroke-opacity:1" clip-path="url(#clip_7eb9d8cc-9d9c-4ee4-90a2-f11ad6957216)">
      <path d="M 26.85829 16.24507 C 26.74578 16.52542  26.48811 16.90105  26.33444 17.24452 L 25.93711 18.40931 C 26.14101 18.46162  26.3369 18.6132  26.61444 18.69654 L 27.50757 18.81634 C 27.71067 18.46287  27.90465 17.68675  27.84206 17.22255  27.80388 16.93937  27.1525 16.33496  26.85829 16.24507 Z " />
    </g>
    <g style="fill:none;stroke:#000000;stroke-width:0.2;stroke-linejoin:round;stroke-linecap:round;stroke-opacity:1" clip-path="url(#clip_7eb9d8cc-9d9c-4ee4-90a2-f11ad6957216)">
      <path d="M 19.22768 11.54651 L 18.13003 12.85504 C 18.29816 13.13832  18.85318 13.55004  19.2985 13.7308  19.55491 13.8349  19.84692 13.70451  20.0837 13.60397  20.37519 13.48022  20.51487 13.39048  20.73467 13.20847  20.45874 12.74111  19.63299 11.79369  19.22768 11.54651 Z " />
    </g>
    <g style="fill:none;stroke:#000000;stroke-width:0.2;stroke-linejoin:round;stroke-linecap:round;stroke-opacity:1" clip-path="url(#clip_7eb9d8cc-9d9c-4ee4-90a2-f11ad6957216)">
      <path d="M 23.63295 5.253568 L 21.50457 6.065586 C 21.53613 6.624444  21.93899 7.11115  22.23775 7.542621  22.6421 7.491041  23.27036 7.01752  23.46856 6.82793  23.84813 6.464827  23.74398 5.763036  23.63295 5.253567 Z " />
    </g>
    <g style="fill:none;stroke:#000000;stroke-width:0.2;stroke-linejoin:round;stroke-linecap:round;stroke-opacity:1" clip-path="url(#clip_7eb9d8cc-9d9c-4ee4-90a2-f11ad6957216)">
      <path d="M 30.3048 8.329821 L 28.69052 8.790062 C 28.98785 9.87131  29.04582 9.891751  29.51461 10.87603  29.8086 10.80162  30.46576 10.20438  30.54704 9.976557  30.70736 9.527093  30.44748 8.696988  30.3048 8.329822 Z " />
    </g>
    <g style="fill:none;stroke:#000000;stroke-width:0.2;stroke-linejoin:round;stroke-linecap:round;stroke-opacity:1" clip-path="url(#clip_7eb9d8cc-9d9c-4ee4-90a2-f11ad6957216)">
      <path d="M 15.34233 20.59686 C 15.65782 20.91593  16.48978 20.94423  16.91668 20.99144 L 17.32032 19.22565 C 17.1957 19.12673  16.81159 19.01233  16.62522 18.97211  16.32683 18.90772  16.35865 18.92882  16.05751 19.32809  15.75409 19.73038  15.5683 20.09886  15.34233 20.59686 Z " />
    </g>
    <g style="fill:none;stroke:#000000;stroke-width:0.2;stroke-linejoin:round;stroke-linecap:round;stroke-opacity:1" clip-path="url(#clip_7eb9d8cc-9d9c-4ee4-90a2-f11ad6957216)">
      <path d="M 27.55391 14.13335 L 28.97619 15.40199 C 29.69158 14.33297  29.80039 14.35658  29.06288 13.64381  28.86484 13.45239  28.46437 13.08525  28.18268 13.29446  27.96729 13.45442  27.64776 13.80246  27.55391 14.13335 Z " />
    </g>
    <g style="fill:none;stroke:#000000;stroke-width:0.2;stroke-linejoin:round;stroke-linecap:round;stroke-opacity:1" clip-path="url(#clip_7eb9d8cc-9d9c-4ee4-90a2-f11ad6957216)">
      <path d="M 25.83563 9.106841 L 27.35886 7.852607 C 27.14768 7.592588  26.9379 7.373188  26.58806 7.188881  26.35206 7.064545  26.27695 7.142013  26.08541 7.260319  25.84461 7.409041  25.01752 8.034616  25.14727 8.352589  25.26854 8.649797  25.56261 8.995016  25.83563 9.106839 Z " />
    </g>
    <g style="fill:none;stroke:#000000;stroke-width:0.2;stroke-linejoin:round;stroke-linecap:round;stroke-opacity:1" clip-path="url(#clip_7eb9d8cc-9d9c-4ee4-90a2-f11ad6957216)">
      <path d="M 15.21792 14.0848 C 14.99029 15.47243  14.98612 15.11277  15.13125 16.44867 L 16.55267 16.08155 C 16.42946 15.71893  16.15912 15.31706  15.9549 15.01598  15.61528 14.51527  15.53104 14.47656  15.21792 14.0848 Z " />
    </g>
    <g style="fill:none;stroke:#000000;stroke-width:0.2;stroke-linejoin:round;stroke-linecap:round;stroke-opacity:1" clip-path="url(#clip_7eb9d8cc-9d9c-4ee4-90a2-f11ad6957216)">
      <path d="M 18.85478 4.242279 L 20.11696 4.927354  20.46767 2.53054 C 19.98473 2.820031  18.95646 3.841875  18.85478 4.242279 Z " />
    </g>
    <g style="fill:#FFFFFF;opacity:1;stroke:none" clip-path="url(#clip_7eb9d8cc-9d9c-4ee4-90a2-f11ad6957216)">
      <path d="M 27.07576 27.15749 L 28.20588 29.13719 C 28.76081 29.03904  28.70385 29.21331  29.1145 27.93975 L 29.52853 26.29507 C 29.0937 26.21864  28.64335 26.18805  28.1224 26.29443  27.12128 26.49884  27.46802 26.53425  27.07576 27.15749 Z " />
    </g>
    <g style="fill:none;stroke:#000000;stroke-width:0.2;stroke-linejoin:round;stroke-linecap:round;stroke-opacity:1" clip-path="url(#clip_7eb9d8cc-9d9c-4ee4-90a2-f11ad6957216)">
      <path d="M 27.07576 27.15749 L 28.20588 29.13719 C 28.76081 29.03904  28.70385 29.21331  29.1145 27.93975 L 29.52853 26.29507 C 29.0937 26.21864  28.64335 26.18805  28.1224 26.29443  27.12128 26.49884  27.46802 26.53425  27.07576 27.15749 Z " />
    </g>
  </g>
  <rect x="0" y="0" width="32" height="32" style="fill:none;stroke:#000000;stroke-width:1;stroke-linejoin:round;stroke-linecap:round;stroke-opacity:1" />
</svg>