<?xml version="1.0" encoding="UTF-8"?>
<!DOCTYPE svg PUBLIC "-//W3C//DTD SVG 1.1//EN" "http://www.w3.org/Graphics/SVG/1.1/DTD/svg11.dtd">
<!-- Creator: CorelDRAW -->
<svg xmlns="http://www.w3.org/2000/svg" xml:space="preserve" width="210mm" height="297mm" style="shape-rendering:geometricPrecision; text-rendering:geometricPrecision; image-rendering:optimizeQuality; fill-rule:evenodd; clip-rule:evenodd"
viewBox="0 0 210 297"
 xmlns:xlink="http://www.w3.org/1999/xlink">
 <defs>
  <style type="text/css">
   <![CDATA[
    .str0 {stroke:#1F1A17;stroke-width:0.2}
    .fil0 {fill:white}
   ]]>
  </style>
 </defs>
 <g id="Livello_x0020_1">
  <metadata id="CorelCorpID_0Corel-Layer"/>
  <path class="fil0 str0" d="M65.3508 122.911l50.0568 0c-1.0553,-2.3694 -6.0317,-10.8414 -8.4392,-11.5292 -0.4927,-3.449 -5.2036,-9.959 -6.7488,-14.9036 -1.0094,-3.2303 -2.5308,-12.543 -2.5308,-15.466 -1.2623,-0.4207 -0.0176,-13.9477 -0.8436,-16.5908 -2.2564,-7.2207 0,-15.9041 0,-23.3396 0,-4.8806 -1.0907,-7.4959 -5.3428,-9.842 -6.6439,-3.6657 -11.239,3.9338 -13.7788,4.7804 0,5.0193 0.5624,10.8751 0.5624,16.0284 0,2.744 0.0805,21.9336 -2.2496,21.9336 0,7.8721 -0.2811,16.3013 -0.8436,24.1832 -0.5026,7.0419 -7.3112,14.1403 -7.3112,20.5276 -0.5204,0.1734 -2.1219,2.6077 -2.5308,4.218z"/>
 </g>
</svg>
