<?xml version="1.0" encoding="UTF-8"?>
<!DOCTYPE svg PUBLIC "-//W3C//DTD SVG 1.1//EN" "http://www.w3.org/Graphics/SVG/1.1/DTD/svg11.dtd">
<!-- Creator: CorelDRAW -->
<svg xmlns="http://www.w3.org/2000/svg" xml:space="preserve" width="210mm" height="297mm" style="shape-rendering:geometricPrecision; text-rendering:geometricPrecision; image-rendering:optimizeQuality; fill-rule:evenodd; clip-rule:evenodd"
viewBox="0 0 210 297"
 xmlns:xlink="http://www.w3.org/1999/xlink">
 <defs>
  <style type="text/css">
   <![CDATA[
    .str0 {stroke:#1F1A17;stroke-width:0.2}
    .fil0 {fill:none}
   ]]>
  </style>
 </defs>
 <g id="Livello_x0020_1">
  <metadata id="CorelCorpID_0Corel-Layer"/>
  <path class="fil0 str0" d="M106.125 31.2396l-49.4912 0c1.3423,2.2108 2.7975,4.0563 3.9368,6.1864 0.7443,1.3918 3.7916,0.5291 4.4992,1.6872 2.3912,3.913 2.9352,9.728 4.4992,14.06 2.67,7.395 4.2538,13.921 6.1864,21.6524 0.983,3.9329 -1.7244,21.09 3.0932,21.09 0,-1.9882 3.7574,-9.2076 4.7804,-11.5292 3.6034,-8.1767 2.2496,-23.236 2.2496,-32.6192 2.4505,0 3.4119,-2.2496 5.624,-2.2496 2.269,0 4.6656,0.2812 6.7488,0.2812 0,1.4086 1.3147,4.4764 2.5308,4.7804 0,-1.5928 0.9027,-4.106 1.9684,-5.0616 2.3054,-2.067 2.812,-4.3931 2.812,-7.8736 0,-1.3076 -1.8975,-8.7291 0.5624,-10.4044z"/>
 </g>
</svg>
