<?xml version="1.0" encoding="UTF-8"?>
<!DOCTYPE svg PUBLIC "-//W3C//DTD SVG 1.1//EN" "http://www.w3.org/Graphics/SVG/1.1/DTD/svg11.dtd">
<!-- Creator: CorelDRAW -->
<svg xmlns="http://www.w3.org/2000/svg" xml:space="preserve" width="210mm" height="297mm" style="shape-rendering:geometricPrecision; text-rendering:geometricPrecision; image-rendering:optimizeQuality; fill-rule:evenodd; clip-rule:evenodd"
viewBox="0 0 210 297"
 xmlns:xlink="http://www.w3.org/1999/xlink">
 <defs>
  <style type="text/css">
   <![CDATA[
    .str0 {stroke:#1F1A17;stroke-width:0.2}
    .fil0 {fill:white}
   ]]>
  </style>
 </defs>
 <g id="Livello_x0020_1">
  <metadata id="CorelCorpID_0Corel-Layer"/>
  <path class="fil0 str0" d="M72.375 93.9375c-6.127,4.4246 -10.1832,12.903 -13.5,20.8125 -2.7116,6.4665 -7.8212,25.5858 -3.9375,32.625 2.0717,3.7549 3.8711,8.7391 6.1875,12.9375 1.928,3.4946 7.3482,7.9815 8.4375,11.25 5.2485,1.3119 11.9705,6.1946 17.4375,8.4375 9.0076,3.6954 19.3279,2.195 29.25,4.5 9.1889,2.1346 15.3189,-0.4332 23.625,-1.125 6.4479,-0.5371 9.828,-6.6274 14.625,-7.3125 1.0632,-2.8354 5.1131,-4.8532 5.625,-8.4375 1.8311,-0.3051 3.0869,-2.4825 3.375,-4.5 10.7093,-3.5697 6.0523,-57.6274 -6.75,-60.1875 -0.7319,-2.1961 -13.843,-5.8003 -21.9375,-12.9375 -8.0945,-7.1372 -56.3105,-0.4871 -62.4375,3.9375z"/>
 </g>
</svg>
