<?xml version="1.0" encoding="UTF-8"?>
<!DOCTYPE svg PUBLIC "-//W3C//DTD SVG 1.1//EN" "http://www.w3.org/Graphics/SVG/1.1/DTD/svg11.dtd">
<!-- Creator: CorelDRAW -->
<svg xmlns="http://www.w3.org/2000/svg" xml:space="preserve" width="210mm" height="297mm" style="shape-rendering:geometricPrecision; text-rendering:geometricPrecision; image-rendering:optimizeQuality; fill-rule:evenodd; clip-rule:evenodd"
viewBox="0 0 210 297"
 xmlns:xlink="http://www.w3.org/1999/xlink">
 <defs>
  <style type="text/css">
   <![CDATA[
    .str0 {stroke:#1F1A17;stroke-width:0.2}
    .fil0 {fill:white}
   ]]>
  </style>
 </defs>
 <g id="Livello_x0020_1">
  <metadata id="CorelCorpID_0Corel-Layer"/>
  <path class="fil0 str0" d="M125.957 117.856c-3.0535,0.9222 -5.8613,3.9337 -8.2955,6.8188 -1.9902,2.3588 -6.7227,9.8037 -6.1819,13.4783 0.2885,1.9601 0.295,4.408 0.6176,6.5996 0.2685,1.8242 1.7794,4.6433 1.7478,6.2339 1.8928,1.4175 3.8633,4.6186 5.7107,6.4744 3.044,3.0575 7.3439,4.0795 10.9471,6.6836 3.3368,2.4115 6.1285,2.2932 9.5162,3.3389 2.6298,0.8117 4.8314,-1.276 6.8283,-0.7956 0.8228,-1.0546 2.7127,-1.2719 3.4233,-2.7398 0.7684,0.1645 1.5743,-0.5742 1.9742,-1.4005 4.7472,0.1897 10.5618,-23.9536 5.8542,-27.1344 0.0212,-1.0687 -4.6608,-4.7513 -6.8555,-9.1501 -2.1946,-4.3988 -22.233,-9.3293 -25.2865,-8.4071z"/>
  <path class="fil0 str0" d="M84.0618 86.0498c-1.7555,0.5302 -3.3696,2.2615 -4.7691,3.9201 -1.1441,1.356 -3.8648,5.6361 -3.5539,7.7486 0.1659,1.1268 0.1696,2.5341 0.3551,3.7941 0.1543,1.0487 1.0229,2.6694 1.0047,3.5838 1.0882,0.8149 2.221,2.6552 3.2831,3.7221 1.75,1.7577 4.222,2.3453 6.2934,3.8423 1.9184,1.3864 3.5233,1.3184 5.4708,1.9196 1.5119,0.4666 2.7776,-0.7336 3.9256,-0.4574 0.473,-0.6063 1.5595,-0.7312 1.968,-1.5751 0.4418,0.0946 0.9051,-0.3301 1.135,-0.8051 2.7291,0.109 6.0719,-13.7708 3.3655,-15.5995 0.0122,-0.6144 -2.6795,-2.7314 -3.9411,-5.2603 -1.2617,-2.5289 -12.7817,-5.3634 -14.5371,-4.8332z"/>
 </g>
</svg>
