<?xml version="1.0" encoding="UTF-8"?>
<!DOCTYPE svg PUBLIC "-//W3C//DTD SVG 1.1//EN" "http://www.w3.org/Graphics/SVG/1.1/DTD/svg11.dtd">
<!-- Creator: CorelDRAW -->
<svg xmlns="http://www.w3.org/2000/svg" xml:space="preserve" width="210mm" height="297mm" style="shape-rendering:geometricPrecision; text-rendering:geometricPrecision; image-rendering:optimizeQuality; fill-rule:evenodd; clip-rule:evenodd"
viewBox="0 0 210 297"
 xmlns:xlink="http://www.w3.org/1999/xlink"
 xmlns:dc="http://purl.org/dc/elements/1.1/"
 xmlns:cc="http://creativecommons.org/ns#"
 xmlns:rdf="http://www.w3.org/1999/02/22-rdf-syntax-ns#"
 xmlns:svg="http://www.w3.org/2000/svg"
 xmlns:sodipodi="http://sodipodi.sourceforge.net/DTD/sodipodi-0.dtd"
 xmlns:inkscape="http://www.inkscape.org/namespaces/inkscape"
 version="1.1"
 inkscape:version="0.47 r22583"
 sodipodi:docname="sand.svg">
 <defs>
  <style type="text/css">
   <![CDATA[
    .str0 {stroke:black;stroke-width:0.0104}
    .fil0 {fill:black}
   ]]>
  </style>
 </defs>
 <g id="Livello_x0020_1">
  <metadata id="CorelCorpID_0Corel-Layer"/>
  <sodipodi:namedview id="base" pagecolor="#ffffff" bordercolor="#666666" borderopacity="1.0" inkscape:pageopacity="0.0" inkscape:pageshadow="2" inkscape:zoom="3.191149" inkscape:cx="212.25005" inkscape:cy="1014.3169" inkscape:document-units="px" inkscape:current-layer="layer1" showgrid="false" inkscape:window-width="1680" inkscape:window-height="1000" inkscape:window-x="-8" inkscape:window-y="-8" inkscape:window-maximized="1"/>
  <path id="path2828" class="fil0 str0" d="M21.4876 15.689c0,0.045 -0.0322,0.0814 -0.072,0.0814 -0.0398,0 -0.072,-0.0364 -0.072,-0.0814 0,-0.045 0.0322,-0.0814 0.072,-0.0814 0.0398,0 0.072,0.0364 0.072,0.0814z"/>
  <path id="path2828-1" class="fil0 str0" d="M15.9863 18.3183c0,0.0514 -0.0368,0.0931 -0.0823,0.0931 -0.0455,0 -0.0823,-0.0417 -0.0823,-0.0931 0,-0.0514 0.0368,-0.0931 0.0823,-0.0931 0.0455,0 0.0823,0.0417 0.0823,0.0931z"/>
  <path id="path2828-17" class="fil0" d="M17.9411 14.918c0,0.0642 -0.0461,0.1163 -0.1029,0.1163 -0.0568,0 -0.1029,-0.0521 -0.1029,-0.1163 0,-0.0643 0.0461,-0.1164 0.1029,-0.1164 0.0568,0 0.1029,0.0521 0.1029,0.1164z"/>
  <path id="path2828-1-4" class="fil0 str0" d="M13.3306 16.42c0,0.045 -0.0322,0.0814 -0.072,0.0814 -0.0398,0 -0.072,-0.0364 -0.072,-0.0814 0,-0.045 0.0322,-0.0814 0.072,-0.0814 0.0398,0 0.072,0.0364 0.072,0.0814z"/>
  <path id="path2828-17-0" class="fil0 str0" d="M17.5062 21.075c0,0.0514 -0.0368,0.0931 -0.0823,0.0931 -0.0455,0 -0.0823,-0.0417 -0.0823,-0.0931 0,-0.0514 0.0368,-0.0931 0.0823,-0.0931 0.0455,0 0.0823,0.0417 0.0823,0.0931z"/>
  <path id="path2828-17-0-9" class="fil0 str0" d="M19.7448 18.1731c0,0.0514 -0.0368,0.0931 -0.0823,0.0931 -0.0455,0 -0.0823,-0.0417 -0.0823,-0.0931 0,-0.0514 0.0368,-0.0931 0.0823,-0.0931 0.0455,0 0.0823,0.0417 0.0823,0.0931z"/>
  <path id="path2828-17-0-4" class="fil0 str0" d="M14.4282 20.5051c0,0.0582 -0.0322,0.1054 -0.072,0.1054 -0.0398,0 -0.072,-0.0472 -0.072,-0.1054 0,-0.0583 0.0322,-0.1055 0.072,-0.1055 0.0398,0 0.072,0.0472 0.072,0.1055z"/>
  <path id="path2828-17-0-9-8" class="fil0 str0" d="M21.0817 19.8313c0,0.0578 -0.0414,0.1047 -0.0926,0.1047 -0.0512,0 -0.0926,-0.0469 -0.0926,-0.1047 0,-0.0578 0.0414,-0.1047 0.0926,-0.1047 0.0512,0 0.0926,0.0469 0.0926,0.1047z"/>
  <path id="path2828-17-0-9-8-8" class="fil0 str0" d="M15.0812 14.525c0,0.0385 -0.0276,0.0698 -0.0617,0.0698 -0.0341,0 -0.0617,-0.0313 -0.0617,-0.0698 0,-0.0385 0.0276,-0.0698 0.0617,-0.0698 0.0341,0 0.0617,0.0313 0.0617,0.0698z"/>
 </g>
</svg>
