<?xml version="1.0" encoding="UTF-8" standalone="no"?>
<!-- Creator: CorelDRAW -->

<svg
   xmlns:dc="http://purl.org/dc/elements/1.1/"
   xmlns:cc="http://creativecommons.org/ns#"
   xmlns:rdf="http://www.w3.org/1999/02/22-rdf-syntax-ns#"
   xmlns:svg="http://www.w3.org/2000/svg"
   xmlns="http://www.w3.org/2000/svg"
   xmlns:sodipodi="http://sodipodi.sourceforge.net/DTD/sodipodi-0.dtd"
   xmlns:inkscape="http://www.inkscape.org/namespaces/inkscape"
   xml:space="preserve"
   width="210mm"
   height="297mm"
   style="shape-rendering:geometricPrecision; text-rendering:geometricPrecision; image-rendering:optimizeQuality; fill-rule:evenodd; clip-rule:evenodd"
   viewBox="0 0 210 297"
   version="1.1"
   inkscape:version="0.47 r22583"
   sodipodi:docname="debrits.svg"
   id="svg2"><metadata
   id="metadata57"><rdf:RDF><cc:Work
       rdf:about=""><dc:format>image/svg+xml</dc:format><dc:type
         rdf:resource="http://purl.org/dc/dcmitype/StillImage" /><dc:title></dc:title></cc:Work></rdf:RDF></metadata><sodipodi:namedview
   pagecolor="#ffffff"
   bordercolor="#666666"
   borderopacity="1"
   objecttolerance="10"
   gridtolerance="10"
   guidetolerance="10"
   inkscape:pageopacity="0"
   inkscape:pageshadow="2"
   inkscape:window-width="1920"
   inkscape:window-height="1030"
   id="namedview55"
   showgrid="false"
   inkscape:zoom="0.70343237"
   inkscape:cx="372.04724"
   inkscape:cy="639.90915"
   inkscape:window-x="-8"
   inkscape:window-y="-8"
   inkscape:window-maximized="1"
   inkscape:current-layer="svg2" />
 <defs
   id="defs4"><inkscape:perspective
   sodipodi:type="inkscape:persp3d"
   inkscape:vp_x="0 : 526.18109 : 1"
   inkscape:vp_y="0 : 1000 : 0"
   inkscape:vp_z="744.09448 : 526.18109 : 1"
   inkscape:persp3d-origin="372.04724 : 350.78739 : 1"
   id="perspective59" />
  <style
   type="text/css"
   id="style6">
   
    .str0 {stroke:black;stroke-width:0.0762}
    .fil0 {fill:white}
   
  </style>
 
  
  
  
  
  
  
  
  
  
  
  
  
  
  
  
  
  
  
  
  
  
  
 </defs>
 <path
   style="fill:#ffffff;stroke:#000000;stroke-width:0.0762"
   id="path10"
   d="m 159.89145,90.510688 c 12.8577,1.5848 10.0551,0.9872 24.3492,-1.3173 l 7.1887,-20.5534 -19.32,-3.5317 c -0.3213,0.7275 -4.8562,6.8427 -7.1815,11.4745 -1.2883,2.5662 -5.0174,10.867 -5.0364,13.9279 z"
   class="fil0 str0" /><path
   style="fill:#ffffff;stroke:#000000;stroke-width:0.0762"
   id="path12"
   d="m 101.5612,111.40305 24.3235,-0.0837 3.1469,-12.476395 -21.2659,-7.0141 c -3.902,5.1274 -5.5704,11.876495 -6.2045,19.574195 z"
   class="fil0 str0" /><path
   style="fill:#ffffff;stroke:#000000;stroke-width:0.0762"
   id="path14"
   d="m 2.1906166,83.398622 c 17.2822004,2.7511 16.0507004,2.9992 25.5376004,-13.6811 -2.3106,-4.6224 -12.0649,-7.6611 -16.6329,-9.3838 -0.5792,1.5831 -3.4745004,6.3954 -5.1783004,10.8214 -1.3572,3.5253 -3.0969,8.386 -3.7264,12.2435 z"
   class="fil0 str0" /><path
   style="fill:#ffffff;stroke:#000000;stroke-width:0.0762"
   id="path16"
   d="m 13.74243,15.88359 0,18.9963 c 4.4216,1.5823 3.2894,2.6082 11.5229,-4.9122 l 9.7911,-10.1923 c -2.8311,-2.3496 -5.964,-4.4315 -10.1737,-5.8139 -8.0897,-2.6566 -5.7266,-0.9678 -11.1403,1.9221 z"
   class="fil0 str0" /><path
   style="fill:#ffffff;stroke:#000000;stroke-width:0.0762"
   id="path18"
   d="m 19.866741,109.80831 c -0.643,7.1469 1.6526,11.4104 4.1141,17.6357 l 18.1798,-10.7427 -3.1234,-11.0952 -19.1705,4.2022 z"
   class="fil0 str0" /><path
   style="fill:#ffffff;stroke:#000000;stroke-width:0.0762"
   id="path20"
   d="m 5.3623826,185.91844 c 1.0234,3.8251 7.5075004,9.5752 10.6760004,12.0435 1.6249,1.2657 1.7768,0.79 3.8165,-0.015 l 12.2054,-4.7371 c -0.8498,-2.1789 -4.9962,-9.6735 -6.963,-11.7783 -8.6088,0 -12.911,2.3488 -19.7349004,4.4869 z"
   class="fil0 str0" /><path
   style="fill:#ffffff;stroke:#000000;stroke-width:0.0762"
   id="path22"
   d="m 236.45509,103.16925 c 0.8496,-0.8764 1.6966,-2.4566 2.4152,-3.555296 6.471,-9.8935 7.8842,-5.7796 -9.0675,-23.4776 -2.6104,2.728 -6.4471,14.255 -5.292,16.3748 0.2024,0.3716 11.4217,10.367696 11.9443,10.658096 z"
   class="fil0 str0" /><path
   style="fill:#ffffff;stroke:#000000;stroke-width:0.0762"
   id="path24"
   d="m 69.878941,162.6653 c 7.8051,0.8761 13.7629,-1.6388 20.5145,-4.0199 l -5.9233,-19.1699 c -3.897,2.2527 -12.6912,17.2449 -14.5912,23.1898 z"
   class="fil0 str0" /><path
   style="fill:#ffffff;stroke:#000000;stroke-width:0.0762"
   id="path26"
   d="m 240.96792,45.238778 5.6457,-18.9416 c -11.9324,-4.2646 -6.1818,-2.9177 -20.36,-4.2877 1.9053,5.8878 10.8872,20.992 14.7143,23.2293 z"
   class="fil0 str0" /><path
   style="fill:#ffffff;stroke:#000000;stroke-width:0.0762"
   id="path28"
   d="m 191.02645,141.60982 c 5.221,-2.5469 7.7102,-4.6472 10.7998,-8.1909 3.3025,-3.7878 -0.6759,-9.4626 -3.1399,-13.0856 -3.3828,1.2208 -9.7619,6.5798 -12.6658,8.9183 -2.1519,1.7327 -3.2235,1.3991 -0.2691,6.6241 1.3683,2.4201 3.003,4.6165 5.275,5.7341 z"
   class="fil0 str0" /><path
   style="fill:#ffffff;stroke:#000000;stroke-width:0.0762"
   id="path30"
   d="m 107.43354,52.502117 5.5347,14.141 17.7271,-5.035 c -0.2731,-2.4506 -0.9126,-4.6742 -1.77,-6.6573 -1.3626,-3.1519 -1.6396,-2.4272 -5.4292,-2.7956 -5.3514,-0.5202 -10.8403,-0.287 -16.0626,0.3469 z"
   class="fil0 str0" /><path
   style="fill:#ffffff;stroke:#000000;stroke-width:0.0762"
   id="path32"
   d="m 109.23615,193.1815 c -1.1923,-3.2066 -10.978603,-10.6098 -13.930203,-12.973 -3.4675,1.7274 -5.5167,3.6257 -7.5877,6.3828 -1.3016,1.7329 -1.3488,1.8615 0.6296,4.2323 0.6344,0.7602 2.7147,2.833 3.4689,3.4998 6.1197,5.4103 8.389503,5.379 13.454703,2.1621 1.6753,-1.0639 2.6426,-2.3246 3.9647,-3.304 z"
   class="fil0 str0" /><path
   style="fill:#ffffff;stroke:#000000;stroke-width:0.0762"
   id="path34"
   d="m 169.44907,33.870209 c 2.3483,0.9069 5.5064,3.013 8.3852,4.256 l 9.7491,3.1837 c 0.4136,-1.7047 1.6553,-3.3535 2.3195,-5.6752 l 0.9008,-7.4552 c -2.9675,-1.6538 -9.4557,-3.1855 -13.3169,-2.6133 -2.3555,0.349 -7.3208,5.8426 -8.0377,8.304 z"
   class="fil0 str0" /><path
   style="fill:#ffffff;stroke:#000000;stroke-width:0.0762"
   id="path36"
   d="m 123.90833,137.68514 11.0232,9.0036 c 2.3422,-1.4319 5.7123,-6.1015 7.17,-9.8319 0.8394,-2.148 -0.2789,-4.5669 -1.1425,-6.529 -1.063,-2.4154 -1.826,-3.5695 -3.3666,-5.3811 -3.8642,2.3502 -11.6686,9.3342 -13.6841,12.7384 z"
   class="fil0 str0" /><path
   style="fill:#ffffff;stroke:#000000;stroke-width:0.0762"
   id="path38"
   d="m 62.565776,88.424294 6.9984,17.646396 c 4.6533,-0.3239 8.6649,-3.7339 12.2276,-6.270396 -0.4739,-3.3637 -4.4881,-8.5471 -6.0895,-10.1779 -3.067,-3.1232 -8.9034,-2.1788 -13.1365,-1.1981 z"
   class="fil0 str0" /><path
   style="fill:#ffffff;stroke:#000000;stroke-width:0.0762"
   id="path40"
   d="m 67.812116,22.063403 4.0111,13.401 c 8.9772,-2.5955 9.1412,-3.0808 17.2917,-7.0944 -0.6521,-2.4416 -5.7004,-7.8523 -7.6076,-8.5047 -3.7627,-1.2869 -10.6513,0.9691 -13.6952,2.1981 z"
   class="fil0 str0" /><path
   style="fill:#ffffff;stroke:#000000;stroke-width:0.0762"
   id="path42"
   d="m 237.86003,188.7323 c 2.6243,-2.6637 2.7693,-9.5992 3.1162,-13.1615 L 226.21843,172.4 c -0.8106,1.0492 -1.722,4.2623 -2.0368,5.8197 -0.504,2.4934 -0.3316,2.2259 3.0282,4.6917 3.3852,2.4844 6.4759,3.9923 10.6502,5.8209 z"
   class="fil0 str0" /><path
   style="fill:#ffffff;stroke:#000000;stroke-width:0.0762"
   id="path44"
   d="m 129.30945,21.082477 10.4159,-11.9897001 c -8.9857,-5.8445 -8.8009,-6.7537 -14.6597,-0.5306 -1.5734,1.6711001 -4.589,5.0481001 -2.815,7.3725001 1.3564,1.7773 4.2914,4.4018 7.0588,5.1478 z"
   class="fil0 str0" /><path
   style="fill:#ffffff;stroke:#000000;stroke-width:0.0762"
   id="path46"
   d="m 70.762143,60.823332 -10.6172,-12.5557 c -2.1436,1.7881 -3.9489,3.56 -5.4465,6.4952 -1.0103,1.9801 -0.3566,2.5975 0.6501,4.1806 1.2655,1.9903 6.5684,8.8139 9.2038,7.698 2.4633,-1.0429 5.3078,-3.5309 6.2098,-5.8181 z"
   class="fil0 str0" /><path
   style="fill:#ffffff;stroke:#000000;stroke-width:0.0762"
   id="path48"
   d="m 148.70599,169.21531 c 11.5874,1.7454 8.591,1.8194 19.7067,0.4643 l -3.2141,-11.8041 c -3.0082,1.0662 -6.3273,3.3627 -8.8138,5.0972 -4.1352,2.8846 -4.4486,3.5907 -7.6788,6.2426 z"
   class="fil0 str0" /><path
   style="fill:#ffffff;stroke:#000000;stroke-width:0.0762"
   id="path50"
   d="m 23.767311,163.25433 5.5708,-10.592 -20.0100003,-2.6609 c 2.4649003,3.9926 11.0917003,12.4493 14.4392003,13.2529 z"
   class="fil0 str0" />
 <g
   id="Livello_x0020_1">
  <metadata
   id="CorelCorpID_1Corel-Layer" />
  <sodipodi:namedview
   id="base"
   pagecolor="#ffffff"
   bordercolor="#666666"
   borderopacity="1.0"
   inkscape:pageopacity="0.0"
   inkscape:pageshadow="2"
   inkscape:zoom="1.0568359"
   inkscape:cx="375"
   inkscape:cy="709.24413"
   inkscape:document-units="px"
   inkscape:current-layer="layer1"
   showgrid="false"
   inkscape:window-width="1680"
   inkscape:window-height="1000"
   inkscape:window-x="-8"
   inkscape:window-y="-8"
   inkscape:window-maximized="1" />
 </g>
</svg>