<?xml version="1.0" encoding="UTF-8"?>
<!DOCTYPE svg PUBLIC "-//W3C//DTD SVG 1.1//EN" "http://www.w3.org/Graphics/SVG/1.1/DTD/svg11.dtd">
<!-- Creator: CorelDRAW -->
<svg xmlns="http://www.w3.org/2000/svg" xml:space="preserve" width="210mm" height="297mm" style="shape-rendering:geometricPrecision; text-rendering:geometricPrecision; image-rendering:optimizeQuality; fill-rule:evenodd; clip-rule:evenodd"
viewBox="0 0 210 297"
 xmlns:xlink="http://www.w3.org/1999/xlink"
 xmlns:dc="http://purl.org/dc/elements/1.1/"
 xmlns:cc="http://creativecommons.org/ns#"
 xmlns:rdf="http://www.w3.org/1999/02/22-rdf-syntax-ns#"
 xmlns:svg="http://www.w3.org/2000/svg"
 xmlns:sodipodi="http://sodipodi.sourceforge.net/DTD/sodipodi-0.dtd"
 xmlns:inkscape="http://www.inkscape.org/namespaces/inkscape"
 version="1.1"
 inkscape:version="0.47 r22583"
 sodipodi:docname="Nuovo documento 1">
 <defs>
  <style type="text/css">
   <![CDATA[
    .str0 {stroke:black;stroke-width:0.0762}
    .fil0 {fill:white}
   ]]>
  </style>
 </defs>
 <g id="Layer_x0020_1">
  <metadata id="CorelCorpID_0Corel-Layer"/>
  <path class="fil0 str0" d="M124.184 85.6962c12.8577,1.5848 10.0551,0.9872 24.3492,-1.3173l7.1887 -20.5534 -19.32 -3.5317c-0.3213,0.7275 -4.8562,6.8427 -7.1815,11.4745 -1.2883,2.5662 -5.0174,10.867 -5.0364,13.9279z"/>
  <path class="fil0 str0" d="M85.1117 86.5282l24.3235 -0.0837 3.1469 -12.4764 -21.2659 -7.0141c-3.902,5.1274 -5.5704,11.8765 -6.2045,19.5742z"/>
  <path class="fil0 str0" d="M12.2208 82.195c17.2822,2.7511 16.0507,2.9992 25.5376,-13.6811 -2.3106,-4.6224 -12.0649,-7.6611 -16.6329,-9.3838 -0.5792,1.5831 -3.4745,6.3954 -5.1783,10.8214 -1.3572,3.5253 -3.0969,8.386 -3.7264,12.2435z"/>
  <path class="fil0 str0" d="M39.4197 21.9017l0 18.9963c4.4216,1.5823 3.2894,2.6082 11.5229,-4.9122l9.7911 -10.1923c-2.8311,-2.3496 -5.964,-4.4315 -10.1737,-5.8139 -8.0897,-2.6566 -5.7266,-0.9678 -11.1403,1.9221z"/>
  <path class="fil0 str0" d="M66.808 103.389c-0.643,7.1469 1.6526,11.4104 4.1141,17.6357l18.1798 -10.7427 -3.1234 -11.0952 -19.1705 4.2022z"/>
  <path class="fil0 str0" d="M11.7817 128.947c1.0234,3.8251 7.5075,9.5752 10.676,12.0435 1.6249,1.2657 1.7768,0.79 3.8165,-0.015l12.2054 -4.7371c-0.8498,-2.1789 -4.9962,-9.6735 -6.963,-11.7783 -8.6088,0 -12.911,2.3488 -19.7349,4.4869z"/>
  <path class="fil0 str0" d="M187.909 94.7439c0.8496,-0.8764 1.6966,-2.4566 2.4152,-3.5553 6.471,-9.8935 7.8842,-5.7796 -9.0675,-23.4776 -2.6104,2.728 -6.4471,14.255 -5.292,16.3748 0.2024,0.3716 11.4217,10.3677 11.9443,10.6581z"/>
  <path class="fil0 str0" d="M45.8065 146.617c7.8051,0.8761 13.7629,-1.6388 20.5145,-4.0199l-5.9233 -19.1699c-3.897,2.2527 -12.6912,17.2449 -14.5912,23.1898z"/>
  <path class="fil0 str0" d="M190.817 46.4424l5.6457 -18.9416c-11.9324,-4.2646 -6.1818,-2.9177 -20.36,-4.2877 1.9053,5.8878 10.8872,20.992 14.7143,23.2293z"/>
  <path class="fil0 str0" d="M155.319 118.741c5.221,-2.5469 7.7102,-4.6472 10.7998,-8.1909 3.3025,-3.7878 -0.6759,-9.4626 -3.1399,-13.0856 -3.3828,1.2208 -9.7619,6.5798 -12.6658,8.9183 -2.1519,1.7327 -3.2235,1.3991 -0.2691,6.6241 1.3683,2.4201 3.003,4.6165 5.275,5.7341z"/>
  <path class="fil0 str0" d="M94.1937 46.0828l5.5347 14.141 17.7271 -5.035c-0.2731,-2.4506 -0.9126,-4.6742 -1.77,-6.6573 -1.3626,-3.1519 -1.6396,-2.4272 -5.4292,-2.7956 -5.3514,-0.5202 -10.8403,-0.287 -16.0626,0.3469z"/>
  <path class="fil0 str0" d="M101.212 143.833c-1.1923,-3.2066 -10.9786,-10.6098 -13.9302,-12.973 -3.4675,1.7274 -5.5167,3.6257 -7.5877,6.3828 -1.3016,1.7329 -1.3488,1.8615 0.6296,4.2323 0.6344,0.7602 2.7147,2.833 3.4689,3.4998 6.1197,5.4103 8.3895,5.379 13.4547,2.1621 1.6753,-1.0639 2.6426,-2.3246 3.9647,-3.304z"/>
  <path class="fil0 str0" d="M144.173 44.3016c2.3483,0.9069 5.5064,3.013 8.3852,4.256l9.7491 3.1837c0.4136,-1.7047 1.6553,-3.3535 2.3195,-5.6752l0.9008 -7.4552c-2.9675,-1.6538 -9.4557,-3.1855 -13.3169,-2.6133 -2.3555,0.349 -7.3208,5.8426 -8.0377,8.304z"/>
  <path class="fil0 str0" d="M105.854 108.397l11.0232 9.0036c2.3422,-1.4319 5.7123,-6.1015 7.17,-9.8319 0.8394,-2.148 -0.2789,-4.5669 -1.1425,-6.529 -1.063,-2.4154 -1.826,-3.5695 -3.3666,-5.3811 -3.8642,2.3502 -11.6686,9.3342 -13.6841,12.7384z"/>
  <path class="fil0 str0" d="M52.9368 72.376l6.9984 17.6464c4.6533,-0.3239 8.6649,-3.7339 12.2276,-6.2704 -0.4739,-3.3637 -4.4881,-8.5471 -6.0895,-10.1779 -3.067,-3.1232 -8.9034,-2.1788 -13.1365,-1.1981z"/>
  <path class="fil0 str0" d="M77.8423 16.4465l4.0111 13.401c8.9772,-2.5955 9.1412,-3.0808 17.2917,-7.0944 -0.6521,-2.4416 -5.7004,-7.8523 -7.6076,-8.5047 -3.7627,-1.2869 -10.6513,0.9691 -13.6952,2.1981z"/>
  <path class="fil0 str0" d="M181.691 139.785c2.6243,-2.6637 2.7693,-9.5992 3.1162,-13.1615l-14.7578 -3.1708c-0.8106,1.0492 -1.722,4.2623 -2.0368,5.8197 -0.504,2.4934 -0.3316,2.2259 3.0282,4.6917 3.3852,2.4844 6.4759,3.9923 10.6502,5.8209z"/>
  <path class="fil0 str0" d="M126.501 38.7356l10.4159 -11.9897c-8.9857,-5.8445 -8.8009,-6.7537 -14.6597,-0.5306 -1.5734,1.6711 -4.589,5.0481 -2.815,7.3725 1.3564,1.7773 4.2914,4.4018 7.0588,5.1478z"/>
  <path class="fil0 str0" d="M84.8044 53.6016l-10.6172 -12.5557c-2.1436,1.7881 -3.9489,3.56 -5.4465,6.4952 -1.0103,1.9801 -0.3566,2.5975 0.6501,4.1806 1.2655,1.9903 6.5684,8.8139 9.2038,7.698 2.4633,-1.0429 5.3078,-3.5309 6.2098,-5.8181z"/>
  <path class="fil0 str0" d="M127.442 141.532c11.5874,1.7454 8.591,1.8194 19.7067,0.4643l-3.2141 -11.8041c-3.0082,1.0662 -6.3273,3.3627 -8.8138,5.0972 -4.1352,2.8846 -4.4486,3.5907 -7.6788,6.2426z"/>
  <path class="fil0 str0" d="M45.0313 112.301l5.5708 -10.592 -20.01 -2.6609c2.4649,3.9926 11.0917,12.4493 14.4392,13.2529z"/>
 </g>
 <g id="Livello_x0020_1">
  <metadata id="CorelCorpID_1Corel-Layer"/>
  <sodipodi:namedview id="base" pagecolor="#ffffff" bordercolor="#666666" borderopacity="1.0" inkscape:pageopacity="0.0" inkscape:pageshadow="2" inkscape:zoom="1.0568359" inkscape:cx="375" inkscape:cy="709.24413" inkscape:document-units="px" inkscape:current-layer="layer1" showgrid="false" inkscape:window-width="1680" inkscape:window-height="1000" inkscape:window-x="-8" inkscape:window-y="-8" inkscape:window-maximized="1"/>
 </g>
</svg>
