<?xml version="1.0" encoding="UTF-8"?>
<!DOCTYPE svg PUBLIC "-//W3C//DTD SVG 1.1//EN" "http://www.w3.org/Graphics/SVG/1.1/DTD/svg11.dtd">
<!-- Creator: CorelDRAW -->
<svg xmlns="http://www.w3.org/2000/svg" xml:space="preserve" width="210mm" height="297mm" style="shape-rendering:geometricPrecision; text-rendering:geometricPrecision; image-rendering:optimizeQuality; fill-rule:evenodd; clip-rule:evenodd"
viewBox="0 0 210 297"
 xmlns:xlink="http://www.w3.org/1999/xlink"
 xmlns:dc="http://purl.org/dc/elements/1.1/"
 xmlns:cc="http://creativecommons.org/ns#"
 xmlns:rdf="http://www.w3.org/1999/02/22-rdf-syntax-ns#"
 xmlns:svg="http://www.w3.org/2000/svg"
 xmlns:sodipodi="http://sodipodi.sourceforge.net/DTD/sodipodi-0.dtd"
 xmlns:inkscape="http://www.inkscape.org/namespaces/inkscape"
 version="1.1"
 inkscape:version="0.47 r22583"
 sodipodi:docname="Nuovo documento 1">
 <defs>
  <style type="text/css">
   <![CDATA[
    .str0 {stroke:black;stroke-width:0.2646}
    .fil0 {fill:white}
   ]]>
  </style>
 </defs>
 <g id="Livello_x0020_1">
  <metadata id="CorelCorpID_0Corel-Layer"/>
  <sodipodi:namedview id="base" pagecolor="#ffffff" bordercolor="#666666" borderopacity="1.0" inkscape:pageopacity="0.0" inkscape:pageshadow="2" inkscape:zoom="1.0568359" inkscape:cx="375" inkscape:cy="709.24413" inkscape:document-units="px" inkscape:current-layer="layer1" showgrid="false" inkscape:window-width="1680" inkscape:window-height="1000" inkscape:window-x="-8" inkscape:window-y="-8" inkscape:window-maximized="1"/>
  <g id="layer1" inkscape:label="Livello 1" inkscape:groupmode="layer">
   <path id="path2816" class="fil0 str0" d="M26.0901 29.6036c-3.7146,1.921 -4.9647,3.4484 -7.2603,6.5092 -5.0696,6.7594 -1.067,19.9359 10.2645,14.2702 4.9224,-2.4612 8.9613,-20.7794 -3.0042,-20.7794z"/>
   <path id="path2820" class="fil0 str0" d="M46.1185 16.0844c-3.8888,-0.7641 -8.3816,1.2308 -9.2631,4.7567 -2.2044,8.8175 19.1122,11.154 26.2872,8.7624 1.0173,-0.3391 1.8761,-7.2001 1.0014,-8.512 -2.3429,-3.5143 -12.003,-6.4304 -18.0255,-5.0071z"/>
   <path id="path2822" class="fil0 str0" d="M52.878 38.6163c-2.7088,-0.058 -4.256,1.4289 -4.256,4.0057 0,11.2229 14.9451,-0.3809 4.256,-4.0057z"/>
   <path id="path2824" class="fil0 str0" d="M68.1496 39.8681c-0.3691,0.9011 -1.5021,2.9974 -1.5021,3.7553 0,25.5654 15.7919,-6.9137 1.5021,-3.7553z"/>
   <path id="path2826" class="fil0 str0" d="M47.3702 54.1383c-2.9432,-0.4063 -6.0074,-0.2504 -9.0128,-0.2504 -7.1037,0 -10.9544,13.597 -6.2589,14.7709 9.3379,2.3345 23.1518,-4.2023 15.2716,-14.5205l0.0001 0z"/>
  </g>
 </g>
</svg>
