<?xml version="1.0" encoding="UTF-8" standalone="no"?>
<svg
   version="1.1"
   id="Layer_1"
   x="0px"
   y="0px"
   viewBox="0 0 32 32"
   style="enable-background:new 0 0 32 32;"
   xml:space="preserve"
   sodipodi:docname="Action_Export_ToSVG.svg"
   inkscape:version="1.4 (86a8ad7, 2024-10-11)"
   xmlns:inkscape="http://www.inkscape.org/namespaces/inkscape"
   xmlns:sodipodi="http://sodipodi.sourceforge.net/DTD/sodipodi-0.dtd"
   xmlns="http://www.w3.org/2000/svg"
   xmlns:svg="http://www.w3.org/2000/svg"><defs
   id="defs3" /><sodipodi:namedview
   id="namedview3"
   pagecolor="#505050"
   bordercolor="#eeeeee"
   borderopacity="1"
   inkscape:showpageshadow="0"
   inkscape:pageopacity="0"
   inkscape:pagecheckerboard="0"
   inkscape:deskcolor="#d1d1d1"
   showguides="true"
   inkscape:zoom="35.664698"
   inkscape:cx="17.159826"
   inkscape:cy="15.379353"
   inkscape:window-width="2560"
   inkscape:window-height="1009"
   inkscape:window-x="-8"
   inkscape:window-y="-8"
   inkscape:window-maximized="1"
   inkscape:current-layer="Layer_1"><sodipodi:guide
     position="4.3221809,21.372986"
     orientation="1,0"
     id="guide3"
     inkscape:locked="false" /><sodipodi:guide
     position="5.7893432,24.42627"
     orientation="1,0"
     id="guide4"
     inkscape:locked="false" /><sodipodi:guide
     position="7.3358116,22.285006"
     orientation="1,0"
     id="guide5"
     inkscape:locked="false" /></sodipodi:namedview>
<style
   type="text/css"
   id="style1">
	.Black{fill:#727272;}
	.Blue{fill:#1177D7;}
	.Red{fill:#D11C1C;}
	.Yellow{fill:#FFB115;}
	.White{fill:#FFFFFF;}
	.st0{opacity:0.2;}</style>
<path
   class="Black"
   d="M8,4h18v6h2V3c0-0.5-0.5-1-1-1H7C6.5,2,6,2.5,6,3v7h2V4z"
   id="path1" />
<path
   class="Black"
   d="M26,28H8V18H6v11c0,0.5,0.5,1,1,1h20c0.5,0,1-0.5,1-1V18h-2V28z"
   id="path2" />
<path
   class="Red"
   d="M 29,8 H 28 26 8 6 5 C 4.4,8 4,8.4 4,9 v 10 c 0,0.6 0.4,1 1,1 h 1 2 18 2 1 c 0.6,0 1,-0.4 1,-1 V 9 C 30,8.4 29.6,8 29,8 Z m -16.9772,8.8 c -0.2,0.3 -0.4,0.5 -0.6,0.7 -0.3,0.2 -0.6,0.3 -0.9,0.4 -0.3,0 -0.6999995,0.1 -1.0999995,0.1 -0.4,0 -0.8,0 -1.1,-0.1 -0.4,-0.1 -0.7,-0.2 -0.9,-0.3 v -1.7 c 0.3,0.3 0.6,0.5 0.9,0.6 0.3,0.1 0.7,0.2 1,0.2 0.2,0 0.4,0 0.5,-0.1 C 10.0228,16.6 10.1228,16.5 10.2228,16.4 l 0.2,-0.2 c 0.1,-0.1 0.1,-0.2 0.1,-0.3 0,-0.2 0,-0.3 -0.1,-0.4 l -0.3,-0.3 C 10.0228,15.1 9.8228005,15 9.6228005,14.9 l -0.6,-0.3 c -0.6,-0.3 -1,-0.6 -1.2,-0.9 -0.2,-0.3 -0.4,-0.8 -0.4,-1.3 0,-0.4 0.1,-0.7 0.2,-1 0.1,-0.3 0.4,-0.5 0.6,-0.7 0.2,-0.2 0.6,-0.3 0.9,-0.4 0.3,-0.1 0.7,-0.1 1.0999995,-0.1 0.4,0 0.7,0 1,0.1 0.3,0 0.6,0.1 0.8,0.2 v 1.6 c -0.1,-0.1 -0.3,-0.2 -0.4,-0.2 -0.1,-0.1 -0.3,-0.1 -0.4,-0.2 -0.1,0 -0.3,-0.1 -0.4,-0.1 h -0.4 c -0.2,0 -0.3,0 -0.4999995,0.1 -0.1,0 -0.3,0.1 -0.4,0.2 -0.1,0.1 -0.2,0.1 -0.2,0.2 -0.1,0.1 -0.1,0.2 -0.1,0.3 0,0.1 0,0.2 0.1,0.3 l 0.3,0.3 c 0.1,0.1 0.3,0.2 0.3999995,0.3 l 0.6,0.3 c 0.3,0.1 0.5,0.3 0.8,0.4 0.2,0.1 0.4,0.3 0.6,0.5 0.2,0.2 0.3,0.4 0.4,0.6 0.1,0.2 0.1,0.5 0.1,0.8 -0.2,0.2 -0.3,0.6 -0.5,0.9 z m 6.8,-3.6 -1.5,4.7 h -1.8 l -2.4,-7.9 h 1.7 l 1.5,5.5 c 0.1,0.3 0.1,0.8 0.1,0.8 v 0 c 0,0 0.1,-0.5 0.2,-0.8 l 1.5,-5.5 h 0.7 1 z m 7.630732,4.210285 c -0.7,0.4 -1.5,0.7 -2.5,0.7 -1.1,0 -2,-0.3 -2.6,-1 -0.6,-0.7 -0.9,-1.6 -0.9,-2.8 0,-1.2 0.3,-2.2 1,-3 0.7,-0.8 1.6,-1.1 2.8,-1.1 0.7,0 1.4,0.1 1.9,0.3 v 1.6 c -0.5,-0.3 -1.2,-0.5 -1.9,-0.5 -0.6,0 -1.2,0.2 -1.6,0.7 -0.4,0.5 -0.6,1.1 -0.6,1.9 0,0.8 0.2,1.4 0.5,1.8 0.4,0.4 0.8,0.6 1.5,0.6 0.4,0 0.7,-0.1 0.9,-0.2 v -1.5 h -1.4 v -1.4 h 2.9 z"
   id="path3" />
</svg>
