<?xml version='1.0' encoding='UTF-8'?>
<svg x="0px" y="0px" viewBox="0 0 32 32" version="1.1" xmlns="http://www.w3.org/2000/svg" xmlns:xlink="http://www.w3.org/1999/xlink" xml:space="preserve" id="Layer_1" style="enable-background:new 0 0 32 32">
  <style type="text/css">
	.Blue{fill:#1177D7;}
	.Yellow{fill:#FFB115;}
	.Black{fill:#727272;}
	.Green{fill:#039C23;}
	.Red{fill:#D11C1C;}
	.st0{opacity:0.75;}
	.st1{opacity:0.5;}
</style>
  <g id="Calendar">
    <path d="M29,4h-3v3c0,0.5-0.5,1-1,1h-4c-0.5,0-1-0.5-1-1V4h-8v3c0,0.5-0.5,1-1,1H7C6.5,8,6,7.5,6,7V4H3   C2.4,4,2,4.4,2,5v5h28V5C30,4.4,29.6,4,29,4z" class="Red" />
    <g class="st1">
      <rect x="8" y="14" width="4" height="4" rx="0" ry="0" class="Black" />
      <rect x="14" y="20" width="4" height="4" rx="0" ry="0" class="Black" />
      <rect x="8" y="20" width="4" height="4" rx="0" ry="0" class="Black" />
      <rect x="20" y="14" width="4" height="4" rx="0" ry="0" class="Black" />
      <rect x="14" y="14" width="4" height="4" rx="0" ry="0" class="Black" />
      <rect x="20" y="20" width="4" height="4" rx="0" ry="0" class="Black" />
    </g>
    <path d="M28,10v18H4V10H2v19c0,0.6,0.4,1,1,1h26c0.6,0,1-0.4,1-1V10H28z" class="Black" />
    <rect x="22" y="2" width="2" height="4" rx="0" ry="0" class="Black" />
    <rect x="8" y="2" width="2" height="4" rx="0" ry="0" class="Black" />
  </g>
</svg>