<?xml version="1.0" encoding="UTF-8" standalone="no"?>
<svg
   xmlns:dc="http://purl.org/dc/elements/1.1/"
   xmlns:cc="http://creativecommons.org/ns#"
   xmlns:rdf="http://www.w3.org/1999/02/22-rdf-syntax-ns#"
   xmlns:svg="http://www.w3.org/2000/svg"
   xmlns="http://www.w3.org/2000/svg"
   xmlns:sodipodi="http://sodipodi.sourceforge.net/DTD/sodipodi-0.dtd"
   xmlns:inkscape="http://www.inkscape.org/namespaces/inkscape"
   version="1.1"
   id="Layer_1"
   x="0px"
   y="0px"
   viewBox="0 0 32 32"
   style="enable-background:new 0 0 32 32;"
   xml:space="preserve"
   sodipodi:docname="addprefix.svg"
   inkscape:version="1.0.1 (3bc2e813f5, 2020-09-07)"><metadata
   id="metadata20"><rdf:RDF><cc:Work
       rdf:about=""><dc:format>image/svg+xml</dc:format><dc:type
         rdf:resource="http://purl.org/dc/dcmitype/StillImage" /><dc:title></dc:title></cc:Work></rdf:RDF></metadata><defs
   id="defs18">
	
	
	

		
	</defs><sodipodi:namedview
   pagecolor="#ffffff"
   bordercolor="#666666"
   borderopacity="1"
   objecttolerance="10"
   gridtolerance="10"
   guidetolerance="10"
   inkscape:pageopacity="0"
   inkscape:pageshadow="2"
   inkscape:window-width="2560"
   inkscape:window-height="1017"
   id="namedview16"
   showgrid="false"
   inkscape:zoom="4.695631"
   inkscape:cx="-30.717565"
   inkscape:cy="20.771627"
   inkscape:window-x="-8"
   inkscape:window-y="-8"
   inkscape:window-maximized="1"
   inkscape:current-layer="Layer_1" />
<style
   type="text/css"
   id="style2">
	.Yellow{fill:#FFB115;}
	.Red{fill:#D11C1C;}
	.Black{fill:#727272;}
	.Blue{fill:#1177D7;}
	.White{fill:#FFFFFF;}
	.Green{fill:#039C23;}
	.st0{opacity:0.75;}
	.st1{opacity:0.5;}
	.st2{opacity:0.25;}
	.st3{fill:#FFB115;}
</style>
<g
   id="g4">
</g>
<path
   class="Black"
   d="m 6.1,14 h 2.2 l 0.6,-2.3 h 3.2 L 12.7,14 H 15 L 11.8,4 H 9.4 Z m 4.3,-7.3 c 0.1,-0.3 0.1,-0.6 0.1,-0.9 h 0.1 c 0,0.3 0.1,0.6 0.1,0.9 l 1,3.3 H 9.4 Z M 21.5,8.6 C 22.1,8.4 22.6,8.1 23,7.7 23.4,7.3 23.6,6.8 23.6,6.3 23.6,5.6 23.3,5 22.7,4.6 22.1,4.2 21.1,4 19.9,4 H 16 v 9.9 0.1 h 4 c 1.2,0 2.2,-0.2 2.9,-0.8 C 23.7,12.6 24,12 24,11 24,10.4 23.8,9.8 23.3,9.4 22.9,9 22.3,8.7 21.5,8.6 Z M 18.4,5.7 h 0.9 C 20.4,5.7 21,6.1 21,6.8 21,7.2 20.9,7.5 20.6,7.7 20.4,7.9 20,8 19.5,8 h -1.1 z m 2.6,6.1 c -0.3,0.2 -0.8,0.4 -1.3,0.4 H 18.4 V 9.6 h 1.3 c 0.5,0 0.9,0.1 1.3,0.3 0.3,0.2 0.5,0.6 0.5,0.9 0,0.5 -0.1,0.8 -0.5,1 z"
   id="path6" /><path
   d="m 2,16 h 8 v 6 H 2 Z"
   id="path8"
   style="opacity:0.75;fill:#1177d7;fill-opacity:1" />
<style
   type="text/css"
   id="style845">
	.Black{fill:#727272;}
	.Blue{fill:#1177D7;}
	.Green{fill:#039C23;}
	.Yellow{fill:#FFB115;}
	.Red{fill:#D11C1C;}
	.White{fill:#FFFFFF;}
	.st0{opacity:0.5;}
	.st1{opacity:0.75;}
	.st2{display:none;}
	.st3{display:inline;fill:#1177D7;}
	.st4{display:inline;fill:#727272;}
</style><polygon
   class="Green"
   points="18,28 22,28 22,32 26,32 26,28 30,28 30,24 26,24 26,20 22,20 22,24 18,24 "
   id="polygon849-3"
   style="fill:#039c23"
   transform="matrix(0.54823529,0,0,0.58588235,2.8047059,3.8164712)" /><path
   d="m 21.788235,16 h 8 v 6 h -8 z"
   id="path8-7"
   style="fill:#717171;fill-opacity:0.74902" /></svg>
