<?xml version="1.0" encoding="UTF-8" standalone="no"?>
<!-- Generator: Adobe Illustrator 24.1.3, SVG Export Plug-In . SVG Version: 6.00 Build 0)  -->

<svg
   version="1.1"
   id="Layer_1"
   x="0px"
   y="0px"
   viewBox="0 0 32 32"
   style="enable-background:new 0 0 32 32;"
   xml:space="preserve"
   sodipodi:docname="addreduced.svg"
   inkscape:version="1.1 (c68e22c387, 2021-05-23)"
   xmlns:inkscape="http://www.inkscape.org/namespaces/inkscape"
   xmlns:sodipodi="http://sodipodi.sourceforge.net/DTD/sodipodi-0.dtd"
   xmlns="http://www.w3.org/2000/svg"
   xmlns:svg="http://www.w3.org/2000/svg"><defs
   id="defs19" /><sodipodi:namedview
   id="namedview17"
   pagecolor="#505050"
   bordercolor="#eeeeee"
   borderopacity="1"
   inkscape:pageshadow="0"
   inkscape:pageopacity="0"
   inkscape:pagecheckerboard="0"
   showgrid="false"
   showguides="true"
   inkscape:guide-bbox="true"
   inkscape:zoom="9.1923882"
   inkscape:cx="36.116839"
   inkscape:cy="25.18388"
   inkscape:window-width="2560"
   inkscape:window-height="1017"
   inkscape:window-x="-8"
   inkscape:window-y="-8"
   inkscape:window-maximized="1"
   inkscape:current-layer="Layer_1"><sodipodi:guide
     position="15.923077,28"
     orientation="0,-1"
     id="guide1226" /><sodipodi:guide
     position="4,15.692308"
     orientation="1,0"
     id="guide1228" /></sodipodi:namedview>
<style
   type="text/css"
   id="style2">
	.Black{fill:#737374;}
	.Yellow{fill:#FCB01B;}
	.Green{fill:#129C49;}
	.Blue{fill:#387CB7;}
	.Red{fill:#D02127;}
	.White{fill:#FFFFFF;}
	.st0{opacity:0.5;}
	.st1{opacity:0.75;}
	.st2{opacity:0.25;}
	.st3{display:none;fill:#737374;}
</style>


<g
   class="st0"
   id="g10">
	
</g>

<polygon
   class="Blue"
   points="24.3,8.3 25.7,9.7 29.2,6.2 32,9.1 32,2 24.9,2 27.8,4.8 "
   id="polygon14"
   transform="rotate(90,16.999994,-3.3230767)" />
<style
   type="text/css"
   id="style836">
	.Blue{fill:#1177D7;}
	.Yellow{fill:#FFB115;}
	.Black{fill:#727272;}
	.Green{fill:#039C23;}
	.Red{fill:#D11C1C;}
	.st0{opacity:0.75;}
	.st1{opacity:0.5;}
</style><g
   id="Add"
   transform="translate(1.0878566,1.0878566)">
	<path
   class="Green"
   d="M 27,14 H 18 V 5 C 18,4.5 17.5,4 17,4 h -2 c -0.5,0 -1,0.5 -1,1 v 9 H 5 c -0.5,0 -1,0.5 -1,1 v 2 c 0,0.5 0.5,1 1,1 h 9 v 9 c 0,0.5 0.5,1 1,1 h 2 c 0.5,0 1,-0.5 1,-1 v -9 h 9 c 0.5,0 1,-0.5 1,-1 v -2 c 0,-0.5 -0.5,-1 -1,-1 z"
   id="path838" />
</g></svg>
