<?xml version="1.0" encoding="UTF-8" standalone="no"?>
<svg
   xmlns:dc="http://purl.org/dc/elements/1.1/"
   xmlns:cc="http://creativecommons.org/ns#"
   xmlns:rdf="http://www.w3.org/1999/02/22-rdf-syntax-ns#"
   xmlns:svg="http://www.w3.org/2000/svg"
   xmlns="http://www.w3.org/2000/svg"
   xmlns:sodipodi="http://sodipodi.sourceforge.net/DTD/sodipodi-0.dtd"
   xmlns:inkscape="http://www.inkscape.org/namespaces/inkscape"
   inkscape:version="1.0 (4035a4fb49, 2020-05-01)"
   sodipodi:docname="addSheetRows.svg"
   xml:space="preserve"
   style="enable-background:new 0 0 32 32;"
   viewBox="0 0 32 32"
   y="0px"
   x="0px"
   id="Insert_Sheet_Rows"
   version="1.1"><metadata
   id="metadata17"><rdf:RDF><cc:Work
       rdf:about=""><dc:format>image/svg+xml</dc:format><dc:type
         rdf:resource="http://purl.org/dc/dcmitype/StillImage" /><dc:title></dc:title></cc:Work></rdf:RDF></metadata><defs
   id="defs15" /><sodipodi:namedview
   inkscape:current-layer="Insert_Sheet_Rows"
   inkscape:window-maximized="1"
   inkscape:window-y="-8"
   inkscape:window-x="-8"
   inkscape:cy="16"
   inkscape:cx="16"
   inkscape:zoom="26.5625"
   showgrid="false"
   id="namedview13"
   inkscape:window-height="1017"
   inkscape:window-width="2560"
   inkscape:pageshadow="2"
   inkscape:pageopacity="0"
   guidetolerance="10"
   gridtolerance="10"
   objecttolerance="10"
   borderopacity="1"
   bordercolor="#666666"
   pagecolor="#ffffff" />
<style
   id="style2"
   type="text/css">
	.Blue{fill:#1177D7;}
	.Yellow{fill:#FFB115;}
	.Black{fill:#727272;}
	.st0{opacity:0.5;}
</style>
<rect
   id="rect8"
   height="6"
   width="28"
   class="Blue"
   y="22"
   x="2" /><g
   id="g6"
   class="st0">
	<path
   sodipodi:nodetypes="ccccccccccccccccccccccccc"
   id="path4"
   d="m 20,6 v 6 H 12 V 6 Z M 10,12 V 6 H 2 v 6 z m 2,2 v 6 h 8 v -6 z m 10,0 v 6 h 8 V 14 Z M 10,20 V 14 H 2 v 6 z"
   class="Black" />
</g>

<polygon
   id="polygon10"
   points="27,4 29,2 29,5 32,5 30,7 32,9 29,9 29,12 27,10 25,12 25,9 22,9 24,7 22,5 25,5 25,2 "
   class="Yellow" />
<style
   type="text/css"
   id="style842">
	.Blue{fill:#1177D7;}
	.Yellow{fill:#FFB115;}
	.Black{fill:#727272;}
	.st0{opacity:0.5;}
</style></svg>
