<?xml version='1.0' encoding='UTF-8'?>
<svg x="0px" y="0px" viewBox="0 0 32 32" version="1.1" xmlns="http://www.w3.org/2000/svg" xmlns:xlink="http://www.w3.org/1999/xlink" xml:space="preserve" id="Layer_1" style="enable-background:new 0 0 32 32">
  <style type="text/css">
	.Yellow{fill:#FFB115;}
	.Red{fill:#D11C1C;}
	.Blue{fill:#1177D7;}
	.Green{fill:#039C23;}
	.Black{fill:#727272;}
	.White{fill:#FFFFFF;}
	.st0{opacity:0.75;}
</style>
  <g id="Attachments">
    <path d="M22,10v13c0,2.8-2.2,5-5,5s-5-2.2-5-5V7c0-1.7,1.3-3,3-3s3,1.3,3,3v16c0,0.6-0.4,1-1,1s-1-0.4-1-1V10h-2v13   c0,1.7,1.3,3,3,3s3-1.3,3-3V7c0-2.8-2.2-5-5-5s-5,2.2-5,5v16c0,3.9,3.1,7,7,7s7-3.1,7-7V10H22z" class="Black" />
  </g>
</svg>