<?xml version="1.0" encoding="UTF-8" standalone="no"?>
<svg
   xmlns:dc="http://purl.org/dc/elements/1.1/"
   xmlns:cc="http://creativecommons.org/ns#"
   xmlns:rdf="http://www.w3.org/1999/02/22-rdf-syntax-ns#"
   xmlns:svg="http://www.w3.org/2000/svg"
   xmlns="http://www.w3.org/2000/svg"
   xmlns:sodipodi="http://sodipodi.sourceforge.net/DTD/sodipodi-0.dtd"
   xmlns:inkscape="http://www.inkscape.org/namespaces/inkscape"
   version="1.1"
   id="Layer_1"
   x="0px"
   y="0px"
   viewBox="0 0 32 32"
   style="enable-background:new 0 0 32 32;"
   xml:space="preserve"
   sodipodi:docname="autoconfig.svg"
   inkscape:version="1.0.1 (3bc2e813f5, 2020-09-07)"><metadata
   id="metadata14"><rdf:RDF><cc:Work
       rdf:about=""><dc:format>image/svg+xml</dc:format><dc:type
         rdf:resource="http://purl.org/dc/dcmitype/StillImage" /><dc:title></dc:title></cc:Work></rdf:RDF></metadata><defs
   id="defs12" /><sodipodi:namedview
   pagecolor="#ffffff"
   bordercolor="#666666"
   borderopacity="1"
   objecttolerance="10"
   gridtolerance="10"
   guidetolerance="10"
   inkscape:pageopacity="0"
   inkscape:pageshadow="2"
   inkscape:window-width="2560"
   inkscape:window-height="1017"
   id="namedview10"
   showgrid="false"
   inkscape:zoom="25.860273"
   inkscape:cx="16"
   inkscape:cy="16"
   inkscape:window-x="-8"
   inkscape:window-y="-8"
   inkscape:window-maximized="1"
   inkscape:current-layer="Layer_1" />
<style
   type="text/css"
   id="style2">
	.Red{fill:#D11C1C;}
	.Black{fill:#727272;}
	.Blue{fill:#1177D7;}
	.Green{fill:#039C23;}
	.Yellow{fill:#FFB115;}
	.White{fill:#FFFFFF;}
	.st0{opacity:0.5;}
	.st1{opacity:0.75;}
	.st2{opacity:0.25;}
</style>
<g
   id="PageSetup">
	
	<path
   class="Blue"
   d="M 27.6,27.6 21.4,21.4 C 21.8,20.7 22,19.9 22,19 c 0,-2.8 -2.2,-5 -5,-5 -0.8,0 -1.5,0.2 -2.1,0.5 l 2.7,2.7 c 0.6,0.6 0.6,1.7 0,2.4 -0.6,0.7 -1.7,0.6 -2.4,0 L 12.5,16.9 C 12.2,17.5 12,18.2 12,19 c 0,2.8 2.2,5 5,5 0.9,0 1.7,-0.2 2.4,-0.6 l 6.2,6.2 c 0.6,0.6 1.4,0.6 2,0 v 0 c 0.5,-0.6 0.5,-1.5 0,-2 z"
   id="path6" />
</g>
<g
   id="Parameters"
   transform="translate(0.01451509,0.01451472)"><path
     class="Black"
     d="M 18.795,26 6,26 V 4 h 18 l 0,17.027016 2,1.96008 L 26,3 C 26,2.4 25.6,2 25,2 H 5 C 4.4,2 4,2.4 4,3 v 24 c 0,0.6 0.4,1 1,1 l 15.871088,0 z"
     id="path4-3"
     sodipodi:nodetypes="ccccccsssssscc" /></g></svg>
