<?xml version='1.0' encoding='UTF-8'?>
<svg x="0px" y="0px" viewBox="0 0 32 32" version="1.1" xmlns="http://www.w3.org/2000/svg" xmlns:xlink="http://www.w3.org/1999/xlink" xml:space="preserve" id="Layer_1" style="enable-background:new 0 0 32 32">
  <style type="text/css">
	.Blue{fill:#1177D7;}
	.Yellow{fill:#FFB115;}
	.Red{fill:#D11C1C;}
	.Green{fill:#039C23;}
	.Black{fill:#727272;}
	.White{fill:#FFFFFF;}
	.st0{opacity:0.5;}
	.st1{opacity:0.75;}
	.st2{display:none;}
	.st3{display:inline;fill:#FFB115;}
	.st4{display:inline;}
	.st5{display:inline;opacity:0.75;}
	.st6{display:inline;opacity:0.5;}
	.st7{display:inline;fill:#039C23;}
	.st8{display:inline;fill:#D11C1C;}
	.st9{display:inline;fill:#1177D7;}
	.st10{display:inline;fill:#FFFFFF;}
</style>
  <g>
    <g class="st1">
      <path d="M22,18H10v-2h12V18z M22,8H10v2h12V8z M22,12H10v2h12V12z M22,20H10v2h12V20z" class="Black" />
    </g>
    <path d="M27,0H5C4.5,0,4,0.5,4,1v28c0,0.5,0.5,1,1,1h22c0.5,0,1-0.5,1-1V1C28,0.5,27.5,0,27,0z M26,28H6V2h20V28z" class="Black" />
  </g>
</svg>