<?xml version="1.0" encoding="UTF-8" standalone="no"?>
<svg
   xmlns:dc="http://purl.org/dc/elements/1.1/"
   xmlns:cc="http://creativecommons.org/ns#"
   xmlns:rdf="http://www.w3.org/1999/02/22-rdf-syntax-ns#"
   xmlns:svg="http://www.w3.org/2000/svg"
   xmlns="http://www.w3.org/2000/svg"
   xmlns:sodipodi="http://sodipodi.sourceforge.net/DTD/sodipodi-0.dtd"
   xmlns:inkscape="http://www.inkscape.org/namespaces/inkscape"
   version="1.1"
   id="Create_Stacked_Line_Chart"
   x="0px"
   y="0px"
   viewBox="0 0 32 32"
   style="enable-background:new 0 0 32 32;"
   xml:space="preserve"
   sodipodi:docname="branchwithextendstart.svg"
   inkscape:version="1.0.2 (e86c870879, 2021-01-15, custom)"><metadata
   id="metadata15"><rdf:RDF><cc:Work
       rdf:about=""><dc:format>image/svg+xml</dc:format><dc:type
         rdf:resource="http://purl.org/dc/dcmitype/StillImage" /><dc:title></dc:title></cc:Work></rdf:RDF></metadata><defs
   id="defs13"><marker
     style="overflow:visible"
     id="marker1341"
     refX="0.0"
     refY="0.0"
     orient="auto"
     inkscape:stockid="DotL"
     inkscape:isstock="true"><path
       transform="scale(0.8) translate(7.4, 1)"
       style="fill-rule:evenodd;stroke:#808080;stroke-width:1pt;stroke-opacity:1;fill:#808080;fill-opacity:1"
       d="M -2.5,-1.0 C -2.5,1.7600000 -4.7400000,4.0 -7.5,4.0 C -10.260000,4.0 -12.5,1.7600000 -12.5,-1.0 C -12.5,-3.7600000 -10.260000,-6.0 -7.5,-6.0 C -4.7400000,-6.0 -2.5,-3.7600000 -2.5,-1.0 z "
       id="path1339" /></marker><marker
     style="overflow:visible"
     id="marker1331"
     refX="0.0"
     refY="0.0"
     orient="auto"
     inkscape:stockid="DotL"
     inkscape:isstock="true"><path
       transform="scale(0.8) translate(7.4, 1)"
       style="fill-rule:evenodd;stroke:#808080;stroke-width:1pt;stroke-opacity:1;fill:#808080;fill-opacity:1"
       d="M -2.5,-1.0 C -2.5,1.7600000 -4.7400000,4.0 -7.5,4.0 C -10.260000,4.0 -12.5,1.7600000 -12.5,-1.0 C -12.5,-3.7600000 -10.260000,-6.0 -7.5,-6.0 C -4.7400000,-6.0 -2.5,-3.7600000 -2.5,-1.0 z "
       id="path1329" /></marker></defs><sodipodi:namedview
   pagecolor="#ffffff"
   bordercolor="#666666"
   borderopacity="1"
   objecttolerance="10"
   gridtolerance="10"
   guidetolerance="10"
   inkscape:pageopacity="0"
   inkscape:pageshadow="2"
   inkscape:window-width="2560"
   inkscape:window-height="1017"
   id="namedview11"
   showgrid="false"
   inkscape:zoom="18.285975"
   inkscape:cx="15.62007"
   inkscape:cy="15.550845"
   inkscape:window-x="-8"
   inkscape:window-y="-8"
   inkscape:window-maximized="1"
   inkscape:current-layer="Create_Stacked_Line_Chart"
   inkscape:document-rotation="0" />
<style
   type="text/css"
   id="style2">
	.Blue{fill:#1177D7;}
	.Yellow{fill:#FFB115;}
	.Red{fill:#D11C1C;}
</style>



<path
   id="path901-7"
   style="fill:#d11c1c;stroke-width:1.5;fill-opacity:1"
   d="m 26.879516,7.4309676 a 3.399104,3.3991039 45 0 0 -0.0549,-4.7532906 3.399104,3.3991039 45 0 0 -4.807152,0.00104 3.399104,3.3991039 45 0 0 -0.66602,3.8645725 L 19.161761,8.7329732 17.069443,10.82529 a 3.399104,3.3991039 45 0 0 -3.863537,0.664985 3.399104,3.3991039 45 0 0 -0.001,4.807152 3.399104,3.3991039 45 0 0 4.808187,0 3.399104,3.3991039 45 0 0 0.05386,-0.05386 3.399104,3.3991039 45 0 0 0.585227,-3.866644 l 2.076783,-2.076783 2.177253,-2.1772518 a 3.399104,3.3991039 45 0 0 3.918435,-0.6370186 3.399104,3.3991039 45 0 0 0.0549,-0.0549 z M 25.306131,5.9114503 a 1.2128962,1.2128962 0 0 1 -0.02797,0.027966 1.2128962,1.2128962 0 0 1 -1.715285,0 1.2128962,1.2128962 0 0 1 -1e-6,-1.7152862 1.2128962,1.2128962 0 0 1 1.715287,0 1.2128962,1.2128962 0 0 1 0.02796,1.6873202 z m -8.811558,8.8115567 a 1.2128962,1.2128962 0 0 1 -0.02797,0.02797 1.2128962,1.2128962 0 0 1 -1.715286,10e-7 1.2128962,1.2128962 0 0 1 0,-1.715287 1.2128962,1.2128962 0 0 1 1.659353,-0.05179 l 0.110831,0.110831 a 1.2128962,1.2128962 0 0 1 -0.02693,1.628279 z"
   class="Red" /><path
   id="path901"
   style="fill:#666666;fill-opacity:1;stroke-width:1.5"
   d="m 6.8398438,1.7089844 c -0.9133303,-0.00894 -1.7918303,0.3500574 -2.4375,0.9960937 -1.3284563,1.3276081 -1.3284563,3.4809858 0,4.8085938 0.017385,0.01777 0.034964,0.03535 0.052734,0.052734 C 5.491394,8.5581007 7.0386934,8.79254 8.3222656,8.1523438 l 2.0761724,2.0761722 2.175781,2.175781 c -0.240863,0.475228 -0.366642,1.000421 -0.367188,1.533203 -8.1e-4,1.439491 0.905206,2.723406 2.261719,3.205078 v 3.095703 1.146485 h 2.216797 v -1.146485 -3.078125 c 0.541665,-0.182095 1.028678,-0.497814 1.416015,-0.917968 0.0092,-0.0097 0.01829,-0.01948 0.02734,-0.0293 0.02587,-0.02821 0.05127,-0.05686 0.07617,-0.08594 0.0085,-0.01037 0.01699,-0.02078 0.02539,-0.03125 0.0246,-0.02954 0.04869,-0.05949 0.07227,-0.08984 0.0079,-0.01037 0.01568,-0.02079 0.02344,-0.03125 0.02332,-0.03086 0.04611,-0.06211 0.06836,-0.09375 0.0079,-0.01102 0.01569,-0.02209 0.02344,-0.0332 0.02137,-0.03155 0.0422,-0.06345 0.0625,-0.0957 l 0.002,-0.002 c 0.857825,-1.344675 0.665307,-3.104954 -0.462891,-4.232422 -1.017132,-1.017046 -2.564314,-1.283775 -3.863281,-0.666016 L 11.966797,8.6621094 9.8730469,6.5703125 C 10.492234,5.2712329 10.226243,3.72301 9.2089844,2.7050781 8.5800632,2.0757903 7.7294845,1.7181686 6.8398438,1.7089844 Z m -0.0625,2.1875 h 0.00195 c 0.3310824,-0.00726 0.6507383,0.1211621 0.8847656,0.3554687 0.4513925,0.4529292 0.4736127,1.1785014 0.050781,1.6582031 L 7.6035156,6.0214844 C 7.1346215,6.4314607 6.4314149,6.4196421 5.9765625,5.9941406 5.9666469,5.985188 5.95688,5.9760722 5.9472656,5.9667969 5.4739004,5.493183 5.4739004,4.725567 5.9472656,4.2519531 6.1678944,4.0310436 6.4652129,3.9037213 6.7773438,3.8964844 Z m 8.7949222,8.8281246 c 0.01107,-1.51e-4 0.02214,-1.51e-4 0.0332,0 0.654897,-3.36e-4 1.191796,0.519272 1.21289,1.173829 2.1e-4,0.01302 2.1e-4,0.02604 0,0.03906 -1.06e-4,0.21639 -0.0581,0.428811 -0.167968,0.615234 -6.49e-4,0.0013 -0.0013,0.0026 -0.002,0.0039 -0.0076,0.01251 -0.0154,0.02488 -0.02344,0.03711 -0.0013,0.0013 -0.0026,0.0026 -0.0039,0.0039 -0.01604,0.0247 -0.03298,0.0488 -0.05078,0.07227 -0.02975,0.03767 -0.0617,0.07354 -0.0957,0.107422 -0.462367,0.463692 -1.209316,0.476659 -1.6875,0.0293 -0.0093,-0.0096 -0.01839,-0.01938 -0.02734,-0.0293 -0.383976,-0.384486 -0.465377,-0.977434 -0.199219,-1.451172 0.01524,-0.02731 0.03153,-0.05402 0.04883,-0.08008 6.49e-4,-0.0013 0.0013,-0.0026 0.002,-0.0039 0.0039,-0.0052 0.0078,-0.01045 0.01172,-0.01563 0.221077,-0.305889 0.571949,-0.491432 0.949219,-0.501953 z"
   sodipodi:nodetypes="cccccccccccccccccccccccccccccccccccccccccccccccccccccccc" /><style
   type="text/css"
   id="style913">
	.Blue{fill:#1177D7;}
	.Yellow{fill:#FFB115;}
	.Red{fill:#D11C1C;}
	.Green{fill:#039C23;}
	.Black{fill:#727272;}
	.White{fill:#FFFFFF;}
	.st0{opacity:0.5;}
	.st1{opacity:0.75;}
	.st2{display:none;}
	.st3{display:inline;fill:#FFB115;}
	.st4{display:inline;}
	.st5{display:inline;opacity:0.75;}
	.st6{display:inline;opacity:0.5;}
	.st7{display:inline;fill:#039C23;}
	.st8{display:inline;fill:#D11C1C;}
	.st9{display:inline;fill:#1177D7;}
	.st10{display:inline;fill:#FFFFFF;}
</style><path
   class="Blue"
   d="m 16.685547,23.175781 h 7 v -0.35 -3.65 l 5,5 -5,5 v -3.65 -0.35 h -7 z"
   id="path836"
   style="fill:#1177d7;stroke-width:0.5" /></svg>
