<?xml version="1.0" encoding="UTF-8" standalone="no"?>
<!-- Generator: Adobe Illustrator 21.1.0, SVG Export Plug-In . SVG Version: 6.00 Build 0)  -->

<svg
   version="1.1"
   id="Layer_1"
   x="0px"
   y="0px"
   viewBox="0 0 32 32"
   style="enable-background:new 0 0 32 32;"
   xml:space="preserve"
   sodipodi:docname="calibrate_bn.svg"
   inkscape:version="1.3 (0e150ed6c4, 2023-07-21)"
   xmlns:inkscape="http://www.inkscape.org/namespaces/inkscape"
   xmlns:sodipodi="http://sodipodi.sourceforge.net/DTD/sodipodi-0.dtd"
   xmlns="http://www.w3.org/2000/svg"
   xmlns:svg="http://www.w3.org/2000/svg"><defs
   id="defs5">&#10;	&#10;	&#10;	&#10;	&#10;	&#10;&#10;		&#10;	</defs><sodipodi:namedview
   id="namedview5"
   pagecolor="#505050"
   bordercolor="#eeeeee"
   borderopacity="1"
   inkscape:showpageshadow="0"
   inkscape:pageopacity="0"
   inkscape:pagecheckerboard="0"
   inkscape:deskcolor="#d1d1d1"
   inkscape:zoom="12.828125"
   inkscape:cx="15.161998"
   inkscape:cy="18.046285"
   inkscape:window-width="2560"
   inkscape:window-height="1017"
   inkscape:window-x="-8"
   inkscape:window-y="-8"
   inkscape:window-maximized="1"
   inkscape:current-layer="Layer_1"
   showgrid="false" />&#10;<style
   type="text/css"
   id="style1">&#10;	.Red{fill:#D11C1C;}&#10;	.Yellow{fill:#FFB115;}&#10;	.Blue{fill:#1177D7;}&#10;	.Green{fill:#039C23;}&#10;	.Black{fill:#727272;}&#10;	.White{fill:#FFFFFF;}&#10;	.st0{opacity:0.5;}&#10;	.st1{opacity:0.75;}&#10;	.st2{opacity:0.35;}&#10;	.st3{opacity:0.65;}&#10;</style>&#10;<polygon
   class="Black"
   points="22,8 18,12 14,8 12,10 16,14 12,18 14,20 18,16 22,20 24,18 20,14 24,10 "
   id="polygon2"
   transform="rotate(45,14.636403,12.616496)" /><path
   class="Black"
   d="M 23.7,9.7 C 23.5,9.9 23.3,10 23,10 22.4,10 22,9.6 22,9 22,8.7 22.1,8.5 22.3,8.3 20.6,6.9 18.4,6 16,6 11,6 6.8,9.7 6.1,14.6 6.3,14.2 6.6,14 7,14 7.6,14 8,14.4 8,15 8,15.6 7.6,16 7,16 6.5,16 6.1,15.7 6,15.2 V 16 c 0,5.5 4.5,10 10,10 h 0.8 C 16.3,25.9 16,25.5 16,25 c 0,-0.6 0.4,-1 1,-1 0.6,0 1,0.4 1,1 0,0.4 -0.2,0.7 -0.6,0.9 C 22.3,25.2 26,21 26,16 26,13.6 25.1,11.4 23.7,9.7 Z M 16,24 C 11.6,24 8,20.4 8,16 8,13 9.6,10.5 12,9.1 V 9 c 0,-0.6 0.4,-1 1,-1 0.3,0 0.6,0.1 0.7,0.3 C 14.5,8.1 15.2,8 16,8 c 4.4,0 8,3.6 8,8 0,4.4 -3.6,8 -8,8 z M 16,0 C 7.2,0 0,7.2 0,16 0,24.8 7.2,32 16,32 24.8,32 32,24.8 32,16 32,7.2 24.8,0 16,0 Z m 0,30 C 8.3,30 2,23.7 2,16 2,8.3 8.3,2 16,2 c 7.7,0 14,6.3 14,14 0,7.7 -6.3,14 -14,14 z"
   id="path1"
   style="opacity:0.35"
   sodipodi:nodetypes="csscscssscsscssscscsscsscsssssssssssss" /><path
   class="Black"
   d="m 13,6 c -1.7,0 -3,1.3 -3,3 0,1.7 1.3,3 3,3 1.7,0 3,-1.3 3,-3 0,-1.7 -1.3,-3 -3,-3 z m 0,4 c -0.6,0 -1,-0.4 -1,-1 0,-0.6 0.4,-1 1,-1 0.6,0 1,0.4 1,1 0,0.6 -0.4,1 -1,1 z"
   id="path2" /><path
   class="Black"
   d="m 23,6 c -1.7,0 -3,1.3 -3,3 0,1.7 1.3,3 3,3 1.7,0 3,-1.3 3,-3 0,-1.7 -1.3,-3 -3,-3 z m 0,4 c -0.6,0 -1,-0.4 -1,-1 0,-0.6 0.4,-1 1,-1 0.6,0 1,0.4 1,1 0,0.6 -0.4,1 -1,1 z"
   id="path3" /><path
   class="Black"
   d="m 17,22 c -1.7,0 -3,1.3 -3,3 0,1.7 1.3,3 3,3 1.7,0 3,-1.3 3,-3 0,-1.7 -1.3,-3 -3,-3 z m 0,4 c -0.6,0 -1,-0.4 -1,-1 0,-0.6 0.4,-1 1,-1 0.6,0 1,0.4 1,1 0,0.6 -0.4,1 -1,1 z"
   id="path4" /><path
   class="Black"
   d="m 7,12 c -1.7,0 -3,1.3 -3,3 0,1.7 1.3,3 3,3 1.7,0 3,-1.3 3,-3 0,-1.7 -1.3,-3 -3,-3 z m 0,4 c -0.6,0 -1,-0.4 -1,-1 0,-0.6 0.4,-1 1,-1 0.6,0 1,0.4 1,1 0,0.6 -0.4,1 -1,1 z"
   id="path5" />&#10;</svg>
