<?xml version="1.0" encoding="UTF-8" standalone="no"?>
<!-- Generator: Adobe Illustrator 23.0.1, SVG Export Plug-In . SVG Version: 6.00 Build 0)  -->

<svg
   version="1.1"
   id="Layer_1"
   x="0px"
   y="0px"
   viewBox="0 0 32 32"
   style="enable-background:new 0 0 32 32;"
   xml:space="preserve"
   sodipodi:docname="captureworkspace.svg"
   inkscape:version="1.1 (c68e22c387, 2021-05-23)"
   xmlns:inkscape="http://www.inkscape.org/namespaces/inkscape"
   xmlns:sodipodi="http://sodipodi.sourceforge.net/DTD/sodipodi-0.dtd"
   xmlns="http://www.w3.org/2000/svg"
   xmlns:svg="http://www.w3.org/2000/svg"><defs
   id="defs15" /><sodipodi:namedview
   id="namedview13"
   pagecolor="#505050"
   bordercolor="#eeeeee"
   borderopacity="1"
   inkscape:pageshadow="0"
   inkscape:pageopacity="0"
   inkscape:pagecheckerboard="0"
   showgrid="false"
   inkscape:zoom="8"
   inkscape:cx="23.641484"
   inkscape:cy="27.387735"
   inkscape:window-width="2560"
   inkscape:window-height="1017"
   inkscape:window-x="-8"
   inkscape:window-y="-8"
   inkscape:window-maximized="1"
   inkscape:current-layer="Layer_1" />
<style
   type="text/css"
   id="style2">
	.Green{fill:#039C23;}
	.Black{fill:#727272;}
	.Blue{fill:#1177D7;}
</style>
<path
   class="Black"
   d="M 2,22 V 6 H 0 v 17 c 0,0.5 0.5,1 1,1 H 11.5125 L 11.5,22 Z"
   id="path4"
   sodipodi:nodetypes="cccssccc" />
<path
   class="Black"
   d="m 26,6 h -2 v 6 l 2,0.0047 z"
   id="path6"
   sodipodi:nodetypes="ccccc" />

<path
   class="Blue"
   d="M24,8h2V3c0-0.5-0.5-1-1-1H1C0.5,2,0,2.5,0,3v5h2H24z"
   id="path10" />
<g
   id="Photo"
   transform="matrix(0.6650641,0,0,0.6650641,12.016027,11.378205)"><path
     class="Black"
     d="M 29,8 H 24 L 20,4 H 12 L 8,8 H 3 C 2.5,8 2,8.5 2,9 v 18 c 0,0.5 0.5,1 1,1 h 26 c 0.5,0 1,-0.5 1,-1 V 9 C 30,8.5 29.5,8 29,8 Z M 8,14 c -1.1,0 -2,-0.9 -2,-2 0,-1.1 0.9,-2 2,-2 1.1,0 2,0.9 2,2 0,1.1 -0.9,2 -2,2 z m 8,10 c -3.3,0 -6,-2.7 -6,-6 0,-3.3 2.7,-6 6,-6 3.3,0 6,2.7 6,6 0,3.3 -2.7,6 -6,6 z"
     id="path4-2" /><circle
     class="Black"
     cx="16"
     cy="18"
     r="4"
     id="circle6" /></g></svg>
