<?xml version="1.0" encoding="UTF-8" standalone="no"?>
<svg
   xmlns:dc="http://purl.org/dc/elements/1.1/"
   xmlns:cc="http://creativecommons.org/ns#"
   xmlns:rdf="http://www.w3.org/1999/02/22-rdf-syntax-ns#"
   xmlns:svg="http://www.w3.org/2000/svg"
   xmlns="http://www.w3.org/2000/svg"
   xmlns:sodipodi="http://sodipodi.sourceforge.net/DTD/sodipodi-0.dtd"
   xmlns:inkscape="http://www.inkscape.org/namespaces/inkscape"
   version="1.1"
   id="Layer_1"
   x="0px"
   y="0px"
   viewBox="0 0 32 32"
   style="enable-background:new 0 0 32 32;"
   xml:space="preserve"
   sodipodi:docname="caveentrance.svg"
   inkscape:version="1.0.1 (3bc2e813f5, 2020-09-07)"><metadata
   id="metadata12"><rdf:RDF><cc:Work
       rdf:about=""><dc:format>image/svg+xml</dc:format><dc:type
         rdf:resource="http://purl.org/dc/dcmitype/StillImage" /><dc:title></dc:title></cc:Work></rdf:RDF></metadata><defs
   id="defs10" /><sodipodi:namedview
   pagecolor="#ffffff"
   bordercolor="#666666"
   borderopacity="1"
   objecttolerance="10"
   gridtolerance="10"
   guidetolerance="10"
   inkscape:pageopacity="0"
   inkscape:pageshadow="2"
   inkscape:window-width="2560"
   inkscape:window-height="1017"
   id="namedview8"
   showgrid="false"
   inkscape:zoom="13.28125"
   inkscape:cx="4.9628547"
   inkscape:cy="20.664688"
   inkscape:window-x="-8"
   inkscape:window-y="-8"
   inkscape:window-maximized="1"
   inkscape:current-layer="Layer_1"
   inkscape:document-rotation="0" />
<style
   type="text/css"
   id="style2">
	.Black{fill:#727272;}
	.Yellow{fill:#FFB115;}
	.Blue{fill:#1177D7;}
	.Green{fill:#039C23;}
	.Red{fill:#D11C1C;}
	.White{fill:#FFFFFF;}
	.st0{opacity:0.75;}
	.st1{opacity:0.5;}
	.st2{opacity:0.25;}
</style>

<g
   style="enable-background:new"
   id="g843"
   transform="matrix(2.2208403,0,0,2.2208403,0.52941218,-0.90117652)"><rect
     width="14"
     height="14"
     x="0"
     y="0"
     id="canvas"
     style="visibility:hidden;fill:none;stroke:none" /><path
     style="fill:#666666;stroke-width:1.09152"
     d="m 7.0215385,5.2910276 a 4.4964836,4.4964836 0 0 0 -4.4909917,4.4950158 4.4964836,4.4964836 0 0 0 0.00604,0.2273666 h 8.9799712 a 4.4964836,4.4964836 0 0 0 0.0061,-0.2273666 4.4964836,4.4964836 0 0 0 -4.4970274,-4.4950158 4.4964836,4.4964836 0 0 0 -0.00403,0 z"
     id="path864" /><path
     style="fill:#000000;stroke-width:1.05953"
     d="m 6.9514338,3.0973943 a 6.6964707,6.6964707 0 0 0 -6.62109328,6.6953125 6.6964707,6.6964707 0 0 0 0.0039,0.2207032 H 1.4533806 a 5.5764704,5.5764704 0 0 1 -0.00391,-0.2207032 5.5764704,5.5764704 0 0 1 5.5546875,-5.5761718 5.5764704,5.5764704 0 0 1 0.021484,0 5.5764704,5.5764704 0 0 1 5.5761719,5.5761718 5.5764704,5.5764704 0 0 1 -0.0059,0.2207032 h 1.123047 a 6.6964707,6.6964707 0 0 0 0.0039,-0.2207032 6.6964707,6.6964707 0 0 0 -6.6972649,-6.6953125 6.6964707,6.6964707 0 0 0 -0.074219,0 z"
     id="path832" /></g></svg>
