<?xml version="1.0" encoding="UTF-8" standalone="no"?>
<svg
   version="1.1"
   id="Create_Stacked_Line_Chart"
   x="0px"
   y="0px"
   viewBox="0 0 32 32"
   style="enable-background:new 0 0 32 32;"
   xml:space="preserve"
   sodipodi:docname="connections_1_3ormore.svg"
   inkscape:version="1.1 (c68e22c387, 2021-05-23)"
   xmlns:inkscape="http://www.inkscape.org/namespaces/inkscape"
   xmlns:sodipodi="http://sodipodi.sourceforge.net/DTD/sodipodi-0.dtd"
   xmlns="http://www.w3.org/2000/svg"
   xmlns:svg="http://www.w3.org/2000/svg"
   xmlns:rdf="http://www.w3.org/1999/02/22-rdf-syntax-ns#"
   xmlns:cc="http://creativecommons.org/ns#"
   xmlns:dc="http://purl.org/dc/elements/1.1/"><metadata
   id="metadata15"><rdf:RDF><cc:Work
       rdf:about=""><dc:format>image/svg+xml</dc:format><dc:type
         rdf:resource="http://purl.org/dc/dcmitype/StillImage" /></cc:Work></rdf:RDF></metadata><defs
   id="defs13" /><sodipodi:namedview
   pagecolor="#ffffff"
   bordercolor="#666666"
   borderopacity="1"
   objecttolerance="10"
   gridtolerance="10"
   guidetolerance="10"
   inkscape:pageopacity="0"
   inkscape:pageshadow="2"
   inkscape:window-width="2560"
   inkscape:window-height="1017"
   id="namedview11"
   showgrid="false"
   inkscape:zoom="18.285974"
   inkscape:cx="25.976193"
   inkscape:cy="17.964588"
   inkscape:window-x="-8"
   inkscape:window-y="-8"
   inkscape:window-maximized="1"
   inkscape:current-layer="g990"
   inkscape:document-rotation="0"
   inkscape:pagecheckerboard="0" />
<style
   type="text/css"
   id="style2">
	.Blue{fill:#1177D7;}
	.Yellow{fill:#FFB115;}
	.Red{fill:#D11C1C;}
</style>



<style
   type="text/css"
   id="style839">
	.Black{fill:#727272;}
</style><style
   type="text/css"
   id="style852">
	.Black{fill:#727272;}
	.Red_x0020_2{fill:#D11C1C;}
</style><style
   type="text/css"
   id="style2-8">
	.Blue{fill:#1177D7;}
	.Yellow{fill:#FFB115;}
	.Red{fill:#D11C1C;}
</style><g
   id="g990"
   transform="rotate(154.11303,-1.6269202,15.756856)"
   style="fill:#039c23;fill-opacity:1"><path
     id="path4-1"
     style="fill:#039c23;fill-opacity:1"
     class="Green"
     d="m -16.136151,20.509424 c 1.134237,0.610432 2.531004,0.427659 3.507694,-0.549032 1.322024,-1.282171 1.226767,-3.087793 0.0023,-4.38425 -0.565686,-0.565685 -1.274499,-0.849281 -2.052317,-0.919991 l -1.272511,-3.524463 c 0.08651,-0.07016 0.171301,-0.143756 0.252408,-0.224863 0.01907,-0.01849 0.03501,-0.03783 0.05349,-0.05654 0.01424,-0.01374 0.02914,-0.02575 0.04321,-0.03982 0.59386,-0.593859 0.8923,-1.3438416 0.899396,-2.0948757 l 3.629427,-1.2606494 0.281143,0.2840618 c 1.2020811,1.2020815 3.0423728,1.2016383 4.2444547,-4.435e-4 1.2020815,-1.2020808 1.2007852,-3.0406147 -0.0013,-4.2426966 -1.2821708,-1.3220239 -3.0877932,-1.2267873 -4.3842511,-0.00227 -0.565684,0.5656854 -0.849278,1.2744983 -0.91999,2.0523163 l -3.52361,1.2707535 c -0.0697,-0.085802 -0.14609,-0.1684146 -0.226569,-0.2488938 -0.596912,-0.6154658 -1.306706,-0.9208934 -2.026477,-0.9508704 -0.04028,-0.00487 -0.08006,-0.011471 -0.120725,-0.015168 l -1.301452,-3.6079793 0.283158,-0.2837524 c 1.202082,-1.20208177 1.200786,-3.0406156 -0.0013,-4.2426966 -1.202081,-1.2020815 -3.110473,-1.1318322 -4.241844,-4.613e-4 -1.202083,1.2020813 -1.202543,3.03976245 -4.61e-4,4.2418435 0.565684,0.5656859 1.27189,0.8501846 2.049707,0.9208957 l 1.274216,3.6685756 c -0.02285,0.018145 -0.04421,0.037811 -0.06659,0.056693 -0.06328,0.052136 -0.124576,0.1083699 -0.184965,0.166412 -0.0024,0.00236 -0.0037,0.00557 -0.006,0.00793 -0.01335,0.012913 -0.0283,0.023103 -0.0415,0.036306 -0.07509,0.075094 -0.145937,0.1540213 -0.211245,0.2339848 -0.0034,0.00413 -0.0052,0.00906 -0.0086,0.013204 -0.06108,0.075669 -0.119272,0.1538354 -0.171941,0.2335191 -0.005,0.0077 -0.0087,0.016015 -0.0137,0.023748 -0.299323,0.4619252 -0.463447,0.9859492 -0.514531,1.5478609 l -3.608832,1.3032088 -0.2829,-0.2849145 c -1.202082,-1.202082 -3.040616,-1.2007856 -4.242697,0.0013 -1.202082,1.2020809 -1.131832,3.1104729 -4.61e-4,4.2418439 1.202082,1.202082 3.041519,1.203395 4.243601,0.0013 0.565685,-0.565685 0.848427,-1.272742 0.919138,-2.050559 l 3.645086,-1.266077 c 0.08899,0.118069 0.183691,0.232967 0.292307,0.341584 0.593676,0.593675 1.34322,0.893879 2.094023,0.901153 l 1.261502,3.62767 -0.283158,0.283753 c -1.202082,1.202081 -1.202542,3.039762 -4.61e-4,4.241844 0.225391,0.22539 0.472403,0.408625 0.73415,0.549493 z m 1.020898,-1.866576 c -0.119325,-0.05303 -0.233941,-0.13275 -0.340007,-0.238816 -0.424264,-0.424265 -0.424395,-0.989098 -1.31e-4,-1.413362 0.424264,-0.424264 0.989951,-0.426152 1.414215,-0.0019 0.424264,0.424264 0.425299,0.991708 0.001,1.415972 -0.318198,0.318198 -0.717139,0.397193 -1.075112,0.238094 z m -12.171238,-5.93918 c -0.119324,-0.05303 -0.234793,-0.130992 -0.340859,-0.237058 -0.424265,-0.424264 -0.423542,-0.990856 7.21e-4,-1.41512 0.424266,-0.424264 0.989099,-0.424395 1.413363,-1.3e-4 0.424265,0.424264 0.424395,0.989098 1.3e-4,1.413362 -0.318197,0.318198 -0.715382,0.398045 -1.073355,0.238946 z m 9.101088,-3.1143877 c -0.119324,-0.053033 -0.235698,-0.1336022 -0.341764,-0.2396682 -0.424264,-0.4242645 -0.424394,-0.9890984 -1.31e-4,-1.4133622 0.01157,-0.010501 0.02282,-0.021087 0.03457,-0.030983 0.413286,-0.3480289 0.93613,-0.3235614 1.333878,0.074186 0.421873,0.4218727 0.422417,0.9837374 0.0053,1.4071867 -0.0024,0.0024 -0.0036,0.00554 -0.006,0.00793 -0.309675,0.2800728 -0.685542,0.3459486 -1.025835,0.1947078 z m 9.0069,-3.0276677 C -9.2978272,6.5085795 -9.4124443,6.428863 -9.5185101,6.322797 -9.9427743,5.8985325 -9.9429045,5.3336986 -9.5186404,4.9094353 c 0.4242636,-0.4242647 0.9890979,-0.4243957 1.4133621,-1.312e-4 0.4242634,0.4242641 0.4243944,0.9890984 1.304e-4,1.4133617 C -8.4233455,6.6408646 -8.8205303,6.720712 -9.178503,6.5616126 Z M -21.25731,0.53486063 c -0.119324,-0.0530331 -0.23394,-0.13275047 -0.340006,-0.23881649 -0.424265,-0.4242636 -0.423542,-0.99085453 7.22e-4,-1.41511874 0.424264,-0.4242647 0.989098,-0.4243948 1.413362,-1.312e-4 0.424265,0.42426449 0.423542,0.99085543 -7.22e-4,1.41511964 -0.318198,0.31819792 -0.715382,0.39804526 -1.073356,0.23894679 z" /></g><style
   type="text/css"
   id="style827">
	.Green{fill:#039C23;}
	.Black{fill:#727272;}
</style></svg>
