<?xml version="1.0" encoding="UTF-8" standalone="no"?>
<svg
   version="1.1"
   id="Create_Stacked_Line_Chart"
   x="0px"
   y="0px"
   viewBox="0 0 32 32"
   style="enable-background:new 0 0 32 32;"
   xml:space="preserve"
   sodipodi:docname="connections_1_2.svg"
   inkscape:version="1.1 (c68e22c387, 2021-05-23)"
   xmlns:inkscape="http://www.inkscape.org/namespaces/inkscape"
   xmlns:sodipodi="http://sodipodi.sourceforge.net/DTD/sodipodi-0.dtd"
   xmlns="http://www.w3.org/2000/svg"
   xmlns:svg="http://www.w3.org/2000/svg"
   xmlns:rdf="http://www.w3.org/1999/02/22-rdf-syntax-ns#"
   xmlns:cc="http://creativecommons.org/ns#"
   xmlns:dc="http://purl.org/dc/elements/1.1/"><metadata
   id="metadata15"><rdf:RDF><cc:Work
       rdf:about=""><dc:format>image/svg+xml</dc:format><dc:type
         rdf:resource="http://purl.org/dc/dcmitype/StillImage" /></cc:Work></rdf:RDF></metadata><defs
   id="defs13" /><sodipodi:namedview
   pagecolor="#ffffff"
   bordercolor="#666666"
   borderopacity="1"
   objecttolerance="10"
   gridtolerance="10"
   guidetolerance="10"
   inkscape:pageopacity="0"
   inkscape:pageshadow="2"
   inkscape:window-width="2560"
   inkscape:window-height="1017"
   id="namedview11"
   showgrid="false"
   inkscape:zoom="18.285974"
   inkscape:cx="35.601056"
   inkscape:cy="18.566142"
   inkscape:window-x="-8"
   inkscape:window-y="-8"
   inkscape:window-maximized="1"
   inkscape:current-layer="g990"
   inkscape:document-rotation="0"
   inkscape:pagecheckerboard="0" />
<style
   type="text/css"
   id="style2">
	.Blue{fill:#1177D7;}
	.Yellow{fill:#FFB115;}
	.Red{fill:#D11C1C;}
</style>



<style
   type="text/css"
   id="style839">
	.Black{fill:#727272;}
</style><style
   type="text/css"
   id="style852">
	.Black{fill:#727272;}
	.Red_x0020_2{fill:#D11C1C;}
</style><style
   type="text/css"
   id="style2-8">
	.Blue{fill:#1177D7;}
	.Yellow{fill:#FFB115;}
	.Red{fill:#D11C1C;}
</style><g
   id="g990"
   transform="rotate(154.11303,-1.6269202,15.756856)"
   style="fill:#039c23;fill-opacity:1"><path
     id="path4-1"
     style="fill:#039c23;fill-opacity:1"
     class="Green"
     d="m -29.549754,13.826221 c 1.134237,0.610432 2.531003,0.427659 3.507694,-0.549033 0.565685,-0.565685 0.848427,-1.272743 0.919138,-2.05056 l 3.503301,-1.21548 c 0.09539,0.130145 0.198244,0.256436 0.317164,0.375356 1.167782,1.167782 2.93436,1.198061 4.136415,0.09692 0.0713,-0.05467 0.14054,-0.112658 0.208454,-0.174552 l 3.521263,1.704502 -0.0014,0.400964 c 0,1.7 1.301124,2.999981 3.001124,2.999982 1.6999994,0 2.9991275,-1.299367 2.9991275,-2.999367 0.02818,-1.841444 -1.3166923,-3.0510268 -3.0992915,-3.101895 -0.799999,-3e-7 -1.501824,0.3014392 -2.101824,0.801439 L -15.982686,8.5415513 C -15.837623,7.6363666 -16.124701,6.6862229 -16.84653,5.964394 -17.516087,5.2740255 -18.327767,4.9721903 -19.135932,5.0140145 l -1.277936,-3.5401226 0.284914,-0.2829001 c 1.202082,-1.20208178 1.200787,-3.0406152 -0.0013,-4.2426966 -1.20208,-1.2020811 -3.110472,-1.1318318 -4.241844,-4.613e-4 -1.202082,1.2020817 -1.202542,3.03976288 -4.6e-4,4.2418439 0.565684,0.5656859 1.27189,0.8501846 2.049706,0.9208953 l 1.279591,3.6798675 c -0.03883,0.03301 -0.07439,0.069522 -0.111449,0.1043951 -0.02538,0.022781 -0.05106,0.043666 -0.07607,0.067288 -0.313096,0.3130971 -0.53608,0.6716603 -0.688024,1.059868 -0.15236,0.3228562 -0.243675,0.6631892 -0.271967,1.0077725 l -3.568832,1.287885 -0.2829,-0.2849145 c -1.202082,-1.202082 -3.040616,-1.2007856 -4.242697,0.0013 -1.202082,1.2020813 -1.131832,3.1104733 -4.61e-4,4.2418433 0.22539,0.225391 0.47416,0.409478 0.735907,0.550347 z m 1.019941,-1.725928 c -0.119324,-0.05303 -0.234793,-0.130993 -0.340859,-0.237059 -0.424265,-0.424263 -0.423542,-0.990855 7.21e-4,-1.415119 0.424266,-0.424264 0.989099,-0.424395 1.413363,-1.31e-4 0.424265,0.424265 0.424395,0.989099 1.3e-4,1.413362 -0.318197,0.318199 -0.715382,0.398046 -1.073355,0.238947 z m 17.49576,1.100599 c -0.313134,-0.158446 -0.502311,-0.476044 -0.50231,-0.888544 -1e-6,-0.6 0.399709,-0.999789 0.999709,-0.999789 0.6000005,0 0.9997884,0.399709 0.9997892,0.999709 -6e-7,0.600001 -0.3997096,0.999789 -0.9997102,0.99979 -0.1875,-1e-6 -0.355143,-0.03914 -0.497478,-0.111166 z m -8.470306,-4.1843917 c -0.109305,-0.052707 -0.214143,-0.127422 -0.311893,-0.2251719 -0.101977,-0.1019765 -0.178911,-0.2130593 -0.231866,-0.3274492 -0.04028,-0.1148543 -0.06217,-0.2431674 -0.06217,-0.3818678 0,-0.1365144 0.02115,-0.2611297 0.06021,-0.3745812 0.05299,-0.1155606 0.131604,-0.2282745 0.234552,-0.3312219 0.06801,-0.068007 0.138763,-0.1240313 0.212873,-0.1702354 0.372198,-0.1942932 0.795963,-0.1248839 1.131082,0.2102349 0.424264,0.4242645 0.423542,0.9908559 -7.22e-4,1.4151201 -0.07179,0.071789 -0.148257,0.1290209 -0.226774,0.176515 -0.0048,0.00289 -0.01,0.00524 -0.01476,0.00804 -0.118688,0.04378 -0.251878,0.065841 -0.396674,0.065842 -0.143406,-5e-7 -0.276034,-0.022251 -0.393858,-0.065221 z m -3.1132,-9.00064623 c -0.119324,-0.05303313 -0.23394,-0.13275048 -0.340007,-0.23881559 -0.424264,-0.42426451 -0.425298,-0.99170808 -0.001,-1.41597278 0.424265,-0.4242642 0.990856,-0.4235417 1.41512,7.219e-4 0.424264,0.4242641 0.423542,0.99085546 -7.23e-4,1.41511967 -0.318198,0.31819749 -0.715381,0.39804526 -1.073355,0.2389468 z" /></g><style
   type="text/css"
   id="style827">
	.Green{fill:#039C23;}
	.Black{fill:#727272;}
</style></svg>
