<?xml version="1.0" encoding="UTF-8" standalone="no"?>
<svg
   version="1.1"
   id="Create_Stacked_Line_Chart"
   x="0px"
   y="0px"
   viewBox="0 0 32 32"
   style="enable-background:new 0 0 32 32;"
   xml:space="preserve"
   sodipodi:docname="connections_1_1.svg"
   inkscape:version="1.1 (c68e22c387, 2021-05-23)"
   xmlns:inkscape="http://www.inkscape.org/namespaces/inkscape"
   xmlns:sodipodi="http://sodipodi.sourceforge.net/DTD/sodipodi-0.dtd"
   xmlns="http://www.w3.org/2000/svg"
   xmlns:svg="http://www.w3.org/2000/svg"
   xmlns:rdf="http://www.w3.org/1999/02/22-rdf-syntax-ns#"
   xmlns:cc="http://creativecommons.org/ns#"
   xmlns:dc="http://purl.org/dc/elements/1.1/"><metadata
   id="metadata15"><rdf:RDF><cc:Work
       rdf:about=""><dc:format>image/svg+xml</dc:format><dc:type
         rdf:resource="http://purl.org/dc/dcmitype/StillImage" /></cc:Work></rdf:RDF></metadata><defs
   id="defs13" /><sodipodi:namedview
   pagecolor="#ffffff"
   bordercolor="#666666"
   borderopacity="1"
   objecttolerance="10"
   gridtolerance="10"
   guidetolerance="10"
   inkscape:pageopacity="0"
   inkscape:pageshadow="2"
   inkscape:window-width="2560"
   inkscape:window-height="1017"
   id="namedview11"
   showgrid="false"
   inkscape:zoom="6.4650683"
   inkscape:cx="62.799028"
   inkscape:cy="38.746691"
   inkscape:window-x="-8"
   inkscape:window-y="-8"
   inkscape:window-maximized="1"
   inkscape:current-layer="g990"
   inkscape:document-rotation="0"
   inkscape:pagecheckerboard="0" />
<style
   type="text/css"
   id="style2">
	.Blue{fill:#1177D7;}
	.Yellow{fill:#FFB115;}
	.Red{fill:#D11C1C;}
</style>



<style
   type="text/css"
   id="style839">
	.Black{fill:#727272;}
</style><style
   type="text/css"
   id="style852">
	.Black{fill:#727272;}
	.Red_x0020_2{fill:#D11C1C;}
</style><style
   type="text/css"
   id="style2-8">
	.Blue{fill:#1177D7;}
	.Yellow{fill:#FFB115;}
	.Red{fill:#D11C1C;}
</style><g
   id="g990"
   transform="rotate(154.11303,-1.6269202,15.756856)"
   style="fill:#039c23;fill-opacity:1"><path
     id="path4-1"
     style="fill:#039c23;fill-opacity:1"
     class="Green"
     d="m -10.64831,15.661092 c 0.425659,0.226441 0.9186249,0.354089 1.4498748,0.354089 1.6999999,0 2.999128,-1.299367 2.999128,-2.999366 0.02818,-1.841445 -1.3166923,-3.0510276 -3.0992916,-3.1018957 -0.7999992,-4e-7 -1.5018242,0.3014387 -2.1018242,0.8014387 l -3.389813,-1.5951193 c 0.01145,-0.1102615 0.017,-0.2206205 0.017,-0.3347606 0.02146,-1.4025193 -0.753701,-2.436538 -1.912084,-2.8731063 -0.03307,-0.013601 -0.06804,-0.023897 -0.101759,-0.036358 -0.334262,-0.1235459 -0.699389,-0.1924313 -1.085449,-0.1924312 -0.100022,-10e-8 -0.198028,0.00365 -0.295096,0.013101 -0.0062,5.849e-4 -0.01217,0.00134 -0.01832,0.00196 -0.01361,0.00141 -0.02655,0.005 -0.0401,0.00659 -0.08886,0.010176 -0.177086,0.023931 -0.263313,0.041551 -0.09892,0.020213 -0.195427,0.046378 -0.290859,0.075945 -0.433988,0.1344622 -0.832181,0.3596161 -1.193279,0.6605313 l -3.472347,-1.6308314 -0.0012,-0.4000597 c 0,-1.6999999 -1.299367,-2.999128 -2.999367,-2.9991273 -1.7,-1e-7 -2.999128,1.3993654 -2.999128,2.9993662 0,1.6999999 1.299366,2.999128 2.999366,2.9991281 0.8,0 1.50012,-0.2979255 2.10012,-0.7979255 l 3.494905,1.6917108 c -0.01284,0.1113826 -0.02046,0.2235842 -0.02046,0.3374233 0,0.8682084 0.34008,1.6308977 0.898341,2.1705607 0.541185,0.577247 1.3163,0.931334 2.200951,0.931334 0.839849,0 1.581843,-0.317508 2.117923,-0.843559 l 3.456248,1.672951 -0.0014,0.400964 c 0,1.16875 0.614799,2.147723 1.551249,2.645892 z m 0.8523925,-1.859341 c -0.3131345,-0.158447 -0.5023105,-0.476044 -0.5023105,-0.888545 -10e-7,-0.6 0.3997092,-0.999789 0.9997088,-0.999788 0.600001,-10e-7 0.9997889,0.399709 0.9997896,0.999709 -5e-7,0.6 -0.3997095,0.999788 -0.9997099,0.999789 -0.1875003,0 -0.3551433,-0.03914 -0.497478,-0.111165 z M -18.369844,9.571414 c -0.313135,-0.1584466 -0.502311,-0.4760441 -0.50231,-0.8885444 -1e-6,-0.6 0.399709,-0.9997889 0.999708,-0.9997887 0.600001,-3e-7 0.999789,0.399709 0.99979,0.9997091 -1e-6,0.6000005 -0.399709,0.9997889 -0.99971,0.9997891 -0.187499,4e-7 -0.355143,-0.039143 -0.497478,-0.1111651 z M -26.94377,5.3410778 c -0.313135,-0.1584471 -0.502311,-0.4760446 -0.502311,-0.8885448 -1e-6,-0.6000001 0.399709,-0.9997889 0.999709,-0.9997887 0.600001,-3e-7 0.999789,0.3997094 0.999789,0.999709 0,0.6000006 -0.399709,0.9997889 -0.99971,0.9997892 -0.187499,3e-7 -0.355143,-0.039143 -0.497477,-0.1111647 z" /></g><style
   type="text/css"
   id="style827">
	.Green{fill:#039C23;}
	.Black{fill:#727272;}
</style></svg>
