<?xml version="1.0" encoding="UTF-8" standalone="no"?>
<!-- Generator: Adobe Illustrator 21.1.0, SVG Export Plug-In . SVG Version: 6.00 Build 0)  -->

<svg
   version="1.1"
   id="Layer_1"
   x="0px"
   y="0px"
   viewBox="0 0 32 32"
   style="enable-background:new 0 0 32 32;"
   xml:space="preserve"
   sodipodi:docname="connected.svg"
   inkscape:version="1.1 (c68e22c387, 2021-05-23)"
   xmlns:inkscape="http://www.inkscape.org/namespaces/inkscape"
   xmlns:sodipodi="http://sodipodi.sourceforge.net/DTD/sodipodi-0.dtd"
   xmlns="http://www.w3.org/2000/svg"
   xmlns:svg="http://www.w3.org/2000/svg"><defs
   id="defs10" /><sodipodi:namedview
   id="namedview8"
   pagecolor="#ffffff"
   bordercolor="#666666"
   borderopacity="1.0"
   inkscape:pageshadow="2"
   inkscape:pageopacity="0.0"
   inkscape:pagecheckerboard="0"
   showgrid="false"
   inkscape:zoom="13"
   inkscape:cx="20.807692"
   inkscape:cy="19.807692"
   inkscape:window-width="2560"
   inkscape:window-height="1017"
   inkscape:window-x="-8"
   inkscape:window-y="-8"
   inkscape:window-maximized="1"
   inkscape:current-layer="Layer_1" />
<style
   type="text/css"
   id="style2">
	.Blue{fill:#1177D7;}
	.Green{fill:#039C23;}
	.Yellow{fill:#FFB115;}
	.Black{fill:#727272;}
	.White{fill:#FFFFFF;}
	.Red{fill:#D11C1C;}
	.st0{opacity:0.75;}
</style>
<path
   class="Blue"
   d="m 16.049232,1.676923 c -7.8269241,0 -14.2307703,6.4038462 -14.2307703,14.230775 0,7.826924 6.4038462,14.23077 14.2307703,14.23077 7.826922,0 14.230768,-6.403846 14.230768,-14.23077 0,-7.8269288 -6.403846,-14.230775 -14.230768,-14.230775 z m 9.819229,8.538462 H 21.172307 C 20.887692,8.2230762 20.318462,6.5153843 19.749232,5.0923073 c 2.561538,0.9961539 4.838459,2.8461539 6.119229,5.1230777 z m -6.973076,5.692313 c 0,0.996155 0,1.992308 -0.142308,2.846155 h -5.55 c 0,-0.853847 -0.142307,-1.85 -0.142307,-2.846155 0,-0.996153 0,-1.992307 0.142307,-2.846153 h 5.55 c 0.142308,0.853846 0.142308,1.85 0.142308,2.846153 z m -2.846153,11.384616 c -0.996155,0 -1.992308,-2.276923 -2.419232,-5.692308 h 4.980769 c -0.569231,3.415385 -1.565384,5.692308 -2.561537,5.692308 z M 13.63,10.215385 c 0.426924,-3.4153848 1.423077,-5.6923085 2.419232,-5.6923085 0.996153,0 1.992306,2.2769237 2.419229,5.6923085 z M 12.349232,5.0923073 C 11.78,6.5153843 11.210769,8.2230762 10.926154,10.215385 H 6.2300002 C 7.5107694,7.9384612 9.7876925,6.0884612 12.349232,5.0923073 Z M 5.0915387,13.061545 H 10.49923 c -0.142307,0.853846 -0.142307,1.85 -0.142307,2.846153 0,0.996155 0,1.992308 0.142307,2.846155 H 5.0915387 c -0.2846155,-0.853847 -0.4269232,-1.85 -0.4269232,-2.846155 0,-0.996153 0.1423077,-1.992307 0.4269232,-2.846153 z m 1.1384615,8.538461 h 4.6961538 c 0.284615,1.992308 0.853846,3.7 1.423078,5.123077 C 9.7876925,25.72693 7.5107694,23.87693 6.2300002,21.600006 Z m 13.5192318,5.123077 c 0.56923,-1.423077 1.13846,-3.130769 1.423075,-5.123077 h 4.696154 c -1.28077,2.276924 -3.557691,4.126924 -6.119229,5.123077 z m 7.257692,-7.96923 h -5.407693 c 0.142307,-0.853847 0.142307,-1.85 0.142307,-2.846155 0,-0.996153 0,-1.992307 -0.142307,-2.846153 h 5.407693 c 0.284615,0.853846 0.426923,1.85 0.426923,2.846153 0,0.996155 -0.142308,1.992308 -0.426923,2.846155 z"
   id="path6"
   style="fill:#1177d7;stroke-width:1.42308" />
</svg>
