<?xml version="1.0" encoding="UTF-8" standalone="no"?>
<svg
   version="1.1"
   id="Create_Stacked_Line_Chart"
   x="0px"
   y="0px"
   viewBox="0 0 32 32"
   style="enable-background:new 0 0 32 32;"
   xml:space="preserve"
   sodipodi:docname="connections_custom.svg"
   inkscape:version="1.1 (c68e22c387, 2021-05-23)"
   xmlns:inkscape="http://www.inkscape.org/namespaces/inkscape"
   xmlns:sodipodi="http://sodipodi.sourceforge.net/DTD/sodipodi-0.dtd"
   xmlns="http://www.w3.org/2000/svg"
   xmlns:svg="http://www.w3.org/2000/svg"
   xmlns:rdf="http://www.w3.org/1999/02/22-rdf-syntax-ns#"
   xmlns:cc="http://creativecommons.org/ns#"
   xmlns:dc="http://purl.org/dc/elements/1.1/"><metadata
   id="metadata15"><rdf:RDF><cc:Work
       rdf:about=""><dc:format>image/svg+xml</dc:format><dc:type
         rdf:resource="http://purl.org/dc/dcmitype/StillImage" /></cc:Work></rdf:RDF></metadata><defs
   id="defs13" /><sodipodi:namedview
   pagecolor="#ffffff"
   bordercolor="#666666"
   borderopacity="1"
   objecttolerance="10"
   gridtolerance="10"
   guidetolerance="10"
   inkscape:pageopacity="0"
   inkscape:pageshadow="2"
   inkscape:window-width="2560"
   inkscape:window-height="1017"
   id="namedview11"
   showgrid="false"
   inkscape:zoom="9.1429872"
   inkscape:cx="-12.140452"
   inkscape:cy="25.86682"
   inkscape:window-x="-8"
   inkscape:window-y="-8"
   inkscape:window-maximized="1"
   inkscape:current-layer="g990"
   inkscape:document-rotation="0"
   inkscape:pagecheckerboard="0" />
<style
   type="text/css"
   id="style2">
	.Blue{fill:#1177D7;}
	.Yellow{fill:#FFB115;}
	.Red{fill:#D11C1C;}
</style>



<style
   type="text/css"
   id="style839">
	.Black{fill:#727272;}
</style><style
   type="text/css"
   id="style852">
	.Black{fill:#727272;}
	.Red_x0020_2{fill:#D11C1C;}
</style><style
   type="text/css"
   id="style2-8">
	.Blue{fill:#1177D7;}
	.Yellow{fill:#FFB115;}
	.Red{fill:#D11C1C;}
</style><g
   id="g990"
   transform="rotate(154.11303,-1.6269202,15.756856)"
   style="fill:#039c23;fill-opacity:1"><g
     id="g10081"
     transform="translate(2.5917439,1.2577549)"><path
       id="path4-1"
       style="fill:#039c23;fill-opacity:1"
       class="Green"
       d="m 10.771484,11.902344 c -0.436254,0.0054 -0.8823511,0.107658 -1.3124996,0.316406 -1.5294171,0.742215 -2.1308871,2.478395 -1.3886719,4.007812 0.7786168,1.668972 2.5166415,2.170014 4.1425785,1.4375 0.719725,-0.349277 1.219519,-0.926884 1.541015,-1.638671 l 1.96875,-0.02344 v -2.035156 l -2.080078,0.002 -0.173828,-0.361328 c -0.533467,-1.099269 -1.582394,-1.718787 -2.697266,-1.705078 z m 0.191407,2.046875 c 0.350891,0.0058 0.659747,0.208969 0.839843,0.580078 0.261959,0.539794 0.0769,1.073979 -0.46289,1.335937 -0.539795,0.261959 -1.073979,0.0769 -1.335938,-0.46289 -0.2619581,-0.539795 -0.076903,-1.073979 0.462891,-1.335938 0.168686,-0.08186 0.336597,-0.119839 0.496094,-0.117187 z"
       transform="rotate(-154.11303,-1.6269202,15.756856)" /><path
       id="path4-1-4"
       style="fill:#039c23;fill-opacity:1"
       class="Green"
       d="m -26.364121,1.1849242 c -0.394836,-0.18560902 -0.840816,-0.28837702 -1.318941,-0.28837702 -1.7,0 -2.999128,1.29936652 -2.999128,2.99936642 -0.02818,1.8414445 1.316692,3.0510274 3.099291,3.1018954 0.799999,0 1.501824,-0.3014393 2.101824,-0.8014392 l 1.781434,0.8384622 0.888544,-1.830942 -1.87223,-0.9063569 0.0014,-0.4009641 c 0,-1.2218754 -0.673195,-2.2371878 -1.682182,-2.7116048 z m -0.721459,1.9250533 c 0.313149,0.1584161 0.502311,0.4760442 0.50231,0.8885444 10e-7,0.6000001 -0.399712,0.9997872 -0.999708,0.9997888 -0.600001,2e-7 -0.999788,-0.3997126 -0.99979,-0.9997091 0,-0.6000006 0.39971,-0.9997885 0.99971,-0.9997892 0.187499,1.9e-6 0.355143,0.039143 0.497478,0.1111651 z" /><rect
       style="fill:#727272;fill-opacity:1;stroke-width:1.49795"
       id="rect7145"
       width="6.228713"
       height="2.0307279"
       x="-18.775129"
       y="-13.958129"
       transform="rotate(-64.11303)" /><rect
       style="fill:#727272;fill-opacity:1;stroke-width:1.49795"
       id="rect7145-1"
       width="6.228713"
       height="2.0307279"
       x="-18.775129"
       y="-18.258356"
       transform="rotate(-64.11303)" /></g></g><style
   type="text/css"
   id="style827">
	.Green{fill:#039C23;}
	.Black{fill:#727272;}
</style><style
   type="text/css"
   id="style1163">
	.Yellow{fill:#FFB115;}
	.Red{fill:#D11C1C;}
	.Blue{fill:#1177D7;}
	.Green{fill:#039C23;}
	.Black{fill:#727272;}
	.White{fill:#FFFFFF;}
	.st0{opacity:0.5;}
	.st1{display:none;}
	.st2{display:inline;fill:#039C23;}
	.st3{display:inline;fill:#D11C1C;}
	.st4{display:inline;fill:#727272;}
</style><style
   type="text/css"
   id="style2-87">
	.Black{fill:#727272;}
</style><style
   type="text/css"
   id="style836">
	.Red{fill:#D11C1C;}
	.Yellow{fill:#FFB115;}
	.Green{fill:#039C23;}
</style><style
   type="text/css"
   id="style878">
	.Black{fill:#727272;}
</style></svg>
