<?xml version='1.0' encoding='UTF-8'?>
<svg x="0px" y="0px" viewBox="0 0 32 32" version="1.1" xmlns="http://www.w3.org/2000/svg" xmlns:xlink="http://www.w3.org/1999/xlink" xml:space="preserve" id="Layer_1" style="enable-background:new 0 0 32 32">
  <style type="text/css">
	.Yellow{fill:#FFB115;}
	.Red{fill:#D11C1C;}
	.Black{fill:#727272;}
	.Blue{fill:#1177D7;}
	.White{fill:#FFFFFF;}
	.Green{fill:#039C23;}
	.st0{opacity:0.75;}
	.st1{opacity:0.5;}
	.st2{opacity:0.25;}
	.st3{fill:#FFB115;}
</style>
  <g />
  <g id="ConvertTo">
    <path d="M22,6l-6-6v4C9.4,4,4,9.4,4,16c0,3.6,1.6,6.8,4.1,9l2.8-2.8c-1.8-1.5-3-3.7-3-6.2c0-4.4,3.6-8,8-8v4L22,6z" class="Green" />
    <path d="M23.9,7L21,9.8c1.8,1.5,3,3.7,3,6.2c0,4.4-3.6,8-8,8v-4l-6,6l6,6v-4c6.6,0,12-5.4,12-12   C28,12.4,26.4,9.2,23.9,7z" class="Blue" />
  </g>
</svg>