<?xml version="1.0" encoding="UTF-8" standalone="no"?>
<svg
   xmlns:dc="http://purl.org/dc/elements/1.1/"
   xmlns:cc="http://creativecommons.org/ns#"
   xmlns:rdf="http://www.w3.org/1999/02/22-rdf-syntax-ns#"
   xmlns:svg="http://www.w3.org/2000/svg"
   xmlns="http://www.w3.org/2000/svg"
   xmlns:sodipodi="http://sodipodi.sourceforge.net/DTD/sodipodi-0.dtd"
   xmlns:inkscape="http://www.inkscape.org/namespaces/inkscape"
   inkscape:version="1.0.1 (3bc2e813f5, 2020-09-07)"
   sodipodi:docname="createconcretion.svg"
   xml:space="preserve"
   style="enable-background:new 0 0 32 32;"
   viewBox="0 0 32 32"
   y="0px"
   x="0px"
   id="Layer_1"
   version="1.1"><metadata
   id="metadata19"><rdf:RDF><cc:Work
       rdf:about=""><dc:format>image/svg+xml</dc:format><dc:type
         rdf:resource="http://purl.org/dc/dcmitype/StillImage" /><dc:title /></cc:Work></rdf:RDF></metadata><defs
   id="defs17" /><sodipodi:namedview
   inkscape:current-layer="Layer_1"
   inkscape:window-maximized="1"
   inkscape:window-y="-8"
   inkscape:window-x="-8"
   inkscape:cy="36.916503"
   inkscape:cx="24.842466"
   inkscape:zoom="3.3203125"
   showgrid="false"
   id="namedview15"
   inkscape:window-height="1017"
   inkscape:window-width="2560"
   inkscape:pageshadow="2"
   inkscape:pageopacity="0"
   guidetolerance="10"
   gridtolerance="10"
   objecttolerance="10"
   borderopacity="1"
   bordercolor="#666666"
   pagecolor="#ffffff"
   inkscape:document-rotation="0" />
<style
   id="style2"
   type="text/css">
	.Black{fill:#727272;}
	.Yellow{fill:#FFB115;}
</style>
<polygon
   transform="translate(0.30117728,-0.22588201)"
   id="polygon4"
   points="31,4 29,6 31,8 28,8 28,11 26,9 24,11 24,8 21,8 23,6 21,4 24,4 24,1 26,3 28,1 28,4 "
   class="Yellow" />




<path
   sodipodi:nodetypes="cssscssssc"
   id="path933"
   d="m 2.5599994,29.816471 c 8.8847056,-2.108235 9.6376476,-4.668235 10.0894116,-5.421176 0.451765,-0.752942 2.56,-6.02353 2.56,-8.282353 V 9.6376465 c 0,-2.710588 1.355295,-5.421176 1.355295,-5.421176 0,0 2.334118,-1.581177 2.032941,2.334118 -0.226914,2.949874 1.054118,4.3670585 0.752941,7.6800005 -0.301176,3.312941 -0.451765,4.894117 1.807059,8.357647 2.258823,3.463529 2.459586,7.296603 4.592941,7.30353 z"
   style="fill:none;fill-rule:evenodd;stroke:#727272;stroke-width:2;stroke-linecap:butt;stroke-linejoin:miter;stroke-miterlimit:4;stroke-dasharray:none;stroke-opacity:1" /><path
   style="fill:none;fill-rule:evenodd;stroke:#727272;stroke-width:2;stroke-linecap:butt;stroke-linejoin:miter;stroke-miterlimit:4;stroke-dasharray:none;stroke-opacity:1"
   d="m 3.6660096,29.751005 c 3.6042689,-0.85525 3.9097159,-1.893769 4.0929829,-2.199215 0.183268,-0.305447 1.038519,-2.443572 1.038519,-3.359912 v -2.62684 c 0,-1.099608 0.549804,-2.199215 0.549804,-2.199215 0,0 0.9468845,-0.641438 0.8247055,0.946884 -0.09205,1.196679 0.427625,1.77159 0.305447,3.115555 -0.122179,1.343965 0.109557,1.452992 1.025896,2.858046"
   id="path933-2"
   sodipodi:nodetypes="cssscssc" /></svg>
