<?xml version="1.0" encoding="UTF-8" standalone="no"?>
<!-- Generator: Adobe Illustrator 21.1.0, SVG Export Plug-In . SVG Version: 6.00 Build 0)  -->

<svg
   version="1.1"
   id="Layer_1"
   x="0px"
   y="0px"
   viewBox="0 0 81.544205 46.673314"
   xml:space="preserve"
   sodipodi:docname="csurvey_2.svg"
   inkscape:version="1.1 (c68e22c387, 2021-05-23)"
   width="81.544205"
   height="46.673313"
   inkscape:export-filename="d:\desktop\mainicon.png"
   inkscape:export-xdpi="546.13336"
   inkscape:export-ydpi="546.13336"
   xmlns:inkscape="http://www.inkscape.org/namespaces/inkscape"
   xmlns:sodipodi="http://sodipodi.sourceforge.net/DTD/sodipodi-0.dtd"
   xmlns="http://www.w3.org/2000/svg"
   xmlns:svg="http://www.w3.org/2000/svg">
	<defs
   id="defs13" />
	<sodipodi:namedview
   id="namedview11"
   pagecolor="#505050"
   bordercolor="#eeeeee"
   borderopacity="1"
   inkscape:pageshadow="0"
   inkscape:pageopacity="0"
   inkscape:pagecheckerboard="0"
   showgrid="false"
   inkscape:zoom="9.532723"
   inkscape:cx="42.432787"
   inkscape:cy="38.551419"
   inkscape:window-width="2560"
   inkscape:window-height="1017"
   inkscape:window-x="-8"
   inkscape:window-y="-8"
   inkscape:window-maximized="1"
   inkscape:current-layer="Layer_1"
   inkscape:lockguides="false"
   showguides="true"
   inkscape:guide-bbox="true"
   fit-margin-left="2"
   fit-margin-top="2"
   fit-margin-bottom="2"
   fit-margin-right="2">
		<sodipodi:guide
   position="41.585883,-13.772358"
   orientation="0,-1"
   id="guide2759" />
	<sodipodi:guide
   position="13.745742,18.600322"
   orientation="0,-1"
   id="guide16789" /><sodipodi:guide
   position="14.637408,6.4841617"
   orientation="0,-1"
   id="guide16791" /></sodipodi:namedview>
	<style
   type="text/css"
   id="style5">
	.Blue{fill:#1177D7;}
	.Yellow{fill:#FFB115;}
	.Black{fill:#727272;}
	.Green{fill:#039C23;}
	.Red{fill:#D11C1C;}
</style>
	<g
   id="g2365"
   transform="rotate(-64.071671,-40.89446,-28.52012)"
   inkscape:transform-center-x="-8.638653"
   inkscape:transform-center-y="-16.515509">
		<g
   id="g4224"
   transform="translate(-9.9038233,-55.89521)">
			<path
   id="polygon6"
   class="Black"
   d="m 35.8125,4.8710938 -4.447266,2.2851562 1.798828,0.875 -5.582031,11.478516 h 2.22461 l 5.15625,-10.603516 1.798828,0.8730469 z"
   transform="rotate(64.071671,-78.990849,4.273277)"
   sodipodi:nodetypes="cccccccc" />
			<rect
   style="fill:#727272;fill-opacity:1;stroke-width:0.76232"
   id="rect850-0"
   width="5.9230766"
   height="2"
   x="104.78152"
   y="27.292854"
   transform="rotate(90)"
   class="Black" />
		</g>
	</g>
	<g
   id="g1707"
   transform="matrix(-0.25960059,0.72202059,-0.74699238,-0.17523858,25.718409,8.998456)"
   inkscape:transform-center-x="8.4513535"
   inkscape:transform-center-y="-13.987246">
		<path
   class="Blue"
   d="m 16.1,23.1 -4.4,4.4 c -0.7,0.7 -1.9,0.7 -2.6,0 L 5.378624,23.778624 c -0.7,-0.7 -0.7,-1.9 0,-2.6 l 4.4000001,-4.3 z"
   id="path1695"
   sodipodi:nodetypes="csssccc" />
		<path
   id="path1697"
   style="stroke-width:0.764746"
   class="Red"
   d="M 14.921875,14.074219 8.5585938,17.53125 9.6269531,19.496094 H 17.867188 Z"
   transform="matrix(-0.29963717,-1.2345695,1.2772683,-0.44388619,-2.3263687,40.148061)"
   sodipodi:nodetypes="ccccc" />
	</g>
	<g
   id="g1870"
   transform="matrix(0.63622752,-0.12295776,0.15408336,0.79728257,1.6765943,6.8520326)"
   inkscape:transform-center-x="3.5745342"
   inkscape:transform-center-y="-15.981953">
		<path
   id="path1858"
   style="stroke-width:0.725396"
   class="Yellow"
   d="m 18.826172,3.9960938 c -0.04101,-0.00209 -0.08133,0.00208 -0.121094,0.00977 l -5.746094,1.109375 c -0.381736,0.073775 -0.574872,0.4415523 -0.482422,0.9199218 l 2.605469,13.4785154 h 7.28125 L 19.496094,4.6796875 C 19.4152,4.2611142 19.113233,4.0107224 18.826172,3.9960938 Z"
   transform="matrix(1.5151735,0.23367166,-0.29282344,1.2091009,-6.1690123,-9.2135765)"
   sodipodi:nodetypes="sccccccs" />
		<path
   id="path1860"
   style="stroke-width:0.725396"
   class="Black"
   d="m 19.650391,5.4765625 -3.81836,0.7382813 0.308594,1.59375 3.816406,-0.7363282 z m 0.615234,3.1894531 -2.544922,0.4921875 0.308594,1.5937499 2.544922,-0.492187 z m 0.617187,3.1894534 -3.818359,0.738281 0.308594,1.59375 3.818359,-0.738281 z m 0.615235,3.189453 -2.544922,0.490234 0.308594,1.595703 2.544922,-0.492187 z m 0.617187,3.1875 -3.818359,0.738281 0.105469,0.546875 h 3.960937 z"
   transform="matrix(1.5151735,0.23367166,-0.29282344,1.2091009,-6.1690123,-9.2135765)" />
	</g>
	<g
   id="Edit"
   transform="matrix(-0.57842153,0.12840095,-0.05718864,-0.58973531,38.755587,26.743003)"
   inkscape:transform-center-x="-9.8109362"
   inkscape:transform-center-y="-12.623554">
		<path
   id="rect2666"
   style="fill:#1177d7;stroke-width:0.590298"
   class="Blue"
   d="m 34.365234,12.248047 -5.269531,7.263672 h 5.626953 l 3.328125,-4.587891 z"
   transform="matrix(-1.692411,-0.36848257,0.16411886,-1.659943,67.454018,59.569358)"
   sodipodi:nodetypes="ccccc" />
		<polygon
   class="Blue"
   points="9.8,28 4,22.2 4,28 "
   id="polygon2664" />
	</g>
	<g
   id="TextBox"
   transform="translate(-36.13947,79.392508)"
   inkscape:export-filename="d:\desktop\mainlogo.png"
   inkscape:export-xdpi="945.22998"
   inkscape:export-ydpi="945.22998"
   style="fill:#727272;fill-opacity:1">
		<path
   id="path5481"
   style="fill:#727272;fill-opacity:1"
   class="Black"
   d="m 10.583984,21.191406 c -0.5,0 -0.9999996,0.5 -0.9999996,1 v 20.082032 c 0,0.5 0.4999996,1 0.9999996,1 h 24 c 0.5,0 1,-0.5 1,-1 v -2.453126 c 0.255028,0.04186 0.520302,0.0625 0.794922,0.0625 0.776641,0 1.511753,-0.180535 2.207032,-0.542968 0.702674,-0.362433 1.268263,-0.857619 1.697265,-1.486328 v 1.763672 h 2.896485 V 27.833984 H 40.0625 v 4.970704 c 0,1.68642 -0.07905,2.749148 -0.234375,3.185546 -0.155328,0.429002 -0.443629,0.790075 -0.865234,1.085938 -0.421605,0.288467 -0.897135,0.433594 -1.429688,0.433594 -0.465985,0 -0.851037,-0.107765 -1.154297,-0.322266 -0.30326,-0.221897 -0.514467,-0.51689 -0.632812,-0.886719 -0.09986,-0.339503 -0.152125,-1.227529 -0.16211,-2.603515 v -11.50586 c 0,-0.5 -0.5,-1 -1,-1 z m 15.804688,2.90625 c 2.00186,-2e-6 3.505482,0.438788 4.513672,1.316406 1.01542,0.877621 1.548909,2.048557 1.599609,3.513672 l -3.220703,0.142578 c -0.1378,-0.819593 -0.433695,-1.408272 -0.890625,-1.763671 -0.44969,-0.362654 -1.128526,-0.542969 -2.035156,-0.542969 -0.93566,0 -1.667796,0.191758 -2.197266,0.576172 -0.34088,0.246603 -0.511719,0.576811 -0.511719,0.990234 0,0.377157 0.159366,0.700387 0.478516,0.96875 0.40615,0.340894 1.392324,0.696498 2.958984,1.066406 1.56666,0.369904 2.723653,0.753426 3.470704,1.152344 0.754329,0.391666 1.341048,0.932053 1.761718,1.621094 0.42796,0.681788 0.642578,1.526983 0.642578,2.535156 0,0.913883 -0.254008,1.768572 -0.761718,2.566406 -0.5077,0.797835 -1.225907,1.393491 -2.154297,1.785157 -0.9284,0.38441 -2.085363,0.576171 -3.470703,0.576171 -2.01634,0 -3.563832,-0.464187 -4.644532,-1.392578 -0.20565,-0.17805 -0.390313,-0.375201 -0.564453,-0.583984 -0.056,0.04949 -0.111522,0.09995 -0.169922,0.146484 -0.88487,0.703544 -2.06976,1.056641 -3.55664,1.056641 -1.68996,0 -3.038705,-0.533409 -4.046875,-1.599609 -1.00092,-1.066196 -1.501953,-2.541942 -1.501953,-4.427735 0,-1.90755 0.503538,-3.392226 1.511718,-4.451172 1.00817,-1.066197 2.372817,-1.597656 4.091797,-1.597656 1.16194,0 2.122412,0.20955 2.888672,0.625 0.03007,-0.7477 0.247275,-1.449759 0.671875,-2.103515 0.4642,-0.710799 1.129098,-1.251189 1.992188,-1.621094 0.87038,-0.369905 1.918781,-0.554688 3.144531,-0.554688 z m -8.654297,6.058594 c -0.76157,0 -1.371195,0.263495 -1.828125,0.792969 -0.4497,0.522219 -0.673828,1.399794 -0.673828,2.632812 0,1.370827 0.228597,2.340513 0.685547,2.90625 0.46419,0.565737 1.083295,0.847657 1.859375,0.847657 0.58024,-10e-7 1.055891,-0.163847 1.425781,-0.490235 0.36991,-0.333639 0.630843,-0.901942 0.783203,-1.707031 h 0.0059 c -3.2e-4,-0.0035 -0.0016,-0.0064 -0.002,-0.0098 L 23.125,34.824219 c 0.18858,1.051694 0.567645,1.825153 1.140625,2.318359 0.58025,0.493207 1.360664,0.740234 2.339844,0.740234 1.03718,10e-7 1.817633,-0.219114 2.339843,-0.654296 0.529481,-0.442436 0.792969,-0.957427 0.792969,-1.544922 0,-0.377159 -0.111077,-0.695923 -0.335937,-0.957032 -0.21758,-0.268363 -0.603057,-0.499481 -1.154297,-0.695312 -0.37715,-0.130555 -1.236325,-0.363624 -2.578125,-0.697266 -1.72625,-0.427928 -2.936543,-0.95241 -3.632813,-1.576172 -0.05631,-0.05041 -0.105203,-0.104579 -0.158203,-0.15625 l -2.054687,0.371094 C 19.722689,31.370655 19.489613,30.91791 19.126953,30.613281 18.771563,30.308657 18.307365,30.15625 17.734375,30.15625 Z"
   transform="translate(32.47151,-79.118499)" />
	</g>
	<g
   id="g9849"
   transform="translate(-3.6679599,0.27400868)">
		<path
   id="path2051"
   style="fill:#727272;fill-opacity:1;stroke-width:0.81"
   class="Black"
   d="m 22.517578,8.385325 c -0.45726,-0.029415 -0.822147,0.2927402 -0.85156,0.7500018 l -0.707032,10.3750012 4.630859,-1e-6 0.699218,-10.8808598 z"
   sodipodi:nodetypes="cccccc" />
		<path
   class="Yellow"
   d="m 21.673206,9.0333634 0.389751,-6.0586957 c 0.02942,-0.45726 0.394422,-0.7781436 0.851682,-0.7487284 l 2.97219,0.1911989 c 0.45726,0.029415 0.778144,0.3944217 0.748729,0.8516818 l -0.389752,6.0586956 z"
   id="path2053"
   style="stroke-width:0.81" />
	</g>
	<g
   id="g4981"
   transform="matrix(-0.41272224,0.25061488,-0.2670052,-0.48371056,35.382033,18.176963)"
   inkscape:transform-center-x="-6.0529477"
   inkscape:transform-center-y="-17.578657">
		<path
   id="path4967"
   style="fill:#333333;fill-opacity:1;stroke-width:0.999999"
   d="m 14.699203,20.994273 7.096193,-4.100193 c 0.03124,-0.03127 0.05979,-0.06529 0.08106,-0.103361 L 26.835061,10.581646 22.390502,8.2788803 16.953261,11.7971 c -0.05794,0.02439 -0.109048,0.0538 -0.153423,0.09817 l -3.101113,6.000494 z"
   sodipodi:nodetypes="ccccccccc"
   class="Black" />
		<path
   fill="#337cb8"
   d="m -0.20191116,27.595387 c 0,0 11.69999916,1.7 16.69999916,-3.6 4.3,-4.4 0.7,-7.7 0.7,-7.7 0,0 -3.5,-3.1 -7.1999997,-0.3 -3.6999994,2.8 -2.8999994,8.7 -10.19999946,11.6 z"
   id="path4971"
   style="fill:#039c23;fill-opacity:1"
   class="Green" />
	</g>
<path
   d="M 43.736605,39.891422 H 40.618946 V 28.108667 h 2.895761 v 1.675325 q 0.743357,-1.187151 1.331385,-1.564377 0.599123,-0.377225 1.353575,-0.377225 1.065107,0 2.052551,0.588028 l -0.965254,2.718244 q -0.787736,-0.510364 -1.464523,-0.510364 -0.654598,0 -1.109487,0.36613 -0.45489,0.355036 -0.721167,1.298101 -0.255182,0.943064 -0.255182,3.949774 z"
   style="font-weight:bold;font-size:22.7223px;line-height:1.25;font-family:Arial;-inkscape-font-specification:'Arial Bold';letter-spacing:-1.9882px;word-spacing:-0.00568056px;fill:#727272;stroke-width:0.568056;fill-opacity:1"
   id="path16814"
   class="Black" /><path
   d="M 50.8462,39.891422 46.097594,28.108667 h 3.272988 l 2.218974,6.013421 0.643503,2.008172 q 0.255182,-0.765547 0.321751,-1.009634 0.155329,-0.499269 0.332847,-0.998538 l 2.241164,-6.013421 h 3.206418 l -4.682036,11.782755 z"
   style="font-weight:bold;font-size:22.7223px;line-height:1.25;font-family:Arial;-inkscape-font-specification:'Arial Bold';letter-spacing:-1.9882px;word-spacing:-0.00568056px;fill:#727272;stroke-width:0.568056;fill-opacity:1"
   id="path16816"
   class="Black" /><path
   d="m 65.078705,36.141355 3.106564,0.521459 q -0.599123,1.70861 -1.897223,2.607295 -1.287005,0.88759 -3.228608,0.88759 -3.07328,0 -4.548898,-2.008172 -1.164962,-1.608757 -1.164962,-4.060724 0,-2.929046 1.531093,-4.582182 1.531092,-1.664231 3.872111,-1.664231 2.629484,0 4.149482,1.741895 1.519998,1.7308 1.453428,5.314444 h -7.81079 q 0.03328,1.386859 0.754451,2.1635 0.721167,0.765546 1.79737,0.765546 0.732261,0 1.231531,-0.399415 0.499269,-0.399416 0.754451,-1.287005 z m 0.177518,-3.150944 q -0.03328,-1.353575 -0.698977,-2.052552 -0.665693,-0.710072 -1.619852,-0.710072 -1.020728,0 -1.68642,0.743357 -0.665693,0.743356 -0.654598,2.019267 z"
   style="font-weight:bold;font-size:22.7223px;line-height:1.25;font-family:Arial;-inkscape-font-specification:'Arial Bold';letter-spacing:-1.9882px;word-spacing:-0.00568056px;fill:#727272;stroke-width:0.568056;fill-opacity:1"
   id="path16818"
   class="Black" /><path
   d="m 67.428601,28.108667 h 3.317367 l 2.818098,8.365534 2.751528,-8.365534 h 3.228608 l -4.160577,11.33896 -0.743357,2.052551 q -0.41051,1.031823 -0.787736,1.575472 -0.366131,0.543649 -0.854305,0.876495 -0.477079,0.343941 -1.187151,0.532554 -0.698977,0.188613 -1.586567,0.188613 -0.898685,0 -1.764085,-0.188613 l -0.277372,-2.440872 q 0.732262,0.144233 1.32029,0.144233 1.087298,0 1.608757,-0.643502 0.521459,-0.632408 0.798831,-1.619852 z"
   style="font-weight:bold;font-size:22.7223px;line-height:1.25;font-family:Arial;-inkscape-font-specification:'Arial Bold';letter-spacing:-1.9882px;word-spacing:-0.00568056px;fill:#727272;stroke-width:0.568056;fill-opacity:1"
   id="path16820"
   class="Black" /></svg>
