<?xml version="1.0" encoding="UTF-8" standalone="no"?>
<svg
   version="1.1"
   id="Replace"
   x="0px"
   y="0px"
   viewBox="0 0 32 32"
   style="enable-background:new 0 0 32 32;"
   xml:space="preserve"
   sodipodi:docname="cube_replace.svg"
   inkscape:version="1.3 (0e150ed6c4, 2023-07-21)"
   xmlns:inkscape="http://www.inkscape.org/namespaces/inkscape"
   xmlns:sodipodi="http://sodipodi.sourceforge.net/DTD/sodipodi-0.dtd"
   xmlns="http://www.w3.org/2000/svg"
   xmlns:svg="http://www.w3.org/2000/svg"><defs
   id="defs3" /><sodipodi:namedview
   id="namedview3"
   pagecolor="#505050"
   bordercolor="#eeeeee"
   borderopacity="1"
   inkscape:showpageshadow="0"
   inkscape:pageopacity="0"
   inkscape:pagecheckerboard="0"
   inkscape:deskcolor="#d1d1d1"
   inkscape:zoom="9.0708542"
   inkscape:cx="5.0160656"
   inkscape:cy="30.592488"
   inkscape:window-width="2560"
   inkscape:window-height="1017"
   inkscape:window-x="-8"
   inkscape:window-y="-8"
   inkscape:window-maximized="1"
   inkscape:current-layer="Replace" />&#10;<style
   type="text/css"
   id="style1">&#10;	.Blue{fill:#1177D7;}&#10;	.Green{fill:#039C23;}&#10;	.Red{fill:#D11C1C;}&#10;</style>&#10;<polygon
   class="Green"
   points="18,18 18,28 28,28 30,26 30,16 20,16 "
   id="polygon1"
   style="fill:#039c23"
   transform="translate(-0.85749086,-2.1047503)" /><g
   class="st0"
   id="g2"
   style="opacity:0.2"
   transform="translate(-0.85749086,-2.1047503)">&#10;	<polygon
   class="White"
   points="30,16 28,18 18,18 20,16 "
   id="polygon2"
   style="fill:#ffffff" />&#10;</g><g
   class="st0"
   id="g3"
   style="opacity:0.2"
   transform="translate(-0.85749086,-2.1047503)">&#10;	<polygon
   class="Red"
   points="30,16 30,26 28,28 28,18 "
   id="polygon3"
   style="fill:#d11c1c" />&#10;</g><polygon
   class="Red"
   points="4,18 4,28 14,28 16,26 16,16 6,16 "
   id="polygon4"
   style="fill:#d11c1c"
   transform="translate(-1.9792935,-2.001218)" /><g
   class="st0"
   id="g5"
   style="opacity:0.2"
   transform="translate(-1.9792935,-2.001218)">&#10;	<polygon
   class="White"
   points="16,16 14,18 4,18 6,16 "
   id="polygon5"
   style="fill:#ffffff" />&#10;</g><g
   class="st0"
   id="g6"
   style="opacity:0.2"
   transform="translate(-1.9792935,-2.001218)">&#10;	<polygon
   class="Blue"
   points="16,16 16,26 14,28 14,18 "
   id="polygon6"
   style="fill:#1177d7" />&#10;</g>&#10;&#10;<path
   class="Blue"
   d="M23.1,6.9C21.3,5.1,18.8,4,16,4c-4.8,0-8.9,3.4-9.8,8h2.1c0.9-3.4,4-6,7.7-6c2.2,0,4.2,0.9,5.6,2.4L18,12h5.7  h2.1H26V4L23.1,6.9z"
   id="path3" />&#10;</svg>
