<?xml version='1.0' encoding='UTF-8'?>
<svg x="0px" y="0px" viewBox="0 0 32 32" version="1.1" xmlns="http://www.w3.org/2000/svg" xmlns:xlink="http://www.w3.org/1999/xlink" xml:space="preserve" id="Layer_1" style="enable-background:new 0 0 32 32">
  <style type="text/css">
	.Black{fill:#737374;}
	.Yellow{fill:#FCB01B;}
	.Green{fill:#129C49;}
	.Blue{fill:#387CB7;}
	.Red{fill:#D02127;}
	.White{fill:#FFFFFF;}
	.st0{opacity:0.5;}
	.st1{opacity:0.75;}
	.st2{opacity:0.25;}
	.st3{display:none;fill:#737374;}
</style>
  <path d="M6,4v2h14c2.2,0,4,1.8,4,4v0c0,2.2-1.8,4-4,4H10c-3.3,0-6,2.7-6,6v0c0,3.3,2.7,6,6,6h14v-2H10  c-2.2,0-4-1.8-4-4v0c0-2.2,1.8-4,4-4h10c3.3,0,6-2.7,6-6v0c0-3.3-2.7-6-6-6H6z" class="Black" />
  <path d="M7,2H3C2.5,2,2,2.5,2,3v4c0,0.5,0.5,1,1,1h4c0.5,0,1-0.5,1-1V3C8,2.5,7.5,2,7,2z M6,6H4V4h2V6z" class="Blue" />
  <path d="M27,22h-4c-0.5,0-1,0.5-1,1v4c0,0.5,0.5,1,1,1h4c0.5,0,1-0.5,1-1v-4C28,22.5,27.5,22,27,22z M26,26h-2v-2h2V26  z" class="Blue" />
</svg>