<?xml version="1.0" encoding="UTF-8" standalone="no"?>
<!-- Generator: Adobe Illustrator 21.1.0, SVG Export Plug-In . SVG Version: 6.00 Build 0)  -->

<svg
   version="1.1"
   id="Layer_1"
   x="0px"
   y="0px"
   viewBox="0 0 32 32"
   style="enable-background:new 0 0 32 32;"
   xml:space="preserve"
   sodipodi:docname="databasecleanup.svg"
   inkscape:version="1.1 (c68e22c387, 2021-05-23)"
   xmlns:inkscape="http://www.inkscape.org/namespaces/inkscape"
   xmlns:sodipodi="http://sodipodi.sourceforge.net/DTD/sodipodi-0.dtd"
   xmlns="http://www.w3.org/2000/svg"
   xmlns:svg="http://www.w3.org/2000/svg"><defs
   id="defs12" /><sodipodi:namedview
   id="namedview10"
   pagecolor="#505050"
   bordercolor="#eeeeee"
   borderopacity="1"
   inkscape:pageshadow="0"
   inkscape:pageopacity="0"
   inkscape:pagecheckerboard="0"
   showgrid="false"
   inkscape:zoom="13"
   inkscape:cx="9"
   inkscape:cy="26.653846"
   inkscape:window-width="2560"
   inkscape:window-height="1017"
   inkscape:window-x="-8"
   inkscape:window-y="-8"
   inkscape:window-maximized="1"
   inkscape:current-layer="Layer_1" />
<style
   type="text/css"
   id="style2">
	.Green{fill:#039C23;}
	.Black{fill:#727272;}
	.Red{fill:#D11C1C;}
	.Yellow{fill:#FFB115;}
	.Blue{fill:#1177D7;}
	.White{fill:#FFFFFF;}
	.st0{opacity:0.5;}
	.st1{opacity:0.75;}
</style>
<g
   id="EditDataSource">
	<path
   class="Yellow"
   d="M 4,10 V 6 C 4,3.8 8.5,2 14,2 19.5,2 24,3.8 24,6 v 4 c 0,2.2 -4.5,4 -10,4 C 8.5,14 4,12.2 4,10 Z m 10,10 c 5.5,0 10,-1.8 10,-4 v -4 c 0,2.2 -4.5,4 -10,4 C 8.5,16 4,14.2 4,12 v 4 c 0,2.2 4.5,4 10,4 z m 4.201923,1.488461 C 16.501923,21.988461 16.3,22 14,22 8.5,22 4,20.2 4,18 v 4 c 0,2.2 4.3173077,3.980769 9.817308,3.980769 z"
   id="path4"
   sodipodi:nodetypes="ssssssssccsscscscccc" />
	
</g>
<path
   class="Blue"
   d="m 18.769667,23.341631 -2.7,2.7 c -0.4,0.4 -0.4,1.2 0,1.6 l 4,4 c 0.4,0.4 1.2,0.4 1.6,0 l 2.7,-2.7 z"
   id="path8"
   sodipodi:nodetypes="csssscc"
   style="fill:#1177d7" /><path
   class="Red"
   d="m 31.469667,20.441631 -4,-4 c -0.4,-0.4 -1.2,-0.4 -1.6,0 l -6.1,6.1 5.6,5.6 6.1,-6.1 c 0.4,-0.5 0.4,-1.2 0,-1.6 z"
   id="path10"
   sodipodi:nodetypes="ssscccs"
   style="fill:#d11c1c" /></svg>
