<?xml version="1.0" encoding="UTF-8" standalone="no"?>
<svg
   xmlns:dc="http://purl.org/dc/elements/1.1/"
   xmlns:cc="http://creativecommons.org/ns#"
   xmlns:rdf="http://www.w3.org/1999/02/22-rdf-syntax-ns#"
   xmlns:svg="http://www.w3.org/2000/svg"
   xmlns="http://www.w3.org/2000/svg"
   xmlns:sodipodi="http://sodipodi.sourceforge.net/DTD/sodipodi-0.dtd"
   xmlns:inkscape="http://www.inkscape.org/namespaces/inkscape"
   version="1.1"
   id="Line_Style"
   x="0px"
   y="0px"
   viewBox="0 0 32 32"
   style="enable-background:new 0 0 32 32;"
   xml:space="preserve"
   sodipodi:docname="defaultlinestyle.svg"
   inkscape:version="1.0.1 (3bc2e813f5, 2020-09-07)"><metadata
   id="metadata11"><rdf:RDF><cc:Work
       rdf:about=""><dc:format>image/svg+xml</dc:format><dc:type
         rdf:resource="http://purl.org/dc/dcmitype/StillImage" /><dc:title></dc:title></cc:Work></rdf:RDF></metadata><defs
   id="defs9"><marker
     style="overflow:visible"
     id="marker1341"
     refX="0.0"
     refY="0.0"
     orient="auto"
     inkscape:stockid="DotL"
     inkscape:isstock="true"><path
       transform="scale(0.8) translate(7.4, 1)"
       style="fill-rule:evenodd;stroke:#808080;stroke-width:1pt;stroke-opacity:1;fill:#808080;fill-opacity:1"
       d="M -2.5,-1.0 C -2.5,1.7600000 -4.7400000,4.0 -7.5,4.0 C -10.260000,4.0 -12.5,1.7600000 -12.5,-1.0 C -12.5,-3.7600000 -10.260000,-6.0 -7.5,-6.0 C -4.7400000,-6.0 -2.5,-3.7600000 -2.5,-1.0 z "
       id="path1339" /></marker><marker
     style="overflow:visible"
     id="marker1331"
     refX="0.0"
     refY="0.0"
     orient="auto"
     inkscape:stockid="DotL"
     inkscape:isstock="true"><path
       transform="scale(0.8) translate(7.4, 1)"
       style="fill-rule:evenodd;stroke:#808080;stroke-width:1pt;stroke-opacity:1;fill:#808080;fill-opacity:1"
       d="M -2.5,-1.0 C -2.5,1.7600000 -4.7400000,4.0 -7.5,4.0 C -10.260000,4.0 -12.5,1.7600000 -12.5,-1.0 C -12.5,-3.7600000 -10.260000,-6.0 -7.5,-6.0 C -4.7400000,-6.0 -2.5,-3.7600000 -2.5,-1.0 z "
       id="path1329" /></marker><marker
     style="overflow:visible"
     id="marker1341-6"
     refX="0.0"
     refY="0.0"
     orient="auto"
     inkscape:stockid="DotL"
     inkscape:isstock="true"><path
       transform="scale(0.8) translate(7.4, 1)"
       style="fill-rule:evenodd;stroke:#808080;stroke-width:1pt;stroke-opacity:1;fill:#808080;fill-opacity:1"
       d="M -2.5,-1.0 C -2.5,1.7600000 -4.7400000,4.0 -7.5,4.0 C -10.260000,4.0 -12.5,1.7600000 -12.5,-1.0 C -12.5,-3.7600000 -10.260000,-6.0 -7.5,-6.0 C -4.7400000,-6.0 -2.5,-3.7600000 -2.5,-1.0 z "
       id="path1339-6" /></marker><marker
     style="overflow:visible"
     id="marker1331-1"
     refX="0.0"
     refY="0.0"
     orient="auto"
     inkscape:stockid="DotL"
     inkscape:isstock="true"><path
       transform="scale(0.8) translate(7.4, 1)"
       style="fill-rule:evenodd;stroke:#808080;stroke-width:1pt;stroke-opacity:1;fill:#808080;fill-opacity:1"
       d="M -2.5,-1.0 C -2.5,1.7600000 -4.7400000,4.0 -7.5,4.0 C -10.260000,4.0 -12.5,1.7600000 -12.5,-1.0 C -12.5,-3.7600000 -10.260000,-6.0 -7.5,-6.0 C -4.7400000,-6.0 -2.5,-3.7600000 -2.5,-1.0 z "
       id="path1329-8" /></marker><marker
     inkscape:isstock="true"
     inkscape:stockid="DotL"
     orient="auto"
     refY="0.0"
     refX="0.0"
     id="marker1341-2"
     style="overflow:visible"><path
       id="path1339-69"
       d="M -2.5,-1.0 C -2.5,1.7600000 -4.7400000,4.0 -7.5,4.0 C -10.260000,4.0 -12.5,1.7600000 -12.5,-1.0 C -12.5,-3.7600000 -10.260000,-6.0 -7.5,-6.0 C -4.7400000,-6.0 -2.5,-3.7600000 -2.5,-1.0 z "
       style="fill-rule:evenodd;stroke:#808080;stroke-width:1pt;stroke-opacity:1;fill:#808080;fill-opacity:1"
       transform="scale(0.8) translate(7.4, 1)" /></marker><marker
     inkscape:isstock="true"
     inkscape:stockid="DotL"
     orient="auto"
     refY="0.0"
     refX="0.0"
     id="marker1331-9"
     style="overflow:visible"><path
       id="path1329-4"
       d="M -2.5,-1.0 C -2.5,1.7600000 -4.7400000,4.0 -7.5,4.0 C -10.260000,4.0 -12.5,1.7600000 -12.5,-1.0 C -12.5,-3.7600000 -10.260000,-6.0 -7.5,-6.0 C -4.7400000,-6.0 -2.5,-3.7600000 -2.5,-1.0 z "
       style="fill-rule:evenodd;stroke:#808080;stroke-width:1pt;stroke-opacity:1;fill:#808080;fill-opacity:1"
       transform="scale(0.8) translate(7.4, 1)" /></marker><marker
     style="overflow:visible"
     id="marker1341-9"
     refX="0.0"
     refY="0.0"
     orient="auto"
     inkscape:stockid="DotL"
     inkscape:isstock="true"><path
       transform="scale(0.8) translate(7.4, 1)"
       style="fill-rule:evenodd;stroke:#808080;stroke-width:1pt;stroke-opacity:1;fill:#808080;fill-opacity:1"
       d="M -2.5,-1.0 C -2.5,1.7600000 -4.7400000,4.0 -7.5,4.0 C -10.260000,4.0 -12.5,1.7600000 -12.5,-1.0 C -12.5,-3.7600000 -10.260000,-6.0 -7.5,-6.0 C -4.7400000,-6.0 -2.5,-3.7600000 -2.5,-1.0 z "
       id="path1339-0" /></marker><marker
     style="overflow:visible"
     id="marker1331-1-0"
     refX="0.0"
     refY="0.0"
     orient="auto"
     inkscape:stockid="DotL"
     inkscape:isstock="true"><path
       transform="scale(0.8) translate(7.4, 1)"
       style="fill-rule:evenodd;stroke:#808080;stroke-width:1pt;stroke-opacity:1;fill:#808080;fill-opacity:1"
       d="M -2.5,-1.0 C -2.5,1.7600000 -4.7400000,4.0 -7.5,4.0 C -10.260000,4.0 -12.5,1.7600000 -12.5,-1.0 C -12.5,-3.7600000 -10.260000,-6.0 -7.5,-6.0 C -4.7400000,-6.0 -2.5,-3.7600000 -2.5,-1.0 z "
       id="path1329-0" /></marker><marker
     style="overflow:visible"
     id="marker1341-4"
     refX="0.0"
     refY="0.0"
     orient="auto"
     inkscape:stockid="DotL"
     inkscape:isstock="true"><path
       transform="scale(0.8) translate(7.4, 1)"
       style="fill-rule:evenodd;stroke:#808080;stroke-width:1pt;stroke-opacity:1;fill:#808080;fill-opacity:1"
       d="M -2.5,-1.0 C -2.5,1.7600000 -4.7400000,4.0 -7.5,4.0 C -10.260000,4.0 -12.5,1.7600000 -12.5,-1.0 C -12.5,-3.7600000 -10.260000,-6.0 -7.5,-6.0 C -4.7400000,-6.0 -2.5,-3.7600000 -2.5,-1.0 z "
       id="path1339-7" /></marker><marker
     style="overflow:visible"
     id="marker1331-13"
     refX="0.0"
     refY="0.0"
     orient="auto"
     inkscape:stockid="DotL"
     inkscape:isstock="true"><path
       transform="scale(0.8) translate(7.4, 1)"
       style="fill-rule:evenodd;stroke:#808080;stroke-width:1pt;stroke-opacity:1;fill:#808080;fill-opacity:1"
       d="M -2.5,-1.0 C -2.5,1.7600000 -4.7400000,4.0 -7.5,4.0 C -10.260000,4.0 -12.5,1.7600000 -12.5,-1.0 C -12.5,-3.7600000 -10.260000,-6.0 -7.5,-6.0 C -4.7400000,-6.0 -2.5,-3.7600000 -2.5,-1.0 z "
       id="path1329-2" /></marker><marker
     style="overflow:visible"
     id="marker1341-93"
     refX="0.0"
     refY="0.0"
     orient="auto"
     inkscape:stockid="DotL"
     inkscape:isstock="true"><path
       transform="scale(0.8) translate(7.4, 1)"
       style="fill-rule:evenodd;stroke:#808080;stroke-width:1pt;stroke-opacity:1;fill:#808080;fill-opacity:1"
       d="M -2.5,-1.0 C -2.5,1.7600000 -4.7400000,4.0 -7.5,4.0 C -10.260000,4.0 -12.5,1.7600000 -12.5,-1.0 C -12.5,-3.7600000 -10.260000,-6.0 -7.5,-6.0 C -4.7400000,-6.0 -2.5,-3.7600000 -2.5,-1.0 z "
       id="path1339-1" /></marker><marker
     style="overflow:visible"
     id="marker1331-6"
     refX="0.0"
     refY="0.0"
     orient="auto"
     inkscape:stockid="DotL"
     inkscape:isstock="true"><path
       transform="scale(0.8) translate(7.4, 1)"
       style="fill-rule:evenodd;stroke:#808080;stroke-width:1pt;stroke-opacity:1;fill:#808080;fill-opacity:1"
       d="M -2.5,-1.0 C -2.5,1.7600000 -4.7400000,4.0 -7.5,4.0 C -10.260000,4.0 -12.5,1.7600000 -12.5,-1.0 C -12.5,-3.7600000 -10.260000,-6.0 -7.5,-6.0 C -4.7400000,-6.0 -2.5,-3.7600000 -2.5,-1.0 z "
       id="path1329-9" /></marker><marker
     style="overflow:visible"
     id="marker1341-0"
     refX="0.0"
     refY="0.0"
     orient="auto"
     inkscape:stockid="DotL"
     inkscape:isstock="true"><path
       transform="scale(0.8) translate(7.4, 1)"
       style="fill-rule:evenodd;stroke:#808080;stroke-width:1pt;stroke-opacity:1;fill:#808080;fill-opacity:1"
       d="M -2.5,-1.0 C -2.5,1.7600000 -4.7400000,4.0 -7.5,4.0 C -10.260000,4.0 -12.5,1.7600000 -12.5,-1.0 C -12.5,-3.7600000 -10.260000,-6.0 -7.5,-6.0 C -4.7400000,-6.0 -2.5,-3.7600000 -2.5,-1.0 z "
       id="path1339-74" /></marker><marker
     style="overflow:visible"
     id="marker1331-5"
     refX="0.0"
     refY="0.0"
     orient="auto"
     inkscape:stockid="DotL"
     inkscape:isstock="true"><path
       transform="scale(0.8) translate(7.4, 1)"
       style="fill-rule:evenodd;stroke:#808080;stroke-width:1pt;stroke-opacity:1;fill:#808080;fill-opacity:1"
       d="M -2.5,-1.0 C -2.5,1.7600000 -4.7400000,4.0 -7.5,4.0 C -10.260000,4.0 -12.5,1.7600000 -12.5,-1.0 C -12.5,-3.7600000 -10.260000,-6.0 -7.5,-6.0 C -4.7400000,-6.0 -2.5,-3.7600000 -2.5,-1.0 z "
       id="path1329-08" /></marker></defs><sodipodi:namedview
   pagecolor="#ffffff"
   bordercolor="#666666"
   borderopacity="1"
   objecttolerance="10"
   gridtolerance="10"
   guidetolerance="10"
   inkscape:pageopacity="0"
   inkscape:pageshadow="2"
   inkscape:window-width="2560"
   inkscape:window-height="1017"
   id="namedview7"
   showgrid="false"
   inkscape:zoom="9.1429872"
   inkscape:cx="62.521559"
   inkscape:cy="34.427092"
   inkscape:window-x="-8"
   inkscape:window-y="-8"
   inkscape:window-maximized="1"
   inkscape:current-layer="Line_Style" />
<style
   type="text/css"
   id="style2">
	.Black{fill:#727272;}
</style>
<path
   d="m 30,22 h -6 v 4 h 6 z"
   id="path848"
   style="fill:#808080;fill-opacity:1" /><path
   d="m 22,22 h -6 v 4 h 6 z"
   id="path846"
   style="fill:#808080;fill-opacity:1" /><path
   d="M 14,22 H 8 v 4 h 6 z"
   id="path844"
   style="fill:#808080;fill-opacity:1" /><path
   d="M 6,22 H 0 v 4 h 6 z"
   id="path842"
   style="fill:#808080;fill-opacity:1" /><path
   d="M 30,14 H 16 v 4 h 14 z"
   id="path840"
   style="fill:#808080;fill-opacity:1" /><path
   d="M 14,14 H 0 v 4 h 14 z"
   id="path838"
   style="fill:#808080;fill-opacity:1" /><path
   d="M 30,10 H 0 V 6 h 30 z"
   id="path4"
   style="fill:#1177d7;fill-opacity:1" />
<style
   type="text/css"
   id="style2-75">
	.Blue{fill:#1177D7;}
	.Yellow{fill:#FFB115;}
	.Red{fill:#D11C1C;}
</style><style
   type="text/css"
   id="style960">
	.Red{fill:#D11C1C;}
	.Yellow{fill:#FFB115;}
	.Green{fill:#039C23;}
</style><style
   type="text/css"
   id="style2-2">
	.Black{fill:#727272;}
	.Green{fill:#039C23;}
	.Yellow{fill:#FFB115;}
	.st0{opacity:0.5;}
</style><style
   type="text/css"
   id="style2-5">
	.Blue{fill:#1177D7;}
	.Yellow{fill:#FFB115;}
	.Red{fill:#D11C1C;}
</style><style
   type="text/css"
   id="style2-6">
	.Black{fill:#727272;}
	.Green{fill:#039C23;}
	.Yellow{fill:#FFB115;}
	.st0{opacity:0.5;}
</style><style
   type="text/css"
   id="style850">
	.Black{fill:#727272;}
</style><style
   type="text/css"
   id="style908">
	.Blue{fill:#1177D7;}
	.Yellow{fill:#FFB115;}
	.Black{fill:#727272;}
	.Green{fill:#039C23;}
	.Red{fill:#D11C1C;}
	.st0{opacity:0.75;}
	.st1{opacity:0.5;}
</style><style
   type="text/css"
   id="style923">
	.Blue{fill:#1177D7;}
	.Yellow{fill:#FFB115;}
	.Black{fill:#727272;}
	.Green{fill:#039C23;}
	.Red{fill:#D11C1C;}
	.st0{opacity:0.75;}
	.st1{opacity:0.5;}
</style><style
   type="text/css"
   id="style938">
	.Red{fill:#D11C1C;}
	.Yellow{fill:#FFB115;}
	.Blue{fill:#1177D7;}
	.Green{fill:#039C23;}
	.Black{fill:#727272;}
	.White{fill:#FFFFFF;}
	.st0{opacity:0.5;}
	.st1{opacity:0.75;}
	.st2{opacity:0.35;}
	.st3{opacity:0.65;}
</style><style
   type="text/css"
   id="style2-9">
	.Black{fill:#727272;}
	.Yellow{fill:#FFB115;}
</style><style
   id="style2-3"
   type="text/css">
	.Blue{fill:#1177D7;}
	.Yellow{fill:#FFB115;}
	.Red{fill:#D11C1C;}
</style><style
   type="text/css"
   id="style2-2-1">
	.Black{fill:#727272;}
	.Green{fill:#039C23;}
	.Yellow{fill:#FFB115;}
	.st0{opacity:0.5;}
</style><style
   type="text/css"
   id="style850-0">
	.Black{fill:#727272;}
</style><style
   type="text/css"
   id="style908-9">
	.Blue{fill:#1177D7;}
	.Yellow{fill:#FFB115;}
	.Black{fill:#727272;}
	.Green{fill:#039C23;}
	.Red{fill:#D11C1C;}
	.st0{opacity:0.75;}
	.st1{opacity:0.5;}
</style><style
   type="text/css"
   id="style923-5">
	.Blue{fill:#1177D7;}
	.Yellow{fill:#FFB115;}
	.Black{fill:#727272;}
	.Green{fill:#039C23;}
	.Red{fill:#D11C1C;}
	.st0{opacity:0.75;}
	.st1{opacity:0.5;}
</style><style
   type="text/css"
   id="style938-1">
	.Red{fill:#D11C1C;}
	.Yellow{fill:#FFB115;}
	.Blue{fill:#1177D7;}
	.Green{fill:#039C23;}
	.Black{fill:#727272;}
	.White{fill:#FFFFFF;}
	.st0{opacity:0.5;}
	.st1{opacity:0.75;}
	.st2{opacity:0.35;}
	.st3{opacity:0.65;}
</style><style
   type="text/css"
   id="style2-1">
	.Blue{fill:#1177D7;}
	.Yellow{fill:#FFB115;}
	.Red{fill:#D11C1C;}
</style><style
   type="text/css"
   id="style2-7">
	.Blue{fill:#1177D7;}
	.Yellow{fill:#FFB115;}
	.Red{fill:#D11C1C;}
</style><style
   type="text/css"
   id="style960-3">
	.Red{fill:#D11C1C;}
	.Yellow{fill:#FFB115;}
	.Green{fill:#039C23;}
</style><style
   type="text/css"
   id="style2-13">
	.Blue{fill:#1177D7;}
	.Yellow{fill:#FFB115;}
	.Red{fill:#D11C1C;}
</style><style
   type="text/css"
   id="style960-0">
	.Red{fill:#D11C1C;}
	.Yellow{fill:#FFB115;}
	.Green{fill:#039C23;}
</style><style
   type="text/css"
   id="style2-11">
	.Blue{fill:#1177D7;}
	.Yellow{fill:#FFB115;}
	.Red{fill:#D11C1C;}
</style><style
   type="text/css"
   id="style960-4">
	.Red{fill:#D11C1C;}
	.Yellow{fill:#FFB115;}
	.Green{fill:#039C23;}
</style></svg>
