<?xml version="1.0" encoding="UTF-8" standalone="no"?>
<svg
   version="1.1"
   id="Create_Stacked_Line_Chart"
   x="0px"
   y="0px"
   viewBox="0 0 32 32"
   style="enable-background:new 0 0 32 32;"
   xml:space="preserve"
   sodipodi:docname="deletebindings.svg"
   inkscape:version="1.1 (c68e22c387, 2021-05-23)"
   xmlns:inkscape="http://www.inkscape.org/namespaces/inkscape"
   xmlns:sodipodi="http://sodipodi.sourceforge.net/DTD/sodipodi-0.dtd"
   xmlns="http://www.w3.org/2000/svg"
   xmlns:svg="http://www.w3.org/2000/svg"
   xmlns:rdf="http://www.w3.org/1999/02/22-rdf-syntax-ns#"
   xmlns:cc="http://creativecommons.org/ns#"
   xmlns:dc="http://purl.org/dc/elements/1.1/"><metadata
   id="metadata15"><rdf:RDF><cc:Work
       rdf:about=""><dc:format>image/svg+xml</dc:format><dc:type
         rdf:resource="http://purl.org/dc/dcmitype/StillImage" /></cc:Work></rdf:RDF></metadata><defs
   id="defs13"><marker
     style="overflow:visible"
     id="marker1341"
     refX="0.0"
     refY="0.0"
     orient="auto"
     inkscape:stockid="DotL"
     inkscape:isstock="true"><path
       transform="scale(0.8) translate(7.4, 1)"
       style="fill-rule:evenodd;stroke:#808080;stroke-width:1pt;stroke-opacity:1;fill:#808080;fill-opacity:1"
       d="M -2.5,-1.0 C -2.5,1.7600000 -4.7400000,4.0 -7.5,4.0 C -10.260000,4.0 -12.5,1.7600000 -12.5,-1.0 C -12.5,-3.7600000 -10.260000,-6.0 -7.5,-6.0 C -4.7400000,-6.0 -2.5,-3.7600000 -2.5,-1.0 z "
       id="path1339" /></marker><marker
     style="overflow:visible"
     id="marker1331"
     refX="0.0"
     refY="0.0"
     orient="auto"
     inkscape:stockid="DotL"
     inkscape:isstock="true"><path
       transform="scale(0.8) translate(7.4, 1)"
       style="fill-rule:evenodd;stroke:#808080;stroke-width:1pt;stroke-opacity:1;fill:#808080;fill-opacity:1"
       d="M -2.5,-1.0 C -2.5,1.7600000 -4.7400000,4.0 -7.5,4.0 C -10.260000,4.0 -12.5,1.7600000 -12.5,-1.0 C -12.5,-3.7600000 -10.260000,-6.0 -7.5,-6.0 C -4.7400000,-6.0 -2.5,-3.7600000 -2.5,-1.0 z "
       id="path1329" /></marker></defs><sodipodi:namedview
   pagecolor="#ffffff"
   bordercolor="#666666"
   borderopacity="1"
   objecttolerance="10"
   gridtolerance="10"
   guidetolerance="10"
   inkscape:pageopacity="0"
   inkscape:pageshadow="2"
   inkscape:window-width="2560"
   inkscape:window-height="1017"
   id="namedview11"
   showgrid="false"
   inkscape:zoom="37.565048"
   inkscape:cx="20.883775"
   inkscape:cy="25.196294"
   inkscape:window-x="-8"
   inkscape:window-y="-8"
   inkscape:window-maximized="1"
   inkscape:current-layer="Create_Stacked_Line_Chart"
   inkscape:document-rotation="0"
   showguides="false"
   inkscape:pagecheckerboard="0" />
<style
   type="text/css"
   id="style2">
	.Black{fill:#727272;}
	.Blue{fill:#1177D7;}
	.Green{fill:#039C23;}
	.Yellow{fill:#FFB115;}
	.Red{fill:#D11C1C;}
	.White{fill:#FFFFFF;}
</style>



<path
   style="fill:none;fill-rule:evenodd;stroke:#808080;stroke-width:1px;stroke-linecap:butt;stroke-linejoin:miter;stroke-opacity:0.5"
   d="M 9.3164062,9.7421875 19.542966,7.9670869"
   id="path918"
   class="Black" /><path
   style="fill:none;fill-rule:evenodd;stroke:#808080;stroke-width:1px;stroke-linecap:round;stroke-linejoin:miter;stroke-opacity:0.5"
   d="M 1.9160156,8.7324219 9.3164062,9.7421875"
   id="path997"
   class="Black" /><path
   style="fill:none;fill-rule:evenodd;stroke:#808080;stroke-width:1px;stroke-linecap:round;stroke-linejoin:round;stroke-opacity:0.5"
   d="M 1.2777835,29.28254 9.5301356,27.312623 27.1529,25.928358 l 4.152797,4.525483"
   id="path999"
   class="Black" /><path
   id="rect840"
   style="fill:#1177d7;fill-opacity:1;stroke:#100f00;stroke-width:0;stroke-miterlimit:4;stroke-dasharray:none"
   d="M 19.595703 10.751953 L 15.535156 17.173828 L 17.224609 18.242188 L 21.052734 12.189453 L 19.595703 10.751953 z "
   class="Blue" /><path
   id="rect840-2"
   style="fill:#1177d7;fill-opacity:1;stroke:#100f00;stroke-width:0;stroke-miterlimit:4;stroke-dasharray:none"
   d="M 9.2753906 8.1777344 A 1.5402998 1.5402998 0 0 0 8.7636719 8.2714844 A 1.5402998 1.5402998 0 0 0 7.8496094 10.248047 A 1.5402998 1.5402998 0 0 0 9.0488281 11.236328 L 12.888672 17.833984 L 14.617188 16.828125 L 10.757812 10.199219 A 1.5402998 1.5402998 0 0 0 10.742188 9.1855469 A 1.5402998 1.5402998 0 0 0 9.2753906 8.1777344 z "
   class="Blue" /><path
   id="rect840-5"
   style="fill:#1177d7;fill-opacity:1;stroke:#100f00;stroke-width:0;stroke-miterlimit:4;stroke-dasharray:none"
   d="M 17.074219 19.029297 L 16.074219 20.761719 L 25.535156 26.224609 A 1.5402998 1.5402998 0 0 0 27.046875 27.46875 A 1.5402998 1.5402998 0 0 0 28.585938 25.927734 A 1.5402998 1.5402998 0 0 0 27.046875 24.388672 A 1.5402998 1.5402998 0 0 0 26.517578 24.482422 L 17.074219 19.029297 z "
   class="Blue" /><path
   id="rect840-1"
   style="fill:#1177d7;fill-opacity:1;stroke:#100f00;stroke-width:0;stroke-miterlimit:4;stroke-dasharray:none"
   d="M 13.300781 20.115234 L 9.4160156 25.628906 A 1.5402998 1.5402998 0 0 0 9.1113281 25.677734 A 1.5402998 1.5402998 0 0 0 8.0078125 27.554688 A 1.5402998 1.5402998 0 0 0 9.8867188 28.658203 A 1.5402998 1.5402998 0 0 0 11.003906 26.847656 L 14.927734 21.279297 L 13.300781 20.115234 z "
   class="Blue" /><path
   class="Black"
   d="m 29.09412,18.09412 c -1.2,0 -2.2,0.7 -2.7,1.6 l -8.4,-1.2 c -0.2,-1.3 -1.4,-2.4 -2.9,-2.4 -1.3,0 -2.4,0.8 -2.8,2 H 5.8941175 c -0.4,-1.2 -1.5,-2 -2.8,-2 -1.7000002,0 -3.00000005,1.3 -3.00000005,3 0,1.7 1.29999985,3 3.00000005,3 1.3,0 2.4,-0.8 2.8,-2 H 12.29412 c 0.4,1.2 1.5,2 2.8,2 1.1,0 2.1,-0.6 2.6,-1.6 l 8.4,1.2 c 0.3,1.4 1.6,2.4 3,2.4 1.7,0 3,-1.3 3,-3 0,-1.6 -1.3,-3 -3,-3 z m -26.0000025,2 c -0.6000002,0 -1.0000002,-0.4 -1.0000002,-1 0,-0.6 0.4,-1 1.0000002,-1 0.6,0 1,0.4 1,1 0,0.6 -0.4,1 -1,1 z m 12.0000025,0 c -0.6,0 -1,-0.4 -1,-1 0,-0.6 0.4,-1 1,-1 0.6,0 1,0.4 1,1 0,0.6 -0.4,1 -1,1 z m 14,2 c -0.6,0 -1,-0.4 -1,-1 0,-0.6 0.4,-1 1,-1 0.6,0 1,0.4 1,1 0,0.6 -0.4,1 -1,1 z"
   id="path8"
   style="fill:#727272;fill-opacity:1" /><polygon
   transform="translate(0.14823525,-0.44941174)"
   style="fill:#d11c1c"
   class="Red"
   points="20,10 22,12 25,9 28,12 30,10 27,7 30,4 28,2 25,5 22,2 20,4 23,7 "
   id="polygon10" /></svg>
