<?xml version="1.0" encoding="UTF-8" standalone="no"?>
<svg
   xmlns:dc="http://purl.org/dc/elements/1.1/"
   xmlns:cc="http://creativecommons.org/ns#"
   xmlns:rdf="http://www.w3.org/1999/02/22-rdf-syntax-ns#"
   xmlns:svg="http://www.w3.org/2000/svg"
   xmlns="http://www.w3.org/2000/svg"
   xmlns:sodipodi="http://sodipodi.sourceforge.net/DTD/sodipodi-0.dtd"
   xmlns:inkscape="http://www.inkscape.org/namespaces/inkscape"
   version="1.1"
   id="Layer_1"
   x="0px"
   y="0px"
   viewBox="0 0 32 32"
   style="enable-background:new 0 0 32 32;"
   xml:space="preserve"
   sodipodi:docname="designer.svg"
   inkscape:version="1.0.1 (3bc2e813f5, 2020-09-07)"><metadata
   id="metadata14"><rdf:RDF><cc:Work
       rdf:about=""><dc:format>image/svg+xml</dc:format><dc:type
         rdf:resource="http://purl.org/dc/dcmitype/StillImage" /><dc:title></dc:title></cc:Work></rdf:RDF></metadata><defs
   id="defs12"><marker
   style="overflow:visible"
   id="marker1341"
   refX="0.0"
   refY="0.0"
   orient="auto"
   inkscape:stockid="DotL"
   inkscape:isstock="true"><path
     transform="scale(0.8) translate(7.4, 1)"
     style="fill-rule:evenodd;stroke:#808080;stroke-width:1pt;stroke-opacity:1;fill:#808080;fill-opacity:1"
     d="M -2.5,-1.0 C -2.5,1.7600000 -4.7400000,4.0 -7.5,4.0 C -10.260000,4.0 -12.5,1.7600000 -12.5,-1.0 C -12.5,-3.7600000 -10.260000,-6.0 -7.5,-6.0 C -4.7400000,-6.0 -2.5,-3.7600000 -2.5,-1.0 z "
     id="path1339" /></marker><marker
   style="overflow:visible"
   id="marker1331"
   refX="0.0"
   refY="0.0"
   orient="auto"
   inkscape:stockid="DotL"
   inkscape:isstock="true"><path
     transform="scale(0.8) translate(7.4, 1)"
     style="fill-rule:evenodd;stroke:#808080;stroke-width:1pt;stroke-opacity:1;fill:#808080;fill-opacity:1"
     d="M -2.5,-1.0 C -2.5,1.7600000 -4.7400000,4.0 -7.5,4.0 C -10.260000,4.0 -12.5,1.7600000 -12.5,-1.0 C -12.5,-3.7600000 -10.260000,-6.0 -7.5,-6.0 C -4.7400000,-6.0 -2.5,-3.7600000 -2.5,-1.0 z "
     id="path1329" /></marker>
	
	
</defs><sodipodi:namedview
   pagecolor="#ffffff"
   bordercolor="#666666"
   borderopacity="1"
   objecttolerance="10"
   gridtolerance="10"
   guidetolerance="10"
   inkscape:pageopacity="0"
   inkscape:pageshadow="2"
   inkscape:window-width="2560"
   inkscape:window-height="1017"
   id="namedview10"
   showgrid="false"
   inkscape:zoom="18.782524"
   inkscape:cx="1.5856015"
   inkscape:cy="13.531597"
   inkscape:window-x="-8"
   inkscape:window-y="-8"
   inkscape:window-maximized="1"
   inkscape:current-layer="Layer_1" />
<style
   type="text/css"
   id="style2">
	.Blue{fill:#1177D7;}
	.Yellow{fill:#FFB115;}
	.Black{fill:#727272;}
	.Green{fill:#039C23;}
	.Red{fill:#D11C1C;}
	.st0{opacity:0.75;}
	.st1{opacity:0.5;}
</style>
<g
   id="Window">
	<path
   class="Blue"
   d="M 30,10 V 5 C 30,4.5 29.5,4 29,4 H 3 C 2.5,4 2,4.5 2,5 v 5 z"
   id="path4" />
	<path
   class="Black"
   d="M 28,10 V 26 H 4 V 10 H 2 v 17 c 0,0.5 0.5,1 1,1 h 26 c 0.5,0 1,-0.5 1,-1 V 10 Z"
   id="path6" />
</g>
<style
   type="text/css"
   id="style2-8">
	.Blue{fill:#1177D7;}
	.Yellow{fill:#FFB115;}
	.Red{fill:#D11C1C;}
</style><style
   type="text/css"
   id="style901">
	.Black{fill:#727272;}
	.Yellow{fill:#FFB115;}
	.Blue{fill:#1177D7;}
	.Green{fill:#039C23;}
	.Red{fill:#D11C1C;}
	.White{fill:#FFFFFF;}
	.st0{opacity:0.75;}
	.st1{opacity:0.5;}
	.st2{opacity:0.25;}
</style><g
   id="g946"
   transform="matrix(0.55661314,0,0,0.55661314,7.2715786,9.0740967)"><path
     opacity="0.8"
     enable-background="new    "
     d="M 29.7,4 C 29.4,4 29.2,4.1 28.9,4.3 L 17,12 c 0.5,-0.5 1.9,0.3 3.3,1.7 1.4,1.4 2.2,2.8 1.7,3.3 L 30.7,6.1 C 30.9,5.9 31,5.6 31,5.3 31,4.6 30.4,4 29.7,4 Z"
     id="path930" /><path
     opacity="0.4"
     enable-background="new    "
     d="m 17,12 -3.1,6 1,3.1 L 22,17 C 22.5,16.5 21.7,15.1 20.3,13.7 18.9,12.3 17.5,11.5 17,12 Z"
     id="path932" /><path
     fill="#337cb8"
     d="m 0,27.7 c 0,0 11.7,1.7 16.7,-3.6 4.3,-4.4 0.7,-7.7 0.7,-7.7 0,0 -3.5,-3.1 -7.2,-0.3 C 6.5,18.9 7.3,24.8 0,27.7 Z"
     id="path934" /></g></svg>
