<?xml version="1.0" encoding="UTF-8" standalone="no"?>
<svg
   xmlns:dc="http://purl.org/dc/elements/1.1/"
   xmlns:cc="http://creativecommons.org/ns#"
   xmlns:rdf="http://www.w3.org/1999/02/22-rdf-syntax-ns#"
   xmlns:svg="http://www.w3.org/2000/svg"
   xmlns="http://www.w3.org/2000/svg"
   xmlns:sodipodi="http://sodipodi.sourceforge.net/DTD/sodipodi-0.dtd"
   xmlns:inkscape="http://www.inkscape.org/namespaces/inkscape"
   version="1.1"
   id="Create_Stacked_Line_Chart"
   x="0px"
   y="0px"
   viewBox="0 0 32 32"
   style="enable-background:new 0 0 32 32;"
   xml:space="preserve"
   sodipodi:docname="directionright.svg"
   inkscape:version="1.0.2 (e86c870879, 2021-01-15, custom)"><metadata
   id="metadata15"><rdf:RDF><cc:Work
       rdf:about=""><dc:format>image/svg+xml</dc:format><dc:type
         rdf:resource="http://purl.org/dc/dcmitype/StillImage" /><dc:title></dc:title></cc:Work></rdf:RDF></metadata><defs
   id="defs13" /><sodipodi:namedview
   pagecolor="#ffffff"
   bordercolor="#666666"
   borderopacity="1"
   objecttolerance="10"
   gridtolerance="10"
   guidetolerance="10"
   inkscape:pageopacity="0"
   inkscape:pageshadow="2"
   inkscape:window-width="2560"
   inkscape:window-height="1017"
   id="namedview11"
   showgrid="false"
   inkscape:zoom="8.901276"
   inkscape:cx="29.624602"
   inkscape:cy="14.955195"
   inkscape:window-x="-8"
   inkscape:window-y="-8"
   inkscape:window-maximized="1"
   inkscape:current-layer="Create_Stacked_Line_Chart"
   inkscape:document-rotation="0" />
<style
   type="text/css"
   id="style2">
	.Blue{fill:#1177D7;}
	.Yellow{fill:#FFB115;}
	.Red{fill:#D11C1C;}
</style>



<style
   type="text/css"
   id="style839">
	.Black{fill:#727272;}
</style><style
   type="text/css"
   id="style852">
	.Black{fill:#727272;}
	.Red_x0020_2{fill:#D11C1C;}
</style><style
   type="text/css"
   id="style2-8">
	.Blue{fill:#1177D7;}
	.Yellow{fill:#FFB115;}
	.Red{fill:#D11C1C;}
</style><g
   id="g990"
   transform="matrix(-0.89965709,-0.4365972,-0.4365972,0.89965709,2.2738603,0.28689236)"><path
     id="path4-1"
     style="fill:#d11c1c;fill-opacity:1"
     d="m -23.125,-8.5078125 -8.042969,7.3476563 8.042969,6.9609374 v -6.00781245 l 3.947266,-0.001953 0.173828,0.359375 c 0.742215,1.52941705 2.480348,2.13088705 4.009765,1.38867185 1.529417,-0.74221521 2.130887,-2.47839541 1.388672,-4.0078125 -0.778617,-1.6689711 -2.516641,-2.170014 -4.142578,-1.4375 -0.719726,0.3492778 -1.219519,0.9268846 -1.541015,1.6386719 L -23.125,-2.21875 Z m 6.648438,6.2871094 c 0.390333,-0.033117 0.741031,0.1713262 0.9375,0.5761719 0.261958,0.5397942 0.0769,1.07593225 -0.462891,1.33789058 -0.539794,0.26195832 -1.073979,0.0749505 -1.335938,-0.46484376 -0.261958,-0.53979422 -0.0769,-1.07397922 0.462891,-1.33593752 0.134949,-0.06549 0.268326,-0.1022423 0.398438,-0.1132812 z"
     transform="rotate(25.88697,-41.395548,11.843808)" /></g></svg>
