<?xml version="1.0" encoding="UTF-8" standalone="no"?>
<svg
   xmlns:dc="http://purl.org/dc/elements/1.1/"
   xmlns:cc="http://creativecommons.org/ns#"
   xmlns:rdf="http://www.w3.org/1999/02/22-rdf-syntax-ns#"
   xmlns:svg="http://www.w3.org/2000/svg"
   xmlns="http://www.w3.org/2000/svg"
   xmlns:sodipodi="http://sodipodi.sourceforge.net/DTD/sodipodi-0.dtd"
   xmlns:inkscape="http://www.inkscape.org/namespaces/inkscape"
   version="1.1"
   id="Create_Stacked_Line_Chart"
   x="0px"
   y="0px"
   viewBox="0 0 32 32"
   style="enable-background:new 0 0 32 32;"
   xml:space="preserve"
   sodipodi:docname="directionvertical.svg"
   inkscape:version="1.0.2 (e86c870879, 2021-01-15, custom)"><metadata
   id="metadata15"><rdf:RDF><cc:Work
       rdf:about=""><dc:format>image/svg+xml</dc:format><dc:type
         rdf:resource="http://purl.org/dc/dcmitype/StillImage" /><dc:title></dc:title></cc:Work></rdf:RDF></metadata><defs
   id="defs13" /><sodipodi:namedview
   pagecolor="#ffffff"
   bordercolor="#666666"
   borderopacity="1"
   objecttolerance="10"
   gridtolerance="10"
   guidetolerance="10"
   inkscape:pageopacity="0"
   inkscape:pageshadow="2"
   inkscape:window-width="2560"
   inkscape:window-height="1017"
   id="namedview11"
   showgrid="false"
   inkscape:zoom="9.1429872"
   inkscape:cx="29.624602"
   inkscape:cy="14.955195"
   inkscape:window-x="-8"
   inkscape:window-y="-8"
   inkscape:window-maximized="1"
   inkscape:current-layer="Create_Stacked_Line_Chart"
   inkscape:document-rotation="0" />
<style
   type="text/css"
   id="style2">
	.Blue{fill:#1177D7;}
	.Yellow{fill:#FFB115;}
	.Red{fill:#D11C1C;}
</style>



<style
   type="text/css"
   id="style839">
	.Black{fill:#727272;}
</style><style
   type="text/css"
   id="style852">
	.Black{fill:#727272;}
	.Red_x0020_2{fill:#D11C1C;}
</style><style
   type="text/css"
   id="style2-8">
	.Blue{fill:#1177D7;}
	.Yellow{fill:#FFB115;}
	.Red{fill:#D11C1C;}
</style><g
   id="g990"
   transform="rotate(64.11303,-5.7515763,38.367325)"><path
     id="path4-1"
     d="m -21.819155,3.7678632 c -1.7,0 -3,1.4 -3,3.0000002 0,1.7 1.3,3 3,3 0.8,0 1.499609,-0.298828 2.099609,-0.798828 l 3.574118,1.7305876 v 0.40039 c 0,1.7 1.3,3 3,3 1.7,0 3,-1.3 3,-3 0.02818,-1.8414436 -1.317016,-3.0506966 -3.099615,-3.1015646 -0.8,0 -1.501562,0.300781 -2.101563,0.800781 l -3.472549,-1.630976 v -0.40039 c 0,-1.7000002 -1.3,-3.0000002 -3,-3.0000002 z m 0,2 c 0.6,0 1,0.4 1,1.0000002 0,0.6 -0.4,1 -1,1 -0.6,0 -1,-0.4 -1,-1 0,-0.6000002 0.4,-1.0000002 1,-1.0000002 z m 8.574118,4.2305882 c 0.6,0 1,0.3999996 1,0.9999996 0,0.6 -0.4,1 -1,1 -0.6,0 -1,-0.4 -1,-1 0,-0.6 0.4,-0.9999996 1,-0.9999996 z"
     sodipodi:nodetypes="sssccssccccssssssssssss"
     style="fill:#d11c1c;fill-opacity:1" /></g></svg>
