<?xml version="1.0" encoding="UTF-8" standalone="no"?>
<!-- Generator: Adobe Illustrator 21.0.2, SVG Export Plug-In . SVG Version: 6.00 Build 0)  -->

<svg
   version="1.1"
   id="RulerHorizontal"
   x="0px"
   y="0px"
   viewBox="0 0 32 32"
   style="enable-background:new 0 0 32 32;"
   xml:space="preserve"
   sodipodi:docname="distance_filter.svg"
   inkscape:version="1.1 (c68e22c387, 2021-05-23)"
   xmlns:inkscape="http://www.inkscape.org/namespaces/inkscape"
   xmlns:sodipodi="http://sodipodi.sourceforge.net/DTD/sodipodi-0.dtd"
   xmlns="http://www.w3.org/2000/svg"
   xmlns:svg="http://www.w3.org/2000/svg"><defs
   id="defs11" /><sodipodi:namedview
   id="namedview9"
   pagecolor="#505050"
   bordercolor="#eeeeee"
   borderopacity="1"
   inkscape:pageshadow="0"
   inkscape:pageopacity="0"
   inkscape:pagecheckerboard="0"
   showgrid="false"
   inkscape:zoom="13"
   inkscape:cx="23.615385"
   inkscape:cy="18.192308"
   inkscape:window-width="2560"
   inkscape:window-height="1017"
   inkscape:window-x="-8"
   inkscape:window-y="-8"
   inkscape:window-maximized="1"
   inkscape:current-layer="RulerHorizontal" />
<style
   type="text/css"
   id="style2">
	.Black{fill:#727272;}
	.Yellow{fill:#FFB115;}
</style>
<path
   id="path4"
   class="Yellow"
   d="M 1 8 C 0.4 8 0 8.4 0 9 L 0 21 C 0 21.5 0.4 22 1 22 L 14 22 L 14 16 L 30 16 L 30 9 C 30 8.4 29.5 8 29 8 L 1 8 z " />
<path
   class="Black"
   d="M 4,22 H 2 V 16 H 4 Z M 8,18 H 6 v 4 h 2 z m 4,-2 h -2 v 6 h 2 z"
   id="path6"
   sodipodi:nodetypes="ccccccccccccccc" />
<polygon
   class="Yellow"
   points="16,20 16,18 32,18 32,20 26,26 26,32 22,32 22,26 "
   id="polygon12"
   style="fill:#ffb115;fill-opacity:1" /></svg>
