<?xml version="1.0" encoding="UTF-8" standalone="no"?>
<svg
   xmlns:dc="http://purl.org/dc/elements/1.1/"
   xmlns:cc="http://creativecommons.org/ns#"
   xmlns:rdf="http://www.w3.org/1999/02/22-rdf-syntax-ns#"
   xmlns:svg="http://www.w3.org/2000/svg"
   xmlns="http://www.w3.org/2000/svg"
   xmlns:sodipodi="http://sodipodi.sourceforge.net/DTD/sodipodi-0.dtd"
   xmlns:inkscape="http://www.inkscape.org/namespaces/inkscape"
   version="1.1"
   id="Print_Area"
   x="0px"
   y="0px"
   viewBox="0 0 32 32"
   style="enable-background:new 0 0 32 32;"
   xml:space="preserve"
   sodipodi:docname="documentexport.svg"
   inkscape:version="1.0.1 (3bc2e813f5, 2020-09-07)"><metadata
   id="metadata17"><rdf:RDF><cc:Work
       rdf:about=""><dc:format>image/svg+xml</dc:format><dc:type
         rdf:resource="http://purl.org/dc/dcmitype/StillImage" /><dc:title></dc:title></cc:Work></rdf:RDF></metadata><defs
   id="defs15" /><sodipodi:namedview
   pagecolor="#ffffff"
   bordercolor="#666666"
   borderopacity="1"
   objecttolerance="10"
   gridtolerance="10"
   guidetolerance="10"
   inkscape:pageopacity="0"
   inkscape:pageshadow="2"
   inkscape:window-width="2560"
   inkscape:window-height="1017"
   id="namedview13"
   showgrid="false"
   inkscape:zoom="4.0603397"
   inkscape:cx="8.347731"
   inkscape:cy="51.628822"
   inkscape:window-x="-8"
   inkscape:window-y="-8"
   inkscape:window-maximized="1"
   inkscape:current-layer="Print_Area" />
<style
   type="text/css"
   id="style2">
	.Black{fill:#727272;}
	.Blue{fill:#1177D7;}
	.st0{opacity:0.5;}
</style>
<g
   class="st0"
   id="g6">
	
</g>

<path
   class="Black"
   d="M4,24h4v2H3c-0.6,0-1-0.4-1-1V1c0-0.6,0.4-1,1-1h20c0.6,0,1,0.4,1,1v7h-2V2H4V24z M26,18v-8H16v8h2v-6h6v6H26  z M32,18v10c0,1.1-0.9,2-2,2h-4v2H16v-2h-4c-1.1,0-2-0.9-2-2V18c0-1.1,0.9-2,2-2h2v3c0,0.6,0.4,1,1,1h12c0.6,0,1-0.4,1-1v-3h2  C31.1,16,32,16.9,32,18z M24,30v-4h-6v4H24z"
   id="path10" />
</svg>
