<?xml version="1.0" encoding="UTF-8" standalone="no"?>
<!-- Generator: Adobe Illustrator 21.1.0, SVG Export Plug-In . SVG Version: 6.00 Build 0)  -->

<svg
   version="1.1"
   id="Layer_1"
   x="0px"
   y="0px"
   viewBox="0 0 32 32"
   style="enable-background:new 0 0 32 32;"
   xml:space="preserve"
   sodipodi:docname="Electronics_Volume_colored.svg"
   inkscape:version="1.1 (c68e22c387, 2021-05-23)"
   xmlns:inkscape="http://www.inkscape.org/namespaces/inkscape"
   xmlns:sodipodi="http://sodipodi.sourceforge.net/DTD/sodipodi-0.dtd"
   xmlns="http://www.w3.org/2000/svg"
   xmlns:svg="http://www.w3.org/2000/svg"><defs
   id="defs15" /><sodipodi:namedview
   id="namedview13"
   pagecolor="#505050"
   bordercolor="#eeeeee"
   borderopacity="1"
   inkscape:pageshadow="0"
   inkscape:pageopacity="0"
   inkscape:pagecheckerboard="0"
   showgrid="false"
   inkscape:zoom="26"
   inkscape:cx="15.096154"
   inkscape:cy="16.019231"
   inkscape:window-width="2560"
   inkscape:window-height="1017"
   inkscape:window-x="-8"
   inkscape:window-y="-8"
   inkscape:window-maximized="1"
   inkscape:current-layer="Layer_1" />
<style
   type="text/css"
   id="style2">
	.Black{fill:#727272;}
</style>
<g
   id="Volume_2_">
	<path
   id="Volume_3_"
   class="Yellow"
   d="M3,10h7l6-6v24l-6-6H3c-0.6,0-1-0.4-1-1V11C2,10.4,2.4,10,3,10z"
   style="fill:#ffb115;fill-opacity:1" />
	<path
   class="Black"
   d="M28,16c0,3.3-1.3,6.3-3.5,8.5l1.4,1.4c2.5-2.5,4.1-6,4.1-9.9c0-3.9-1.6-7.4-4.1-9.9l-1.4,1.4   C26.7,9.7,28,12.7,28,16z"
   id="path5" />
	<path
   class="Black"
   d="M23.1,8.9l-1.4,1.4c1.4,1.4,2.3,3.4,2.3,5.7c0,2.2-0.9,4.2-2.3,5.7l1.4,1.4c1.8-1.8,2.9-4.3,2.9-7.1   C26,13.2,24.9,10.7,23.1,8.9z"
   id="path7" />
	<path
   class="Black"
   d="M20.2,11.8l-1.4,1.4c0.7,0.7,1.2,1.7,1.2,2.8c0,1.1-0.4,2.1-1.2,2.8l1.4,1.4c1.1-1.1,1.8-2.6,1.8-4.2   S21.3,12.8,20.2,11.8z"
   id="path9" />
</g>
<style
   type="text/css"
   id="style832">
	.Blue{fill:#1177D7;}
	.Yellow{fill:#FFB115;}
	.Red{fill:#D11C1C;}
	.Green{fill:#039C23;}
	.Black{fill:#727272;}
	.White{fill:#FFFFFF;}
	.st0{opacity:0.5;}
	.st1{opacity:0.75;}
	.st2{display:none;}
	.st3{display:inline;fill:#FFB115;}
	.st4{display:inline;}
	.st5{display:inline;opacity:0.75;}
	.st6{display:inline;opacity:0.5;}
	.st7{display:inline;fill:#039C23;}
	.st8{display:inline;fill:#D11C1C;}
	.st9{display:inline;fill:#1177D7;}
	.st10{display:inline;fill:#FFFFFF;}
</style></svg>
