<?xml version="1.0" encoding="UTF-8" standalone="no"?>
<svg
   xmlns:dc="http://purl.org/dc/elements/1.1/"
   xmlns:cc="http://creativecommons.org/ns#"
   xmlns:rdf="http://www.w3.org/1999/02/22-rdf-syntax-ns#"
   xmlns:svg="http://www.w3.org/2000/svg"
   xmlns="http://www.w3.org/2000/svg"
   xmlns:sodipodi="http://sodipodi.sourceforge.net/DTD/sodipodi-0.dtd"
   xmlns:inkscape="http://www.inkscape.org/namespaces/inkscape"
   version="1.1"
   id="Layer_1"
   x="0px"
   y="0px"
   viewBox="0 0 32 32"
   style="enable-background:new 0 0 32 32;"
   xml:space="preserve"
   sodipodi:docname="exporttogallery.svg"
   inkscape:version="1.0.1 (3bc2e813f5, 2020-09-07)"><metadata
   id="metadata25"><rdf:RDF><cc:Work
       rdf:about=""><dc:format>image/svg+xml</dc:format><dc:type
         rdf:resource="http://purl.org/dc/dcmitype/StillImage" /><dc:title></dc:title></cc:Work></rdf:RDF></metadata><defs
   id="defs23" /><sodipodi:namedview
   pagecolor="#ffffff"
   bordercolor="#666666"
   borderopacity="1"
   objecttolerance="10"
   gridtolerance="10"
   guidetolerance="10"
   inkscape:pageopacity="0"
   inkscape:pageshadow="2"
   inkscape:window-width="2560"
   inkscape:window-height="1017"
   id="namedview21"
   showgrid="false"
   inkscape:zoom="6.640625"
   inkscape:cx="46.18765"
   inkscape:cy="22.112171"
   inkscape:window-x="-8"
   inkscape:window-y="-8"
   inkscape:window-maximized="1"
   inkscape:current-layer="Layer_1" />
<style
   type="text/css"
   id="style2">
	.Black{fill:#727272;}
	.Green{fill:#039C23;}
	.Yellow{fill:#FFB115;}
	.st0{opacity:0.5;}
</style>
<rect
   y="24"
   class="Yellow"
   width="26"
   height="8"
   id="rect4" />
<polygon
   class="Yellow"
   points="32,30 28,32 28,24 32,22 "
   id="polygon6" />
<circle
   class="Yellow"
   cx="19"
   cy="11"
   r="3"
   id="circle8" />
<polygon
   class="Green"
   points="16,22 8,14 6,16 6,22 "
   id="polygon10" />
<g
   class="st0"
   id="g14">
	<polygon
   class="Green"
   points="18,22 14,18 16,16 22,22  "
   id="polygon12" />
</g>
<path
   id="path16"
   d="M 15.359375 0 L 15.359375 2 L 28 2 L 28 20 L 30 20 L 30 2 L 30 1 C 30 0.4 29.6 0 29 0 L 15.359375 0 z "
   style="fill:#727272;fill-opacity:1" />
<path
   d="m 2,13.310547 v 8.65625 h 2 v -8.689453 z"
   id="path906"
   style="fill:#727272;fill-opacity:1" /><path
   d="M 15.376953,4 V 6 H 24 v 16 h 2 V 5 C 26,4.5 25.5,4 25,4 Z"
   id="path904"
   style="fill:#727272;fill-opacity:1" />
<style
   type="text/css"
   id="style850">
	.Black{fill:#727272;}
</style><path
   class="Black"
   d="m 13.696158,0.31908961 h -1.5 V 5.31909 H 4.1961576 V 0.31908961 h -1.5 c -0.3,0 -0.5,0.200001 -0.5,0.5 V 11.819091 c 0,0.3 0.2,0.5 0.5,0.5 H 13.696158 c 0.3,0 0.5,-0.2 0.5,-0.5 V 0.81908961 c 0,-0.299999 -0.2,-0.5 -0.5,-0.5 z m -1.5,10.00000139 H 4.1961576 v -3 H 12.196158 Z M 5.1961576,0.31908961 V 4.31909 H 10.196158 V 0.31908961 Z m 2,3.00000039 h -1 V 1.3190896 h 1 z"
   id="path852"
   style="stroke-width:0.5" /><g
   id="g866"
   style="opacity:1"
   transform="translate(-20.404706,-42.390588)" /></svg>
