<?xml version="1.0" encoding="UTF-8" standalone="no"?>
<svg
   x="0px"
   y="0px"
   viewBox="0 0 32 32"
   version="1.1"
   xml:space="preserve"
   id="Layer_1"
   style="enable-background:new 0 0 32 32"
   sodipodi:docname="filter_refresh.svg"
   inkscape:version="1.3.2 (091e20e, 2023-11-25, custom)"
   xmlns:inkscape="http://www.inkscape.org/namespaces/inkscape"
   xmlns:sodipodi="http://sodipodi.sourceforge.net/DTD/sodipodi-0.dtd"
   xmlns="http://www.w3.org/2000/svg"
   xmlns:svg="http://www.w3.org/2000/svg"><defs
   id="defs1" /><sodipodi:namedview
   id="namedview1"
   pagecolor="#505050"
   bordercolor="#eeeeee"
   borderopacity="1"
   inkscape:showpageshadow="0"
   inkscape:pageopacity="0"
   inkscape:pagecheckerboard="0"
   inkscape:deskcolor="#d1d1d1"
   inkscape:zoom="8.9824658"
   inkscape:cx="24.380833"
   inkscape:cy="12.858385"
   inkscape:window-width="2560"
   inkscape:window-height="1009"
   inkscape:window-x="-8"
   inkscape:window-y="-8"
   inkscape:window-maximized="1"
   inkscape:current-layer="Filter" />
  <style
   type="text/css"
   id="style1">
	.Black{fill:#727272;}
	.Yellow{fill:#FFB115;}
	.Blue{fill:#1177D7;}
	.Green{fill:#039C23;}
	.Red{fill:#D11C1C;}
	.White{fill:#FFFFFF;}
	.st0{opacity:0.75;}
	.st1{opacity:0.5;}
	.st2{opacity:0.25;}
</style>
  <g
   id="Filter">
    <path
   id="polygon1"
   class="Yellow"
   d="M 4 2 L 4 6 L 14 16 L 14 30 L 14.228516 29.771484 L 14.228516 25.777344 L 14.287109 22.382812 C 14.552618 20.466457 15.381411 18.618119 16.746094 17.238281 C 17.126591 16.834018 17.548642 16.475363 18 16.162109 L 18 16 L 28 6 L 28 2 L 4 2 z " />
  </g>
<path
   class="Green"
   d="m 29.873309,16.376384 v 6 h -0.1 -2 -3.9 l 2.5,-2.5 c -0.9,-0.9 -2.1,-1.5 -3.5,-1.5 -2.4,0 -4.4,1.7 -4.9,4 h -2 c 0.5,-3.4 3.4,-6 6.9,-6 1.9,0 3.7,0.8 4.9,2.1 z m -7,12 c -1.4,0 -2.6,-0.6 -3.5,-1.5 l 2.5,-2.5 h -3.9 -2 -0.1 v 6 l 2.1,-2.1 c 1.3,1.3 3,2.1 4.9,2.1 3.5,0 6.4,-2.6 6.9,-6 h -2 c -0.5,2.3 -2.5,4 -4.9,4 z"
   id="path2-3" /></svg>
