<?xml version="1.0" encoding="UTF-8" standalone="no"?>
<svg
   xmlns:dc="http://purl.org/dc/elements/1.1/"
   xmlns:cc="http://creativecommons.org/ns#"
   xmlns:rdf="http://www.w3.org/1999/02/22-rdf-syntax-ns#"
   xmlns:svg="http://www.w3.org/2000/svg"
   xmlns="http://www.w3.org/2000/svg"
   xmlns:xlink="http://www.w3.org/1999/xlink"
   xmlns:sodipodi="http://sodipodi.sourceforge.net/DTD/sodipodi-0.dtd"
   xmlns:inkscape="http://www.inkscape.org/namespaces/inkscape"
   version="1.1"
   id="Select"
   x="0px"
   y="0px"
   viewBox="0 0 32 32"
   style="enable-background:new 0 0 32 32;"
   xml:space="preserve"
   sodipodi:docname="filtermode.svg"
   inkscape:version="1.0.1 (3bc2e813f5, 2020-09-07)"><metadata
   id="metadata15"><rdf:RDF><cc:Work
       rdf:about=""><dc:format>image/svg+xml</dc:format><dc:type
         rdf:resource="http://purl.org/dc/dcmitype/StillImage" /><dc:title></dc:title></cc:Work></rdf:RDF></metadata><defs
   id="defs13"><linearGradient
     inkscape:collect="always"
     id="linearGradient873"><stop
       style="stop-color:#727272;stop-opacity:1;"
       offset="0"
       id="stop869" /><stop
       style="stop-color:#727272;stop-opacity:0;"
       offset="1"
       id="stop871" /></linearGradient><linearGradient
     inkscape:collect="always"
     xlink:href="#linearGradient873"
     id="linearGradient875"
     x1="6"
     y1="14"
     x2="24"
     y2="14"
     gradientUnits="userSpaceOnUse" /><marker
     style="overflow:visible"
     id="marker1341"
     refX="0.0"
     refY="0.0"
     orient="auto"
     inkscape:stockid="DotL"
     inkscape:isstock="true"><path
       transform="scale(0.8) translate(7.4, 1)"
       style="fill-rule:evenodd;stroke:#808080;stroke-width:1pt;stroke-opacity:1;fill:#808080;fill-opacity:1"
       d="M -2.5,-1.0 C -2.5,1.7600000 -4.7400000,4.0 -7.5,4.0 C -10.260000,4.0 -12.5,1.7600000 -12.5,-1.0 C -12.5,-3.7600000 -10.260000,-6.0 -7.5,-6.0 C -4.7400000,-6.0 -2.5,-3.7600000 -2.5,-1.0 z "
       id="path1339" /></marker><marker
     style="overflow:visible"
     id="marker1331"
     refX="0.0"
     refY="0.0"
     orient="auto"
     inkscape:stockid="DotL"
     inkscape:isstock="true"><path
       transform="scale(0.8) translate(7.4, 1)"
       style="fill-rule:evenodd;stroke:#808080;stroke-width:1pt;stroke-opacity:1;fill:#808080;fill-opacity:1"
       d="M -2.5,-1.0 C -2.5,1.7600000 -4.7400000,4.0 -7.5,4.0 C -10.260000,4.0 -12.5,1.7600000 -12.5,-1.0 C -12.5,-3.7600000 -10.260000,-6.0 -7.5,-6.0 C -4.7400000,-6.0 -2.5,-3.7600000 -2.5,-1.0 z "
       id="path1329" /></marker></defs><sodipodi:namedview
   pagecolor="#ffffff"
   bordercolor="#666666"
   borderopacity="1"
   objecttolerance="10"
   gridtolerance="10"
   guidetolerance="10"
   inkscape:pageopacity="0"
   inkscape:pageshadow="2"
   inkscape:window-width="2560"
   inkscape:window-height="1017"
   id="namedview11"
   showgrid="false"
   showguides="true"
   inkscape:guide-bbox="true"
   inkscape:zoom="6.4650682"
   inkscape:cx="-5.5566539"
   inkscape:cy="34.990381"
   inkscape:window-x="-8"
   inkscape:window-y="-8"
   inkscape:window-maximized="1"
   inkscape:current-layer="Select"
   inkscape:document-rotation="0"><sodipodi:guide
     position="24,20"
     orientation="1,0"
     id="guide867" /><sodipodi:guide
     position="6,26"
     orientation="1,0"
     id="guide892" /><sodipodi:guide
     position="12,14"
     orientation="0,-1"
     id="guide894" /></sodipodi:namedview>
<style
   type="text/css"
   id="style2">
	.Black{fill:#727272;}
	.Blue{fill:#1177D7;}
	.st0{opacity:0.5;}
</style>
<rect
   x="6"
   y="12"
   width="18"
   height="4"
   id="rect8"
   style="fill:#1177d7;stroke-width:0.654654;fill-opacity:1"
   inkscape:label="rect8" /><g
   id="g6"
   transform="matrix(4.5,0,0,1,-21,0)"
   inkscape:label="g6"
   style="fill:#666666;fill-opacity:0.50196081">
	<path
   d="M 10,10 H 6 V 6 h 4 z"
   id="path4"
   style="fill:#666666;fill-opacity:0.50196081"
   inkscape:label="path4" />
</g>
<path
   id="path8"
   inkscape:label="path8"
   d="M 3,2 C 2.4,2 2,2.4 2,3 v 24 c 0,0.6 0.4,1 1,1 h 7.195338 2.199219 1.800781 l 1.585915,-2 H 12.294947 10.195338 4 V 4 h 22 l 0,6.304712 v 2.099609 3.328125 L 27.650391,14.554712 28,14.904321 v -2.40039 -2.199219 L 28,3 C 28,2.4 27.6,2 27,2 Z"
   style="fill:#727272;fill-opacity:1"
   sodipodi:nodetypes="ssssccccccccccccccccsss" />
<path
   d="M 24,18 H 6.0141176 v 4 H 24 Z"
   id="path848-5"
   style="fill:#999999;fill-opacity:0.501961;stroke-width:1.22426"
   inkscape:label="path848-5" /><style
   type="text/css"
   id="style2-3">
	.Black{fill:#727272;}
	.Yellow{fill:#FFB115;}
	.Blue{fill:#1177D7;}
	.Green{fill:#039C23;}
	.Red{fill:#D11C1C;}
	.White{fill:#FFFFFF;}
	.st0{opacity:0.75;}
	.st1{opacity:0.5;}
	.st2{opacity:0.25;}
</style><style
   type="text/css"
   id="style2-7">
	.Blue{fill:#1177D7;}
	.Yellow{fill:#FFB115;}
	.Black{fill:#727272;}
	.Green{fill:#039C23;}
	.Red{fill:#D11C1C;}
	.st0{opacity:0.75;}
	.st1{opacity:0.5;}
</style><style
   type="text/css"
   id="style2-8">
	.Blue{fill:#1177D7;}
	.Yellow{fill:#FFB115;}
	.Red{fill:#D11C1C;}
</style><path
   class="Black"
   d="m 30.749677,23.640303 v -2 l -2.5,-0.6 c -0.1,-0.4 -0.3,-0.8 -0.5,-1.2 l 1.5,-2.1 -1.6,-1.6 -2.1,1.5 c -0.4,-0.2 -0.8,-0.4 -1.2,-0.5 l -0.6,-2.5 h -2 l -0.6,2.5 c -0.4,0.1 -0.8,0.3 -1.2,0.5 l -2,-1.5 -1.7,1.7 1.5,2 c -0.2,0.4 -0.4,0.8 -0.5,1.2 l -2.5,0.6 v 2 l 2.5,0.6 c 0.1,0.4 0.3,0.8 0.5,1.2 l -1.5,2.1 1.6,1.6 2.1,-1.5 c 0.4,0.200001 0.8,0.4 1.2,0.5 l 0.6,2.5 h 2 l 0.6,-2.5 c 0.4,-0.1 0.8,-0.299999 1.2,-0.5 l 2.1,1.5 1.6,-1.6 -1.5,-2.1 c 0.2,-0.4 0.4,-0.8 0.5,-1.2 z m -8,1 c -1.1,0 -2,-0.9 -2,-2 0,-1.1 0.9,-2 2,-2 1.1,0 2,0.9 2,2 0,1.1 -0.9,2 -2,2 z"
   id="path4-5"
   sodipodi:nodetypes="cccccccccccccccccccccccccccccccccsssss"
   style="fill:#727272" /></svg>
