<?xml version="1.0" encoding="UTF-8" standalone="no"?>
<svg
   xmlns:dc="http://purl.org/dc/elements/1.1/"
   xmlns:cc="http://creativecommons.org/ns#"
   xmlns:rdf="http://www.w3.org/1999/02/22-rdf-syntax-ns#"
   xmlns:svg="http://www.w3.org/2000/svg"
   xmlns="http://www.w3.org/2000/svg"
   xmlns:sodipodi="http://sodipodi.sourceforge.net/DTD/sodipodi-0.dtd"
   xmlns:inkscape="http://www.inkscape.org/namespaces/inkscape"
   version="1.1"
   id="Layer_1"
   x="0px"
   y="0px"
   viewBox="0 0 32 32"
   style="enable-background:new 0 0 32 32;"
   xml:space="preserve"
   sodipodi:docname="filtesettings.svg"
   inkscape:version="1.0.1 (3bc2e813f5, 2020-09-07)"><metadata
   id="metadata12"><rdf:RDF><cc:Work
       rdf:about=""><dc:format>image/svg+xml</dc:format><dc:type
         rdf:resource="http://purl.org/dc/dcmitype/StillImage" /><dc:title></dc:title></cc:Work></rdf:RDF></metadata><defs
   id="defs10" /><sodipodi:namedview
   pagecolor="#ffffff"
   bordercolor="#666666"
   borderopacity="1"
   objecttolerance="10"
   gridtolerance="10"
   guidetolerance="10"
   inkscape:pageopacity="0"
   inkscape:pageshadow="2"
   inkscape:window-width="2560"
   inkscape:window-height="1017"
   id="namedview8"
   showgrid="false"
   inkscape:zoom="13.28125"
   inkscape:cx="4.9628547"
   inkscape:cy="20.664688"
   inkscape:window-x="-8"
   inkscape:window-y="-8"
   inkscape:window-maximized="1"
   inkscape:current-layer="Layer_1" />
<style
   type="text/css"
   id="style2">
	.Black{fill:#727272;}
	.Yellow{fill:#FFB115;}
	.Blue{fill:#1177D7;}
	.Green{fill:#039C23;}
	.Red{fill:#D11C1C;}
	.White{fill:#FFFFFF;}
	.st0{opacity:0.75;}
	.st1{opacity:0.5;}
	.st2{opacity:0.25;}
</style>
<g
   id="Filter">
	<polygon
   class="Yellow"
   points="4,2 28,2 28,6 18,16 18,26 14,30 14,16 4,6  "
   id="polygon4" />
</g>
<path
   class="Black"
   d="m 29.52,22.671765 v -2 l -2.5,-0.6 c -0.1,-0.4 -0.3,-0.8 -0.5,-1.2 l 1.5,-2.1 -1.6,-1.6 -2.1,1.5 c -0.4,-0.2 -0.8,-0.4 -1.2,-0.5 l -0.6,-2.5 h -2 l -0.6,2.5 c -0.4,0.1 -0.8,0.3 -1.2,0.5 l -2,-1.5 -1.7,1.7 1.5,2 c -0.2,0.4 -0.4,0.8 -0.5,1.2 l -2.5,0.6 v 2 l 2.5,0.6 c 0.1,0.4 0.3,0.8 0.5,1.2 l -1.5,2.1 1.6,1.6 2.1,-1.5 c 0.4,0.200001 0.8,0.4 1.2,0.5 l 0.6,2.5 h 2 l 0.6,-2.5 c 0.4,-0.1 0.8,-0.299999 1.2,-0.5 l 2.1,1.5 1.6,-1.6 -1.5,-2.1 c 0.2,-0.4 0.4,-0.8 0.5,-1.2 z m -8,1 c -1.1,0 -2,-0.9 -2,-2 0,-1.1 0.9,-2 2,-2 1.1,0 2,0.9 2,2 0,1.1 -0.9,2 -2,2 z"
   id="path4"
   sodipodi:nodetypes="cccccccccccccccccccccccccccccccccsssss"
   style="fill:#727272" /></svg>
