<?xml version="1.0" encoding="UTF-8" standalone="no"?>
<svg
   xmlns:dc="http://purl.org/dc/elements/1.1/"
   xmlns:cc="http://creativecommons.org/ns#"
   xmlns:rdf="http://www.w3.org/1999/02/22-rdf-syntax-ns#"
   xmlns:svg="http://www.w3.org/2000/svg"
   xmlns="http://www.w3.org/2000/svg"
   xmlns:sodipodi="http://sodipodi.sourceforge.net/DTD/sodipodi-0.dtd"
   xmlns:inkscape="http://www.inkscape.org/namespaces/inkscape"
   version="1.1"
   id="Layer_1"
   x="0px"
   y="0px"
   viewBox="0 0 32 32"
   style="enable-background:new 0 0 32 32;"
   xml:space="preserve"
   sodipodi:docname="fixstationfrommarker.svg"
   inkscape:version="1.0.1 (3bc2e813f5, 2020-09-07)"><metadata
   id="metadata12"><rdf:RDF><cc:Work
       rdf:about=""><dc:format>image/svg+xml</dc:format><dc:type
         rdf:resource="http://purl.org/dc/dcmitype/StillImage" /><dc:title></dc:title></cc:Work></rdf:RDF></metadata><defs
   id="defs10" /><sodipodi:namedview
   pagecolor="#ffffff"
   bordercolor="#666666"
   borderopacity="1"
   objecttolerance="10"
   gridtolerance="10"
   guidetolerance="10"
   inkscape:pageopacity="0"
   inkscape:pageshadow="2"
   inkscape:window-width="2560"
   inkscape:window-height="1017"
   id="namedview8"
   showgrid="false"
   inkscape:zoom="8.6731066"
   inkscape:cx="5.815991"
   inkscape:cy="30.354371"
   inkscape:window-x="-8"
   inkscape:window-y="-8"
   inkscape:window-maximized="1"
   inkscape:current-layer="Layer_1" />
<style
   type="text/css"
   id="style2">
	.Black{fill:#727272;}
	.Yellow{fill:#FFB115;}
	.Blue{fill:#1177D7;}
	.Red{fill:#D11C1C;}
	.White{fill:#FFFFFF;}
	.Green{fill:#039C23;}
	.st0{fill:#727272;}
	.st1{opacity:0.5;}
	.st2{opacity:0.75;}
</style>
<g
   style="fill:#737374;fill-opacity:1">
	<path
   id="path4"
   style="fill:#737374;fill-opacity:1"
   d="M 16,2 C 10.5,2 6,6.5 6,12 c 0,1.057532 0.3734576,2.375995 0.9707031,3.8125 v -0.101562 l 1.7578125,-1.757813 7.6601564,7.660156 v -1.683593 c 0,-0.625 0.625,-1.25 1.25,-1.25 h 1.25 v -2.5 c 0,-0.668895 0.137856,-1.306076 0.378906,-1.890626 C 18.542093,15.319463 17.34869,16 16,16 c -2.2,0 -4,-1.8 -4,-4 0,-2.2 1.8,-4 4,-4 2.2,0 4,1.8 4,4 0,0.509141 -0.105791,0.992465 -0.28125,1.441406 0.896528,-1.357313 2.430645,-2.261718 4.169922,-2.261718 0.748973,0 1.454307,0.178121 2.09375,0.476562 C 25.79829,6.3149245 21.384103,2 16,2 Z M 16.388672,23.871094 15.759766,24.5 h -3.515625 l -0.15625,0.15625 C 14.171015,27.685246 16,30 16,30 c 0,0 0.316032,-0.415687 0.388672,-0.507812 z" />
</g>
<path
   class="Yellow"
   d="m 29.135912,20.04249 h -1 v -2 c 0,-2.2 -1.8,-4 -4,-4 -2.2,0 -4,1.8 -4,4 v 2 h -1 c -0.5,0 -1,0.5 -1,1 v 8 c 0,0.5 0.5,1 1,1 h 10 c 0.5,0 1,-0.5 1,-1 v -8 c 0,-0.5 -0.5,-1 -1,-1 z m -7,0 v -2 c 0,-1.1 0.9,-2 2,-2 1.1,0 2,0.9 2,2 v 2 z"
   id="path843"
   style="fill:#fcb01b" /><style
   type="text/css"
   id="style901">
	.Yellow{fill:#FFB115;}
	.Red{fill:#D11C1C;}
	.Blue{fill:#1177D7;}
	.Green{fill:#039C23;}
	.Black{fill:#727272;}
	.White{fill:#FFFFFF;}
	.st0{opacity:0.5;}
</style><style
   type="text/css"
   id="style916">
	.Yellow{fill:#FFB115;}
	.Red{fill:#D11C1C;}
	.Black{fill:#727272;}
	.Green{fill:#039C23;}
	.Blue{fill:#1177D7;}
</style><style
   type="text/css"
   id="style934">
	.Yellow{fill:#FFB115;}
	.Red{fill:#D11C1C;}
	.Blue{fill:#1177D7;}
	.Green{fill:#039C23;}
	.Black{fill:#727272;}
	.White{fill:#FFFFFF;}
	.st0{opacity:0.5;}
</style><g
   id="UnpinButton"
   transform="matrix(0.5625,0,0,0.5625,-0.92907901,14.002141)">
	<polygon
   class="Blue"
   points="16,26 18,24 18,20 22,16 26,16 28,14 18,4 16,6 16,10 12,14 8,14 6,16 9.3,19.3 4,28 12.8,22.8 "
   id="polygon936" />
</g><g
   id="UnpinButton-5"
   transform="matrix(0.87890625,0,0,0.87890625,-7.0912529,10.437193)"
   style="fill:#e67374;fill-opacity:0.363934" /></svg>
