<?xml version="1.0" encoding="UTF-8" standalone="no"?>
<!-- Generator: Adobe Illustrator 24.1.3, SVG Export Plug-In . SVG Version: 6.00 Build 0)  -->

<svg
   version="1.1"
   id="Layer_1"
   x="0px"
   y="0px"
   viewBox="0 0 32 32"
   style="enable-background:new 0 0 32 32;"
   xml:space="preserve"
   sodipodi:docname="imagedownsize.svg"
   inkscape:version="1.1 (c68e22c387, 2021-05-23)"
   xmlns:inkscape="http://www.inkscape.org/namespaces/inkscape"
   xmlns:sodipodi="http://sodipodi.sourceforge.net/DTD/sodipodi-0.dtd"
   xmlns="http://www.w3.org/2000/svg"
   xmlns:svg="http://www.w3.org/2000/svg"><defs
   id="defs19" /><sodipodi:namedview
   id="namedview17"
   pagecolor="#505050"
   bordercolor="#eeeeee"
   borderopacity="1"
   inkscape:pageshadow="0"
   inkscape:pageopacity="0"
   inkscape:pagecheckerboard="0"
   showgrid="false"
   inkscape:zoom="36.769553"
   inkscape:rotation="2"
   inkscape:cx="17.436194"
   inkscape:cy="11.644966"
   inkscape:window-width="2560"
   inkscape:window-height="1017"
   inkscape:window-x="-8"
   inkscape:window-y="-8"
   inkscape:window-maximized="1"
   inkscape:current-layer="Layer_1" />
<style
   type="text/css"
   id="style2">
	.Black{fill:#737374;}
	.Yellow{fill:#FCB01B;}
	.Green{fill:#129C49;}
	.Blue{fill:#387CB7;}
	.Red{fill:#D02127;}
	.White{fill:#FFFFFF;}
	.st0{opacity:0.5;}
	.st1{opacity:0.75;}
	.st2{opacity:0.25;}
	.st3{display:none;fill:#737374;}
</style>
<circle
   class="Yellow"
   cx="17"
   cy="17"
   r="3"
   id="circle4" />
<polygon
   class="Green"
   points="16,26 8,18 4,22 4,26 "
   id="polygon6" />
<g
   class="st0"
   id="g10">
	<path
   class="Black"
   d="M 0,8.2 V 3 C 0,2.5 0.5,2 1,2 h 21.1 l -0.0279,2 H 2 V 8 H 1 C 0.7,8 0.3,8.1 0,8.2 Z m 30,3.680588 V 28 h -4 v 1 c 0,0.3 -0.1,0.7 -0.2,1 H 31 c 0.5,0 1,-0.5 1,-1 V 11.9 Z"
   id="path8"
   sodipodi:nodetypes="cssccccsccccscsscc" />
</g>
<path
   class="Black"
   d="M23,10H1c-0.5,0-1,0.5-1,1v18c0,0.5,0.5,1,1,1h22c0.5,0,1-0.5,1-1V11C24,10.5,23.5,10,23,10z M22,28H2V12h20  V28z"
   id="path12" />
<polygon
   class="Blue"
   points="27.8,4.8 24.3,8.3 25.7,9.7 29.2,6.2 32,9.1 32,2 24.9,2 "
   id="polygon14"
   transform="rotate(180,28.15,5.85)" />
</svg>
