<?xml version='1.0' encoding='UTF-8'?>
<svg x="0px" y="0px" viewBox="0 0 32 32" version="1.1" xmlns="http://www.w3.org/2000/svg" xmlns:xlink="http://www.w3.org/1999/xlink" xml:space="preserve" id="Layer_1" style="enable-background:new 0 0 32 32">
  <style type="text/css">
	.Black{fill:#737374;}
	.Yellow{fill:#FCB01B;}
	.Green{fill:#129C49;}
	.Blue{fill:#387CB7;}
	.Red{fill:#D02127;}
	.White{fill:#FFFFFF;}
	.st0{opacity:0.5;}
	.st1{opacity:0.75;}
	.st2{opacity:0.25;}
	.st3{display:none;fill:#737374;}
</style>
  <path d="M29,14H15c-0.6,0-1,0.4-1,1v14c0,0.6,0.4,1,1,1h14c0.6,0,1-0.4,1-1V15C30,14.4,29.6,14,29,14z M28,28H16V16  h12V28z" class="Black" />
  <path d="M12,14c0-1.1,0.9-2,2-2h8V3c0-0.6-0.4-1-1-1H3C2.4,2,2,2.4,2,3v18c0,0.6,0.4,1,1,1h9V14z" class="Blue" />
</svg>