<?xml version="1.0" encoding="UTF-8" standalone="no"?>
<svg
   xmlns:dc="http://purl.org/dc/elements/1.1/"
   xmlns:cc="http://creativecommons.org/ns#"
   xmlns:rdf="http://www.w3.org/1999/02/22-rdf-syntax-ns#"
   xmlns:svg="http://www.w3.org/2000/svg"
   xmlns="http://www.w3.org/2000/svg"
   xmlns:sodipodi="http://sodipodi.sourceforge.net/DTD/sodipodi-0.dtd"
   xmlns:inkscape="http://www.inkscape.org/namespaces/inkscape"
   version="1.1"
   id="Layer_1"
   x="0px"
   y="0px"
   viewBox="0 0 32 32"
   style="enable-background:new 0 0 32 32;"
   xml:space="preserve"
   sodipodi:docname="linkedfile.svg"
   inkscape:version="1.0.1 (3bc2e813f5, 2020-09-07)"><metadata
   id="metadata15"><rdf:RDF><cc:Work
       rdf:about=""><dc:format>image/svg+xml</dc:format><dc:type
         rdf:resource="http://purl.org/dc/dcmitype/StillImage" /><dc:title></dc:title></cc:Work></rdf:RDF></metadata><defs
   id="defs13" /><sodipodi:namedview
   pagecolor="#ffffff"
   bordercolor="#666666"
   borderopacity="1"
   objecttolerance="10"
   gridtolerance="10"
   guidetolerance="10"
   inkscape:pageopacity="0"
   inkscape:pageshadow="2"
   inkscape:window-width="2560"
   inkscape:window-height="1017"
   id="namedview11"
   showgrid="false"
   inkscape:zoom="17.802552"
   inkscape:cx="31.219259"
   inkscape:cy="16.309553"
   inkscape:window-x="-8"
   inkscape:window-y="-8"
   inkscape:window-maximized="1"
   inkscape:current-layer="Layer_1"
   inkscape:document-rotation="0" />
<style
   type="text/css"
   id="style2">
	.Black{fill:#727272;}
	.Blue{fill:#1177D7;}
</style>
<path
   id="path4"
   d="M 5 2 C 4.4 2 4 2.4 4 3 L 4 29 C 4 29.6 4.4 30 5 30 L 23.400391 30 L 23.396484 29.996094 L 26.998047 29.996094 C 27.598047 29.996094 27.998047 29.596094 27.998047 28.996094 L 27.998047 25.398438 L 28 25.400391 L 28 9 L 21 2 L 5 2 z M 6 4 L 20 4 L 20 9 C 20 9.6 20.4 10 21 10 L 26 10 L 26 21.410156 L 25.998047 21.410156 L 25.998047 27.996094 L 19.091797 27.996094 L 19.091797 28 L 6 28 L 6 4 z "
   style="fill:#727272;fill-opacity:1" />


<style
   type="text/css"
   id="style831">
	.Black{fill:#727272;}
</style><path
   class="Black"
   d="m 21.845345,21.316811 h -2 c -1.2,0 -2.2,0.9 -2.4,2 h -1.2 c -0.2,-1.1 -1.2,-2 -2.4,-2 h -2 c -1.4,0 -2.4999999,1.1 -2.4999999,2.5 0,1.4 1.0999999,2.5 2.4999999,2.5 h 2 c 1.2,0 2.2,-0.9 2.4,-2 h 1.1 c 0.2,1.1 1.2,2 2.4,2 h 2 c 1.4,0 2.5,-1.1 2.5,-2.5 0,-1.4 -1,-2.5 -2.4,-2.5 z m -8,4 h -2 c -0.8,0 -1.5,-0.7 -1.5,-1.5 0,-0.8 0.7,-1.5 1.5,-1.5 h 2 c 0.6,0 1.2,0.4 1.4,1 h -2.4 c -0.3,0 -0.5,0.2 -0.5,0.5 0,0.3 0.2,0.5 0.5,0.5 h 2.4 c -0.2,0.6 -0.8,1 -1.4,1 z m 8,0 h -2 c -0.6,0 -1.2,-0.4 -1.4,-1 h 2.4 c 0.3,0 0.5,-0.2 0.5,-0.5 0,-0.3 -0.2,-0.5 -0.5,-0.5 h -2.4 c 0.2,-0.6 0.8,-1 1.4,-1 h 2 c 0.8,0 1.5,0.7 1.5,1.5 0,0.8 -0.7,1.5 -1.5,1.5 z"
   id="path833" /></svg>
