<?xml version='1.0' encoding='UTF-8'?>
<svg x="0px" y="0px" viewBox="0 0 32 32" version="1.1" xmlns="http://www.w3.org/2000/svg" xmlns:xlink="http://www.w3.org/1999/xlink" xml:space="preserve" id="LinkToPrevious" style="enable-background:new 0 0 32 32">
  <style type="text/css">
	.Black{fill:#727272;}
	.Yellow{fill:#FFB115;}
	.Blue{fill:#1177D7;}
</style>
  <path d="M16,16H6v-6h10V16z M32,10H22v6h10V10z" class="Yellow" />
  <path d="M14,16v11c0,0.5-0.5,1-1,1H3c-0.5,0-1-0.5-1-1V13c0-0.5,0.5-1,1-1h3v2H4v12h8V16H14z M28,16v10h-8V14h2v-2h-3  c-0.5,0-1,0.5-1,1v14c0,0.5,0.5,1,1,1h10c0.5,0,1-0.5,1-1V16H28z" class="Black" />
  <path d="M10.9,2.9C12.7,1.1,15.2,0,18,0c4.8,0,8.9,3.4,9.8,8h-2.1c-0.9-3.4-4-6-7.7-6c-2.2,0-4.2,0.9-5.6,2.4L16,8H8V0  L10.9,2.9z" class="Blue" />
</svg>