<?xml version="1.0" encoding="UTF-8" standalone="no"?>
<svg
   xmlns:dc="http://purl.org/dc/elements/1.1/"
   xmlns:cc="http://creativecommons.org/ns#"
   xmlns:rdf="http://www.w3.org/1999/02/22-rdf-syntax-ns#"
   xmlns:svg="http://www.w3.org/2000/svg"
   xmlns="http://www.w3.org/2000/svg"
   xmlns:sodipodi="http://sodipodi.sourceforge.net/DTD/sodipodi-0.dtd"
   xmlns:inkscape="http://www.inkscape.org/namespaces/inkscape"
   version="1.1"
   id="Layer_1"
   x="0px"
   y="0px"
   viewBox="0 0 32 32"
   style="enable-background:new 0 0 32 32;"
   xml:space="preserve"
   sodipodi:docname="manageworkspaces.svg"
   inkscape:version="1.0.1 (3bc2e813f5, 2020-09-07)"><metadata
   id="metadata14"><rdf:RDF><cc:Work
       rdf:about=""><dc:format>image/svg+xml</dc:format><dc:type
         rdf:resource="http://purl.org/dc/dcmitype/StillImage" /><dc:title></dc:title></cc:Work></rdf:RDF></metadata><defs
   id="defs12" /><sodipodi:namedview
   pagecolor="#ffffff"
   bordercolor="#666666"
   borderopacity="1"
   objecttolerance="10"
   gridtolerance="10"
   guidetolerance="10"
   inkscape:pageopacity="0"
   inkscape:pageshadow="2"
   inkscape:window-width="2560"
   inkscape:window-height="1017"
   id="namedview10"
   showgrid="false"
   inkscape:zoom="9.1429872"
   inkscape:cx="32.505007"
   inkscape:cy="16.872054"
   inkscape:window-x="-8"
   inkscape:window-y="-8"
   inkscape:window-maximized="1"
   inkscape:current-layer="Layer_1" />
<style
   type="text/css"
   id="style2">
	.Black{fill:#727272;}
	.Yellow{fill:#FFB115;}
	.Blue{fill:#1177D7;}
	.Green{fill:#039C23;}
	.Red{fill:#D11C1C;}
	.White{fill:#FFFFFF;}
	.st0{opacity:0.75;}
	.st1{opacity:0.5;}
	.st2{opacity:0.25;}
</style>
<g
   id="Windows">
	<path
   class="Black"
   d="M 18,17.2 V 16 h 2 v 0 c -0.7,0.3 -1.4,0.7 -2,1.2 z M 14.545323,26 H 2 V 16 H 0 v 11 c 0,0.5 0.5,1 1,1 h 14.713306 c -0.6,-0.7 -0.922661,-1.322661 -1.167983,-2 z M 26,15.194597 26,8 h 2 l 0,7.894597 c -0.6,-0.3 -1.3,-0.5 -2,-0.7 z M 10,8 H 8 v 2 h 2 z"
   id="path4"
   sodipodi:nodetypes="cccccccccsscccccccccccc" />
	<path
   class="Blue"
   d="m 0,16 v -5 c 0,-0.5 0.5,-1 1,-1 h 18 c 0.5,0 1,0.5 1,1 v 5 z M 28,8 V 3 C 28,2.5 27.5,2 27,2 H 9 C 8.5,2 8,2.5 8,3 v 5 z"
   id="path6" />
</g>
<path
   class="Blue"
   d="m 32.013668,24.974998 v -2 l -2.5,-0.6 c -0.1,-0.4 -0.3,-0.8 -0.5,-1.2 l 1.5,-2.1 -1.6,-1.6 -2.1,1.5 c -0.4,-0.2 -0.8,-0.4 -1.2,-0.5 l -0.6,-2.5 h -2 l -0.6,2.5 c -0.4,0.1 -0.8,0.3 -1.2,0.5 l -2,-1.5 -1.7,1.7 1.5,2 c -0.2,0.4 -0.4,0.8 -0.5,1.2 l -2.5,0.6 v 2 l 2.5,0.6 c 0.1,0.4 0.3,0.8 0.5,1.2 l -1.5,2.1 1.6,1.6 2.1,-1.5 c 0.4,0.2 0.8,0.4 1.2,0.5 l 0.6,2.5 h 2 l 0.6,-2.5 c 0.4,-0.1 0.8,-0.3 1.2,-0.5 l 2.1,1.5 1.6,-1.6 -1.5,-2.1 c 0.2,-0.4 0.4,-0.8 0.5,-1.2 z m -8,1 c -1.1,0 -2,-0.9 -2,-2 0,-1.1 0.9,-2 2,-2 1.1,0 2,0.9 2,2 0,1.1 -0.9,2 -2,2 z"
   id="path12"
   style="fill:#387cb7" /></svg>
