<?xml version="1.0" encoding="UTF-8" standalone="no"?>
<svg
   xmlns:dc="http://purl.org/dc/elements/1.1/"
   xmlns:cc="http://creativecommons.org/ns#"
   xmlns:rdf="http://www.w3.org/1999/02/22-rdf-syntax-ns#"
   xmlns:svg="http://www.w3.org/2000/svg"
   xmlns="http://www.w3.org/2000/svg"
   xmlns:sodipodi="http://sodipodi.sourceforge.net/DTD/sodipodi-0.dtd"
   xmlns:inkscape="http://www.inkscape.org/namespaces/inkscape"
   version="1.1"
   id="Layer_1"
   x="0px"
   y="0px"
   viewBox="0 0 32 32"
   style="enable-background:new 0 0 32 32;"
   xml:space="preserve"
   sodipodi:docname="manualrefresh.svg"
   inkscape:version="1.0.1 (3bc2e813f5, 2020-09-07)"><metadata
   id="metadata12"><rdf:RDF><cc:Work
       rdf:about=""><dc:format>image/svg+xml</dc:format><dc:type
         rdf:resource="http://purl.org/dc/dcmitype/StillImage" /><dc:title></dc:title></cc:Work></rdf:RDF></metadata><defs
   id="defs10" /><sodipodi:namedview
   pagecolor="#ffffff"
   bordercolor="#666666"
   borderopacity="1"
   objecttolerance="10"
   gridtolerance="10"
   guidetolerance="10"
   inkscape:pageopacity="0"
   inkscape:pageshadow="2"
   inkscape:window-width="2560"
   inkscape:window-height="1017"
   id="namedview8"
   showgrid="false"
   inkscape:zoom="9.1429872"
   inkscape:cx="23.287512"
   inkscape:cy="11.933404"
   inkscape:window-x="-8"
   inkscape:window-y="-8"
   inkscape:window-maximized="1"
   inkscape:current-layer="Layer_1" />
<style
   type="text/css"
   id="style2">
	.Yellow{fill:#FFB115;}
	.Red{fill:#D11C1C;}
	.Blue{fill:#1177D7;}
	.Green{fill:#039C23;}
	.Black{fill:#727272;}
	.White{fill:#FFFFFF;}
	.st0{opacity:0.75;}
</style>
<g
   id="HandTool"
   style="fill:#464646;fill-opacity:1">
	<path
   id="path4"
   d="M 15.923828,-0.02148438 C 14.842383,0.05234375 14,0.95 14,2 v 8.900391 C 14,11.500391 13.500391,12 12.900391,12 h -0.09961 c -0.5,0 -0.9,-0.300781 -1,-0.800781 L 10,3.5996094 c -0.3,-1.2 -1.5992187,-1.9003906 -2.6992188,-1.4003906 -1,0.2999999 -1.4011718,1.4003906 -1.2011718,2.4003906 l 2.5,11.3007816 c 0.2,0.8 -0.7,1.499609 -1.5,1.099609 l -4,-2.599609 c -0.8,-0.5 -1.8,-0.401172 -2.50000002,0.298828 -0.80000001,0.8 -0.80000001,2.10039 0,2.90039 L 10.900391,28 c 1.015274,1.099881 2.461758,1.76498 4.033203,1.945312 a 10.773184,10.773184 0 0 1 -1.644532,-5.71875 10.773184,10.773184 0 0 1 10.773438,-10.773437 10.773184,10.773184 0 0 1 0.369141,0.0078 c -0.161144,-0.232393 -0.224296,-0.5343 -0.13086,-0.861329 L 26,4.4003906 C 26.2,3.3003906 25.6,2.3 24.5,2 23.4,1.8 22.399609,2.4 22.099609,3.5 l -1.90039,7.599609 c -0.1,0.5 -0.5,0.800782 -1,0.800782 h -0.09961 c -0.6,0 -1.099609,-0.49961 -1.099609,-1.09961 V 2.0996094 C 18,1.0996094 17.300391,0.2 16.400391,0 16.237891,-0.025 16.07832,-0.03203125 15.923828,-0.02148438 Z m 13.88086,8.00781248 c -0.713868,0.072266 -1.355469,0.5253907 -1.605469,1.2128907 l -1.898438,4.1015622 c -0.06872,0.137437 -0.167562,0.241817 -0.27539,0.332031 a 10.773184,10.773184 0 0 1 3.982421,1.611329 l 1.792969,-4.34375 c 0.4,-0.9 0.09883,-1.9996098 -0.701172,-2.5996098 -0.4125,-0.2625 -0.866601,-0.3578124 -1.294921,-0.3144531 z"
   style="fill:#727272;fill-opacity:1"
   class="Black" />
</g>
<style
   type="text/css"
   id="style837">
	.Blue{fill:#1177D7;}
	.Black{fill:#727272;}
	.Green{fill:#039C23;}
	.st0{opacity:0.5;}
</style><path
   class="Green"
   d="m 31.062158,17.171531 v 6 h -0.1 -2 -3.9 l 2.5,-2.5 c -0.9,-0.9 -2.1,-1.5 -3.5,-1.5 -2.4,0 -4.4,1.7 -4.9,4 h -2 c 0.5,-3.4 3.4,-6 6.9,-6 1.9,0 3.7,0.8 4.9,2.1 z m -7,12 c -1.4,0 -2.6,-0.6 -3.5,-1.5 l 2.5,-2.5 h -3.9 -2 -0.1 v 6 l 2.1,-2.1 c 1.3,1.3 3,2.1 4.9,2.1 3.5,0 6.4,-2.6 6.9,-6 h -2 c -0.5,2.3 -2.5,4 -4.9,4 z"
   id="path843"
   style="fill:#039c23" /><style
   type="text/css"
   id="style882">
	.Green{fill:#039C23;}
	.Black{fill:#727272;}
	.Blue{fill:#1177D7;}
</style><style
   type="text/css"
   id="style903">
	.Yellow{fill:#FFB115;}
	.Red{fill:#D11C1C;}
	.Blue{fill:#1177D7;}
	.Green{fill:#039C23;}
	.Black{fill:#727272;}
	.White{fill:#FFFFFF;}
	.st0{opacity:0.75;}
</style><style
   type="text/css"
   id="style918">
	.Black{fill:#727272;}
	.Blue{fill:#1177D7;}
</style></svg>
