<?xml version="1.0" encoding="UTF-8" standalone="no"?>
<svg
   xmlns:dc="http://purl.org/dc/elements/1.1/"
   xmlns:cc="http://creativecommons.org/ns#"
   xmlns:rdf="http://www.w3.org/1999/02/22-rdf-syntax-ns#"
   xmlns:svg="http://www.w3.org/2000/svg"
   xmlns="http://www.w3.org/2000/svg"
   xmlns:sodipodi="http://sodipodi.sourceforge.net/DTD/sodipodi-0.dtd"
   xmlns:inkscape="http://www.inkscape.org/namespaces/inkscape"
   version="1.1"
   id="Layer_1"
   x="0px"
   y="0px"
   viewBox="0 0 32 32"
   style="enable-background:new 0 0 32 32;"
   xml:space="preserve"
   sodipodi:docname="map_wms.svg"
   inkscape:version="1.0.1 (3bc2e813f5, 2020-09-07)"><metadata
   id="metadata16"><rdf:RDF><cc:Work
       rdf:about=""><dc:format>image/svg+xml</dc:format><dc:type
         rdf:resource="http://purl.org/dc/dcmitype/StillImage" /><dc:title></dc:title></cc:Work></rdf:RDF></metadata><defs
   id="defs14" /><sodipodi:namedview
   pagecolor="#ffffff"
   bordercolor="#666666"
   borderopacity="1"
   objecttolerance="10"
   gridtolerance="10"
   guidetolerance="10"
   inkscape:pageopacity="0"
   inkscape:pageshadow="2"
   inkscape:window-width="2560"
   inkscape:window-height="1017"
   id="namedview12"
   showgrid="false"
   inkscape:zoom="6.4650683"
   inkscape:cx="40.633879"
   inkscape:cy="29.694783"
   inkscape:window-x="-8"
   inkscape:window-y="-8"
   inkscape:window-maximized="1"
   inkscape:current-layer="Layer_1" />
<style
   type="text/css"
   id="style2">
	.Yellow{fill:#FFB115;}
	.Red{fill:#D11C1C;}
	.Black{fill:#727272;}
	.Blue{fill:#1177D7;}
	.White{fill:#FFFFFF;}
	.Green{fill:#039C23;}
	.st0{opacity:0.75;}
	.st1{opacity:0.5;}
	.st2{opacity:0.25;}
	.st3{fill:#FFB115;}
</style>
<g
   id="g4">
</g>
<g
   id="GeoPointMaps">
	
	<path
   class="Blue"
   d="M 23.4,8.6 C 23.037494,10.66406 21.62812,12.162506 20,13.534386 20,11.105643 20,18.309348 20,19 v 10.2 l -8,-8 V 19 13.479699 C 9.9531328,12.017193 8.9,9.9 8.3,7.7 L 4,12 v 20 l 8,-8 8,8 8,-8 V 4 Z"
   id="path8"
   sodipodi:nodetypes="ccccccccccccccc" />
</g>
<style
   type="text/css"
   id="style841">
	.Blue{fill:#1177D7;}
	.Yellow{fill:#FFB115;}
	.Red{fill:#D11C1C;}
	.Green{fill:#039C23;}
	.Black{fill:#727272;}
	.White{fill:#FFFFFF;}
	.st0{opacity:0.5;}
	.st1{opacity:0.75;}
	.st2{display:none;}
	.st3{display:inline;fill:#FFB115;}
	.st4{display:inline;}
	.st5{display:inline;opacity:0.75;}
	.st6{display:inline;opacity:0.5;}
	.st7{display:inline;fill:#039C23;}
	.st8{display:inline;fill:#D11C1C;}
	.st9{display:inline;fill:#1177D7;}
	.st10{display:inline;fill:#FFFFFF;}
</style><g
   id="Localization"
   transform="matrix(0.45313278,0,0,0.45313278,8.7498755,-0.57814524)"
   style="fill:#727272;fill-opacity:1">
	<path
   class="Blue"
   d="M 16,2 C 8.3,2 2,8.3 2,16 2,23.7 8.3,30 16,30 23.7,30 30,23.7 30,16 30,8.3 23.8,2 16,2 Z m 4.3,17.1 c -0.5,0.1 -0.5,-0.3 -0.1,-0.4 0.1,0.2 0.2,0.1 0.1,0.4 z M 8.6,13.3 c 0,-0.1 0,-0.1 0,-0.2 0,0.1 0,0.2 0,0.2 z m 13.7,8.6 c 0,-0.1 -0.1,-0.1 -0.1,-0.1 0.1,0.3 -0.1,0.9 -0.1,1.2 -0.1,0.4 -0.4,1.3 -0.7,1.3 0,0.2 -0.4,0 -0.3,0.2 -0.5,0.1 -0.8,0.5 -0.8,0.8 0,0.1 -0.3,1.1 -0.4,1.1 0,-0.1 0.1,-0.2 0.1,-0.3 0,0.1 -0.1,0.1 -0.1,0 0,0.2 -0.3,0.8 -0.4,0.9 -0.1,0.1 -0.3,0.3 -0.5,0.2 -0.1,0 -0.3,-0.2 -0.3,-0.4 0,0.3 0.2,0.6 0.2,0.8 -0.9,0.2 -1.8,0.3 -2.7,0.3 -0.1,0 -0.2,0 -0.3,0 0.1,-0.3 0.1,-0.5 0.2,-0.8 0.2,-0.7 0.2,-1.5 0.3,-2.2 0.1,-0.4 0.3,-1.5 0.1,-1.9 -0.1,-0.2 -0.3,-0.2 -0.5,-0.4 -0.6,-0.4 -0.6,-0.7 -0.8,-1.3 -0.1,-0.4 -0.3,-0.5 -0.5,-0.9 -0.1,-0.2 -0.2,-0.2 -0.2,-0.5 0,-0.2 0.2,-0.4 0.2,-0.6 l -0.1,0.1 -0.1,-0.1 c 0,-0.1 0,-0.4 0.1,-0.4 0,-0.2 0.1,-0.7 0.3,-0.7 0,-0.3 0.2,-0.3 0.1,-0.5 0.3,-0.2 0,-0.9 0,-1 -0.2,0 -0.1,-0.1 -0.3,-0.2 0,0.1 -0.2,0.1 -0.2,0.2 0,0.1 0.1,0 0.1,0.1 -0.3,0 -0.4,-0.2 -0.6,-0.3 0,0.2 -0.1,-0.2 -0.3,-0.3 0.1,0.2 -0.2,-0.2 -0.2,-0.3 -0.1,-0.2 -0.2,-0.3 -0.2,-0.5 -0.5,0 -0.6,-0.1 -1,-0.4 C 11.9,14.7 11.6,14.9 11.1,14.7 10.8,14.6 10.4,14.4 10.2,14.2 9.8,13.9 9.9,13.6 9.7,13.2 9.6,12.9 9,12.5 9.1,12.2 8.5,12.2 8.6,10.9 8,10.9 c 0,0.2 0.6,1.5 0.8,2 C 8.6,12.5 8,12.3 7.9,11.9 8.4,11.9 7.7,11.1 7.5,10.9 7.3,10.6 7.3,10.3 6.8,10.3 6.8,10.1 6.6,9.9 6.6,9.6 6.5,9.6 6.4,9.5 6.4,9.4 h 0.1 c 0,-0.1 -0.1,-0.1 0,-0.2 -0.1,0 0,0 -0.1,0 0,0 0,0 0,0.1 -0.2,0.2 -0.3,0 -0.4,-0.1 1.1,-1.6 2.6,-3 4.4,-3.9 0.1,0.1 0.1,0.3 0.2,0.3 0,-0.1 0,-0.2 0,-0.3 0.7,-0.4 1.5,-0.7 2.4,-0.9 0.1,0 0.1,0.1 0.2,0.1 0.2,0.1 0.4,0.1 0.6,0.2 0.2,0.1 0.1,0.1 0.2,0.4 0,0.1 0.1,0.2 0.1,0.3 0.1,0 0.1,0 0.2,0 0,0.1 -0.1,0.1 -0.1,0 0,0.3 0.2,0.6 0.4,0.2 C 14.7,5.4 14.4,5.2 14.5,4.9 14.6,4.7 15,4.5 15,4.3 v 0 C 15,4.2 15,4.1 14.9,4 c 0.3,0 0.7,0 1,0 0.7,0 1.3,0.1 2,0.2 0,0 0,0 0,0.1 0,0 -0.1,0 -0.2,0 0,0 0,0.2 0,0.1 0.1,0 0.4,0.2 0.3,0.4 0.1,0 0.1,0.1 0.2,0.1 0,-0.2 0.3,0.3 0.3,0 -0.1,0 0.1,0.1 0.1,0.1 0,0.1 -0.5,0.3 -0.6,0.3 0,0.3 0.8,-0.5 0.8,0 0,0 0,0 0.1,-0.1 0,0.6 -0.8,0.9 -1.1,0.9 -0.2,0 -0.6,0 -0.8,0 -0.2,0.1 -0.4,0.6 -0.7,0.6 0,0.3 -0.1,0.3 -0.2,0.4 0,0 1.3,-1.3 1.3,-0.6 0,0 -0.1,0.2 -0.3,0.3 V 6.7 c -0.1,0.1 0,0.1 0,0.2 0.1,0 0.2,-0.1 0.2,-0.1 0,0.1 0,0.2 -0.1,0.2 h 0.1 c 0,0.1 -0.1,0.3 0.1,0.3 v 0 c 0,0 0,0.1 -0.1,0.1 v 0 c 0.2,0 0.2,0 0.4,0 0,0.3 0,0 0.1,0.2 -0.1,0 -0.4,0.3 -0.4,0.3 0,0 0,-0.1 -0.1,-0.1 l -0.2,0.3 c 0,0 0,0 0,-0.1 -0.7,0 0.3,-0.5 0.3,-0.5 -0.5,0 -0.2,0.1 -0.2,-0.2 h -0.1 c 0,0.1 -0.1,0.2 -0.2,0.2 V 7.4 c -0.1,0.1 -0.1,0.1 0,0.1 -0.1,0.1 -0.1,0 -0.2,0 -0.1,0.1 0.1,0.4 -0.2,0.2 0,0.1 0,0 0,0.1 -0.1,0 0,-0.1 -0.1,-0.1 0,0.3 -0.6,0.2 -0.3,0.7 -0.1,0 -0.1,0 -0.2,0 0,0.1 0,0.1 0,0.1 -0.1,0 -0.2,0.1 -0.3,0.2 0.1,0 0.3,0 0.2,0 0,0.1 -0.2,0.1 -0.3,0.1 0,0.2 -0.1,0.4 -0.3,0.3 0,0.2 0.1,0.3 -0.1,0.5 0,0.1 0,-0.4 0,-0.5 -0.1,0.1 -0.3,0.4 -0.2,0.4 0,0.2 0.1,0.1 0.1,0.2 -0.2,0 0,0.2 0.1,0.3 -0.1,0 -0.1,0 -0.1,0.1 0.1,0 0.2,0.1 0.2,0.1 -0.1,0 -0.1,0 -0.2,0 0,0.5 -0.9,0.7 -0.8,1.4 0,0.3 0.4,1 0.1,1.2 0,-0.3 -0.3,-0.4 -0.3,-0.7 -0.1,0 0,0.1 -0.1,0.1 -0.1,-0.1 0,-0.3 -0.1,-0.5 -0.1,-0.1 -0.2,0 -0.4,-0.1 -0.1,0 -0.5,-0.2 -0.5,-0.2 -0.1,0 -0.3,0 -0.4,0.1 0.1,0.2 0.2,0 0.1,0.2 0.1,0 0.1,0 0.1,0.1 -0.1,0 -0.2,-0.1 -0.3,-0.2 0,0.1 0,0.1 0,0.1 -0.1,0 -0.1,0 -0.2,0 0,-0.1 0,-0.1 0,-0.1 h -0.7 c 0,0.2 -0.4,0.5 -0.5,0.8 -0.1,0.3 0,0.9 0,1.3 0.1,0 0.2,0.4 0.4,0.6 0.2,0.1 0.7,0.2 0.9,0.1 0.2,-0.2 0.2,-0.8 0.6,-0.8 0.4,0 0,0.5 0.1,0.9 -0.1,0 -0.1,-0.1 -0.1,-0.1 0,0.2 -0.1,0.5 -0.1,0.7 0.4,0 0.9,-0.2 1.1,0.2 0.1,0.2 -0.2,0.5 -0.1,0.8 0,0.2 0.2,0.5 0.4,0.5 0.2,0.1 0.2,-0.1 0.3,-0.1 0.2,0 0.2,0.1 0.4,0.1 0.1,0 0.1,0.2 0.2,0.2 0.1,-0.5 0.3,-0.7 0.7,-0.9 0.3,-0.1 0.2,-0.3 0.1,0.1 0.2,0 -0.1,0.5 0.1,0.5 0,-0.2 0,-0.5 0.3,-0.6 0,-0.1 -0.1,0 -0.1,-0.1 0.1,-0.1 0.5,0.3 0.4,0.3 0,0.1 0.9,0.1 0.9,0 h 0.3 c 0,0.1 0,0 -0.1,0.1 0,0.1 0.3,0.2 0.3,0.1 -0.1,0.3 -0.1,0.1 -0.3,0.4 0.6,0 0.6,-0.2 0.7,0.4 0.1,0 0,0 0.1,0 0,-0.3 0.3,-0.1 0.3,0.1 0,0 0.5,-0.2 0.5,0 0.6,0 0.4,0.7 0.7,0.9 0.1,0 -0.1,0 0.1,0 L 20,18.4 c 0.1,0 0,-0.1 0.1,-0.1 0,0.1 0,0.1 0,0.1 0,0 0,0 0,0.1 v 0 c -0.2,0 -0.1,0 -0.1,-0.1 0,0 -0.5,0.5 -0.8,0.7 0.2,-0.1 0.3,-0.2 0.6,-0.2 0,0.3 0,0.1 0,0.3 0.1,0 0,-0.3 0.2,-0.3 0,0.4 0.4,0.1 0.5,0.1 0,0 0.6,-0.3 0.5,0.1 0.2,0 0.1,0.3 0.3,0.3 0.3,-0.3 1.2,0.3 1.5,0.5 0.6,0.8 -0.2,1.2 -0.5,2 z M 17.7,7.3 17.6,7.2 C 17.5,7.2 17.2,7.1 17.5,7 l 0.1,0.2 0.1,0.1 c -0.1,0 -0.1,0 0,0 z M 17.3,6.2 c 0.1,0 0.4,0.1 0.5,0.2 0,0 0,0 0,0.1 -0.1,0 -0.5,-0.2 -0.5,-0.3 z m -4.8,5.6 c -0.1,0 -0.1,-0.1 0,0 0,-0.1 0,-0.1 0,0 z m 7.3,7.1 c 0,0 -0.1,0.1 0,0 z M 19.7,19 c 0.1,0 0,0.1 0,0 z"
   id="path843"
   style="fill:#727272;fill-opacity:1" />
</g><style
   type="text/css"
   id="style856">
	.Blue{fill:#1177D7;}
	.Yellow{fill:#FFB115;}
	.Red{fill:#D11C1C;}
	.Green{fill:#039C23;}
	.Black{fill:#727272;}
	.White{fill:#FFFFFF;}
	.st0{opacity:0.5;}
	.st1{opacity:0.75;}
	.st2{display:none;}
	.st3{display:inline;fill:#FFB115;}
	.st4{display:inline;}
	.st5{display:inline;opacity:0.75;}
	.st6{display:inline;opacity:0.5;}
	.st7{display:inline;fill:#039C23;}
	.st8{display:inline;fill:#D11C1C;}
	.st9{display:inline;fill:#1177D7;}
	.st10{display:inline;fill:#FFFFFF;}
</style></svg>
