<?xml version="1.0" encoding="UTF-8" standalone="no"?>
<svg
   version="1.1"
   id="Layer_1"
   x="0px"
   y="0px"
   viewBox="0 0 32 32"
   style="enable-background:new 0 0 32 32;"
   xml:space="preserve"
   sodipodi:docname="map_raster.svg"
   inkscape:version="1.1 (c68e22c387, 2021-05-23)"
   xmlns:inkscape="http://www.inkscape.org/namespaces/inkscape"
   xmlns:sodipodi="http://sodipodi.sourceforge.net/DTD/sodipodi-0.dtd"
   xmlns="http://www.w3.org/2000/svg"
   xmlns:svg="http://www.w3.org/2000/svg"
   xmlns:rdf="http://www.w3.org/1999/02/22-rdf-syntax-ns#"
   xmlns:cc="http://creativecommons.org/ns#"
   xmlns:dc="http://purl.org/dc/elements/1.1/"><metadata
   id="metadata12"><rdf:RDF><cc:Work
       rdf:about=""><dc:format>image/svg+xml</dc:format><dc:type
         rdf:resource="http://purl.org/dc/dcmitype/StillImage" /></cc:Work></rdf:RDF></metadata><defs
   id="defs10" /><sodipodi:namedview
   pagecolor="#ffffff"
   bordercolor="#666666"
   borderopacity="1"
   objecttolerance="10"
   gridtolerance="10"
   guidetolerance="10"
   inkscape:pageopacity="0"
   inkscape:pageshadow="2"
   inkscape:window-width="2560"
   inkscape:window-height="1017"
   id="namedview8"
   showgrid="false"
   inkscape:zoom="12.930137"
   inkscape:cx="22.466893"
   inkscape:cy="14.578345"
   inkscape:window-x="-8"
   inkscape:window-y="-8"
   inkscape:window-maximized="1"
   inkscape:current-layer="Layer_1"
   inkscape:pagecheckerboard="0" />
<g
   id="Map"
   style="fill:#1177d7;fill-opacity:1"
   >
	<path
   id="path4"
   class="Blue"
   d="M 28,2 20,10 17.556641,7.5566406 V 10.357422 L 20,12.800781 v 14.398438 l -8,-8 V 15.466797 H 4 V 30 l 8,-8 8,8 8,-8 z"
   style="fill:#1177d7;fill-opacity:1" />
</g>
<style
   type="text/css"
   id="style837">
	.Black{fill:#737374;}
	.Yellow{fill:#FCB01B;}
	.Green{fill:#129C49;}
	.Blue{fill:#387CB7;}
	.Red{fill:#D02127;}
	.White{fill:#FFFFFF;}
	.st0{opacity:0.5;}
	.st1{opacity:0.75;}
	.st2{opacity:0.25;}
	.st3{display:none;fill:#737374;}
</style><g
   id="g865"
   transform="translate(-7.8794356,-9.890242)"><circle
     class="Yellow"
     cx="18.77879"
     cy="14.989193"
     r="1.8399194"
     id="circle839"
     style="stroke-width:0.613306" /><polygon
     class="Green"
     points="8,18 4,22 4,26 16,26 "
     id="polygon841"
     transform="matrix(0.61330648,0,0,0.61330648,10.750081,4.9496775)" /><g
     class="st0"
     id="g845">
	
</g><path
     class="Black"
     d="M 23,10 H 11.13137 c -0.5,0 -1,0.5 -1,1 v 11.890242 c 0,0.5 0.5,1 1,1 H 23 c 0.5,0 1,-0.5 1,-1 V 11 c 0,-0.5 -0.5,-1 -1,-1 z M 22,21.890242 H 12.13137 V 12 H 22 Z"
     id="path847"
     sodipodi:nodetypes="sssssssssccccc" /></g></svg>
