<?xml version="1.0" encoding="UTF-8" standalone="no"?>
<svg
   xmlns:dc="http://purl.org/dc/elements/1.1/"
   xmlns:cc="http://creativecommons.org/ns#"
   xmlns:rdf="http://www.w3.org/1999/02/22-rdf-syntax-ns#"
   xmlns:svg="http://www.w3.org/2000/svg"
   xmlns="http://www.w3.org/2000/svg"
   xmlns:sodipodi="http://sodipodi.sourceforge.net/DTD/sodipodi-0.dtd"
   xmlns:inkscape="http://www.inkscape.org/namespaces/inkscape"
   version="1.1"
   id="Layer_1"
   x="0px"
   y="0px"
   viewBox="0 0 32 32"
   style="enable-background:new 0 0 32 32;"
   xml:space="preserve"
   sodipodi:docname="morphingdisabled.svg"
   inkscape:version="1.0.1 (3bc2e813f5, 2020-09-07)"><metadata
   id="metadata12"><rdf:RDF><cc:Work
       rdf:about=""><dc:format>image/svg+xml</dc:format><dc:type
         rdf:resource="http://purl.org/dc/dcmitype/StillImage" /><dc:title></dc:title></cc:Work></rdf:RDF></metadata><defs
   id="defs10" /><sodipodi:namedview
   pagecolor="#ffffff"
   bordercolor="#666666"
   borderopacity="1"
   objecttolerance="10"
   gridtolerance="10"
   guidetolerance="10"
   inkscape:pageopacity="0"
   inkscape:pageshadow="2"
   inkscape:window-width="2560"
   inkscape:window-height="1017"
   id="namedview8"
   showgrid="false"
   inkscape:zoom="9.3912619"
   inkscape:cx="53.897382"
   inkscape:cy="30.418824"
   inkscape:window-x="-8"
   inkscape:window-y="-8"
   inkscape:window-maximized="1"
   inkscape:current-layer="Layer_1" />

<g
   id="EnableClustering">
	<path
   d="m 32,16 c 0,4.4 -3.6,8 -8,8 -0.2,0 -0.3,0 -0.5,0 1.6,-2.3 2.5,-5.1 2.5,-8 0,-2.9 -0.9,-5.6 -2.5,-8 0.2,0 0.3,0 0.5,0 4.4,0 8,3.6 8,8 z M 14,16 C 14,12.1 16.3,8.5 19.8,6.9 17.7,5.1 15,4 12,4 5.4,4 0,9.4 0,16 c 0,6.6 5.4,12 12,12 3,0 5.7,-1.1 7.8,-2.9 C 16.3,23.5 14,19.9 14,16 Z m 7.3,-7.5 c -3.1,1.1 -5.3,4 -5.3,7.5 0,3.5 2.2,6.4 5.3,7.5 C 23,21.5 24,18.9 24,16 24,13.1 23,10.5 21.3,8.5 Z"
   id="path4"
   style="fill:#727272;fill-opacity:1" />
</g>
</svg>
