<?xml version='1.0' encoding='UTF-8'?>
<svg x="0px" y="0px" viewBox="0 0 32 32" version="1.1" xmlns="http://www.w3.org/2000/svg" xmlns:xlink="http://www.w3.org/1999/xlink" xml:space="preserve" id="Open" style="enable-background:new 0 0 32 32">
  <style type="text/css">
	.Yellow{fill:#FFB115;}
	.st0{opacity:0.75;}
</style>
  <g class="st0">
    <path d="M2.2,25.2l5.5-10C8,14.5,8.7,14,9.5,14H24v-3c0-0.6-0.4-1-1-1H12V7c0-0.6-0.4-1-1-1H3C2.4,6,2,6.5,2,7v18   c0,0.2,0,0.3,0.1,0.4C2.1,25.4,2.2,25.3,2.2,25.2z" class="Yellow" />
  </g>
  <path d="M29.3,16H9.6L4,26h19.8c0.5,0,1.1-0.2,1.3-0.6l4.9-8.9C30.1,16.2,29.8,16,29.3,16z" class="Yellow" />
</svg>