<?xml version="1.0" encoding="UTF-8" standalone="no"?>
<svg
   xmlns:dc="http://purl.org/dc/elements/1.1/"
   xmlns:cc="http://creativecommons.org/ns#"
   xmlns:rdf="http://www.w3.org/1999/02/22-rdf-syntax-ns#"
   xmlns:svg="http://www.w3.org/2000/svg"
   xmlns="http://www.w3.org/2000/svg"
   xmlns:sodipodi="http://sodipodi.sourceforge.net/DTD/sodipodi-0.dtd"
   xmlns:inkscape="http://www.inkscape.org/namespaces/inkscape"
   version="1.1"
   id="Layer_1"
   x="0px"
   y="0px"
   viewBox="0 0 32 32"
   style="enable-background:new 0 0 32 32;"
   xml:space="preserve"
   sodipodi:docname="pastebrush.svg"
   inkscape:version="1.0.1 (3bc2e813f5, 2020-09-07)"><metadata
   id="metadata13"><rdf:RDF><cc:Work
       rdf:about=""><dc:format>image/svg+xml</dc:format><dc:type
         rdf:resource="http://purl.org/dc/dcmitype/StillImage" /><dc:title></dc:title></cc:Work></rdf:RDF></metadata><defs
   id="defs11" /><sodipodi:namedview
   pagecolor="#ffffff"
   bordercolor="#666666"
   borderopacity="1"
   objecttolerance="10"
   gridtolerance="10"
   guidetolerance="10"
   inkscape:pageopacity="0"
   inkscape:pageshadow="2"
   inkscape:window-width="2560"
   inkscape:window-height="1017"
   id="namedview9"
   showgrid="false"
   inkscape:zoom="9.3912619"
   inkscape:cx="-21.424778"
   inkscape:cy="18.027846"
   inkscape:window-x="-8"
   inkscape:window-y="-8"
   inkscape:window-maximized="1"
   inkscape:current-layer="Layer_1" />
<style
   type="text/css"
   id="style2">
	.Black{fill:#737374;}
	.Yellow{fill:#FCB01B;}
	.Green{fill:#129C49;}
	.Blue{fill:#387CB7;}
	.Red{fill:#D02127;}
	.White{fill:#FFFFFF;}
	.st0{opacity:0.5;}
	.st1{opacity:0.75;}
	.st2{opacity:0.25;}
	.st3{display:none;fill:#737374;}
</style>
<path
   class="Yellow"
   d="M12,24v4H5c-0.6,0-1-0.4-1-1V3c0-0.6,0.4-1,1-1h3v22H12z M25,2h-3v8h4V2.8C26,2.4,25.6,2,25,2z"
   id="path4" />
<path
   class="Black"
   d="M 29,12 H 15 c -0.6,0 -1,0.4 -1,1 v 16 c 0,0.6 0.4,1 1,1 h 14 c 0.6,0 1,-0.4 1,-1 V 13 c 0,-0.6 -0.4,-1 -1,-1 z M 28,28 H 16 V 14 H 28 Z M 20,2 v 3 c 0,0.6 -0.4,1 -1,1 H 11 C 10.4,6 10,5.6 10,5 V 2 h 2 V 1 c 0,-0.6 0.4,-1 1,-1 h 4 c 0.6,0 1,0.4 1,1 v 1 z"
   id="path6"
   sodipodi:nodetypes="sssssssssccccccssssccsssscc" />
<g
   id="g857"
   transform="matrix(0.5625,0,0,0.5625,15.280561,13.725175)"><path
     class="Black"
     d="m 10.8,19.2 c -1.1,1.1 -2.9,1.1 -4,0 l -4,-4 c -1.1,-1.1 -1.1,-2.9 0,-4 L 8,6 l 8,8 z"
     id="path842" /><path
     class="Blue"
     d="m 14,10 c 2.2,0 4,3.6 4,8 0,1.1 0.9,2 2,2 1.1,0 2,-0.9 2,-2 0,-4.4 -3.6,-8 -8,-8 z"
     id="path844" /></g></svg>
