<?xml version="1.0" encoding="UTF-8" standalone="no"?>
<svg
   xmlns:dc="http://purl.org/dc/elements/1.1/"
   xmlns:cc="http://creativecommons.org/ns#"
   xmlns:rdf="http://www.w3.org/1999/02/22-rdf-syntax-ns#"
   xmlns:svg="http://www.w3.org/2000/svg"
   xmlns="http://www.w3.org/2000/svg"
   xmlns:sodipodi="http://sodipodi.sourceforge.net/DTD/sodipodi-0.dtd"
   xmlns:inkscape="http://www.inkscape.org/namespaces/inkscape"
   version="1.1"
   id="Create_Stacked_Line_Chart"
   x="0px"
   y="0px"
   viewBox="0 0 32 32"
   style="enable-background:new 0 0 32 32;"
   xml:space="preserve"
   sodipodi:docname="pointnone.svg"
   inkscape:version="1.0.1 (3bc2e813f5, 2020-09-07)"><metadata
   id="metadata15"><rdf:RDF><cc:Work
       rdf:about=""><dc:format>image/svg+xml</dc:format><dc:type
         rdf:resource="http://purl.org/dc/dcmitype/StillImage" /><dc:title></dc:title></cc:Work></rdf:RDF></metadata><defs
   id="defs13"><marker
     style="overflow:visible"
     id="marker1341"
     refX="0.0"
     refY="0.0"
     orient="auto"
     inkscape:stockid="DotL"
     inkscape:isstock="true"><path
       transform="scale(0.8) translate(7.4, 1)"
       style="fill-rule:evenodd;stroke:#808080;stroke-width:1pt;stroke-opacity:1;fill:#808080;fill-opacity:1"
       d="M -2.5,-1.0 C -2.5,1.7600000 -4.7400000,4.0 -7.5,4.0 C -10.260000,4.0 -12.5,1.7600000 -12.5,-1.0 C -12.5,-3.7600000 -10.260000,-6.0 -7.5,-6.0 C -4.7400000,-6.0 -2.5,-3.7600000 -2.5,-1.0 z "
       id="path1339" /></marker><marker
     style="overflow:visible"
     id="marker1331"
     refX="0.0"
     refY="0.0"
     orient="auto"
     inkscape:stockid="DotL"
     inkscape:isstock="true"><path
       transform="scale(0.8) translate(7.4, 1)"
       style="fill-rule:evenodd;stroke:#808080;stroke-width:1pt;stroke-opacity:1;fill:#808080;fill-opacity:1"
       d="M -2.5,-1.0 C -2.5,1.7600000 -4.7400000,4.0 -7.5,4.0 C -10.260000,4.0 -12.5,1.7600000 -12.5,-1.0 C -12.5,-3.7600000 -10.260000,-6.0 -7.5,-6.0 C -4.7400000,-6.0 -2.5,-3.7600000 -2.5,-1.0 z "
       id="path1329" /></marker></defs><sodipodi:namedview
   pagecolor="#ffffff"
   bordercolor="#666666"
   borderopacity="1"
   objecttolerance="10"
   gridtolerance="10"
   guidetolerance="10"
   inkscape:pageopacity="0"
   inkscape:pageshadow="2"
   inkscape:window-width="2560"
   inkscape:window-height="1017"
   id="namedview11"
   showgrid="false"
   inkscape:zoom="13.28125"
   inkscape:cx="10.711973"
   inkscape:cy="9.0778891"
   inkscape:window-x="-8"
   inkscape:window-y="-8"
   inkscape:window-maximized="1"
   inkscape:current-layer="Create_Stacked_Line_Chart"
   inkscape:document-rotation="0" />
<style
   type="text/css"
   id="style2">
	.Blue{fill:#1177D7;}
	.Yellow{fill:#FFB115;}
	.Red{fill:#D11C1C;}
</style>



<path
   id="path901"
   style="fill:#ff6600;stroke-width:1.33333"
   d="m 10.272957,12.499855 a 3.0214257,3.0214257 0 0 0 -2.9531248,3.021484 3.0214257,3.0214257 0 0 0 3.0214838,3.021485 3.0214257,3.0214257 0 0 0 3.021485,-3.021485 3.0214257,3.0214257 0 0 0 -3.021485,-3.021484 3.0214257,3.0214257 0 0 0 -0.06836,0 z m 0.0332,1.943359 a 1.0781299,1.0781299 0 0 1 0.03516,0 1.0781299,1.0781299 0 0 1 1.078125,1.078125 1.0781299,1.0781299 0 0 1 -1.078126,1.078125 1.0781299,1.0781299 0 0 1 -1.0781247,-1.078125 1.0781299,1.0781299 0 0 1 1.0429687,-1.078125 z" /><path
   id="path901-6"
   style="fill:#808080;fill-opacity:1;stroke-width:1.33333"
   d="m 21.350559,12.499855 a 3.0214257,3.0214257 0 0 0 -2.953125,3.021484 3.0214257,3.0214257 0 0 0 3.021484,3.021485 3.0214257,3.0214257 0 0 0 3.021486,-3.021485 3.0214257,3.0214257 0 0 0 -3.021486,-3.021484 3.0214257,3.0214257 0 0 0 -0.06836,0 z m 0.0332,1.943359 a 1.0781299,1.0781299 0 0 1 0.03516,0 1.0781299,1.0781299 0 0 1 1.078125,1.078125 1.0781299,1.0781299 0 0 1 -1.078126,1.078125 1.0781299,1.0781299 0 0 1 -1.078125,-1.078125 1.0781299,1.0781299 0 0 1 1.042969,-1.078125 z" /></svg>
