<?xml version="1.0" encoding="UTF-8" standalone="no"?>
<svg
   version="1.1"
   id="Group"
   x="0px"
   y="0px"
   viewBox="0 0 32 32"
   style="enable-background:new 0 0 32 32;"
   xml:space="preserve"
   sodipodi:docname="pointerselectcurrentlevel.svg"
   inkscape:version="1.1 (c68e22c387, 2021-05-23)"
   xmlns:inkscape="http://www.inkscape.org/namespaces/inkscape"
   xmlns:sodipodi="http://sodipodi.sourceforge.net/DTD/sodipodi-0.dtd"
   xmlns="http://www.w3.org/2000/svg"
   xmlns:svg="http://www.w3.org/2000/svg"
   xmlns:rdf="http://www.w3.org/1999/02/22-rdf-syntax-ns#"
   xmlns:cc="http://creativecommons.org/ns#"
   xmlns:dc="http://purl.org/dc/elements/1.1/"><metadata
   id="metadata13"><rdf:RDF><cc:Work
       rdf:about=""><dc:format>image/svg+xml</dc:format><dc:type
         rdf:resource="http://purl.org/dc/dcmitype/StillImage" /></cc:Work></rdf:RDF></metadata><defs
   id="defs11" /><sodipodi:namedview
   pagecolor="#ffffff"
   bordercolor="#666666"
   borderopacity="1"
   objecttolerance="10"
   gridtolerance="10"
   guidetolerance="10"
   inkscape:pageopacity="0"
   inkscape:pageshadow="2"
   inkscape:window-width="2560"
   inkscape:window-height="1017"
   id="namedview9"
   showgrid="false"
   showguides="false"
   inkscape:guide-bbox="true"
   inkscape:zoom="9.3912619"
   inkscape:cx="19.00703"
   inkscape:cy="17.196837"
   inkscape:window-x="-8"
   inkscape:window-y="-8"
   inkscape:window-maximized="1"
   inkscape:current-layer="Group"
   inkscape:pagecheckerboard="0"><sodipodi:guide
     position="13.458824,2.0329412"
     orientation="0,-1"
     id="guide901" /><sodipodi:guide
     position="1.9952941,13.872941"
     orientation="1,0"
     id="guide903" /></sodipodi:namedview>
<style
   id="style938"
   type="text/css">
	.Red{fill:#D11C1C;}
	.Yellow{fill:#FFB115;}
	.Blue{fill:#1177D7;}
	.Green{fill:#039C23;}
	.Black{fill:#727272;}
	.White{fill:#FFFFFF;}
	.st0{opacity:0.5;}
	.st1{opacity:0.75;}
	.st2{opacity:0.35;}
	.st3{opacity:0.65;}
</style>
<path
   d="m 10,11 c 0,-0.5 0.5,-1 1,-1 h 9 V 3 C 20,2.5 19.5,2 19,2 H 3 C 2.5,2 2,2.5 2,3 v 16 c 0,0.5 0.5,1 1,1 h 7 z"
   id="path861"
   style="fill:#737374;fill-opacity:1" /><path
   d="m 13,12 h 16 c 0.5,0 1,0.4 1,1 v 16 c 0,0.5 -0.5,1 -1,1 H 13 c -0.6,0 -1,-0.5 -1,-1 V 13 c 0,-0.6 0.4,-1 1,-1 z"
   id="path4"
   style="fill:#1177d7;fill-opacity:1"
   class="Blue" />

<path
   class="Black"
   d="m 29.984094,1.9599302 v 6 h -2 v -4 h -4 v -2 z M 7.9841052,29.959933 v -2 h -4 v -4 h -2 v 6 z"
   id="path867-8"
   style="fill:#727272" /></svg>
