<?xml version="1.0" encoding="UTF-8" standalone="no"?>
<svg
   xmlns:dc="http://purl.org/dc/elements/1.1/"
   xmlns:cc="http://creativecommons.org/ns#"
   xmlns:rdf="http://www.w3.org/1999/02/22-rdf-syntax-ns#"
   xmlns:svg="http://www.w3.org/2000/svg"
   xmlns="http://www.w3.org/2000/svg"
   xmlns:sodipodi="http://sodipodi.sourceforge.net/DTD/sodipodi-0.dtd"
   xmlns:inkscape="http://www.inkscape.org/namespaces/inkscape"
   version="1.1"
   id="Create_Stacked_Line_Chart"
   x="0px"
   y="0px"
   viewBox="0 0 32 32"
   style="enable-background:new 0 0 32 32;"
   xml:space="preserve"
   sodipodi:docname="pointercenterline.svg"
   inkscape:version="1.0.1 (3bc2e813f5, 2020-09-07)"><metadata
   id="metadata15"><rdf:RDF><cc:Work
       rdf:about=""><dc:format>image/svg+xml</dc:format><dc:type
         rdf:resource="http://purl.org/dc/dcmitype/StillImage" /><dc:title></dc:title></cc:Work></rdf:RDF></metadata><defs
   id="defs13"><marker
     style="overflow:visible"
     id="marker1341"
     refX="0.0"
     refY="0.0"
     orient="auto"
     inkscape:stockid="DotL"
     inkscape:isstock="true"><path
       transform="scale(0.8) translate(7.4, 1)"
       style="fill-rule:evenodd;stroke:#808080;stroke-width:1pt;stroke-opacity:1;fill:#808080;fill-opacity:1"
       d="M -2.5,-1.0 C -2.5,1.7600000 -4.7400000,4.0 -7.5,4.0 C -10.260000,4.0 -12.5,1.7600000 -12.5,-1.0 C -12.5,-3.7600000 -10.260000,-6.0 -7.5,-6.0 C -4.7400000,-6.0 -2.5,-3.7600000 -2.5,-1.0 z "
       id="path1339" /></marker><marker
     style="overflow:visible"
     id="marker1331"
     refX="0.0"
     refY="0.0"
     orient="auto"
     inkscape:stockid="DotL"
     inkscape:isstock="true"><path
       transform="scale(0.8) translate(7.4, 1)"
       style="fill-rule:evenodd;stroke:#808080;stroke-width:1pt;stroke-opacity:1;fill:#808080;fill-opacity:1"
       d="M -2.5,-1.0 C -2.5,1.7600000 -4.7400000,4.0 -7.5,4.0 C -10.260000,4.0 -12.5,1.7600000 -12.5,-1.0 C -12.5,-3.7600000 -10.260000,-6.0 -7.5,-6.0 C -4.7400000,-6.0 -2.5,-3.7600000 -2.5,-1.0 z "
       id="path1329" /></marker></defs><sodipodi:namedview
   pagecolor="#ffffff"
   bordercolor="#666666"
   borderopacity="1"
   objecttolerance="10"
   gridtolerance="10"
   guidetolerance="10"
   inkscape:pageopacity="0"
   inkscape:pageshadow="2"
   inkscape:window-width="2560"
   inkscape:window-height="1017"
   id="namedview11"
   showgrid="false"
   inkscape:zoom="13.28125"
   inkscape:cx="15.907976"
   inkscape:cy="11.057046"
   inkscape:window-x="-8"
   inkscape:window-y="-8"
   inkscape:window-maximized="1"
   inkscape:current-layer="Create_Stacked_Line_Chart"
   inkscape:document-rotation="0" />
<style
   type="text/css"
   id="style2">
	.Blue{fill:#1177D7;}
	.Yellow{fill:#FFB115;}
	.Red{fill:#D11C1C;}
</style>



<path
   id="path8"
   style="fill:#727272;fill-opacity:1"
   d="M 3.09375 5.7792969 C 1.3937498 5.7792969 0.09375 7.0792969 0.09375 8.7792969 C 0.09375 10.479297 1.3937498 11.779297 3.09375 11.779297 C 4.39375 11.779297 5.4945313 10.979297 5.8945312 9.7792969 L 11.576172 9.7792969 L 11.576172 7.7792969 L 5.8945312 7.7792969 C 5.4945312 6.5792969 4.39375 5.7792969 3.09375 5.7792969 z M 3.09375 7.7792969 C 3.69375 7.7792969 4.09375 8.1792969 4.09375 8.7792969 C 4.09375 9.3792969 3.69375 9.7792969 3.09375 9.7792969 C 2.4937498 9.7792969 2.09375 9.3792969 2.09375 8.7792969 C 2.09375 8.1792969 2.4937498 7.7792969 3.09375 7.7792969 z M 29.09375 7.7792969 C 27.89375 7.7792969 26.894531 8.4789063 26.394531 9.3789062 L 19.265625 8.3613281 L 21.650391 10.744141 L 26.09375 11.378906 C 26.39375 12.778906 27.69375 13.779297 29.09375 13.779297 C 30.79375 13.779297 32.09375 12.479297 32.09375 10.779297 C 32.09375 9.1792968 30.79375 7.7792969 29.09375 7.7792969 z M 29.09375 9.7792969 C 29.69375 9.7792969 30.09375 10.179297 30.09375 10.779297 C 30.09375 11.379297 29.69375 11.779297 29.09375 11.779297 C 28.49375 11.779297 28.09375 11.379297 28.09375 10.779297 C 28.09375 10.179297 28.49375 9.7792969 29.09375 9.7792969 z " /><path
   class="Black"
   d="m 21.508235,20.780741 h 7.8 L 13.308234,4.7807418 V 26.780741 l 5.3,-5.3 2.700001,6.7 c 0.2,0.5 0.8,0.8 1.3,0.5 l 0.9,-0.4 c 0.5,-0.2 0.8,-0.8 0.5,-1.3 z"
   id="path4-7"
   style="fill:#737374" /></svg>
