<?xml version="1.0" encoding="UTF-8" standalone="no"?>
<svg
   xmlns:dc="http://purl.org/dc/elements/1.1/"
   xmlns:cc="http://creativecommons.org/ns#"
   xmlns:rdf="http://www.w3.org/1999/02/22-rdf-syntax-ns#"
   xmlns:svg="http://www.w3.org/2000/svg"
   xmlns="http://www.w3.org/2000/svg"
   xmlns:sodipodi="http://sodipodi.sourceforge.net/DTD/sodipodi-0.dtd"
   xmlns:inkscape="http://www.inkscape.org/namespaces/inkscape"
   version="1.1"
   id="Layer_1"
   x="0px"
   y="0px"
   viewBox="0 0 32 32"
   style="enable-background:new 0 0 32 32;"
   xml:space="preserve"
   sodipodi:docname="printvisibility.svg"
   inkscape:version="1.0.2 (e86c870879, 2021-01-15, custom)"><metadata
   id="metadata14"><rdf:RDF><cc:Work
       rdf:about=""><dc:format>image/svg+xml</dc:format><dc:type
         rdf:resource="http://purl.org/dc/dcmitype/StillImage" /><dc:title></dc:title></cc:Work></rdf:RDF></metadata><defs
   id="defs12" /><sodipodi:namedview
   pagecolor="#ffffff"
   bordercolor="#666666"
   borderopacity="1"
   objecttolerance="10"
   gridtolerance="10"
   guidetolerance="10"
   inkscape:pageopacity="0"
   inkscape:pageshadow="2"
   inkscape:window-width="2560"
   inkscape:window-height="1017"
   id="namedview10"
   showgrid="false"
   inkscape:zoom="12.930137"
   inkscape:cx="29.1548"
   inkscape:cy="26.681303"
   inkscape:window-x="-8"
   inkscape:window-y="-8"
   inkscape:window-maximized="1"
   inkscape:current-layer="Layer_1" />
<style
   type="text/css"
   id="style2">
	.Black{fill:#727272;}
	.Red{fill:#D11C1C;}
	.Yellow{fill:#FFB115;}
	.Green{fill:#039C23;}
</style>
<g
   id="Print_1_"
   transform="translate(0.18726998,-0.35959751)">
	<path
   id="path862"
   d="m 8.1875,1.640625 v 10 h 2 v -8 h 12 v 8 h 2 v -10 z m -4,8 c -1.1,0 -2,0.9 -2,2 v 12 c 0,1.1 0.9,2 2,2 h 4 v 4 h 6.25 v -2 h -4.25 v -2 -2 -4 h 4.25 v -0.9375 h 15.75 v -7.0625 c 0,-1.1 -0.9,-2 -2,-2 h -2 v 3 c 0,0.6 -0.4,1 -1,1 h -18 c -0.6,0 -1,-0.4 -1,-1 v -3 z"
   transform="translate(-0.18726998,0.35959751)"
   style="fill:#727272;fill-opacity:1" />
</g><g
   id="Visibility"
   transform="matrix(0.5,0,0,0.5,14.67178,16.312382)">
	<circle
   class="Black"
   cx="16"
   cy="16"
   r="4"
   id="circle4" />
	<path
   class="Black"
   d="M 16,8 C 8,8 2,16 2,16 c 0,0 6,8 14,8 8,0 14,-8 14,-8 0,0 -6,-8 -14,-8 z m 0,14 c -3.3,0 -6,-2.7 -6,-6 0,-3.3 2.7,-6 6,-6 3.3,0 6,2.7 6,6 0,3.3 -2.7,6 -6,6 z"
   id="path6" />
</g>
<style
   type="text/css"
   id="style839">
	.Blue{fill:#1177D7;}
</style><style
   type="text/css"
   id="style860">
	.Red{fill:#D11C1C;}
	.Black{fill:#727272;}
	.Blue{fill:#1177D7;}
	.Green{fill:#039C23;}
	.Yellow{fill:#FFB115;}
	.White{fill:#FFFFFF;}
	.st0{opacity:0.5;}
	.st1{opacity:0.75;}
	.st2{opacity:0.25;}
</style><style
   type="text/css"
   id="style879">
	.Red{fill:#D11C1C;}
	.Black{fill:#727272;}
	.Blue{fill:#1177D7;}
	.Green{fill:#039C23;}
	.Yellow{fill:#FFB115;}
	.White{fill:#FFFFFF;}
	.st0{opacity:0.5;}
	.st1{opacity:0.75;}
	.st2{opacity:0.25;}
</style><g
   id="Print_1_-8"
   transform="translate(0.1875,-0.359375)">
	<path
   id="path881"
   d="m 8.1875,1.640625 v 10 h 2 v -8 h 12 v 8 h 2 v -10 z m -4,8 c -1.1,0 -2,0.9 -2,2 v 12 c 0,1.1 0.9,2 2,2 h 4 v 4 l 12.685674,0.02265 c -1.220037,-0.512562 -2.440872,-1.030702 -3.732155,-2.041987 l -6.953519,0.01934 v -2 -2 -4 h 9.472656 c 0.974721,-0.373199 2.028351,-0.619141 3.146485,-0.619141 3.104502,0 5.725067,1.817873 7.380859,3.322266 V 11.640625 c 0,-1.1 -0.9,-2 -2,-2 h -2 v 3 c 0,0.6 -0.4,1 -1,1 h -18 c -0.6,0 -1,-0.4 -1,-1 v -3 z"
   transform="translate(-0.1875,0.359375)"
   sodipodi:nodetypes="cccccccccsssscccccccccscsscsssscs"
   style="fill:#727272;fill-opacity:1" />
</g></svg>
