<?xml version='1.0' encoding='UTF-8'?>
<svg x="0px" y="0px" viewBox="0 0 32 32" version="1.1" xmlns="http://www.w3.org/2000/svg" xmlns:xlink="http://www.w3.org/1999/xlink" xml:space="preserve" id="Layer_1" style="enable-background:new 0 0 32 32">
  <style type="text/css">
	.Black{fill:#727272;}
	.Yellow{fill:#FFB115;}
	.Blue{fill:#1177D7;}
	.Green{fill:#039C23;}
	.Red{fill:#D11C1C;}
	.White{fill:#FFFFFF;}
	.st0{opacity:0.75;}
	.st1{opacity:0.5;}
	.st2{opacity:0.25;}
</style>
  <g id="Properties">
    <path d="M30,18v-4l-4.4-0.7c-0.2-0.8-0.5-1.5-0.9-2.1l2.6-3.6l-2.8-2.8l-3.6,2.6c-0.7-0.4-1.4-0.7-2.1-0.9L18,2h-4   l-0.7,4.4c-0.8,0.2-1.5,0.5-2.1,0.9L7.5,4.7L4.7,7.5l2.6,3.6c-0.4,0.7-0.7,1.4-0.9,2.1L2,14v4l4.4,0.7c0.2,0.8,0.5,1.5,0.9,2.1   l-2.6,3.6l2.8,2.8l3.6-2.6c0.7,0.4,1.4,0.7,2.1,0.9L14,30h4l0.7-4.4c0.8-0.2,1.5-0.5,2.1-0.9l3.6,2.6l2.8-2.8l-2.6-3.6   c0.4-0.7,0.7-1.4,0.9-2.1L30,18z M16,20c-2.2,0-4-1.8-4-4c0-2.2,1.8-4,4-4s4,1.8,4,4C20,18.2,18.2,20,16,20z" class="Blue" />
  </g>
</svg>