<?xml version='1.0' encoding='UTF-8'?>
<svg x="0px" y="0px" viewBox="0 0 32 32" version="1.1" xmlns="http://www.w3.org/2000/svg" xmlns:xlink="http://www.w3.org/1999/xlink" xml:space="preserve" id="Layer_1" style="enable-background:new 0 0 32 32">
  <style type="text/css">
	.Black{fill:#737374;}
	.Yellow{fill:#FCB01B;}
	.Green{fill:#129C49;}
	.Blue{fill:#387CB7;}
	.Red{fill:#D02127;}
	.White{fill:#FFFFFF;}
	.st0{opacity:0.5;}
	.st1{opacity:0.75;}
	.st2{opacity:0.25;}
	.st3{display:none;fill:#737374;}
</style>
  <path d="M24,8h2V3c0-0.5-0.5-1-1-1H3C2.5,2,2,2.5,2,3v5h2H24z" class="Blue" />
  <path d="M22,12H12v-2h10V12z M22,16v-2H12v2H22z M6,20h4v-2H6V20z M16,18h-4v2h4V18z M6,16h4v-2H6V16z M6,12h4v-2H6  V12z" class="Black" />
  <g class="st0">
    <path d="M24,14V8h2v6H24z M14,22H4V8H2v15c0,0.5,0.5,1,1,1h11V22z" class="Black" />
  </g>
  <path d="M32,25v-2l-2.5-0.6c-0.1-0.4-0.3-0.8-0.5-1.2l1.5-2.1l-1.6-1.6L26.8,19c-0.4-0.2-0.8-0.4-1.2-0.5L25,16h-2  l-0.6,2.5c-0.4,0.1-0.8,0.3-1.2,0.5l-2-1.5l-1.7,1.7l1.5,2c-0.2,0.4-0.4,0.8-0.5,1.2L16,23v2l2.5,0.6c0.1,0.4,0.3,0.8,0.5,1.2  l-1.5,2.1l1.6,1.6l2.1-1.5c0.4,0.2,0.8,0.4,1.2,0.5L23,32h2l0.6-2.5c0.4-0.1,0.8-0.3,1.2-0.5l2.1,1.5l1.6-1.6L29,26.8  c0.2-0.4,0.4-0.8,0.5-1.2L32,25z M24,26c-1.1,0-2-0.9-2-2s0.9-2,2-2s2,0.9,2,2S25.1,26,24,26z" class="Blue" />
</svg>