<?xml version="1.0" encoding="UTF-8" standalone="no"?>
<svg
   xmlns:dc="http://purl.org/dc/elements/1.1/"
   xmlns:cc="http://creativecommons.org/ns#"
   xmlns:rdf="http://www.w3.org/1999/02/22-rdf-syntax-ns#"
   xmlns:svg="http://www.w3.org/2000/svg"
   xmlns="http://www.w3.org/2000/svg"
   xmlns:sodipodi="http://sodipodi.sourceforge.net/DTD/sodipodi-0.dtd"
   xmlns:inkscape="http://www.inkscape.org/namespaces/inkscape"
   version="1.1"
   id="Create_Stacked_Line_Chart"
   x="0px"
   y="0px"
   viewBox="0 0 32 32"
   style="enable-background:new 0 0 32 32;"
   xml:space="preserve"
   sodipodi:docname="refreshbindings.svg"
   inkscape:version="1.0.1 (3bc2e813f5, 2020-09-07)"><metadata
   id="metadata15"><rdf:RDF><cc:Work
       rdf:about=""><dc:format>image/svg+xml</dc:format><dc:type
         rdf:resource="http://purl.org/dc/dcmitype/StillImage" /><dc:title></dc:title></cc:Work></rdf:RDF></metadata><defs
   id="defs13"><marker
     style="overflow:visible"
     id="marker1341"
     refX="0.0"
     refY="0.0"
     orient="auto"
     inkscape:stockid="DotL"
     inkscape:isstock="true"><path
       transform="scale(0.8) translate(7.4, 1)"
       style="fill-rule:evenodd;stroke:#808080;stroke-width:1pt;stroke-opacity:1;fill:#808080;fill-opacity:1"
       d="M -2.5,-1.0 C -2.5,1.7600000 -4.7400000,4.0 -7.5,4.0 C -10.260000,4.0 -12.5,1.7600000 -12.5,-1.0 C -12.5,-3.7600000 -10.260000,-6.0 -7.5,-6.0 C -4.7400000,-6.0 -2.5,-3.7600000 -2.5,-1.0 z "
       id="path1339" /></marker><marker
     style="overflow:visible"
     id="marker1331"
     refX="0.0"
     refY="0.0"
     orient="auto"
     inkscape:stockid="DotL"
     inkscape:isstock="true"><path
       transform="scale(0.8) translate(7.4, 1)"
       style="fill-rule:evenodd;stroke:#808080;stroke-width:1pt;stroke-opacity:1;fill:#808080;fill-opacity:1"
       d="M -2.5,-1.0 C -2.5,1.7600000 -4.7400000,4.0 -7.5,4.0 C -10.260000,4.0 -12.5,1.7600000 -12.5,-1.0 C -12.5,-3.7600000 -10.260000,-6.0 -7.5,-6.0 C -4.7400000,-6.0 -2.5,-3.7600000 -2.5,-1.0 z "
       id="path1329" /></marker></defs><sodipodi:namedview
   pagecolor="#ffffff"
   bordercolor="#666666"
   borderopacity="1"
   objecttolerance="10"
   gridtolerance="10"
   guidetolerance="10"
   inkscape:pageopacity="0"
   inkscape:pageshadow="2"
   inkscape:window-width="2560"
   inkscape:window-height="1017"
   id="namedview11"
   showgrid="false"
   inkscape:zoom="13.28125"
   inkscape:cx="0.46849522"
   inkscape:cy="30.168988"
   inkscape:window-x="-8"
   inkscape:window-y="-8"
   inkscape:window-maximized="1"
   inkscape:current-layer="Create_Stacked_Line_Chart" />
<style
   type="text/css"
   id="style2">
	.Blue{fill:#1177D7;}
	.Yellow{fill:#FFB115;}
	.Red{fill:#D11C1C;}
</style>



<path
   style="fill:none;fill-rule:evenodd;stroke:#808080;stroke-width:1px;stroke-linecap:round;stroke-linejoin:round;stroke-opacity:0.5"
   d="M 1.9166753,8.7315207 9.3171717,9.7430996 23.053345,7.3472554 31.039492,1.0648196"
   id="path997"
   sodipodi:nodetypes="cccc" /><path
   style="fill:none;fill-rule:evenodd;stroke:#808080;stroke-width:1px;stroke-linecap:round;stroke-linejoin:round;stroke-opacity:0.5"
   d="M 1.2777835,29.28254 9.5301356,27.312623"
   id="path999"
   sodipodi:nodetypes="cc" /><path
   id="rect840"
   style="fill:#1177d7;fill-opacity:1;stroke:#100f00;stroke-width:0;stroke-miterlimit:4;stroke-dasharray:none"
   d="M 22.900391 5.984375 A 1.5402998 1.5402998 0 0 0 22.693359 6 A 1.5402998 1.5402998 0 0 0 21.373047 7.7324219 A 1.5402998 1.5402998 0 0 0 21.404297 7.8925781 L 15.535156 17.173828 L 16.425781 17.736328 A 9.3970327 9.3970327 0 0 1 18.697266 15.914062 L 23.033203 9.0585938 A 1.5402998 1.5402998 0 0 0 23.105469 9.0527344 A 1.5402998 1.5402998 0 0 0 24.425781 7.3183594 A 1.5402998 1.5402998 0 0 0 22.900391 5.984375 z " /><path
   id="rect840-2"
   style="fill:#1177d7;fill-opacity:1;stroke:#100f00;stroke-width:0;stroke-miterlimit:4;stroke-dasharray:none"
   d="M 9.2753906 8.1777344 A 1.5402998 1.5402998 0 0 0 8.7636719 8.2714844 A 1.5402998 1.5402998 0 0 0 7.8496094 10.248047 A 1.5402998 1.5402998 0 0 0 9.0488281 11.236328 L 12.888672 17.833984 L 14.617188 16.828125 L 10.757812 10.199219 A 1.5402998 1.5402998 0 0 0 10.742188 9.1855469 A 1.5402998 1.5402998 0 0 0 9.2753906 8.1777344 z " /><path
   id="rect840-1"
   style="fill:#1177d7;fill-opacity:1;stroke:#100f00;stroke-width:0;stroke-miterlimit:4;stroke-dasharray:none"
   d="M 13.300781 20.115234 L 9.4160156 25.628906 A 1.5402998 1.5402998 0 0 0 9.1113281 25.677734 A 1.5402998 1.5402998 0 0 0 8.0078125 27.554688 A 1.5402998 1.5402998 0 0 0 9.8867188 28.658203 A 1.5402998 1.5402998 0 0 0 11.003906 26.847656 L 14.130859 22.412109 A 9.3970327 9.3970327 0 0 1 14.511719 20.980469 L 13.300781 20.115234 z " /><path
   id="path8"
   style="fill:#727272;fill-opacity:1"
   d="M 3.09375 16.09375 C 1.3937498 16.09375 0.09375 17.39375 0.09375 19.09375 C 0.09375 20.79375 1.3937498 22.09375 3.09375 22.09375 C 4.39375 22.09375 5.4945313 21.29375 5.8945312 20.09375 L 12.294922 20.09375 C 12.602662 21.016972 13.325662 21.699249 14.234375 21.966797 A 9.3970327 9.3970327 0 0 1 14.886719 20.056641 C 14.409935 19.970848 14.09375 19.617645 14.09375 19.09375 C 14.09375 18.49375 14.49375 18.09375 15.09375 18.09375 C 15.423151 18.09375 15.681676 18.223613 15.857422 18.431641 A 9.3970327 9.3970327 0 0 1 17.199219 16.976562 C 16.670411 16.445652 15.932864 16.09375 15.09375 16.09375 C 13.79375 16.09375 12.694922 16.89375 12.294922 18.09375 L 5.8945312 18.09375 C 5.4945312 16.89375 4.39375 16.09375 3.09375 16.09375 z M 3.09375 18.09375 C 3.69375 18.09375 4.09375 18.49375 4.09375 19.09375 C 4.09375 19.69375 3.69375 20.09375 3.09375 20.09375 C 2.4937498 20.09375 2.09375 19.69375 2.09375 19.09375 C 2.09375 18.49375 2.4937498 18.09375 3.09375 18.09375 z M 31.796875 19.822266 A 9.3970327 9.3970327 0 0 1 31.873047 19.976562 C 31.851358 19.923193 31.821523 19.8742 31.796875 19.822266 z " /><path
   class="Green"
   d="m 30.160325,16.460325 v 6 h -0.1 -2 -3.9 l 2.5,-2.5 c -0.9,-0.9 -2.1,-1.5 -3.5,-1.5 -2.4,0 -4.4,1.7 -4.9,4 h -2 c 0.5,-3.4 3.4,-6 6.9,-6 1.9,0 3.7,0.8 4.9,2.1 z m -7,12 c -1.4,0 -2.6,-0.6 -3.5,-1.5 l 2.5,-2.5 h -3.9 -2 -0.1 v 6 l 2.1,-2.1 c 1.3,1.3 3,2.1 4.9,2.1 3.5,0 6.4,-2.6 6.9,-6 h -2 c -0.5,2.3 -2.5,4 -4.9,4 z"
   id="path8-6"
   style="fill:#039c23" /></svg>
