<?xml version="1.0" encoding="UTF-8" standalone="no"?>
<svg
   version="1.1"
   id="Replace"
   x="0px"
   y="0px"
   viewBox="0 0 32 32"
   style="enable-background:new 0 0 32 32;"
   xml:space="preserve"
   sodipodi:docname="replacefill.svg"
   inkscape:version="1.3.2 (091e20e, 2023-11-25, custom)"
   xmlns:inkscape="http://www.inkscape.org/namespaces/inkscape"
   xmlns:sodipodi="http://sodipodi.sourceforge.net/DTD/sodipodi-0.dtd"
   xmlns="http://www.w3.org/2000/svg"
   xmlns:svg="http://www.w3.org/2000/svg"><defs
   id="defs3" /><sodipodi:namedview
   id="namedview3"
   pagecolor="#505050"
   bordercolor="#eeeeee"
   borderopacity="1"
   inkscape:showpageshadow="0"
   inkscape:pageopacity="0"
   inkscape:pagecheckerboard="0"
   inkscape:deskcolor="#d1d1d1"
   inkscape:zoom="12.703125"
   inkscape:cx="18.420664"
   inkscape:cy="15.153752"
   inkscape:window-width="2560"
   inkscape:window-height="1009"
   inkscape:window-x="-8"
   inkscape:window-y="-8"
   inkscape:window-maximized="1"
   inkscape:current-layer="g3" />
<style
   type="text/css"
   id="style1">
	.Blue{fill:#1177D7;}
	.Green{fill:#039C23;}
	.Red{fill:#D11C1C;}
	.Black{fill:#727272;}
	.st0{fill:none;}
	.st1{opacity:0.25;}</style>


<path
   class="Blue"
   d="M23.1,6.9C21.3,5.1,18.8,4,16,4c-4.8,0-8.9,3.4-9.8,8h2.1c0.9-3.4,4-6,7.7-6c2.2,0,4.2,0.9,5.6,2.4L18,12h5.7  h2.1H26V4L23.1,6.9z"
   id="path3" />
<g
   id="g3"
   transform="translate(0,0.387454)"><g
     id="g5"
     class="st1"><path
       class="Black"
       d="m 9.8280215,18.418139 c 1.5227685,0 2.8112645,2.518424 2.8112645,5.622529 0,0.761384 0.644248,1.405632 1.405633,1.405632 0.761384,0 1.405632,-0.644248 1.405632,-1.405632 0,-3.104105 -2.518425,-5.622529 -5.6225295,-5.622529 z"
       id="path1-8" /></g><path
     class="Black"
     d="m 9.0080695,19.179523 1.7570405,1.75704 -3.9240567,3.924057 c -0.8199521,0.819952 -2.1670163,0.819952 -2.9869684,0 L 0.86711662,21.873652 c -0.81995212,-0.819953 -0.81995212,-2.167017 0,-2.986969 l 3.86548838,-3.982624 1.7570402,1.75704 -1.1127921,1.112792 c -0.29284,0.29284 -0.4685441,0.761384 -0.4685441,1.229928 0,0.468544 0.1757041,0.937088 0.5271121,1.229928 0.351408,0.351408 0.7613841,0.527112 1.2299281,0.527112 0.4685441,0 0.9370881,-0.175704 1.2299282,-0.527112 z m -1.9327442,0.234272 3.4555127,-3.455512 c 0.234272,-0.234272 0.234272,-0.58568 0,-0.819952 v 0 c -0.234272,-0.234272 -0.5856805,-0.234272 -0.8199525,0 l -3.4555123,3.455512 c -0.234272,0.234272 -0.234272,0.58568 0,0.819952 v 0 c 0.234272,0.234272 0.5856801,0.234272 0.8199521,0 z"
     id="path2-6" /></g><g
   id="g4"
   transform="translate(-0.07872078)"><path
     class="Blue"
     d="m 26.297886,18.805593 c 1.522768,0 2.811264,2.518424 2.811264,5.622529 0,0.761384 0.644248,1.405632 1.405633,1.405632 0.761384,0 1.405632,-0.644248 1.405632,-1.405632 0,-3.104105 -2.518425,-5.622529 -5.622529,-5.622529 z"
     id="path1-8-4"
     style="fill:#1177d7;stroke-width:0.58568" /><path
     class="Black"
     d="m 25.477934,19.566977 1.75704,1.75704 -3.924056,3.924057 c -0.819952,0.819952 -2.167016,0.819952 -2.986969,0 l -2.986968,-2.986968 c -0.819952,-0.819953 -0.819952,-2.167017 0,-2.986969 l 3.865488,-3.982624 1.757041,1.75704 -1.112792,1.112792 c -0.29284,0.29284 -0.468544,0.761384 -0.468544,1.229928 0,0.468544 0.175704,0.937088 0.527112,1.229928 0.351408,0.351408 0.761384,0.527112 1.229928,0.527112 0.468544,0 0.937088,-0.175704 1.229928,-0.527112 z m -1.932744,0.234272 3.455512,-3.455512 c 0.234272,-0.234272 0.234272,-0.58568 0,-0.819952 v 0 c -0.234272,-0.234272 -0.58568,-0.234272 -0.819952,0 l -3.455512,3.455512 c -0.234272,0.234272 -0.234272,0.58568 0,0.819952 v 0 c 0.234272,0.234272 0.58568,0.234272 0.819952,0 z"
     id="path2-6-6" /></g></svg>
