<?xml version="1.0" encoding="UTF-8" standalone="no"?>
<!-- Generator: Adobe Illustrator 21.1.0, SVG Export Plug-In . SVG Version: 6.00 Build 0)  -->

<svg
   version="1.1"
   id="Layer_1"
   x="0px"
   y="0px"
   viewBox="0 0 45 45.000001"
   xml:space="preserve"
   sodipodi:docname="resurvey.svg"
   inkscape:version="1.1 (c68e22c387, 2021-05-23)"
   width="45"
   height="45"
   inkscape:export-filename="d:\desktop\mainicon.png"
   inkscape:export-xdpi="693.82001"
   inkscape:export-ydpi="693.82001"
   xmlns:inkscape="http://www.inkscape.org/namespaces/inkscape"
   xmlns:sodipodi="http://sodipodi.sourceforge.net/DTD/sodipodi-0.dtd"
   xmlns="http://www.w3.org/2000/svg"
   xmlns:svg="http://www.w3.org/2000/svg">
	<defs
   id="defs13" />
	<sodipodi:namedview
   id="namedview11"
   pagecolor="#505050"
   bordercolor="#eeeeee"
   borderopacity="1"
   inkscape:pageshadow="0"
   inkscape:pageopacity="0"
   inkscape:pagecheckerboard="0"
   showgrid="false"
   inkscape:zoom="19.619337"
   inkscape:cx="23.216891"
   inkscape:cy="22.656219"
   inkscape:window-width="2560"
   inkscape:window-height="1017"
   inkscape:window-x="-8"
   inkscape:window-y="-8"
   inkscape:window-maximized="1"
   inkscape:current-layer="Layer_1"
   inkscape:lockguides="false"
   showguides="true"
   inkscape:guide-bbox="true"
   fit-margin-left="2"
   fit-margin-top="2"
   fit-margin-bottom="2"
   fit-margin-right="2">
		<sodipodi:guide
   position="45.253843,-15.171662"
   orientation="0,-1"
   id="guide2759" />
	</sodipodi:namedview>
	<style
   type="text/css"
   id="style5">
	.Blue{fill:#1177D7;}
	.Yellow{fill:#FFB115;}
	.Black{fill:#727272;}
	.Green{fill:#039C23;}
	.Red{fill:#D11C1C;}
</style>
	<path
   id="path4-7"
   style="fill:#727272;fill-opacity:1"
   class="Black"
   inkscape:transform-center-x="7.5784311"
   inkscape:transform-center-y="-11.156739"
   d="M 9.8710938,9.6445312 C 8.6924684,9.5892946 7.5590082,10.244551 7.03125,11.322266 c -0.747657,1.526765 -0.1537172,3.266014 1.3730469,4.013672 0.7184773,0.351838 1.479525,0.390244 2.2382811,0.205078 l 2.679688,3.966796 h 2.439453 l -3.519531,-5.1875 0.175781,-0.359374 C 13.165634,12.434176 12.571687,10.694923 11.044922,9.9472656 10.663231,9.7603511 10.263969,9.6629435 9.8710938,9.6445312 Z M 9.765625,11.628906 c 0.130071,0.0115 0.263723,0.04927 0.398437,0.115235 0.538855,0.263882 0.722866,0.799032 0.458985,1.33789 -0.263881,0.538857 -0.799034,0.722865 -1.3378908,0.458985 C 8.7462986,13.277135 8.562292,12.741983 8.8261719,12.203125 9.0240832,11.798982 9.3754119,11.5944 9.765625,11.628906 Z"
   sodipodi:nodetypes="ssscccccssssssss"
   inkscape:export-filename="d:\desktop\logo test 11.png"
   inkscape:export-xdpi="693.82001"
   inkscape:export-ydpi="693.82001" />
	<path
   id="path5481-3"
   style="fill:#ffffff"
   class="Black"
   d="m 10.583984,21.191406 c -0.5,0 -1,0.5 -1,1 v 20.082032 c 0,0.5 0.5,1 1,1 h 24 c 0.5,0 1,-0.5 1,-1 V 22.191406 c 0,-0.5 -0.5,-1 -1,-1 z m 10.054688,2.899698 h 6.125 c 1.725268,0 2.21789,0.145791 2.996094,0.439453 0.785549,0.286323 1.412947,0.801469 1.882812,1.542969 0.46986,0.741499 0.705078,1.588563 0.705078,2.542969 0,1.211361 -0.356226,2.212969 -1.068359,3.005859 -0.712133,0.78555 -1.016668,1.280765 -2.433594,1.486328 0.704792,0.411129 0.857323,0.863583 1.3125,1.355469 0.462518,0.491886 1.08312,1.365683 1.861328,2.621094 l 1.972657,3.148437 h -3.472657 l -2.357422,-3.511719 c -0.836943,-1.255411 -1.408446,-2.044157 -1.716797,-2.367187 -0.308346,-0.330371 -0.635413,-0.554409 -0.980468,-0.671875 -0.345054,-0.1248 -0.157408,-0.1875 -0.90625,-0.1875 h -0.660156 v 6.738281 h -3.259766 v -1.665575 c -0.03225,0.02719 -0.06266,0.05772 -0.0957,0.08398 -0.895674,0.712134 -2.096538,1.068359 -3.601563,1.068359 -1.710589,0 -3.075222,-0.539927 -4.095703,-1.61914 -1.013138,-1.079213 -1.519531,-2.57361 -1.519531,-4.482422 0,-1.930837 0.510769,-3.432035 1.53125,-4.503907 1.020479,-1.079213 2.400669,-1.61914 4.140625,-1.61914 1.424266,0 2.553685,0.309088 3.390625,0.925781 0.08605,0.0621 0.16891,0.128456 0.25,0.197266 z m 3.259766,2.730469 v 4.095703 h 1.675781 c 1.563758,0 2.540579,-0.06512 2.929687,-0.197266 0.389101,-0.132149 0.693813,-0.360564 0.914063,-0.683593 0.220244,-0.323031 0.330078,-0.726393 0.330078,-1.210938 0,-0.543277 -0.145793,-0.980176 -0.439453,-1.310547 C 29.022268,27.177219 28.614531,26.96436 28.085938,26.87626 27.82164,26.83955 27.027992,26.78434 25.707031,26.82157 Z m -6.857422,3.107862 c -0.770866,0 -1.38709,0.268753 -1.84961,0.804688 -0.455178,0.528594 -0.683594,1.415993 -0.683594,2.664062 0,1.387561 0.232792,2.368763 0.695313,2.941407 0.469861,0.572644 1.097261,0.859375 1.882813,0.859375 0.587326,0 1.066986,-0.165722 1.441406,-0.496094 0.374422,-0.337713 0.638794,-0.9136 0.792968,-1.728516 l 1.31836,0.22461 V 31.501701 L 19.15625,31.769279 C 19.053468,31.159927 18.818252,30.700673 18.451172,30.392326 18.091435,30.08398 17.621001,29.929435 17.041016,29.929435 Z"
   inkscape:export-filename="d:\desktop\mainicon_resurvey.png"
   inkscape:export-xdpi="943.39148"
   inkscape:export-ydpi="943.39148"
   sodipodi:nodetypes="ssssssssscscsscccccccccscccccscscscccccssssccscscscsccccccs" />
	<g
   id="g2365"
   transform="rotate(-52.745832,-44.955318,-48.700268)"
   inkscape:transform-center-x="-12.664239"
   inkscape:transform-center-y="-18.947096">
		<g
   id="g4224"
   transform="translate(-9.9038233,-55.89521)">
			<path
   id="polygon6"
   class="Black"
   d="M 38.570312 7.6367188 L 33.761719 9.0039062 L 35.353516 10.214844 L 28.285156 19.507812 L 30.796875 19.507812 L 36.945312 11.427734 L 38.537109 12.636719 L 38.570312 7.6367188 z "
   transform="rotate(52.745832,-96.370378,-10.76525)" />
			<rect
   style="fill:#727272;fill-opacity:1;stroke-width:0.76232"
   id="rect850-0"
   width="5.9230766"
   height="2"
   x="104.78152"
   y="27.292854"
   transform="rotate(90)"
   class="Black" />
		</g>
	</g>
	<g
   id="g1870"
   transform="matrix(0.63622752,-0.12295776,0.15408336,0.79728257,5.3445542,6.5780239)"
   inkscape:transform-center-x="3.5745342"
   inkscape:transform-center-y="-15.981953">
		<path
   id="path1858"
   style="stroke-width:0.725396"
   class="Yellow"
   d="m 18.826172,3.9960938 c -0.04101,-0.00209 -0.08133,0.00208 -0.121094,0.00977 l -5.746094,1.109375 c -0.381736,0.073775 -0.574872,0.4415523 -0.482422,0.9199218 l 2.605469,13.4785154 7.28125,0 L 19.496094,4.6796875 C 19.4152,4.2611142 19.113233,4.0107224 18.826172,3.9960938 Z"
   transform="matrix(1.5151735,0.23367166,-0.29282344,1.2091009,-6.1690123,-9.2135765)"
   sodipodi:nodetypes="sccccccs" />
		<path
   id="path1860"
   style="stroke-width:0.725396"
   class="Black"
   d="m 19.650391,5.4765625 -3.81836,0.7382813 0.308594,1.59375 3.816406,-0.7363282 z m 0.615234,3.1894531 -2.544922,0.4921875 0.308594,1.5937499 2.544922,-0.492187 z m 0.617187,3.1894534 -3.818359,0.738281 0.308594,1.59375 3.818359,-0.738281 z m 0.615235,3.189453 -2.544922,0.490234 0.308594,1.595703 2.544922,-0.492187 z m 0.617187,3.1875 -3.818359,0.738281 0.105469,0.546875 h 3.960937 z"
   transform="matrix(1.5151735,0.23367166,-0.29282344,1.2091009,-6.1690123,-9.2135765)" />
	</g>
	<path
   id="rect840-2"
   style="fill:#888888;stroke:#100f00;stroke-width:0;stroke-miterlimit:4;stroke-dasharray:none"
   inkscape:transform-center-x="-2.2664321"
   inkscape:transform-center-y="-15.630888"
   d="m 25.400391,4.5644531 c -0.05495,-2.781e-4 -0.109158,0.00218 -0.164063,0.00781 -0.599786,0.062175 -1.108173,0.4695014 -1.300781,1.0410156 -0.175748,0.5254632 -0.05744,1.1052039 0.3125,1.5175782 L 22.794922,19.507812 h 2.011719 L 26.232422,7.390625 C 26.522332,7.2032708 26.741316,6.9241199 26.853516,6.5976562 27.125181,5.7916559 26.692502,4.9182737 25.886719,4.6464844 25.729882,4.5934159 25.56525,4.5652875 25.400391,4.5644531 Z"
   sodipodi:nodetypes="sccccccccs"
   class="Black" />
	<path
   id="rect840-1"
   style="fill:#888888;stroke:#100f00;stroke-width:0;stroke-miterlimit:4;stroke-dasharray:none"
   inkscape:transform-center-x="-6.9233838"
   inkscape:transform-center-y="-15.684634"
   d="m 32.154297,8.7285156 c -0.183897,0.00281 -0.365805,0.038528 -0.537109,0.1054688 -0.764468,0.3002513 -1.158881,1.1475073 -0.896485,1.9257816 l -4.78125,8.748046 h 2.28125 l 4.222656,-7.724609 c 0.100651,-0.01622 0.199442,-0.04239 0.294922,-0.07813 0.792396,-0.310012 1.183319,-1.203799 0.873047,-1.9960936 -0.02583,-0.068503 -0.0565,-0.1350785 -0.0918,-0.1992188 -0.277784,-0.4906665 -0.801465,-0.7903409 -1.365234,-0.78125 z"
   sodipodi:nodetypes="cccccccccc"
   class="Black" />
	<path
   id="path4"
   class="Red"
   inkscape:transform-center-x="-4.0409334"
   inkscape:transform-center-y="-13.231895"
   d="m 30.349609,2.0390625 c -0.195282,0.00341 -0.392616,0.027095 -0.58789,0.070312 -1.659836,0.3673512 -2.648601,1.9182893 -2.28125,3.578125 0.172872,0.7810989 0.616537,1.3991729 1.234375,1.8769531 L 24.837891,19.527344 h 2.132812 L 30.667969,8.0546875 31.058594,7.9667969 C 32.71843,7.5994462 33.707195,6.0504614 33.339844,4.390625 33.018413,2.9382696 31.716589,2.0151804 30.349609,2.0390625 Z m 0.05859,1.9941406 C 30.893732,4.0125655 31.273274,4.309669 31.386719,4.8222656 31.51637,5.4080907 31.210825,5.8840192 30.625,6.0136719 30.039175,6.1433224 29.563247,5.8397309 29.433594,5.2539062 29.303944,4.6680811 29.607535,4.1921527 30.193359,4.0625 c 0.07323,-0.016206 0.145483,-0.026349 0.214844,-0.029297 z"
   sodipodi:nodetypes="ssscccccssssssss" />
</svg>
