<?xml version="1.0" encoding="UTF-8" standalone="no"?>
<svg
   xmlns:dc="http://purl.org/dc/elements/1.1/"
   xmlns:cc="http://creativecommons.org/ns#"
   xmlns:rdf="http://www.w3.org/1999/02/22-rdf-syntax-ns#"
   xmlns:svg="http://www.w3.org/2000/svg"
   xmlns="http://www.w3.org/2000/svg"
   xmlns:sodipodi="http://sodipodi.sourceforge.net/DTD/sodipodi-0.dtd"
   xmlns:inkscape="http://www.inkscape.org/namespaces/inkscape"
   version="1.1"
   id="RulerHorizontal"
   x="0px"
   y="0px"
   viewBox="0 0 32 32"
   style="enable-background:new 0 0 32 32;"
   xml:space="preserve"
   sodipodi:docname="rulers.svg"
   inkscape:version="1.0.1 (3bc2e813f5, 2020-09-07)"><metadata
   id="metadata13"><rdf:RDF><cc:Work
       rdf:about=""><dc:format>image/svg+xml</dc:format><dc:type
         rdf:resource="http://purl.org/dc/dcmitype/StillImage" /><dc:title></dc:title></cc:Work></rdf:RDF></metadata><defs
   id="defs11" /><sodipodi:namedview
   pagecolor="#ffffff"
   bordercolor="#666666"
   borderopacity="1"
   objecttolerance="10"
   gridtolerance="10"
   guidetolerance="10"
   inkscape:pageopacity="0"
   inkscape:pageshadow="2"
   inkscape:window-width="2560"
   inkscape:window-height="1017"
   id="namedview9"
   showgrid="false"
   inkscape:zoom="6.640625"
   inkscape:cx="27.562964"
   inkscape:cy="38.212328"
   inkscape:window-x="-8"
   inkscape:window-y="-8"
   inkscape:window-maximized="1"
   inkscape:current-layer="RulerHorizontal" />
<style
   type="text/css"
   id="style2">
	.Black{fill:#727272;}
	.Yellow{fill:#FFB115;}
</style>
<path
   id="path4"
   d="M 1 1.2910156 C 0.4 1.2910156 0 1.6910156 0 2.2910156 L 0 14.291016 C 0 14.791016 0.4 15.291016 1 15.291016 L 16 15.291016 L 16 30.291016 C 16 30.791016 16.4 31.291016 17 31.291016 L 29 31.291016 C 29.5 31.291016 30 30.791016 30 30.291016 L 30 14.291016 L 30 2.2910156 C 30 1.6910156 29.5 1.2910156 29 1.2910156 L 17 1.2910156 L 1 1.2910156 z "
   style="fill:#ffb115;fill-opacity:1" />
<path
   class="Black"
   d="M 4,15.291636 H 2 V 9.2916364 h 2 z m 4,-4 H 6 v 4 h 2 z m 4,-1.9999996 h -2 v 5.9999996 h 2 z m 4,1.9999996 h -2 v 4 h 2 z"
   id="path6"
   sodipodi:nodetypes="cccccccccccccccccccc" />
<path
   class="Black"
   d="m 20,27.291636 h -4 v 2 h 4 z m 2,-4 h -6 v 2 h 6 z m -2,-4 h -4 v 2 h 4 z m 2,-4 h -6 v 2 h 6 z"
   id="path6-3"
   style="fill:#727272"
   sodipodi:nodetypes="cccccccccccccccccccc" /></svg>
