<?xml version='1.0' encoding='UTF-8'?>
<svg x="0px" y="0px" viewBox="0 0 32 32" version="1.1" xmlns="http://www.w3.org/2000/svg" xmlns:xlink="http://www.w3.org/1999/xlink" xml:space="preserve" id="Select_Data_Source" style="enable-background:new 0 0 32 32">
  <style type="text/css">
	.Yellow{fill:#FFB115;}
	.Black{fill:#727272;}
</style>
  <path d="M18,18H8v-2h10V18z M18,20H8v2h10V20z M18,27v-1H4V4h18v10.5c0.6-0.2,1.3-0.3,2-0.4V3c0-0.6-0.4-1-1-1H3  C2.4,2,2,2.4,2,3v24c0,0.6,0.4,1,1,1h15.1C18,27.7,18,27.3,18,27z" class="Black" />
  <path d="M6,8v6h14V8H6z M18,12H8v-2h10V12z M30,19v8c0,1.7-2.2,3-5,3s-5-1.3-5-3v-8c0-1.7,2.2-3,5-3S30,17.3,30,19z" class="Yellow" />
</svg>