<?xml version="1.0" encoding="UTF-8" standalone="no"?>
<svg
   xmlns:dc="http://purl.org/dc/elements/1.1/"
   xmlns:cc="http://creativecommons.org/ns#"
   xmlns:rdf="http://www.w3.org/1999/02/22-rdf-syntax-ns#"
   xmlns:svg="http://www.w3.org/2000/svg"
   xmlns="http://www.w3.org/2000/svg"
   xmlns:sodipodi="http://sodipodi.sourceforge.net/DTD/sodipodi-0.dtd"
   xmlns:inkscape="http://www.inkscape.org/namespaces/inkscape"
   version="1.1"
   id="Copy"
   x="0px"
   y="0px"
   viewBox="0 0 32 32"
   style="enable-background:new 0 0 32 32;"
   xml:space="preserve"
   sodipodi:docname="sendto.svg"
   inkscape:version="1.0.1 (3bc2e813f5, 2020-09-07)"><metadata
   id="metadata11"><rdf:RDF><cc:Work
       rdf:about=""><dc:format>image/svg+xml</dc:format><dc:type
         rdf:resource="http://purl.org/dc/dcmitype/StillImage" /><dc:title></dc:title></cc:Work></rdf:RDF></metadata><defs
   id="defs9" /><sodipodi:namedview
   pagecolor="#ffffff"
   bordercolor="#666666"
   borderopacity="1"
   objecttolerance="10"
   gridtolerance="10"
   guidetolerance="10"
   inkscape:pageopacity="0"
   inkscape:pageshadow="2"
   inkscape:window-width="2560"
   inkscape:window-height="1017"
   id="namedview7"
   showgrid="false"
   inkscape:zoom="6.640625"
   inkscape:cx="-12.269272"
   inkscape:cy="4.0787658"
   inkscape:window-x="-8"
   inkscape:window-y="-8"
   inkscape:window-maximized="1"
   inkscape:current-layer="Copy" />
<style
   type="text/css"
   id="style2">
	.Black{fill:#727272;}
</style>
<path
   id="path4"
   d="M 9,0 C 8.4,0 8,0.4 8,1 V 6 H 3 C 2.4,6 2,6.4 2,7 v 22 c 0,0.6 0.4,1 1,1 h 18 c 0.6,0 1,-0.4 1,-1 v -5 h 5 c 0.6,0 1,-0.4 1,-1 V 7 L 21,0 Z m 1,2 h 4 6 v 4 1 c 0,0.6 0.4,1 1,1 h 5 v 4 10 h -4 v 0 l -2,2 v 4 H 4 V 8 h 4 2 4 v 5 c 0,0.6 0.4,1 1,1 h 5 v 3.567059 l 2,2.123047 v 0 V 13 L 15,6 h -5 z"
   sodipodi:nodetypes="sscsssssscssccsccccssccccccccccccsscccccccc"
   style="fill:#727272;fill-opacity:1" />
<style
   type="text/css"
   id="style836">
	.Red{fill:#D11C1C;}
	.Yellow{fill:#FFB115;}
	.Green{fill:#039C23;}
</style><polygon
   class="Green"
   points="8,8 4,8 10,2 16,8 12,8 12,14 8,14 "
   id="polygon838-7"
   style="fill:#039c23"
   transform="rotate(90,6.1129412,16.983529)" /><style
   type="text/css"
   id="style878">
	.Black{fill:#727272;}
</style></svg>
