<?xml version='1.0' encoding='UTF-8'?>
<svg x="0px" y="0px" viewBox="0 0 32 32" version="1.1" xmlns="http://www.w3.org/2000/svg" xmlns:xlink="http://www.w3.org/1999/xlink" xml:space="preserve" id="Layer_1" style="enable-background:new 0 0 32 32">
  <style type="text/css">
	.Black{fill:#727272;}
	.Blue{fill:#1177D7;}
	.Green{fill:#039C23;}
	.Yellow{fill:#FFB115;}
	.Red{fill:#D11C1C;}
	.White{fill:#FFFFFF;}
	.st0{opacity:0.5;}
	.st1{opacity:0.75;}
	.st2{display:none;}
	.st3{display:inline;fill:#1177D7;}
	.st4{display:inline;fill:#727272;}
</style>
  <g id="ShowGridlines">
    <path d="M2,2v26h26V2H2z M22,4h4v4h-4V4z M22,10h4v4h-4V10z M22,16h4v4h-4V16z M16,4h4v4h-4V4z M16,10h4v4h-4V10z    M16,16h4v4h-4V16z M10,4h4v4h-4V4z M10,10h4v4h-4V10z M10,16h4v4h-4V16z M4,4h4v4H4V4z M4,10h4v4H4V10z M4,16h4v4H4V16z M4,26v-4   h4v4H4z M10,26v-4h4v4H10z M16,26v-4h4v4H16z M22,26v-4h4v4H22z" class="Black" />
  </g>
</svg>