<?xml version='1.0' encoding='UTF-8'?>
<svg x="0px" y="0px" viewBox="0 0 32 32" version="1.1" xmlns="http://www.w3.org/2000/svg" xmlns:xlink="http://www.w3.org/1999/xlink" xml:space="preserve" id="Layer_1" style="enable-background:new 0 0 32 32">
  <style type="text/css">
	.Black{fill:#737374;}
	.Yellow{fill:#FCB01B;}
	.Green{fill:#129C49;}
	.Blue{fill:#387CB7;}
	.Red{fill:#D02127;}
	.White{fill:#FFFFFF;}
	.st0{opacity:0.5;}
	.st1{opacity:0.75;}
	.st2{opacity:0.25;}
	.st3{display:none;fill:#737374;}
</style>
  <path d="M23,8H11c-0.6,0-1,0.4-1,1v22c0,0.6,0.4,1,1,1h18c0.6,0,1-0.4,1-1V15L23,8z M28,30H12V10h10v5  c0,0.6,0.4,1,1,1h5V30z" class="Black" />
  <path d="M2,8h6v2H6v20h2v2H2v-2h2V10H2V8z M28,0v2H12V0h-2v2v2v2h2V4h16v2h2V0H28z" class="Blue" />
</svg>