<?xml version="1.0" encoding="UTF-8" standalone="no"?>
<svg
   xmlns:dc="http://purl.org/dc/elements/1.1/"
   xmlns:cc="http://creativecommons.org/ns#"
   xmlns:rdf="http://www.w3.org/1999/02/22-rdf-syntax-ns#"
   xmlns:svg="http://www.w3.org/2000/svg"
   xmlns="http://www.w3.org/2000/svg"
   xmlns:sodipodi="http://sodipodi.sourceforge.net/DTD/sodipodi-0.dtd"
   xmlns:inkscape="http://www.inkscape.org/namespaces/inkscape"
   version="1.1"
   id="CreateScatter_Chart_Smooth_Lines_And_Markers"
   x="0px"
   y="0px"
   viewBox="0 0 32 32"
   style="enable-background:new 0 0 32 32;"
   xml:space="preserve"
   sodipodi:docname="smoothing.svg"
   inkscape:version="1.0.1 (3bc2e813f5, 2020-09-07)"><metadata
   id="metadata13"><rdf:RDF><cc:Work
       rdf:about=""><dc:format>image/svg+xml</dc:format><dc:type
         rdf:resource="http://purl.org/dc/dcmitype/StillImage" /><dc:title></dc:title></cc:Work></rdf:RDF></metadata><defs
   id="defs11" /><sodipodi:namedview
   pagecolor="#ffffff"
   bordercolor="#666666"
   borderopacity="1"
   objecttolerance="10"
   gridtolerance="10"
   guidetolerance="10"
   inkscape:pageopacity="0"
   inkscape:pageshadow="2"
   inkscape:window-width="2560"
   inkscape:window-height="1017"
   id="namedview9"
   showgrid="false"
   inkscape:zoom="12.930137"
   inkscape:cx="12.313589"
   inkscape:cy="17.220696"
   inkscape:window-x="-8"
   inkscape:window-y="-8"
   inkscape:window-maximized="1"
   inkscape:current-layer="CreateScatter_Chart_Smooth_Lines_And_Markers" />
<style
   type="text/css"
   id="style2">
	.Blue{fill:#1177D7;}
	.Red{fill:#D11C1C;}
	.Yellow{fill:#FFB115;}
</style>
<path
   d="M 4.768669,7.7097715 C 3.7253862,8.0584275 2.5865271,7.4900966 2.2378711,6.4468138 1.889215,5.403531 2.457546,4.264672 3.5008288,3.9160159 4.5441116,3.5673599 5.6829706,4.1356908 6.0316267,5.1789736 6.3802827,6.2222564 5.8119517,7.3611154 4.768669,7.7097715 Z m 24.99346,14.8434145 c -0.348656,-1.043283 -1.487515,-1.611614 -2.530798,-1.262957 -1.043283,0.348656 -1.611614,1.487515 -1.262958,2.530797 0.348656,1.043283 1.487515,1.611614 2.530798,1.262958 1.043283,-0.348656 1.611614,-1.487515 1.262958,-2.530798 z M 15.747897,15.638615 c -0.601492,-0.853351 -0.9816,-1.67525 -1.424856,-2.370609 C 13.657913,11.90874 13.277805,11.086841 13.277805,11.086841 13.246109,10.991997 12.295962,9.0953631 10.555367,7.3574536 9.6059514,6.4095029 8.4668483,5.5249443 6.9486137,5.0833974 7.0756418,5.7790006 7.0129822,6.5379958 6.6655467,7.0758514 7.51963,7.4230427 8.3422614,7.9916178 9.006901,8.7184288 c 0.7594835,0.6951149 1.234435,1.4853182 1.645995,2.0858332 0.41156,0.600515 0.538344,0.979891 0.538344,0.979891 0,0 0.982088,2.307705 2.755111,5.089141 0.568819,-0.506403 1.042795,-0.981111 1.801546,-1.234679 z m 9.272037,8.499371 c -0.15848,-0.474219 -0.127272,-1.01183 -0.09606,-1.549442 -2.023906,-0.06168 -3.9537,-1.103745 -5.599207,-2.557123 -0.347436,0.537856 -0.916255,1.044259 -1.580162,1.266131 1.993675,1.864206 4.587864,3.316851 7.433913,3.314654 -0.0317,-0.09484 -0.09509,-0.284532 -0.15848,-0.47422 z m -6.329435,-6.319671 c -0.348657,-1.043282 -1.487516,-1.611613 -2.530798,-1.262957 -1.043283,0.348656 -1.611614,1.487515 -1.262958,2.530798 0.348656,1.043282 1.487515,1.611613 2.530798,1.262957 1.043283,-0.348656 1.611614,-1.487515 1.262958,-2.530798 z"
   id="path4"
   style="fill:#ffb115;fill-opacity:1" />
<path
   d="M17,26.3c-1-0.5-1.8-1.2-2.4-2c-1.3-1.6-2-3.6-2.6-5.5c-0.4-1.3-0.6-2.7-0.7-3.9C11.5,15,11.8,15,12,15  c0.5,0,0.9-0.1,1.3-0.3c0,0.3,0.1,0.6,0.1,0.9c0.4,2.6,1.2,5.6,2.7,7.4c0.4,0.5,0.9,0.9,1.4,1.3C17.2,24.8,17,25.4,17,26  C17,26.1,17,26.2,17,26.3z M12.8,9.1c-0.1-0.4-0.2-0.9-0.4-1.4C11.9,6,10.6,4,8,4C6.7,4,5.6,4.6,4.9,5.4C4,6.5,3.6,7.9,3.3,9.1  C3.5,9,3.8,9,4,9c0.5,0,0.9,0.1,1.3,0.3c0-0.2,0.1-0.4,0.1-0.5c0.2-0.8,0.6-1.5,1-2C6.9,6.3,7.3,6,8,6c1.4,0,2.1,1,2.6,2.3  c0.1,0.3,0.2,0.6,0.2,0.9C11.2,9.1,11.6,9,12,9C12.3,9,12.5,9.1,12.8,9.1z M28,19c-0.5,0-0.9-0.1-1.3-0.3c-0.3,1.2-0.7,2.5-1.4,3.6  c-0.7,1-1.5,1.8-2.6,2.2C22.8,25,23,25.5,23,26c0,0.2,0,0.4-0.1,0.5c2.6-0.9,4.2-3.1,5-5.1c0.3-0.9,0.6-1.7,0.7-2.4  C28.4,19,28.2,19,28,19z M4,10c-1.1,0-2,0.9-2,2s0.9,2,2,2c1.1,0,2-0.9,2-2S5.1,10,4,10z M12,10c-1.1,0-2,0.9-2,2s0.9,2,2,2  c1.1,0,2-0.9,2-2S13.1,10,12,10z M20,24c-1.1,0-2,0.9-2,2s0.9,2,2,2c1.1,0,2-0.9,2-2S21.1,24,20,24z M28,14c-1.1,0-2,0.9-2,2  s0.9,2,2,2c1.1,0,2-0.9,2-2S29.1,14,28,14z"
   id="path6"
   style="fill:#1177d7;fill-opacity:1" />
<style
   type="text/css"
   id="style2-2">
	.Black{fill:#727272;}
	.Red{fill:#D11C1C;}
	.Yellow{fill:#FFB115;}
	.Green{fill:#039C23;}
</style><style
   type="text/css"
   id="style839">
	.Blue{fill:#1177D7;}
</style></svg>
