<?xml version='1.0' encoding='UTF-8'?>
<svg x="0px" y="0px" viewBox="0 0 32 32" version="1.1" xmlns="http://www.w3.org/2000/svg" xmlns:xlink="http://www.w3.org/1999/xlink" xml:space="preserve" id="Layer_1" style="enable-background:new 0 0 32 32">
  <style type="text/css">
	.Black{fill:#737374;}
	.Yellow{fill:#FCB01B;}
	.Green{fill:#129C49;}
	.Blue{fill:#387CB7;}
	.Red{fill:#D02127;}
	.White{fill:#FFFFFF;}
	.st0{opacity:0.5;}
	.st1{opacity:0.75;}
	.st2{opacity:0.25;}
	.st3{display:none;fill:#737374;}
</style>
  <path d="M16,20v-4h4h2V2H2v20h14V20z M16,4h4v4h-4V4z M16,10h4v4h-4V10z M8,20H4v-4h4V20z M8,14H4v-4h4V14z M8,8H4V4  h4V8z M14,20h-4v-4h4V20z M14,14h-4v-4h4V14z M10,8V4h4v4H10z" class="Black" />
  <rect x="18" y="18" width="4" height="4" rx="0" ry="0" class="Red" />
  <path d="M32,24c0,3.3-2.7,6-6,6h-2v-4h0.3H26c1.1,0,2-0.9,2-2c0-1.1-0.9-2-2-2h-1.7H24v-4h2C29.3,18,32,20.7,32,24z   M22,26h-4v4h4V26z" class="Blue" />
</svg>