<?xml version="1.0" encoding="UTF-8" standalone="no"?>
<svg version="1.1" id="Layer_1" x="0px" y="0px" viewBox="0 0 32 32" style="enable-background:new 0 0 32 32;" xml:space="preserve" sodipodi:docname="soilmodel.svg" inkscape:version="1.1 (c68e22c387, 2021-05-23)" xmlns:inkscape="http://www.inkscape.org/namespaces/inkscape" xmlns:sodipodi="http://sodipodi.sourceforge.net/DTD/sodipodi-0.dtd" xmlns="http://www.w3.org/2000/svg" xmlns:svg="http://www.w3.org/2000/svg" xmlns:rdf="http://www.w3.org/1999/02/22-rdf-syntax-ns#" xmlns:cc="http://creativecommons.org/ns#" xmlns:dc="http://purl.org/dc/elements/1.1/">
	<metadata id="metadata24">
		<rdf:RDF>
			<cc:Work rdf:about="">
				<dc:format>image/svg+xml</dc:format>
				<dc:type rdf:resource="http://purl.org/dc/dcmitype/StillImage"/>
			</cc:Work>
		</rdf:RDF>
	</metadata>
	<defs id="defs22"/>
	<sodipodi:namedview pagecolor="#ffffff" bordercolor="#666666" borderopacity="1" objecttolerance="10" gridtolerance="10" guidetolerance="10" inkscape:pageopacity="0" inkscape:pageshadow="2" inkscape:window-width="2560" inkscape:window-height="1017" id="namedview20" showgrid="false" inkscape:zoom="12.588305" inkscape:cx="12.392455" inkscape:cy="12.511613" inkscape:window-x="-8" inkscape:window-y="-8" inkscape:window-maximized="1" inkscape:current-layer="SplineArea3DStacked_1_" inkscape:document-rotation="0" inkscape:pagecheckerboard="0"/>
	<style type="text/css" id="style2">
	.Red{fill:#D11C1C;}
	.Yellow{fill:#FFB115;}
	.Blue{fill:#1177D7;}
	.Green{fill:#039C23;}
	.Black{fill:#727272;}
	.White{fill:#FFFFFF;}
	.st0{opacity:0.5;}
	.st1{opacity:0.75;}
	.st2{opacity:0.35;}
	.st3{opacity:0.65;}
</style>
	<g id="soil">
		<g class="st3">
			<path d="m 2,6 v 6 c 4,0 4,8 8,8 4,0 4,-4 8,-4 4,0 4,4 8,4 V 6 Z" id="path6" class="Green"/>
		</g>
		<path id="path4" class="Yellow" d="M 2 12 L 2 20.482422 C 6 20.482422 6 24.712891 10 24.712891 C 14 24.712891 14 22.597656 18 22.597656 C 22 22.597656 22 24.712891 26 24.712891 L 26 20 C 22 20 22 16 18 16 C 14 16 14 20 10 20 C 6 20 6 12 2 12 z "/>
		<path d="m 2,20.48193 c 4,0 4,4.230253 8,4.230253 4,0 4,-2.115126 8,-2.115126 4,0 4,2.115126 8,2.115126 C 26,25.769747 26,30 26,30 H 2 c 0,0 0,-7.402943 0,-9.51807 z" class="Black" id="path1519"/>
		<g class="st0" id="g1509">
			<polygon points="2,6 26,6 30,2 6,2 " id="polygon10" class="Green"/>
		</g>
		<g class="st1" id="g1512">
			<path id="polygon14" class="Yellow" d="M 30 16 L 26 20 L 26 24.712891 L 30 20.710938 L 30 16 z "/>
		</g>
		<g class="st1" id="g2046">
			<path d="m 26,30.000708 v -5.287817 l 4,-4.00063 v 5.288447 z" class="Black" id="path1517" />
		</g>
		<g class="st1" id="g1515">
			<polygon points="30,2 30,16 26,20 26,6 " id="polygon16" class="Green"/>
		</g>
		<g id="g1521">
		
		</g>
	</g>
</svg>
