<?xml version="1.0" encoding="UTF-8" standalone="no"?>
<svg
   xmlns:dc="http://purl.org/dc/elements/1.1/"
   xmlns:cc="http://creativecommons.org/ns#"
   xmlns:rdf="http://www.w3.org/1999/02/22-rdf-syntax-ns#"
   xmlns:svg="http://www.w3.org/2000/svg"
   xmlns="http://www.w3.org/2000/svg"
   xmlns:sodipodi="http://sodipodi.sourceforge.net/DTD/sodipodi-0.dtd"
   xmlns:inkscape="http://www.inkscape.org/namespaces/inkscape"
   version="1.1"
   id="Layer_1"
   x="0px"
   y="0px"
   viewBox="0 0 32 32"
   style="enable-background:new 0 0 32 32;"
   xml:space="preserve"
   sodipodi:docname="soilmodeldata.svg"
   inkscape:version="1.0.1 (3bc2e813f5, 2020-09-07)"><metadata
   id="metadata24"><rdf:RDF><cc:Work
       rdf:about=""><dc:format>image/svg+xml</dc:format><dc:type
         rdf:resource="http://purl.org/dc/dcmitype/StillImage" /><dc:title /></cc:Work></rdf:RDF></metadata><defs
   id="defs22" /><sodipodi:namedview
   pagecolor="#ffffff"
   bordercolor="#666666"
   borderopacity="1"
   objecttolerance="10"
   gridtolerance="10"
   guidetolerance="10"
   inkscape:pageopacity="0"
   inkscape:pageshadow="2"
   inkscape:window-width="2560"
   inkscape:window-height="1017"
   id="namedview20"
   showgrid="false"
   inkscape:zoom="6.2941527"
   inkscape:cx="-10.718292"
   inkscape:cy="13.402216"
   inkscape:window-x="-8"
   inkscape:window-y="-8"
   inkscape:window-maximized="1"
   inkscape:current-layer="Layer_1"
   inkscape:document-rotation="0" />
<style
   type="text/css"
   id="style2">
	.Red{fill:#D11C1C;}
	.Yellow{fill:#FFB115;}
	.Blue{fill:#1177D7;}
	.Green{fill:#039C23;}
	.Black{fill:#727272;}
	.White{fill:#FFFFFF;}
	.st0{opacity:0.5;}
	.st1{opacity:0.75;}
	.st2{opacity:0.35;}
	.st3{opacity:0.65;}
</style>
<g
   id="SplineArea3DStacked_1_">
	<g
   class="st1"
   id="g8">
		<path
   d="m 2,12 c 4,0 4,8 8,8 4,0 4,-4 8,-4 4,0 4,4 8,4 0,2 0,10 0,10 H 2 C 2,30 2,16 2,12 Z"
   id="path4"
   style="fill:#4d4d4d" />
		<path
   d="m 2,6 v 6 c 4,0 4,8 8,8 4,0 4,-4 8,-4 4,0 4,4 8,4 V 6 Z"
   id="path6"
   style="fill:#808080" />
	</g>
	<g
   class="st0"
   id="g12">
		<polygon
   points="26,6 30,2 6,2 2,6 "
   id="polygon10"
   style="fill:#b3b3b3" />
	</g>
	<polygon
   points="30,26 26,30 26,20 30,16 "
   id="polygon14"
   style="fill:#666666" />
	<polygon
   points="30,2 30,16 26,20 26,6 "
   id="polygon16"
   style="fill:#808080" />
</g>
<style
   type="text/css"
   id="style2-0">
	.Red{fill:#D11C1C;}
	.Yellow{fill:#FFB115;}
	.Blue{fill:#1177D7;}
	.Green{fill:#039C23;}
	.Black{fill:#727272;}
	.White{fill:#FFFFFF;}
	.st0{opacity:0.5;}
	.st1{opacity:0.75;}
	.st2{opacity:0.35;}
	.st3{opacity:0.65;}
</style><path
   d="m 2,20.48193 c 4,0 4,4.230253 8,4.230253 4,0 4,-2.115126 8,-2.115126 4,0 4,2.115126 8,2.115126 C 26,25.769747 26,30 26,30 H 2 c 0,0 0,-7.402943 0,-9.51807 z"
   id="path4-9-5"
   style="fill:#1a1a1a;stroke-width:0.727174" /><path
   id="polygon14-7-8"
   style="fill:#1a1a1a;stroke-width:0.727174"
   d="m 26,30 v -5.287817 l 4,-4.00063 V 26 Z"
   sodipodi:nodetypes="ccccc" /></svg>
