<?xml version="1.0" encoding="UTF-8" standalone="no"?>
<svg
   xmlns:dc="http://purl.org/dc/elements/1.1/"
   xmlns:cc="http://creativecommons.org/ns#"
   xmlns:rdf="http://www.w3.org/1999/02/22-rdf-syntax-ns#"
   xmlns:svg="http://www.w3.org/2000/svg"
   xmlns="http://www.w3.org/2000/svg"
   xmlns:sodipodi="http://sodipodi.sourceforge.net/DTD/sodipodi-0.dtd"
   xmlns:inkscape="http://www.inkscape.org/namespaces/inkscape"
   version="1.1"
   id="Create_Stacked_Line_Chart"
   x="0px"
   y="0px"
   viewBox="0 0 32 32"
   style="enable-background:new 0 0 32 32;"
   xml:space="preserve"
   sodipodi:docname="splay.svg"
   inkscape:version="1.0.1 (3bc2e813f5, 2020-09-07)"><metadata
   id="metadata15"><rdf:RDF><cc:Work
       rdf:about=""><dc:format>image/svg+xml</dc:format><dc:type
         rdf:resource="http://purl.org/dc/dcmitype/StillImage" /><dc:title></dc:title></cc:Work></rdf:RDF></metadata><defs
   id="defs13" /><sodipodi:namedview
   pagecolor="#ffffff"
   bordercolor="#666666"
   borderopacity="1"
   objecttolerance="10"
   gridtolerance="10"
   guidetolerance="10"
   inkscape:pageopacity="0"
   inkscape:pageshadow="2"
   inkscape:window-width="2560"
   inkscape:window-height="1017"
   id="namedview11"
   showgrid="false"
   inkscape:zoom="18.782524"
   inkscape:cx="15.396892"
   inkscape:cy="14.776919"
   inkscape:window-x="-8"
   inkscape:window-y="-8"
   inkscape:window-maximized="1"
   inkscape:current-layer="Create_Stacked_Line_Chart" />
<style
   type="text/css"
   id="style2">
	.Blue{fill:#1177D7;}
	.Yellow{fill:#FFB115;}
	.Red{fill:#D11C1C;}
</style>



<rect
   style="fill:#888888;stroke:#100f00;stroke-width:0;stroke-miterlimit:4;stroke-dasharray:none"
   id="rect840"
   width="2"
   height="18"
   x="23.052485"
   y="-14.832167"
   transform="rotate(40)" /><rect
   style="fill:#888888;stroke:#100f00;stroke-width:0;stroke-miterlimit:4;stroke-dasharray:none"
   id="rect840-2"
   width="2"
   height="7.9858828"
   x="10.39115"
   y="11.709588"
   transform="rotate(-10)" /><rect
   style="fill:#888888;stroke:#100f00;stroke-width:0;stroke-miterlimit:4;stroke-dasharray:none"
   id="rect840-5"
   width="2"
   height="11.976471"
   x="7.9428129"
   y="-36.277653"
   transform="rotate(120)" /><rect
   style="fill:#888888;stroke:#100f00;stroke-width:0;stroke-miterlimit:4;stroke-dasharray:none"
   id="rect840-1"
   width="2"
   height="12.127059"
   x="-25.361736"
   y="-14.514134"
   transform="rotate(-130)" /><circle
   style="fill:#888888;stroke:#100f00;stroke-width:0;stroke-miterlimit:4;stroke-dasharray:none"
   id="path840"
   cx="28.009411"
   cy="4.1411762"
   r="1.5402998" /><circle
   style="fill:#888888;stroke:#100f00;stroke-width:0;stroke-miterlimit:4;stroke-dasharray:none"
   id="path840-5"
   cx="13.083691"
   cy="8.7341166"
   r="1.5402998" /><circle
   style="fill:#888888;stroke:#100f00;stroke-width:0;stroke-miterlimit:4;stroke-dasharray:none"
   id="path840-5-5"
   cx="27.046419"
   cy="25.928358"
   r="1.5402998" /><circle
   style="fill:#888888;stroke:#100f00;stroke-width:0;stroke-miterlimit:4;stroke-dasharray:none"
   id="path840-5-5-4"
   cx="4.0463147"
   cy="28.350822"
   r="1.5402998" /><path
   class="Red"
   d="m 29,8 c -1.7,0 -3,1.3 -3,3 0,0.2 0,0.4 0.1,0.5 L 17,16.7 C 16.4,16.3 15.7,16 15,16 c -0.8,0 -1.5,0.3 -2.1,0.8 L 6,13.4 C 6,13.3 6,13.1 6,13 6,11.3 4.7,10 3,10 c -1.7,0 -3,1.4 -3,3 0,1.7 1.3,3 3,3 0.8,0 1.5,-0.3 2.1,-0.8 l 7,3.5 c 0,0.1 0,0.2 0,0.4 0,1.7 1.3,3 3,3 1.7,0 3,-1.3 3,-3 0,-0.2 0,-0.4 -0.1,-0.5 l 9.1,-5.2 c 0.5,0.3 1.2,0.6 1.9,0.6 1.7,0 3,-1.3 3,-3 C 32,9.4 30.7,8 29,8 Z M 3,14 c -0.6,0 -1,-0.4 -1,-1 0,-0.6 0.4,-1 1,-1 0.6,0 1,0.4 1,1 0,0.6 -0.4,1 -1,1 z m 12,6 c -0.6,0 -1,-0.4 -1,-1 0,-0.6 0.4,-1 1,-1 0.6,0 1,0.4 1,1 0,0.6 -0.4,1 -1,1 z m 14,-8 c -0.6,0 -1,-0.4 -1,-1 0,-0.6 0.4,-1 1,-1 0.6,0 1,0.4 1,1 0,0.6 -0.4,1 -1,1 z"
   id="path4" /></svg>
