<?xml version="1.0" encoding="UTF-8" standalone="no"?>
<svg
   xmlns:dc="http://purl.org/dc/elements/1.1/"
   xmlns:cc="http://creativecommons.org/ns#"
   xmlns:rdf="http://www.w3.org/1999/02/22-rdf-syntax-ns#"
   xmlns:svg="http://www.w3.org/2000/svg"
   xmlns="http://www.w3.org/2000/svg"
   xmlns:sodipodi="http://sodipodi.sourceforge.net/DTD/sodipodi-0.dtd"
   xmlns:inkscape="http://www.inkscape.org/namespaces/inkscape"
   version="1.1"
   id="Layer_1"
   x="0px"
   y="0px"
   viewBox="0 0 32 32"
   style="enable-background:new 0 0 32 32;"
   xml:space="preserve"
   sodipodi:docname="textfromclipboard.svg"
   inkscape:version="1.0.2 (e86c870879, 2021-01-15, custom)"><metadata
   id="metadata12"><rdf:RDF><cc:Work
       rdf:about=""><dc:format>image/svg+xml</dc:format><dc:type
         rdf:resource="http://purl.org/dc/dcmitype/StillImage" /><dc:title></dc:title></cc:Work></rdf:RDF></metadata><defs
   id="defs10">
	
</defs><sodipodi:namedview
   pagecolor="#ffffff"
   bordercolor="#666666"
   borderopacity="1"
   objecttolerance="10"
   gridtolerance="10"
   guidetolerance="10"
   inkscape:pageopacity="0"
   inkscape:pageshadow="2"
   inkscape:window-width="2560"
   inkscape:window-height="1017"
   id="namedview8"
   showgrid="false"
   inkscape:zoom="18.285974"
   inkscape:cx="10.340865"
   inkscape:cy="21.064177"
   inkscape:window-x="-8"
   inkscape:window-y="-8"
   inkscape:window-maximized="1"
   inkscape:current-layer="Layer_1" />
<style
   type="text/css"
   id="style2">
	.Yellow{fill:#FFB115;}
	.Red{fill:#D11C1C;}
	.Black{fill:#727272;}
	.Blue{fill:#1177D7;}
	.White{fill:#FFFFFF;}
	.Green{fill:#039C23;}
	.st0{opacity:0.75;}
	.st1{opacity:0.5;}
	.st2{opacity:0.25;}
	.st3{fill:#FFB115;}
</style>
<path
   id="path4"
   style="color:#000000;font-style:normal;font-variant:normal;font-weight:normal;font-stretch:normal;font-size:medium;line-height:normal;font-family:sans-serif;font-variant-ligatures:normal;font-variant-position:normal;font-variant-caps:normal;font-variant-numeric:normal;font-variant-alternates:normal;font-variant-east-asian:normal;font-feature-settings:normal;font-variation-settings:normal;text-indent:0;text-align:start;text-decoration:none;text-decoration-line:none;text-decoration-style:solid;text-decoration-color:#000000;letter-spacing:normal;word-spacing:normal;text-transform:none;writing-mode:lr-tb;direction:ltr;text-orientation:mixed;dominant-baseline:auto;baseline-shift:baseline;text-anchor:start;white-space:normal;shape-padding:0;shape-margin:0;inline-size:0;clip-rule:nonzero;display:inline;overflow:visible;visibility:visible;opacity:1;isolation:auto;mix-blend-mode:normal;color-interpolation:sRGB;color-interpolation-filters:linearRGB;solid-color:#000000;solid-opacity:1;vector-effect:none;fill:#727272;fill-opacity:1;fill-rule:nonzero;stroke:none;stroke-width:1;stroke-linecap:butt;stroke-linejoin:miter;stroke-miterlimit:4;stroke-dasharray:none;stroke-dashoffset:0;stroke-opacity:1;color-rendering:auto;image-rendering:auto;shape-rendering:auto;text-rendering:auto;enable-background:accumulate;stop-color:#000000;stop-opacity:1"
   d="m 1.0324061,0.85382454 c -0.50000006,0 -1.00000006,0.50000006 -1.00000006,1.00000006 V 19.853817 c 0,0.5 0.5,1 1.00000006,1 H 14.245295 l -0.820312,-2 H 2.0324061 V 2.8538246 H 30.157405 V 18.853817 h -3.251954 l -0.765624,2 h 5.017578 c 0.5,0 1,-0.5 1,-1 V 1.8538246 c 0,-0.5 -0.5,-1.00000006 -1,-1.00000006 z M 10.003108,5.8245276 6.7042811,15.82452 h 2.199218 l 0.59961,-2.300781 H 11.128108 12.57245 L 11.961122,11.82452 h -0.778327 -1.179687 l 1,-3.3007734 0.09961,-0.898438 h 0.101563 l 0.09961,0.898438 0.341219,0.9961261 2.725384,2.7417413 L 12.4035,5.8245276 Z m 6.599609,0 v 8.9863254 l 1.041009,1.013667 h 2.958991 c 1.2,0 2.200391,-0.200782 2.900391,-0.800781 0.8,-0.600001 1.099609,-1.199219 1.099609,-2.199219 0,-0.6 -0.199219,-1.09961 -0.699219,-1.59961 -0.5,-0.4 -1.100781,-0.700781 -1.800781,-0.800781 0.6,-0.2 1.1,-0.5003894 1.5,-0.9003873 0.4,-0.3999976 0.601563,-0.8984331 0.601563,-1.3984331 0,-0.7 -0.300391,-1.301172 -0.900391,-1.701172 -0.6,-0.4 -1.500781,-0.599609 -2.800781,-0.599609 z m 2.400391,1.699219 h 0.90039 c 1.1,0 1.699219,0.401562 1.699219,1.101562 0,0.3999978 -0.09844,0.6984333 -0.398437,0.8984331 -0.2,0.1999981 -0.601563,0.3007795 -1.101563,0.3007795 h -1.099609 z m 0,3.9003824 h 1.300781 c 0.5,0 0.898828,0.100781 1.298828,0.300781 0.3,0.2 0.5,0.600391 0.5,0.900391 0,0.5 -0.1,0.8 -0.5,1 -0.3,0.2 -0.798828,0.398437 -1.298828,0.398438 h -1.300781 z"
   sodipodi:nodetypes="ssssccccccccsssssccccccccccccccccccccscsccssssccsscscccscscscc" />
<style
   type="text/css"
   id="style837">
	.Green{fill:#039C23;}
	.Black{fill:#727272;}
	.Red{fill:#D11C1C;}
	.Yellow{fill:#FFB115;}
	.Blue{fill:#1177D7;}
	.White{fill:#FFFFFF;}
	.st0{opacity:0.5;}
	.st1{opacity:0.75;}
</style><g
   id="Clip"
   transform="translate(-55.895744,20.510027)">
	
	
</g><path
   class="Black"
   d="m 28.355833,11.276624 -3.9,9.3 -2.7,-2.7 z m -10,16 c 0,2.2 -1.8,4 -4,4 -2.2,0 -4,-1.8 -4,-4 0,-2.2 1.8,-4 4,-4 2.2,0 4,1.8 4,4 z m -2,0 c 0,-1.1 -0.9,-2 -2,-2 -1.1,0 -2,0.9 -2,2 0,1.1 0.9,2 2,2 1.1,0 2,-0.9 2,-2 z m 14,0 c 0,2.2 -1.8,4 -4,4 -2.2,0 -4,-1.8 -4,-4 0,-0.6 0.1,-1.1 0.4,-1.6 l -2.4,-2.4 h -3 l -5,-12 12.4,12.4 c 0.5,-0.2 1.1,-0.4 1.6,-0.4 2.2,0 4,1.8 4,4 z m -2,0 c 0,-1.1 -0.9,-2 -2,-2 -1.1,0 -2,0.9 -2,2 0,1.1 0.9,2 2,2 1.1,0 2,-0.9 2,-2 z"
   id="path841"
   style="fill:#727272" /></svg>
