<?xml version="1.0" encoding="UTF-8" standalone="no"?>
<svg
   version="1.1"
   id="Layer_1"
   x="0px"
   y="0px"
   viewBox="0 0 32 32"
   style="enable-background:new 0 0 32 32;"
   xml:space="preserve"
   sodipodi:docname="user.svg"
   inkscape:version="1.3 (0e150ed6c4, 2023-07-21)"
   xmlns:inkscape="http://www.inkscape.org/namespaces/inkscape"
   xmlns:sodipodi="http://sodipodi.sourceforge.net/DTD/sodipodi-0.dtd"
   xmlns="http://www.w3.org/2000/svg"
   xmlns:svg="http://www.w3.org/2000/svg"><defs
   id="defs2" /><sodipodi:namedview
   id="namedview2"
   pagecolor="#505050"
   bordercolor="#eeeeee"
   borderopacity="1"
   inkscape:showpageshadow="0"
   inkscape:pageopacity="0"
   inkscape:pagecheckerboard="0"
   inkscape:deskcolor="#d1d1d1"
   inkscape:zoom="12.703125"
   inkscape:cx="22.04182"
   inkscape:cy="13.264453"
   inkscape:window-width="2560"
   inkscape:window-height="1009"
   inkscape:window-x="-8"
   inkscape:window-y="-8"
   inkscape:window-maximized="1"
   inkscape:current-layer="User" />&#10;<style
   type="text/css"
   id="style1">&#10;	.Blue{fill:#1177D7;}&#10;	.Yellow{fill:#FFB115;}&#10;	.Black{fill:#727272;}&#10;	.Green{fill:#039C23;}&#10;	.Red{fill:#D11C1C;}&#10;	.st0{opacity:0.75;}&#10;	.st1{opacity:0.5;}&#10;</style>&#10;<g
   id="User">&#10;	<path
   class="Black"
   d="M10,9.9c-0.1,0.5,0.2,0.9,0.4,1.4c0.2,0.5-0.1,1.7,0.9,1.6c0,0,0,0.1,0,0.2c0.6,2.3,2,4.9,4.7,4.9   c2.7,0,4.2-2.6,4.7-4.9c0,0,0-0.1,0-0.1c1,0.1,0.6-1.1,0.9-1.6c0.2-0.5,0.4-0.9,0.3-1.4c-0.1-0.4-0.4-0.4-0.5-0.3   c1.8-4.9-1.1-4.7-1.1-4.7S20,2,14.8,2C10,2,9.4,6,10.5,9.6C10.4,9.6,10.1,9.7,10,9.9z"
   id="path1" />&#10;	<path
   id="path2"
   class="Black"
   d="m 12,18 c -0.461541,0.702345 -1.060824,1.161351 -1.722656,1.509766 1.240455,1.959994 3.10882,4.609375 5.730468,4.609375 2.628522,0 4.499863,-2.663563 5.740235,-4.625 C 21.076097,19.144732 20.467457,18.691024 20,18 c -0.799999,1.499999 -2.100002,4 -4,4 -1.899998,0 -3.200001,-2.500001 -4,-4 z"
   sodipodi:nodetypes="ccsccsc" /><path
   id="path2-5"
   class="Black"
   d="M 8.6962814,20.446794 C 6.3696006,21.270934 3.940422,21.90599 3.9404221,26.802263 v 3.5 H 27.940422 v -3.5 c 0,-4.708552 -2.306927,-5.489163 -4.578125,-6.310547 -1.511549,2.036077 -4.157318,5.240998 -7.53125,5.248047 -3.233256,0.0068 -5.583687,-3.210025 -7.1347656,-5.292969 z"
   sodipodi:nodetypes="csccscsc" />&#10;</g>&#10;</svg>
