<?xml version="1.0" encoding="UTF-8" standalone="no"?>
<svg
   xmlns:dc="http://purl.org/dc/elements/1.1/"
   xmlns:cc="http://creativecommons.org/ns#"
   xmlns:rdf="http://www.w3.org/1999/02/22-rdf-syntax-ns#"
   xmlns:svg="http://www.w3.org/2000/svg"
   xmlns="http://www.w3.org/2000/svg"
   xmlns:xlink="http://www.w3.org/1999/xlink"
   xmlns:sodipodi="http://sodipodi.sourceforge.net/DTD/sodipodi-0.dtd"
   xmlns:inkscape="http://www.inkscape.org/namespaces/inkscape"
   version="1.1"
   id="Select"
   x="0px"
   y="0px"
   viewBox="0 0 32 32"
   style="enable-background:new 0 0 32 32;"
   xml:space="preserve"
   sodipodi:docname="viewselected.svg"
   inkscape:version="1.0.1 (3bc2e813f5, 2020-09-07)"><metadata
   id="metadata15"><rdf:RDF><cc:Work
       rdf:about=""><dc:format>image/svg+xml</dc:format><dc:type
         rdf:resource="http://purl.org/dc/dcmitype/StillImage" /><dc:title></dc:title></cc:Work></rdf:RDF></metadata><defs
   id="defs13"><linearGradient
     inkscape:collect="always"
     id="linearGradient873"><stop
       style="stop-color:#727272;stop-opacity:1;"
       offset="0"
       id="stop869" /><stop
       style="stop-color:#727272;stop-opacity:0;"
       offset="1"
       id="stop871" /></linearGradient><linearGradient
     inkscape:collect="always"
     xlink:href="#linearGradient873"
     id="linearGradient875"
     x1="6"
     y1="14"
     x2="24"
     y2="14"
     gradientUnits="userSpaceOnUse" /></defs><sodipodi:namedview
   pagecolor="#ffffff"
   bordercolor="#666666"
   borderopacity="1"
   objecttolerance="10"
   gridtolerance="10"
   guidetolerance="10"
   inkscape:pageopacity="0"
   inkscape:pageshadow="2"
   inkscape:window-width="2560"
   inkscape:window-height="1017"
   id="namedview11"
   showgrid="false"
   showguides="true"
   inkscape:guide-bbox="true"
   inkscape:zoom="26.5625"
   inkscape:cx="16"
   inkscape:cy="16"
   inkscape:window-x="-8"
   inkscape:window-y="-8"
   inkscape:window-maximized="1"
   inkscape:current-layer="Select"><sodipodi:guide
     position="24,20"
     orientation="1,0"
     id="guide867" /><sodipodi:guide
     position="6,26"
     orientation="1,0"
     id="guide892" /><sodipodi:guide
     position="12,14"
     orientation="0,-1"
     id="guide894" /></sodipodi:namedview>
<style
   type="text/css"
   id="style2">
	.Black{fill:#727272;}
	.Blue{fill:#1177D7;}
	.st0{opacity:0.5;}
</style>
<rect
   x="6"
   y="12"
   class="Blue"
   width="18"
   height="4"
   id="rect8"
   style="fill:#1177d7;stroke-width:0.654654" /><g
   class="st0"
   id="g6"
   style="fill:#727272;fill-opacity:0.501961"
   transform="matrix(4.5,0,0,1,-21,0)">
	<path
   d="M 10,10 H 6 V 6 h 4 z"
   id="path4"
   style="fill:#333333;fill-opacity:0.8" />
</g>
<path
   class="Black"
   d="M16,28h-1.8H12H3c-0.6,0-1-0.4-1-1V3c0-0.6,0.4-1,1-1h24c0.6,0,1,0.4,1,1v9v2.2v6.9l-2-2v-5V12V4H4v22h8h2.1  H16V28z M24.2,26H30L18,14v16.5l4-4l2,5c0.2,0.4,0.6,0.6,1,0.4l0.7-0.3c0.4-0.2,0.6-0.6,0.4-1L24.2,26z"
   id="path8" />
<path
   d="M 24,18 H 6.0141176 v 4 H 24 Z"
   id="path848-5"
   style="fill:#727272;fill-opacity:0.501961;stroke-width:1.22426" /></svg>
