<?xml version="1.0" encoding="UTF-8" standalone="no"?>
<svg
   version="1.1"
   id="Layer_1"
   x="0px"
   y="0px"
   viewBox="0 0 32 32"
   style="enable-background:new 0 0 32 32;"
   xml:space="preserve"
   sodipodi:docname="warping.svg"
   inkscape:version="1.1 (c68e22c387, 2021-05-23)"
   xmlns:inkscape="http://www.inkscape.org/namespaces/inkscape"
   xmlns:sodipodi="http://sodipodi.sourceforge.net/DTD/sodipodi-0.dtd"
   xmlns="http://www.w3.org/2000/svg"
   xmlns:svg="http://www.w3.org/2000/svg"
   xmlns:rdf="http://www.w3.org/1999/02/22-rdf-syntax-ns#"
   xmlns:cc="http://creativecommons.org/ns#"
   xmlns:dc="http://purl.org/dc/elements/1.1/"><metadata
   id="metadata16"><rdf:RDF><cc:Work
       rdf:about=""><dc:format>image/svg+xml</dc:format><dc:type
         rdf:resource="http://purl.org/dc/dcmitype/StillImage" /></cc:Work></rdf:RDF></metadata><defs
   id="defs14" /><sodipodi:namedview
   pagecolor="#ffffff"
   bordercolor="#666666"
   borderopacity="1"
   objecttolerance="10"
   gridtolerance="10"
   guidetolerance="10"
   inkscape:pageopacity="0"
   inkscape:pageshadow="2"
   inkscape:window-width="2560"
   inkscape:window-height="1017"
   id="namedview12"
   showgrid="false"
   inkscape:zoom="9.1429872"
   inkscape:cx="20.507521"
   inkscape:cy="25.101205"
   inkscape:window-x="-8"
   inkscape:window-y="-8"
   inkscape:window-maximized="1"
   inkscape:current-layer="Layer_1"
   inkscape:pagecheckerboard="0" />
<style
   type="text/css"
   id="style2">
	.Yellow{fill:#FFB115;}
	.Red{fill:#D11C1C;}
	.Black{fill:#727272;}
	.Blue{fill:#1177D7;}
	.White{fill:#FFFFFF;}
	.Green{fill:#039C23;}
	.st0{opacity:0.75;}
	.st1{opacity:0.5;}
	.st2{opacity:0.25;}
	.st3{fill:#FFB115;}
</style>
<g
   id="g4">
</g>
<g
   id="EditFilter">
	
	<path
   class="Blue"
   d="M 27,19 17,29 13,25 23,15 Z m 1,-1 1.7,-1.7 c 0.4,-0.4 0.4,-1 0,-1.3 L 27,12.3 c -0.4,-0.4 -1,-0.4 -1.3,0 L 24,14 Z m -16,8 v 4 h 4 z"
   id="path8" />
</g>
<path
   class="Blue"
   d="m 20.451531,1.4685879 c -1.7,0 -3,1.3 -3,3 0,0.5 0.1,0.9 0.3,1.3 l -4,4 c -0.4,-0.2 -0.8,-0.3 -1.3,-0.3 -0.9,0 -1.6,0.4 -2.2,0.9000001 L 7.4515314,8.6685879 c 0,-0.1 0,-0.1 0,-0.2 0,-1.7 -1.3,-3 -3,-3 -1.7,0 -3,1.3 -3,3 0,1.7000001 1.3,3.0000001 3,3.0000001 0.9,0 1.6,-0.4 2.2,-0.9 l 2.9,1.7 c 0,0.1 0,0.1 0,0.2 0,1.7 1.2999996,3 2.9999996,3 1.7,0 3,-1.3 3,-3 0,-0.5 -0.1,-0.9 -0.3,-1.3 l 4,-4.0000001 c 0.3,0.2 0.7,0.3 1.2,0.3 1.7,0 3,-1.3 3,-3 0,-1.7 -1.3,-3 -3,-3 z m -15.9999996,8 c -0.6,0 -1,-0.4 -1,-1 0,-0.6 0.4,-1 1,-1 0.6,0 1,0.4 1,1 0,0.6 -0.4,1 -1,1 z m 7.9999996,4.0000001 c -0.6,0 -1,-0.4 -1,-1 0,-0.6 0.4,-1 1,-1 0.6,0 1,0.4 1,1 0,0.6 -0.4,1 -1,1 z m 8,-8.0000001 c -0.6,0 -1,-0.4 -1,-1 0,-0.6 0.4,-1 1,-1 0.6,0 1,0.4 1,1 0,0.6 -0.4,1 -1,1 z"
   id="path6"
   style="fill:#1177d7" /><path
   id="path6-0"
   style="fill:#ff0000"
   d="M 3.9121094 9.9785156 C 2.7416074 9.9518468 1.6503489 10.619289 1.1386719 11.787109 C 0.45643588 13.344207 1.1264958 15.057998 2.6835938 15.740234 C 3.5079396 16.101418 4.3083721 16.016007 5.0585938 15.798828 L 7.0332031 18.519531 C 6.9930711 18.611121 6.993256 18.611527 6.953125 18.703125 C 6.2708889 20.260223 6.9389959 21.972061 8.4960938 22.654297 C 10.053191 23.336533 11.766983 22.666469 12.449219 21.109375 C 12.649877 20.651405 12.717975 20.245467 12.695312 19.798828 L 17.964844 17.740234 C 17.975185 17.756373 17.994774 17.769308 18.005859 17.785156 L 19.378906 16.402344 C 19.124327 16.128218 19.056209 15.745378 19.230469 15.347656 C 19.471258 14.798092 19.999264 14.593194 20.548828 14.833984 C 20.64186 14.874746 20.71037 14.9324 20.783203 14.988281 L 22.199219 13.564453 C 21.955017 13.341616 21.678198 13.145068 21.351562 13.001953 C 19.794465 12.319717 18.080674 12.987828 17.398438 14.544922 C 17.197781 15.002892 17.129683 15.408829 17.152344 15.855469 L 11.882812 17.914062 C 11.596699 17.570348 11.27047 17.319798 10.8125 17.119141 C 9.9881544 16.757957 9.187721 16.843368 8.4375 17.060547 L 6.5546875 14.378906 C 6.5948195 14.287316 6.5946346 14.28691 6.6347656 14.195312 C 7.3170017 12.638215 6.6469415 10.926377 5.0898438 10.244141 C 4.7005693 10.073582 4.3022767 9.9874052 3.9121094 9.9785156 z M 3.8847656 11.978516 C 4.0152075 11.984491 4.1497184 12.015974 4.2871094 12.076172 C 4.8366734 12.316961 5.0435236 12.843014 4.8027344 13.392578 C 4.5619452 13.942142 4.033939 14.148993 3.484375 13.908203 C 2.934811 13.667414 2.7299139 13.139408 2.9707031 12.589844 C 3.151295 12.177671 3.4934401 11.960588 3.8847656 11.978516 z M 9.6054688 18.851562 C 9.7359105 18.857538 9.8723747 18.890975 10.009766 18.951172 C 10.55933 19.191961 10.76618 19.718014 10.525391 20.267578 C 10.284601 20.817142 9.7565952 21.022039 9.2070312 20.78125 C 8.6574672 20.54046 8.4525694 20.014408 8.6933594 19.464844 C 8.8739511 19.052671 9.2141434 18.833635 9.6054688 18.851562 z "
   class="Red" /></svg>
