<?xml version="1.0" encoding="UTF-8" standalone="no"?>
<svg
   xmlns:dc="http://purl.org/dc/elements/1.1/"
   xmlns:cc="http://creativecommons.org/ns#"
   xmlns:rdf="http://www.w3.org/1999/02/22-rdf-syntax-ns#"
   xmlns:svg="http://www.w3.org/2000/svg"
   xmlns="http://www.w3.org/2000/svg"
   xmlns:sodipodi="http://sodipodi.sourceforge.net/DTD/sodipodi-0.dtd"
   xmlns:inkscape="http://www.inkscape.org/namespaces/inkscape"
   version="1.1"
   id="Zoom"
   x="0px"
   y="0px"
   viewBox="0 0 32 32"
   style="enable-background:new 0 0 32 32;"
   xml:space="preserve"
   sodipodi:docname="zoomselection.svg"
   inkscape:version="1.0.1 (3bc2e813f5, 2020-09-07)"><metadata
   id="metadata11"><rdf:RDF><cc:Work
       rdf:about=""><dc:format>image/svg+xml</dc:format><dc:type
         rdf:resource="http://purl.org/dc/dcmitype/StillImage" /><dc:title></dc:title></cc:Work></rdf:RDF></metadata><defs
   id="defs9" /><sodipodi:namedview
   pagecolor="#ffffff"
   bordercolor="#666666"
   borderopacity="1"
   objecttolerance="10"
   gridtolerance="10"
   guidetolerance="10"
   inkscape:pageopacity="0"
   inkscape:pageshadow="2"
   inkscape:window-width="2560"
   inkscape:window-height="1017"
   id="namedview7"
   showgrid="false"
   showguides="true"
   inkscape:guide-bbox="true"
   inkscape:zoom="26.5625"
   inkscape:cx="16"
   inkscape:cy="16"
   inkscape:window-x="-8"
   inkscape:window-y="-8"
   inkscape:window-maximized="1"
   inkscape:current-layer="Zoom"><sodipodi:guide
     position="20.68,24.317647"
     orientation="1,0"
     id="guide848" /><sodipodi:guide
     position="6.6141176,16.251765"
     orientation="0,-1"
     id="guide850" /></sodipodi:namedview>
<style
   type="text/css"
   id="style2">
	.Black{fill:#727272;}
</style>
<path
   class="Black"
   d="M29.7,27.3l-7.9-7.9c1.3-1.8,2.1-4,2.1-6.5c0-6.1-4.9-11-11-11C6.9,2,2,6.9,2,13s4.9,11,11,11  c2.4,0,4.6-0.8,6.5-2.1l7.9,7.9c0.3,0.3,0.9,0.3,1.2,0l1.2-1.2C30.1,28.2,30.1,27.6,29.7,27.3z M4,13c0-5,4-9,9-9c5,0,9,4,9,9  s-4,9-9,9C8,22,4,18,4,13z"
   id="path4" />
<path
   d="m 17.107943,17.183236 h -3.304115 v 1.652058 H 18.76 v -0.826029 -0.826029 -3.304114 h -1.652057 z"
   id="path860"
   style="stroke-width:0.826029;fill:#999999" /><path
   d="M 8.7932339,13.879122 H 7.1411764 v 4.956172 H 8.7932339 12.09735 V 17.183236 H 8.7932339 Z"
   id="path854"
   style="stroke-width:0.826029;fill:#999999" /><path
   d="M 17.107943,7.2164705 H 13.803828 V 8.868528 h 3.304115 v 3.304115 H 18.76 V 7.2164705 Z"
   id="path848"
   style="stroke-width:0.826029;fill:#999999" /><path
   d="M 8.7932339,7.2164705 H 12.09735 V 8.868528 H 8.7932339 v 3.304115 H 7.1411764 V 8.868528 7.2164705 Z"
   id="path4-1"
   style="stroke-width:0.826029;fill:#999999" /></svg>
