<?xml version='1.0' encoding='UTF-8'?>
<svg x="0px" y="0px" viewBox="0 0 32 32" version="1.1" xmlns="http://www.w3.org/2000/svg" xmlns:xlink="http://www.w3.org/1999/xlink" xml:space="preserve" id="Layer_1" style="enable-background:new 0 0 32 32">
  <style type="text/css">
	.Black{fill:#737374;}
	.Yellow{fill:#FCB01B;}
	.Green{fill:#129C49;}
	.Blue{fill:#387CB7;}
	.Red{fill:#D02127;}
	.White{fill:#FFFFFF;}
	.st0{opacity:0.5;}
	.st1{opacity:0.75;}
	.st2{opacity:0.25;}
	.st3{display:none;fill:#737374;}
</style>
  <path d="M29.7,27.3L22,19.6l-0.1-0.1c1.3-1.8,2.1-4.1,2.1-6.5c0-6.1-4.9-11-11-11S2,6.9,2,13s4.9,11,11,11  c2.4,0,4.7-0.8,6.5-2.1c0,0,0,0.1,0.1,0.1l7.7,7.7c0.3,0.3,0.9,0.3,1.2,0l1.2-1.2C30.1,28.2,30.1,27.6,29.7,27.3z M4,13c0-5,4-9,9-9  s9,4,9,9s-4,9-9,9S4,18,4,13z" class="Black" />
  <rect x="8" y="12" width="10" height="2" rx="0" ry="0" class="Blue" />
</svg>