<?xml version="1.0" encoding="UTF-8" standalone="no"?>
<svg
   xmlns:dc="http://purl.org/dc/elements/1.1/"
   xmlns:cc="http://creativecommons.org/ns#"
   xmlns:rdf="http://www.w3.org/1999/02/22-rdf-syntax-ns#"
   xmlns:svg="http://www.w3.org/2000/svg"
   xmlns="http://www.w3.org/2000/svg"
   xmlns:sodipodi="http://sodipodi.sourceforge.net/DTD/sodipodi-0.dtd"
   xmlns:inkscape="http://www.inkscape.org/namespaces/inkscape"
   version="1.1"
   id="Zoom"
   x="0px"
   y="0px"
   viewBox="0 0 32 32"
   style="enable-background:new 0 0 32 32;"
   xml:space="preserve"
   sodipodi:docname="zoomlocked.svg"
   inkscape:version="1.0.1 (3bc2e813f5, 2020-09-07)"><metadata
   id="metadata11"><rdf:RDF><cc:Work
       rdf:about=""><dc:format>image/svg+xml</dc:format><dc:type
         rdf:resource="http://purl.org/dc/dcmitype/StillImage" /><dc:title></dc:title></cc:Work></rdf:RDF></metadata><defs
   id="defs9" /><sodipodi:namedview
   pagecolor="#ffffff"
   bordercolor="#666666"
   borderopacity="1"
   objecttolerance="10"
   gridtolerance="10"
   guidetolerance="10"
   inkscape:pageopacity="0"
   inkscape:pageshadow="2"
   inkscape:window-width="2560"
   inkscape:window-height="1017"
   id="namedview7"
   showgrid="false"
   showguides="true"
   inkscape:guide-bbox="true"
   inkscape:zoom="13.28125"
   inkscape:cx="9.9713256"
   inkscape:cy="26.143108"
   inkscape:window-x="-8"
   inkscape:window-y="-8"
   inkscape:window-maximized="1"
   inkscape:current-layer="Zoom"><sodipodi:guide
     position="20.68,24.317647"
     orientation="1,0"
     id="guide848" /><sodipodi:guide
     position="6.6141176,16.251765"
     orientation="0,-1"
     id="guide850" /></sodipodi:namedview>
<style
   type="text/css"
   id="style2">
	.Black{fill:#727272;}
</style>
<path
   id="path4"
   d="M 12.900391,1.9003906 C 6.9003906,2.0003906 2,6.9 2,13 2,14.430072 2.2785864,15.790525 2.7695312,17.041016 2.795569,15.976598 3.3013,15.013475 4.0976562,14.263672 4.0403224,13.850113 4,13.430283 4,13 4,8 8,4 13,4 c 5,0 9,4 9,9 0,3.937145 -2.484836,7.244229 -5.980469,8.476562 v 2.082032 C 17.261774,23.197208 18.430142,22.632399 19.5,21.900391 l 7.900391,7.90039 c 0.3,0.3 0.899218,0.3 1.199218,0 l 1.201172,-1.201172 c 0.3,-0.4 0.298438,-0.998828 -0.101562,-1.298828 l -7.898438,-7.90039 c 1.3,-1.8 2.09961,-4 2.09961,-6.5 0,-6.1000004 -4.9,-11.0000004 -11,-11.0000004 z"
   style="fill:#727272;fill-opacity:1"
   sodipodi:nodetypes="csccssscccsscccsc" />
<style
   type="text/css"
   id="style876">
	.Blue{fill:#3575BB;}
	.Black{fill:#737374;}
	.White{fill:#FFFFFF;}
	.Yellow{fill:#FCB01B;}
	.Red{fill:#D02027;}
	.Green{fill:#129C49;}
	.st0{opacity:0.5;}
</style><path
   class="Yellow"
   d="m 13.199112,20.25473 h -1 v -2 c 0,-2.2 -1.8,-4 -4.0000004,-4 -2.2,0 -4,1.8 -4,4 v 2 h -1 c -0.5,0 -1,0.5 -1,1 v 8 c 0,0.5 0.5,1 1,1 H 13.199112 c 0.5,0 1,-0.5 1,-1 v -8 c 0,-0.5 -0.5,-1 -1,-1 z m -7.0000004,0 v -2 c 0,-1.1 0.9,-2 2,-2 1.1,0 2.0000004,0.9 2.0000004,2 v 2 z"
   id="path882-0"
   style="fill:#fcb01b" /></svg>
