<?xml version="1.0" encoding="UTF-8"?>
<!DOCTYPE svg PUBLIC "-//W3C//DTD SVG 1.1//EN" "http://www.w3.org/Graphics/SVG/1.1/DTD/svg11.dtd">
<!-- Creator: CorelDRAW -->
<svg xmlns="http://www.w3.org/2000/svg" xml:space="preserve" width="210mm" height="297mm" style="shape-rendering:geometricPrecision; text-rendering:geometricPrecision; image-rendering:optimizeQuality; fill-rule:evenodd; clip-rule:evenodd"
viewBox="0 0 210 297"
 xmlns:xlink="http://www.w3.org/1999/xlink">
 <defs>
  <style type="text/css">
   <![CDATA[
    .str0 {stroke:black;stroke-width:0.2}
    .fil1 {fill:none}
    .fil0 {fill:white}
   ]]>
  </style>
 </defs>
 <g id="Livello_x0020_1">
  <metadata id="CorelCorpID_0Corel-Layer"/>
  <g id="_118976664">
   <path id="_118976784" class="fil0 str0" d="M35.8674 177.565c-1.1835,0 -2.2782,-0.0559 -3.4531,-0.0559 -0.9304,0 -1.1331,0.3239 -1.1331,1.2859 0,1.2928 0.3895,2.6539 0.9712,3.6338 1.27,2.1392 3.314,0.8709 4.6941,-0.5591 0.7391,-0.7658 1.7606,-1.4425 1.133,-2.5716 -0.3766,-0.6774 -1.191,-1.6772 -2.2121,-1.7331z"/>
   <path id="_118976712" class="fil1 str0" d="M32.4143 177.509c-0.0554,-0.0003 -0.0902,0.0068 -0.1392,-0.0197 0,0.7487 0.2826,0.9682 0.8877,1.3379 0.2794,0.1708 0.759,0.7277 1.1298,0.9198 1.5872,0.8222 0.2304,2.3821 0.3382,3.7198"/>
   <path id="_118976688" class="fil1 str0" d="M35.0279 180.58c0.3369,-0.0531 0.6858,-0.1082 0.9864,-0.2206 0.2954,-0.1104 0.6905,-0.3173 0.9953,-0.3624 0.0128,-0.0802 0.0023,-0.0557 0.0807,-0.0557 0.0146,-0.0919 0.3708,-0.1855 0.4842,-0.2787 0.1734,-0.1426 0.348,-0.2284 0.505,-0.3654"/>
  </g>
 </g>
</svg>
