<?xml version="1.0" encoding="UTF-8"?>
<!DOCTYPE svg PUBLIC "-//W3C//DTD SVG 1.1//EN" "http://www.w3.org/Graphics/SVG/1.1/DTD/svg11.dtd">
<!-- Creator: CorelDRAW -->
<svg xmlns="http://www.w3.org/2000/svg" xml:space="preserve" width="4.4436mm" height="6.7876mm" style="shape-rendering:geometricPrecision; text-rendering:geometricPrecision; image-rendering:optimizeQuality; fill-rule:evenodd; clip-rule:evenodd"
viewBox="0 0 0.0412873 0.0630663"
 xmlns:xlink="http://www.w3.org/1999/xlink">
 <defs>
  <style type="text/css">
   <![CDATA[
    .str0 {stroke:#1F1A17;stroke-width:0.00232285}
    .fil1 {fill:none}
    .fil0 {fill:white}
   ]]>
  </style>
 </defs>
 <g id="Massi">
  <metadata id="CorelCorpID_0Corel-Layer"/>
  <g id="_455345936">
   <path id="_455346104" class="fil0 str0" d="M0.00248545 0.0582543c0.00318416,0.00033542 0.00464849,0.00340344 0.00842916,0.00363851 0.0102456,0.000636461 0.0316725,-0.0136593 0.0246677,-0.0248452 -0.00420064,-0.00670932 0.00801848,-0.0104045 0.00354932,-0.0193438 -0.00246501,-0.00493095 -0.0254733,-0.0234283 -0.0305241,-0.0138423 -0.00447195,0.0084877 -0.0067437,0.0195305 -0.0067437,0.0294593 0,0.00717017 -0.00194841,0.0192248 0.000621595,0.0249335z"/>
   <path id="_455346032" class="fil1 str0" d="M0.0351615 0.0362718c-0.00158883,-0.00134447 -0.00457602,-0.00472561 -0.0068552,-0.00472561 -0.00271959,0 -0.0114517,-0.00151357 -0.0122451,-0.00390425 0.00469587,-0.00410959 0.0064185,-0.00828421 0.00976062,-0.0131325 0.0015656,-0.00226989 0.00339415,-0.00312191 0.00490679,-0.00511863"/>
   <path id="_455345960" class="fil1 str0" d="M0.0160611 0.0276419c-0.00254213,-0.000380947 -0.0053249,-0.00141973 -0.00780849,-0.00141973 -0.00142902,0 -0.00326686,-0.000375373 -0.00461411,-0.000709863"/>
  </g>
 </g>
</svg>
