<?xml version="1.0" encoding="UTF-8"?>
<!DOCTYPE svg PUBLIC "-//W3C//DTD SVG 1.1//EN" "http://www.w3.org/Graphics/SVG/1.1/DTD/svg11.dtd">
<!-- Creator: CorelDRAW -->
<svg xmlns="http://www.w3.org/2000/svg" xml:space="preserve" width="210mm" height="297mm" style="shape-rendering:geometricPrecision; text-rendering:geometricPrecision; image-rendering:optimizeQuality; fill-rule:evenodd; clip-rule:evenodd"
viewBox="0 0 210 297"
 xmlns:xlink="http://www.w3.org/1999/xlink">
 <defs>
  <style type="text/css">
   <![CDATA[
    .str0 {stroke:#1F1A17;stroke-width:0.2}
    .fil1 {fill:none}
    .fil0 {fill:white}
   ]]>
  </style>
 </defs>
 <g id="Livello_x0020_1">
  <metadata id="CorelCorpID_0Corel-Layer"/>
  <path class="fil0 str0" d="M84.75 61.7416c-12.5947,32.7928 -39.726,47.0372 -38.8125,88.9713 0.8591,39.4401 12.7889,80.0274 16.3125,116.157 2.4597,14.4312 27.0042,44.0611 33.1875,45.3094 6.1833,1.2484 20.0272,36.3242 34.3125,39.5428 10.4773,2.3606 19.5188,6.5905 30.9375,6.5905 0,-1.569 3.7417,-0.2781 5.0625,-9.0619 1.3208,-8.7838 21.375,-34.5018 21.375,-52.7237 2.5237,-1.232 12.375,-43.6602 12.375,-51.8999 4.515,-3.3059 4.3716,-49.0947 3.375,-59.3142 -2.2473,-0.8975 -18.9871,-38.151 -21.375,-43.6618 -11.7403,-27.0949 -41.9541,-46.3302 -59.0625,-65.9046 -10.9801,-12.5626 -20.1987,-32.7098 -27.5625,-24.8339l-10.125 10.8291z"/>
  <path class="fil1 str0" d="M145.209 97.7483c-8.3878,6.6357 -12.7448,21.9395 -20.5193,29.898 0,35.1731 7.242,74.4679 11.6684,107.095 2.713,19.9968 5.775,25.4458 15.6921,33.7761 9.198,7.7259 16.9821,8.5477 27.7628,14.8286"/>
 </g>
</svg>
