<?xml version="1.0" encoding="UTF-8"?>
<!DOCTYPE svg PUBLIC "-//W3C//DTD SVG 1.1//EN" "http://www.w3.org/Graphics/SVG/1.1/DTD/svg11.dtd">
<!-- Creator: CorelDRAW -->
<svg xmlns="http://www.w3.org/2000/svg" xml:space="preserve" width="5.7588mm" height="8.5604mm" style="shape-rendering:geometricPrecision; text-rendering:geometricPrecision; image-rendering:optimizeQuality; fill-rule:evenodd; clip-rule:evenodd"
viewBox="0 0 0.103341 0.153616"
 xmlns:xlink="http://www.w3.org/1999/xlink">
 <defs>
  <style type="text/css">
   <![CDATA[
    .str0 {stroke:black;stroke-width:0.00358899}
    .fil1 {fill:none}
    .fil0 {fill:white}
   ]]>
  </style>
 </defs>
 <g id="Rocce">
  <metadata id="CorelCorpID_0Corel-Layer"/>
  <g id="_287724032">
   <path id="_287724200" class="fil0 str0" d="M0.0286473 0.0033557c0.0151096,0.0034867 0.0305369,0.00572264 0.0449628,0.0109285 0.0249237,0.00899759 0.0302228,0.000893657 0.027165,0.028414 -0.00171374,0.000285324 -0.00923267,0.0328374 -0.0109285,0.0380935 -0.00620715,0.019237 -0.0177978,0.0416735 -0.0177978,0.0621361 0,0.023856 -0.04263,-0.0072336 -0.0434016,-0.0118652 -0.00709363,-0.00101209 -0.0268528,-0.0208628 -0.0268528,-0.0290385 0,-0.0172271 0.00461185,-0.035662 0.00936725,-0.0521444 0.0027707,-0.00960054 0.00898861,-0.0174084 0.0109285,-0.0277895 0.000741126,-0.00396224 0.00136381,-0.0202957 0.00562035,-0.0202957 0.000183038,0.000549115 0.00088289,0.000312242 0.000936725,0.00156121z"/>
   <path id="_287724152" class="fil1 str0" d="M0.0286473 0.0033557c-0.00110361,0.00728564 0.00769837,0.0185048 0.00999174,0.0259161 0.0036177,0.0116911 -0.00189678,0.0245199 -0.0074938,0.0330976 -0.00893119,0.0136902 -0.00235258,0.0295607 -0.00530811,0.0443383 -0.00927932,0 -0.0149158,-0.0019219 -0.0224814,-0.00343466l-0.00156121 -0.00124897"/>
   <path id="_287724104" class="fil1 str0" d="M0.0258371 0.106708c0.0076571,0.00446649 0.0173384,0.0157574 0.0227936,0.0221692 0.00382048,0.00449341 0.00639557,0.00695007 0.0106162,0.0109285 0.00165093,0.00155403 0.00784014,0.011395 0.00930444,0.0110541"/>
   <path id="_287724056" class="fil1 str0" d="M0.0397965 0.0373901c0.00773067,0 0.0154954,-0.00163658 0.0231974,-0.00249793 0.00734665,-0.000820083 0.0135556,-0.00471234 0.020608,-0.00655708 0.00270251,-0.00070703 0.00575853,-0.000608333 0.00843053,-0.00156121 0.00157736,-0.000563471 0.00471413,-0.00312242 0.00562035,-0.00312242 9.33136e-005,-0.000561676 0.00133331,-0.00261278 0.00107849,-0.00132972"/>
  </g>
 </g>
</svg>
