<?xml version="1.0" encoding="UTF-8"?>
<!DOCTYPE svg PUBLIC "-//W3C//DTD SVG 1.1//EN" "http://www.w3.org/Graphics/SVG/1.1/DTD/svg11.dtd">
<!-- Creator: CorelDRAW -->
<svg xmlns="http://www.w3.org/2000/svg" xml:space="preserve" width="6.528mm" height="7.6498mm" style="shape-rendering:geometricPrecision; text-rendering:geometricPrecision; image-rendering:optimizeQuality; fill-rule:evenodd; clip-rule:evenodd"
viewBox="0 0 0.175596 0.205771"
 xmlns:xlink="http://www.w3.org/1999/xlink">
 <defs>
  <style type="text/css">
   <![CDATA[
    .str0 {stroke:black;stroke-width:0.00537978}
    .fil1 {fill:none}
    .fil0 {fill:white}
   ]]>
  </style>
 </defs>
 <g id="Rocce">
  <metadata id="CorelCorpID_0Corel-Layer"/>
  <g id="_287726096">
   <path id="_287726168" class="fil0 str0" d="M0.159508 0.00268989c-0.0363404,0 -0.0621902,0.0424491 -0.080503,0.0655257 -0.0096836,0.0121986 -0.0211022,0.0193941 -0.0332309,0.0290185 -0.00535019,0.00424733 -0.0327171,0.0364937 -0.0360391,0.0374433 0,0.00339733 -0.00374433,0.00628627 -0.00374433,0.0102969 -0.0133876,0.00222992 0.0176699,0.0274826 0.0219979,0.0308907 0.019265,0.0151683 0.0461343,0.0428822 0.0627175,0.0159134 0.00711476,-0.0115665 0.00820147,-0.010157 0.0126371,-0.0243381 0.00929088,-0.029691 0.033976,-0.0593901 0.0411876,-0.0865875 0.00504085,-0.0190094 0.0503924,-0.0540856 0.0149773,-0.0781628z"/>
   <path id="_287726120" class="fil1 str0" d="M0.159508 0.00268989c0.00446522,0.0048687 -0.000936081,0.0128523 -0.000936081,0.0177855 -0.00265223,0.000441142 -0.0115181,0.016758 -0.0187216,0.0177855 -0.000449211,0.00315255 -0.0249111,0.0224606 -0.0299546,0.0280824 -0.0145093,0.0161824 -0.0216455,0.0370371 -0.0439958,0.0482082 -0.0196362,0.00981809 -0.0363646,0.0387505 -0.0540452,0.0469897"/>
  </g>
 </g>
</svg>
