<?xml version="1.0" encoding="UTF-8"?>
<!DOCTYPE svg PUBLIC "-//W3C//DTD SVG 1.1//EN" "http://www.w3.org/Graphics/SVG/1.1/DTD/svg11.dtd">
<!-- Creator: CorelDRAW -->
<svg xmlns="http://www.w3.org/2000/svg" xml:space="preserve" width="8.3639mm" height="12.3175mm" style="shape-rendering:geometricPrecision; text-rendering:geometricPrecision; image-rendering:optimizeQuality; fill-rule:evenodd; clip-rule:evenodd"
viewBox="0 0 0.242221 0.356718"
 xmlns:xlink="http://www.w3.org/1999/xlink">
 <defs>
  <style type="text/css">
   <![CDATA[
    .str0 {stroke:black;stroke-width:0.00579205}
    .fil1 {fill:none}
    .fil0 {fill:white}
   ]]>
  </style>
 </defs>
 <g id="Rocce">
  <metadata id="CorelCorpID_0Corel-Layer"/>
  <g id="_288663136">
   <polygon id="_288663256" class="fil0 str0" points="0.133359,0.0031335 0.0423949,0.144633 0.00600925,0.233576 0.00292788,0.277465 0.0302664,0.350819 0.169745,0.16889 0.238473,0.0516477 0.187938,0.0112192 "/>
   <path id="_288663208" class="fil1 str0" d="M0.137141 0.00369533c0.00553141,0.0119866 0.0123892,0.0346249 0.0123892,0.0479524l0 0.0192035c0,0.0103475 -0.00463654,0.0103446 0.000784823,0.00591079 0.00542136,-0.00443381 0.0394062,-0.0121778 0.0446973,-0.0139965 0.00774976,-0.00266724 0.0368403,-0.00714739 0.0434606,-0.0111178"/>
   <path id="_288663160" class="fil1 str0" d="M0.00579495 0.236631c0.0323776,-0.0249116 0.0520966,-0.0495423 0.0830928,-0.0758266 0.00781058,-0.00662321 0.031083,-0.0409208 0.0353749,-0.0495249 0.00202722,-0.00406023 0.0274022,-0.0347928 0.0260526,-0.0345177"/>
  </g>
 </g>
</svg>
