<?xml version="1.0" encoding="UTF-8"?>
<!DOCTYPE svg PUBLIC "-//W3C//DTD SVG 1.1//EN" "http://www.w3.org/Graphics/SVG/1.1/DTD/svg11.dtd">
<!-- Creator: CorelDRAW -->
<svg xmlns="http://www.w3.org/2000/svg" xml:space="preserve" width="20.1994mm" height="18.2486mm" style="shape-rendering:geometricPrecision; text-rendering:geometricPrecision; image-rendering:optimizeQuality; fill-rule:evenodd; clip-rule:evenodd"
viewBox="0 0 7.53266 6.80518"
 xmlns:xlink="http://www.w3.org/1999/xlink">
 <defs>
  <style type="text/css">
   <![CDATA[
    .str0 {stroke:black;stroke-width:0.074583}
    .fil0 {fill:white}
   ]]>
  </style>
 </defs>
 <g id="Livello_x0020_1">
  <metadata id="CorelCorpID_0Corel-Layer"/>
  <g id="_215355552">
   <path id="_215355672" class="fil0 str0" d="M1.61517 1.12825c0.367732,-0.421954 0.907415,-1.09096 1.51978,-1.09096 0.282893,0 1.74741,0.0542592 1.74741,0.32921 0.270065,0 1.0335,0.559186 1.05904,0.877842 0.0265889,0.331895 -0.485871,0.526594 -0.714841,0.658382 -0.152895,0.0880453 -0.632763,0.0682808 -0.794272,0 -0.319849,-0.135256 -1.10961,-0.109712 -1.48264,-0.109712 -0.739155,0 -0.901336,-0.377278 -1.33448,-0.664759z"/>
   <path id="_215355624" class="fil0 str0" d="M2.49954 0.750566c-0.600468,-0.287145 -0.878029,0.293708 -1.08552,0.822987 -0.125076,0.319178 -0.22278,0.83436 -0.423594,1.04241 -0.202903,0.21025 -0.165724,0.511379 -0.26477,0.795577 -0.282819,0.811725 -0.688364,1.52168 -0.688364,2.41407 0.154648,0 0.347818,0.207266 0.503025,0.109749 -0.0140216,-0.0654839 0.983005,-0.145698 1.66798,-0.0274466l0.291247 -5.15734z"/>
   <path id="_215355576" class="fil0 str0" d="M0.752245 5.8811c-1.00236,0.0482925 0.326413,-1.93644 0.476474,-2.38725 0.554264,-1.66551 0.65924,-3.07249 2.7005,-3.07249 0.78383,0 2.27915,-0.0412071 2.98314,0.401555 0.206185,0.129663 0.102626,0.451451 0.19399,0.640892 0.5992,1.24177 0.704996,5.09734 -1.13847,5.2945 -0.633807,0.067796 -1.8673,-0.235832 -2.56816,-0.356619 -0.446007,-0.0768578 -0.878551,-0.226061 -1.37673,-0.274316 -0.18739,-0.018161 -1.19501,-0.104267 -1.2179,-0.246907 0.00719726,-0.00742101 -0.0454211,-0.0476959 -0.0528421,0.000633956z"/>
  </g>
 </g>
</svg>
