<?xml version="1.0" encoding="UTF-8"?>
<!DOCTYPE svg PUBLIC "-//W3C//DTD SVG 1.1//EN" "http://www.w3.org/Graphics/SVG/1.1/DTD/svg11.dtd">
<!-- Creator: CorelDRAW -->
<svg xmlns="http://www.w3.org/2000/svg" xml:space="preserve" width="3.5904mm" height="3.3909mm" style="shape-rendering:geometricPrecision; text-rendering:geometricPrecision; image-rendering:optimizeQuality; fill-rule:evenodd; clip-rule:evenodd"
viewBox="0 0 0.134348 0.126883"
 xmlns:xlink="http://www.w3.org/1999/xlink">
 <defs>
  <style type="text/css">
   <![CDATA[
    .str0 {stroke:black;stroke-width:0.00748376}
    .fil1 {fill:none}
    .fil0 {fill:white}
   ]]>
  </style>
 </defs>
 <g id="Livello_x0020_1">
  <metadata id="CorelCorpID_0Corel-Layer"/>
  <g id="_215349696">
   <path id="_215349768" class="fil0 str0" d="M0.114112 0.00785046c-0.00171378,-0.000542572 -0.00240977,-0.00114127 -0.00331156,-0.0027428 -0.0114801,0.00660816 -0.0205841,0.0120414 -0.0317873,0.0178413 -0.0159816,0.00827329 -0.0397612,-0.00289996 -0.0582798,0.00205803 -0.0197683,0.00528727 -0.0182529,0.00937341 -0.00927238,0.0260734 0.0140732,0.026152 -0.013235,0.025587 -0.00397388,0.0514658 0.00710583,0.0198432 0.0381672,0.0313831 0.050332,0.0061741 -0.0060581,-0.00208797 0.00777937,-0.00976256 0.0112593,-0.0102939 0.0126176,-0.00191584 0.0589383,-0.0214746 0.0589383,-0.0404834 0,-0.0185485 0.0115287,-0.0445471 -0.0139048,-0.0500925z"/>
   <path id="_215349720" class="fil1 str0" d="M0.120073 0.0256917c-0.00770079,0.00569888 -0.0189115,0.01441 -0.0271548,0.01441 -0.00471103,0 -0.00825458,-0.00583733 -0.0139048,-0.00823213 -0.00823213,-0.00349866 -0.0219536,0.000838181 -0.0291418,0.00342756 -0.00969895,0.0035024 -0.0122584,0.0136429 -0.0205279,0.0157832 0.0107018,0 0.0291268,-0.000871858 0.039735,0.00137327 0.00999082,0.00211042 0.0206365,0.00411981 0.0298003,0.00754737 0.00498044,0.00185597 0.0103575,0.0096054 0.0139086,0.0096054"/>
  </g>
 </g>
</svg>
