<?xml version="1.0" encoding="UTF-8"?>
<!DOCTYPE svg PUBLIC "-//W3C//DTD SVG 1.1//EN" "http://www.w3.org/Graphics/SVG/1.1/DTD/svg11.dtd">
<!-- Creator: CorelDRAW -->
<svg xmlns="http://www.w3.org/2000/svg" xml:space="preserve" width="6.0084mm" height="4.6549mm" style="shape-rendering:geometricPrecision; text-rendering:geometricPrecision; image-rendering:optimizeQuality; fill-rule:evenodd; clip-rule:evenodd"
viewBox="0 0 0.292818 0.226855"
 xmlns:xlink="http://www.w3.org/1999/xlink">
 <defs>
  <style type="text/css">
   <![CDATA[
    .str0 {stroke:black;stroke-width:0.00974695}
    .fil1 {fill:none}
    .fil0 {fill:white}
   ]]>
  </style>
 </defs>
 <g id="Livello_x0020_1">
  <metadata id="CorelCorpID_0Corel-Layer"/>
  <g id="_215349336">
   <path id="_215349408" class="fil0 str0" d="M0.19065 0.0450894l-0.00603824 0c-0.0133338,0.0165796 -0.0428768,-0.0126126 -0.0603775,-0.00268041 -0.0231198,0.0131194 -0.0215651,0.0675707 -0.0215651,0.0938339 0,0.00557038 0.017681,0.0629068 0.0353668,0.0464735 0.0145132,-0.0134849 0.0317117,-0.0189822 0.0422628,-0.0366388 0.0111359,-0.0186362 0.0260536,-0.0367557 0.0336367,-0.0545196 0.0143231,-0.0335539 -0.0123835,-0.0295186 -0.0232855,-0.0464686z"/>
   <path id="_215349360" class="fil1 str0" d="M0.144932 0.0817282c0.00712989,0.00284124 0.00947404,0.00537544 0.0172521,0.000896719 0.00674976,-0.00388416 0.0136311,-0.00490759 0.0207025,-0.00804611 -0.0111456,0.00923523 -0.0167355,0.0282418 -0.0224277,0.0402159 -0.00404986,0.00853833 -0.00728584,0.0172521 -0.00948866,0.0259171 -0.00108678,0.0043179 -0.00132071,0.00884048 -0.00345042,0.0125151"/>
  </g>
  <g id="_215349216">
   <path id="_215349288" class="fil0 str0" d="M0.203316 0.111037c0.0239531,0.00824105 0.040596,-0.0233732 0.0477064,-0.0373503 0.00555089,-0.0109117 0.0275205,0.0320528 0.032779,0.0393241 0.0132315,0.018295 -0.00837263,0.0696809 -0.0189773,0.0849008 -0.0332761,0.0477454 -0.0686575,0.0146545 -0.096602,-0.0142988 -0.0105657,-0.0109458 -0.0226129,-0.0292506 -0.0120765,-0.048262 0.0038208,-0.00688622 0.0381691,-0.0259171 0.0457132,-0.0259171l0.00145717 0.00160337z"/>
   <path id="_215349240" class="fil1 str0" d="M0.24499 0.124629c-0.00884536,0.00563861 -0.0145376,0.0115209 -0.0224277,0.0187678 -0.00299231,0.00273889 -0.0138017,0.0150103 -0.0138017,0.0196596 -0.00557038,0.000960075 0.00489297,0.00774883 0.00690084,0.0098298 0.000657919,0.000682286 0.00214433,0.00188116 0.00258782,0.00268041 0.00147666,0.00267554 0.00714939,0.00690571 0.00776345,0.0107265 0.00537057,0 0.0181147,-0.00802174 0.0181147,-0.0134069 0,-0.0072761 -0.00179831,-0.0203857 0.000862605,-0.026809"/>
  </g>
  <g id="_215349096">
   <path id="_215349168" class="fil0 str0" d="M0.0828345 0.00487347l-0.00517563 0c-0.00249035,0.00903542 -0.0272573,0.0211996 -0.0345042,0.0294894 -0.0123494,0.0141185 -0.0184266,0.0333687 -0.0310489,0.048262 -0.0110725,0.0130707 -0.00955201,0.0198253 0.00517563,0.0285976 0.0265946,0.0158339 0.00806073,0.0448262 0.0232855,0.0589837 0.016409,0.0152442 0.0445338,0.0134069 0.0655531,0.0134069 0.000604311,-0.00376232 0.00690084,-0.00471752 0.00690084,-0.0142988 0,-0.0171303 -0.00543392,-0.0328472 -0.00690084,-0.0491539 -0.00210047,-0.0232952 0.0120765,-0.0460543 0.0120765,-0.0679216 0,-0.0138066 -0.0292701,-0.0354594 -0.0353619,-0.0473653z"/>
   <path id="_215349120" class="fil1 str0" d="M0.0655824 0.0281053c0.010517,0.00476626 0.019065,0.0229784 0.0181147,0.0348551 -0.000565323,0.00711527 -0.00766598,0.0109068 -0.0120765,0.0134069 -0.0104634,0.00594077 -0.0224277,0.00936195 -0.0224277,0.0241286 0,0.0142111 0.010361,0.0107265 0.0181147,0.0107265 0.00614545,0.000243674 0.0155269,0.0166039 0.0155269,0.0241286 0,0.00707629 0.00689597,0.029158 0.00689597,0.0285976"/>
  </g>
 </g>
</svg>
