<?xml version="1.0" encoding="UTF-8"?>
<!DOCTYPE svg PUBLIC "-//W3C//DTD SVG 1.1//EN" "http://www.w3.org/Graphics/SVG/1.1/DTD/svg11.dtd">
<!-- Creator: CorelDRAW -->
<svg xmlns="http://www.w3.org/2000/svg" xml:space="preserve" width="2.0779mm" height="3.3075mm" style="shape-rendering:geometricPrecision; text-rendering:geometricPrecision; image-rendering:optimizeQuality; fill-rule:evenodd; clip-rule:evenodd"
viewBox="0 0 0.0721463 0.114839"
 xmlns:xlink="http://www.w3.org/1999/xlink">
 <defs>
  <style type="text/css">
   <![CDATA[
    .str0 {stroke:black;stroke-width:0.00694416}
    .fil1 {fill:none}
    .fil0 {fill:white}
   ]]>
  </style>
 </defs>
 <g id="Livello_x0020_1">
  <metadata id="CorelCorpID_0Corel-Layer"/>
  <g id="_215350104">
   <path id="_215350224" class="fil0 str0" d="M0.0552373 0.0038922c-0.0116801,0.00278808 -0.0135203,0.00988501 -0.0246518,0.014048 -0.00710734,0.00265267 -0.0171347,0.0038297 -0.0209505,0.0038297 0.00346513,0.00479841 0.00910379,0.0194749 0.00246518,0.0242664 -0.00831216,0.00599975 -0.00862811,0.00739553 -0.00862811,0.0191555 0,0.00632265 0.000937461,0.0151487 0.00616294,0.0166 0.00631224,0.00176034 0.00921142,-0.000683999 0.013555,0.0089406 0.00273253,0.0060553 0.00520117,0.0227386 0.0123259,0.0204332 0.00805869,-0.00260753 0.0155341,-0.0106628 0.0184888,-0.0191555 0.00165271,-0.00476022 0.00701707,-0.0187666 0.0098607,-0.0217109 0.011378,-0.0117912 -0.00145827,-0.02269 0.00246518,-0.0344812 0.00316306,-0.00951697 0.00186451,-0.00769065 -0.00123259,-0.0166035 -0.00137147,-0.00393734 -0.00590253,-0.0184367 -0.0098607,-0.0153223z"/>
   <path id="_215350176" class="fil1 str0" d="M0.065098 0.0192145c-0.0123641,0.00495813 -0.00905171,0.0051109 -0.0172562,0.0051109 -0.00281586,0 -0.00376373,-0.000211797 -0.00616294,0.00127772 -0.000753441,0.00391998 -0.000770801,0.00294085 -0.00369776,0.00510743 0,0.00537478 0.00123259,0.00865589 0.00123259,0.014048 -0.00391303,0.00231588 -0.00514562,0.00451023 -0.00862811,0.00510743l-0.00123259 0.00255545c-0.0119926,0 -0.00683652,0.00778093 -0.0172528,-0.00638515"/>
   <path id="_215350128" class="fil1 str0" d="M0.0392137 0.0447586c-0.00413525,0.0231379 -0.00648584,0.00751011 0.00246518,0.0114926l0 0.014048 0 0.00638515 0 0.00255545"/>
  </g>
 </g>
</svg>
