<?xml version="1.0" encoding="UTF-8"?>
<!DOCTYPE svg PUBLIC "-//W3C//DTD SVG 1.1//EN" "http://www.w3.org/Graphics/SVG/1.1/DTD/svg11.dtd">
<!-- Creator: CorelDRAW -->
<svg xmlns="http://www.w3.org/2000/svg" xml:space="preserve" width="19.35mm" height="22.3176mm" style="shape-rendering:geometricPrecision; text-rendering:geometricPrecision; image-rendering:optimizeQuality; fill-rule:evenodd; clip-rule:evenodd"
viewBox="0 0 35.0471 40.4221"
 xmlns:xlink="http://www.w3.org/1999/xlink">
 <defs>
  <style type="text/css">
   <![CDATA[
    .str0 {stroke:black;stroke-width:0.362244}
    .fil0 {fill:white}
   ]]>
  </style>
 </defs>
 <g id="Livello_x0020_1">
  <metadata id="CorelCorpID_0Corel-Layer"/>
  <g id="_215355384">
   <path id="_215355504" class="fil0 str0" d="M0.210645 19.3993c-1.184,-6.69681 25.7264,-20.9105 31.1834,-19.0531 0.790055,0.118092 1.27275,0.675223 1.14197,1.33614 -0.985485,4.97959 -6.81508,8.49988 -11.6222,10.6554 -5.47623,2.45583 -14.7104,9.72282 -20.7032,7.06159z"/>
   <path id="_215355456" class="fil0 str0" d="M31.3941 0.346124c1.02117,-0.170436 0.631573,0.147615 1.35008,0.333084 0,1.02515 1.73606,0.878805 1.73606,1.79872 0,0.953427 0.38579,1.70545 0.38579,2.5982 0,2.12402 0.0720866,3.1086 -1.28597,4.5967 -0.661096,0.724851 -0.70855,1.05667 -1.47868,1.46564 -1.48448,0.788787 -1.42688,0.66019 -2.05755,-0.799292 -0.56818,-1.31549 -0.23238,-3.05517 0.257193,-4.19714 0.315152,-0.735356 0.675223,-3.8829 1.22167,-4.33027 0.546445,-0.447191 0.349747,-1.17657 -0.128597,-1.46564z"/>
   <path id="_215355408" class="fil0 str0" d="M0.210645 19.3993c3.72514,0 12.2587,-9.97349 16.2025,-11.4585 1.52903,-0.575606 14.6334,-9.08853 15.4311,-4.13031 0.534491,1.10774 1.80017,2.47594 1.80017,3.46414 0,7.47292 -3.84359,10.5002 -5.5293,16.788 -0.272408,1.01537 1.51961,1.53501 2.01082,2.98055 0.875725,2.57682 0.559486,6.35757 -2.01082,8.74458 -4.80481,4.46158 -12.406,7.25521 -15.8169,0 -1.28687,-2.73712 -5.54596,-5.16651 -6.81526,-8.12767 -1.22602,-2.85937 -5.14369,-4.44057 -5.27228,-8.2608z"/>
  </g>
 </g>
</svg>
