<?xml version="1.0" encoding="UTF-8"?>
<!DOCTYPE svg PUBLIC "-//W3C//DTD SVG 1.1//EN" "http://www.w3.org/Graphics/SVG/1.1/DTD/svg11.dtd">
<!-- Creator: CorelDRAW -->
<svg xmlns="http://www.w3.org/2000/svg" xml:space="preserve" width="2.503mm" height="4.6817mm" style="shape-rendering:geometricPrecision; text-rendering:geometricPrecision; image-rendering:optimizeQuality; fill-rule:evenodd; clip-rule:evenodd"
viewBox="0 0 0.104855 0.196124"
 xmlns:xlink="http://www.w3.org/1999/xlink">
 <defs>
  <style type="text/css">
   <![CDATA[
    .str0 {stroke:black;stroke-width:0.00837833}
    .fil1 {fill:none}
    .fil0 {fill:white}
   ]]>
  </style>
 </defs>
 <g id="Livello_x0020_1">
  <metadata id="CorelCorpID_0Corel-Layer"/>
  <g id="_215350272">
   <path id="_215350392" class="fil0 str0" d="M0.099899 0.0391561c-0.019157,0.00457457 -0.0398683,0.00365714 -0.0505632,-0.0107871 -0.0124879,-0.016874 -0.0330064,-0.0423734 -0.0431232,-0.00462065 -0.00530348,0.0197645 0.00148715,0.0292697 0.00148715,0.0477648 0,0.0234258 -0.00162958,0.0507014 0.0133844,0.0662558 0.00712158,0.00738131 0.014993,0.0201583 0.0237903,0.0292781 0.0040593,0.00420173 0.0215658,0.0200284 0.0223073,0.0231116 0.011428,0 0.00585645,0.00625861 0.0163587,-0.00462065 -0.00513173,-0.00709644 0.00726401,-0.0254324 0.0104101,-0.0338987 0.00522389,-0.0140798 0.00986129,-0.044933 -0.00148715,-0.0554729 -0.0184281,-0.0171169 0.00446146,-0.0351052 0.00743577,-0.0570103z"/>
   <path id="_215350344" class="fil1 str0" d="M0.0314899 0.0699716c0.0129822,0.00620834 0.0284696,0.0136567 0.0327174,0.0292781 0.00286539,0.010519 0.00297431,0.0304133 0.00297431,0.0416026 0.00421011,0.00145364 0.00297431,-0.00142013 0.00297431,0.00462065 0.00229147,0.000791752 0.00148715,-4.60808e-005 0.00148715,0.00308322 0.00400903,0.00103472 0.00432322,0.00455362 0.00743577,0.00616226 0,0.00802225 -0.000737293,0.00313349 0.00700847,0.0133802"/>
   <path id="_215350296" class="fil1 str0" d="M0.0642073 0.0992497c0.000695401,-0.000963508 0.00832806,-0.0141803 0.0118972,-0.0154077l-0.00297431 -0.00308322"/>
  </g>
 </g>
</svg>
