<?xml version="1.0" encoding="UTF-8"?>
<!DOCTYPE svg PUBLIC "-//W3C//DTD SVG 1.1//EN" "http://www.w3.org/Graphics/SVG/1.1/DTD/svg11.dtd">
<!-- Creator: CorelDRAW -->
<svg xmlns="http://www.w3.org/2000/svg" xml:space="preserve" width="13.5377mm" height="6.5232mm" style="shape-rendering:geometricPrecision; text-rendering:geometricPrecision; image-rendering:optimizeQuality; fill-rule:evenodd; clip-rule:evenodd"
viewBox="0 0 12.6649 6.10266"
 xmlns:xlink="http://www.w3.org/1999/xlink">
 <defs>
  <style type="text/css">
   <![CDATA[
    .str0 {stroke:black;stroke-width:0.187106}
    .fil1 {fill:none}
    .fil0 {fill:white}
   ]]>
  </style>
 </defs>
 <g id="Livello_x0020_1">
  <metadata id="CorelCorpID_0Corel-Layer"/>
  <g id="_215352816">
   <path id="_215352936" class="fil0 str0" d="M11.0899 1.86919c-0.728405,0 -1.40217,-0.0344276 -2.12543,-0.0344276 -0.572639,0 -0.697345,0.199362 -0.697345,0.79146 0,0.795763 0.239683,1.63353 0.597711,2.23667 0.78173,1.31676 2.03983,0.536059 2.8893,-0.344088 0.454949,-0.471414 1.08363,-0.887913 0.697439,-1.58292 -0.231825,-0.416966 -0.733082,-1.03227 -1.36167,-1.06669z"/>
   <path id="_215352888" class="fil1 str0" d="M8.96445 1.83476c-0.0340533,-0.000187106 -0.055477,0.00411634 -0.0856011,-0.0120684 0,0.460843 0.173915,0.59584 0.54635,0.823455 0.171951,0.10506 0.467111,0.447932 0.695474,0.56609 0.976882,0.506122 0.141733,1.46626 0.208062,2.28962"/>
   <path id="_215352840" class="fil1 str0" d="M10.5732 3.72547c0.207314,-0.03265 0.422112,-0.0665163 0.60716,-0.135746 0.181774,-0.0679196 0.425012,-0.195339 0.612586,-0.223031 0.00785846,-0.0493961 0.0014033,-0.034334 0.0496767,-0.034334 0.00907465,-0.0565996 0.22827,-0.114135 0.29806,-0.171576 0.106744,-0.0877528 0.214143,-0.14061 0.310877,-0.224902"/>
  </g>
  <g id="_215352672">
   <path id="_215352744" class="fil0 str0" d="M1.22929 0.261481c-0.209185,-0.0812041 -0.943764,-0.386281 -0.943764,0.102908 -0.12929,0.0222656 -0.246887,0.637471 -0.165589,0.772 0.0982308,0.162689 0.28646,0.452891 0.264942,0.669092 -0.0380761,0.383381 -0.666098,0.75488 0.14903,0.75488 0.330243,0 0.860876,0.0408827 1.07624,-0.240151 0.339224,-0.443068 -0.267468,-0.724943 -0.397414,-1.11515 -0.0191784,-0.0578158 0.0873786,-0.410511 0.0993534,-0.54897 0.0127232,-0.147066 0.117877,-0.359992 -0.0827945,-0.394607z"/>
   <path id="_215352696" class="fil1 str0" d="M1.08026 0.158573c-0.0742812,0.126858 -0.197116,0.257832 -0.24829,0.377393 -0.0426602,0.099447 -0.230234,0.311532 -0.14903,0.446061 0.148937,0.246513 0.231731,0.359244 0.231731,0.686212 0,0.234538 -0.303019,0.481799 -0.496674,0.53185"/>
  </g>
  <g id="_215352504">
   <path id="_215352624" class="fil0 str0" d="M1.84197 3.60685c-0.363173,0.0501445 -0.728592,0.24408 -0.728592,0.669092 0,0.187855 0.147066,0.527546 0.198707,0.720546 0.0885013,0.330055 0.354847,0.897268 0.662263,1.01215 0.0655807,0.0245109 0.645423,-0.445594 0.778269,-0.583304 0.172044,-0.178219 0.568148,-1.17905 0.264849,-1.37242 -0.213582,-0.136026 -0.507994,-0.0974824 -0.69538,-0.291605 -0.0785846,-0.0814848 -0.401624,-0.310784 -0.513233,-0.137242 0.00870044,-0.0545415 0.0292821,-0.034334 0.0331178,-0.0172138z"/>
   <path id="_215352576" class="fil1 str0" d="M1.11338 4.27594c0.148469,-0.0954242 0.236222,-0.15483 0.364296,-0.0514542 0.0902788,0.0729714 0.198707,0.126577 0.198707,0.257365 0,0.371687 0.396385,0.37599 0.69538,0.360273 0.163999,-0.00870044 0.242583,-0.140049 0.347737,-0.18879 0.112264,-0.0521091 0.253342,-0.0768071 0.331085,-0.137242 -0.0400407,0 -0.0821397,-0.00944887 -0.0993534,0.0172138"/>
   <path id="_215352528" class="fil1 str0" d="M2.12085 4.78515c-0.0557577,0.216576 -0.0471508,0.401904 -0.0471508,0.623064 0,0.0640839 0.0106651,0.149217 -0.0165589,0.20591 -0.0223592,0.0463088 -0.0750296,0.162315 -0.0496767,0.188697"/>
  </g>
 </g>
</svg>
