<?xml version="1.0" encoding="UTF-8"?>
<!DOCTYPE svg PUBLIC "-//W3C//DTD SVG 1.1//EN" "http://www.w3.org/Graphics/SVG/1.1/DTD/svg11.dtd">
<!-- Creator: CorelDRAW -->
<svg xmlns="http://www.w3.org/2000/svg" xml:space="preserve" width="8.2989mm" height="6.5744mm" style="shape-rendering:geometricPrecision; text-rendering:geometricPrecision; image-rendering:optimizeQuality; fill-rule:evenodd; clip-rule:evenodd"
viewBox="0 0 0.739901 0.58615"
 xmlns:xlink="http://www.w3.org/1999/xlink">
 <defs>
  <style type="text/css">
   <![CDATA[
    .str0 {stroke:black;stroke-width:0.0178313}
    .fil0 {fill:white}
   ]]>
  </style>
 </defs>
 <g id="Livello_x0020_1">
  <metadata id="CorelCorpID_0Corel-Layer"/>
  <g id="_215351376">
   <path id="_215351448" class="fil0 str0" d="M0.317754 0.262236c0.0482247,0 0.0840389,0.0130793 0.130962,0.0130793 0.025365,0 0.012794,-0.0392021 0,-0.0425098 0,-0.0117508 -0.0146484,-0.0175282 -0.0157807,-0.024527 -0.0154241,-0.00228241 -0.0568016,-0.0297515 -0.0568016,-0.0474134 -0.00483228,-0.00166723 -0.00365542,-0.00554553 -0.00946842,-0.00654409 -0.00652626,-0.0609117 -0.0954688,-0.131417 -0.145165,-0.1406 -0.0256949,-0.00476096 -0.113621,-0.00862143 -0.135705,0.00163156 -0.109939,0.0510778 -0.0321944,0.100613 0.0536455,0.127529 0.0642016,0.0201137 0.124373,0.122617 0.178313,0.119354z"/>
   <path id="_215351400" class="fil0 str0" d="M0.404539 0.308009c-0.0138906,-0.0121788 -0.0510867,-0.0598062 -0.0536544,-0.0784755 -0.0523527,0 -0.0188566,-0.04925 -0.0283963,-0.0735719 -0.00651734,-0.0166277 -0.0169932,-0.0272908 -0.0252491,-0.0408783 -0.00834505,-0.013739 -0.0415558,-0.0315347 -0.0315614,-0.0359657 -0.0246874,-0.0036465 -0.060983,-0.0297337 -0.088363,-0.0376062 -0.0482515,-0.0138995 -0.144692,0.00880866 -0.16568,0.052317 -0.0198195,0.0410655 0.0732064,0.0668852 0.0946753,0.106275 0.01628,0.0298496 0.0355734,0.0160036 0.0394428,0.0604927 0.00118578,0.013534 0.1096,0.0242862 0.130971,0.0359746 0.018286,0.00997661 0.120031,0.0433746 0.127815,0.0114388z"/>
  </g>
  <path class="fil0 str0" d="M0.61584 0.417012c-0.0322122,0 -0.0739553,-0.00600915 -0.0852069,0.0277901 -0.0055277,0.0165742 0.0162443,0.056543 0.0299833,0.0604927 0.016387,0.00470746 0.0275939,0.00666891 0.042599,0.0114477 0.00657975,0.00208626 0.0530749,0.026533 0.0362956,0.0294306 0.022833,0.0157629 0.033933,0.0310621 0.0631139,0.0310621 0.0605462,0 0.0078636,-0.0365542 -0.00789035,-0.052317 -0.0111891,-0.0111891 -0.0198195,-0.0289224 -0.0283963,-0.0425098 -0.00781902,-0.012366 -0.0252224,-0.0342272 -0.0284053,-0.0441414 -0.00263903,0.0047877 -0.00577734,-0.00137301 -0.0126246,-0.00654409 -0.0016494,-0.00124819 -0.0132932,-0.0103867 -0.00946842,-0.0147108z"/>
 </g>
</svg>
