<?xml version="1.0" encoding="UTF-8"?>
<!DOCTYPE svg PUBLIC "-//W3C//DTD SVG 1.1//EN" "http://www.w3.org/Graphics/SVG/1.1/DTD/svg11.dtd">
<!-- Creator: CorelDRAW -->
<svg xmlns="http://www.w3.org/2000/svg" xml:space="preserve" width="5.9933mm" height="9.2421mm" style="shape-rendering:geometricPrecision; text-rendering:geometricPrecision; image-rendering:optimizeQuality; fill-rule:evenodd; clip-rule:evenodd"
viewBox="0 0 1.80005 2.77581"
 xmlns:xlink="http://www.w3.org/1999/xlink">
 <defs>
  <style type="text/css">
   <![CDATA[
    .str0 {stroke:black;stroke-width:0.0600688}
    .fil1 {fill:none}
    .fil0 {fill:white}
   ]]>
  </style>
 </defs>
 <g id="Livello_x0020_1">
  <metadata id="CorelCorpID_0Corel-Layer"/>
  <g id="_124591656">
   <path id="_124591728" class="fil0 str0" d="M0.691061 0.0497069l0.0746354 0.033158c-0.163777,-0.0391348 -0.452047,-0.107643 -0.543742,0.0883611 -0.0421983,0.0901632 -0.19192,0.128397 -0.19192,0.254091 0,0.20117 0.227961,0.285447 0.319866,0.430843 0.10497,0.16597 0.200299,0.254061 0.426458,0.254061 0.0169995,-0.105931 0.775638,-0.433606 0.650364,-0.563385 -0.109415,-0.11338 -0.27076,-0.179215 -0.362485,-0.309324 -0.0443608,-0.062862 -0.369032,-0.162096 -0.373177,-0.187805z"/>
   <path id="_124591680" class="fil1 str0" d="M0.472231 0.0387443c0.0645739,0.142783 0.0304248,0.265684 0.133563,0.386572 0.0597083,0.0699501 0.184291,-0.0603991 0.202552,-0.0110527 0.00696798,0.0187715 0.0213244,0.0683282 0.0213244,0.0883912 0,0.0787201 -0.053281,0.0368522 -0.0213244,0.143594 0.0217749,0.0727433 0.136536,0.0362815 0.202582,0.0552332 0.0344494,0.00991134 0.0735242,0.0303347 0.106622,0.033158 0.0630422,0.00534612 0.0537015,0.0353505 0.110557,0.0554435"/>
  </g>
  <g id="_124549672">
   <path id="_124549744" class="fil0 str0" d="M1.51202 1.65153c-0.0691992,0 -0.286017,-0.0553834 -0.277217,0.0552332 0.00630722,0.0790805 0.0299142,0.169184 0.0213244,0.265143 -0.00594681,0.066376 -0.053311,0.0789003 -0.053311,0.1657 0,0.188376 0.181257,0.352303 0.181257,0.508152 0.0208138,0.00714818 0.000510584,0.00390447 0.0213244,0.0110527l0 0.0221053c0.0490762,0.0168793 0.0617507,0.0662859 0.138609,0.0662859 0.108334,0 0.1487,0.0133052 0.202582,-0.0773385 0.0336986,-0.056795 0.0213244,-0.151944 0.0213244,-0.231986 -0.083856,-0.0289832 -0.159933,-0.282203 -0.159933,-0.397715 0,-0.117765 0.0366419,-0.353505 -0.0959598,-0.386633z"/>
   <path id="_124549696" class="fil1 str0" d="M1.2518 1.83891c0.105571,0.0445109 0.196905,0.0764375 0.238893,0.16612 0.0153476,0.0328276 0.0649343,0.173779 0.0106622,0.187805 0,0.0386242 -0.0293136,0.0214746 -0.0319866,0.0552332 -0.00195223,0.0247483 0,0.05238 0,0.0773385l0.0213244 0c0,0.0583268 0.0324972,0.0246282 0.0426488,0.0773085 0.094398,0.0162486 0.117675,0.150713 0.236671,0.151103"/>
  </g>
 </g>
</svg>
