<?xml version="1.0" encoding="UTF-8"?>
<!DOCTYPE svg PUBLIC "-//W3C//DTD SVG 1.1//EN" "http://www.w3.org/Graphics/SVG/1.1/DTD/svg11.dtd">
<!-- Creator: CorelDRAW -->
<svg xmlns="http://www.w3.org/2000/svg" xml:space="preserve" width="12.1404mm" height="14.3878mm" style="shape-rendering:geometricPrecision; text-rendering:geometricPrecision; image-rendering:optimizeQuality; fill-rule:evenodd; clip-rule:evenodd"
viewBox="0 0 1.25533 1.48771"
 xmlns:xlink="http://www.w3.org/1999/xlink">
 <defs>
  <style type="text/css">
   <![CDATA[
    .str0 {stroke:black;stroke-width:0.0206802}
    .fil1 {fill:none}
    .fil0 {fill:white}
   ]]>
  </style>
 </defs>
 <g id="Livello_x0020_1">
  <metadata id="CorelCorpID_0Corel-Layer"/>
  <g id="_124638504">
   <path id="_124638672" class="fil0 str0" d="M0.166993 0.042808c0,0.0531895 -0.0146829,0.100061 -0.0146829,0.159744 0,0.0679862 0.0572532,0.168223 0.0807562,0.228185 0.0187259,0.047823 0.0460858,0.10794 0.0807562,0.152134 0.0741489,0.0945706 0.153737,0.0688961 0.234917,-0.0152103 0.036666,-0.0379999 0.185284,-0.0912824 0.234917,-0.0912824 0,-0.0902588 0.00995752,-0.113441 -0.0146829,-0.205375 -0.0146829,-0.0547509 -0.00734147,-0.129758 -0.00734147,-0.190165 -0.0886664,0 -0.556494,-0.129179 -0.594639,-0.0380309z"/>
   <path id="_124638624" class="fil1 str0" d="M0.15231 0.202552c0.0715225,0.0502736 0.149311,0.0684515 0.234917,0.0684515 0.0950359,0 0.039158,0.130409 0.0330366,0.174955 -0.0113638,0.00194394 -0.0523416,0.117164 -0.0550611,0.136913l-0.00734147 0.00380516"/>
   <path id="_124638576" class="fil1 str0" d="M0.721253 0.10366c-0.0268016,0.0277735 -0.0611617,0.0481642 -0.0880977,0.0760722 -0.0114155,0.0118291 -0.0287558,0.0434181 -0.0403781,0.049436 -0.0250748,0.0129665 -0.0343912,0.0514937 -0.0550507,0.0646567 -0.0170922,0.0108985 -0.0507699,0.0180125 -0.068741,0.0328919"/>
   <path id="_124638528" class="fil1 str0" d="M0.545068 0.350871c0.0358388,0.00231618 0.0584009,0.023379 0.0880874,0.0380309 0.0173714,0.00857195 -0.00098231,-0.00782746 0.0220244,0.0114155 0.0128528,0.010733 0.00875807,0.00455999 0.0146829,0.0152103 0.00633848,0.0114362 0.0442867,0.0228206 0.0550611,0.0228206 0.015262,0 0.00936814,0.00761032 0.0220244,0.00761032 0.0145589,0 0.0227793,-0.00370176 0.0372657,-0.00737249"/>
  </g>
  <g id="_124638336">
   <path id="_124638456" class="fil0 str0" d="M0.427605 0.795857c0.0419188,0 0.0572015,-0.0177229 0.0917684,-0.0228206 0.0040223,-0.0251678 0.118849,-0.0465615 0.124795,-0.0836721 0.0114982,-0.00169578 0.0129458,-0.000558366 0.0146829,-0.0114155 0.0272979,0 0.0508837,-0.0190155 0.0807562,-0.0190155 0.0212799,-0.0661353 0.204217,0.0377724 0.223905,0.0608515 0.0373795,0.0437903 0.0239994,0.0496118 0.069744,0.079867 0.0226138,0.0149518 0.0697337,0.0308756 0.0697337,0.0608515 0,0.125301 0.0976623,0.0606654 0.128476,0.106493 0.0559296,0.0831758 -0.0738594,0.266764 -0.139488,0.304258 -0.0812525,0.0464167 -0.454841,0.155267 -0.524884,0.0380412 -0.0341947,-0.0572532 -0.0440488,-0.0529 -0.0440488,-0.125508 0,-0.0634159 0.0102057,-0.12403 0.00367074,-0.190165 -0.00477713,-0.0482159 -0.060624,-0.170539 -0.0954392,-0.182555 0,-0.00998854 0.00141659,-0.00817902 -0.00367074,-0.0152103z"/>
   <path id="_124638408" class="fil1 str0" d="M0.427605 0.795857c0.101964,-0.0055423 0.385417,-0.135673 0.385417,0.0456309 0,0.0455895 0.185202,0.0826381 0.231246,0.106493 0.0696303,0.0360766 0.116523,0.0854713 0.198964,0.0920166"/>
   <path id="_124638360" class="fil1 str0" d="M1.04427 0.947981c-0.0143107,0.0199978 -0.0537479,0.0811905 -0.0807562,0.0912824 -0.0202356,0.00754828 -0.0588455,0.00404298 -0.069744,0.0266154 -0.0140419,0 -0.0239787,0.00303999 -0.0293659,0.0114155 -0.0147243,0 -0.0146416,0.00761032 -0.0293659,0.00761032 -0.00153034,0.00800324 -0.00106503,0.00815834 -0.00734147,0.0114051 0,0.0453517 -0.0169578,0.0412674 -0.0256848,0.0684618 -0.01125,0 -0.143159,0.079867 -0.146829,0.0874669 -0.0114258,0 -0.0484848,0.0297692 -0.0513903,0.0418361 -0.0128114,0 -0.0218486,0.00945086 -0.036697,0.0152206"/>
  </g>
  <g id="_124637904">
   <path id="_124638024" class="fil0 str0" d="M0.195893 1.258c-0.0542339,0 -0.102584,-0.00925439 -0.150056,-0.0322404 -0.00479781,-0.00231618 -0.0413294,-0.037731 -0.0347738,-0.0132664 0.0081997,0.030586 0.0340189,0.0673244 0.0457446,0.0910136 0.0102367,0.0206595 0.0176712,0.0531275 0.0054906,0.0758447 -0.0277942,0.0518039 0.0537789,0.0538202 0.0823589,0.0834343 0.0387547,0.040161 0.0603862,-0.0109605 0.0603862,-0.0493016 0.0350943,0 0.0374312,-0.00117877 0.045755,-0.0322301 0.00493223,-0.0183847 0.0450829,-0.0735492 0.0292832,-0.0948084 -0.00978174,-0.0131836 -0.0195014,-0.0208663 -0.0402644,-0.0208663 -0.0195842,0 -0.0278873,-0.0132664 -0.0420946,-0.0132664l-0.0018302 0.00568706z"/>
   <path id="_124637976" class="fil1 str0" d="M0.119077 1.25066c0.0022438,0.0180952 0.00405332,0.02189 -0.00736215,0.0300897 -0.00430148,0.00310203 -0.0036604,0.0138144 -0.0036604,0.0189638 -0.00629712,0.00108571 -0.0036604,0.010216 -0.0036604,0.0170715 0.00509767,0.00174748 0.0124908,0.0120049 0.0201322,0.0170612 0.0142797,0.00945086 0.0136593,0.00939916 0.0256228,0.0246508 0.00662801,0.00845821 0.014714,0.0272152 0.0237822,0.0303379l-0.0036604 0.00568706c0.0022438,0.00173714 0.00472543,0.00520107 0.0054906,0.00758964 0.0105262,0 0.0210111,0.00365006 0.0292832,0.0113741"/>
   <path id="_124637928" class="fil1 str0" d="M0.124526 1.33384c0.0261088,-0.0294073 0.0530551,-0.0284456 0.0896694,-0.0284456 0.0225621,0 0.0440178,0.00743454 0.0637571,0.0184778"/>
  </g>
 </g>
</svg>
