<?xml version="1.0" encoding="UTF-8"?>
<!DOCTYPE svg PUBLIC "-//W3C//DTD SVG 1.1//EN" "http://www.w3.org/Graphics/SVG/1.1/DTD/svg11.dtd">
<!-- Creator: CorelDRAW -->
<svg xmlns="http://www.w3.org/2000/svg" xml:space="preserve" width="3.2296mm" height="2.8401mm" style="shape-rendering:geometricPrecision; text-rendering:geometricPrecision; image-rendering:optimizeQuality; fill-rule:evenodd; clip-rule:evenodd"
viewBox="0 0 0.079819 0.0701926"
 xmlns:xlink="http://www.w3.org/1999/xlink">
 <defs>
  <style type="text/css">
   <![CDATA[
    .str0 {stroke:black;stroke-width:0.00494297}
    .fil1 {fill:none}
    .fil0 {fill:white}
   ]]>
  </style>
 </defs>
 <g id="Livello_x0020_1">
  <metadata id="CorelCorpID_0Corel-Layer"/>
  <g id="_124638072">
   <path id="_124638288" class="fil0 str0" d="M0.0248433 0.0025135c-0.00572643,0.00136673 -0.0114751,0.00846977 -0.014038,0.0118162 -0.00633441,0.00828688 0.0125749,0.0148462 -0.00613916,0.0209087 -0.0080076,0.00259259 0.00809658,0.0101059 0.0114034,0.0118186 0.00871939,0.00450798 0.0221124,0.0105631 0.0289534,0.0154542 0.0109314,0.00780989 0.0177131,0.00454506 0.0307057,0.00454506 0.00139639,-0.0101454 0.00352928,-0.0157804 -0.00175475,-0.0227278 -0.00446103,-0.00586977 0.00235038,-0.0139688 0.000877376,-0.0163612 -0.00462167,-0.00750342 -0.0137785,-0.016685 -0.0219319,-0.0209087 -0.00956464,-0.00495285 -0.0159707,-0.00272852 -0.028076,-0.00454506z"/>
   <path id="_124638240" class="fil1 str0" d="M0.0170162 0.007323c0.0101998,0.0107262 0.00607243,0.00523954 0.00607243,0.0151897 0,0.00325 0.000207605,0.00538289 0.000877376,0.00818061 0.00226882,0 0.00350209,0.000909506 0.00614163,0.000909506 0.0024789,0 0.00433992,0.000909506 0.00701901,0.000909506 0.000219962,-0.00161635 0.00160399,-0.00468346 0.000877376,-0.00636407 -0.00156939,-0.00363555 -0.00729335,-0.0154542 0.000877376,-0.0154542 0.00111217,-0.00693498 0.00826464,0.00278783 0.000239734,-0.00712776"/>
   <path id="_124638192" class="fil1 str0" d="M0.03792 0.0293538c0.00906787,0.00882566 -0.00743422,0.00604277 0.00973517,0.000430038 0.00159905,-0.000523954 0.00524943,0 0.00701901,0 0.00286939,0 0.00470817,-0.000709316 0.00701901,-0.000909506 0.00391977,-0.000331179 0.00659639,0.00152985 0.00964867,0.00363802 0.00110475,0.000763688 0.00355646,0.00202662 0.00438688,0.00272605 0.00201179,0.00168802 -0.00113194,0.000911977 -0.00281255,0.000914449"/>
   <path id="_124638144" class="fil1 str0" d="M0.023966 0.0306933c-0.00102072,0.00381103 -0.00195989,0.00553118 -0.00430779,0.00796312 -0.00154962,0.00160399 -0.00255304,0.00495038 -0.00461179,0.00547681 0.000499239,-0.000385551 0.000261977,-5.93156e-005 0.000659886,-0.000682129"/>
   <path id="_124638096" class="fil1 str0" d="M0.0301076 0.0316028c0.00109734,0.00215019 0.00106521,0.00363308 0.00206863,0.00545703 0.00133954,0.00242947 0.00251844,0.00448574 0.00527167,0.00639125 0.00394201,0.00272852 0.0120065,0.00567205 0.0133979,0.00935703 0.000570912,0.0015249 0.00118137,0.00335627 0.00153479,0.00502205 0.000153232,0.000719201 0.00233555,0.00755779 0.00241711,0.00753308"/>
  </g>
 </g>
</svg>
