<?xml version="1.0" encoding="UTF-8"?>
<!DOCTYPE svg PUBLIC "-//W3C//DTD SVG 1.1//EN" "http://www.w3.org/Graphics/SVG/1.1/DTD/svg11.dtd">
<!-- Creator: CorelDRAW -->
<svg xmlns="http://www.w3.org/2000/svg" xml:space="preserve" width="2.6933mm" height="1.9803mm" style="shape-rendering:geometricPrecision; text-rendering:geometricPrecision; image-rendering:optimizeQuality; fill-rule:evenodd; clip-rule:evenodd"
viewBox="0 0 0.0726454 0.0534139"
 xmlns:xlink="http://www.w3.org/1999/xlink">
 <defs>
  <style type="text/css">
   <![CDATA[
    .str0 {stroke:black;stroke-width:0.00539453}
    .fil1 {fill:none}
    .fil0 {fill:white}
   ]]>
  </style>
 </defs>
 <g id="Livello_x0020_1">
  <metadata id="CorelCorpID_0Corel-Layer"/>
  <g id="_124591776">
   <path id="_124637616" class="fil0 str0" d="M0.0482217 0.0039434l-0.000717472 -0.00124614c-0.00812146,0 -0.0160541,0.00199328 -0.0242053,0.00199328 -0.00441003,0 -0.0210899,0.000706683 -0.0206125,0.00672698 0.000439654,0.00556176 0.00977219,0.00836152 0.0105436,0.0149428 0.00129469,0.0110669 0.0107945,0.0147567 0.0206125,0.0196792 0.00411872,0.00206341 0.00576406,0.00557525 0.0112638,0.00448285 0.00339046,-0.000674316 0.0193987,-0.00317198 0.0203724,-0.00672428 0.00661909,0 0.0057182,-0.00835882 -0.00143764,-0.00896571 -0.00272693,-0.000234662 -0.00751997,-0.000194203 -0.00982614,-0.00149698 -0.00164263,-0.000922465 -0.00594207,-0.0043372 -0.00695085,-0.00448555 -0.0011868,-0.00857461 0.00823475,-0.0153447 0.00287528,-0.0246557 -0.000636555,0.000277818 -0.00135942,0.000186111 -0.00191776,-0.000250846z"/>
   <path id="_124637568" class="fil1 str0" d="M0.023299 0.00469054c0.00197979,0.003849 0.0033554,0.00707223 0.0033554,0.011458 0,0.00462851 0.00323132,0.00913024 0.00742827,0.0107081 0.00245451,0.000922465 0.00558873,0.00199328 0.0083858,0.00199328 0.00193664,0 0.00525157,-0.001087 0.00613628,0.000671619"/>
  </g>
 </g>
</svg>
