<?xml version="1.0" encoding="UTF-8"?>
<!DOCTYPE svg PUBLIC "-//W3C//DTD SVG 1.1//EN" "http://www.w3.org/Graphics/SVG/1.1/DTD/svg11.dtd">
<!-- Creator: CorelDRAW -->
<svg xmlns="http://www.w3.org/2000/svg" xml:space="preserve" width="7.9805mm" height="4.8629mm" style="shape-rendering:geometricPrecision; text-rendering:geometricPrecision; image-rendering:optimizeQuality; fill-rule:evenodd; clip-rule:evenodd"
viewBox="0 0 55.6036 33.8819"
 xmlns:xlink="http://www.w3.org/1999/xlink">
 <defs>
  <style type="text/css">
   <![CDATA[
    .str0 {stroke:black;stroke-width:1.39349}
    .fil1 {fill:none}
    .fil0 {fill:white}
   ]]>
  </style>
 </defs>
 <g id="Livello_x0020_1">
  <metadata id="CorelCorpID_0Corel-Layer"/>
  <g id="_124481960">
   <path id="_124482032" class="fil0 str0" d="M12.4174 9.54121c-1.7112,-0.817977 -3.34716,-0.383209 -5.17959,-0.383209 -0.209023,-0.758754 -1.25484,-0.899496 -1.35586,-1.53353 -0.859085,-0.356036 -1.34332,-0.766418 -2.34315,-0.766418l-0.123324 0.255705 -0.369971 0c-0.181153,0.282181 -0.439645,0.422227 -0.739942,0.510713l-0.246647 0.255705c-0.160251,0.497475 -0.0863962,0.0132381 -0.246647,0.510713 -0.397841,0.11775 -0.434071,0.339314 -0.493294,0.767115 -0.744122,0.440342 -0.616618,1.33775 -0.616618,2.17175 0.450096,0.154677 0.0522558,0.0362307 0.369971,0.255705 0,0.351855 -0.0501655,0.606864 0.123324,0.894619 0.185334,0.307264 0.442432,0.778959 0.493294,1.14963l0.123324 0.127504 0.246647 0c0.204843,0.318412 0.606167,0.470302 0.986589,0.638914 0.0912734,0.23759 0.343495,0.627069 0.493294,0.766418 0.508623,0.472392 0.836789,0.918308 1.35656,1.40603 0.42362,0.398537 0.565059,0.464728 1.10991,0.510713 0.429891,0.0362307 1.44435,0.786623 1.72583,1.02212 0.285665,0.238286 0.392267,0.45149 0.739942,0.51141 0.406201,0.0689776 0.514893,0.255705 0.986589,0.255705 0.206933,-0.375545 0.436858,-0.480753 0.493294,-0.894619 0.776172,-0.114963 0.983802,-1.34123 1.72653,-1.53353 0.0473786,-0.297509 0.450793,-0.822157 0.739942,-1.02212 0.0654939,-0.480056 0.33165,-0.686292 0.493294,-1.02212 0.480056,-0.12402 1.23324,-1.35586 1.23324,-1.91604 0,-0.516984 0.101028,-0.758057 -0.246647,-1.15032 -0.340011,-0.383906 -0.477269,-0.691866 -0.986589,-0.766418l-0.246647 -0.255705c-0.0431981,-0.314928 -0.185334,-0.638914 -0.246647,-0.766418z"/>
   <path id="_124481984" class="fil1 str0" d="M5.88191 12.0962c3.12071,1.61714 0.924579,0.57551 0.739942,0.383906l0.24595 0.127504 0 0.127504c0,0.252221 0.3637,0.114266 0.493294,0.383209 0.351855,0.0606167 0.259189,0.140742 0.493294,0.383906 0.15189,0.156767 0.342101,0.225745 0.493294,0.383209 0.0933636,0.0961506 0.159554,0.152587 0.246647,0.255008 0.0654939,0.075945 0.054346,0.184637 0.123324,0.255705l0.123324 0.128201 0 0.127504c0,0.309354 0.353249,0.220171 0.493294,0.510713l0.246647 0.128201"/>
  </g>
  <g id="_124481840">
   <path id="_124481912" class="fil0 str0" d="M31.4691 0.788714c-0.564362,0.17976 -0.812403,0.293329 -1.0486,0.447309 -0.174883,0.114963 -0.420136,0.18185 -0.615921,0.255705 -0.132381,0.0480753 -0.252221,0.051559 -0.369971,0.127504 -0.399931,0.259189 -0.234106,-0.0404111 -0.369971,0.383209l-0.369971 0c-0.118446,0.18394 -0.0919701,0.128201 -0.369971,0.128201 -0.081519,0.126807 -0.174883,0.165128 -0.369971,0.255008 -0.0891832,0.0425014 -0.160251,0.078732 -0.246647,0.128201 -0.115659,0.0668874 -0.296813,0.0139349 -0.369971,0.127504l-0.246647 0.383209c-0.176276,0.275214 -0.480753,-0.180457 -0.616618,0.383209 -0.420136,0.0724613 -0.246647,0.319805 -0.616618,0.51141 0,0.286362 -0.0850027,0.90298 0,1.14963 0.0390176,0.112872 0.199965,0.147013 0.246647,0.255705 0.0557395,0.132381 0.0445916,0.264763 0.123324,0.383209 0.276607,0.414562 0.478663,0.886954 0.616618,1.40603 0.0473786,0.176973 -0.0167218,0.450793 0,0.638217 0.0362307,0.403414 0.246647,0.445916 0.246647,0.894619 1.17192,0 2.28532,0.127504 3.45236,0.127504l3.45306 0c0.507229,0 1.53911,0.158858 1.97318,-0.127504 0.45567,-0.30169 0.640307,-0.91134 0.986589,-1.14963l0 -1.02212c0,-0.661906 -0.0278697,-1.10085 -0.246647,-1.66104 -0.0501655,-0.126807 -0.0522558,-0.268246 -0.123324,-0.383209 -0.231319,-0.375545 -0.682809,-0.920398 -0.739942,-1.27783 -0.494688,-0.146316 -0.170702,-0.307264 -0.616618,-0.383209 -0.0501655,-0.317018 -0.14771,-0.45149 -0.493294,-0.638914 -0.121233,-0.0661906 -0.395054,-0.0822157 -0.493294,-0.128201 -0.234803,-0.107298 -0.215294,-0.15189 -0.493294,-0.255008 -0.39157,-0.145619 -0.900889,-0.383906 -1.35656,-0.383906l0 -0.383209 -0.369971 0c-0.192301,-0.249434 -0.114266,-0.392963 -0.554608,-0.191604z"/>
   <path id="_124481864" class="fil1 str0" d="M32.147 3.02456c-0.537189,0.139349 -0.639611,-0.0327469 -0.739942,0.383209l-0.246647 0.128201c-0.129594,0.0773385 -0.258492,0.152587 -0.369971,0.255705 -0.169309,0.157464 -0.158161,0.200662 -0.369971,0.255008 -0.0466818,0.195785 -0.135865,0.310748 -0.246647,0.51141 -0.351855,0.121233 0.157464,0.0369274 -0.369274,0.127504 -0.0564362,0.234106 -0.0209023,0.197875 -0.246647,0.255705l0 0.255705 0.246647 0.255705c0.081519,0 0.167915,-0.0222958 0.24595,0 0.294026,0.084306 0.214597,0.127504 0.493294,0.127504 0.193695,0.114266 0.305174,0.206933 0.493294,0.255705 0.233409,0.564362 -0.0153284,0.220171 0.616618,0.766418"/>
  </g>
  <g id="_124481672">
   <path id="_124481792" class="fil0 str0" d="M44.4787 21.4235c-0.516287,-0.200662 -0.538583,-0.292632 -0.986589,-0.255705 -0.346282,0.02996 -1.3266,0.498868 -1.60321,0.638914 -0.470302,0.238286 -0.978228,0.638914 -1.47988,0.638914l-0.123324 0.255705c-1.06671,0.183244 -0.986589,2.90124 -0.986589,3.96099l0 2.17175c0,0.468908 0.123324,0.808919 0.123324,1.27783 0,0.418046 0.246647,0.643094 0.246647,1.02212 0.380422,0.0982408 0.670964,0.127504 1.10991,0.127504 0.574813,0 1.63944,0.424317 2.21982,0.638914 0.350462,0.129594 0.758057,0.298206 1.10991,0.383209 0.454277,0.111479 0.594322,0.383906 1.10991,0.383906 0.497475,0.618708 1.99617,0.510713 2.83575,0.510713 0.284968,-0.443129 1.07717,-0.458457 1.60321,-0.510713 0.619405,-0.0620102 0.893225,-0.376241 1.47988,-0.51141 0.353249,-0.549731 1.12106,-0.45149 1.23324,-1.14963l0.369971 -0.128201c0.311444,-0.565756 0.862568,-1.12872 0.862568,-1.78854 0.314231,-0.216687 -0.057133,-0.834699 0.493294,-1.40533l0 -0.383209c0.422923,-0.328166 0.0181153,-0.475179 0.493294,-0.638914 0,-0.537189 0.246647,-0.908554 0.246647,-1.53353 0,-0.579691 0.277304,-1.44296 -0.246647,-1.53284 -0.0620102,-0.45567 -0.456367,-0.862568 -0.616618,-1.27783 -1.47152,-0.653545 -3.4447,-1.66104 -5.05557,-1.66104 -0.690473,0 -1.76485,-0.0780353 -2.34315,0.255705 -0.335134,0.192301 -0.704408,0.127504 -1.10991,0.127504l-0.985892 0.383209z"/>
   <path id="_124481744" class="fil1 str0" d="M43.3688 23.7234l0.493294 0.255705 0.123324 0.127504 0.123324 0 0.123324 0.255705 0.123324 0c0.114963,0 0.170005,0.166522 0.246647,0.255705 0.121233,0.142136 0.217384,0.328863 0.246647,0.510713 0.057133,0.363003 0.0996343,0.353946 0.123324,0.766418 0.00836092,0.1498 0.0661906,0.628463 0,0.767115l-0.123324 0.255008 -0.123324 0.128201c-0.309354,0.319805 -0.261279,0.298206 -0.369971,0.638914l-0.246647 0 0 0.127504 -0.246647 0c-0.218777,0 -0.334437,0.465425 -0.246647,0.51141"/>
   <path id="_124481696" class="fil1 str0" d="M44.972 25.8952c0.968473,0.369274 1.08622,0.974744 1.84916,0.255705 0.217384,0 1.14545,-0.0278697 1.35656,0 0.475179,0.0627069 1.00401,0.293329 1.47988,0.383209 0.326773,0.0627069 0.765721,0 1.10991,0l0.739942 0"/>
  </g>
 </g>
</svg>
