<?xml version="1.0" encoding="UTF-8"?>
<!DOCTYPE svg PUBLIC "-//W3C//DTD SVG 1.1//EN" "http://www.w3.org/Graphics/SVG/1.1/DTD/svg11.dtd">
<!-- Creator: CorelDRAW -->
<svg xmlns="http://www.w3.org/2000/svg" xml:space="preserve" width="5.6328mm" height="13.1897mm" style="shape-rendering:geometricPrecision; text-rendering:geometricPrecision; image-rendering:optimizeQuality; fill-rule:evenodd; clip-rule:evenodd"
viewBox="0 0 44.2147 103.533"
 xmlns:xlink="http://www.w3.org/1999/xlink">
 <defs>
  <style type="text/css">
   <![CDATA[
    .str0 {stroke:black;stroke-width:1.5699}
    .fil1 {fill:none}
    .fil0 {fill:white}
   ]]>
  </style>
 </defs>
 <g id="Livello_x0020_1">
  <metadata id="CorelCorpID_0Corel-Layer"/>
  <g id="_124482512">
   <path id="_124482632" class="fil0 str0" d="M42.3151 9.44687c-0.952929,-2.63429 -3.71517,-8.66192 -6.68777,-8.66192 -1.71826,0 -3.75677,0.577723 -6.12967,0.577723 -3.72223,0 -7.95311,0.556529 -11.4249,1.15466 -2.52361,0.434862 -8.79772,6.05824 -9.1949,8.95078 -0.70881,0.244904 -0.6311,0.301421 -0.835972,1.15466 -0.948219,0.162485 -0.248044,0.354012 -1.11463,0.576938 -0.23627,0.985112 -1.11463,1.80224 -1.11463,2.88783 0,3.3172 0.278657,6.29216 0.278657,9.52772 -1.11698,0.191528 -1.67194,5.13043 -1.67194,6.63989 -0.872864,0.149925 -0.557314,0.485884 -0.557314,1.44352 -3.55111,1.22609 4.48206,17.3333 6.96643,18.1896 0,1.13582 1.09108,2.9153 1.39329,4.04171 0.376776,1.4082 0.837541,2.88862 1.11463,4.33057 0.551035,0.189958 0.557314,0.743347 0.557314,1.44352 0.590282,0.204087 0.574583,1.25749 1.11463,1.44352l-0.557314 0.577723 0.557314 0c0.171119,-1.07224 1.13818,-0.671917 1.39329,-1.73238 1.17428,-0.302991 7.30239,-3.9899 7.52296,-4.90829 1.96708,-0.507863 4.02365,-4.37296 5.57314,-4.90829 0,-2.1123 2.52754,-4.28897 3.34389,-6.35103 1.05497,-2.66961 1.9506,-3.79916 1.9506,-6.64068 1.06439,-0.367357 1.27319,-8.14464 1.3925,-9.52772 0.154635,-1.77085 0.00549465,-3.06994 0.835972,-4.61943 0.546325,-1.02043 2.78265,-4.71441 3.34389,-4.90829 0,-1.0118 0.262173,-1.5856 1.11463,-1.73238 0.270023,-1.68215 1.9506,-2.38154 1.9506,-4.33057 0,-1.96394 -0.441927,-2.40352 -1.11463,-4.61943z"/>
   <path id="_124482584" class="fil1 str0" d="M35.906 5.69324c-0.733143,3.0409 -2.4773,5.45462 -4.45773,7.50648 -1.13425,1.17507 -1.84856,1.82972 -2.78657,3.17591 -0.524346,0.751982 -1.37209,3.31641 -1.9506,3.46477 0,1.85013 -0.557314,3.26696 -0.557314,5.19715 0,1.02279 0.0219786,1.64212 0.278657,2.59818 0.257464,0.962348 -0.278657,2.16568 0,2.88705l0.557314 -0.576938c0.508647,1.2308 0.15071,2.44355 0.278657,3.75285 0.144431,1.48591 0,1.43646 0,2.59897 0,1.49533 -0.0596562,1.38151 0.835972,2.30932 0.478819,0.496873 0.226066,1.06047 0.278657,1.73238 0.0832047,1.0432 0.660143,2.07305 0.835972,3.17591 0.0894843,0.560454 0.620895,0.573798 0.835972,1.15466 0.0659358,0.178969 0.0384625,0.390905 0,0.577723 -0.164055,0.804574 -0.0047097,0.85324 -0.278657,0"/>
   <path id="_124482536" class="fil1 str0" d="M23.2023 32.2552c-1.61072,3.91376 -1.05183,1.81873 -1.22845,4.04249 -0.0368926,0.462335 -0.241765,0.403464 -0.278657,0.8658 -0.117742,1.49611 0,3.11233 0,4.61943 0,1.03221 -0.463905,1.4396 -0.835972,2.31011 -0.410529,0.956854 -1.11463,0.685261 -1.11463,2.02046l-0.557314 0c-0.246474,0 -0.278657,1.38858 -0.278657,1.73238 -1.04791,0.361862 -0.218216,-0.258248 -0.557314,0.866585 -0.130302,0.434862 -0.278657,0.540045 -0.278657,1.15466 0,0.337528 -0.0486669,0.847746 0,1.15466 0.0486669,0.306915 0.374421,0.332034 0.557314,0.577723 0.175044,0.23627 -0.0989037,1.36189 0,1.73238 0.217431,0.813993 0.557314,1.74416 0.557314,2.59818 0,1.48983 0.647584,2.45768 1.18763,3.93103"/>
  </g>
  <g id="_124482080">
   <path id="_124482200" class="fil0 str0" d="M16.4015 82.7808c-0.812423,-0.193883 -2.47966,-0.886993 -3.34389,-0.577723 -0.168764,0.0596562 -0.666422,0.510217 -0.835972,0.577723 -0.223711,0.0894843 -1.1735,0 -1.39329,0 -0.742563,0.923101 -0.765326,0.177399 -1.39329,1.15466 -0.698605,0 -1.76143,0.275517 -1.9506,0.866585 -0.871294,0 -2.17117,0.456056 -2.50791,1.15466 -0.0062796,0 -1.03692,-0.0439572 -1.11463,0 -0.994531,0.573013 -0.166409,0.576938 -1.11463,0.576938l0 0.288862c0,0.977263 -0.969413,0.534551 -1.11463,1.44352 -0.692326,0.204872 -0.744132,-0.16327 -0.835972,0.866585 -0.0329679,0.374421 0,0.77553 0,1.15466l0.278657 0c0.277872,0 -0.197022,0.662498 0,0.8658l0.278657 0.288862c0.613046,0.635024 0,2.52518 0,3.46477 0,0.489024 -0.122452,1.56205 0,2.02125 0.0596562,0.222926 0.178969,0.370496 0.278657,0.576938 0.310055,0.645229 0.278657,0.257464 0.278657,1.15545 0.54397,0.186818 0.0141291,0.101259 0.557314,0.288077 0.0455271,0.284937 0.0949789,0.361862 0.278657,0.577723 0.411314,0.481174 0.429368,0.667992 0.835972,1.15466 0.122452,0.146001 1.01102,0.866585 1.11463,0.866585l0.278657 0c0.813993,0 0.126377,0.582433 1.11463,0.8658 0.915252,0.262958 2.62487,0 3.62254,0 0.86423,0 1.36424,0.106753 2.22926,0.288862 0.840681,0.178184 1.49768,-0.181323 2.22926,-0.288862l0 -2.02046c0.565164,-0.390905 0.529056,-0.295926 0.835972,-0.866585 0.55025,-1.02828 -0.127947,-0.70096 0.835972,-0.8658l0 -2.02125c0.400324,-0.277087 0.278657,-0.212721 0.278657,-0.866585l0 -1.44352c0,-0.602057 -0.198592,-1.27947 0.278657,-1.44352 -0.407389,-0.985112 -0.480389,-2.56757 0,-3.46398 0.461551,-0.86266 -0.304561,-1.41762 0.278657,-2.02125l0.277872 -0.288862c0.460766,-0.477249 -0.31712,-0.949789 0.278657,-1.15466l-0.556529 -0.577723c0,-0.892488 -0.278657,-1.38151 -0.278657,-2.59818z"/>
   <path id="_124482152" class="fil1 str0" d="M1.6327 88.266c0.540045,0.183678 1.08323,0.360292 1.60836,0.581648 0.518067,0.217431 0.268453,0.177399 0,0.288077 0.258248,0.134226 0.499228,0.435647 0.694681,0.719799 0.332034,0.0682906 0.846176,0.369711 1.11149,0.575368l0.277872 0c0.270023,0.16013 0.343023,0.211936 0.555744,0.432507l3.05581 0c0.259033,-0.201732 0.351658,-0.144431 0.694681,-0.144431l0.416808 -0.143646 0.277872 -0.288077c0.418378,-0.0612261 0.415238,-0.226851 0.833617,-0.288077l0.277872 -0.288077c0.405819,-0.419948 0.754337,-0.713519 1.25043,-1.00709l0.277872 -0.288077c0.0494518,-0.364217 0.102828,-0.557314 0.416808,-0.719799 0.198592,-0.480389 0.0094194,-0.361077 0.416808,-0.431722l0.138936 -0.288077c0.135796,-0.328109 0.138936,-0.266098 0.138936,-0.575368 0.204087,-0.141291 0.0730003,-0.146786 0.277872,-0.288077l0 -0.431722 0 -0.144431"/>
   <path id="_124482104" class="fil1 str0" d="M8.93665 90.8634c0.0431722,0.679767 0.46469,0.669562 0,1.15152l0 2.73477 0 1.29517c0,0.273947 0.0219786,0.591852 0,0.86423 -0.0227635,0.300636 -0.138936,0.330464 -0.138936,0.719014l-0.277872 0c-0.0816348,0 0,0.905047 0,1.00788"/>
  </g>
 </g>
</svg>
