<?xml version="1.0" encoding="UTF-8"?>
<!DOCTYPE svg PUBLIC "-//W3C//DTD SVG 1.1//EN" "http://www.w3.org/Graphics/SVG/1.1/DTD/svg11.dtd">
<!-- Creator: CorelDRAW -->
<svg xmlns="http://www.w3.org/2000/svg" xml:space="preserve" width="7.5168mm" height="6.2784mm" style="shape-rendering:geometricPrecision; text-rendering:geometricPrecision; image-rendering:optimizeQuality; fill-rule:evenodd; clip-rule:evenodd"
viewBox="0 0 1.33287 1.11328"
 xmlns:xlink="http://www.w3.org/1999/xlink">
 <defs>
  <style type="text/css">
   <![CDATA[
    .str0 {stroke:black;stroke-width:0.0354638}
    .fil1 {fill:none}
    .fil0 {fill:white}
   ]]>
  </style>
 </defs>
 <g id="Livello_x0020_1">
  <metadata id="CorelCorpID_0Corel-Layer"/>
  <path class="fil0 str0" d="M0.115045 0.796428c-0.0149835,0.00356411 -0.0154445,0.004167 -0.0250906,0.0129975 -0.00625936,0.00576287 -0.011242,0.0124478 -0.0156927,0.0195228 -0.00384782,0.00606431 -0.00838719,0.00757152 -0.0125542,0.0129975 -0.0016136,0.0021101 -0.00443297,0.0135117 -0.00627709,0.0162602 -0.0150544,0.0225904 -0.0262255,0.0443829 -0.034524,0.0682855 -0.0037237,0.0106746 -0.00313855,0.0176964 -0.00313855,0.0292576 0,0.0136181 0.00627709,0.0173241 0.00627709,0.0292754 0.00422019,0.00290803 0.0102845,0.0130329 0.0156927,0.0195051 0.0057806,0.0069509 0.0131039,0.0125187 0.0188313,0.0195051 0.00927378,0.0113661 0.0196292,0.0184766 0.0313855,0.0292754 0.00913193,0.00838719 0.0157814,0.0148239 0.0250906,0.02275 0.0116676,0.00991213 0.0189199,0.0162602 0.034524,0.0162602l0.0251084 0c0.012696,0 0.0289917,0.0107101 0.034524,-0.00648987 0.00109938,-0.00342226 0.00028371,-0.0189022 0,-0.0227678 -0.000673812,-0.00845812 -0.00677359,-0.0119336 -0.00313855,-0.0195051 -0.00797935,-0.0110115 0.00163133,-0.0149835 0.00313855,-0.0260127 0.00629482,-0.00218102 0.009061,-0.00484081 0.0125542,-0.0130152 0.00446844,-0.0104796 0.00851131,-0.0146643 0.00941564,-0.0260127 0.000585153,-0.00767791 0.000195051,-0.00805028 0.00627709,-0.0129975 0.00480534,-0.00395421 0.00727008,-0.00840492 0.0125542,-0.00977028 0.00196824,-0.0122527 -0.000496493,-0.000815667 0.00627709,-0.0129975 0.00253566,-0.00461029 0.00386555,-0.00826306 0.00627709,-0.0130152 0.00657853,-0.0129266 0.0333714,-0.0402514 0.0125542,-0.0552703 -0.00487627,-0.00351092 -0.0151076,-0.00670266 -0.0188313,-0.00975254 -0.00264205,-0.00216329 -0.00347545,-0.00461029 -0.00627709,-0.00650761 -0.0132635,-0.00897234 -0.0230869,-0.0140614 -0.0376626,-0.0195051 -0.00767791,-0.00287257 -0.0164729,-0.00402514 -0.0251084,-0.00650761 -0.0140437,-0.00402514 -0.0258531,-0.0117031 -0.0376626,-0.0195051 -0.00742967,-0.004894 -0.0149657,-0.00523091 -0.0219698,-0.00975254 -0.00546142,-0.00356411 -0.02275,-0.00326267 -0.0125542,-0.00650761z"/>
  <path class="fil0 str0" d="M0.689363 0.581819c-0.0938372,0.0870991 -0.0927201,0.108572 -0.166343,0.139816 -0.00703956,0.00299669 -0.0175546,8.86595e-005 -0.0188313,0.0130152 -0.000709276,0.00728781 0.00966388,0.0145224 0.0156927,0.0195051 0.00280164,0.00226968 0.00663173,0.000992986 0.00941564,0.00324494 0.0041138,0.00335133 0.00599338,0.00891914 0.00941564,0.0130152 0.00345772,0.00414926 0.00523091,0.00969935 0.00941564,0.0129975 0.00400741,0.00313855 0.00888368,0.00297896 0.0125542,0.00650761 0.004894,0.00473442 0.00755379,0.0116676 0.0125542,0.0162602 0.00425566,0.00393648 0.0110115,0.00313855 0.0156927,0.00650761 0.00430885,0.00312081 0.00567421,0.00913193 0.00941564,0.0129975 0.0107987,0.0111888 0.0257113,0.0227146 0.0376626,0.0325203 0.00276618,0.00230515 0.00625936,0.00154268 0.00941564,0.00324494 0.00335133,0.00184412 0.00359958,0.0070041 0.00627709,0.00977028 0.0045039,0.00466349 0.0301974,0.0165616 0.0376626,0.0195051 0.0131748,0.00517771 0.0390279,0.00650761 0.0533376,0.00650761 0.00156041,-0.0113484 0.00230515,-0.00475215 0.00627709,-0.0130152 0.0012235,-0.00253566 0.00065608,-0.0258886 0,-0.0292576 -0.00478761,-0.0243636 -0.0358007,-0.047291 -0.0282469,-0.0747931 0.00260659,-0.00943337 0.00313855,-0.0150721 0.00313855,-0.0260127 0,-0.0110292 0.00886595,-0.0274667 0.0125542,-0.0390279 0.00386555,-0.0120045 0.00322721,-0.0176078 0.0125542,-0.0292576 0.00492947,-0.00618843 0.00925605,-0.0142564 0.0125542,-0.0195051 0.0078375,-0.0123769 0.0152317,-0.0190086 0.0188313,-0.0325203 0.00239381,-0.00893688 0,-0.0261014 0,-0.0357652l-0.00627709 -0.00650761c-0.011969,-0.00175546 -0.00679132,-0.00569194 -0.0156927,-0.00975254 -0.0099476,-0.00459256 -0.0192568,-0.00563874 -0.0282469,-0.00975254 -0.0141501,-0.00648987 -0.0179979,-0.00977028 -0.0345063,-0.00977028l-0.00627709 0.00326267 0 0.00975254 0 0.00650761z"/>
  <g id="_124388704">
   <path id="_124388776" class="fil0 str0" d="M1.07851 0.383452c-0.0270234,0.0170936 -0.0709808,0.0162602 -0.103572,0.0162602 -0.00147175,0.0061707 -0.0244878,0.031545 -0.0282469,0.0325203 -0.002447,0.0102136 -0.018122,0.0317933 -0.0251084,0.0390279 -0.0317401,0.0328927 -0.0337261,0.096958 -0.00627709,0.133308 0.0195051,0.0258531 0.0428225,0.0420246 0.0659095,0.0617957 0.00968162,0.00831626 0.0252148,0.0125365 0.0376626,0.0162424 0.00934471,0.00281937 0.0265447,0.00641895 0.034524,0.0130152 0.0401982,0 0.0633383,0.0138131 0.100416,-0.00324494 0.0168453,-0.00774884 0.0176432,-0.0170404 0.0282469,-0.0292754 0.0126606,-0.0146465 0.0302684,-0.0270589 0.0470782,-0.0357652 0.00430885,-0.0119158 0.0114371,-0.0151076 0.0219698,-0.0260127 0.0197179,-0.0204449 0.0165793,-0.0465285 0.0282469,-0.0682855 0.00854678,-0.0159232 0.0109938,-0.0312791 0.0188135,-0.0487805 0.00627709,-0.0140614 0.0041138,-0.0279277 0.00941564,-0.0422728 0.011969,-0.0322011 0.00627709,-0.0798467 0.00627709,-0.117048 -0.00398968,-0.00414926 -0.0180865,-0.0376803 -0.0188313,-0.0422728 -0.0116499,-0.00171999 -0.0191682,-0.0120754 -0.0313677,-0.0162602 -0.0108519,-0.00374143 -0.0197179,-0.00326267 -0.0313855,-0.00326267 -0.00819214,0.00849358 -0.0172531,0.0143983 -0.0188313,0.0260127 -0.00971708,0.00672039 -0.0455001,0.0455001 -0.0470782,0.0552881 -0.0324848,0.00959296 -0.0321657,0.0455178 -0.0721866,0.0455178 -0.0719383,0 0.0520431,-0.049667 -0.015675,-0.00650761z"/>
   <path id="_124388728" class="fil1 str0" d="M1.18206 0.425725c-0.0113307,0.0029435 -0.0141855,0.0029435 -0.0219698,0.00650761 -0.00482308,0.00221649 -0.00838719,0.00457483 -0.0125542,0.00650761 -0.00437978,0.0020037 -0.00879502,0.00462803 -0.0125542,0.00650761 -0.00473442,0.00239381 -0.00838719,0.00638348 -0.0125542,0.00975254 -0.00962842,0.00781977 -0.0167212,0.0120932 -0.0282469,0.0195051 -0.00546142,0.00352865 -0.00654307,0.00524864 -0.0125365,0.00975254 -0.00280164,0.00207463 -0.00640122,0.00457483 -0.00941564,0.00650761 -0.00491174,0.00312081 -0.00707503,0.00691544 -0.0125542,0.00975254l-0.00627709 0.00326267c-0.00526637,0.00271298 -0.00625936,0.0086709 -0.0125542,0.0129975 -0.00214556,0.0111179 -0.00313855,0.0173773 -0.00313855,0.0292576 0.00209236,0.00218102 0.00407834,0.0045039 0.00627709,0.00650761 0.0040606,0.00374143 0.00914966,0.00686224 0.0125542,0.00975254 0.0062239,0.00528411 0.0091142,0.00943337 0.0156927,0.0130152 0.0118981,0.00654307 0.0208172,0.0138309 0.0313677,0.0227678 0.00741193,0.00629482 0.0245055,0.0236366 0.0313855,0.0260127"/>
  </g>
  <path class="fil0 str0" d="M0.284526 0.243636l0.0376448 0.0130152c-0.0702006,0 -0.140862,0.00324494 -0.210265,0.00324494 -0.0138131,0.00769564 -0.0192746,0.00975254 -0.0345063,0.00975254l-0.00941564 0.00650761c0,0.0114725 -0.00313855,0.0204271 -0.00313855,0.0325203l0.00941564 0.00324494c0.00914966,0.00948657 0.0181043,0.014416 0.0251084,0.0260127 0.0124655,0.00322721 0.0190618,0.0163311 0.0313677,0.0195051 0.0130152,0.0117917 0.0232997,0.021757 0.0376626,0.0325203 0.00354638,0.0164907 0.0177674,0.0319351 0.0282469,0.0455355l0 0.0129975 0.00627709 0.00975254 0 0.0227678 0.00627709 0.00975254c0,0.0247537 0.00627709,0.0498266 0.00627709,0.0747931 0.00725235,0.00875956 0.00627709,0.00400741 0.00627709,0.0129975l0.00941564 0.00975254 0.00941564 0c0.0098944,0.00771338 0.0394003,0.00650761 0.0533553,0.00650761l0.00941564 -0.00324494 0.0125365 -0.00650761c0.013228,0 0.00961069,0.00297896 0.0156927,-0.00650761l0.0125542 0c0.00883049,-0.00390102 0.0159055,-0.00764245 0.0251084,-0.00975254 0.0129088,-0.0160651 0.00930925,-0.0090078 0.0219698,-0.0195051l0.00941564 -0.00326267c0.0115967,-0.0120045 0.0240445,-0.0236012 0.034524,-0.0357652 0.00785523,-0.00914966 0.0209414,-0.0260304 0.0282469,-0.0292576 0.00377689,-0.00980574 0.00810348,-0.0133344 0.00941564,-0.0227678l0.00941564 -0.00650761c0.00304989,-0.0126428 0.0208172,-0.0299492 0.0282292,-0.0325026 0.002447,-0.00888368 0.00287257,-0.00592245 0.00627709,-0.0130152 0.00492947,-0.00290803 0.00776657,-0.00526637 0.0125542,-0.00650761l0.00313855 -0.00648987 0.00313855 -0.0162602c0.00462803,-0.00320947 0.0016668,-0.00331587 0.00627709,-0.00650761 0,-0.0177319 7.09276e-005,-0.032077 -0.00313855,-0.0487805l-0.00627709 -0.00650761c-0.00464576,-0.00386555 -0.00712822,-0.00503586 -0.00941564,-0.00975254l-0.00941564 0c-0.00588699,-0.00457483 -0.0129266,-0.00517771 -0.0188135,-0.00975254l-0.00941564 -0.00324494 -0.00941564 0c-0.00581606,-0.0045039 -0.00432658,-0.00326267 -0.0125542,-0.00326267 -0.00829853,-0.00643668 -0.0268461,-0.00324494 -0.0376626,-0.00324494 -0.0224486,-0.00870636 -0.0678422,-0.0107455 -0.0941564,-0.0129975 -0.00588699,-0.00459256 -0.0129266,-0.00517771 -0.0188313,-0.00977028l-0.00939791 0 0.00625936 -0.00648987 -0.00625936 -0.00650761c-0.0101958,0 -0.0170404,-0.000230515 -0.0251084,-0.00650761l0.00627709 0z"/>
  <path class="fil0 str0" d="M0.563821 0.0582848l0.00313855 -0.0162424c-0.0649519,0.0493479 -0.0566002,0.0270943 -0.0690303,0.0682855 -0.00684451,0.0226791 0.00154268,0.0734987 0.015675,0.0910356 0.0147707,0.0182993 0.0397195,0.0277504 0.0564938,0.0455178 0.0187072,0.0198065 0.0672571,0.0682855 0.0972949,0.0682855 0.0347368,0 0.0720802,0.0101604 0.103554,-0.00324494 0.0364922,-0.0155154 0.0622922,-0.0216152 0.0910178,-0.0487805 0.0138663,-0.0131393 0.0298073,-0.019842 0.0407834,-0.0325026 0.00650761,-0.00751832 0.00856451,-0.0198597 0.0156927,-0.0292754 0.00755379,-0.0098944 0.00858224,-0.0192214 0.0156927,-0.0292576 0.0161892,-0.0228387 0.03135,-0.0362085 0.034524,-0.0650406 0.00124123,-0.011242 0.00274844,-0.0285306 -0.00313855,-0.0422728 -0.00797935,-0.0186894 -0.0652002,-0.0195051 -0.084723,-0.0195051 -0.0116676,0 -0.0189554,0.00361731 -0.0282469,0.00975254 -0.010515,0.00696864 -0.0226436,0.012235 -0.034524,0.0162602 -0.0274667,0.00927378 -0.055093,0.0195051 -0.0847407,0.0195051 -0.0202498,0 -0.0376803,-0.00221649 -0.0564761,-0.00324494 -0.0205158,-0.00109938 -0.0400032,-0.0145756 -0.0596324,-0.0162602 -0.0206754,-0.00175546 -0.0408543,-0.004894 -0.0596324,-0.00975254l0.00627709 -0.00326267z"/>
 </g>
</svg>
