<?xml version="1.0" encoding="UTF-8"?>
<!DOCTYPE svg PUBLIC "-//W3C//DTD SVG 1.1//EN" "http://www.w3.org/Graphics/SVG/1.1/DTD/svg11.dtd">
<!-- Creator: CorelDRAW -->
<svg xmlns="http://www.w3.org/2000/svg" xml:space="preserve" width="10.0245mm" height="11.6356mm" style="shape-rendering:geometricPrecision; text-rendering:geometricPrecision; image-rendering:optimizeQuality; fill-rule:evenodd; clip-rule:evenodd"
viewBox="0 0 0.585053 0.679081"
 xmlns:xlink="http://www.w3.org/1999/xlink">
 <defs>
  <style type="text/css">
   <![CDATA[
    .str0 {stroke:black;stroke-width:0.0116725}
    .fil0 {fill:white}
   ]]>
  </style>
 </defs>
 <g id="Livello_x0020_1">
  <metadata id="CorelCorpID_0Corel-Layer"/>
  <g id="_124483040">
   <path id="_124483112" class="fil0 str0" d="M0.561562 0.0721825c0.0026905,-0.00990992 0.015005,-0.0523335 0.0103593,-0.0622551 -0.00633231,-0.0135517 -0.116234,0.0107328 -0.136737,0.0107328 -0.00075871,0.00236367 -0.0974476,0.0450791 -0.113947,0.0450791 -0.000461062,0.00145322 -0.0586716,0.0316207 -0.0662996,0.0343462 -0.0106511,0.00380522 -0.0341245,0.0273661 -0.0455751,0.036494 -0.023911,0.019067 -0.0557944,0.0388576 -0.0766589,0.0579596 -0.0122152,0.0111939 -0.06215,0.0487851 -0.06215,0.0665447 -0.00166333,0.00049608 -0.0381515,0.0502908 -0.0414373,0.0579596 -0.00613972,0.0143396 -0.0301617,0.0463222 -0.0186468,0.0622551 -0.00674085,0.00232282 -0.00414373,0.0091162 -0.00414373,0.017176 0.015717,0.00542186 0.0211213,0.0622493 0.0517966,0.0622493 0.00536933,0.016715 0.0511663,0.0150283 0.0683656,0.0150283 0.00085209,-0.00531097 0.0317841,-0.0194405 0.0393654,-0.0257611 0.0259771,-0.0216874 0.0421493,-0.0482832 0.0683715,-0.0729879l0.0911561 -0.0858627c0.0197907,-0.0186468 0.0342587,-0.0352684 0.0559345,-0.0515223 0.0144914,-0.0108671 0.0291345,-0.021203 0.0435091,-0.0300508 0.0177013,-0.0108962 0.0334241,-0.0332198 0.0538684,-0.0472268 0.0145906,-0.00999163 0.0315857,-0.0402525 0.0393596,-0.0429313 0,-0.0179639 0.0277571,-0.0363481 0.0435091,-0.0472268z"/>
   <path id="_124483064" class="fil0 str0" d="M0.561562 0.0721825c0.0226387,0.0328405 0.0205202,0.0930237 0.0103593,0.130942 -0.00359512,0.0134175 0,0.0390269 0,0.05367 0,0.0196681 -0.00621559,0.0404568 -0.00621559,0.0601074 -0.0158337,0.00546271 -0.0269751,0.212497 0.00207186,0.227543 0,0.0091337 0.00414373,0.013114 0.00414373,0.0214657 0.0162481,0.00560862 -0.00305819,0.0781822 -0.014503,0.081573 -0.00269634,0.00837499 -0.00144739,0.000210104 -0.00414373,0.0085851 -0.00334416,0.00099216 -0.00950722,0.00378772 -0.0103593,0.0064432 -0.0069743,0 -0.0405501,0.00582456 -0.0414314,0.0085851 -0.005025,0 -0.0173745,-0.00182674 -0.0186468,0.00214773 -0.0322569,0 -0.0502441,-0.00468066 -0.0787308,-0.0128806 -0.0404684,-0.0116433 -0.0825535,-0.0064432 -0.126378,-0.0064432l-0.06215 0c-0.0172344,0 -0.055596,-0.0192421 -0.0580122,-0.0343462 -0.00899947,-0.00266132 -0.0130498,-0.0132833 -0.0248624,-0.0150225l-0.00414373 -0.00429547c0,-0.00768048 0.0018851,-0.00540435 -0.00414373,-0.00643736l0 -0.0064432 -0.00414373 -0.00428963c-0.00878353,-0.00260296 -0.00759877,-0.0113398 -0.0165749,-0.0128806 -0.000694512,-0.00507752 -0.00137735,-0.00566115 -0.00207186,-0.0107328 -0.00465731,-0.00160496 -0.0155477,-0.0204502 -0.0165691,-0.0279089 -0.00976985,-0.00288894 -0.0113865,-0.0232982 -0.0227905,-0.0300508l-0.00207186 -0.0064432c-0.00584207,-0.00242204 -0.00952473,-0.00979903 -0.0103593,-0.0150283 -0.00522343,-0.00179756 -0.00467482,-0.00387526 -0.0103593,-0.0085851l0 -0.00643736c-0.00785557,-0.0054277 -0.014503,-0.0465089 -0.014503,-0.0579596 0.00166333,-0.00114974 0.00423127,-0.0231348 0.00414373,-0.0236134 0.0072486,-0.00583623 0.00621559,-0.00192012 0.00621559,-0.0085851 0.00569616,-0.00393946 0.00258545,-0.00250374 0.00828745,-0.0064432l0 -0.00643736 0.00621559 -0.00214773c0,-0.00581289 -0.000916289,-0.00811236 0.00414373,-0.0107328l0.00207186 -0.00214773c-0.00366515,-0.0088594 -0.00075871,-0.0169134 0.00621559,-0.0193179l0 -0.0064432c0.00305819,-0.00210688 0.00108554,-0.00218275 0.00414373,-0.00428963l0 -0.0064432 0.00414373 -0.00214773 0.00207186 -0.00428963 0 -0.0064432c0.00580122,-0.00400949 0.00414373,-0.00330914 0.00414373,-0.0107328l0.00414373 -0.00428963c0.00464564,-0.00120226 0.0035601,-0.00163415 0.00621559,-0.0064432 0.0181157,-0.00374686 0.0394471,-0.0139778 0.0580063,-0.0193179 0.0156119,-0.00449974 0.045616,-0.0236134 0.060084,-0.0236134l0.00414373 -0.0064432c0.00975234,-0.00200766 0.0165749,-0.0135984 0.0248624,-0.0150225 0.00122561,-0.00445305 0.00346672,-0.00883606 0.00620975,-0.0107328l0 -0.0064432c0.00602883,-0.00416123 0.0234208,-0.0424411 0.0310779,-0.0450791 0.000962978,-0.00702682 -0.000105052,-0.00483824 0.00621559,-0.0085851 0.00266716,-0.0138552 0.0219734,-0.0189152 0.0248624,-0.0279089 0.0219151,-0.00323327 0.0401066,-0.0107328 0.0662996,-0.0107328 0.0354551,0 0.0663521,0.00149991 0.0973717,-0.0128806 0.0266716,-0.012367 0.0729296,0.000163415 0.0952998,-0.0171702z"/>
  </g>
 </g>
</svg>
