<?xml version="1.0" encoding="UTF-8"?>
<!DOCTYPE svg PUBLIC "-//W3C//DTD SVG 1.1//EN" "http://www.w3.org/Graphics/SVG/1.1/DTD/svg11.dtd">
<!-- Creator: CorelDRAW -->
<svg xmlns="http://www.w3.org/2000/svg" xml:space="preserve" width="11.3857mm" height="7.0729mm" style="shape-rendering:geometricPrecision; text-rendering:geometricPrecision; image-rendering:optimizeQuality; fill-rule:evenodd; clip-rule:evenodd"
viewBox="0 0 2.20559 1.37013"
 xmlns:xlink="http://www.w3.org/1999/xlink">
 <defs>
  <style type="text/css">
   <![CDATA[
    .str0 {stroke:black;stroke-width:0.0387431}
    .fil1 {fill:none}
    .fil0 {fill:white}
   ]]>
  </style>
 </defs>
 <g id="Livello_x0020_1">
  <metadata id="CorelCorpID_0Corel-Layer"/>
  <path class="fil0 str0" d="M0.358645 0.795124c-0.020282,0.0407577 -0.0727789,0.0723333 -0.106563,0.101681 -0.0267715,0.0232652 -0.0533492,0.0597225 -0.0788422,0.0781448 -0.0582502,0.0420362 -0.0921892,0.13376 -0.113149,0.198926 -0.0110805,0.0345588 -0.0523225,0.113382 -0.0377164,0.14211 0.0047654,0.00935645 0.00075549,0.0161559 0.00685753,0.0248537 0.0117779,0.0166789 0.0240982,0.00856222 0.0445739,0.00356436 0.0240982,-0.00588895 0.0522257,-0.00110418 0.0754328,-0.00710936 0.106214,-0.0274882 0.204912,-0.0640423 0.305121,-0.113672 0.034152,-0.0169307 0.0607491,-0.0405253 0.0891478,-0.0639455 0.0493199,-0.0406609 0.102844,-0.0725852 0.102844,-0.1492 0,-0.035663 -0.026016,-0.0620858 -0.0445545,-0.0888185 -0.0376583,-0.0542209 -0.0617952,-0.0916468 -0.116578,-0.127872 -0.0110418,-0.00734181 -0.0205145,-0.011836 -0.0308589,-0.0177637 -0.00716747,-0.00414551 -0.0367478,-0.0241176 -0.0514121,-0.0142187 -0.00807793,0.00548215 -0.0369996,0.0247181 -0.0548602,0.028418l0.0105575 0.004901z"/>
  <g id="_122165504">
   <path id="_122165528" class="fil0 str0" d="M0.941205 0.445642c-0.0175312,0.00559838 -0.0382394,0.0100538 -0.0548602,0.0177637 -0.0212312,0.00984074 -0.0390143,0.0170276 -0.0616984,0.0248731 -0.0314206,0.0108093 -0.0124946,0.0108093 -0.0377164,0.0213087 -0.0118941,0.00495911 -0.0304327,0.00397117 -0.0445739,0.0106543 -0.0176668,0.00838788 -0.0452325,0.0145287 -0.0548602,0.0319824l-0.0274301 0c-0.00825228,0.0102669 -0.0413001,0.021793 -0.0445545,0.031963 -0.013347,0 -0.0557319,0.0240013 -0.058289,0.0319824l-0.0102863 0c-0.00579209,0.00900777 -0.00439734,0.00906588 -0.0137151,0.0106543 -0.0156716,0.028418 -0.0480027,0.0484288 -0.0480027,0.0852541 -0.0305489,0.021115 -0.00685753,0.123532 -0.00685753,0.156309 0.00461043,0.00158847 0.00685753,0.0177637 0.00685753,0.0248537 0.0109643,0.00377745 0.0132501,0.0232071 0.0205726,0.0355274 0.005579,0.00941457 0.0215799,0.0219286 0.0240013,0.031963 0.0121072,0.00416488 0.0329704,0.030607 0.0445739,0.0426368l0.0102863 0c0.0104219,0.0324473 0.113052,0.0108481 0.126845,-0.0177637l0.0102863 -0.00710936c0.0231684,0 0.0736893,-0.0229746 0.0788615,-0.0390724 0.0148773,-0.00383556 0.015536,-0.000213087 0.0205726,-0.0106543l0.0102863 0c0.00397117,-0.0247956 0.143931,-0.0599549 0.171419,-0.0674904 0.041087,-0.0112936 0.0878499,-0.0255511 0.133702,-0.028418 0.0154004,-0.000968577 0.0732825,-0.0221417 0.0754328,-0.0355274 0.00786485,-0.00271202 0.0204951,-0.00989886 0.0274301,-0.0142187 0.00492037,-0.0204757 0.0152454,-0.0316918 0.0171438,-0.0568361 0.00286699,-0.0381813 0.0184417,-0.180291 -0.0205726,-0.191817 -0.00408739,-0.011313 -0.0228584,-0.0335709 -0.0342876,-0.0355274 -0.00404865,-0.0125721 -0.016737,-0.0108868 -0.0205726,-0.0248731 -0.0169307,-0.00389368 -0.0432373,-0.0184611 -0.058289,-0.028418 -0.0152648,-0.0100926 -0.139533,-0.0395179 -0.143989,-0.00708998 -0.0134245,0.0019759 -0.0140056,0.0122234 -0.0377164,0.00708998z"/>
   <path id="_122165600" class="fil1 str0" d="M0.96848 0.490894c0.00900777,0.0255123 0.0070125,0.0449613 0.0070125,0.0719846 0,0.0109837 -0.000445545,0.0254155 -0.00342876,0.0355274 -0.00122041,0.00410677 -0.00540466,0.00662507 -0.00685753,0.0106543 -0.00536592,0.0145868 0.000987949,0.00920148 -0.0102863,0.0141993 -0.00257641,0.0160784 -0.000581146,0.00989886 -0.0102863,0.0142187 -0.00191778,0.0119329 -0.01048,0.0223354 -0.0171438,0.031963 -0.0074193,0.0107318 -0.0143931,0.0156909 -0.0205726,0.0248731 -0.00294447,0.00439734 -0.00555963,0.0124753 -0.00685753,0.0141993 -0.00116229,0.00160784 -0.0139088,0.014858 -0.0171438,0.0177637 -0.00999571,0.00910462 -0.0288055,0.0297934 -0.0308589,0.0426368 -0.00464917,0.00137538 -0.00788422,0.00277013 -0.0102669,0.00710936 -0.00143349,0.00253767 -0.00575335,0.0099376 -0.00685753,0.0106543 -0.00650884,0.00412614 -0.00749679,0.000987949 -0.0137151,0.0106543 -0.0100926,0.0156909 -0.0320986,0.0325829 -0.0342876,0.0461818 -0.0105187,0.00309945 -0.0188485,0.0105187 -0.0205726,0.0213087 -0.00443608,0.00131726 -0.01726,0.00894965 -0.00685753,0.00356436"/>
  </g>
  <g id="_122166392">
   <path id="_122165456" class="fil0 str0" d="M1.56518 0.253825l-0.0171438 -0.00356436c-0.0397504,0.0257448 -0.0740768,0.0543759 -0.109701,0.0852735 -0.0141025,0.0122234 -0.0520707,0.0232265 -0.058289,0.0426174 -0.0120297,0.00178218 -0.0561,0.0409127 -0.058289,0.0568361 -0.00941457,0.00325442 -0.0391499,0.0423462 -0.0411452,0.0568361 -0.0158847,0.0109837 -0.0187517,0.0434504 -0.0171244,0.0639455 0.000813605,0.0104025 0.0101894,0.0544534 0.0171244,0.0568361 0,0.0445352 -0.00478477,0.0958891 0.00342876,0.138545l0.00342876 0.00354499c0.015226,0 0.0261903,0.017938 0.0377164,0 0.0216186,-0.00220836 0.0489131,-0.0102669 0.0685753,-0.0213087 0.0203789,-0.0114098 0.0411645,-0.0184417 0.0617177,-0.028418 0.0207275,-0.0100926 0.0466273,-0.0117392 0.0685559,-0.0177637 0.0335128,-0.00918211 0.0660763,-0.0245437 0.102863,-0.031963 0.00563712,-0.00114292 0.052032,-0.009802 0.058289,-0.0142187 0.0122428,-0.00869782 0.021483,-0.0140444 0.037697,-0.0177637 0,-0.0113324 -0.00955017,-0.0713066 0,-0.0745998 0,-0.0147611 0.00685753,-0.0203207 0.00685753,-0.035508 0.00743867,-0.00513346 -0.00110418,-0.0114873 0.00685753,-0.0142187 0,-0.0110999 0.0054434,-0.0276819 0.0137151,-0.031963l0 -0.0106737c0.00920148,-0.0095308 0.0136569,-0.0241176 0.0240013,-0.028418l0 -0.0106543c0.00720621,-0.00497849 0.00528843,-0.00538529 0.0102863,-0.00708998l0.00342876 -0.00710936 0.00342876 -0.00710936c0,-0.0199721 0.0102863,-0.0367866 0.0102863,-0.0603811 0,-0.0264228 -0.00123978,-0.0306458 -0.0137151,-0.0532911 -0.0217155,-0.0044942 -0.0265971,-0.0243307 -0.0480027,-0.0319824 -0.0219867,-0.00784547 -0.165452,-0.0159428 -0.174848,0.00356436z"/>
   <path id="_122165408" class="fil1 str0" d="M1.47485 0.315349c0.0112742,0.0122622 0.0418619,0.0366122 0.0560419,0.0450388 0.012146,-0.000697375 0.0260353,-0.0043586 0.0377164,-0.00354499 0.0211731,0.00147224 0.0401766,0.00637324 0.0617177,0.00710936 0.0161365,0.000542403 0.0315175,0.00354499 0.0480027,0.00354499l0.0102863 0.00710936 0.00342876 0.00708998c-0.00154972,0.0111774 -0.00147224,0.011681 -0.0102863,0.0177637 -0.00247956,0.0127852 -0.0119329,0.0265778 -0.0205726,0.0355274l-0.0102863 0.0106543c-0.00472666,0.004901 -0.00617952,0.0123009 -0.0102863,0.0177637 -0.00431985,0.00575335 -0.0113905,0.00896902 -0.0171438,0.0106543l-0.00685753 0.00710936c-0.00887217,0.0118166 -0.00726433,0.00774862 -0.0137151,0.0177637 -0.0179574,0.00844599 -0.0324861,0.0188291 -0.0480027,0.031963 -0.0111193,0.00943394 -0.023827,0.0192166 -0.0308589,0.0319824 -0.0685753,0.0283406 -0.0302583,0.0905426 -0.185773,0.117062l-0.0293091 0.0527681"/>
  </g>
  <g id="_122166512">
   <path id="_122166416" class="fil0 str0" d="M1.76097 0.225969l0.0167758 -0.0112161 -0.00685753 -0.0142187c-0.0296966,-0.0616015 0.0592188,-0.0937195 0.102863,-0.131436 0.00381619,-0.00331253 0.0124172,-0.0076905 0.0171438,-0.0106543 0.0118554,-0.00739993 0.0448451,-0.0288442 0.0514121,-0.0390724l0.0411452 0c0.00606329,0.00945331 0.00879468,0.00643135 0.0171438,0.0141993 0.0132501,0.0123009 0.0681684,0.0445545 0.072004,0.0604005 0.017938,0.00927897 0.0394598,0.0402734 0.058289,0.0532717 0.0220642,0.0152454 0.0414938,0.0302971 0.0514121,0.0532911 0.00583083,0.0134632 0.00658632,0.0252024 -0.00685753,0.0355274 -0.0177637,0.0136957 -0.0393823,0.0262484 -0.0548408,0.0426174 -0.0104025,0.0109837 -0.0432179,0.0267715 -0.058289,0.0319824 -0.00484288,0.00164658 -0.00962766,0.00397117 -0.0137151,0.00710936 -0.00567586,0.00428111 -0.0128433,0.0104994 -0.0205726,0.0141993 -0.014025,0.00676067 -0.0178412,0.00180155 -0.0240013,0.0177637 -0.0155941,0 -0.0195265,0.00629575 -0.0308589,0.0142187 -0.015904,0.0110805 -0.0312463,0.0151485 -0.0480027,0.028418 -0.0319824,0.0252992 -0.0556932,0.0497267 -0.095986,0.0497267 -0.00329316,0.00509471 -0.00253767,0.00354499 -0.0102863,0.00354499 -0.00863971,0.0134245 -0.0504047,-0.00189841 -0.0617177,-0.00708998 -0.0452713,-0.020805 -0.0274301,-0.161869 -0.0274301,-0.206036 0.00691564,0 0.0138507,-5.81146e-005 0.0312269,-0.00654758z"/>
   <path id="_122166464" class="fil1 str0" d="M1.96288 0.0193715c0.0124365,0.00656695 -0.00145287,0.109139 0.00685753,0.120782 0,0.0131145 0.00120104,0.000987949 -0.00685753,0.0106543 -0.00860096,0.0102863 -0.0171244,0.0274301 -0.0240013,0.0390724 -0.00459105,0.00780673 -0.00648947,0.0166014 -0.0102863,0.0248731 -0.00354499,0.00770987 -0.00908525,0.0142187 -0.0136957,0.0213087 -0.00937583,0.0144124 -0.0165239,0.0235558 -0.0240013,0.0390724 -0.00399054,0.00829102 -0.00879468,0.0132308 -0.0137151,0.0213087 -0.00195653,0.00323505 -0.0044942,0.00416488 -0.00685753,0.00710936 -0.00236333,0.00294447 -0.000852348,0.00798107 -0.00342876,0.0106543l-0.00685753 0.00710936 -0.00342876 0.0106543c-0.000987949,0.00311882 -0.0702799,0.0753553 -0.072004,0.0781642 -0.00387431,0.00631512 0.0617177,-0.0536204 0.0617177,-0.0675098"/>
   <path id="_122166536" class="fil1 str0" d="M1.77432 0.207644c0.0147999,-5.81146e-005 0.0573204,-0.0124559 0.072004,-0.0106543 0.0127271,0.00154972 0.0283793,0.00538529 0.0411452,0.00708998 0.0171244,0.0112936 0.0338421,0.0120878 0.0548408,0.0142187 0.00745804,0.000736119 0.0165239,-0.000368059 0.0240013,0 0.0168726,0.000813605 0.0322342,0.00916274 0.0480027,0.0142187 0.00592769,0.00185967 0.149277,-0.0213668 0.156018,-0.0213668"/>
  </g>
 </g>
</svg>
