<?xml version="1.0" encoding="UTF-8"?>
<!DOCTYPE svg PUBLIC "-//W3C//DTD SVG 1.1//EN" "http://www.w3.org/Graphics/SVG/1.1/DTD/svg11.dtd">
<!-- Creator: CorelDRAW -->
<svg xmlns="http://www.w3.org/2000/svg" xml:space="preserve" width="6.7599mm" height="10.4526mm" style="shape-rendering:geometricPrecision; text-rendering:geometricPrecision; image-rendering:optimizeQuality; fill-rule:evenodd; clip-rule:evenodd"
viewBox="0 0 0.381818 0.590392"
 xmlns:xlink="http://www.w3.org/1999/xlink">
 <defs>
  <style type="text/css">
   <![CDATA[
    .str0 {stroke:black;stroke-width:0.0112965}
    .fil1 {fill:none}
    .fil0 {fill:white}
   ]]>
  </style>
 </defs>
 <g id="Livello_x0020_1">
  <metadata id="CorelCorpID_0Corel-Layer"/>
  <g id="_124387216">
   <path id="_124387288" class="fil0 str0" d="M0.321635 0.0185828l-0.013923 0.00297099c-0.0116241,0.00247394 0.00818435,-0.0218927 -0.00601541,-0.0145443 -0.00580078,0.00300488 -0.0106809,0.00735405 -0.0160411,0.0103872 -0.00315174,0.00179615 -0.00700951,0.00212375 -0.0100257,0.00415713 -0.00410065,0.00277895 -0.00937049,0.00709988 -0.014036,0.0103872 -0.00759693,0.00534327 -0.00447343,0.00328165 -0.0120308,0.0103872 -0.004095,0.00384647 -0.00903159,0.00646163 -0.0120252,0.0103872 -0.00159846,0.00208421 -0.0011353,0.00406111 -0.00401027,0.00623569 -0.00408935,0.00309525 -0.00336072,0.00358665 -0.00401027,0.00830861 -0.00665367,0.00229885 -0.00194301,-0.000513993 -0.00601541,0.00623005 -0.00281284,0.00466547 -0.00405546,0.00959642 -0.00601541,0.0145443 -0.0014629,0.00370527 -0.00599282,0.00709423 -0.00802055,0.0103872 -0.00258126,0.00419667 -0.0063882,0.0160016 -0.00601541,0.0207744 0.000175097,0.00226496 0.0026321,0.00651246 0.00401027,0.00831426 0.00127651,0.00167189 0.00319128,0.00369397 0.00401027,0.00623005 0.00754609,0 0.0144652,0.00253043 0.0200514,0.00830861l0.00601541 0.00623569c0.00442825,0.00458075 0.00178485,0.00369962 0.00401027,0.00830861 0.000288062,0.00062131 0.00120308,0.001638 0.00400463,0.00415713 0.00285803,0.00255302 0.0054054,0.00351323 0.00802055,0.00623005 0.00463723,0.00480668 0.00582902,0.00669321 0.0120308,0.0103872 0.00685701,0.00408935 0.00301053,0.00544494 0.0120308,0.00207856 0.017086,-0.0063769 0.0268067,-0.0232991 0.0401027,-0.0332401 0.00536586,-0.00402157 0.0130306,-0.0125505 0.0180462,-0.0186958 0.00504956,-0.00618486 0.00288627,-0.00866445 0.00601541,-0.0145443 0.00224236,-0.00421361 0.00388036,-0.0093253 0.00802055,-0.0103872 0.000553531,-0.00350193 0.00269988,-0.00924623 0.00601541,-0.0103872 0,-0.0096529 0.00192041,-0.00891863 0.00601541,-0.0166229 0.00234403,-0.00440565 0.00124262,-0.0100483 0.00401027,-0.0145443 0.00111271,-0.0018018 0.00285803,-0.00503826 0.00401027,-0.00623005l0.00401027 -0.00415713c0.00346804,-0.0035923 0.00200514,-0.007676 0.00200514,-0.0124657 0,-0.00674969 -0.000333248,-0.00941003 -0.00601541,-0.0103872 -0.000779462,-0.00281284 -0.00151374,-0.00486881 -0.00401027,-0.00623005 -0.00742183,-0.00406111 -0.0154989,-0.00623005 -0.0240616,-0.00623005 -0.00539975,0 -0.0158434,0.00820129 -0.0201643,0.00325905z"/>
   <path id="_124387240" class="fil1 str0" d="M0.287661 0.0340196c0.00676098,0.0047502 0.0135163,0.00946651 0.0200514,0.0145443l0.00601541 0 0.00401027 0.00415148c0.00693608,0 0.00628088,-0.00166624 0.0100257,0.00415713l0.00601541 0 0.00401027 0.00207856c0.00197125,0.00306136 0.00203903,0.00109012 0.00401027,0.00415148l-0.0220565 0c-0.00371092,0.00288062 -0.00275636,0.00207856 -0.00802055,0.00207856 -0.00141772,0.0029484 -0.00359795,0.00480668 -0.00601541,0.00830861 -0.00644468,0.00267728 -0.00462029,0.00252478 -0.00601541,0.00831426l-0.00601541 0.00415148c-0.000768165,0.00399333 -0.00159281,0.00517382 -0.00401027,0.00830861l0 0.00623569c-0.0029597,0.004095 -0.000903724,0.00210681 -0.00200514,0.00623005 -0.00107317,0.00403287 -0.00241746,0.00860797 -0.00401027,0.0124657"/>
  </g>
  <g id="_124387048">
   <path id="_124387168" class="fil0 str0" d="M0.143297 0.139495c-0.0108277,0.00434917 -0.0220848,0.0099692 -0.0320822,0.0160129 -0.00676098,0.00408935 -0.00919539,0.00809398 -0.0160355,0.0114321l0 0.00686265c-0.00881696,0.00167189 0.000790758,0.000615662 -0.00802055,0.00228755 -0.00140077,0.00639385 -0.00515687,0.00779462 -0.00601541,0.0137253 -0.00684571,0.0012991 -0.00400463,0.00571605 -0.0100257,0.0091502 0,0.00771554 -0.00286368,0.014115 -0.00601541,0.020588 -0.00305007,0.00626958 -0.00268293,0.00845547 -0.00601541,0.0137253 -0.00727498,0.0114829 -0.00401027,0.0352565 -0.00401027,0.0503205 0.00310655,0.00118049 0.0125166,0.0304442 0.014036,0.0366008 0.000728627,0.0029484 0.00159846,0.00633172 0.00200514,0.0091502 0.00176791,0.0122059 0.00855149,0.0173289 0.0100257,0.0274506 0.00355841,0.00134994 0.00535456,0.00847241 0.0100257,0.0114378 0.00586856,0.00371656 0.0173063,0.00299359 0.024056,0.00228755 0.0063769,-0.000677793 0.00847241,-0.0045864 0.014036,-0.00686265 0.00660283,-0.00271682 0.00713942,0.00532067 0.0100257,-0.0045751 0.0132057,0 0.0194075,-0.00118049 0.0300771,-0.0091502 0.00382388,-0.00286368 0.00735405,-0.0057443 0.0120308,-0.0091502 0.00482927,-0.00351323 0.0047389,-0.000474455 0.00802055,-0.00228755 0.00850065,-0.00469372 -0.000446214,-0.00364314 0.00802055,-0.00686265 0.000858538,-0.00592504 0.0141659,-0.0184529 0.0200514,-0.0251631 0.00423056,-0.00482927 0.014036,-0.0202265 0.014036,-0.0251631 0,-0.012381 -0.0017905,-0.0293823 0.00401027,-0.0388827 0.00402157,-0.00658024 0.00905983,-0.0126239 0.0140303,-0.0183004 0.00445649,-0.0050778 0.00874353,-0.0139851 0.014036,-0.0183004 0,-0.0131153 -0.0123132,-0.0296873 -0.014036,-0.0434578 -0.00575559,-0.00219153 -0.00384083,-0.00226496 -0.00601541,-0.0091502 -0.00186393,-0.00591374 -0.00383518,-0.0102121 -0.00600976,-0.0160129 -0.0081787,-0.00186393 -0.00729192,-0.00772684 -0.0160411,-0.0091502 -0.00811657,-0.055884 -0.0601711,0.00417972 -0.0782004,0.0114378z"/>
   <path id="_124387120" class="fil1 str0" d="M0.147307 0.162371c0.0029597,0.0101387 0.00265469,0.00835945 0.00802055,0.0160072 0.000768165,0.00440001 0.00159281,0.00569911 0.00401027,0.0091502 0.000756869,0.00433787 0.00147985,0.00578383 0.00401027,0.0091502 0.00219718,0.00293145 0.00462594,0.00564263 0.00601541,0.0091502 0.000886779,0.00224236 0.000847241,0.00478974 0.00200514,0.00686265 0.00112401,0.00202773 0.00440001,0.00521336 0.00601541,0.00686265 0.00338332,0.00345674 0.00699256,0.00333813 0.00802055,0.00686265 0.00133299,0 0.00268858,-0.000152503 0.00401027,0 0.00309525,0.000355841 0.0049253,0.0019656 0.00802055,0.00228755 0.00260385,0.000276765 0.00538845,0 0.00802055,0 0.00215764,-0.00307266 0.00385212,-0.00607754 0.00601541,-0.0091502l0 -0.0137253 -0.00401027 0.0045751"/>
   <path id="_124387072" class="fil1 str0" d="M0.179389 0.26073c-0.00727498,0.0115112 -0.0220565,0.0201192 -0.0220565,0.0343076l0 0.00228755 -0.00401027 0.00228755c-0.00333813,0.00190347 -0.00506085,0.00597023 -0.00601541,0.0114378l-0.00401027 0.00228755c-0.00185263,0.00105623 -0.00353017,0.00870399 -0.00401027,0.0114378 -0.00298229,0.00272247 -0.00455816,0.00354712 -0.00601541,0.00686265"/>
  </g>
  <path class="fil0 str0" d="M0.176638 0.390556l-0.0118953 0.0157304 0 -0.020972 -0.00951169 -0.0026208c-0.00240052,-0.000660848 -0.00362619,-0.00432093 -0.00951734,-0.00524725 -0.000869834,-0.00677793 -0.00353582,-0.00898076 -0.00475585,-0.0157304l-0.00475585 -0.0078624 -0.00713942 -0.0026208c-0.00237792,0 -0.00477279,-0.000242876 -0.00713377,0 -0.00521336,0.00052529 -0.00526419,0.00110141 -0.00713377,0.0052416l-0.00713942 0c-0.0022819,0.00377305 -0.00175097,0.0026208 -0.00713377,0.0026208l-0.00475585 0.0026208 0 0.00262645c0,0.00689654 -0.00790758,0.00337767 -0.00951734,0.0104832l-0.00713377 0.00524725c-0.00141207,0.00782286 -0.00460334,0.0103137 -0.00951734,0.0157304 -0.00251348,0.00693043 -0.00668191,0.0126126 -0.0118896,0.0183512 -0.00091502,0.00505521 -0.00190912,0.00652941 -0.00475585,0.0104832 -0.00474455,0.00661413 0.000683441,0.00381823 -0.00713942,0.00524725l0 0.0052416c-0.00600412,0.0044113 -0.00475585,0.000835945 -0.00475585,0.00786805l0.00713377 0.0026208 0.0047615 0.0052416 0.00713377 0 0 0.0026208c0,0.00354147 0.00836509,0.00447343 0.0118953,0.00524725l0.00713377 0.0052416 0.00951169 0c0.00619616,0.00682876 0.00708858,0.00246265 0.00951734,0.0104888l0.0166511 0c0.0034398,-0.00664237 0.00702081,-0.0103589 0.0118896,-0.0157304l0 -0.00786805 0.00237792 -0.0052416 0.00713942 -0.00524725c0.00262645,-0.00580643 0.00415148,-0.00688525 0.00951169,-0.0078624 0.00123697,-0.0081787 -3.38896e-005,-0.00256432 0.00475585,-0.0104888l0.00713942 -0.0026208 0.00475585 -0.0052416 0.00475585 -0.00786805 0.00713942 -0.0026208 0.00475585 -0.0052416 0.00237792 -0.00524725 -0.00475585 -0.0026208z"/>
  <path class="fil0 str0" d="M0.0149736 0.570018c0.00217459,0.0169053 -0.00337767,0.00638255 0.00601541,0.0124657 0.00500437,0.00324211 0.0118049,0.00207856 0.0180462,0.00207856l0.014036 0c0.00664802,0 0.0044226,-0.00236663 0.0100257,-0.00623569 0.00193171,-0.00133299 0.00536586,-0.0019769 0.00802055,-0.00415148 0.00126521,-0.00103363 0.00280154,-0.000977151 0.00401027,-0.00207856 0.00208986,-0.00192606 0.00392555,-0.00633736 0.00601541,-0.00830861 0.00347369,-0.00330424 0.00775508,-0.00560309 0.0120308,-0.00623569 0.000847241,-0.00205597 0.000909372,-0.00430399 0.00200514,-0.00623005 0.00135559,-0.00238357 0.00412324,-0.00539975 0.00802055,-0.00831426 0.00516252,-0.00386907 0.01002,-0.00685701 0.01002,-0.0145387l0 -0.00831426c0,-0.00445084 -0.00138383,-0.00713942 0.00200514,-0.00830861 -0.0019543,-0.0047389 -0.00200514,-0.00384083 -0.00200514,-0.00830861 0,-0.00207856 0.0011353,-0.00452427 0,-0.00623005 -0.00122003,-0.00183569 -0.00282979,-0.00228755 -0.00401027,-0.00415713 -0.00132734,-0.00210681 -0.00287497,-0.00399898 -0.00400463,-0.00623569 -0.00100539,-0.0019656 -0.00238357,-0.00269423 -0.00401027,-0.00415148 -0.00121438,-0.00109012 -0.000875483,-0.00298229 -0.00200514,-0.00415713 -0.00172272,-0.00177921 -0.00420796,-0.0024683 -0.00601541,-0.00415148 -0.0044113,-0.00408935 -0.00368267,-0.00415713 -0.0100257,-0.00415713 -0.00407241,0 -0.00465983,0.00141207 -0.00802055,-0.00207856l-0.00200514 -0.00207856 -0.00401027 0c-0.00307266,0 -0.00296534,-0.00181874 -0.00601541,-0.00207856 -0.00198819,-0.0001638 -0.00412889,-0.000672145 -0.00601541,0 -0.00477279,0.00170013 -0.0045751,0.00340591 -0.00802055,0.00623569 -0.00166624,0.00136688 -0.00430963,0.00238922 -0.00601541,0.00415713 -0.00505521,0.00523595 -0.00340026,0.00120873 -0.00802055,0.00415148 -0.00183569,0.00116919 -0.00401027,0.00192606 -0.00401027,0.00415713l0 0.00207856 -0.00401027 0.00207292c-0.00143466,0.000739924 -0.000745572,0.0031235 -0.00200514,0.00415713 -0.00233839,0.00194301 -0.00197125,0.00138383 -0.00601541,0.00207856 -0.00127086,0.00924058 -0.00062131,0.00272247 -0.00601541,0.00830861 -0.00110706,0.00115225 -0.00178485,0.00668756 -0.00200514,0.00830861l-0.00401027 0c-0.00383518,0 0.00200514,0.0255415 0.00200514,0.0290886l0 0.029083c0.00397639,0 0.00282979,-0.000389731 0.00601541,0.00207856l0 0z"/>
 </g>
</svg>
