<?xml version="1.0" encoding="UTF-8" standalone="no"?>
<!-- Created with Inkscape (http://www.inkscape.org/) -->

<svg
   xmlns:dc="http://purl.org/dc/elements/1.1/"
   xmlns:cc="http://creativecommons.org/ns#"
   xmlns:rdf="http://www.w3.org/1999/02/22-rdf-syntax-ns#"
   xmlns:svg="http://www.w3.org/2000/svg"
   xmlns="http://www.w3.org/2000/svg"
   xmlns:sodipodi="http://sodipodi.sourceforge.net/DTD/sodipodi-0.dtd"
   xmlns:inkscape="http://www.inkscape.org/namespaces/inkscape"
   width="744.09448819"
   height="1052.3622047"
   id="svg2"
   version="1.1"
   inkscape:version="0.47 r22583"
   sodipodi:docname="10.svg">
  <defs
     id="defs4">
    <inkscape:perspective
       sodipodi:type="inkscape:persp3d"
       inkscape:vp_x="0 : 526.18109 : 1"
       inkscape:vp_y="0 : 1000 : 0"
       inkscape:vp_z="744.09448 : 526.18109 : 1"
       inkscape:persp3d-origin="372.04724 : 350.78739 : 1"
       id="perspective10" />
  </defs>
  <sodipodi:namedview
     id="base"
     pagecolor="#ffffff"
     bordercolor="#666666"
     borderopacity="1.0"
     inkscape:pageopacity="0.0"
     inkscape:pageshadow="2"
     inkscape:zoom="4.4528632"
     inkscape:cx="141.15349"
     inkscape:cy="977.78578"
     inkscape:document-units="px"
     inkscape:current-layer="layer1"
     showgrid="false"
     inkscape:window-width="1680"
     inkscape:window-height="1000"
     inkscape:window-x="-8"
     inkscape:window-y="-8"
     inkscape:window-maximized="1" />
  <metadata
     id="metadata7">
    <rdf:RDF>
      <cc:Work
         rdf:about="">
        <dc:format>image/svg+xml</dc:format>
        <dc:type
           rdf:resource="http://purl.org/dc/dcmitype/StillImage" />
        <dc:title></dc:title>
      </cc:Work>
    </rdf:RDF>
  </metadata>
  <g
     inkscape:label="Livello 1"
     inkscape:groupmode="layer"
     id="layer1">
    <path
       style="fill:#ffffff;stroke:#000000;stroke-width:1px;stroke-linecap:butt;stroke-linejoin:miter;stroke-opacity:1"
       d="m 23.804908,28.975692 c 6.892178,-1.465864 14.434716,-0.416622 21.334588,-1.796596 4.949537,-0.989908 9.83138,-3.900425 14.59735,-5.389791 3.785705,-1.183033 9.070066,-0.690127 13.025327,-0.898298 12.625576,1.36283 49.580927,-7.440362 58.164827,-2.91947 -0.56017,0.980283 1.80579,4.168431 2.47032,5.165216 8.64508,12.967626 19.16729,24.228132 27.17352,37.953108 1.61374,2.766408 1.63867,6.214918 2.6949,9.207559 1.6835,4.76993 4.33026,10.007959 6.51266,14.372775 1.25851,2.517004 1.72856,5.860144 3.14405,8.533835 0.20661,0.390267 3.5783,4.446519 2.91947,4.940642 -0.74208,0.556562 -2.84049,1.021687 -3.81777,1.347447 -4.39637,1.465461 -8.81585,6.968771 -13.2499,9.432131 -7.60648,4.22583 -15.39473,10.63745 -23.35576,15.9448 -4.76006,3.17338 -10.22035,9.60627 -16.16937,11.22873 -2.81042,0.76648 -6.47727,-0.68552 -9.20756,0.22458 -6.59912,2.1997 -14.135601,0.67162 -20.88544,1.79659 -5.926094,0.98768 -12.34713,-0.30935 -18.415118,0.44915 -15.642338,1.95529 -29.740613,-0.54591 -40.198855,-11.00415 -0.996036,-0.99604 -2.278468,-0.55071 -3.368619,-1.7966 -3.134199,-3.58194 -4.0657,-7.66668 -6.737239,-11.22873 -1.582837,-2.11045 -5.077767,-3.48686 -6.288089,-6.51267 -2.807685,-7.01921 0.44915,-30.271114 0.44915,-38.851403 0,-3.815364 1.556909,-30.96107 2.47032,-32.787892 1.458343,-2.916686 4.057666,-2.740864 6.737238,-7.410963 z"
       id="path2876"
       sodipodi:nodetypes="cssccsssssssssssssssssssc" />
    <path
       style="fill:none;stroke:#000000;stroke-width:1px;stroke-linecap:butt;stroke-linejoin:miter;stroke-opacity:1"
       d="m 18.190543,36.611229 c 7.05476,11.834821 18.887743,17.221195 29.643849,25.82608 2.786667,2.229334 6.87036,5.423071 10.330432,6.288089"
       id="path2878" />
    <path
       style="fill:none;stroke:#000000;stroke-width:1px;stroke-linecap:butt;stroke-linejoin:miter;stroke-opacity:1"
       d="m 24.927781,29.424841 c 6.928038,9.524355 17.538121,16.891592 24.703207,28.296401 3.063159,4.084212 5.640782,8.547044 10.105858,10.779582"
       id="path2880"
       sodipodi:nodetypes="ccc" />
    <path
       style="fill:none;stroke:#000000;stroke-width:1px;stroke-linecap:butt;stroke-linejoin:miter;stroke-opacity:1"
       d="m 60.635144,68.276249 c 3.764493,-0.373855 7.149627,-2.413368 10.779581,-3.368619 7.007751,-1.844145 14.632694,-1.105775 21.783737,-2.694896 3.78247,-0.840548 6.915888,-2.533374 10.555008,-3.817768 6.17523,-2.179494 14.63327,-1.938525 20.66086,-3.144044"
       id="path2882" />
    <path
       style="fill:none;stroke:#000000;stroke-width:1px;stroke-linecap:butt;stroke-linejoin:miter;stroke-opacity:1"
       d="m 130.70242,16.848664 c 0.31192,13.113829 -2.64701,26.308278 -5.61436,38.177683"
       id="path2884" />
    <path
       style="fill:none;stroke:#000000;stroke-width:1px;stroke-linecap:butt;stroke-linejoin:miter;stroke-opacity:1"
       d="m 125.31263,55.700071 c 1.44152,12.92916 -2.43209,32.109732 -2.91947,42.893749 l 19.76257,-1.347447 c 10.8997,-2.314696 21.71113,-0.449149 31.88959,-0.449149"
       id="path2886"
       sodipodi:nodetypes="cccc" />
    <path
       style="fill:none;stroke:#000000;stroke-width:1px;stroke-linecap:butt;stroke-linejoin:miter;stroke-opacity:1"
       d="m 122.61774,98.818395 c -5.26015,0.657518 -7.8347,1.891025 -12.80076,2.245745 -7.11835,0.50846 -17.030627,-0.23692 -23.804905,2.02117 -2.301798,0.76727 -5.235579,-0.47999 -7.635537,0 -7.844977,1.569 -16.533404,-0.42125 -24.254057,1.12288 l 0,-1.12288 c 2.6593,-11.866028 2.681962,-23.977748 5.38979,-34.809061"
       id="path2888"
       sodipodi:nodetypes="csssccc" />
    <path
       style="fill:none;stroke:#000000;stroke-width:1px;stroke-linecap:butt;stroke-linejoin:miter;stroke-opacity:1"
       d="m 53.897906,103.53446 c -5.037682,6.24507 -6.98913,18.21786 -11.902454,23.13119 -0.370883,0.37088 -3.313554,5.30503 -3.144045,5.38979"
       id="path2890"
       sodipodi:nodetypes="css" />
    <path
       style="fill:none;stroke:#000000;stroke-width:1px;stroke-linecap:butt;stroke-linejoin:miter;stroke-opacity:1"
       d="m 122.61773,99.492119 c 0.16756,6.788101 -1.23852,30.780171 -2.69489,36.605661"
       id="path2892"
       sodipodi:nodetypes="cc" />
  </g>
</svg>
