<?xml version="1.0" encoding="UTF-8" standalone="no"?>
<svg
   width="32px"
   height="32px"
   version="1.1"
   viewBox="0 0 32 32"
   id="svg53"
   sodipodi:docname="BigDebrits.svg"
   inkscape:version="1.1 (c68e22c387, 2021-05-23)"
   xmlns:inkscape="http://www.inkscape.org/namespaces/inkscape"
   xmlns:sodipodi="http://sodipodi.sourceforge.net/DTD/sodipodi-0.dtd"
   xmlns="http://www.w3.org/2000/svg"
   xmlns:svg="http://www.w3.org/2000/svg">
  <sodipodi:namedview
     id="namedview55"
     pagecolor="#505050"
     bordercolor="#eeeeee"
     borderopacity="1"
     inkscape:pageshadow="0"
     inkscape:pageopacity="0"
     inkscape:pagecheckerboard="0"
     showgrid="false"
     inkscape:zoom="18.384776"
     inkscape:cx="15.77392"
     inkscape:cy="15.09401"
     inkscape:window-width="2560"
     inkscape:window-height="1017"
     inkscape:window-x="-8"
     inkscape:window-y="-8"
     inkscape:window-maximized="1"
     inkscape:current-layer="svg53" />
  <defs
     id="defs2">
    <clipPath
       id="clip_9948576a-91ad-4f26-bff1-0ea3b8459bed">
      <path
         d="M 0 0 L 32 0  32 32  0 32 Z "
         id="path6" />
    </clipPath>
  </defs>
  <rect
     x="0"
     y="0"
     width="32"
     height="32"
     style="fill:#FFFFFF;opacity:1;stroke:none"
     id="rect4" />
  <g
     id="g951"
     transform="translate(-1.1422494,0.21757132)">
    <g
       style="fill:#ffffff;stroke:none"
       clip-path="url(#clip_9948576a-91ad-4f26-bff1-0ea3b8459bed)"
       id="g11">
      <path
         d="m 17.78498,16.61769 c -5.18102,-3.58415 -4.74267,-3.4729 -10.419381,0.46385 0.030167,1.86014 2.723011,4.36538 3.937421,5.63587 0.43452,-0.42365 2.12365,-1.53476 3.36588,-2.70602 0.98948,-0.9329 2.31106,-2.23967 3.11608,-3.3937 z"
         id="path9" />
    </g>
    <g
       style="fill:none;stroke:#000000;stroke-width:0.2;stroke-linecap:round;stroke-linejoin:round;stroke-opacity:1"
       clip-path="url(#clip_9948576a-91ad-4f26-bff1-0ea3b8459bed)"
       id="g15">
      <path
         d="m 17.78498,16.61769 c -5.18102,-3.58415 -4.74267,-3.4729 -10.419381,0.46385 0.030167,1.86014 2.723011,4.36538 3.937421,5.63587 0.43452,-0.42365 2.12365,-1.53476 3.36588,-2.70602 0.98948,-0.9329 2.31106,-2.23967 3.11608,-3.3937 z"
         id="path13" />
    </g>
  </g>
  <g
     id="g945"
     transform="translate(-2.6652486,-7.0166749)">
    <g
       style="fill:#ffffff;stroke:none"
       clip-path="url(#clip_9948576a-91ad-4f26-bff1-0ea3b8459bed)"
       id="g19">
      <path
         d="m 16.37515,16.4734 c -1.47109,-1.48637 -2.47459,-2.09276 -4.03959,-2.73729 -1.67279,-0.68894 -3.148689,1.32266 -4.099722,2.58105 0.806735,1.01261 3.370412,2.56932 4.503002,3.28962 0.83921,0.5338 0.84915,0.93772 2.28985,-0.67279 0.66732,-0.74592 1.2276,-1.55686 1.34646,-2.46059 z"
         id="path17" />
    </g>
    <g
       style="fill:none;stroke:#000000;stroke-width:0.2;stroke-linecap:round;stroke-linejoin:round;stroke-opacity:1"
       clip-path="url(#clip_9948576a-91ad-4f26-bff1-0ea3b8459bed)"
       id="g27">
      <path
         d="m 16.37515,16.4734 c -1.47109,-1.48637 -2.47459,-2.09276 -4.03959,-2.73729 -1.67279,-0.68894 -3.148689,1.32266 -4.099722,2.58105 0.806735,1.01261 3.370412,2.56932 4.503002,3.28962 0.83921,0.5338 0.84915,0.93772 2.28985,-0.67279 0.66732,-0.74592 1.2276,-1.55686 1.34646,-2.46059 z"
         id="path25" />
    </g>
  </g>
  <g
     id="g933"
     transform="translate(-4.786569,-3.1003912)">
    <g
       style="fill:#ffffff;stroke:none"
       clip-path="url(#clip_9948576a-91ad-4f26-bff1-0ea3b8459bed)"
       id="g23">
      <path
         d="m 30.67316,27.71824 c -0.74225,-4.15271 -0.37117,-3.13949 -2.11624,-6.77348 l -3.65417,2.45843 c 0.71078,0.90272 1.87697,1.76946 2.75542,2.41715 1.46092,1.07714 1.73787,1.1025 3.01499,1.8979 z"
         id="path21" />
    </g>
    <g
       style="fill:none;stroke:#000000;stroke-width:0.2;stroke-linecap:round;stroke-linejoin:round;stroke-opacity:1"
       clip-path="url(#clip_9948576a-91ad-4f26-bff1-0ea3b8459bed)"
       id="g31">
      <path
         d="m 30.67316,27.71824 c -0.74225,-4.15271 -0.37117,-3.13949 -2.11624,-6.77348 l -3.65417,2.45843 c 0.71078,0.90272 1.87697,1.76946 2.75542,2.41715 1.46092,1.07714 1.73787,1.1025 3.01499,1.8979 z"
         id="path29" />
    </g>
  </g>
  <g
     id="g927"
     transform="translate(0.65271395,4.8409618)">
    <g
       style="fill:#ffffff;stroke:none"
       clip-path="url(#clip_9948576a-91ad-4f26-bff1-0ea3b8459bed)"
       id="g35">
      <path
         d="m 19.10547,0.168395 c -0.37252,0.2330542 -0.80484,0.7123185 -1.15075,1.03436 -3.11493,2.899914 -3.25411,1.34016 1.14459,8.987815 1.14764,-0.728371 3.4827,-4.426396 3.26178,-5.266921 -0.0387,-0.147333 -3.098,-4.6086838 -3.25562,-4.755254 z"
         id="path33" />
    </g>
    <g
       style="fill:none;stroke:#000000;stroke-width:0.2;stroke-linecap:round;stroke-linejoin:round;stroke-opacity:1"
       clip-path="url(#clip_9948576a-91ad-4f26-bff1-0ea3b8459bed)"
       id="g43">
      <path
         d="m 19.10547,0.168395 c -0.37252,0.2330542 -0.80484,0.7123185 -1.15075,1.03436 -3.11493,2.899914 -3.25411,1.34016 1.14459,8.987815 1.14764,-0.728371 3.4827,-4.426396 3.26178,-5.266921 -0.0387,-0.147333 -3.098,-4.6086838 -3.25562,-4.755254 z"
         id="path41" />
    </g>
  </g>
  <g
     id="g939"
     transform="translate(1.5229992,-1.1422494)">
    <g
       style="fill:#ffffff;stroke:none"
       clip-path="url(#clip_9948576a-91ad-4f26-bff1-0ea3b8459bed)"
       id="g39">
      <path
         d="m 12.53234,20.02698 -3.606759,6.13356 c 3.802829,2.51958 1.909039,1.55289 6.746439,3.25443 -0.15819,-2.2222 -1.99498,-8.27598 -3.13968,-9.38799 z"
         id="path37" />
    </g>
    <g
       style="fill:none;stroke:#000000;stroke-width:0.2;stroke-linecap:round;stroke-linejoin:round;stroke-opacity:1"
       clip-path="url(#clip_9948576a-91ad-4f26-bff1-0ea3b8459bed)"
       id="g47">
      <path
         d="m 12.53234,20.02698 -3.606759,6.13356 c 3.802829,2.51958 1.909039,1.55289 6.746439,3.25443 -0.15819,-2.2222 -1.99498,-8.27598 -3.13968,-9.38799 z"
         id="path45" />
    </g>
  </g>
  <rect
     x="0"
     y="0"
     width="32"
     height="32"
     style="fill:none;stroke:#000000;stroke-width:1;stroke-linejoin:round;stroke-linecap:round;stroke-opacity:1"
     id="rect51" />
</svg>
