<svg width="32px" height="32px" version="1.1" viewBox="0 0 32 32" xmlns="http://www.w3.org/2000/svg" xmlns:svg="http://www.w3.org/2000/svg" xmlns:xlink="http://www.w3.org/1999/xlink" xmlns:csurvey="http://www.csurvey.it">
  <defs />
  <rect x="0" y="0" width="32" height="32" style="fill:#FFFFFF;opacity:1;stroke:none" />
  <g>
    <clipPath id="clip_1515395c-00df-4a22-b18d-72df861f4834">
      <path d="M 0 0 L 32 0  32 32  0 32 Z " />
    </clipPath>
    <g style="fill:none;stroke:#000000;stroke-width:0.2;stroke-linejoin:round;stroke-linecap:round;stroke-opacity:1" clip-path="url(#clip_1515395c-00df-4a22-b18d-72df861f4834)">
      <path d="M 0 6.239999 L 4 6.239999 M 4.8 3.84 L 4.8 8.639999 " />
    </g>
    <g style="fill:none;stroke:#000000;stroke-width:0.2;stroke-linejoin:round;stroke-linecap:round;stroke-opacity:1" clip-path="url(#clip_1515395c-00df-4a22-b18d-72df861f4834)">
      <path d="M 0 12.24 L 4 12.24 M 4.8 9.84 L 4.8 14.64 " />
    </g>
    <g style="fill:none;stroke:#000000;stroke-width:0.2;stroke-linejoin:round;stroke-linecap:round;stroke-opacity:1" clip-path="url(#clip_1515395c-00df-4a22-b18d-72df861f4834)">
      <path d="M 0 18.24 L 4 18.24 M 4.8 15.84 L 4.8 20.64 " />
    </g>
    <g style="fill:none;stroke:#000000;stroke-width:0.2;stroke-linejoin:round;stroke-linecap:round;stroke-opacity:1" clip-path="url(#clip_1515395c-00df-4a22-b18d-72df861f4834)">
      <path d="M 0 24.24 L 4 24.24 M 4.8 21.84 L 4.8 26.64 " />
    </g>
    <g style="fill:none;stroke:#000000;stroke-width:0.2;stroke-linejoin:round;stroke-linecap:round;stroke-opacity:1" clip-path="url(#clip_1515395c-00df-4a22-b18d-72df861f4834)">
      <path d="M 6 6.239999 L 10 6.239999 M 10.8 3.84 L 10.8 8.639999 " />
    </g>
    <g style="fill:none;stroke:#000000;stroke-width:0.2;stroke-linejoin:round;stroke-linecap:round;stroke-opacity:1" clip-path="url(#clip_1515395c-00df-4a22-b18d-72df861f4834)">
      <path d="M 6 12.24 L 10 12.24 M 10.8 9.84 L 10.8 14.64 " />
    </g>
    <g style="fill:none;stroke:#000000;stroke-width:0.2;stroke-linejoin:round;stroke-linecap:round;stroke-opacity:1" clip-path="url(#clip_1515395c-00df-4a22-b18d-72df861f4834)">
      <path d="M 6 18.24 L 10 18.24 M 10.8 15.84 L 10.8 20.64 " />
    </g>
    <g style="fill:none;stroke:#000000;stroke-width:0.2;stroke-linejoin:round;stroke-linecap:round;stroke-opacity:1" clip-path="url(#clip_1515395c-00df-4a22-b18d-72df861f4834)">
      <path d="M 6 24.24 L 10 24.24 M 10.8 21.84 L 10.8 26.64 " />
    </g>
    <g style="fill:none;stroke:#000000;stroke-width:0.2;stroke-linejoin:round;stroke-linecap:round;stroke-opacity:1" clip-path="url(#clip_1515395c-00df-4a22-b18d-72df861f4834)">
      <path d="M 12 6.239999 L 16 6.239999 M 16.8 3.84 L 16.8 8.639999 " />
    </g>
    <g style="fill:none;stroke:#000000;stroke-width:0.2;stroke-linejoin:round;stroke-linecap:round;stroke-opacity:1" clip-path="url(#clip_1515395c-00df-4a22-b18d-72df861f4834)">
      <path d="M 12 12.24 L 16 12.24 M 16.8 9.84 L 16.8 14.64 " />
    </g>
    <g style="fill:none;stroke:#000000;stroke-width:0.2;stroke-linejoin:round;stroke-linecap:round;stroke-opacity:1" clip-path="url(#clip_1515395c-00df-4a22-b18d-72df861f4834)">
      <path d="M 12 18.24 L 16 18.24 M 16.8 15.84 L 16.8 20.64 " />
    </g>
    <g style="fill:none;stroke:#000000;stroke-width:0.2;stroke-linejoin:round;stroke-linecap:round;stroke-opacity:1" clip-path="url(#clip_1515395c-00df-4a22-b18d-72df861f4834)">
      <path d="M 12 24.24 L 16 24.24 M 16.8 21.84 L 16.8 26.64 " />
    </g>
    <g style="fill:none;stroke:#000000;stroke-width:0.2;stroke-linejoin:round;stroke-linecap:round;stroke-opacity:1" clip-path="url(#clip_1515395c-00df-4a22-b18d-72df861f4834)">
      <path d="M 18 6.239999 L 22 6.239999 M 22.8 3.84 L 22.8 8.639999 " />
    </g>
    <g style="fill:none;stroke:#000000;stroke-width:0.2;stroke-linejoin:round;stroke-linecap:round;stroke-opacity:1" clip-path="url(#clip_1515395c-00df-4a22-b18d-72df861f4834)">
      <path d="M 18 12.24 L 22 12.24 M 22.8 9.84 L 22.8 14.64 " />
    </g>
    <g style="fill:none;stroke:#000000;stroke-width:0.2;stroke-linejoin:round;stroke-linecap:round;stroke-opacity:1" clip-path="url(#clip_1515395c-00df-4a22-b18d-72df861f4834)">
      <path d="M 18 18.24 L 22 18.24 M 22.8 15.84 L 22.8 20.64 " />
    </g>
    <g style="fill:none;stroke:#000000;stroke-width:0.2;stroke-linejoin:round;stroke-linecap:round;stroke-opacity:1" clip-path="url(#clip_1515395c-00df-4a22-b18d-72df861f4834)">
      <path d="M 18 24.24 L 22 24.24 M 22.8 21.84 L 22.8 26.64 " />
    </g>
  </g>
  <rect x="0" y="0" width="32" height="32" style="fill:none;stroke:#000000;stroke-width:1;stroke-linejoin:round;stroke-linecap:round;stroke-opacity:1" />
</svg>