<?xml version="1.0" encoding="UTF-8"?>
<!DOCTYPE svg PUBLIC "-//W3C//DTD SVG 1.1//EN" "http://www.w3.org/Graphics/SVG/1.1/DTD/svg11.dtd">
<!-- Creator: CorelDRAW -->
<svg xmlns="http://www.w3.org/2000/svg" xml:space="preserve" width="7.0029mm" height="6.1142mm" style="shape-rendering:geometricPrecision; text-rendering:geometricPrecision; image-rendering:optimizeQuality; fill-rule:evenodd; clip-rule:evenodd"
viewBox="0 0 0.0979601 0.0855285"
 xmlns:xlink="http://www.w3.org/1999/xlink">
 <defs>
  <style type="text/css">
   <![CDATA[
    .str0 {stroke:#1F1A17;stroke-width:0.00349712}
    .fil1 {fill:none}
    .fil0 {fill:white}
   ]]>
  </style>
 </defs>
 <g id="Massi">
  <metadata id="CorelCorpID_0Corel-Layer"/>
  <g id="_455347304">
   <path id="_455347544" class="fil0 str0" d="M0.00480085 0.0343627c0.0012184,0.0215926 -0.0139339,0.0177458 0.0136738,0.0330017 0.00870085,0.00480785 0.0170492,0.00503446 0.0230391,0.010462 0.0272762,0.0247163 0.0698278,-0.0333122 0.0492899,-0.0600051 -0.00426369,-0.00554084 -0.0334661,-0.0160728 -0.0417892,-0.0160728 -0.0233608,0 -0.0292136,0.0213968 -0.0442134,0.0326142z"/>
   <path id="_455347472" class="fil1 str0" d="M0.00617872 0.0348118c0.00052317,-0.000344117 0.0224599,0.000587517 0.0246198,0.000689633 0.00319777,0.000151076 0.00874421,0.000226614 0.0117867,0.00107152 0.00167442,0.000464418 0.00686416,0.00203952 0.00865748,0.00259347"/>
   <path id="_455347400" class="fil1 str0" d="M0.0908035 0.0178213c0.00387761,0 -0.00485681,0.00297675 -0.00589335,0.00321456 -0.00374612,0.000860293 -0.00798883,0.00521491 -0.0117867,0.00696487 -0.00744048,0.00342718 -0.0147593,0.00713134 -0.0218808,0.0111656 0.000265781,0.000216822 0.00598708,0.00442596 0.00634378,0.00597868 0.000408464,0.00178074 0.00134849,0.00313063 0.00160728,0.00482184 0.000276972,0.00181711 0.00160728,0.00293898 0.00160728,0.00482184 -0.00174716,0.00602065 -0.00239623,0.0099752 -0.0053576,0.0150013 -0.00261025,0.00442876 -0.00302431,0.0087596 -0.00485541,0.0132373"/>
   <path id="_455347328" class="fil1 str0" d="M0.060801 0.0547888c0.00397693,0.000818327 0.00783356,0.00213185 0.0117867,0.0026788 0.00556602,0.000772165 0.0114734,0.000858894 0.0152545,0.00423991"/>
  </g>
 </g>
</svg>
