<?xml version="1.0" encoding="UTF-8"?>
<!DOCTYPE svg PUBLIC "-//W3C//DTD SVG 1.1//EN" "http://www.w3.org/Graphics/SVG/1.1/DTD/svg11.dtd">
<!-- Creator: CorelDRAW -->
<svg xmlns="http://www.w3.org/2000/svg" xml:space="preserve" width="13.1541mm" height="11.2841mm" style="shape-rendering:geometricPrecision; text-rendering:geometricPrecision; image-rendering:optimizeQuality; fill-rule:evenodd; clip-rule:evenodd"
viewBox="0 0 0.323651 0.27764"
 xmlns:xlink="http://www.w3.org/1999/xlink">
 <defs>
  <style type="text/css">
   <![CDATA[
    .str0 {stroke:#1F1A17;stroke-width:0.00615114}
    .fil1 {fill:none}
    .fil0 {fill:white}
   ]]>
  </style>
 </defs>
 <g id="Massi">
  <metadata id="CorelCorpID_0Corel-Layer"/>
  <g id="_454990824">
   <path id="_454990992" class="fil0 str0" d="M0.186168 0.00404499c-0.0483086,0.0338707 -0.105069,0.0511873 -0.15216,0.0834046 -0.0482127,0.0329873 -0.0315578,0.0417859 -0.00736415,0.094265 0.0295033,0.0640039 0.0263466,0.0792661 0.0981107,0.0863276 0.0477624,0.00469701 0.0288243,0.0157297 0.0776274,-0.00901757 0.0338977,-0.0171912 0.0682605,-0.0403712 0.0998823,-0.0616344 0.0252738,-0.0169968 0.0219743,-0.0142731 0.00482988,-0.045361 -0.0198288,-0.0359571 -0.0393968,-0.0783631 -0.0530056,-0.114517 -0.00727311,-0.019317 -0.0500851,-0.0207613 -0.0679209,-0.0334671z"/>
   <path id="_454990920" class="fil1 str0" d="M0.188085 0.000792267c-0.00575993,0.0213568 -0.0168738,0.0480207 -0.0208351,0.0687944 -0.00419754,0.0220334 -0.00187733,0.0209975 -0.0263441,0.026103 -0.0328323,0.00685237 -0.0545606,0.0142387 -0.087297,0.0142707 -0.00652267,7.38137e-006 -0.0504935,-0.000332162 -0.0491968,0.00167557"/>
   <path id="_454990848" class="fil1 str0" d="M0.0699311 0.25325c0.0345128,-0.030709 0.0631796,-0.0839213 0.0848218,-0.125294 0.0202742,-0.0387596 -0.0103339,-0.0561476 0.0512316,-0.0311518 0.0312921,0.0127033 0.0596612,0.0139975 0.0849694,0.0194155"/>
  </g>
 </g>
</svg>
