<?xml version="1.0" encoding="UTF-8"?>
<!DOCTYPE svg PUBLIC "-//W3C//DTD SVG 1.1//EN" "http://www.w3.org/Graphics/SVG/1.1/DTD/svg11.dtd">
<!-- Creator: CorelDRAW -->
<svg xmlns="http://www.w3.org/2000/svg" xml:space="preserve" width="3.3107mm" height="4.8043mm" style="shape-rendering:geometricPrecision; text-rendering:geometricPrecision; image-rendering:optimizeQuality; fill-rule:evenodd; clip-rule:evenodd"
viewBox="0 0 0.0584859 0.0848714"
 xmlns:xlink="http://www.w3.org/1999/xlink">
 <defs>
  <style type="text/css">
   <![CDATA[
    .str0 {stroke:black;stroke-width:0.00353314}
    .fil1 {fill:none}
    .fil0 {fill:white}
   ]]>
  </style>
 </defs>
 <g id="Rocce">
  <metadata id="CorelCorpID_0Corel-Layer"/>
  <g id="_287727248">
   <path id="_287727320" class="fil0 str0" d="M0.0566628 0.00475384l-0.0322753 0.0405746 -0.0212095 0.0375008c0.00278765,-0.000236721 0.00550817,-0.000181957 0.00829935,0 0.00852901,0.000515839 0.0185631,-0.000614767 0.0273571,-0.000614767 0.0054905,0 0.00658578,0.0018973 0.00829935,-0.00307383 0.000574136,-0.00166411 0.00276645,-0.00594981 0.00276645,-0.00768459 0.00387762,-0.00129136 0.00338122,-0.0259191 0.00338122,-0.0310457 0,-0.010928 0.00399598,-0.0232216 0.00338122,-0.0356565z"/>
   <path id="_287727272" class="fil1 str0" d="M0.0566628 0.00475384c-0.00358614,0.00557883 -0.00648332,0.0193934 -0.00829935,0.026435 -0.00247673,0.00961015 -0.00763689,0.0232534 -0.0116806,0.0322753 -0.00279295,0.00623423 -0.00525555,0.00952005 -0.000614767,0.0110658 -0.000528205,0 0.00881519,0.00409138 0.0110658,0.00461075"/>
  </g>
 </g>
</svg>
