<?xml version="1.0" encoding="UTF-8"?>
<!DOCTYPE svg PUBLIC "-//W3C//DTD SVG 1.1//EN" "http://www.w3.org/Graphics/SVG/1.1/DTD/svg11.dtd">
<!-- Creator: CorelDRAW -->
<svg xmlns="http://www.w3.org/2000/svg" xml:space="preserve" width="2.9713mm" height="4.4112mm" style="shape-rendering:geometricPrecision; text-rendering:geometricPrecision; image-rendering:optimizeQuality; fill-rule:evenodd; clip-rule:evenodd"
viewBox="0 0 0.0461891 0.0685725"
 xmlns:xlink="http://www.w3.org/1999/xlink">
 <defs>
  <style type="text/css">
   <![CDATA[
    .str0 {stroke:black;stroke-width:0.00310902}
    .fil1 {fill:none}
    .fil0 {fill:white}
   ]]>
  </style>
 </defs>
 <g id="Rocce">
  <metadata id="CorelCorpID_0Corel-Layer"/>
  <g id="_287727128">
   <path id="_287727200" class="fil0 str0" d="M0.0180136 0.00453606c0.00509257,0.00391736 0.0071212,0.0067077 0.0135242,0.00757357 0.00305927,0.000413499 0.012178,0.00677455 0.012775,0.00916694m0 0c-0.00150476,0.00531176 -0.00732329,0.0157705 -0.00763575,0.0162586 -0.00286807,0.00449564 -0.0130423,0.0294828 -0.0183929,0.0294828 -0.0120397,0 -0.0200205,-0.00448787 -0.0154176,-0.0192044 0.00223694,-0.00715074 0.00145347,-0.0166488 0.00568017,-0.0229912 0.00545788,-0.00818604 0.005276,-0.0275086 0.0200159,-0.0224502 0.00508946,0.00174727 0.0117396,0.00280744 0.0132537,0.00838502 0.00101354,0.00373548 0.00376813,0.00670149 0.00249654,0.0105194z"/>
   <path id="_287727152" class="fil1 str0" d="M0.0315379 0.0121096c-0.00361579,0.00444123 -0.0133206,0.0160985 -0.0162089,0.0244586 -0.00288206,0.00834771 -0.00577189,0.0196148 -0.0113603,0.0259727"/>
  </g>
 </g>
</svg>
