<?xml version="1.0" encoding="UTF-8"?>
<!DOCTYPE svg PUBLIC "-//W3C//DTD SVG 1.1//EN" "http://www.w3.org/Graphics/SVG/1.1/DTD/svg11.dtd">
<!-- Creator: CorelDRAW -->
<svg xmlns="http://www.w3.org/2000/svg" xml:space="preserve" width="8.4251mm" height="7.6531mm" style="shape-rendering:geometricPrecision; text-rendering:geometricPrecision; image-rendering:optimizeQuality; fill-rule:evenodd; clip-rule:evenodd"
viewBox="0 0 0.32289 0.293303"
 xmlns:xlink="http://www.w3.org/1999/xlink">
 <defs>
  <style type="text/css">
   <![CDATA[
    .str0 {stroke:black;stroke-width:0.00766495}
    .fil1 {fill:none}
    .fil0 {fill:white}
   ]]>
  </style>
 </defs>
 <g id="Rocce">
  <metadata id="CorelCorpID_0Corel-Layer"/>
  <g id="_288663304">
   <path id="_288663472" class="fil0 str0" d="M0.175466 0.0369987c0.0434296,0.0217148 0.0699618,0.0717363 0.106029,0.101361 0.0153951,0.0126433 0.0331739,0.0227879 0.0362744,0.0328213 0.0149505,0.0483582 -0.102411,0.0719931 -0.142971,0.112552 -0.0262103,0.0262103 -0.0658496,-0.0578474 -0.0826895,-0.0746873 -0.0285251,-0.0285251 -0.0549462,-0.0769523 -0.0866906,-0.108697 0.00738135,-0.00738135 0.00190474,-0.0367956 0.0153376,-0.0486801 0.0194613,-0.017227 0.0444644,-0.0371022 0.0693525,-0.0466796 0.016928,-0.00651521 0.0853569,0.01551 0.0853569,0.0320088z"/>
   <path id="_288663424" class="fil1 str0" d="M0.0550727 0.0308668c0.00337641,0.0187983 0.0264441,0.0439585 0.0317022,0.0668154 0.00949304,0.0412873 0.00821683,0.0639372 0.0406779,0.094026 0.0261758,0.0242596 0.0366768,0.0605263 0.0366768,0.0966934 0.00331126,-0.000827815 6.51521e-005,-0.00334575 0.00316946,-0.000107309"/>
   <path id="_288663376" class="fil1 str0" d="M0.148991 0.220279c0.0387962,0.000885302 0.0606259,-0.0132872 0.087825,-0.0345728 0.00830497,-0.00649605 0.0196568,-0.0175259 0.0260072,-0.0253403 0.00445334,-0.00547661 0.0122563,-0.0209943 0.0186718,-0.0220061"/>
   <path id="_288663328" class="fil1 str0" d="M0.236816 0.185706c0.00754998,-0.000214619 0.0139464,-0.0026674 0.0213392,-0.0026674 0.0107846,0 0.0210863,0.00333425 0.031342,0.00333425 0.00479826,0 0.00861924,0.000705176 0.013337,0.0013337 0.00352588,0.000467562 0.00847744,-0.00250644 0.0146401,0.000839312"/>
  </g>
 </g>
</svg>
