<?xml version="1.0" encoding="UTF-8"?>
<!DOCTYPE svg PUBLIC "-//W3C//DTD SVG 1.1//EN" "http://www.w3.org/Graphics/SVG/1.1/DTD/svg11.dtd">
<!-- Creator: CorelDRAW -->
<svg xmlns="http://www.w3.org/2000/svg" xml:space="preserve" width="5.3427mm" height="7.6506mm" style="shape-rendering:geometricPrecision; text-rendering:geometricPrecision; image-rendering:optimizeQuality; fill-rule:evenodd; clip-rule:evenodd"
viewBox="0 0 0.130426 0.186766"
 xmlns:xlink="http://www.w3.org/1999/xlink">
 <defs>
  <style type="text/css">
   <![CDATA[
    .str0 {stroke:black;stroke-width:0.0048824}
    .fil1 {fill:none}
    .fil0 {fill:white}
   ]]>
  </style>
 </defs>
 <g id="Rocce">
  <metadata id="CorelCorpID_0Corel-Layer"/>
  <g id="_287726504">
   <path id="_287726624" class="fil0 str0" d="M0.113984 0.00311497c0.000969156,0.0155578 0.0136317,0.0285889 0.0136317,0.040895 0,0.0233012 0.0024534,0.0463193 -0.00511187,0.0673063 -0.00539505,0.0149597 -0.0187435,0.0474667 -0.0187435,0.0630464 -0.0255642,-0.00851978 -0.0544094,0.02221 -0.0903097,0.00425989 -0.0161876,-0.00809257 -0.0114956,-0.0347334 -0.00511187,-0.0468588 0.0125941,-0.0239311 0.0366302,-0.0483382 0.0519707,-0.0732701 0.00764583,-0.0124306 0.0349165,-0.0624703 0.0536746,-0.0553786z"/>
   <path id="_287726576" class="fil1 str0" d="M0.0892624 0.0158824c0.00455039,0.0188387 0.0091545,0.0265114 0.000866626,0.0451671 -0.00411098,0.00925947 -0.0151232,0.0178354 -0.0204475,0.0298192 -0.00739683,0.0166563 -0.0212531,0.027527 -0.0315232,0.0417469 -0.0041598,0.00576367 -0.00904464,0.0135291 -0.0144836,0.0195955 -0.00436242,0.00487019 -0.0198738,0.0132899 -0.0198933,0.0143176"/>
   <path id="_287726528" class="fil1 str0" d="M0.0901291 0.0610495c0.00160143,-0.00625191 0.00635932,-0.0188631 0.00766781,-0.0289673 0.00234355,-0.00156237 0.00106436,-0.000993568 0.00340791,-0.00255594 0.000461387,-0.00325412 0.00341768,-0.00470175 0.00511187,-0.00766781 0.00193099,-0.000383268 0.00461142,-0.00224834 0.00511187,-0.00425989l0.000851978 -0.00170396 0.00391568 -0.00247293"/>
  </g>
 </g>
</svg>
