<?xml version="1.0" encoding="UTF-8"?>
<!DOCTYPE svg PUBLIC "-//W3C//DTD SVG 1.1//EN" "http://www.w3.org/Graphics/SVG/1.1/DTD/svg11.dtd">
<!-- Creator: CorelDRAW -->
<svg xmlns="http://www.w3.org/2000/svg" xml:space="preserve" width="12.2702mm" height="12.0645mm" style="shape-rendering:geometricPrecision; text-rendering:geometricPrecision; image-rendering:optimizeQuality; fill-rule:evenodd; clip-rule:evenodd"
viewBox="0 0 2.30714 2.26847"
 xmlns:xlink="http://www.w3.org/1999/xlink">
 <defs>
  <style type="text/css">
   <![CDATA[
    .str0 {stroke:black;stroke-width:0.0376057}
    .fil0 {fill:white}
   ]]>
  </style>
 </defs>
 <g id="Livello_x0020_1">
  <metadata id="CorelCorpID_0Corel-Layer"/>
  <g id="_215355720">
   <path id="_215355792" class="fil0 str0" d="M1.96657 0.540318c0.45689,0.0941082 0.293493,0.342023 0.293493,0.664812 0,0.381303 -0.0099467,0.511023 -0.17355,0.81608 -0.235035,0.4382 -1.25033,0.164017 -1.50849,-0.138314 -0.182143,-0.213299 -0.520632,-0.681941 -0.520632,-0.995911 0.146888,-0.025365 0.107439,0.133387 0.00774677,-0.182143l1.90144 -0.164525z"/>
   <path id="_215355744" class="fil0 str0" d="M1.1654 0.0432465c-0.284769,0 -0.559121,-0.0768472 -0.787613,0.0414978 -0.149257,0.0773172 -0.295975,0.182782 -0.347081,0.373462 -0.0427576,0.159504 0.0373424,0.316489 0.106781,0.41496 0.0473079,0.0670321 0.0282042,0.215161 0.06675,0.304305 0.0390911,0.0904228 0.513054,0.62243 0.654132,0.62243 0.006675,0.0414978 0.325308,0.19365 0.360431,0.19365 0.678594,0 0.934463,-0.0992037 0.934463,-0.857578 0,-0.693035 -0.468378,-0.82253 -0.987863,-1.09273z"/>
  </g>
 </g>
</svg>
