<?xml version="1.0" encoding="UTF-8"?>
<!DOCTYPE svg PUBLIC "-//W3C//DTD SVG 1.1//EN" "http://www.w3.org/Graphics/SVG/1.1/DTD/svg11.dtd">
<!-- Creator: CorelDRAW -->
<svg xmlns="http://www.w3.org/2000/svg" xml:space="preserve" width="23.3391mm" height="26.9011mm" style="shape-rendering:geometricPrecision; text-rendering:geometricPrecision; image-rendering:optimizeQuality; fill-rule:evenodd; clip-rule:evenodd"
viewBox="0 0 8.22239 9.47729"
 xmlns:xlink="http://www.w3.org/1999/xlink">
 <defs>
  <style type="text/css">
   <![CDATA[
    .str0 {stroke:black;stroke-width:0.0704602}
    .fil0 {fill:white}
   ]]>
  </style>
 </defs>
 <g id="Livello_x0020_1">
  <metadata id="CorelCorpID_0Corel-Layer"/>
  <g id="_215355216">
   <path id="_215355336" class="fil0 str0" d="M6.16115 0.215855c0.208844,-0.0998774 0.193378,-0.145078 0.625299,0.103647 0.304881,0.175516 0.251191,0.552796 0.350187,0.881175 0.0568614,0.188516 -0.0317776,1.03665 0.175094,1.03665 0.0479482,0.298258 0.175058,0.373157 0.175058,0.777493 0,0.316895 0.0136693,0.858064 0.15008,1.1144 0.258061,0.484978 0.200107,0.622727 0.200107,1.19215 -1.33874,0.231145 -2.10102,-0.393978 -2.10102,-1.96964 0,-0.623855 0.0750049,-1.20135 0.0750049,-1.81414 0,-0.293467 -0.0471027,-0.530424 0.100054,-0.751564 0.0726797,-0.109178 0.22512,-0.444075 0.250134,-0.570164z"/>
   <path id="_215355288" class="fil0 str0" d="M0.204018 8.277c0.154449,0.165194 0.0542191,0.804021 0.0542191,1.02252 0.154061,0.0531975 0.3238,0.142541 0.575272,0.142541 0.0301922,-0.043791 0.0573194,-0.0668667 0.0750401,-0.103682 0.580874,-0.150433 1.06384,-0.69974 1.82591,-0.69974 0.0128942,-0.0200812 0.563118,-0.233223 0.575272,-0.233223 0.0113793,-0.0708125 0.0440729,-0.0609833 0.125067,-0.0777528 0.0127533,-0.079303 0.0408669,-0.0777528 0.125067,-0.0777528 0.0718694,-0.223394 1.19363,-0.215925 1.25063,-0.570164 0.722887,0 1.82534,-1.32173 2.35115,-1.32173 0.0236042,-0.0734195 -0.0231109,-0.0518235 0.0750401,-0.0518235 0.0182844,-0.113828 0.00672895,0.010111 0.0250134,-0.103682 0.0973408,-0.0144091 0.0924086,-0.0777528 0.200107,-0.0777528 0.0279375,-0.0869127 0.14698,-0.0389293 0.175058,-0.155506 0.0702488,0 0.210993,-0.156105 0.22512,-0.207329 0.205568,-0.0304036 0.325174,-0.216912 0.325174,-0.414658l-0.0500268 -0.0518235c-0.0628153,-0.00926552 -0.402997,-0.069051 -0.425227,0 -0.178264,0 -0.278776,0.0259294 -0.450206,0.0259294 -0.0250134,0.0388588 -1.94347,0.466482 -2.17609,0.466482 -0.723697,0.812406 -1.93367,1.58807 -2.97645,1.76232 -0.319748,0.0534088 -0.725388,0.300724 -1.0005,0.466482 -0.200847,0.121051 -0.658733,-0.558221 -0.904639,0.26035z"/>
   <path id="_215355240" class="fil0 str0" d="M6.43629 0.0862785c-1.46779,-0.325914 -2.33745,0.948077 -3.35165,1.78821 -0.341662,0.282968 -0.611982,1.34199 -0.975486,1.76232 -0.347404,0.401623 -1.49672,0.518305 -2.05103,0.518305 0,0.772667 -0.152405,4.12185 0.325174,4.48352 1.04087,0.788415 5.09667,-1.43763 6.02798,-2.20287 0.332396,-0.273104 1.1348,-0.817937 1.17556,-1.2699 0.0395634,-0.438157 -0.464262,-1.94548 -0.575272,-2.48799l-0.575272 -2.5916z"/>
  </g>
 </g>
</svg>
