<?xml version="1.0" encoding="UTF-8"?>
<!DOCTYPE svg PUBLIC "-//W3C//DTD SVG 1.1//EN" "http://www.w3.org/Graphics/SVG/1.1/DTD/svg11.dtd">
<!-- Creator: CorelDRAW -->
<svg xmlns="http://www.w3.org/2000/svg" xml:space="preserve" width="4.5038mm" height="5.6195mm" style="shape-rendering:geometricPrecision; text-rendering:geometricPrecision; image-rendering:optimizeQuality; fill-rule:evenodd; clip-rule:evenodd"
viewBox="0 0 0.180069 0.224676"
 xmlns:xlink="http://www.w3.org/1999/xlink">
 <defs>
  <style type="text/css">
   <![CDATA[
    .str0 {stroke:black;stroke-width:0.00799631}
    .fil1 {fill:none}
    .fil0 {fill:white}
   ]]>
  </style>
 </defs>
 <g id="Livello_x0020_1">
  <metadata id="CorelCorpID_0Corel-Layer"/>
  <g id="_215349576">
   <path id="_215349648" class="fil0 str0" d="M0.0988184 0.00748854c-0.0148771,-0.00481378 -0.0326169,0.00616515 -0.0488255,0.00219898 -0.0170201,-0.00415808 -0.0459948,-0.015213 -0.0459948,0.0124662 0,0.00705674 0.0228175,0.043264 0.0304259,0.045455 0.0111788,0.00321851 0.0247926,0.00599323 0.036795,0.00440197 0.0150251,-0.00199108 0.0148172,0.00041181 0.0240609,-0.00806428 0.00532954,-0.00488574 0.0060652,-0.00666892 0.00353837,-0.0139336 -0.0032425,-0.0093197 0.0127341,-0.0104512 0.0127341,-0.0197949 0,-0.0149891 -0.00680086,-0.0125182 -0.0127341,-0.0227295z"/>
   <path id="_215349600" class="fil1 str0" d="M0.0683884 0.0140895c0.00569737,0.00708073 0.00939166,0.0142654 0.000707673,0.0197949 -0.00441396,0.0028147 -0.0190912,0.00873597 -0.0205185,0.0161286 0.00725665,0 0.0139975,-0.00103952 0.0212262,-0.000731662 0.00474581,0.00019591 0.00882792,0.00146732 0.0134458,0.00146732l0.0077844 0"/>
  </g>
  <g id="_215349456">
   <path id="_215349528" class="fil0 str0" d="M0.15189 0.088871l0.000707673 -0.00366231c-0.013094,-0.00290666 -0.0221418,-0.0116226 -0.0353837,-0.00733261 -0.0133938,0.00434199 -0.0134738,0.0156328 -0.0205185,0.0263918 -0.00772443,0.0118025 -0.0137576,0.00286268 -0.0226455,0.00806827 -0.00647701,0.00378625 0.0141255,0.0175719 0.0141535,0.0175959 0.0278351,0.0232253 0.00704874,0.0490613 0.0198148,0.0755171 0.015117,0.0313455 0.0643903,0.00876795 0.0643903,-0.0175959 0.00287467,0.000739658 0.00212302,-0.0160726 0.00212302,-0.0197949 0,-0.0141095 0.00393418,-0.0363832 -0.000707673,-0.049857 -0.00209103,-0.0060652 -0.0200188,-0.0298222 -0.0219339,-0.0293305z"/>
   <path id="_215349480" class="fil1 str0" d="M0.110181 0.0815943c0.00250284,0.00836414 0.0047658,0.0138616 0.0126941,0.0175439 0.00754851,0.00350238 0.0138256,0.0141055 0.00566139,0.0212622 -0.00371428,0.0032465 -0.0077844,0.008656 -0.0077844,0.0139296 0,0.00775642 0.00404613,0.00456589 0.00849208,0.00733261 0,-0.00337444 0.00569737,0.000927572 0.0077844,0.00146732 -0.00099554,0.00413009 -0.00970752,0.00614116 -0.0106151,0.0095316 -0.000811625,0.00304659 0.00992342,0.0197229 0.0120304,0.0249245 0.00239889,0.00594126 0.00867199,0.028079 0.00849208,0.0271315"/>
  </g>
 </g>
</svg>
