<?xml version="1.0" encoding="UTF-8"?>
<!DOCTYPE svg PUBLIC "-//W3C//DTD SVG 1.1//EN" "http://www.w3.org/Graphics/SVG/1.1/DTD/svg11.dtd">
<!-- Creator: CorelDRAW -->
<svg xmlns="http://www.w3.org/2000/svg" xml:space="preserve" width="2.8724mm" height="3.2053mm" style="shape-rendering:geometricPrecision; text-rendering:geometricPrecision; image-rendering:optimizeQuality; fill-rule:evenodd; clip-rule:evenodd"
viewBox="0 0 0.20675 0.230711"
 xmlns:xlink="http://www.w3.org/1999/xlink">
 <defs>
  <style type="text/css">
   <![CDATA[
    .str0 {stroke:black;stroke-width:0.0143956}
    .fil1 {fill:none}
    .fil0 {fill:white}
   ]]>
  </style>
 </defs>
 <g id="Livello_x0020_1">
  <metadata id="CorelCorpID_0Corel-Layer"/>
  <g id="_215349816">
   <path id="_215349888" class="fil0 str0" d="M0.132037 0.0418552c-0.0224788,-0.0302884 -0.02245,-0.045159 -0.0573233,-0.0263944 -0.0176274,0.00948671 -0.014302,0.0153313 -0.0343983,0.0118764 -0.0113078,-0.00194341 -0.0219029,0 -0.0331171,0 0,0.0166701 0.0127401,0.0327068 0.0127401,0.0554375 0,0.0371983 0.00382204,0.0744757 0.00382204,0.112192 0,0.0361546 0.0727842,0.0277188 0.101907,0.0277188 0.0558766,0 0.0738855,-0.0217302 0.0738855,-0.0778731 0,-0.0240551 0.00123082,-0.0482901 -0.019103,-0.0607207 -0.022925,-0.0140069 -0.0312241,-0.0257466 -0.0484124,-0.0422367z"/>
   <path id="_215349840" class="fil1 str0" d="M0.0849053 0.0326205c0.00735616,0.0114373 0.0440146,0.0514715 0.0305691,0.0646723 -0.00554951,0.00545594 -0.00981781,0.025617 -0.0140069,0.0343191 -0.00620451,0.0128841 -0.0126322,0.0271285 -0.0152881,0.0409195 0.0214423,-0.0148059 0.0214279,-0.0259841 0.0509533,-0.014518 0.00954429,0.00370687 0.0157416,0.00306627 0.0216582,0.0118764 0.00457781,0.00680193 0.00734176,0.0107031 0.0152881,0.0118764"/>
  </g>
 </g>
</svg>
