<?xml version="1.0" encoding="UTF-8"?>
<!DOCTYPE svg PUBLIC "-//W3C//DTD SVG 1.1//EN" "http://www.w3.org/Graphics/SVG/1.1/DTD/svg11.dtd">
<!-- Creator: CorelDRAW -->
<svg xmlns="http://www.w3.org/2000/svg" xml:space="preserve" width="3.0413mm" height="2.7747mm" style="shape-rendering:geometricPrecision; text-rendering:geometricPrecision; image-rendering:optimizeQuality; fill-rule:evenodd; clip-rule:evenodd"
viewBox="0 0 0.121086 0.110471"
 xmlns:xlink="http://www.w3.org/1999/xlink">
 <defs>
  <style type="text/css">
   <![CDATA[
    .str0 {stroke:black;stroke-width:0.00796275}
    .fil1 {fill:none}
    .fil0 {fill:white}
   ]]>
  </style>
 </defs>
 <g id="Livello_x0020_1">
  <metadata id="CorelCorpID_0Corel-Layer"/>
  <g id="_215349936">
   <path id="_215350056" class="fil0 str0" d="M0.105741 0.00398137l-0.00989371 0c-0.00172792,0.00268345 -0.00320501,0.000103516 -0.00424016,0.00439544l-0.00424016 0c-0.00624678,0.00971455 -0.0240196,0.0117013 -0.0282638,0.0205001 -0.0124936,0.00184338 -0.0199546,0.00732175 -0.0325079,0.00732175 -0.00239679,0.00372258 -0.00504838,-0.000939604 -0.00848033,0.00439544l-0.00424016 0c-0.00115858,0.00179958 -0.00405304,0.00159255 -0.00706694,0.00292631 0,0.00533504 -0.00282678,0.00839672 -0.00282678,0.0146475 0.00766415,0.00263965 0.0226142,0.0276626 0.0226142,0.0366087 0.00321297,0.00110682 0.00464228,0.00457062 0.00565355,0.00878689l0.00141339 0.00146515 0.00141339 0.00146116 0.00565355 0c0.00247641,-0.00448701 0.00651751,-0.00732175 0.0113071,-0.00732175 0.0052594,-0.00817774 0.0142533,-0.0124736 0.0211968,-0.0205001 0.00635825,-0.0073536 0.0126648,-0.0175698 0.0212008,-0.0190389l0.00282678 -0.00292631c0.00152487,-0.00949956 0.0155473,-0.0120556 0.0155473,-0.0248955 0.00297409,-0.00205041 0.00217781,-0.00222161 0.00424016,-0.00293029 0,-0.0112673 0.001497,-0.0123861 -0.0113071,-0.0248955z"/>
   <path id="_215350008" class="fil1 str0" d="M0.0944342 0.0274118c-0.0132102,0.00315723 -0.0198551,0.0133973 -0.0268504,0.0234344 -0.00387388,0.005558 -0.00644584,0.0090417 -0.00989371,0.0146435 -0.00200661,0.0032488 -0.00288251,0.00203448 -0.00424016,0.00439146 -0.00152487,0.00263567 -0.00497274,0.00140543 -0.00282678,0.0058566"/>
   <path id="_215349960" class="fil1 str0" d="M0.0181153 0.0405941c0.00928855,0.0152885 0.00384999,0.0131783 0.0155473,0.0131783 0.00422026,0 0.000772387,-0.000453877 0.00424016,-0.00292631 0.00160051,-0.00114664 0.00962696,0.00173986 0.0113071,0l0.00141339 -0.00146515c0.000999325,-0.00103914 0.00288251,0.000390175 0.00424016,0 0.00506431,-0.0014532 0.00052156,-0.00551022 0.00567744,0.0058566"/>
  </g>
 </g>
</svg>
