<?xml version="1.0" encoding="UTF-8"?>
<!DOCTYPE svg PUBLIC "-//W3C//DTD SVG 1.1//EN" "http://www.w3.org/Graphics/SVG/1.1/DTD/svg11.dtd">
<!-- Creator: CorelDRAW -->
<svg xmlns="http://www.w3.org/2000/svg" xml:space="preserve" width="20.5391mm" height="21.2247mm" style="shape-rendering:geometricPrecision; text-rendering:geometricPrecision; image-rendering:optimizeQuality; fill-rule:evenodd; clip-rule:evenodd"
viewBox="0 0 21.3325 22.0446"
 xmlns:xlink="http://www.w3.org/1999/xlink">
 <defs>
  <style type="text/css">
   <![CDATA[
    .str0 {stroke:black;stroke-width:0.207726}
    .fil0 {fill:white}
   ]]>
  </style>
 </defs>
 <g id="Livello_x0020_1">
  <metadata id="CorelCorpID_0Corel-Layer"/>
  <g id="_215355048">
   <path id="_215355168" class="fil0 str0" d="M18.9222 1.47922c-0.254568,-0.20731 -1.4304,-1.05348 -1.47475,-1.37535 -2.11413,0 -7.75669,3.84127 -8.84871,5.80677 -1.10676,1.99168 -2.51078,3.42945 -3.68703,4.96631 -1.49313,1.95117 -3.32808,2.38542 -4.64558,4.66064 0.273887,0.212919 3.939,0.458451 4.27687,0.458451l14.3792 -14.5168z"/>
   <path id="_215355120" class="fil0 str0" d="M0.266097 15.5376c-0.312939,-0.146551 -0.139696,0.299333 0.221228,0.687676 0.100124,0.726417 0.442456,1.12774 0.442456,1.98648 0,1.226 0.952008,2.05784 1.54849,2.90338 1.03219,1.46301 3.71414,0.688923 4.64558,-0.0763392 0.909943,-0.747709 0.735038,-1.68341 0.0737427,-2.36859 -0.299852,-0.310758 -0.625151,-0.681652 -1.10604,-0.993241 -0.312627,-0.202429 -0.800472,-1.04237 -0.958655,-1.06968l0 -0.229225c-0.794863,-0.117573 -1.28354,-0.764016 -2.21218,-0.764016 -0.561898,0 -2.58089,-0.191004 -2.65463,-0.0764431z"/>
   <path id="_215355072" class="fil0 str0" d="M18.9222 1.47922c-0.0799744,0.130036 -3.50278,0.257165 -4.60601,1.26744 -0.517653,0.0893221 -3.10394,1.64851 -3.65276,2.24718 -0.741477,0.808884 -2.29153,4.64298 -3.24457,4.88987 0,1.10105 -6.48904,3.90608 -6.48904,6.418 0,3.6271 3.68163,5.5011 6.85776,5.5011 0.0368713,-0.229225 3.2748,-1.23815 3.39206,-1.29891 2.04942,-1.06106 4.09106,-2.37607 6.19407,-3.36173 1.44193,-0.67594 3.59978,-1.30857 3.83452,-2.7506 0.143435,-0.881692 -0.495218,-4.33036 -0.516199,-6.64723 -0.00789358,-0.869644 -0.737427,-2.45594 -0.737427,-3.36173 0,-1.83204 -0.930819,-2.12919 -1.0324,-2.90338z"/>
  </g>
 </g>
</svg>
