<?xml version="1.0" encoding="UTF-8"?>
<!DOCTYPE svg PUBLIC "-//W3C//DTD SVG 1.1//EN" "http://www.w3.org/Graphics/SVG/1.1/DTD/svg11.dtd">
<!-- Creator: CorelDRAW -->
<svg xmlns="http://www.w3.org/2000/svg" xml:space="preserve" width="27.0315mm" height="23.226mm" style="shape-rendering:geometricPrecision; text-rendering:geometricPrecision; image-rendering:optimizeQuality; fill-rule:evenodd; clip-rule:evenodd"
viewBox="0 0 250.498 215.233"
 xmlns:xlink="http://www.w3.org/1999/xlink">
 <defs>
  <style type="text/css">
   <![CDATA[
    .str0 {stroke:black;stroke-width:1.85338}
    .fil0 {fill:white}
   ]]>
  </style>
 </defs>
 <g id="Livello_x0020_1">
  <metadata id="CorelCorpID_0Corel-Layer"/>
  <g id="_215354616">
   <path id="_215354832" class="fil0 str0" d="M150.225 20.6355l4.34802 -5.85296c4.24423,-3.34256 9.03614,-5.47487 13.601,-4.91701 4.56765,0.558793 9.90815,2.79767 14.5861,6.14487 5.11161,3.65486 9.56991,4.38509 14.1422,9.26781 4.57228,4.88365 8.93513,10.1769 13.1933,15.4674 10.997,13.6594 18.8525,28.1871 26.646,43.2875 6.0902,11.8004 12.8291,20.7226 12.8291,35.1076 0,8.8369 -18.5069,6.1356 -25.6581,6.1356 -18.2845,0 -28.3122,-14.8669 -38.818,-28.631 -18.2178,-23.8696 -55.7978,-49.5065 -34.8694,-76.0098z"/>
   <path id="_215354784" class="fil0 str0" d="M219.307 134.138c1.49475,-2.87737 4.60564,-7.84812 4.60564,-10.9071 3.0729,-1.06106 2.3195,-4.77152 8.55241,-4.77152l10.5272 0c0.306734,0.957269 1.3298,0.784905 2.63179,1.36316 0.27708,1.43637 0.190898,1.46324 1.31497,2.0452 0,5.52492 5.77883,15.7528 -1.97292,19.769 -0.240939,1.74866 -0.219625,2.27317 -1.97385,2.72724 0,2.05817 -1.53274,5.83258 -3.28974,6.13468l0 1.36409c-2.97838,0.513385 -3.46303,5.89466 -6.57949,6.81672 -0.670922,4.86789 -5.37201,11.3547 -6.57949,16.3607 -2.88849,0.497632 0.257619,0.183484 -2.63087,0.682043 -3.23044,10.0407 -16.0743,20.5549 -18.4226,32.7214 -1.76905,0.30488 -15.1152,11.0155 -16.4478,2.72632 -6.4655,-0.955416 -15.1319,-12.4111 -15.1319,-19.087 0,-5.08659 0.359555,-9.63478 1.97385,-14.3164 2.03223,-5.89652 8.58021,-10.9915 9.8683,-14.9966 8.2188,-1.21582 17.6905,-19.871 25.0011,-21.1331l1.3159 -1.36316c0.339168,-2.11007 1.97385,-2.71612 1.97385,-4.77245 1.9618,-1.01565 6.04664,-2.04427 5.26359,-1.36316z"/>
   <path id="_215354736" class="fil0 str0" d="M115.819 175.408c-17.3606,-9.06672 -26.7201,-1.94327 -43.887,-16.0465 -15.2422,-12.5251 -42.9214,-33.6332 -48.0275,-65.4437 -1.72457,-10.7375 -11.2009,-20.6318 -15.1328,-32.0393 -2.52337,-7.32084 -2.8681,-19.1259 -7.23651,-25.2235 -4.83731,-6.74907 20.2435,-27.0667 25.6581,-34.0845 3.38056,-4.38231 57.514,1.36316 65.1341,1.36316 12.6586,0 20.0387,5.45356 32.2386,5.45356 3.56868,0 35.5079,0.309514 36.1853,1.36316 0.350288,-2.17772 0.73023,27.0046 -1.3159,37.4938 -5.60461,28.7431 -21.8328,54.9322 -25.0002,83.1675 -1.15373,10.2816 -5.83536,19.934 -7.23744,27.9498 -0.512459,2.92834 -10.2306,16.9973 -11.3788,16.0465z"/>
   <path id="_215354688" class="fil0 str0" d="M138.382 155.271c-19.8849,-4.41474 -35.8147,-24.8603 -48.6854,-36.8118 -7.2884,-6.76946 -29.0693,-36.5384 -40.1339,-38.1749 -0.526359,-3.82722 -37.2464,-37.4744 -44.7387,-43.6294 -10.7904,-8.86563 6.99464,-33.4034 17.1067,-33.4034 3.91433,0 5.26266,-0.681116 12.5928,3.72251 15.2589,9.16773 33.3515,27.6746 43.3301,33.7713 9.57176,5.8474 18.6793,14.3915 30.2647,19.0879 10.2501,4.15527 26.1623,28.7616 33.5535,30.6762 0,10.2881 9.86923,24.4507 9.86923,38.857 0,22.4991 2.21108,17.7785 -13.159,25.9046z"/>
   <path id="_215354640" class="fil0 str0" d="M165.357 12.7957c-10.226,0 -49.3109,14.1107 -50.6602,22.4963 -24.2987,0 -18.2178,73.3613 -23.0273,89.3022 -4.52502,15.004 -13.5843,36.3623 6.57949,41.5842 3.45377,0.894254 40.7289,21.9273 41.4489,24.5406 22.7419,0 49.7094,36.4012 62.5024,6.81765 3.33144,-7.70263 1.82558,-16.6582 6.57949,-23.8594 4.37026,-6.62119 15.5582,-10.252 17.1057,-19.0879 2.06374,-11.7838 15.1328,-23.549 15.1328,-34.7666 0,-9.87664 -22.6381,-48.4528 -28.2909,-58.626 -7.88612,-14.1913 -30.3518,-41.7204 -47.3705,-48.4009z"/>
  </g>
 </g>
</svg>
