<?xml version="1.0" encoding="UTF-8"?>
<!DOCTYPE svg PUBLIC "-//W3C//DTD SVG 1.1//EN" "http://www.w3.org/Graphics/SVG/1.1/DTD/svg11.dtd">
<!-- Creator: CorelDRAW -->
<svg xmlns="http://www.w3.org/2000/svg" xml:space="preserve" width="12.7757mm" height="7.1222mm" style="shape-rendering:geometricPrecision; text-rendering:geometricPrecision; image-rendering:optimizeQuality; fill-rule:evenodd; clip-rule:evenodd"
viewBox="0 0 8.6859 4.84222"
 xmlns:xlink="http://www.w3.org/1999/xlink">
 <defs>
  <style type="text/css">
   <![CDATA[
    .str0 {stroke:black;stroke-width:0.135975}
    .fil1 {fill:none}
    .fil0 {fill:white}
   ]]>
  </style>
 </defs>
 <g id="Livello_x0020_1">
  <metadata id="CorelCorpID_0Corel-Layer"/>
  <g id="_215351088">
   <path id="_215351160" class="fil0 str0" d="M8.32829 0.19798c-0.238229,-0.0569057 -0.52908,0.00693474 -0.724001,-0.0749904 -0.369377,-0.155284 -0.62637,0.0902876 -0.917154,0.250059 -0.26692,0.146581 -0.49393,-0.219192 -0.699865,-0.0500389 -0.119726,0.0982422 -0.327633,0.313355 -0.38617,0.450146 -0.032906,0.0767581 0.540162,0.446815 0.627458,0.475098 0.10001,0.0323621 0.147125,0.102389 0.217221,0.175068 0.0702313,0.0727468 0.259577,0.123058 0.337899,0.150049 -0.0312743,0.0107421 0.154332,0.10001 0.241356,0.10001 0.154604,0 0.550088,-0.425127 0.77234,-0.425127 0.393309,0 0.38787,-0.376856 0.627458,-0.625147 0.121154,-0.125505 0.193085,-0.28956 0.193085,-0.475166 0,-0.19832 -0.370329,0.0305265 -0.289627,0.0500389z"/>
   <path id="_215351112" class="fil1 str0" d="M6.22855 1.24825c0.266648,0.0690075 0.0141414,0.0419484 0.217221,-0.0749904 0.197844,-0.113879 0.437093,-0.135159 0.603391,-0.250059l-0.0241356 -0.0750584c0.0962026,-0.0569737 0.336539,-0.256653 0.458577,-0.20002 0.199816,0.0925992 0.370601,0.0250195 0.579187,0.0250195 -0.0501749,-0.121562 0.00972224,-0.11959 0.0241356,-0.225107 0.100282,-0.0346057 0.165958,-0.125097 0.241356,-0.250059"/>
  </g>
  <g id="_215350920">
   <path id="_215351040" class="fil0 str0" d="M0.677633 0.223c-0.171805,0.0147533 -0.464968,0.107828 -0.506848,0.325117 -0.106129,0.0182207 -0.143794,0.3311 -0.0482712,0.400107 0.236393,0.170581 0.394736,0.345853 0.675797,0.475098 0.167658,0.077166 0.618824,0.500117 0.724001,0.500117l0 0.0750584 0.0482712 0c0.0324301,0.13482 0.281265,0.233334 0.410306,0.20002 -0.143658,-0.106265 -0.0981742,-0.546417 0.0965425,-0.575108 0.0173369,-0.108372 0.1973,-0.271815 0.265492,-0.400107 0.0686676,-0.129109 0.0444639,-0.236937 0,-0.375156l-0.482712 0c-0.114287,0 -0.47197,-0.232994 -0.482712,-0.30003 -0.0755343,-0.01115 -0.0851206,-0.00367133 -0.0964745,-0.0750584 -0.0756023,-0.011082 -0.0851886,-0.00367133 -0.0965425,-0.0749904 -0.204235,-0.0301185 -0.280109,-0.250127 -0.530984,-0.250127l0.0241356 0.0750584z"/>
   <path id="_215350992" class="fil1 str0" d="M0.798311 0.473058c0.0761462,0.135363 0.139307,0.245503 0.193085,0.400107 0.0144134,0.0414725 0.0241356,0.130128 0.0241356,0.175068 0,0.112384 0.0350137,0.0924632 0.0482712,0.175068 0,-0.114491 0.0809053,0.0762142 0.0965425,0.10001 0.00741066,0.011286 0.0214161,0.0577895 0.0241356,0.0749904 0.0307304,0.191657 0.0854605,-0.0356255 -0.027739,0.282761"/>
   <path id="_215350944" class="fil1 str0" d="M1.00894 0.95985c0.418396,0.289831 0.129449,0.227215 0.247951,0.0633645l0.0723389 0c0.0302545,0.0940949 -0.0215521,0.0196484 0.0724069,0.0500389 0.104225,0.0337219 0.255158,0.150049 0.362034,0.150049 0.0664919,0 0.133868,0.00564298 0.193085,-0.0250195 0.0811093,-0.0419484 0.181391,-0.1544 0.241356,-0.175068l0.144814 -0.175068"/>
  </g>
  <g id="_215350800">
   <path id="_215350872" class="fil0 str0" d="M4.32198 2.92374c-0.184111,0.0146174 -0.410306,0.392561 -0.410306,0.600127 0.0409286,0.0141414 0.0205323,0.14257 0.0482712,0.200088 0.0457557,0.0951827 0.172757,0.161743 0.193085,0.225039 0.203963,0 0.376176,0.275078 0.555051,0.275078 0.0290987,0.0904236 0.829654,0.550156 0.965425,0.550156 0.0953187,-0.345785 0.31893,-0.797359 0.241356,-1.20032 -0.0602371,0.0103341 -0.0491551,0.0250195 -0.120678,0.0250195 -0.0594212,-0.143726 -0.0724069,-0.658869 -0.0724069,-0.825234 -0.0728148,-0.0214841 -0.0849846,-0.027807 -0.0965425,-0.10001 -0.22164,0 -0.364686,0.10001 -0.579255,0.10001 -0.153516,0 -0.458441,0.0751264 -0.603323,0.10001 0,-0.0556819 0.00203963,-0.0632285 -0.0724069,-0.125029 -0.0483392,0.0601011 -0.0626846,0.0749904 -0.0482712,0.175068z"/>
   <path id="_215350824" class="fil0 str0" d="M5.09425 2.02352l-0.120678 -0.0500389c-0.388278,0 -0.67233,-0.0246795 -0.941221,0.225039 -0.29527,0.274194 -0.308732,0.192677 -0.144814,0.575176 0.0767581,0.17908 0.128497,0.339394 0.193085,0.525137 0.0866163,0.248903 0.449127,0.266172 0.627458,0.475166 0.107285,0.125709 0.176972,0.219804 0.289627,0.350069 0.129517,0.149709 0.215725,0.227623 0.144814,0.350069 0.164122,0 0.116939,0.0530984 0.241356,-0.0499709 0.145222,-0.12027 0.193085,-0.38685 0.193085,-0.625215 0,-0.175884 0.0241356,-0.359451 0.0241356,-0.525137 0,-0.132508 -0.0482712,-0.183703 -0.0482712,-0.375088 0,-0.212869 0.118774,-0.341842 0.0724069,-0.575176 -0.0283509,-0.142366 -0.391677,-0.30003 -0.530984,-0.30003z"/>
  </g>
 </g>
</svg>
