<?xml version="1.0" encoding="UTF-8"?>
<!DOCTYPE svg PUBLIC "-//W3C//DTD SVG 1.1//EN" "http://www.w3.org/Graphics/SVG/1.1/DTD/svg11.dtd">
<!-- Creator: CorelDRAW -->
<svg xmlns="http://www.w3.org/2000/svg" xml:space="preserve" width="7.993mm" height="3.4376mm" style="shape-rendering:geometricPrecision; text-rendering:geometricPrecision; image-rendering:optimizeQuality; fill-rule:evenodd; clip-rule:evenodd"
viewBox="0 0 0.880226 0.378564"
 xmlns:xlink="http://www.w3.org/1999/xlink">
 <defs>
  <style type="text/css">
   <![CDATA[
    .str0 {stroke:black;stroke-width:0.0220249}
    .fil1 {fill:none}
    .fil0 {fill:white}
   ]]>
  </style>
 </defs>
 <g id="Livello_x0020_1">
  <metadata id="CorelCorpID_0Corel-Layer"/>
  <g id="_215351712">
   <path id="_215351784" class="fil0 str0" d="M0.138537 0.12563c-0.0264629,0.0126533 -0.0386207,0.031804 -0.0586414,0.0445564 -0.0427834,0.0272779 -0.0151421,0.0705569 -0.0117283,0.113417 0.00118935,0.01501 -0.000903022,0.0264629 0.00390942,0.0364513 0.016816,0.0348875 0.0460321,0.0146025 0.0664602,0 0.0119485,-0.00852365 0.0278175,-0.0262537 0.0429927,-0.0405038 0.0156047,-0.0146686 0.0283681,-0.030042 0.0430037,-0.0445564 0.00824833,-0.00816024 -0.00188313,-0.0207915 0.00390942,-0.0283571 0.0124881,-0.0163425 0.0255599,-0.0253947 0.00781885,-0.048598 -0.0111556,-0.0145805 -0.0361759,-0.0223443 -0.0390942,-0.0405149 -0.00734531,0 -0.068938,-0.0254168 -0.0586304,0.00810517z"/>
   <path id="_215351736" class="fil1 str0" d="M0.138537 0.12563l-0.0312754 0.0202519 0.0195471 -0.00810517 0 0.00405259c0,0.00986717 0.00886503,0.00702595 0.0156377,0.0121578 0.00342488,0.00258793 0.00796201,0.00569344 0.0117173,0.00809416 0.00953679,0.00606787 0.0144043,0.00276413 0.0234565,0.0121578 0.00735633,0.00760961 0.00896415,0.0085677 0.00781885,0.0202519 -0.00117833,0.0120476 0.00625508,0.000418474 -0.00390942,0.0161993 -0.00321564,0.00501067 -0.00900819,0.00682773 -0.0117283,0.0121578 -0.00443802,0.0087439 -0.00496662,0.0112988 -0.0156377,0.0161993 -0.0189965,0.00875491 -0.0182697,0.0189524 -0.00357905,-0.0152302"/>
  </g>
  <g id="_215351496">
   <path id="_215351664" class="fil0 str0" d="M0.644251 0.0318811c-0.0629252,0.0608439 -0.120994,0.0675615 -0.19296,0.0888486 -0.0137986,0.00408562 -0.0423539,-0.00529699 -0.0526175,0 -0.0154835,0.00802809 -0.0328502,0.0376076 -0.0409333,0.0403937 0.00155276,0.00213642 -0.0487191,0.0921853 -0.0487191,0.123185 0,0.0947953 0.155749,0.0828027 0.235832,0.0828027 0.0790915,0 0.165958,-0.075072 0.231933,-0.0868443 0.0351738,-0.0062771 0.0865139,-0.0550623 0.0916017,-0.0868333 0.0086558,-0.0541263 -0.0494019,-0.022047 -0.0604254,-0.0585643 -0.016816,-0.0557671 0.0284342,-0.0788823 -0.0409223,-0.111072 -0.0513621,-0.023842 -0.0890358,-0.0105279 -0.122789,0.00808315z"/>
   <path id="_215351616" class="fil1 str0" d="M0.35774 0.161123c0.0187102,0.0118714 0.0659316,0.0316168 0.0740698,0.0484659 0.00905224,-0.0117283 0.00973502,0.015935 0.00973502,0.0222121 0,0.00936059 -0.00160782,0.0201638 -0.00584762,0.02828 -0.00672862,0.0128515 -0.0249653,0.0231041 -0.0370239,0.0343258 -0.0133581,0.0124441 -0.0251304,0.022961 -0.0409333,0.0323106"/>
   <path id="_215351568" class="fil1 str0" d="M0.440223 0.246316c0.091029,-0.0250093 0.167478,-0.047739 0.246899,-0.0952908 0.0217276,-0.0130057 0.0643018,-0.0328832 0.0779682,-0.0545227 0.00405259,-0.00640925 0.0329713,-0.0494019 0.0233905,-0.0444353"/>
   <path id="_215351520" class="fil1 str0" d="M0.722208 0.146983c0.0206704,0.00713608 0.0366715,0.0258793 0.0526286,0.042409 0.0101425,0.0105169 0.0222452,0.0174768 0.0331255,0.0302953 0.00548421,0.00643128 0.0122018,0.0127414 0.0175429,0.0201969 0.00308349,0.00431689 0.00752151,0.0169702 0.00691583,0.00788492"/>
  </g>
 </g>
</svg>
