<?xml version="1.0" encoding="UTF-8"?>
<!DOCTYPE svg PUBLIC "-//W3C//DTD SVG 1.1//EN" "http://www.w3.org/Graphics/SVG/1.1/DTD/svg11.dtd">
<!-- Creator: CorelDRAW -->
<svg xmlns="http://www.w3.org/2000/svg" xml:space="preserve" width="13.0184mm" height="14.2746mm" style="shape-rendering:geometricPrecision; text-rendering:geometricPrecision; image-rendering:optimizeQuality; fill-rule:evenodd; clip-rule:evenodd"
viewBox="0 0 1.3598 1.49101"
 xmlns:xlink="http://www.w3.org/1999/xlink">
 <defs>
  <style type="text/css">
   <![CDATA[
    .str0 {stroke:black;stroke-width:0.0208904}
    .fil0 {fill:white}
   ]]>
  </style>
 </defs>
 <g id="Livello_x0020_1">
  <metadata id="CorelCorpID_0Corel-Layer"/>
  <g id="_124638720">
   <path id="_124638840" class="fil0 str0" d="M0.0417078 0.818111l0.00670583 0.107701c0.0109466,0.0642381 -0.00147278,0.12669 -0.021538,0.184285 -0.034323,0.0984984 0.148573,0.107711 0.207641,0.145993 0.054921,0.0355764 0.157503,0.130513 0.229889,0.145993 0.0808356,0.0172973 0.127139,0.107586 0.229899,0.0691578 0.0688027,-0.025737 0.125134,-0.0266353 0.192808,-0.0461052 0.132153,-0.0380415 0.22381,-0.108965 0.296634,-0.18441 0.0320355,-0.0332054 0.0947068,-0.0451129 0.111231,-0.0998876 0.0252983,-0.0839169 -0.487593,-0.205113 -0.578435,-0.222838 -0.131171,-0.0255803 -0.264128,-0.0357958 -0.393033,-0.0614701 -0.0862462,-0.0171824 -0.19496,0.00454367 -0.274385,-0.0307298 0.023554,0 0.057198,-0.00254863 -0.00741611,-0.00768768z"/>
   <path id="_124638792" class="fil0 str0" d="M0.442167 0.287933c0.0248492,-0.0557879 0.0262593,-0.1159 0.0519023,-0.169045 0.00572398,-0.0118658 0.00906645,-0.071978 0.0148322,-0.076835 0.0222379,-0.0187178 0.0694816,0.0213918 0.0741611,-0.00768768 0.0222274,0.0460739 0.0784749,0.0230839 0.111242,0.0461052 0.137052,0.0962631 0.269685,0.234359 0.34112,0.399551 0.0411228,0.0950619 0.053396,0.106708 0.148322,0.161368 0.104348,0.0600705 0.0868624,0.0768246 0.118647,0.15367 -0.0502937,0 0.0290899,0.14287 0.0370805,0.161358 0.0526126,0.121645 -0.116433,0.222838 -0.207641,0.222838 -0.108432,0 -0.234474,-0.00110719 -0.311466,-0.0614701 -0.164585,-0.129019 -0.358658,-0.180587 -0.400449,-0.407249 -0.0325473,-0.176441 0.0529782,-0.286397 0.0222483,-0.422603z"/>
   <path id="_124638744" class="fil0 str0" d="M0.456999 0.103523c-0.239874,0.177517 -0.415292,0.341684 -0.415292,0.714589 0,0.216979 0.0486643,0.20482 0.207641,0.299673 0.111785,0.0666718 0.345716,0.0508578 0.444956,0.15367 0.00370805,-0.0230526 0.129667,0.0298002 0.192808,0.0230526 0.0587021,-0.00626713 0.110918,-0.0757696 0.192808,-0.0845227 0.11285,-0.0120642 0.208445,-0.195514 0.126074,-0.291986 -0.075989,-0.0889828 -0.0842094,-0.156407 -0.163154,-0.238193 -0.0958558,-0.0993236 -0.0616686,-0.29795 -0.200224,-0.345768 -0.0341768,-0.0118031 -0.349455,-0.202606 -0.385617,-0.230516z"/>
  </g>
 </g>
</svg>
