<?xml version="1.0" encoding="UTF-8" standalone="no"?>
<!-- Created with Inkscape (http://www.inkscape.org/) -->

<svg
   xmlns:dc="http://purl.org/dc/elements/1.1/"
   xmlns:cc="http://creativecommons.org/ns#"
   xmlns:rdf="http://www.w3.org/1999/02/22-rdf-syntax-ns#"
   xmlns:svg="http://www.w3.org/2000/svg"
   xmlns="http://www.w3.org/2000/svg"
   xmlns:sodipodi="http://sodipodi.sourceforge.net/DTD/sodipodi-0.dtd"
   xmlns:inkscape="http://www.inkscape.org/namespaces/inkscape"
   width="744.09448819"
   height="1052.3622047"
   id="svg2"
   version="1.1"
   inkscape:version="0.47 r22583"
   sodipodi:docname="Nuovo documento 1">
  <defs
     id="defs4">
    <inkscape:perspective
       sodipodi:type="inkscape:persp3d"
       inkscape:vp_x="0 : 526.18109 : 1"
       inkscape:vp_y="0 : 1000 : 0"
       inkscape:vp_z="744.09448 : 526.18109 : 1"
       inkscape:persp3d-origin="372.04724 : 350.78739 : 1"
       id="perspective10" />
  </defs>
  <sodipodi:namedview
     id="base"
     pagecolor="#ffffff"
     bordercolor="#666666"
     borderopacity="1.0"
     inkscape:pageopacity="0.0"
     inkscape:pageshadow="2"
     inkscape:zoom="1.0568359"
     inkscape:cx="375"
     inkscape:cy="620.00962"
     inkscape:document-units="px"
     inkscape:current-layer="layer1"
     showgrid="false"
     inkscape:window-width="1680"
     inkscape:window-height="1000"
     inkscape:window-x="-8"
     inkscape:window-y="-8"
     inkscape:window-maximized="1" />
  <metadata
     id="metadata7">
    <rdf:RDF>
      <cc:Work
         rdf:about="">
        <dc:format>image/svg+xml</dc:format>
        <dc:type
           rdf:resource="http://purl.org/dc/dcmitype/StillImage" />
        <dc:title></dc:title>
      </cc:Work>
    </rdf:RDF>
  </metadata>
  <g
     inkscape:label="Livello 1"
     inkscape:groupmode="layer"
     id="layer1">
    <path
       style="fill:#ffffff;stroke:#000000;stroke-width:1px;stroke-linecap:butt;stroke-linejoin:miter;stroke-opacity:1"
       d="m 70.96655,284.03101 c -0.662726,19.67972 -15.550076,42.41472 -28.38662,52.04213 -2.919413,2.18956 -2.419918,17.11896 -4.731104,20.81686 -2.114067,3.3825 -7.479542,5.87243 -9.462206,8.51598 -17.20529,22.94039 21.607149,102.68843 30.279061,121.11625 4.076286,8.66211 32.09585,66.65181 37.848826,70.96655 13.921183,10.44088 18.395553,31.64263 29.332843,42.57993 0.23926,0.23926 6.58637,16.1415 8.51598,13.24709 7.37918,-11.06877 15.9149,-10.58115 25.54796,-16.08576 5.29074,-3.02327 8.21453,-11.9994 11.35465,-15.13953 15.84446,-15.84446 6.33503,-46.40515 17.03197,-62.45056 16.83909,-25.25863 38.96504,-165.85037 21.76308,-196.8139 -6.96589,-12.5386 -17.01657,-49.19834 -31.22528,-53.93458 -15.75047,-5.25015 -116.666119,-15.36885 -107.86916,15.13954 z"
       id="path2818" />
    <path
       style="fill:none;stroke:#000000;stroke-width:1px;stroke-linecap:butt;stroke-linejoin:miter;stroke-opacity:1"
       d="m 45.418592,338.9118 c -6.928706,3.43489 33.297487,25.51551 41.633709,30.27906 16.233969,9.27656 56.860089,8.60284 66.235449,17.9782 3.42108,3.42108 -2.83866,23.6313 -2.83866,28.38662 0,57.81575 2.55002,144.40281 -17.9782,185.45925"
       id="path2820" />
  </g>
</svg>
