<?xml version="1.0" encoding="UTF-8"?>
<!DOCTYPE svg PUBLIC "-//W3C//DTD SVG 1.1//EN" "http://www.w3.org/Graphics/SVG/1.1/DTD/svg11.dtd">
<!-- Creator: CorelDRAW -->
<svg xmlns="http://www.w3.org/2000/svg" xml:space="preserve" width="16.3749mm" height="20.2629mm" style="shape-rendering:geometricPrecision; text-rendering:geometricPrecision; image-rendering:optimizeQuality; fill-rule:evenodd; clip-rule:evenodd"
viewBox="0 0 33.4411 41.3812"
 xmlns:xlink="http://www.w3.org/1999/xlink">
 <defs>
  <style type="text/css">
   <![CDATA[
    .str0 {stroke:black;stroke-width:0.408443}
    .fil0 {fill:white}
   ]]>
  </style>
 </defs>
 <g id="Livello_x0020_1">
  <metadata id="CorelCorpID_0Corel-Layer"/>
  <g id="_124482704">
   <path id="_124482824" class="fil0 str0" d="M2.74147 23.7904c-0.0236897,0.148265 -0.0245066,0.217292 -0.144997,0.300614 0,1.4753 -0.790134,5.15639 0,6.38479l0.217496 0c0.0743367,0.231587 1.32581,0.981081 1.66747,1.05154 0.0351261,0.109667 0.24915,0.248742 0.289995,0.375564l0.0724987 0.0751536c0.150511,0.0259361 0.314501,0.101294 0.362289,0.300614 0.261199,0.0447245 0.489928,0.39762 0.797486,0.450513 0.0328797,0.137033 0.112322,0.163582 0.144997,0.300614 0.227503,0 0.494421,0.198095 0.579989,0.375564 0.253643,0.0434992 1.39014,0.702318 1.52247,0.976384l0.217496 0c0.118449,0.184208 0.389042,0.231996 0.434992,0.375564l0.144997 0c0.101498,0.158068 0.109871,0.115794 0.144997,0.225461 0.227299,0 0.494216,0.198299 0.579989,0.375564 0.28591,0 0.458478,0.0802591 0.579785,0.30041l0.217496 0c0.143772,0.223623 0.257932,0.0833224 0.362493,0.30041 0.463175,0 3.0911,1.72465 3.33494,2.10328 0.168687,0 0.214841,-0.00510554 0.289995,0.150307 0.202792,0 0.525462,0.130906 0.579785,0.30041l0.217496 0c0.138871,0.191764 0.687819,0.280396 0.797486,0.450717 0.689044,0 1.35133,0.751127 2.17496,0.751127 0.100681,0.314297 1.22002,0.30041 1.59477,0.30041 0.107625,-0.390063 -0.0361472,-1.80266 0.0724987,-1.87782 -0.110892,-0.268551 -0.293875,-0.454802 -0.507287,-0.675974 0,-0.361881 -0.0551398,-1.41138 -0.362493,-1.50246 -0.133969,-0.485435 -0.757254,-0.96025 -1.08748,-1.4271 -0.51566,-0.728254 -1.78081,-1.64643 -1.88497,-2.40369 -0.581623,-0.301431 -1.22308,-1.04419 -1.81226,-1.50225 -1.25086,-0.972095 -2.92364,-1.91315 -4.34972,-2.7043 -0.455618,-0.252418 -0.815049,-0.580194 -1.23248,-0.826281 -0.744592,-0.43826 -3.0331,-2.25338 -3.76973,-2.25338l-0.144997 -0.150307c-0.0943504,-0.293058 -0.0508512,-0.00735198 -0.144997,-0.30041 -0.19544,-0.028591 -0.767465,-0.29122 -0.869984,-0.450717l-0.144997 0c-0.201158,-0.312663 -0.559567,-0.212799 -0.942483,-0.150307z"/>
   <path id="_124482776" class="fil0 str0" d="M20.5753 33.931c-0.227707,0.255686 -0.455414,0.666784 -0.724987,0.826281 -0.0439077,0.229545 -0.122941,0.335332 -0.289791,0.450717 0,0.203405 -0.10497,0.283868 -0.144997,0.450717 -0.385366,0.066372 -0.195032,0.685572 -0.507491,0.901434 0,1.10382 0.362493,2.26318 0.362493,3.38028 0.177264,0.122329 0.336149,0.375564 0.579785,0.375564 0.117427,0.18237 0.212595,0.267735 0.434992,0.30041 0.0684143,0.212391 0.390676,0.283255 0.507491,0.525871 0.35024,-0.0904702 0.432133,-0.550173 0.579989,-0.601024 0,-0.258749 0.285502,-0.722945 0.434992,-0.826281l0 -0.225256c0.199525,-0.13785 0.0906744,-0.0876111 0.289995,-0.225461l0 -0.225256c0.646362,-0.223214 1.18653,-2.03772 1.59497,-2.17843l0 -0.375564c0.131519,-0.0908786 0.0859773,-0.209531 0.217496,-0.30041 -0.0724987,-0.225665 0,-0.102315 0,-0.375564 0.308987,-0.182983 0.332881,-0.76624 0.507491,-0.826281l0 -0.225461c0.131315,-0.0906744 0.0859773,-0.209531 0.217496,-0.30041l0 -0.225256c0.184208,-0.12723 0.184821,-0.0959842 0.217292,-0.300614 0.533631,-0.315931 1.01151,-1.35113 1.44997,-1.50225l0 -0.30041c1.21859,-0.842414 1.86985,-3.61942 3.04494,-4.43181 0,-0.251193 0.0724987,-0.400274 0.0724987,-0.675974 0.436422,-0.301431 0.289791,-1.12771 0.289791,-1.65256 0.188088,-0.130089 0.20851,-1.08462 0.579989,-1.277 0,-0.467668 0.362493,-0.721107 0.362493,-1.12669 0.355141,-0.24527 0.411098,-0.916138 0.797486,-1.20205 0,-0.354937 0.116611,-0.621242 0.434992,-0.675974 0.10109,-0.367191 0.592243,-0.688023 0.652488,-1.12669 0.240573,-0.0831182 0.117836,-0.248742 0.362493,-0.375564l0 -0.375564c0.0982306,-0.101907 0.0724987,-0.183595 0.0724987,-0.375564 0.515864,-0.356571 -0.0328797,-1.53187 0.217496,-1.87802 -0.445203,-0.615728 -0.369437,-2.16761 -1.30498,-2.32854 -0.0477879,-0.148673 -0.82914,-1.01968 -1.01498,-1.05154l-0.144997 -0.150307 -0.0724987 -0.225256c-0.307354,-0.182166 -0.487886,-0.450717 -0.869984,-0.450717 -0.173588,0.420288 -0.667396,0.852421 -0.942279,1.20184 -0.375359,0.476245 -0.625327,1.70076 -1.01498,1.95297 -0.0998644,1.03826 -1.6787,2.64467 -2.10246,3.60553l-1.15977 2.62915c-0.321649,0.728867 -0.822605,1.50532 -0.942483,2.25338 -0.420288,0.290403 -0.579989,1.50082 -0.579989,2.02813 -0.687206,0.474611 -0.729071,3.27 -1.37748,3.60553 0,0.598778 -0.561814,1.56924 -0.724987,2.17843 -0.117223,0.437647 0.0602454,1.7175 -0.362493,1.72751z"/>
   <path id="_124482728" class="fil0 str0" d="M4.04645 0.204222c1.95073,0 2.27564,0.315114 3.84223,1.12669 1.2094,0.626348 3.05332,0.125596 4.05972,0.751127 -0.135603,0 1.30947,0.976588 2.17496,0.976588 2.72718,0 3.88613,0.360655 6.08948,1.50225 1.85413,0.96025 2.86543,3.23896 4.85721,4.58212l4.56721 3.07966c1.51961,1.02458 1.52247,0.441527 1.52247,2.25338 0,3.62759 -1.53207,5.61712 -2.60975,8.71352 -0.936765,2.69144 -2.32772,5.37328 -3.76993,7.96219 -1.42914,2.56543 -2.06591,4.55353 -4.20472,6.30984 -1.65583,1.3595 -3.46768,-0.531181 -4.85721,-1.50246 -2.79375,-1.95318 -7.09405,-3.06884 -9.56942,-5.63366 -1.82635,-1.89252 -4.85721,-3.4203 -4.85721,-6.76035 0,-0.958821 0.0998644,-5.07879 -0.289995,-5.70881 -0.574884,-0.930025 -0.797281,-0.634517 -0.797281,-2.02813 0,-1.5288 1.37727,-3.03637 1.37727,-4.43181 0,-1.8286 0.434992,-3.96088 0.434992,-5.93407 0,-0.941258 0.769711,-1.84759 1.08748,-2.7043 0.147652,-0.39762 0.134582,-0.905519 0.289995,-1.35195 0.204222,-0.587341 0.652488,-0.561405 0.652488,-1.20184z"/>
  </g>
 </g>
</svg>
