<?xml version="1.0" encoding="UTF-8"?>
<!DOCTYPE svg PUBLIC "-//W3C//DTD SVG 1.1//EN" "http://www.w3.org/Graphics/SVG/1.1/DTD/svg11.dtd">
<!-- Creator: CorelDRAW -->
<svg xmlns="http://www.w3.org/2000/svg" xml:space="preserve" width="11.6549mm" height="8.7945mm" style="shape-rendering:geometricPrecision; text-rendering:geometricPrecision; image-rendering:optimizeQuality; fill-rule:evenodd; clip-rule:evenodd"
viewBox="0 0 3.44774 2.60158"
 xmlns:xlink="http://www.w3.org/1999/xlink">
 <defs>
  <style type="text/css">
   <![CDATA[
    .str0 {stroke:black;stroke-width:0.0591637}
    .fil0 {fill:white}
   ]]>
  </style>
 </defs>
 <g id="Livello_x0020_1">
  <metadata id="CorelCorpID_0Corel-Layer"/>
  <g id="_124482872">
   <path id="_124482992" class="fil0 str0" d="M0.105785 1.70874c0.0898105,0.119659 0.0741026,0.0778595 0.0393143,0.177757 -0.0399059,0.114718 -0.0505258,0.171072 -0.0210031,0.293778 0,-0.041385 0.0532178,0.0964369 0.0735109,0.130574 0.0162109,0.0273632 0.0648434,0.0836871 0.0735109,0.119688 0.0462956,0 0.062684,0.0217723 0.115488,0.0217723 0.168469,0 0.342203,-0.00295819 0.504075,0.0108861 0.0600808,0.00511766 0.128504,0.0326288 0.188999,0.0326288 0.246358,0 0.490142,0.0799894 0.73508,0.0761733l0.693074 -0.0108861c0.00529515,-0.0330429 0.0709669,-0.0400834 0.105016,-0.0544011 0.0349362,-0.0146726 0.126019,-0.129953 0.126019,-0.195862 0,-0.118298 -0.0182816,-0.142851 -0.105016,-0.206718 -0.0900768,-0.0663225 -0.158736,-0.131846 -0.262509,-0.163233l-1.00812 -0.304634c-0.106228,-0.0321259 -0.298096,0 -0.409531,0 -0.0713219,0 -0.132763,0.0326288 -0.19953,0.0326288 -0.0940703,0 -0.191276,0.0108861 -0.294044,0.0108861 -0.0684229,0 -0.146194,0.0168025 -0.1995,0.0217723 -0.0510583,0.00476268 -0.105814,-0.00899289 -0.154831,0.00718839z"/>
   <path id="_124482944" class="fil0 str0" d="M3.41094 1.17925c-0.0271562,-0.0216539 -0.0413554,-0.031978 -0.0630094,-0.0544011 -0.037569,0 -0.0264462,0.00988034 -0.0315047,-0.0217427 -0.0265941,-0.00393439 -0.0406455,-0.00804627 -0.0525078,-0.0326584l-0.0315047 -0.0108861c-0.021151,-0.0328655 -0.0155305,-0.00955494 -0.0210031,-0.0435149 -0.0265941,-0.00393439 -0.0406455,-0.00804627 -0.0524782,-0.0326288l-0.0315047 -0.0108861c-0.0141105,-0.0117144 -0.0278957,-0.0209144 -0.0420062,-0.0326288 -0.0305876,-0.00630094 -0.070109,-0.0136964 -0.0945141,-0.0326584 -0.0231626,0 -0.0237247,0.00047331 -0.0420062,-0.0108861 -0.0471239,0 -0.0886864,-0.0108861 -0.13652,-0.0108861 -0.00496975,0.0206777 -0.0376873,0.0576255 -0.0525078,0.0652872l-0.0105016 0.0326584c-0.0349953,0.0155305 -0.0264166,0.000769129 -0.0315047,0.0326288 -0.0409709,0.0141697 -0.00100578,0.00760254 -0.0420062,0.0217723 -0.00931829,0.0338121 -0.0242571,0.0241684 -0.0315047,0.0544011l-0.0210031 0.0108861c-0.0290494,0.0301143 -0.0438699,0.0665888 -0.0735109,0.0870298l-0.0105016 0.0326584 -0.0420062 0.0435149c-0.00378648,0.0275703 -0.00775045,0.0421246 -0.0314751,0.0544011 -0.00488101,0.0356166 0.000532474,0.0245234 -0.0315047,0.0435149l-0.0210031 0.0217723c-0.00488101,0.035587 0.000532474,0.0245234 -0.0315047,0.0435149l-0.0210031 0.0217723c-0.00588679,0.024405 -0.0079871,0.0186957 -0.0315047,0.0326288 -0.00748421,0.0387522 -0.00248488,0.0240796 -0.0315047,0.0326584l-0.0105016 0.0326288 0 0.0217723c-0.0268603,0.0185478 -0.0209144,0.027097 -0.0420062,0.0544011 -0.00511766,0.0266533 -0.0184887,0.0416513 -0.0315047,0.0652872l0 0.0217427c-0.0329838,0.00567972 -0.0119511,-0.00529515 -0.0315047,0.0217723l0 0.0544011 -0.0210031 0.0326288 0 0.0326584c-0.0299368,0.0414146 -0.0105016,0.232129 -0.0105016,0.293778 0.0208256,0.0215652 0.0168617,0.0132823 0.0210031,0.0435149l0.0210031 0.0217723c0.0145543,0.00754338 0.0169504,0.0141993 0.0315047,0.0217427l0.0105016 0.0108861c0.0136668,0.02476 0.0257658,0.0475085 0.0525078,0.0544011 0.0192578,0.0299368 0.0122469,0.0136077 0.0315047,0.0435445 0.0176012,0.00449644 0.0268308,0.00721798 0.0315047,0.0217427 0.0244346,0 0.0311201,-0.000739547 0.0420062,0.0217723l0.0210031 0.0108861 0.136491 0c0.0196424,-0.0152347 0.0265054,-0.0108861 0.0525078,-0.0108861 0.0185182,-0.015353 0.0353799,-0.0193761 0.0525078,-0.0326584l0.0315047 -0.0108565 0.0315047 0 0.0210031 -0.0217723 0.0315047 -0.0108861 0.0210031 -0.0217427 0.0105016 -0.0326584 0.0210031 -0.0217723 0 -0.0326288 0.0210031 -0.0217723c0.00425979,-0.0178674 0.00748421,-0.0186366 0.0210031,-0.0326288l0.0105016 -0.0326584c0.0237247,-0.0122765 0.0277182,-0.0268308 0.0315047,-0.0544011 0.0383381,-0.0131935 0.0044077,-0.00304693 0.0315047,-0.0217427l0 -0.0326584 0.0210031 -0.0326288c0,-0.0220977 -0.00567972,-0.0161813 0.0105016,-0.0217723l0 -0.0326288c0.0249967,-0.0172758 0.019524,-0.0318893 0.0420062,-0.0435149l0 -0.0326584c0.0265054,-0.0183112 0.0210031,-0.00346108 0.0210031,-0.0326288 0.0155009,-0.0107086 0.00550223,-0.0110636 0.0210031,-0.0217723l0 -0.0326288 0.0210031 -0.0217723c0.00488101,-0.0204707 0.0164179,-0.0278957 0.0315047,-0.0435149l0.0105016 -0.0326584c0.014288,-0.0147909 0.0183703,-0.0281028 0.0315047,-0.0326288l0 -0.0326584c0.0219793,-0.0113594 0.0399059,-0.0384564 0.0629798,-0.0544011 0.00532474,-0.0221272 0.0176012,-0.0219202 0.0315047,-0.0435149l0.0315047 -0.0108861 0.0105016 -0.0326288c0.0208848,-0.010827 0.0176012,-0.0242867 0.0315047,-0.0435149 0,-0.0253221 -0.000709965,-0.0322738 0.0210031,-0.0435445l0 -0.0652872c0.0131343,-0.00905205 0.0110636,-0.0412075 0.0210031,-0.0652872l0.0315047 -0.0108565 0.0210031 -0.0435445z"/>
   <path id="_124482896" class="fil0 str0" d="M1.43673 0.0367998c-0.124155,0.0192874 -0.203878,0.054756 -0.294044,0.0652872 -0.128563,0.014998 -0.265704,0.0652872 -0.39903,0.0652872 -0.114393,0 -0.267627,0.151548 -0.294044,0.261119 -0.0294931,-0.0509696 -0.0549927,-0.00236655 -0.0840125,0.0652872 -0.0285465,0.0666775 -0.0812614,0.127705 -0.104986,0.195862 -0.0689849,0.197991 -0.105016,0.385659 -0.105016,0.63107 0,0.0987147 -0.0107678,0.20166 -0.0210031,0.304664 -0.00834209,0.0837167 -0.048248,0.0985964 -0.0840125,0.152317 -0.0146134,0.0220089 -0.0210031,0.139626 -0.0210031,0.174089 0.0847225,0.0292565 0.13868,0.0842196 0.231034,0.130574 0.180272,0.0904613 0.377642,0.146785 0.567055,0.217604 0.158588,0.0593412 0.335429,0.0472718 0.504045,0.0652872 0.206186,0.0220089 0.690766,0.120842 0.882102,0.0217723 0.128622,-0.0665888 0.208523,-0.107264 0.315017,-0.217604 0.0925617,-0.0959044 0.122084,-0.170007 0.189028,-0.239376 0.132261,-0.137023 0.228106,-0.289488 0.294044,-0.478753 0.0281324,-0.0807585 0.0840125,-0.0619444 0.0840125,-0.174089 0,-0.0902543 0.0218906,-0.25683 -0.0210031,-0.326436 -0.118771,-0.192667 -0.299161,-0.22642 -0.483072,-0.348179 -0.118061,-0.0781257 -0.352705,-0.348179 -0.483042,-0.348179 -0.0108565,-0.0676241 -0.229052,-0.188466 -0.315047,-0.195832 -0.127616,-0.0109453 -0.230946,-0.0435445 -0.357024,-0.0217723z"/>
  </g>
 </g>
</svg>
