<?xml version="1.0" encoding="UTF-8"?>
<!DOCTYPE svg PUBLIC "-//W3C//DTD SVG 1.1//EN" "http://www.w3.org/Graphics/SVG/1.1/DTD/svg11.dtd">
<!-- Creator: CorelDRAW -->
<svg xmlns="http://www.w3.org/2000/svg" xml:space="preserve" width="13.7161mm" height="16.5912mm" style="shape-rendering:geometricPrecision; text-rendering:geometricPrecision; image-rendering:optimizeQuality; fill-rule:evenodd; clip-rule:evenodd"
viewBox="0 0 24.7086 29.8879"
 xmlns:xlink="http://www.w3.org/1999/xlink">
 <defs>
  <style type="text/css">
   <![CDATA[
    .str0 {stroke:black;stroke-width:0.360286}
    .fil0 {fill:white}
   ]]>
  </style>
 </defs>
 <g id="Livello_x0020_1">
  <metadata id="CorelCorpID_0Corel-Layer"/>
  <g id="_124413416">
   <path id="_124413560" class="fil0 str0" d="M1.33072 12.0305c-0.266252,0.624917 -0.822714,1.28964 -1.04231,1.97383 -0.199959,0.623115 -0.0639508,1.2365 -0.0639508,1.85529 0.173118,0.179423 0.302641,0.65392 0.447476,0.728859 0.0544032,0.2259 0.28913,0.696974 0.447656,0.861264 0,0.242473 0.162309,0.348757 0.191852,0.596454 0.139611,0.0722374 0.0812446,0.0808843 0.255803,0.132405 0.0223378,0.210407 0.101961,0.341011 0.127902,0.530161 0.261928,0.0774616 0.154743,0.278862 0.383705,0.397576l0.0639508 0.132405c0,0.268233 0.388749,0.610865 0.639508,0.662747l0.0639508 0.0661125c0.0517011,0.107365 0.134207,0.167533 0.255803,0.198878l0.0639508 0.0662927c0.0237789,0.149339 0.0502599,0.191672 0.191852,0.264991l0.0639508 0.132585 0.0639508 0.132405 0 0.198878 0.0639508 0.0661125c0.185367,0.0961964 0.127902,0.258505 0.127902,0.463869 0.293994,0.203201 0.225359,0.779299 0.511607,0.927737l0.0639508 0.132405c0.0356683,0.148618 0.0484585,0.114031 0.191852,0.198878 0.0345875,0.180503 0.0999795,0.18843 0.191852,0.331283 0.134567,0.027742 0.137089,0.0192753 0.191852,0.132405 0.203382,0.0349478 0.367132,0.277601 0.575377,0.331283l0.0639508 0.0662927c0.0864687,0.179242 0.463688,0.231844 0.575557,0.463869l0.127902 0.0662927 0.191852 0c0.107545,0.167173 0.0203562,0.132405 0.191852,0.132405 0.103042,0.160327 0.317232,0.302641 0.511607,0.331283 0.116012,0.360827 0.851537,0.260667 0.959262,0.596454l0.127902 0c0.153122,0.238149 1.15238,0.961244 1.34279,0.99385 0.0733183,0.151861 0.564749,0.463869 0.76741,0.463869l0.255803 0.132405c0.0363889,0.22626 0.159787,0.132405 0.255803,0.331283 0.346055,0 1.38458,0.483684 1.53482,0.795152 0.23923,0 0.705801,0.334886 0.831361,0.530161l0.191852 0c0.0308045,0.0965567 0.0381903,0.0594472 0.127902,0.198698l0.191672 0c0.416671,0.647615 2.00067,0.662567 2.74989,0.662567 0.098178,-0.237609 -0.0911524,-0.558084 -0.255803,-0.728859 0,-0.688507 -0.273457,-1.46979 -0.447656,-2.12028 -0.0911524,-0.33975 -0.233105,-0.669772 -0.319754,-0.99385 -0.114031,-0.425318 -0.434685,-0.79281 -0.511607,-1.19273 -0.618792,-0.274538 -0.829019,-1.35197 -1.34279,-1.789 -0.480622,-0.409105 -1.52041,-1.52978 -1.66272,-2.12028 -0.494313,-0.219234 -1.49807,-1.97347 -2.04643,-2.51786 -1.41917,-1.40872 -3.5036,-2.30493 -4.86008,-3.71041 -0.47756,-0.495033 -1.65642,-1.5903 -2.4939,-1.5903l-0.127902 -0.132405c-0.35182,0 -0.646174,-0.198878 -1.02321,-0.198878 -0.101421,-0.386227 -0.121777,-0.245895 0.0192753,-0.184827z"/>
   <g>
    <path id="_124413512" class="fil0 str0" d="M7.13079 0.222477c-0.77966,1.50041 -1.3073,3.26383 -2.11038,4.70426 -0.370735,0.665269 -1.8171,4.21067 -2.366,4.37316 0.403521,0.365691 -1.45844,2.87959 -1.66272,3.24672 -0.937465,1.68686 -0.00432344,1.74721 0.191852,3.37931 0.187709,0.0322456 0.319754,0.260127 0.319754,0.463688 0.12538,0.0432344 0.127902,0.0859283 0.127902,0.265171 0.0958362,0.0329662 1.68992,1.84521 1.79062,1.9877 0.984843,1.39647 2.49949,2.04697 3.70897,3.44542 0.567451,0.656081 2.5692,1.66272 3.58107,2.18658 2.53479,1.31252 3.98873,3.16602 6.71466,1.12644 1.20354,-0.900356 1.66146,-1.34639 2.4939,-2.58415 0.232385,-0.345695 0.751377,-2.51624 0.703459,-2.91526 0.508184,-0.175459 0.554661,-4.77704 0.895311,-5.56588 0.237429,-0.549797 0.882341,-1.65065 0.511607,-2.25287 -0.347496,-0.563668 -1.04123,-1.84755 -1.47087,-1.92141 -0.0662927,-0.482784 -0.635545,-1.35324 -0.831361,-1.85529l-1.08716 -2.78285c-0.190772,-0.488909 -1.81674,-1.85529 -2.42995,-1.85529 -0.202481,-0.733723 -3.56287,-2.14442 -4.47638,-2.51786 -0.794972,-0.325158 -1.71226,-0.331283 -2.6218,-0.331283 -0.879279,0 -1.43016,-0.398657 -1.98248,-0.596274z"/>
    <path id="_124413464" class="fil0 str0" d="M23.0538 12.2816l0.511607 0.463869c-0.832081,-0.430902 -1.95077,-1.13166 -2.81366,-1.25902 -0.114211,0.157986 -0.159066,0.286428 -0.319754,0.397576 -0.0378301,0.275079 -0.212749,0.788306 -0.319754,1.06014 -0.149879,0.380823 -0.379922,1.30045 -0.703459,1.52401 0,0.282825 -0.250039,1.09239 -0.447656,1.12644 -0.132766,0.828118 -0.722194,1.57841 -0.895311,2.38528l-0.191852 0.132585c0,0.260307 0.0580061,0.149879 -0.191672,0.264991 -0.140332,0.65392 -0.831361,1.23254 -0.831361,1.9877 -0.261928,0.193654 -0.342812,0.549076 -0.639508,0.795152 0,0.196716 -0.0261208,0.311828 -0.191852,0.397576 0,0.265171 -0.456303,1.3599 -0.639508,1.39143l0 0.132585c-0.18843,0.130063 -0.255803,0.479721 -0.255803,0.728859 -0.388028,0.0668331 0.0160327,0.472335 -0.319754,0.529981l0 1.789c0,0.368573 0.0556642,0.834964 0.127902,1.19273 0.059087,0.293273 0.282104,0.587087 0.319754,0.861264 0.439729,0.0650317 0.397936,0.802538 0.76741,0.99403 0,0.269134 0.194374,0.335066 0.319754,0.529981 0.198518,0 0.271476,-0.0401719 0.447656,-0.0662927 0.174739,-0.316872 0.526919,-0.425318 0.575557,-0.728859 0.336327,-0.199238 0.347496,-0.64203 0.76723,-0.728859 0.131865,-0.23869 0.625457,-1.34243 0.76741,-1.39143 -0.0542231,-0.196716 0,-0.177801 0,-0.397576l0.127902 -0.132405 0 -0.198878c0.167713,-0.115832 0.383705,-1.44583 0.383705,-1.789 0.0497195,-0.0342272 0.36533,-0.710485 0.447656,-0.861264 0.198698,-0.36479 0.660045,-0.842169 0.959262,-1.19273 0.246076,-0.288589 0.304982,-1.08572 0.639508,-1.25884l0.0639508 -0.132585 0 -0.198698c0.233646,-0.161588 0.269854,-1.24209 0.511607,-1.32531 0,-0.166452 -0.0268413,-0.205723 0.0639508,-0.331283l-0.0639508 -0.198698c0.0942149,-0.0652118 0.0335066,-0.0673735 0.127902,-0.132585 0,-0.229142 -0.0471975,-0.144115 0.127721,-0.264991 0,-0.403701 0.255803,-0.636266 0.255803,-1.06014 0.208245,-0.143934 -0.0967369,-0.662026 0.191852,-0.861445 0,-0.205723 0.0389109,-0.281384 0.0639508,-0.463688 0.266432,-0.13817 0.338129,-1.07293 0.703459,-1.32531l0 -0.463688c0.13889,-0.0960163 -0.0207165,-0.21383 0.127902,-0.265171l0 -0.397576c0.15114,-0.104303 -0.0399918,-0.406043 0.127902,-0.463688 -0.072958,-0.17636 -0.0410726,-0.313809 -0.127902,-0.463869 -0.212028,0 -0.307685,-0.0904319 -0.511607,-0.132585l-0.0639508 -0.198698z"/>
   </g>
  </g>
 </g>
</svg>
