<?xml version="1.0" encoding="UTF-8"?>
<!DOCTYPE svg PUBLIC "-//W3C//DTD SVG 1.1//EN" "http://www.w3.org/Graphics/SVG/1.1/DTD/svg11.dtd">
<!-- Creator: CorelDRAW -->
<svg xmlns="http://www.w3.org/2000/svg" xml:space="preserve" width="12.4494mm" height="10.7425mm" style="shape-rendering:geometricPrecision; text-rendering:geometricPrecision; image-rendering:optimizeQuality; fill-rule:evenodd; clip-rule:evenodd"
viewBox="0 0 32.1364 27.7303"
 xmlns:xlink="http://www.w3.org/1999/xlink">
 <defs>
  <style type="text/css">
   <![CDATA[
    .str0 {stroke:black;stroke-width:0.516273}
    .fil1 {fill:none}
    .fil0 {fill:white}
   ]]>
  </style>
 </defs>
 <g id="Livello_x0020_1">
  <metadata id="CorelCorpID_0Corel-Layer"/>
  <g id="_124413200">
   <path id="_124413272" class="fil0 str0" d="M29.2151 9.77562c-0.400111,-0.0955105 -0.696452,-0.0949942 -1.0994,-0.0949942 -0.0900896,0.140168 -0.0931872,0.0498203 -0.183277,0.189988l-0.274915 0c-0.0751177,0.116678 -0.262783,0.103255 -0.458192,0.18973l0 0.189988 0.0916384 0.0949942 0.366554 0c0.150235,0.155656 0.305117,0.237485 0.458192,0.379719 0.173468,0.160819 0.154882,0.296857 0.274915,0.379719l0 0.284983 0.183277 0.18973 0.0916384 0.189988 0.0916384 0.189988 0.0916384 0.18973 0.0916384 0.189988c0.0289113,0.12184 0.062469,0.162884 0.0916384,0.284724l0.641211 0.664701 0.274915 0 0.183277 0.189988 0.54983 0 0.183277 -0.284983c0.1745,-0.0449157 0.292468,-0.131133 0.366554,-0.284724 0.343063,-0.0505947 0.20496,-0.153849 0.458192,-0.284983 0.10532,-0.254781 0.0916384,-0.390302 0.0916384,-0.664443 -0.0986081,-0.127777 -0.176049,-0.252199 -0.274915,-0.379977l0 -0.284724c-0.217609,-0.161077 -0.218641,-0.0882826 -0.274915,-0.379719l-0.183277 -0.189988 -0.183277 -0.189988 -0.183277 -0.18973c-0.208832,-0.0929291 -0.169337,-0.0949942 -0.366554,-0.0949942l-0.274915 -0.189988c-0.128552,-0.0263299 -0.237744,-0.0684061 -0.366554,-0.094736 -0.179147,-0.148945 -0.282143,-0.0880245 -0.458192,-0.189988z"/>
   <path id="_124413224" class="fil1 str0" d="M29.4903 11.5795c0.280336,-1.74397 0.148428,-2.24243 0.274657,-0.664443l0.183277 0.18973c0,0.215028 -0.0400111,0.19386 0.0916384,0.284983l0 0.284724 0.183277 0.189988 -0.732849 -0.284983z"/>
  </g>
  <g id="_124412984">
   <path id="_124413152" class="fil0 str0" d="M12.9959 11.1998c-0.824488,0.90451 -0.765632,0.0918965 -0.274915,0.854431 -0.342805,0.0591132 -1.03358,1.13373 -1.09966,1.61413 -0.393916,0.0678899 -0.274915,0.661603 -0.274915,1.04442 0,0.459741 0.244197,0.597328 0.366554,0.949426 0.0818292,0.234904 0.0299438,0.60533 0.0916384,0.854689 0.14688,0.594488 0.513691,1.53849 0.733107,1.99385 0.14404,0.298922 0.271043,0.846171 0.458192,1.23415 0.250909,0.519887 0.547249,1.039 0.824746,1.61413 0.15514,0.321896 0.783186,1.48506 0.916384,1.51913 0,0.426441 0.66341,0.857271 0.733107,1.04442 0.122357,0.330415 0.0655666,0.447867 0.366554,0.759695 0.186374,0.193086 0.277755,0.379719 0.54983,0.379719 0,-0.59139 -0.0263299,-1.21969 0.183277,-1.70912 0.15514,-0.361649 0.179405,-0.880245 0.366295,-1.23415 0.149461,-0.283434 0.171919,-0.368102 0.274915,-0.664701 0.173209,-0.497945 0.622109,-0.846945 0.916384,-1.23415 0.230516,-0.30331 0.344096,-0.428506 0.458192,-0.854689 0.141975,-0.530728 -0.225611,-1.78062 -0.54983,-2.18383 -0.438316,-0.545184 -0.722782,-1.16006 -1.19104,-1.70886 -0.18844,-0.220965 -0.313378,-0.270785 -0.54983,-0.474713 -0.27569,-0.238518 -0.572805,-0.620818 -0.824746,-0.854689 -0.445801,-0.414051 -1.0106,-0.810806 -1.46621,-1.23415 -0.177598,-0.164691 -0.372233,-0.50001 -0.54983,-0.664701 -0.392625,-0.364747 -0.540021,-0.45019 -0.458192,-1.04442z"/>
   <path id="_124413104" class="fil0 str0" d="M18.5856 19.3651l0.916384 0.379719c-1.85703,-0.612299 -0.550347,-0.190246 -0.274915,0.0949942l-0.183277 0.0949942c-0.120808,0.29221 -0.948135,1.25738 -1.1913,1.32914 -0.0420762,0.309247 -0.343579,0.518338 -0.54983,0.759695 -0.595262,0.698001 -0.824488,1.5705 -0.824488,2.56355 0.161593,0.0557575 0.450964,0.537956 0.824488,0.569707 0.573579,0.0487878 1.21918,0.255039 1.74113,0.474713 0.523759,0.22019 1.51474,0.455353 1.83277,0.949426 0.262267,0 0.823455,0.23542 0.916384,0.379719 0.31725,0 0.796867,0.198249 1.09966,0.284983 0.5901,0.169596 1.34773,-0.0709875 1.92415,0.0949942 0.475487,0.136554 0.961042,0.094736 1.46621,0.094736 0.263815,0 0.872501,0.0846687 1.09966,0 0.328866,-0.122873 0.411211,-0.498203 0.54983,-0.759437 0.10945,-0.205735 0.366812,-0.295566 0.458192,-0.474713 0.212704,-0.418181 0.541054,-0.740851 0.733107,-1.13941 0.147654,-0.306666 0.300987,-0.861659 0.641211,-0.949426 0,-0.373007 0.327059,-0.783186 0.54983,-1.04442 0.231548,-0.271818 0.492266,-0.719942 0.824746,-0.949426l0 -1.70912c-0.562479,-0.332996 -0.997697,-0.512659 -1.55785,-0.854431 -0.881536,-0.538472 -2.22281,-0.434185 -3.20709,-0.759695 -1.41717,-0.468776 -2.9967,-0.664443 -4.49002,-0.664443 -0.0988662,0.153333 -0.505431,0.073827 -0.733107,0.18973 -0.448383,0.227934 -0.440122,0.255555 -0.733107,0.569707 -0.12881,0.137845 -0.304601,0.163658 -0.458192,0.189988 -0.13165,0.272592 -0.533568,0.345645 -0.641469,0.569707 -0.421279,0 -0.194635,0.0286531 -0.733107,-0.284983z"/>
   <path id="_124413056" class="fil0 str0" d="M28.0006 19.0931l-0.52634 0.841783 -0.183277 0.0949942c-0.147396,0.0761502 -0.0312345,0.664701 -0.274915,0.664701l-0.0916384 0 0 0.18973c0,0.0758921 -0.0400111,0.136296 -0.0916384,0.189988l-0.183277 0.18973c-0.217609,0.225611 -0.09835,0.400628 -0.274915,0.759695 -0.141717,0.287822 -0.220965,0.583388 -0.366554,0.854431 -0.195667,0.365263 -0.183277,0.622367 -0.183277,1.04442 0.153849,0.0797641 0.270011,0.205218 0.366554,0.379977 0.0748595,0.134489 0.113064,0.241357 0.183277,0.379719 0.12468,0.244713 0.474196,0.396239 0.641469,0.569707 0.0782153,0.0810548 0.258136,0.541828 0.274915,0.664443 0.318024,0.109708 0.0712456,-0.0206509 0.274915,0.284983 0.0968011,0.145847 0.14404,0.162626 0.183277,0.284724l0.274915 0c0.171403,-0.415083 0.0565319,-0.0939616 0.274915,-0.379719 0.0779572,-0.101706 0.00103255,-0.190505 0.183277,-0.284724 0,-0.287048 0.0815711,-0.404758 0.183277,-0.664701 0.0684061,-0.175016 0.052918,-0.339707 0.183277,-0.474713l0.0916384 -0.0949942c0.058597,-0.0609202 0.0526598,-0.233872 0.0916384,-0.284724 0.165207,-0.218125 0.607911,-0.331705 0.824488,-0.474971 0.180437,-0.119259 0.365521,-0.369651 0.54983,-0.474713 0.136554,-0.0779572 0.406823,-0.224837 0.458192,-0.284724 0.00206509,-0.00206509 0.138619,-0.333512 0.183277,-0.379719 0.069955,-0.0725363 0.125196,-0.107643 0.183277,-0.189988 0.107127,-0.151526 0.258653,-0.172951 0.366554,-0.284724 0.107901,-0.112031 0.0805385,-0.279304 0.274915,-0.379977 0,-0.375072 0.0609202,-0.251941 -0.183277,-0.474713 -0.144556,-0.13165 -0.22019,-0.323187 -0.366554,-0.474713 -0.175791,-0.182244 -0.476262,-0.479359 -0.641469,-0.569707 -0.09835,-0.0534342 -0.187665,-0.118485 -0.274915,-0.18973 -0.0573063,-0.0474971 -0.128036,-0.0446576 -0.183277,-0.0949942 -0.103771,-0.0955105 -0.284724,-0.295308 -0.366554,-0.379719 -0.0864757,-0.0898315 -0.185084,-0.302278 -0.274915,-0.379977 -0.15101,-0.130617 -0.62469,-0.305117 -0.824488,-0.379719 -0.465162,-0.173209 -0.325768,-0.154107 -0.756598,0.202637z"/>
   <path id="_124413008" class="fil0 str0" d="M14.3705 9.39591c-0.326542,0.473938 -0.984016,1.55501 -1.37458,1.80386 -0.470841,0.299954 -0.896766,0.644566 -1.1913,0.949426 -0.551637,0.571772 -0.153849,0.774925 0.366554,1.04442 0.824229,0.426699 2.0305,1.29507 2.10768,1.99385 0.0542086,0.493557 0.788607,1.94919 1.00802,2.27883 0.312087,0.468776 0.733107,1.48403 0.733107,2.18383 0,0.66625 0.183277,1.12212 0.183277,1.80386 0,0.547765 0.183277,1.00209 0.183277,1.61413 0,1.47706 1.44014,0.664701 2.2907,0.664701 1.62987,0 2.86557,-0.0518854 4.21537,0.569707 0.684061,0.314668 1.47861,0.52634 2.19906,0.759437 0.194635,0.0632434 0.909931,0.0949942 1.09966,0.0949942l0.54983 0c0.403467,0 0.258136,-0.205735 0.641469,-0.284983 0.011358,-0.0709875 0.646115,-0.929807 0.824746,-1.13916 0.295824,-0.346677 0.437025,-0.886698 0.733107,-1.51913 0.368102,-0.787574 1.05449,-1.60277 1.37432,-2.56355 0.196442,-0.590874 -0.722782,-2.71843 -1.09966,-2.84853 0,-0.492266 -3.92161,-4.65239 -4.58166,-4.65239 -0.154366,-0.480134 -1.78217,-0.00800223 -2.2907,-0.18973 -1.44737,-0.516789 -2.76851,-1.36503 -4.12373,-1.80411 -0.594488,-0.192312 -1.19388,-0.141201 -1.83251,-0.379719 -0.470066,-0.175275 -1.32501,-0.379719 -2.01604,-0.379719z"/>
  </g>
  <g id="_124412816">
   <path id="_124412936" class="fil0 str0" d="M12.7375 5.30006c-0.0957686,-0.0807967 -0.31725,-0.24523 -0.411211,-0.331447 -0.0619527,-0.0565319 -0.0934454,-0.236711 -0.182761,-0.236711l-0.0913803 0c-0.0583388,0 -0.3379,-0.208058 -0.365263,-0.236453 -0.121582,-0.125971 -0.147396,-0.157463 -0.319831,-0.236711 -0.180954,-0.0831199 -0.359068,-0.119001 -0.548282,-0.189472 -0.158754,-0.0593714 -0.319573,-0.047239 -0.502591,-0.047239l0 0.141975c-0.0619527,0.0183277 -0.101706,0.0392367 -0.13707,0.094736 -0.0578225,0.0895733 -0.0849269,0.114613 -0.13707,0.236711 -0.0431088,0.100157 -0.108934,0.0906059 -0.13707,0.236453 -0.178888,0.0309764 -0.182502,0.254006 -0.228451,0.426183 -0.034074,0.127261 -0.115645,0.244455 -0.13707,0.378686 -0.0653085,0.408888 -0.0913803,0.841266 -0.0913803,1.27803 0.11771,0.0405274 0.0482715,0.37946 0.182761,0.426183 0,0.43625 0.306408,0.506722 0.548282,0.757372 0.312603,0.323703 0.680189,0.57203 0.959493,0.899347 0.195151,0.228193 0.193602,0.378686 0.548282,0.378686 0.287564,0 0.117968,-0.456901 0.365263,-0.520661 0,-0.241099 0.149461,-0.327575 0.274141,-0.473422 0.11771,-0.137845 0.1856,-0.394949 0.365521,-0.425925 0.0361391,-0.22432 0.274141,-0.326284 0.274141,-0.615397l0 -0.946844 0 -0.520661c0,-0.107127 -0.0193602,-0.149719 -0.0456901,-0.236711 -0.0485296,-0.16211 0.0900896,-0.157979 -0.182761,-0.236711z"/>
   <path id="_124412888" class="fil0 str0" d="M5.57342 6.45238l-2.84053 -0.094736c1.85264,0.959751 0.353647,0.77286 1.09966,0l0.183277 0.18973 0 0.189988 0.183277 0.284724 0.183277 0.189988 0.0916384 0.189988 0.0913803 0.18973 0 0.284983c0.181728,0.188181 0.147138,0.115903 0.183277,0.379719 0.248069,0.0854431 0.230774,0.101706 0.274915,0.379719l0.0916384 0.0949942c0.109192,0.141201 0.142233,0.21606 0.274915,0.284724 0.0653085,0.406307 0.00438832,0.0126487 0.0916384,0.284983 0.156689,0.0810548 0.145073,0.0849269 0.183277,0.284724l0.0916384 0.0949942 0.183277 0.0949942 0 0.189988c0.178888,0.105578 0.226386,0.139394 0.366554,0.284724 0.174242,0.0449157 0.485296,0.340998 0.54983,0.474713l0.183277 0.0949942 1.83277 0 0.183277 -0.189988 0.366554 0 0.274915 -0.0949942c0.161335,-0.133715 0.308731,-0.168821 0.458192,-0.284724l0.274915 0c0.169596,-0.13165 0.125971,-0.0949942 0.366295,-0.0949942l0.183277 -0.0949942 0.274915 -0.284724c0.276464,-0.0407855 0.273366,-0.149203 0.54983,-0.189988l0 -0.569707c-0.292985,-0.0867338 -0.14817,-0.058597 -0.366554,-0.284724 -0.201346,-0.208574 -0.263299,-0.312603 -0.458192,-0.379719l0 -0.284983 -0.183277 -0.18973c-0.354937,-0.286015 -0.18973,-0.155398 -0.457934,-0.474713 -0.233613,-0.278529 -0.0988662,-0.239034 -0.366554,-0.284983l-0.183277 -0.284724c-0.176307,-0.0366554 -0.228193,-0.0753758 -0.366554,-0.189988 -0.176307,-0.0363972 -0.228193,-0.0753758 -0.366554,-0.189988 -0.226902,0 -0.287048,0.037946 -0.458192,-0.094736 -0.196442,0 -0.315184,-0.0655666 -0.366554,0.094736l-2.65751 0z"/>
   <path id="_124412840" class="fil0 str0" d="M4.1991 0.280852c-0.546475,0 -2.96392,-0.0924128 -3.02407,0.0949942l-0.641469 0c-0.228709,0.316475 -0.244713,1.14019 -0.274915,1.51913 -0.0348484,0.440639 0.527373,1.46028 0.824746,1.61413l0 0.284983c0.319057,0.22019 0.495106,0.418697 0.54983,0.759437 0.162368,0.0557575 0.155398,0.176049 0.183277,0.379719l0.0916384 0.0949942c0.264848,0.13707 0.0937035,0.286531 0.366554,0.474713 0,0.361391 0.0725363,0.755049 0.458192,0.854689l0 0.18973c0.211414,0.164175 0.67038,0.533568 0.916384,0.569707 0.0766665,0.278013 0.334028,0.524533 0.641469,0.569707 0.111257,0.346677 0.0255555,0.0400111 0.183277,0.284724 0.316733,0 0.199281,-0.0696968 0.366295,0.189988 0.399337,0.0588551 0.639662,0.379719 1.09966,0.379719l2.10768 0c0.448383,0 0.929807,0.0382042 1.37458,0 0.300987,-0.0255555 0.789381,-0.264073 1.09966,-0.379719 0.196958,-0.073827 0.219416,-0.217351 0.366295,-0.284724 0.579516,-0.266913 0.754533,-0.615655 0.824746,-1.3294 0.054983,-0.554735 -0.183277,-1.0199 -0.183277,-1.61413 -0.323961,-0.111773 -0.0640178,0.0193602 -0.274915,-0.284724 -0.238518,-0.343838 -0.672445,-0.571256 -0.732849,-0.949426l-0.183277 -0.189988 -0.183277 -0.189988 -0.183277 -0.18973c-0.124164,-0.0366554 -0.180695,-0.0986081 -0.274915,-0.189988 -0.183019,-0.178114 -0.440381,-0.214769 -0.641469,-0.379719 -0.352614,-0.289629 -0.540279,-0.479617 -0.916384,-0.759695 -0.469292,-0.349517 -1.2801,-0.64818 -1.83277,-0.854431 -0.5679,-0.212188 -1.33663,-0.253232 -2.10743,-0.664701z"/>
  </g>
 </g>
</svg>
