<?xml version="1.0" encoding="UTF-8"?>
<!DOCTYPE svg PUBLIC "-//W3C//DTD SVG 1.1//EN" "http://www.w3.org/Graphics/SVG/1.1/DTD/svg11.dtd">
<!-- Creator: CorelDRAW -->
<svg xmlns="http://www.w3.org/2000/svg" xml:space="preserve" width="14.6373mm" height="5.6061mm" style="shape-rendering:geometricPrecision; text-rendering:geometricPrecision; image-rendering:optimizeQuality; fill-rule:evenodd; clip-rule:evenodd"
viewBox="0 0 2.99063 1.14541"
 xmlns:xlink="http://www.w3.org/1999/xlink">
 <defs>
  <style type="text/css">
   <![CDATA[
    .str0 {stroke:black;stroke-width:0.0408631}
    .fil1 {fill:none}
    .fil0 {fill:white}
   ]]>
  </style>
 </defs>
 <g id="Livello_x0020_1">
  <metadata id="CorelCorpID_0Corel-Layer"/>
  <g id="_124411616">
   <path id="_124411736" class="fil0 str0" d="M0.542642 0.252698c-0.0471356,0.0450925 -0.0839942,0.0938013 -0.137811,0.135277 -0.0655853,0.0505068 -0.136994,0.0856491 -0.203069,0.127759 -0.050609,0.032241 -0.110719,0.140937 -0.159571,0.157813 -0.00394329,0.0288289 -0.0217596,0.0442344 -0.0217596,0.0751473 0,0.0321797 0.00858126,0.0354488 0.0145064,0.0601097 0.0104405,0.00359596 0.0992157,0.0756172 0.101545,0.090185 0.0265202,0 0.0644616,0.0471356 0.101545,0.0526113 0.0156097,0.0485045 0.231469,0.105202 0.304614,0.105202 0,0.0282773 0.0270923,0.00751882 0.0507725,0.00751882l0.217596 0c0.0815424,0 0.166374,0.0152215 0.246589,0.00751882 0.0442752,-0.0042702 0.0731655,-0.0527952 0.101545,-0.0601301 0.00333035,-0.0173464 0.0140365,-0.0487497 0.0290128,-0.0525909l0 -0.0225565c0.00790702,-0.00547566 0.036736,-0.0598849 0.0507725,-0.0826661 0.0143225,-0.0232103 0.0295849,-0.0805413 0.0435192,-0.090185 0,-0.0228425 0.00525091,-0.0318733 0.0217596,-0.0375737 0,-0.0299118 0.00725321,-0.0436214 0.00725321,-0.0676285 0.0364295,-0.0251717 -0.00725321,-0.197757 -0.00725321,-0.24048 -0.0226382,-0.00782529 -0.0266019,-0.0467679 -0.0580257,-0.0601301 -0.0879375,-0.037308 -0.209853,0.0225565 -0.304635,0.0225565 -0.107082,0 -0.206502,0.00751882 -0.311867,0.00751882 -0.0157323,-0.0381049 -0.0507725,-0.0797649 -0.0507725,-0.105223 -0.018368,-0.0027174 -0.028073,-0.00555739 -0.036266,-0.0300548z"/>
   <path id="_124411688" class="fil1 str0" d="M0.187255 0.793787c0.0300753,-0.0166313 0.05539,-0.0314851 0.0870385,-0.0450925 0.050323,-0.0216166 0.0780895,-0.0324658 0.123284,-0.0601301 0.0116051,-0.00711019 0.0475443,-0.0383501 0.0507725,-0.0450925 0.0199004,-0.00292171 0.033896,-0.0085404 0.0507725,-0.022536 0.10038,0 0.197083,-0.00751882 0.297382,-0.00751882 0.0491175,0 0.0859556,-0.009705 0.130537,-0.022536 0.0261933,-0.00751882 0.0476873,-0.0209015 0.0725321,-0.0300753 0.0323636,-0.0119729 0.0684049,-0.00106244 0.0870385,-0.0300548 0.0171421,-0.00251308 0.019124,-0.0049853 0.036266,-0.00751882 0.00347337,-0.0217392 0.00288085,-0.0138322 0.0217596,-0.022536 0.0149968,-0.00688544 0.0412513,-0.0150376 0.0145064,-0.0150376 -0.0121976,0.0189809 -0.00230877,0.0150376 -0.0217596,0.0150376"/>
   <path id="_124411640" class="fil1 str0" d="M0.745752 0.61401l0.11601 -0.00811133c0.126165,-0.00880601 0.0209424,0.0667704 0.0290128,0.0751473 0.0119116,0.00306474 0.0124428,0.0053735 0.0217596,0.0150376 0.00326905,0.013587 0.0115234,0.0219639 0.0145064,0.0375737l0.0145064 0.0150376 0 0.0300548c0.00862212,0.0119525 0.00725321,0.00764141 0.00725321,0.0225565 0.0196552,0.0135461 0.0118707,0.00608861 0.0217596,0.0300548 0.0175303,0.00361639 0.0247835,0.00488315 0.0290128,0.022536l0.0145064 0c0.00351423,0.0109513 0.00253351,0.00574127 0.0145064,0.0150376l0.0217596 0 0.0145064 0.00751882 0.0145064 0.0150172"/>
  </g>
  <g id="_124388920">
   <path id="_124411568" class="fil0 str0" d="M2.28335 0.0272557c-0.0580052,0.0323432 -0.157813,0.124081 -0.18133,0.172831 -0.0298505,0.00439279 -0.168642,0.110862 -0.174077,0.127759 -0.0420482,0 -0.0993179,0.00361639 -0.145044,0.00751882 -0.0653606,0.00559825 -0.128739,0.0394738 -0.188583,0.0601301l-0.0145064 0.0150172c-0.00306474,0.0223317 -0.00633379,0.0215962 -0.0217596,0.0375737 0,0.102853 -0.0200434,0.151112 0.0507725,0.232961 0.029401,0.034039 0.0663822,0.0216983 0.101545,0.0450925 0.0390447,0.0260094 0.0701212,0.0468087 0.101545,0.0826661 0.0109309,0.0125246 0.032384,0.0337938 0.050752,0.0375737 0.0154463,0.0279913 0.0358574,0.0523253 0.0580257,0.0676489 0.00856083,0.0622959 0.106837,0.0832791 0.116051,0.150295 0.0392082,0.00674242 0.057617,0.0559008 0.101545,0.0601301 0.0340594,0.00326905 0.0650746,-0.00751882 0.101545,-0.00751882 0.00361639,-0.0226177 0.0391265,-0.0225565 0.0652789,-0.0225565 0.00330991,-0.0207789 0.0393921,-0.0300548 0.0652584,-0.0300548 0.0117686,-0.0182863 0.0201455,-0.022536 0.0435192,-0.022536 0.00490358,-0.0306065 0.143961,-0.0820123 0.18133,-0.0977038 0.0328948,-0.0138526 0.0571471,-0.044643 0.0870385,-0.0601301 0.0342229,-0.0177142 0.0519575,-0.0624593 0.0870385,-0.0676285 0.00835651,-0.0260503 0.0240888,-0.00939852 0.0290128,-0.0450925 0.0358778,-0.0123815 0.0611108,-0.128841 0.101524,-0.142776 0,-0.0321593 0.0282977,-0.0896946 0.0507725,-0.105223 0,-0.0141182 0.00586386,-0.0571471 0.0145064,-0.0601097l-0.00725321 -0.0225565c-0.0221274,-0.0130966 -0.0183884,-0.00545523 -0.0217596,-0.0300548 -0.00747795,-0.00257438 -0.106673,-0.0844028 -0.108798,-0.0976833 -0.0171421,-0.00253351 -0.0191035,-0.00500573 -0.0362456,-0.00751882 -0.00802961,-0.0249469 -0.0240275,-0.0122181 -0.036266,-0.0375737 -0.0212284,-0.00880601 -0.0259277,-0.0106448 -0.0290128,-0.0300753l-0.0145064 -0.0150172c-0.0140365,-0.00416804 -0.0559212,-0.0380844 -0.0652789,-0.0526113 -0.0272353,-0.00400459 -0.0470948,-0.0296462 -0.0507725,-0.0526113 -0.0447247,-0.0132397 -0.0645433,-0.0756581 -0.130558,-0.0826661 -0.0263363,-0.00279913 -0.129638,-0.0179185 -0.137811,0.00751882 -0.00690587,-0.00100115 -0.0329561,0.00200229 -0.0434988,-0.0150172z"/>
   <path id="_124388992" class="fil1 str0" d="M2.35586 0.147496c0,0.11787 0.00725321,0.223092 0.00725321,0.338163 0,0.0321593 -0.0116869,0.0152011 -0.0145064,0.0375737 -0.00259481,0.0208811 -0.00171625,0.0547157 0,0.0751677 0.00173668,0.0206359 0.0116869,0.0264385 0.0145064,0.045072 0.00398416,0.0262546 0.000960284,0.051508 -0.00725321,0.0751677 -0.0124428,0.0357552 -0.0205133,0.0756377 -0.0290128,0.112721 -0.0034938,0.0152828 -0.0135461,0.0327722 -0.014486,0.0450925 -0.000592516,0.00743709 0.00214531,0.015385 0,0.022536 -0.00682414,0.0226586 -0.00437236,0.0165291 -0.0217596,0.0225565 0,0.031342 -0.0145064,0.00320776 -0.0145064,0.0300548l0 0.0150172c0,0.0080909 -0.0121976,0.00733493 -0.0145064,0.0150376 -0.00725321,0.0243136 -0.0152828,0.0414965 -0.036266,0.0450925"/>
   <path id="_124388944" class="fil1 str0" d="M1.55682 0.5719c0.0870181,-0.0394738 0.0579848,-0.0411492 0.102771,-0.0411492 0.0007764,0.00247222 0.112435,0.041946 0.123305,0.0450925 0.0279095,0.00805004 0.0640325,0.0300548 0.0942713,0.0300548 0.0295236,0 0.0552265,0.0065381 0.0870385,0.00751882 0.0434375,0.00138935 0.0647272,0.0150376 0.108798,0.0150376 0.0855674,0 0.176304,0.00723278 0.261095,0 0.0448677,-0.00384114 0.0889795,-0.0252943 0.130558,-0.0375737 0.022393,-0.00664026 0.0430493,-0.00864255 0.0652789,-0.0150376 0.02509,-0.00719191 0.0543275,0.000531221 0.0580257,-0.022536 0.038963,0.0172851 0.0456441,-0.00751882 0.0797853,-0.00751882 0.00394329,-0.02462 0.028216,-0.0200434 0.036266,-0.0450925 0.0202885,-0.00300344 0.0695286,-0.0239867 0.0870385,-0.0375737"/>
  </g>
 </g>
</svg>
