<?xml version="1.0" encoding="UTF-8"?>
<!DOCTYPE svg PUBLIC "-//W3C//DTD SVG 1.1//EN" "http://www.w3.org/Graphics/SVG/1.1/DTD/svg11.dtd">
<!-- Creator: CorelDRAW -->
<svg xmlns="http://www.w3.org/2000/svg" xml:space="preserve" width="29.6773mm" height="27.5654mm" style="shape-rendering:geometricPrecision; text-rendering:geometricPrecision; image-rendering:optimizeQuality; fill-rule:evenodd; clip-rule:evenodd"
viewBox="0 0 5.56432 5.16835"
 xmlns:xlink="http://www.w3.org/1999/xlink">
 <defs>
  <style type="text/css">
   <![CDATA[
    .str0 {stroke:black;stroke-width:0.0374988}
    .fil1 {fill:none}
    .fil0 {fill:white}
   ]]>
  </style>
 </defs>
 <g id="Livello_x0020_1">
  <metadata id="CorelCorpID_0Corel-Layer"/>
  <g id="_124412120">
   <path id="_124412288" class="fil0 str0" d="M0.89984 2.76347c-0.045711,-0.0684166 -0.0399362,-0.0362988 -0.0399362,-0.0965407 -0.174107,-0.0515421 -0.153558,-0.514465 -0.0133121,-0.620661 0.0971781,-0.0736101 0.193531,-0.114465 0.306178,-0.179319 0.108278,-0.0623605 0.266148,-0.0314052 0.346095,-0.137921l-0.0266241 -0.0275804c0.109159,-0.0161432 0.316771,-0.140602 0.425968,-0.1931 0.129146,-0.0621168 0.363645,-0.217381 0.479216,-0.23448 0.0142495,-0.0886284 0.412468,-0.244305 0.492528,-0.26206 0.126446,-0.0280491 0.240086,-0.0440986 0.359407,-0.0827411 0.086641,-0.0280491 0.219349,-0.11034 0.306159,-0.11034 0.0104997,-0.0979094 0.0014437,0.00491234 0.0133121,-0.068979 0.0476985,0 0.0335052,0.0125621 0.0399362,-0.0275804 0.139702,-0.0144558 0.258835,-0.110509 0.38605,-0.15172 0.185525,-0.0600731 0.418205,-0.189538 0.599006,-0.22068 0.101153,-0.0174182 0.21005,-0.0240555 0.306159,-0.0551607 0.0884222,-0.0286303 0.248205,-0.0439673 0.332802,-0.0965594 0.0970469,0.134077 -0.100853,0.517071 -0.173057,0.62068 -0.446779,0.641079 -1.36164,0.826549 -2.06328,1.13098 -0.138521,0.0601106 -0.23013,0.170995 -0.386031,0.22068l-1.0383 0.331021c-0.140021,0.0446236 -0.376863,0.15172 -0.50584,0.15172l-0.146433 0.11034z"/>
   <path id="_124412240" class="fil0 str0" d="M0.0212806 3.96344c0.0734976,-0.0126746 0.0848785,-0.119209 0.186369,-0.179301 0.0124871,-0.0647417 0.332783,-0.510321 0.372719,-0.524121 0,-0.0685103 0.0532483,-0.125827 0.0532483,-0.1931 0.0303178,-0.031424 0.106497,-0.587494 0.106497,-0.662041 0.0305803,-0.0211306 0.180294,-0.169138 0.18635,-0.206881 0.0466485,-0.0120746 0.0667666,-0.0729352 0.133121,-0.0827599 0.0146058,-0.0454485 0.122509,-0.0801537 0.133121,-0.12414 0.0377425,-0.00976844 0.152489,-0.0840348 0.159726,-0.11034 0.130683,0 0.268979,-0.137921 0.412656,-0.137921 0.0047811,-0.0297178 0.372157,-0.22068 0.43928,-0.22068 0.0463673,-0.0720727 0.350108,-0.12414 0.452592,-0.12414 0.0104247,-0.0647604 0.375194,-0.135446 0.452592,-0.1931 0.0915533,-0.0681916 0.409093,-0.1931 0.519152,-0.1931 0.0246555,-0.076685 0.317465,-0.0551607 0.412656,-0.0551607 0.197244,0 0.3859,-0.15172 0.519152,-0.15172l0.0266241 -0.0413799c0.0280491,-0.00581231 0.0285741,-0.00401237 0.0399362,-0.0275804 0.192125,-0.0497609 0.363288,-0.45651 0.479216,-0.49654l0 -0.0413799c0.0367301,-0.0217306 0.0448486,-0.0214118 0.0665604,-0.0551607l0.0399362 0c0.0275991,-0.0857973 0.212299,-0.12414 0.306159,-0.12414l0.0266241 0.0275804c0,0.220062 -0.146545,0.386763 -0.186369,0.593081 -0.0837911,0.0144745 -0.212974,0.333777 -0.212974,0.42758 -0.0532108,0.00918721 -0.031649,0.0991468 -0.0798724,0.12414 0.0175307,0.0817849 -0.0399362,0.130608 -0.0399362,0.22068 -0.0488984,0.00843723 -0.0456173,0.445954 -0.0665604,0.524121 -0.040405,0.150726 -0.103628,0.493747 -0.279535,0.524121 -0.0659229,0.119546 -0.250211,0.159895 -0.292847,0.248261 -0.0584606,0.0100684 0.00519358,0.00371238 -0.0532483,0.0137808 -0.017062,0.0353426 -0.0525546,0.0333927 -0.0665604,0.0551795l-0.0399362 0c-0.0292866,0.0455423 -0.0680228,0.0596981 -0.0798724,0.0965407 -0.0646104,0.00956219 -0.331846,0.231536 -0.346095,0.27586l-0.0399362 0c-0.0265492,0.0275054 -0.094047,0.0448673 -0.106497,0.0965407 -0.0621168,0.0275804 -0.305334,0.176769 -0.319471,0.22068 -0.0387925,0.00573732 -0.101209,0.0498172 -0.106497,0.0827599l-0.0266241 0.0275804c-0.0381363,0 -0.0693165,-0.00238117 -0.0798724,0.0413799l-0.0399362 0c-0.0325115,0.0505484 -0.224168,0.198725 -0.279535,0.2069 -0.0173057,0.053867 -0.0092997,0.00129371 -0.0266241,0.0551607 -0.0300553,0.00517483 -0.0384738,0.0107997 -0.0532483,0.0413799 -0.0584419,0.0100872 0.00521233,0.00371238 -0.0532483,0.0137996 -0.0092247,0.0191431 -0.0173807,0.0222368 -0.0266241,0.0413799 -0.0272054,0.00468735 -0.0405362,0.00783725 -0.0532295,0.0275804 -0.0394487,0 -0.0630355,0.00646854 -0.0798724,0.0413799 -0.0401425,0.00592481 -0.03973,0.0216556 -0.0798724,0.0275804 -0.0415299,0.129108 -0.739608,0.401668 -0.851935,0.634461l-0.0399362 0c-0.0275241,0.0427861 -0.0673853,0.0439298 -0.0798724,0.0827599l-0.0399362 0c-0.0244117,0.03793 -0.0155245,0.0172307 -0.0399362,0.0551607l-0.0399362 0c-0.0119621,0.0372551 -0.0680228,0.045936 -0.0798537,0.0827599 -0.0584606,0.0100872 0.00519358,0.00371238 -0.0532483,0.0137996 -0.0215806,0.0446986 -0.031799,0.00444361 -0.0399362,0.0551607 -0.046161,0.00796849 -0.0603356,0.0334114 -0.106497,0.0413799 -0.0385113,0.0797974 -0.186575,0.11034 -0.279535,0.11034 -0.0313677,-0.0406299 -0.0303928,-0.0478485 -0.0798724,-0.0551607l-0.0266241 -0.0275991c-0.0105184,-0.038155 0.00751851,-0.0315552 -0.0399362,-0.0413612l-0.0133121 -0.0413799c-0.0638792,-0.0378175 -0.0944407,-0.119996 -0.146433,-0.137939 -0.00727477,-0.0529483 -0.0462923,-0.0737414 -0.0532483,-0.124121 -0.0495922,-0.017137 -0.0120184,-0.0457673 -0.0665416,-0.0551795 -0.00729352,-0.0528921 -0.0192744,-0.023193 -0.0266241,-0.0689603 -0.0219743,-0.00759351 -0.199681,-0.269523 -0.199681,-0.317221 -0.0883472,-0.061048 -0.0889659,-0.204725 -0.106497,-0.31724z"/>
   <path id="_124412192" class="fil1 str0" d="M1.18192 4.96777l0.0374051 -0.231949c0.0519733,-0.0179432 0.00125621,-0.00963719 0.0532483,-0.0275804 0.00695603,-0.0505484 0.243498,-0.418243 0.279535,-0.427561 0,-0.0373676 -0.00586856,-0.0521421 0.0266241,-0.068979 0,-0.0746601 0.0701228,-0.12234 0.0798724,-0.193081 0.0519733,-0.0179432 0.00125621,-0.00965594 0.0532483,-0.0275991 0.0128246,-0.0931658 0.502446,-0.591919 0.545758,-0.606862 0.0031874,-0.0230993 0.0859285,-0.14107 0.106497,-0.15172 0.00620605,-0.0385488 0.0707977,-0.128527 0.106497,-0.16552l0 -0.0413799c0.0183744,-0.0063373 0.238774,-0.259398 0.252911,-0.30344 0.0544295,-0.00802474 0.130965,-0.0719602 0.159745,-0.124121 0.0875034,-0.0181307 0.636861,-0.462398 0.652254,-0.510321 0.192913,-0.0285553 0.410312,-0.454823 0.599025,-0.482741 0.0102747,-0.0320052 0.0385113,-0.0490672 0.0798724,-0.0551795 0.0139871,-0.0434986 0.0251054,-0.0179244 0.0532483,-0.0689603 0.0491797,-0.0101809 0.0480735,-0.0473797 0.0931845,-0.0551795 0.0232305,-0.0421487 0.00967469,-0.0349301 0.0532483,-0.0413799 0.0138371,-0.0860597 0.131715,-0.0929408 0.159726,-0.165501 0.0443611,-0.0196869 0.053342,-0.00723727 0.0665604,-0.0551795 0.0367488,-0.00541858 0.0703102,-0.0293428 0.0798724,-0.0689603l0.0133121 -0.0275804c0.063298,-0.0374613 0.0843723,-0.0827973 0.146414,-0.11034 0.00658104,-0.0340864 0.0754476,-0.121834 0.106497,-0.137921 0.00701228,-0.0435361 0.0361488,-0.0890034 0.0798724,-0.0965594l0 -0.0413799c0.100722,-0.0695415 0.272898,-0.204631 0.319471,-0.317221"/>
   <path id="_124412144" class="fil1 str0" d="M4.91746 2.1007c-0.256304,-0.0408737 -0.552826,-0.0441548 -0.782919,-0.150989 -0.333233,-0.154701 -0.761844,-0.170657 -1.14478,-0.179301l-1.22467 -0.0275804"/>
  </g>
 </g>
</svg>
