<?xml version="1.0" encoding="UTF-8"?>
<!DOCTYPE svg PUBLIC "-//W3C//DTD SVG 1.1//EN" "http://www.w3.org/Graphics/SVG/1.1/DTD/svg11.dtd">
<!-- Creator: CorelDRAW -->
<svg xmlns="http://www.w3.org/2000/svg" xml:space="preserve" width="5.4201mm" height="7.9983mm" style="shape-rendering:geometricPrecision; text-rendering:geometricPrecision; image-rendering:optimizeQuality; fill-rule:evenodd; clip-rule:evenodd"
viewBox="0 0 0.196655 0.290198"
 xmlns:xlink="http://www.w3.org/1999/xlink">
 <defs>
  <style type="text/css">
   <![CDATA[
    .str0 {stroke:black;stroke-width:0.0072565}
    .fil1 {fill:none}
    .fil0 {fill:white}
   ]]>
  </style>
 </defs>
 <g id="Livello_x0020_1">
  <metadata id="CorelCorpID_0Corel-Layer"/>
  <path class="fil0 str0" d="M0.117037 0.00362825c-0.00400922,0.00155652 -0.00976363,0.00400559 -0.0141683,0.00400559 -0.00423054,0 -0.00515937,0.00022858 -0.00901621,0.0013352 -0.00179961,0.000515212 -0.00467682,0.00116467 -0.00643652,0.00133157 -0.00155289,0.00014513 -0.00374798,-0.000449903 -0.00515212,0 -0.00139688,0.000453531 -0.00242367,0.0010921 -0.00386409,0.0013352 -0.00136422,0.000235836 -0.00410355,0.00169802 -0.00515212,0.00267039 -0.00119369,0.00110662 -0.00334162,0.00315295 -0.00386409,0.00533716 -0.00126989,0.000217695 -0.00169077,0.000370082 -0.00257606,0.0013352 -0.00180687,0.001952 -0.0033525,0.00141865 -0.00386409,0.00400196 -0.000322914,0.00163634 0.000148758,0.00364639 0,0.00534079 -0.000181413,0.00206085 -0.00108485,0.00327994 -0.00128803,0.00533716 -0.000547866,0.00554397 0,0.0117338 0,0.0173467l0 0.00800755 0 0.0013352 0 0.00267039c0,0.00272482 -0.00128803,0.00306224 -0.00128803,0.00667235 0.00380966,0 0.007808,-0.000275747 0.0115923,0 0.00177784,0.000126989 0.00340693,0.000968743 0.00515212,0.0013352 0.00658165,0.00138599 0.0161058,0 0.0231809,0 0.0043539,0 0.00540247,0.000297517 0.00901621,-0.00267039 0.00260871,-0.00213704 0.00413984,-0.00267039 0.00772818,-0.00267039 0.000631316,-0.00393665 -0.000555123,-0.00174156 0.00257606,-0.00400196 0.00290986,-0.00210439 0.00252526,-0.00397656 0.00515212,-0.00533716 0.000210439,-0.00131706 0.000711137,-0.0014767 0.00128803,-0.00267039l0.00128803 -0.00267039 0 -0.00133157 0.00257606 -0.0013352c0.00179236,-0.000928832 0.000326543,-0.00322914 0.00257606,-0.00400559 0,-0.00133157 -0.000232208,-0.00269216 0,-0.00400196 0.000297517,-0.001669 0.00177784,-0.00252163 0.00257606,-0.00400196 0.00104494,-0.00195563 0,-0.0118862 0,-0.0146799 0,-0.0013352 0.000907063,-0.00306224 0,-0.00400559l-0.00128803 -0.0013352c-0.00111025,-0.00115378 -0.000544238,-0.00374798 -0.00128803,-0.00533716 -0.00286995,-0.00614989 -0.00162183,0.000638572 -0.00257606,-0.00533716 -0.00367542,0 -0.00400922,-0.0013352 -0.00772818,-0.0013352l-0.00128803 0c-0.00313481,0 -0.00350489,-0.00267039 -0.00386409,-0.00267039z"/>
  <g id="_124387456">
   <path id="_124387528" class="fil0 str0" d="M0.159541 0.170444c-0.00863161,0.00275021 -0.0199626,0.00245633 -0.0257606,0.0106779 -0.000994141,0.00140051 -0.00302596,0.00235836 -0.00386409,0.00400196 -0.000678483,0.00134245 -0.000460788,0.00275747 -0.00128803,0.00400559 -0.00284092,0.00426682 -0.00772818,0.00893276 -0.00772818,0.0146799 -0.0043539,0.00300419 -0.00117555,0.000613175 -0.00386409,0.00533716 -0.00211527,0.00372259 -0.00169077,0.00474575 -0.00515212,0.00533716l0 0.0146799c0.00360285,0.00160006 0.0114725,0.00508681 0.0128803,0.00800755 0.00458974,0.000674855 0.00297879,0.00171616 0.00644015,0.00400196 0.00325091,0.00215518 0.00592856,0.00160369 0.00772818,0.00534079 0.00352303,0.00060229 0.00423417,0.00133157 0.00644015,0.00533716l0.00386409 0.0013352c0.000500699,0.0052392 -0.000576892,0.00340693 0.00257606,0.00667235 0.00221323,0.00229306 0.00449178,0.00519928 0.00644015,0.00667235 0.0025434,0.0019266 0.00573989,0.00449903 0.00644015,0.00667235 0.00302959,0 0.00255792,-0.000540609 0.00515212,0.00267039 0.000997769,0.00124086 0.00120095,0.00322914 0.00257606,0.00400196 0.0026196,0.00146944 0.00539884,0.00207536 0.00772455,0.00400196 0.00375161,0.00310941 0.00405276,0.00267039 0.00901621,0.00267039l0 -0.0213523c0,-0.00815994 0.00128803,-0.0144912 0.00128803,-0.0226875 0.00185404,-0.00128077 0.00128803,-0.000983256 0.00128803,-0.00400196 0,-0.00415435 0.00128803,-0.00623334 0.00128803,-0.0106779 0,-0.00452806 -0.00128803,-0.00641838 -0.00128803,-0.0106743 -0.00162546,-0.000562379 -0.00177784,-0.00109936 -0.00257606,-0.00267039 -0.00197014,-0.00387134 -0.00552583,-0.00860984 -0.00901621,-0.0106743 -0.000914319,-0.00475301 -0.000301145,-0.0029534 -0.00386409,-0.00400559 -0.000595033,-0.00437204 -0.00389311,-0.00839577 -0.00643652,-0.0120095 -0.000838126,-0.00118644 -0.00204633,-0.00296791 -0.00386409,-0.00400559 -0.00331985,-0.00189395 -0.00319286,0.000203182 -0.00386409,-0.00400196 -0.00384595,-0.00113564 -0.00348675,-0.00227491 -0.00257606,-0.00934275z"/>
   <path id="_124387480" class="fil1 str0" d="M0.138933 0.211814l0.0128803 0c0.00194474,0.00161094 0.0168024,0.0307676 0.0192769,0.0312792 0.000917948,0.00571087 -0.0140667,-0.028431 -0.0128368,-0.0246068"/>
  </g>
  <g id="_124387336">
   <path id="_124387408" class="fil0 str0" d="M0.0461985 0.129075c-0.00281552,0.00632041 -0.00257606,0.00400559 -0.00257606,0.00934275 -0.00255429,0.002645 -0.0020681,0.00162908 -0.00257606,0.00533716l-0.00386409 0.00400196c-0.00155289,0.00402736 -0.00333074,0.00546778 -0.00386409,0.00934275l-0.00257606 0.00267039c-0.00295703,0.00306224 -0.00458974,0.00524282 -0.00515212,0.00933912 -0.00253615,0.00262685 -0.00220961,0.00381329 -0.00386409,0.00667235 -0.00530813,0.00137148 -0.00641112,0.00798941 -0.0103042,0.0106779l0 0.00400196c-0.00322914,0.00334888 -0.0028772,0.00472761 -0.00644015,0.00534079l0 0.0133447c-0.00179961,0.00249261 -0.00128803,0.00336702 -0.00128803,0.00667235 0.00196651,0.00203545 0.00415072,0.00325817 0.00515212,0.00533716l0.00386409 0.0013352 0.00386409 0.00400196c0.0024781,0.000515212 0.00320737,0.00105945 0.00515212,0.00267039 0.0024781,0.000511583 0.00320737,0.00105945 0.00515212,0.00267039 0.00343958,0.000711137 0.00581246,0.00289897 0.00901621,0.00400196 0.00300419,0.00267039 0.0058306,0.00403099 0.00901621,0.00667235l0.00386409 0c0.00194474,0.00161094 0.00267402,0.00215881 0.00515212,0.00267039 0.00246721,0.00204633 0.00332711,0.00266676 0.00644015,0.00266676l0 -0.00133157 0.00257606 -0.00400559 0 -0.00400196 0.00257606 -0.0013352c0.00164723,-0.00298968 0.000972371,-0.00325817 0.00386409,-0.00400559l0.00257606 -0.00266676 0.00128803 -0.00267039 0.00128803 -0.00266676 0 -0.00400559c0.00185041,-0.00128077 0.00128803,-0.000983256 0.00128803,-0.00400196l0.00257606 -0.00400559c0.000536981,-0.00280827 0.00037371,-0.00286269 0.00257606,-0.00400196l0 -0.00400559 0.00257606 -0.00266676 0 -0.0106779 -0.00386409 -0.00400196 0 -0.00400559c-0.00398745,-0.00412895 -0.00724562,-0.0143425 -0.00515212,-0.0186819 -0.00219509,-0.00303322 -0.00035194,-0.00157466 -0.00386409,-0.00400559l0 -0.0213523c-0.0015021,-0.00207899 -0.00205722,-0.00397294 -0.00257606,-0.00667235 -0.00305862,-0.00226403 -0.00307676,-0.00123723 -0.00386409,-0.00533716 -0.00338153,0 -0.00276836,0.000515212 -0.00515212,-0.0013352l-0.00772818 0c-0.00185041,0.00191572 -0.0032618,0.00282641 -0.00386409,0.00534079l-0.00128803 -0.00267039z"/>
   <path id="_124387360" class="fil1 str0" d="M0.0281661 0.214484l0.0141683 -0.00934275c0.00304047,-0.00200279 0.00379515,-0.00266676 0.00772818,-0.00266676l0.00128803 -0.00267039c-0.00020681,-0.0015021 -0.000235836,-0.0029534 -0.00128803,-0.00400196 -0.000994141,-0.000997769 -0.00133882,-0.00202819 -0.00257606,-0.00267039l-0.00257606 -0.0013352 0 -0.0013352 -0.00257606 -0.00133157 -0.00515212 -0.00534079c0.000526096,-0.00219146 0.000917948,-0.0022858 0.00257606,-0.00400196 0.00193386,-0.00200279 0.00296065,-0.00236562 0.00515212,-0.00400559 0.000979628,-0.000732907 0.00140051,-0.00236199 0.00257606,-0.00266676l0.00515212 -0.0013352 0.00128803 -0.0013352 0.00128803 0c0.00903072,0 0.0028119,9.07063e-005 0.0154564,-0.00934275"/>
  </g>
 </g>
</svg>
