<?xml version="1.0" encoding="UTF-8"?>
<!DOCTYPE svg PUBLIC "-//W3C//DTD SVG 1.1//EN" "http://www.w3.org/Graphics/SVG/1.1/DTD/svg11.dtd">
<!-- Creator: CorelDRAW -->
<svg xmlns="http://www.w3.org/2000/svg" xml:space="preserve" width="6.0271mm" height="10.7783mm" style="shape-rendering:geometricPrecision; text-rendering:geometricPrecision; image-rendering:optimizeQuality; fill-rule:evenodd; clip-rule:evenodd"
viewBox="0 0 0.389323 0.696229"
 xmlns:xlink="http://www.w3.org/1999/xlink">
 <defs>
  <style type="text/css">
   <![CDATA[
    .str0 {stroke:black;stroke-width:0.0129191}
    .fil1 {fill:none}
    .fil0 {fill:white}
   ]]>
  </style>
 </defs>
 <g id="Livello_x0020_1">
  <metadata id="CorelCorpID_0Corel-Layer"/>
  <g id="_124411952">
   <path id="_124412072" class="fil0 str0" d="M0.148976 0.367987c-0.00532266,0.00771915 -0.00934695,0.016756 -0.016052,0.0213811 -0.00144048,0.00750599 -0.0107099,0.019805 -0.016052,0.0213875 0,0.00821654 0.00168594,0.00516763 -0.00458627,0.00950198l-0.00229314 0.00713133c-0.0100123,0.00257736 -0.0275176,0.0301661 -0.0275176,0.0380144 -0.00656935,0.00301661 -0.0166721,0.015083 -0.0183451,0.0237582 -0.00630451,0.00435373 -0.00286158,0.00277114 -0.00917255,0.00712487 -0.00238357,0.00990248 -0.0101156,0.0115561 -0.0114657,0.0213811 -0.00488341,0.0016924 -0.0144694,0.0155481 -0.0160455,0.0237646 -0.00728636,0.00502552 -0.0133971,0.0216459 -0.0183451,0.0308831 -0.00656935,0.0122473 0.000859119,0.0219495 0.00229314,0.0308895 0.014366,0.00370778 0.0356502,0.0118791 0.0504426,0.0118791l0.0206382 0c0.00922422,0 0.0158388,0.00475422 0.0252245,0.00475422 0.00567148,0.00587172 0.0211679,0.00875914 0.0229314,0.0142497 0.01029,0 0.0131839,0.00950844 0.0229314,0.00950844 0.00370778,0.00576837 0.00671792,0.00846846 0.0137588,0.00950198 0.00618178,0.0144112 0.022996,0.0131645 0.0298108,0.0237582 0.0130999,0 0.0203863,0.00751245 0.0320975,0.0118791 0.00771915,0.00288741 0.0247077,-0.000852659 0.0321039,-0.00237711l0.00458627 -0.00712487c0.00700214,-0.00144694 0.0102384,-0.00403075 0.0137588,-0.00950198 0.00708612,-0.00146632 0.0124928,-0.00780312 0.016052,-0.0142562 0.011259,-0.00233189 0.0136942,-0.0118145 0.0206382,-0.0190104 0,-0.00928236 -0.00211227,-0.0602546 0.00229314,-0.0617726 0,-0.00509012 -0.00158259,-0.00817132 0.00229314,-0.00950198 0,-0.00970869 0.00238357,-0.0248886 0.00687941,-0.0332666 0.00301015,-0.0056198 0.00445708,-0.0300562 0.00687941,-0.0308831 -0.000768685,-0.0056198 -0.00152445,-0.00626575 -0.00229314,-0.0118791 0.00317809,-0.00439895 0.00229314,-0.00326853 0.00229314,-0.00950844 0.00417932,-0.00288096 0.00381113,-0.0504296 0,-0.0570184 -0.0103805,-0.00214457 -0.0172211,-0.0108908 -0.0275176,-0.0118791 -0.0271107,-0.00261611 -0.0611137,-0.00237711 -0.0871392,-0.00237711 -0.0108843,-0.0112784 -0.0255475,-0.00525807 -0.0343906,-0.0190104 -0.00741555,-0.00153091 -0.00813256,-0.000587818 -0.00917255,-0.00712487l-0.00458627 -0.00475422c-0.00904336,-0.00133067 -0.0119372,-0.00712487 -0.0229314,-0.00950198z"/>
   <path id="_124412024" class="fil1 str0" d="M0.112286 0.451147c0.00364964,0.00028422 0.0145727,0.000794523 0.0183451,0.00237065 0.00682127,0.00286804 0.0150443,0.0115109 0.0206382,0.0166333 0.00614948,0.00563272 0.00683419,0.00617532 0.0114657,0.0142562 0.0058911,0.0102965 0.00458627,0.016517 0.00458627,0.0285124l0 0.0285124c0.00790648,0.00272593 0.00270655,-0.00230606 0.00458627,0.00712487 0.000490925,0.0025063 0.00458627,0.00219624 0.00458627,0.00475422l0 0.00237711 0.00229314 0c0.00432789,0 0.00605259,0.00702152 0.0114657,0.00950198 0.00473484,0.00217687 0.0128157,0.00835865 0.0137524,0.0142562 0.000432789,0.00265487 0.000458627,0.00522577 0.00229314,0.00712487l0.00229314 0.00237711 0 0.00475422c0,0.00936633 0.00458627,-0.000910795 0.00458627,0.0118791l0.00458627 0c0.00098831,0 0.00153737,0.0126865 0.00229314,0.0142562 0.00182805,0.00380467 0.000484466,-0.000239003 0.00229314,0.00712487 0.00124669,0.00503198 0.006466,0.011414 0.00687941,0.0166333 0.000232543,0.00297785 0,0.00645308 0,0.00950198 0,0.00970869 0.00231252,0.00594278 -0.00458627,0.00475422"/>
   <path id="_124411976" class="fil1 str0" d="M0.0363543 0.610511c0.0165558,-0.0165429 0.0275822,-0.028506 0.0461211,-0.0358182 0.00540018,-0.00213165 0.00803567,-0.00547769 0.0137588,-0.00712487 0.00735742,-0.00211227 0.00994769,0.004709 0.0114657,-0.00475422 0.0132744,0 0.0242297,-0.00234481 0.0366902,-0.00475422 0.00984434,-0.00190556 0.0181126,-0.00799045 0.0252245,-0.0118791 0.0162845,-0.00890125 0.0241328,-0.0182482 0.0389769,-0.0285124 0.00631097,-0.00434727 0.0135392,-0.0122215 0.0183451,-0.0166269 0.00534204,-0.00489633 0.0162651,-0.00321039 0.0183451,-0.0118791l0.00458627 0c0.00167948,-0.0104451 0.000620116,0.000936633 0.00229314,-0.00950844 0.00681482,-0.000994769 0.00658873,-0.00207351 0.0114657,-0.00712487 0.0105743,0 0.00282282,-0.00166656 0.00917255,-0.00475422 0.00468963,-0.00227376 0.0130354,-0.00230606 0.0183451,-0.00474776 0.00642724,-0.00295201 0.00848138,-0.00713133 0.016052,-0.00713133"/>
  </g>
  <g id="_124411784">
   <path id="_124411904" class="fil0 str0" d="M0.100821 0.0614948c0.016052,-0.0051095 0.0315355,-0.0144435 0.0481559,-0.019004 0.00813256,-0.00222854 0.0244881,0.00494155 0.0321039,0.00712487 0.0101932,0.00293263 0.0336671,0.00113042 0.0389769,-0.00712487 0.00844262,0 0.0148763,-0.00713133 0.0252245,-0.00713133 0.00270009,-0.0083974 -0.000465087,-0.0016601 0.00687941,-0.00712487 0.00343002,-0.00255798 0.00530974,-0.00386926 0.00687941,-0.00713133l0.00687941 0c0.0036884,-0.00534204 0.0187327,-0.0137007 0.0252245,-0.0142562 0.01102,-0.000930174 0.0171113,0 0.0275176,0 0.00281636,0.00877852 -0.000316517,0.00122085 0.00687941,0.00713133 0.00381759,0.00313288 0.00442479,0.00590402 0.00917255,0.00712487l0 0.00475422c0.0107164,0.00739617 0.00703444,0.0274078 0.0183386,0.0332602 0.00187327,0.0117047 0.0165881,0.0180673 0.0183451,0.0308895 0.00813256,0.00240295 0.00457981,0.00474776 0.0114657,0.00950198 0,0.0078871 -0.000103353,0.00750599 -0.00687941,0.00950198 -0.00153091,0.0111427 -0.00771269,0.00513533 -0.00917255,0.0142562 -0.0152251,0.00450876 -0.0212906,0.0265939 -0.0343906,0.0356373l0 0.00475422c-0.00496093,0.00342356 -0.00682127,0.00578129 -0.00917255,0.0118791 -0.0100833,0.00173762 0.000904336,0.000639494 -0.00917255,0.00237711 -0.000891417,0.00648538 -0.0109683,0.0234998 -0.016052,0.0261353 0,0.0119695 -0.00687941,0.0230993 -0.00687941,0.0356373l-0.00458627 0.00475422 -0.0343971 0c-0.0141335,0 -0.0382405,-0.00257736 -0.050449,-0.00713133 -0.00562626,-0.00209935 -0.00288096,-0.00474776 -0.0114592,-0.00474776 -0.0137653,0 -0.025231,-0.00713133 -0.0389833,-0.00713133 -0.00560042,-0.00870746 -0.0167819,-0.0116336 -0.0183451,-0.0213811 -0.00881081,-0.00521931 -0.00908857,-0.011821 -0.016052,-0.0166333 0,-0.0064337 0.00159551,-0.0036884 -0.00458627,-0.00474776 -0.00127899,-0.0093405 -0.00496739,-0.0192559 0,-0.0285124 0.0116336,-0.021717 0.00497385,-0.067218 -0.0114657,-0.0926621z"/>
   <path id="_124411856" class="fil1 str0" d="M0.153563 0.139901c0.0162134,0 0.0176862,-0.00112396 0.0252245,0 0.00536142,0.000800983 0.0112008,-0.000129191 0.016052,0.00237711l0.00916609 0.00474776 0.00229314 0.00237711c0.00547769,0.00566502 0.0132614,0.00237711 0.0206382,0.00237711 0.00217687,0.00180221 0.00425684,0.00377883 0.00687941,0.00475422 0.00452168,0.00168594 0.00327499,-0.00151799 0.00917255,0.00237065 0.00485757,0.00321685 0.00479944,0.00575545 0.0114657,0.00713133 0.0027776,0.00503844 0.00797753,0.0092759 0.00917255,0.0142562 0.00625284,0.00432143 0.00297785,0.0017247 0.00687941,0.00712487l0 0.00950198c0.00333958,0.00115626 0.00175054,0.000833281 0.00458627,0.00475422 -0.0030812,-0.00745431 -0.00145986,-0.00532912 -0.00687941,-0.0118791l0 -0.00712487"/>
   <path id="_124411808" class="fil1 str0" d="M0.284265 0.0567406c-0.00441833,0.00425038 -0.00881727,0.00830051 -0.0137588,0.0118856l-0.00229314 0.00712487c-0.00455398,0.0031458 -0.00450876,0.0059234 -0.00917255,0.00712487l0 0.00475422c-0.00618178,0.00105936 -0.00458627,-0.00167948 -0.00458627,0.00475422l-0.00458627 0.00712487 0 0.00950198c-0.00320393,0.00444416 -0.00229314,0.00600091 -0.00229314,0.0118791 0.00276468,0.0035915 0.00370778,0.00494155 0.00458627,0.00950844 0.00455398,0.0031458 0.00450876,0.0059234 0.00917255,0.00712487 -0.00633681,0.00187327 -0.00525161,-0.00133067 -0.00687941,0.00713133 0.00294555,-0.000755766 0.00393386,-0.00162134 0.00687941,-0.00237711 0.00461211,-0.00835865 0.00616886,-0.00529036 0.0114657,-0.0118791 0.0097862,-0.00100769 0.00676314,0.00139526 0.0114657,-0.00713133 0.00663395,-0.00113688 0.012693,-0.00248046 0.016052,-0.00712487 0.00294555,-0.000755766 0.00393386,-0.00162134 0.00687941,-0.00237711 0.00461857,-0.00718301 0.00339772,-0.00209289 0.00458627,-0.00950198l0.0275176 0"/>
  </g>
 </g>
</svg>
