<?xml version="1.0" encoding="UTF-8"?>
<!DOCTYPE svg PUBLIC "-//W3C//DTD SVG 1.1//EN" "http://www.w3.org/Graphics/SVG/1.1/DTD/svg11.dtd">
<!-- Creator: CorelDRAW -->
<svg xmlns="http://www.w3.org/2000/svg" xml:space="preserve" width="19.9119mm" height="19.9992mm" style="shape-rendering:geometricPrecision; text-rendering:geometricPrecision; image-rendering:optimizeQuality; fill-rule:evenodd; clip-rule:evenodd"
viewBox="0 0 2.12393 2.13324"
 xmlns:xlink="http://www.w3.org/1999/xlink">
 <defs>
  <style type="text/css">
   <![CDATA[
    .str0 {stroke:black;stroke-width:0.0213332}
    .fil1 {fill:none}
    .fil0 {fill:white}
   ]]>
  </style>
 </defs>
 <g id="Livello_x0020_1">
  <metadata id="CorelCorpID_0Corel-Layer"/>
  <g id="_124412552">
   <path id="_124412672" class="fil0 str0" d="M0.101855 1.09694l0.0461544 0.0669117c-0.0313918,-0.149642 -0.0155413,-0.0553277 0.0075733,-0.0313918 0,-0.0320212 0.0194559,-0.056789 0.0227199,-0.0941542 0.00278399,-0.0319145 0.0897169,-0.0890342 0.121162,-0.109855 0.0266559,-0.0176319 0.0564797,-0.0207039 0.0833062,-0.0392318 0.0268052,-0.0185066 0.0456318,-0.0667303 0.0681597,-0.0706236 0.0139199,-0.0865382 0.10145,-0.189887 0.196895,-0.20401 0.00552531,-0.0343892 0.13937,-0.068117 0.174175,-0.0941649 0.146581,-0.109663 0.239412,-0.303849 0.43923,-0.345246 0.00303998,-0.0189119 0.00312532,-0.0184746 0.0227199,-0.0235412 0.00299732,-0.0186346 0.221194,-0.177226 0.242335,-0.133397 0.0297065,0 0.0308798,0.0156906 0.0605864,0.0156906 0.00607997,0.0188906 0.129578,0.126421 0.159029,0.156938 0.0304745,0.0315625 0.113599,0.127349 0.113599,0.156938 0.0271679,0.0070293 0.0566184,0.0339625 0.0605864,0.062773l0.0227199 0c0.0339518,0.105567 0.19777,0.120959 0.166602,0.282473 -0.0237439,0.00409598 -0.0207359,0.0192852 -0.0454398,0.0235412 -0.00451198,0.0327358 -0.0253759,0.0270719 -0.0302932,0.062773 -0.066837,0.0230826 -0.151455,0.439315 -0.151455,0.533576 -0.0157866,0.00271999 -0.0283625,0.176394 -0.0378665,0.21186 -0.0201386,0.075125 -0.0744103,0.162965 -0.0833062,0.227551 -0.0285545,0.00845862 -0.0903142,0.068565 -0.121162,0.0863142 -0.0624317,0.0359572 -0.208436,0.133727 -0.280201,0.149087 -0.0609384,0.0130346 -0.104629,0.117749 -0.159029,0.133397 -0.0444051,0.0127786 -0.101919,-0.0596584 -0.136319,-0.0784743 -0.0621224,-0.0339625 -0.170122,-0.129418 -0.219615,-0.188319 -0.0412585,-0.0490771 -0.0894289,-0.0524904 -0.136309,-0.102005 -0.0438504,-0.0463144 -0.258857,-0.235401 -0.302921,-0.235401 -0.0155626,-0.0483624 -0.148565,-0.0996475 -0.159039,-0.164778 -0.0260585,-0.00771196 -0.121162,-0.136095 -0.121162,-0.164778 0.0148693,-0.00770129 0.0227199,-0.0200852 0.0227199,-0.0392318l-0.0461544 -0.0512211z"/>
   <path id="_124412624" class="fil1 str0" d="M1.6626 0.206559c-0.00958929,0.0198932 -0.0187732,0.0344532 -0.0227199,0.0549331 -0.0261652,0.0180692 -0.0247465,0.0496318 -0.0605864,0.0549224 -0.0210026,0.0304638 -0.0564797,0.0271359 -0.0833062,0.0549224l-0.0227092 0 -0.0075733 0.0157013c-0.0205226,0 -0.0286292,-0.00346665 -0.0378665,0.0156906l-0.0227199 0.00785063c0.00431998,0.0179306 -0.00892796,0.00994128 -0.0227199,0.0313812l-0.0227199 0 -0.0151466 0.0235412c-0.0182506,0 -0.063637,0.0166399 -0.0302932,0.0235412l-0.0151466 0.00785063c-0.0332478,0.00572797 0.00296532,0.00211199 -0.0302932,0.00783996 -0.0177919,0.0368745 -0.0437544,0.0540157 -0.0530024,0.102005 -0.0180052,0.0133226 -0.0180692,0.00726396 -0.0227199,0.0313918 -0.0150613,0.0103999 -0.0148693,0.0195519 -0.0302932,0.0235412 -0.00360532,0.0149439 -0.0104426,0.0250239 -0.0227199,0.0313812 -0.00921595,0.0381865 -0.0867622,0.0692583 -0.0984528,0.117706 -0.0208319,0.0143893 -0.00946129,0.00915195 -0.0302932,0.0235412l-0.0075733 0.0235305c-0.0273065,0.00707196 -0.0290879,0.0450771 -0.0530024,0.062773 -0.00278399,0.0202026 0.00404265,0.0185812 -0.0151466,0.0235412l-0.0151466 0.00785063 -0.0075733 0.0235412c-0.0147946,0.00874662 -0.0186986,0.0115199 -0.0302932,0.0235412l-0.0151466 0c-0.0152319,0.0236799 -0.0373865,0.0227946 -0.0530131,0.0470824 -0.0141653,0.00293332 -0.0228799,0.00783996 -0.0378665,0.00783996 -0.0129493,0.0201492 -0.0157226,0.0248319 -0.0378665,0.0313918l-0.0151466 0.0235412c-0.0124266,0.00321065 -0.0129599,0.00557864 -0.0227092,0.0156906l-0.00059733 0.0395731"/>
   <path id="_124412576" class="fil1 str0" d="M1.20823 1.35217c0.0632957,-0.0266452 0.0699836,-0.0255145 0.106015,-0.0549224 0.0246505,-0.0201172 0.0344532,-0.0441704 0.0605864,-0.062773 0.0211519,-0.0150826 0.0550824,-0.0488211 0.075733,-0.0549331 0.00927995,-0.0337065 0.0453864,-0.0512957 0.0757223,-0.070613 0.00962129,-0.0061333 0.0144533,-0.0296745 0.0227199,-0.0392425 0.0155519,-0.0179626 0.0129599,-0.0111466 0.0227199,-0.0313812 0.00771196,-0.0159893 0.0343252,-0.0451838 0.0454398,-0.062773 0.00637863,-0.0100799 0.0294399,-0.0495251 0.0302932,-0.0549331 0.00554664,-0.0345278 -0.00969595,-0.0370238 0.0151466,-0.062773 0.00850129,-0.00881062 0.0200106,-0.0257065 0.0302932,-0.0392318 0.0198932,-0.0261545 0.0557331,-0.0422505 0.0832956,-0.062773 0.0193812,-0.0144319 0.0517651,-0.0261225 0.075733,-0.0392318 0.0121066,-0.0066133 0.0274665,-0.0222826 0.0378665,-0.0313812 0.0227412,-0.0199466 0.00482131,-0.0235412 0.0378665,-0.0235412l0.0530131 0c0.074709,0 0.0316265,-0.0441064 0.106111,0.0433384"/>
  </g>
 </g>
</svg>
