<?xml version="1.0" encoding="UTF-8"?>
<!DOCTYPE svg PUBLIC "-//W3C//DTD SVG 1.1//EN" "http://www.w3.org/Graphics/SVG/1.1/DTD/svg11.dtd">
<!-- Creator: CorelDRAW -->
<svg xmlns="http://www.w3.org/2000/svg" xml:space="preserve" width="4.8731mm" height="3.4923mm" style="shape-rendering:geometricPrecision; text-rendering:geometricPrecision; image-rendering:optimizeQuality; fill-rule:evenodd; clip-rule:evenodd"
viewBox="0 0 0.18317 0.131268"
 xmlns:xlink="http://www.w3.org/1999/xlink">
 <defs>
  <style type="text/css">
   <![CDATA[
    .str0 {stroke:black;stroke-width:0.00751759}
    .fil1 {fill:none}
    .fil0 {fill:white}
   ]]>
  </style>
 </defs>
 <g id="Livello_x0020_1">
  <metadata id="CorelCorpID_0Corel-Layer"/>
  <g id="_124388296">
   <path id="_124388416" class="fil0 str0" d="M0.123849 0.00426623c-0.0031386,0.00149976 -0.0086114,0.00167266 -0.010675,0.00276272 -0.00417226,0.00222145 -0.0100773,0.00622081 -0.0133437,0.00829567 -0.000785589,0.000503679 -0.00419858,0.00116899 -0.00533749,0.00138324 -0.00424744,0.000793106 -0.00505558,0.00461956 -0.00934061,0.00552919 -0.00604039,0.00129303 -0.0104908,0.00553295 -0.0173431,0.00553295 -0.00745745,0 -0.0142346,0.00671697 -0.02135,0.00829191 -0.00544274,0.00121033 -0.00499168,0.00414219 -0.00934061,0.00691619 -0.00532997,0.00339043 -0.0129378,0.00721313 -0.0173468,0.0110584 -0.00513828,0.00447673 -0.0104645,0.00623209 -0.0160125,0.0096789l0 0.00552919c0.00582614,0 0.010487,0.00532246 0.0160125,0.00691243 0.00558933,0.00160501 0.0107953,0.00418354 0.0160125,0.00552919l0.00133437 0.00138324c0.000917146,0.00381894 0.00440907,0.00370993 0.00667186,0.00691243 0.00620577,0.0088031 0.0110433,0.0197412 0.0186812,0.0276535 0.00390915,0.00405198 0.0145616,0.00967514 0.0213462,0.00967514 0.00566075,0 0.011735,0.000481126 0.0173468,0 0.00831446,-0.000706654 0.0204629,-0.007262 0.0280218,-0.0110584 0.00114267,-0.000571337 0.00987812,-0.00960373 0.010675,-0.0110621 0.00071793,-0.00132686 0.00134565,-0.00537884 0.00266875,-0.00691243 0.00338668,-0.00391291 0.00452183,-0.00181926 0.00533749,-0.00691243 0.00529239,-0.00078183 0.00664555,-0.00602159 0.0120094,-0.00829567 0.00440907,-0.00187188 0.0106938,-0.00351823 0.0120056,-0.00829567 0.00604415,-0.000890835 0.00359341,-0.00339795 0.00667186,-0.00552919 -0.00206734,-0.00500296 -0.00451432,-0.00847233 -0.00800624,-0.0096789 -0.000496161,-0.00362724 -0.00133061,-0.00438652 -0.00133061,-0.00829567 -0.00395425,-0.00116523 -0.00393922,-0.00331526 -0.00667186,-0.00691243 -0.00247329,-0.00324384 -0.00474736,-0.00458949 -0.00533749,-0.00829567 -0.00627719,-0.000920905 -0.00410085,-0.00601032 -0.00934061,-0.00691243 -0.00109757,-0.00341299 -0.00204103,-0.00439027 -0.00533749,-0.00552919 -0.000759277,-0.00550288 -0.00347689,-0.00498416 -0.00667186,-0.00829567 -0.00239811,-0.00248456 -0.00443914,-0.00411964 -0.00533749,-0.00691243l-0.00667186 -0.00414595z"/>
   <path id="_124388368" class="fil1 str0" d="M0.0371181 0.0429781c0.00333029,0.00478871 0.00290931,0.00703647 0.00800624,0.00967514l0.010675 0c0.00264619,0.00274392 0.00162756,0.00221769 0.00533749,0.00276647l0.00266875 0.00276647c0.00217258,0.00338292 0.002992,0.00334909 0.00667186,0.00552919 0.000924664,0.00191699 0.00174032,0.00222897 0.00266875,0.00414595 0.00272513,0.00046985 0.00406326,0.000789347 0.00533749,0.00276647l0.00266499 0c0.00224776,0.00348816 0.000424744,0.00276272 0.00400312,0.00276272l0.00400312 0.00276647c0.0039505,0 0.00562316,0.000612684 0.00934061,0.00138324 0.00269882,-0.000560061 0.00459325,-0.00115395 0.00667186,-0.00276647l0.00533749 0 -0.00266875 0.00138324 -0.00266875 0.00276647c-0.000608925,0.00253719 -0.00021801,0.002135 -0.00266875,0.00276272l0 0.00276647c-0.00160877,0.00208613 -0.00215379,0.00287172 -0.00266875,0.00552919l-0.00266875 0.00414971 0 0.00691243c0.00158621,0.0021989 0.00133437,0.00140579 0.00133437,0.00414595l0.00133437 0.00138324c0.00488644,0.00289427 0.0032476,0.00394674 0.00400312,0"/>
   <path id="_124388320" class="fil1 str0" d="M0.0918237 0.047124c0.00333781,0.000646513 0.00883317,0.000939699 0.0120094,0.00276647 0.00349944,0.00201472 0.00159373,9.02111e-005 0.00533749,0.00137948 0.00153735,0.00052999 0.00252215,0.00208613 0.00400312,0.00276647 0.000981046,0.000447297 0.00173656,0.000845729 0.00266875,0.00138324 0.00278903,0.00160125 0.00322129,0.000826935 0.00533749,0.00276647 0.00203727,0.00186812 0.00439027,0.00355958 0.00533749,0.00552919 0.0015148,0 0.00667938,-0.000454814 0.00800624,0 0.000981046,0.000330774 0.0042512,0.00220266 0.00533749,0.00276272 0.00144714,0.000748001 0.00247705,0.0021989 0.00400312,0.00276647 0.00148848,0.000560061 0.00503679,0 0.00667186,0l0.00667186 0"/>
  </g>
 </g>
</svg>
