<?xml version="1.0" encoding="UTF-8" standalone="no"?>
<svg
   xmlns:dc="http://purl.org/dc/elements/1.1/"
   xmlns:cc="http://creativecommons.org/ns#"
   xmlns:rdf="http://www.w3.org/1999/02/22-rdf-syntax-ns#"
   xmlns:svg="http://www.w3.org/2000/svg"
   xmlns="http://www.w3.org/2000/svg"
   xmlns:sodipodi="http://sodipodi.sourceforge.net/DTD/sodipodi-0.dtd"
   xmlns:inkscape="http://www.inkscape.org/namespaces/inkscape"
   version="1.1"
   id="Layer_1"
   x="0px"
   y="0px"
   viewBox="0 0 32 32"
   style="enable-background:new 0 0 32 32;"
   xml:space="preserve"
   sodipodi:docname="item_slope.svg"
   inkscape:version="1.0.2 (e86c870879, 2021-01-15, custom)"><metadata
   id="metadata20"><rdf:RDF><cc:Work
       rdf:about=""><dc:format>image/svg+xml</dc:format><dc:type
         rdf:resource="http://purl.org/dc/dcmitype/StillImage" /><dc:title /></cc:Work></rdf:RDF></metadata><defs
   id="defs18" /><sodipodi:namedview
   pagecolor="#ffffff"
   bordercolor="#666666"
   borderopacity="1"
   objecttolerance="10"
   gridtolerance="10"
   guidetolerance="10"
   inkscape:pageopacity="0"
   inkscape:pageshadow="2"
   inkscape:window-width="2560"
   inkscape:window-height="1017"
   id="namedview16"
   showgrid="false"
   inkscape:zoom="13.28125"
   inkscape:cx="-10.943639"
   inkscape:cy="19.165818"
   inkscape:window-x="-8"
   inkscape:window-y="-8"
   inkscape:window-maximized="1"
   inkscape:current-layer="Layer_1"
   inkscape:document-rotation="0" />
<style
   type="text/css"
   id="style2">
	.Yellow{fill:#FFB115;}
	.Red{fill:#D11C1C;}
	.Black{fill:#727272;}
	.Blue{fill:#1177D7;}
	.White{fill:#FFFFFF;}
	.Green{fill:#039C23;}
	.st0{opacity:0.75;}
	.st1{opacity:0.5;}
	.st2{opacity:0.25;}
	.st3{fill:#FFB115;}
</style>

<rect
   style="fill:#ffffff;stroke:none;stroke-width:1.5;stroke-miterlimit:22.9256;stroke-dasharray:3, 1.5"
   id="rect850"
   width="24"
   height="20"
   x="4"
   y="6" /><g
   id="g963"
   transform="matrix(0.84292277,0,0,0.84292277,57.588839,-29.246773)"><path
     class="fil1 str1"
     d="m -63.822565,40.540277 c -0.289111,4.931719 3.612344,5.625489 7.05664,7.347588 4.426788,2.213395 2.681194,10.139592 11.462252,10.139592 7.917108,0 6.806688,2.794228 9.406855,8.374562"
     id="path116"
     style="clip-rule:evenodd;fill:none;fill-rule:evenodd;stroke:#000000;stroke-width:1.5;stroke-miterlimit:22.9256;stroke-dasharray:none;image-rendering:optimizeQuality;shape-rendering:geometricPrecision;text-rendering:geometricPrecision" /><g
     id="g120"
     style="clip-rule:evenodd;fill-rule:evenodd;image-rendering:optimizeQuality;shape-rendering:geometricPrecision;text-rendering:geometricPrecision"
     transform="matrix(9.6692784e-4,0,0,9.6692784e-4,-99.645792,-40.830859)"><path
       id="path118"
       style="stroke-width:0.000966928"
       d="m -46.333984,51.111328 -5.011719,2.128906 1.548828,1.320313 -3.482422,4.089844 0.605469,0.515625 3.482422,-4.089844 1.552734,1.324219 z"
       transform="matrix(1034.2033,0,0,1034.2033,103054.01,42227.411)" /></g><g
     id="g124"
     style="clip-rule:evenodd;fill-rule:evenodd;image-rendering:optimizeQuality;shape-rendering:geometricPrecision;text-rendering:geometricPrecision"
     transform="matrix(9.6692784e-4,0,0,9.6692784e-4,-99.645792,-40.830859)"><path
       id="path122"
       style="stroke-width:0.000966928"
       d="m -35.548828,53.986328 -4.804688,2.56836 1.664063,1.177734 -3.546875,5.005859 0.648437,0.460938 3.546875,-5.007813 1.664063,1.179688 z"
       transform="matrix(1034.2033,0,0,1034.2033,103054.01,42227.411)" /></g><g
     id="g128"
     style="clip-rule:evenodd;fill-rule:evenodd;image-rendering:optimizeQuality;shape-rendering:geometricPrecision;text-rendering:geometricPrecision"
     transform="matrix(9.6692784e-4,0,0,9.6692784e-4,-99.645792,-40.830859)"><path
       id="path126"
       style="stroke-width:0.000966928"
       d="m -52.460938,43.185547 -5.259765,1.408203 1.349609,1.525391 -4.017578,3.5625 0.527344,0.595703 4.019531,-3.5625 1.351563,1.52539 z"
       transform="matrix(1034.2033,0,0,1034.2033,103054.01,42227.411)" /></g></g><g
   id="Images">
	<path
   class="Black"
   d="M29,4H3C2.5,4,2,4.5,2,5v22c0,0.5,0.5,1,1,1h26c0.5,0,1-0.5,1-1V5C30,4.5,29.5,4,29,4z M28,26H4V6h24V26z"
   id="path4" />
	
	
	<g
   class="st1"
   id="g12">
		
	</g>
</g></svg>
