<?xml version="1.0" encoding="UTF-8" standalone="no"?>
<svg
   xmlns:dc="http://purl.org/dc/elements/1.1/"
   xmlns:cc="http://creativecommons.org/ns#"
   xmlns:rdf="http://www.w3.org/1999/02/22-rdf-syntax-ns#"
   xmlns:svg="http://www.w3.org/2000/svg"
   xmlns="http://www.w3.org/2000/svg"
   xmlns:sodipodi="http://sodipodi.sourceforge.net/DTD/sodipodi-0.dtd"
   xmlns:inkscape="http://www.inkscape.org/namespaces/inkscape"
   version="1.1"
   id="Layer_1"
   x="0px"
   y="0px"
   viewBox="0 0 32 32"
   style="enable-background:new 0 0 32 32;"
   xml:space="preserve"
   sodipodi:docname="item_infobox.svg"
   inkscape:version="1.0.2 (e86c870879, 2021-01-15, custom)"><metadata
   id="metadata20"><rdf:RDF><cc:Work
       rdf:about=""><dc:format>image/svg+xml</dc:format><dc:type
         rdf:resource="http://purl.org/dc/dcmitype/StillImage" /><dc:title></dc:title></cc:Work></rdf:RDF></metadata><defs
   id="defs18"><mask
     maskUnits="userSpaceOnUse"
     id="mask1189"><rect
       style="fill:#ffffff;stroke:#000000;stroke-width:1;stroke-miterlimit:22.9256;stroke-dasharray:none;stroke-dashoffset:0"
       id="rect1191"
       width="24"
       height="20"
       x="4"
       y="6" /></mask></defs><sodipodi:namedview
   pagecolor="#ffffff"
   bordercolor="#666666"
   borderopacity="1"
   objecttolerance="10"
   gridtolerance="10"
   guidetolerance="10"
   inkscape:pageopacity="0"
   inkscape:pageshadow="2"
   inkscape:window-width="2560"
   inkscape:window-height="1017"
   id="namedview16"
   showgrid="false"
   inkscape:zoom="6.640625"
   inkscape:cx="18.211923"
   inkscape:cy="20.926064"
   inkscape:window-x="-8"
   inkscape:window-y="-8"
   inkscape:window-maximized="1"
   inkscape:current-layer="Layer_1"
   inkscape:document-rotation="0"
   showguides="true"
   inkscape:guide-bbox="true"><sodipodi:guide
     position="-9.6898586,20.766153"
     orientation="0,1"
     id="guide859"
     inkscape:label=""
     inkscape:locked="false"
     inkscape:color="rgb(0,0,255)" /><sodipodi:guide
     position="7.7199423,17.784658"
     orientation="1,0"
     id="guide861" /></sodipodi:namedview>
<style
   type="text/css"
   id="style2">
	.Yellow{fill:#FFB115;}
	.Red{fill:#D11C1C;}
	.Black{fill:#727272;}
	.Blue{fill:#1177D7;}
	.White{fill:#FFFFFF;}
	.Green{fill:#039C23;}
	.st0{opacity:0.75;}
	.st1{opacity:0.5;}
	.st2{opacity:0.25;}
	.st3{fill:#FFB115;}
</style>

<rect
   style="fill:#cccccc;fill-opacity:1;stroke:none;stroke-width:1.5;stroke-miterlimit:22.9256;stroke-dasharray:3, 1.5"
   id="rect854"
   width="24"
   height="20"
   x="4"
   y="6" /><g
   id="Images">
	<path
   class="Black"
   d="M29,4H3C2.5,4,2,4.5,2,5v22c0,0.5,0.5,1,1,1h26c0.5,0,1-0.5,1-1V5C30,4.5,29.5,4,29,4z M28,26H4V6h24V26z"
   id="path4" />
	
	
	<g
   class="st1"
   id="g12">
		
	</g>
</g><g
   aria-label="Info 
box"
   id="text855"
   style="font-style:normal;font-weight:normal;font-size:8.58485px;line-height:0.85;font-family:sans-serif;fill:#000000;fill-opacity:1;stroke:none;stroke-width:0.214621"><path
     d="M 10.182349,15.019741 H 7.7175577 V 14.382584 H 8.5349628 V 9.4152758 H 7.7175577 V 8.7781189 H 10.182349 V 9.4152758 H 9.3649435 v 4.9673082 h 0.8174055 z"
     style="stroke-width:0.214621"
     id="path863" /><path
     d="m 15.447276,15.019741 h -0.788062 v -2.665998 q 0,-0.322771 -0.03773,-0.603623 -0.03773,-0.285044 -0.13833,-0.444333 -0.104796,-0.176056 -0.301812,-0.259893 -0.197015,-0.08803 -0.511402,-0.08803 -0.32277,0 -0.674883,0.159289 -0.352113,0.15929 -0.674883,0.406607 v 3.495979 h -0.788063 v -4.682264 h 0.788063 v 0.519785 q 0.36888,-0.306003 0.762911,-0.477867 0.394031,-0.171865 0.809022,-0.171865 0.758719,0 1.156942,0.456909 0.398223,0.456908 0.398223,1.316232 z"
     style="stroke-width:0.214621"
     id="path865" /><path
     d="m 19.484001,9.2601784 h -0.04192 q -0.129946,-0.037726 -0.339537,-0.075453 -0.209591,-0.041918 -0.36888,-0.041918 -0.507211,0 -0.737761,0.2263584 -0.226358,0.2221665 -0.226358,0.8090212 v 0.15929 h 1.421027 v 0.662307 h -1.395876 v 4.019957 h -0.788063 v -4.019957 h -0.532361 v -0.662307 h 0.532361 v -0.155098 q 0,-0.8341724 0.414991,-1.2785054 0.41499,-0.4485249 1.19886,-0.4485249 0.264085,0 0.473676,0.025151 0.213783,0.025151 0.38984,0.058685 z"
     style="stroke-width:0.214621"
     id="path867" /><path
     d="m 23.973441,12.680705 q 0,1.144367 -0.586855,1.806675 -0.586855,0.662308 -1.571933,0.662308 -0.993462,0 -1.580317,-0.662308 -0.582663,-0.662308 -0.582663,-1.806675 0,-1.144368 0.582663,-1.806675 0.586855,-0.6665 1.580317,-0.6665 0.985078,0 1.571933,0.6665 0.586855,0.662307 0.586855,1.806675 z m -0.813213,0 q 0,-0.909626 -0.356305,-1.349767 -0.356305,-0.444333 -0.98927,-0.444333 -0.641349,0 -0.997653,0.444333 -0.352113,0.440141 -0.352113,1.349767 0,0.880282 0.356304,1.337191 0.356305,0.452716 0.993462,0.452716 0.628773,0 0.985078,-0.448524 0.360497,-0.452717 0.360497,-1.341383 z"
     style="stroke-width:0.214621"
     id="path869" /><path
     d="m 12.039326,19.940101 q 0,0.586855 -0.167673,1.056339 -0.163481,0.469484 -0.444333,0.788063 -0.29762,0.331154 -0.653925,0.498826 -0.356304,0.163481 -0.7838701,0.163481 -0.3982231,0 -0.6958424,-0.09641 -0.2976193,-0.09222 -0.586855,-0.25151 l -0.050302,0.217975 H 7.9187651 V 15.79439 h 0.7880624 v 2.330653 q 0.3311539,-0.272469 0.704226,-0.444333 0.3730721,-0.176057 0.8383645,-0.176057 0.82998,0 1.307848,0.637157 0.48206,0.637157 0.48206,1.798291 z m -0.813214,0.02096 q 0,-0.838364 -0.27666,-1.270122 -0.27666,-0.435949 -0.892858,-0.435949 -0.3437293,0 -0.6958423,0.150906 -0.352113,0.146713 -0.6539242,0.381455 v 2.682766 q 0.3353457,0.150906 0.5742796,0.209591 0.2431256,0.05869 0.5491286,0.05869 0.6539243,0 1.0228043,-0.427566 0.373072,-0.431758 0.373072,-1.349767 z"
     style="letter-spacing:0.78px;stroke-width:0.214621"
     id="path871" /><path
     d="m 18.038143,19.977828 q 0,1.144367 -0.586855,1.806675 -0.586855,0.662307 -1.571933,0.662307 -0.993461,0 -1.580316,-0.662307 -0.582664,-0.662308 -0.582664,-1.806675 0,-1.144368 0.582664,-1.806675 0.586855,-0.6665 1.580316,-0.6665 0.985078,0 1.571933,0.6665 0.586855,0.662307 0.586855,1.806675 z m -0.813213,0 q 0,-0.909626 -0.356305,-1.349767 -0.356305,-0.444333 -0.98927,-0.444333 -0.641348,0 -0.997653,0.444333 -0.352113,0.440141 -0.352113,1.349767 0,0.880282 0.356305,1.337191 0.356304,0.452716 0.993461,0.452716 0.628773,0 0.985078,-0.448524 0.360497,-0.452717 0.360497,-1.341383 z"
     style="letter-spacing:0.78px;stroke-width:0.214621"
     id="path873" /><path
     d="m 24.007618,22.316864 h -0.993462 l -1.328807,-1.798291 -1.337191,1.798291 h -0.918009 l 1.827634,-2.334845 -1.810867,-2.34742 h 0.993462 l 1.320423,1.768949 1.324616,-1.768949 h 0.922201 l -1.84021,2.305502 z"
     style="letter-spacing:0.78px;stroke-width:0.214621"
     id="path875" /></g></svg>
