<?xml version="1.0" encoding="UTF-8" standalone="no"?>
<svg
   version="1.1"
   id="Layer_1"
   x="0px"
   y="0px"
   viewBox="0 0 32 32"
   style="enable-background:new 0 0 32 32;"
   xml:space="preserve"
   sodipodi:docname="item_logoimage.svg"
   inkscape:version="1.1 (c68e22c387, 2021-05-23)"
   xmlns:inkscape="http://www.inkscape.org/namespaces/inkscape"
   xmlns:sodipodi="http://sodipodi.sourceforge.net/DTD/sodipodi-0.dtd"
   xmlns="http://www.w3.org/2000/svg"
   xmlns:svg="http://www.w3.org/2000/svg"
   xmlns:rdf="http://www.w3.org/1999/02/22-rdf-syntax-ns#"
   xmlns:cc="http://creativecommons.org/ns#"
   xmlns:dc="http://purl.org/dc/elements/1.1/"><metadata
   id="metadata20"><rdf:RDF><cc:Work
       rdf:about=""><dc:format>image/svg+xml</dc:format><dc:type
         rdf:resource="http://purl.org/dc/dcmitype/StillImage" /></cc:Work></rdf:RDF></metadata><defs
   id="defs18"><marker
     style="overflow:visible"
     id="marker1341"
     refX="0.0"
     refY="0.0"
     orient="auto"
     inkscape:stockid="DotL"
     inkscape:isstock="true"><path
       transform="scale(0.8) translate(7.4, 1)"
       style="fill-rule:evenodd;stroke:#808080;stroke-width:1pt;stroke-opacity:1;fill:#808080;fill-opacity:1"
       d="M -2.5,-1.0 C -2.5,1.7600000 -4.7400000,4.0 -7.5,4.0 C -10.260000,4.0 -12.5,1.7600000 -12.5,-1.0 C -12.5,-3.7600000 -10.260000,-6.0 -7.5,-6.0 C -4.7400000,-6.0 -2.5,-3.7600000 -2.5,-1.0 z "
       id="path1339" /></marker><marker
     style="overflow:visible"
     id="marker1331"
     refX="0.0"
     refY="0.0"
     orient="auto"
     inkscape:stockid="DotL"
     inkscape:isstock="true"><path
       transform="scale(0.8) translate(7.4, 1)"
       style="fill-rule:evenodd;stroke:#808080;stroke-width:1pt;stroke-opacity:1;fill:#808080;fill-opacity:1"
       d="M -2.5,-1.0 C -2.5,1.7600000 -4.7400000,4.0 -7.5,4.0 C -10.260000,4.0 -12.5,1.7600000 -12.5,-1.0 C -12.5,-3.7600000 -10.260000,-6.0 -7.5,-6.0 C -4.7400000,-6.0 -2.5,-3.7600000 -2.5,-1.0 z "
       id="path1329" /></marker><mask
     maskUnits="userSpaceOnUse"
     id="mask1189"><rect
       style="fill:#ffffff;stroke:#000000;stroke-width:1;stroke-miterlimit:22.9256;stroke-dasharray:none;stroke-dashoffset:0"
       id="rect1191"
       width="24"
       height="20"
       x="4"
       y="6" /></mask><mask
     maskUnits="userSpaceOnUse"
     id="mask1189-1"><rect
       style="fill:#ffffff;stroke:#000000;stroke-width:1;stroke-miterlimit:22.9256;stroke-dasharray:none;stroke-dashoffset:0"
       id="rect1191-1"
       width="24"
       height="20"
       x="4"
       y="6" /></mask><mask
     maskUnits="userSpaceOnUse"
     id="mask1189-4"><rect
       style="fill:#ffffff;stroke:#000000;stroke-width:1;stroke-miterlimit:22.9256;stroke-dasharray:none;stroke-dashoffset:0"
       id="rect1191-4"
       width="24"
       height="20"
       x="4"
       y="6" /></mask><mask
     maskUnits="userSpaceOnUse"
     id="mask1189-1-2"><rect
       style="fill:#ffffff;stroke:#000000;stroke-width:1;stroke-miterlimit:22.9256;stroke-dasharray:none;stroke-dashoffset:0"
       id="rect1191-1-8"
       width="24"
       height="20"
       x="4"
       y="6" /></mask><mask
     maskUnits="userSpaceOnUse"
     id="mask1189-43"><rect
       style="fill:#ffffff;stroke:#000000;stroke-width:1;stroke-miterlimit:22.9256;stroke-dasharray:none;stroke-dashoffset:0"
       id="rect1191-5"
       width="24"
       height="20"
       x="4"
       y="6" /></mask><mask
     maskUnits="userSpaceOnUse"
     id="mask1189-1-8"><rect
       style="fill:#ffffff;stroke:#000000;stroke-width:1;stroke-miterlimit:22.9256;stroke-dasharray:none;stroke-dashoffset:0"
       id="rect1191-1-6"
       width="24"
       height="20"
       x="4"
       y="6" /></mask><mask
     maskUnits="userSpaceOnUse"
     id="mask1189-4-3"><rect
       style="fill:#ffffff;stroke:#000000;stroke-width:1;stroke-miterlimit:22.9256;stroke-dasharray:none;stroke-dashoffset:0"
       id="rect1191-4-0"
       width="24"
       height="20"
       x="4"
       y="6" /></mask><mask
     maskUnits="userSpaceOnUse"
     id="mask1189-1-2-6"><rect
       style="fill:#ffffff;stroke:#000000;stroke-width:1;stroke-miterlimit:22.9256;stroke-dasharray:none;stroke-dashoffset:0"
       id="rect1191-1-8-9"
       width="24"
       height="20"
       x="4"
       y="6" /></mask></defs><sodipodi:namedview
   pagecolor="#ffffff"
   bordercolor="#666666"
   borderopacity="1"
   objecttolerance="10"
   gridtolerance="10"
   guidetolerance="10"
   inkscape:pageopacity="0"
   inkscape:pageshadow="2"
   inkscape:window-width="2560"
   inkscape:window-height="1017"
   id="namedview16"
   showgrid="false"
   inkscape:zoom="9.3912619"
   inkscape:cx="31.838107"
   inkscape:cy="27.206141"
   inkscape:window-x="-8"
   inkscape:window-y="-8"
   inkscape:window-maximized="1"
   inkscape:current-layer="Layer_1"
   inkscape:document-rotation="0"
   inkscape:pagecheckerboard="0" />
<style
   type="text/css"
   id="style2">
	.Yellow{fill:#FFB115;}
	.Red{fill:#D11C1C;}
	.Black{fill:#727272;}
	.Blue{fill:#1177D7;}
	.White{fill:#FFFFFF;}
	.Green{fill:#039C23;}
	.st0{opacity:0.75;}
	.st1{opacity:0.5;}
	.st2{opacity:0.25;}
	.st3{fill:#FFB115;}
</style>

<rect
   style="fill:#cccccc;stroke:none;stroke-width:1.5;stroke-miterlimit:22.9256;stroke-dasharray:3, 1.5;fill-opacity:1"
   id="rect850"
   width="24"
   height="20"
   x="4"
   y="6" /><path
   id="path8329"
   style="fill:#000000;fill-opacity:1"
   d="M 16.079187,8.3046792 A 9.6898584,7.6134605 0 0 0 6.3897346,15.919914 9.6898584,7.6134605 0 0 0 16.079187,23.533195 9.6898584,7.6134605 0 0 0 25.76864,15.919914 9.6898584,7.6134605 0 0 0 16.079187,8.3046792 Z m 0.904297,3.8945318 c -0.07499,0.810245 -0.282271,0.789415 -0.28125,1.039062 0.0012,0.245476 0.04991,0.293838 0.691406,1.015625 0.412335,-0.183463 1.033068,-0.527586 1.867188,-0.951172 1.589405,0.0218 2.83957,-0.1203 4.681641,0.789063 -0.534689,0.446306 -1.159062,0.102997 -1.613282,1.070312 -0.948998,0.13908 -1.578657,0.361216 -2.201171,1.353516 -1.466686,-0.251746 -2.326182,0.317986 -2.851563,1.332031 -0.534837,1.032292 -1.218563,1.087003 -1.255859,1.482422 -0.03666,0.388805 -0.21992,0.436912 -0.244141,-0.002 -0.02421,-0.438698 -0.928464,-0.615668 -1.275391,-1.466797 C 14.160114,17.024805 12.810324,16.277125 11.262781,16.48432 10.692698,15.491904 10.345125,15.179524 9.41122,15.132758 9.099334,14.463971 8.605216,14.434744 8.215907,14.175726 c 0.321573,-0.347877 2.444156,-0.982725 4.152343,-0.789062 0.819579,0.460241 1.596924,0.742644 2.052734,0.814453 0.633532,-0.594645 0.710459,-0.719912 0.751953,-0.990234 0.0348,-0.226835 -0.132929,-0.05631 -0.267578,-0.945313 0.450301,-0.01986 0.959812,0.657106 2.078125,-0.06641 z" /><g
   id="Images">
	<path
   class="Black"
   d="M29,4H3C2.5,4,2,4.5,2,5v22c0,0.5,0.5,1,1,1h26c0.5,0,1-0.5,1-1V5C30,4.5,29.5,4,29,4z M28,26H4V6h24V26z"
   id="path4" />
	
	
	<g
   class="st1"
   id="g12">
		
	</g>
</g><style
   type="text/css"
   id="style834">
	.Green{fill:#039C23;}
	.Black{fill:#727272;}
	.Red{fill:#D11C1C;}
	.Yellow{fill:#FFB115;}
	.Blue{fill:#1177D7;}
	.White{fill:#FFFFFF;}
	.st0{opacity:0.5;}
	.st1{opacity:0.75;}
</style><style
   type="text/css"
   id="style2-2">
	.Blue{fill:#1177D7;}
	.Yellow{fill:#FFB115;}
	.Red{fill:#D11C1C;}
</style><style
   type="text/css"
   id="style923">
	.Black{fill:#727272;}
	.Green{fill:#039C23;}
	.Yellow{fill:#FFB115;}
	.st0{opacity:0.5;}
</style><style
   type="text/css"
   id="style2-10">
	.Yellow{fill:#FFB115;}
	.Red{fill:#D11C1C;}
	.Black{fill:#727272;}
	.Blue{fill:#1177D7;}
	.White{fill:#FFFFFF;}
	.Green{fill:#039C23;}
	.st0{opacity:0.75;}
	.st1{opacity:0.5;}
	.st2{opacity:0.25;}
	.st3{fill:#FFB115;}
</style><style
   type="text/css"
   id="style2-1">
	.Yellow{fill:#FFB115;}
	.Red{fill:#D11C1C;}
	.Black{fill:#727272;}
	.Blue{fill:#1177D7;}
	.White{fill:#FFFFFF;}
	.Green{fill:#039C23;}
	.st0{opacity:0.75;}
	.st1{opacity:0.5;}
	.st2{opacity:0.25;}
	.st3{fill:#FFB115;}
</style><style
   type="text/css"
   id="style2-2-3">
	.Yellow{fill:#FFB115;}
	.Red{fill:#D11C1C;}
	.Black{fill:#727272;}
	.Blue{fill:#1177D7;}
	.White{fill:#FFFFFF;}
	.Green{fill:#039C23;}
	.st0{opacity:0.75;}
	.st1{opacity:0.5;}
	.st2{opacity:0.25;}
	.st3{fill:#FFB115;}
</style><style
   type="text/css"
   id="style2-1-7">
	.Yellow{fill:#FFB115;}
	.Red{fill:#D11C1C;}
	.Black{fill:#727272;}
	.Blue{fill:#1177D7;}
	.White{fill:#FFFFFF;}
	.Green{fill:#039C23;}
	.st0{opacity:0.75;}
	.st1{opacity:0.5;}
	.st2{opacity:0.25;}
	.st3{fill:#FFB115;}
</style><style
   type="text/css"
   id="style85">
	.Black{fill:#737374;}
	.Yellow{fill:#FCB01B;}
	.Green{fill:#129C49;}
	.Blue{fill:#387CB7;}
	.Red{fill:#D02127;}
	.White{fill:#FFFFFF;}
	.st0{opacity:0.5;}
	.st1{opacity:0.75;}
	.st2{opacity:0.25;}
	.st3{display:none;fill:#737374;}
</style><style
   type="text/css"
   id="style106">
	.Yellow{fill:#FFB115;}
	.Red{fill:#D11C1C;}
	.Blue{fill:#1177D7;}
	.Green{fill:#039C23;}
	.Black{fill:#727272;}
	.White{fill:#FFFFFF;}
	.st0{opacity:0.5;}
	.st1{display:none;}
	.st2{display:inline;fill:#039C23;}
	.st3{display:inline;fill:#D11C1C;}
	.st4{display:inline;fill:#727272;}
</style><style
   type="text/css"
   id="style2-8">
	.Yellow{fill:#FFB115;}
	.Red{fill:#D11C1C;}
	.Black{fill:#727272;}
	.Blue{fill:#1177D7;}
	.White{fill:#FFFFFF;}
	.Green{fill:#039C23;}
	.st0{opacity:0.75;}
	.st1{opacity:0.5;}
	.st2{opacity:0.25;}
	.st3{fill:#FFB115;}
</style><style
   type="text/css"
   id="style2-1-5">
	.Yellow{fill:#FFB115;}
	.Red{fill:#D11C1C;}
	.Black{fill:#727272;}
	.Blue{fill:#1177D7;}
	.White{fill:#FFFFFF;}
	.Green{fill:#039C23;}
	.st0{opacity:0.75;}
	.st1{opacity:0.5;}
	.st2{opacity:0.25;}
	.st3{fill:#FFB115;}
</style><style
   type="text/css"
   id="style2-2-9">
	.Yellow{fill:#FFB115;}
	.Red{fill:#D11C1C;}
	.Black{fill:#727272;}
	.Blue{fill:#1177D7;}
	.White{fill:#FFFFFF;}
	.Green{fill:#039C23;}
	.st0{opacity:0.75;}
	.st1{opacity:0.5;}
	.st2{opacity:0.25;}
	.st3{fill:#FFB115;}
</style><style
   type="text/css"
   id="style2-1-7-8">
	.Yellow{fill:#FFB115;}
	.Red{fill:#D11C1C;}
	.Black{fill:#727272;}
	.Blue{fill:#1177D7;}
	.White{fill:#FFFFFF;}
	.Green{fill:#039C23;}
	.st0{opacity:0.75;}
	.st1{opacity:0.5;}
	.st2{opacity:0.25;}
	.st3{fill:#FFB115;}
</style><style
   type="text/css"
   id="style85-5">
	.Black{fill:#737374;}
	.Yellow{fill:#FCB01B;}
	.Green{fill:#129C49;}
	.Blue{fill:#387CB7;}
	.Red{fill:#D02127;}
	.White{fill:#FFFFFF;}
	.st0{opacity:0.5;}
	.st1{opacity:0.75;}
	.st2{opacity:0.25;}
	.st3{display:none;fill:#737374;}
</style><style
   type="text/css"
   id="style106-9">
	.Yellow{fill:#FFB115;}
	.Red{fill:#D11C1C;}
	.Blue{fill:#1177D7;}
	.Green{fill:#039C23;}
	.Black{fill:#727272;}
	.White{fill:#FFFFFF;}
	.st0{opacity:0.5;}
	.st1{display:none;}
	.st2{display:inline;fill:#039C23;}
	.st3{display:inline;fill:#D11C1C;}
	.st4{display:inline;fill:#727272;}
</style></svg>
