<?xml version="1.0" encoding="UTF-8" standalone="no"?>
<svg
   version="1.1"
   id="Layer_1"
   x="0px"
   y="0px"
   viewBox="0 0 32 32"
   style="enable-background:new 0 0 32 32;"
   xml:space="preserve"
   sodipodi:docname="item_chunk3d.svg"
   inkscape:version="1.3 (0e150ed6c4, 2023-07-21)"
   xmlns:inkscape="http://www.inkscape.org/namespaces/inkscape"
   xmlns:sodipodi="http://sodipodi.sourceforge.net/DTD/sodipodi-0.dtd"
   xmlns="http://www.w3.org/2000/svg"
   xmlns:svg="http://www.w3.org/2000/svg"
   xmlns:rdf="http://www.w3.org/1999/02/22-rdf-syntax-ns#"
   xmlns:cc="http://creativecommons.org/ns#"
   xmlns:dc="http://purl.org/dc/elements/1.1/"><metadata
   id="metadata20"><rdf:RDF><cc:Work
       rdf:about=""><dc:format>image/svg+xml</dc:format><dc:type
         rdf:resource="http://purl.org/dc/dcmitype/StillImage" /></cc:Work></rdf:RDF></metadata><defs
   id="defs18" /><sodipodi:namedview
   pagecolor="#ffffff"
   bordercolor="#666666"
   borderopacity="1"
   objecttolerance="10"
   gridtolerance="10"
   guidetolerance="10"
   inkscape:pageopacity="0"
   inkscape:pageshadow="2"
   inkscape:window-width="1388"
   inkscape:window-height="1040"
   id="namedview16"
   showgrid="false"
   inkscape:zoom="18.782524"
   inkscape:cx="15.466505"
   inkscape:cy="17.942211"
   inkscape:window-x="156"
   inkscape:window-y="0"
   inkscape:window-maximized="0"
   inkscape:current-layer="Layer_1"
   inkscape:document-rotation="0"
   inkscape:showpageshadow="0"
   inkscape:pagecheckerboard="0"
   inkscape:deskcolor="#d1d1d1" />&#10;<style
   type="text/css"
   id="style2">&#10;	.Yellow{fill:#FFB115;}&#10;	.Red{fill:#D11C1C;}&#10;	.Black{fill:#727272;}&#10;	.Blue{fill:#1177D7;}&#10;	.White{fill:#FFFFFF;}&#10;	.Green{fill:#039C23;}&#10;	.st0{opacity:0.75;}&#10;	.st1{opacity:0.5;}&#10;	.st2{opacity:0.25;}&#10;	.st3{fill:#FFB115;}&#10;</style>&#10;&#10;<rect
   style="fill:#ffffff;stroke:none;stroke-width:1.5;stroke-miterlimit:22.9256;stroke-dasharray:3, 1.5"
   id="rect850"
   width="24"
   height="20"
   x="4"
   y="6" /><g
   id="Images">&#10;	<path
   class="Black"
   d="M29,4H3C2.5,4,2,4.5,2,5v22c0,0.5,0.5,1,1,1h26c0.5,0,1-0.5,1-1V5C30,4.5,29.5,4,29,4z M28,26H4V6h24V26z"
   id="path4" />&#10;	&#10;	&#10;	<g
   class="st1"
   id="g12">&#10;		&#10;	</g>&#10;</g><g
   class="st0"
   id="g2"
   style="opacity:0.75"
   transform="rotate(-90,12.537063,9.4190022)">&#10;	<path
   class="Green"
   d="M 8,14 H 2 V 6 h 6 z"
   id="path1"
   sodipodi:nodetypes="ccccc" />&#10;</g><g
   class="st0"
   id="g3"
   style="opacity:0.75"
   transform="rotate(-90,12.537063,9.4190022)">&#10;	<path
   class="Red"
   d="M 8,22 H 2 v -8 h 6 z"
   id="path2"
   sodipodi:nodetypes="ccccc" />&#10;</g><g
   class="st1"
   id="g5"
   style="opacity:0.5"
   transform="rotate(-90,12.537063,9.4190022)">&#10;	<path
   class="Green"
   d="M 10,4 V 6 H 2 L 4,4 Z"
   id="path4-1"
   sodipodi:nodetypes="ccccc" />&#10;</g><path
   class="Red"
   d="m 23.11806,11.956063 2.000001,2 H 15.11806 v -2 z"
   id="path6" /><path
   class="Green"
   d="m 15.11806,11.956063 2,2 H 9.1180596 l -2,-2 z"
   id="path7"
   sodipodi:nodetypes="ccccc" /></svg>
