<?xml version="1.0" encoding="UTF-8" standalone="no"?>
<svg
   xmlns:dc="http://purl.org/dc/elements/1.1/"
   xmlns:cc="http://creativecommons.org/ns#"
   xmlns:rdf="http://www.w3.org/1999/02/22-rdf-syntax-ns#"
   xmlns:svg="http://www.w3.org/2000/svg"
   xmlns="http://www.w3.org/2000/svg"
   xmlns:sodipodi="http://sodipodi.sourceforge.net/DTD/sodipodi-0.dtd"
   xmlns:inkscape="http://www.inkscape.org/namespaces/inkscape"
   version="1.1"
   id="Layer_1"
   x="0px"
   y="0px"
   viewBox="0 0 32 32"
   style="enable-background:new 0 0 32 32;"
   xml:space="preserve"
   sodipodi:docname="item_concretion.svg"
   inkscape:version="1.0.2 (e86c870879, 2021-01-15, custom)"><rect
   style="fill:#ffffff;stroke:none;stroke-width:1.5;stroke-miterlimit:22.9256;stroke-dasharray:3, 1.5"
   id="rect850"
   width="24"
   height="20"
   x="4"
   y="6" /><path
   id="path318"
   class="fil5 str2"
   d="m 18.414442,26.680034 -0.92027,-0.609849 c 2.782254,-0.428029 3.474414,-6.3653 3.999358,-8.570053 1.862602,-7.8231707 3.06887,1.758642 3.808913,3.808912 0.438391,1.214396 0.740449,2.545483 1.237896,3.71369 0.354275,0.83215 0.178263,1.262999 0.543036,2.011913 z"
   style="clip-rule:evenodd;fill:#666666;fill-rule:evenodd;stroke:#000000;stroke-width:1.5;stroke-miterlimit:4;stroke-dasharray:none;image-rendering:optimizeQuality;shape-rendering:geometricPrecision;text-rendering:geometricPrecision"
   sodipodi:nodetypes="ccccccc" /><path
   class="fil7 str2"
   d="m 11.75162,4.9447377 10.868811,0.095223 c -2.055991,1.7409336 -2.403494,2.0875006 -3.79838,3.3308826 -1.827421,3.2174677 -0.312875,8.8702407 0.02047,12.0309467 0.119266,1.130077 0.748237,3.969355 1.690713,5.046809 1.008915,1.15351 3.329101,1.323014 1.314712,1.365992 l -8.622079,0.183959 c -3.074763,-0.420037 -2.316842,0.03078 -0.783863,-1.359505 3.277601,-2.972361 4.43898,-18.1457767 -0.690387,-20.6943073 z"
   id="path322"
   style="clip-rule:evenodd;fill:#cccccc;fill-opacity:1;fill-rule:evenodd;stroke:#000000;stroke-width:1.5;image-rendering:optimizeQuality;shape-rendering:geometricPrecision;text-rendering:geometricPrecision;stroke-miterlimit:4;stroke-dasharray:none"
   sodipodi:nodetypes="cccccsccc" /><path
   class="fil6 str2"
   d="M 4.5401258,5.1410011 C 8.4318,6.8435663 8.809088,13.014366 8.809088,17.038105 c 0,1.927348 0.141615,5.358755 -0.38956,7.058679 -1.2871002,2.185137 -2.2162782,1.912928 -3.9719102,2.824508 l 10.1855712,0.03218 C 11.252687,24.808455 11.740474,18.986516 11.57055,16.942882 11.30635,13.765854 10.938204,5.9530845 14.575228,5.0438624 Z"
   id="path320"
   style="clip-rule:evenodd;fill:#e6e6e6;fill-opacity:1;fill-rule:evenodd;stroke:#000000;stroke-width:1.5;stroke-miterlimit:4;stroke-dasharray:none;image-rendering:optimizeQuality;shape-rendering:geometricPrecision;text-rendering:geometricPrecision"
   sodipodi:nodetypes="cscccccc" /><g
   id="g1411"
   transform="matrix(0.1791917,0,0,0.1791917,22.15959,4.3571881)"
   mask="none"><path
     class="fil0"
     d="m 124.14319,-32.757436 h 97.66608 c 6.31975,0 11.49014,5.170397 11.49014,11.49015 v 97.666078 c 0,6.319752 -5.17039,11.49015 -11.49014,11.49015 h -97.66608 c -6.31975,0 -11.49015,-5.170398 -11.49015,-11.49015 v -97.666078 c 0,-6.319753 5.1704,-11.49015 11.49015,-11.49015 z"
     id="path316"
     style="clip-rule:evenodd;fill:#fefefe;fill-rule:evenodd;stroke-width:0.00377953;image-rendering:optimizeQuality;shape-rendering:geometricPrecision;text-rendering:geometricPrecision" /><g
     clip-path="url(#id7-4)"
     id="g326"
     style="clip-rule:evenodd;fill-rule:evenodd;image-rendering:optimizeQuality;shape-rendering:geometricPrecision;text-rendering:geometricPrecision"
     transform="matrix(0.00377953,0,0,0.00377953,-369.0337,-32.907105)"><g
       id="g324" /></g></g><metadata
   id="metadata20"><rdf:RDF><cc:Work
       rdf:about=""><dc:format>image/svg+xml</dc:format><dc:type
         rdf:resource="http://purl.org/dc/dcmitype/StillImage" /><dc:title /></cc:Work></rdf:RDF></metadata><defs
   id="defs18"><mask
     maskUnits="userSpaceOnUse"
     id="mask1189"><rect
       style="fill:#ffffff;stroke:#000000;stroke-width:1;stroke-miterlimit:22.9256;stroke-dasharray:none;stroke-dashoffset:0"
       id="rect1191"
       width="24"
       height="20"
       x="4"
       y="6" /></mask><mask
     maskUnits="userSpaceOnUse"
     id="mask1189-1"><rect
       style="fill:#ffffff;stroke:#000000;stroke-width:1;stroke-miterlimit:22.9256;stroke-dasharray:none;stroke-dashoffset:0"
       id="rect1191-1"
       width="24"
       height="20"
       x="4"
       y="6" /></mask><clipPath
     id="id7"><path
       d="m 130486.3,39.6 h 25840.8 c 1672.1,0 3040.1,1368 3040.1,3040.1 v 25840.8 c 0,1672.1 -1368,3040.1 -3040.1,3040.1 h -25840.8 c -1672.1,0 -3040.1,-1368 -3040.1,-3040.1 V 3079.7 c 0,-1672.1 1368,-3040.1 3040.1,-3040.1 z"
       id="path49" /></clipPath><clipPath
     id="id7-4"><path
       d="m 130486.3,39.6 h 25840.8 c 1672.1,0 3040.1,1368 3040.1,3040.1 v 25840.8 c 0,1672.1 -1368,3040.1 -3040.1,3040.1 h -25840.8 c -1672.1,0 -3040.1,-1368 -3040.1,-3040.1 V 3079.7 c 0,-1672.1 1368,-3040.1 3040.1,-3040.1 z"
       id="path49-0" /></clipPath></defs><sodipodi:namedview
   pagecolor="#ffffff"
   bordercolor="#666666"
   borderopacity="1"
   objecttolerance="10"
   gridtolerance="10"
   guidetolerance="10"
   inkscape:pageopacity="0"
   inkscape:pageshadow="2"
   inkscape:window-width="2560"
   inkscape:window-height="1017"
   id="namedview16"
   showgrid="false"
   inkscape:zoom="8.9012761"
   inkscape:cx="41.340117"
   inkscape:cy="8.9326254"
   inkscape:window-x="-8"
   inkscape:window-y="-8"
   inkscape:window-maximized="1"
   inkscape:current-layer="Layer_1"
   inkscape:document-rotation="0" />
<style
   type="text/css"
   id="style2">
	.Yellow{fill:#FFB115;}
	.Red{fill:#D11C1C;}
	.Black{fill:#727272;}
	.Blue{fill:#1177D7;}
	.White{fill:#FFFFFF;}
	.Green{fill:#039C23;}
	.st0{opacity:0.75;}
	.st1{opacity:0.5;}
	.st2{opacity:0.25;}
	.st3{fill:#FFB115;}
</style>

<g
   id="Images">
	<path
   class="Black"
   d="M 29,4 H 3 C 2.5,4 2,4.5 2,5 v 22 c 0,0.5 0.5,1 1,1 h 26 c 0.5,0 1,-0.5 1,-1 V 5 C 30,4.5 29.5,4 29,4 Z M 28,26 H 4 V 6 h 24 z"
   id="path4" />
	
	
	<g
   class="st1"
   id="g12">
		
	</g>
</g><g
   id="g372"
   style="clip-rule:evenodd;fill:#000000;fill-rule:evenodd;stroke:#000000;image-rendering:optimizeQuality;shape-rendering:geometricPrecision;text-rendering:geometricPrecision"
   transform="matrix(7.3574504e-4,0,0,7.3574504e-4,-128.61364,-108.45355)" /><style
   type="text/css"
   id="style2-1">
	.Yellow{fill:#FFB115;}
	.Red{fill:#D11C1C;}
	.Black{fill:#727272;}
	.Blue{fill:#1177D7;}
	.White{fill:#FFFFFF;}
	.Green{fill:#039C23;}
	.st0{opacity:0.75;}
	.st1{opacity:0.5;}
	.st2{opacity:0.25;}
	.st3{fill:#FFB115;}
</style></svg>
