<?xml version="1.0" encoding="UTF-8" standalone="no"?>
<svg
   xmlns:dc="http://purl.org/dc/elements/1.1/"
   xmlns:cc="http://creativecommons.org/ns#"
   xmlns:rdf="http://www.w3.org/1999/02/22-rdf-syntax-ns#"
   xmlns:svg="http://www.w3.org/2000/svg"
   xmlns="http://www.w3.org/2000/svg"
   xmlns:sodipodi="http://sodipodi.sourceforge.net/DTD/sodipodi-0.dtd"
   xmlns:inkscape="http://www.inkscape.org/namespaces/inkscape"
   version="1.1"
   id="Layer_1"
   x="0px"
   y="0px"
   viewBox="0 0 32 32"
   style="enable-background:new 0 0 32 32;"
   xml:space="preserve"
   sodipodi:docname="item_sketch.svg"
   inkscape:version="1.0.2 (e86c870879, 2021-01-15, custom)"><metadata
   id="metadata20"><rdf:RDF><cc:Work
       rdf:about=""><dc:format>image/svg+xml</dc:format><dc:type
         rdf:resource="http://purl.org/dc/dcmitype/StillImage" /><dc:title /></cc:Work></rdf:RDF></metadata><defs
   id="defs18"><marker
     style="overflow:visible"
     id="marker1341"
     refX="0.0"
     refY="0.0"
     orient="auto"
     inkscape:stockid="DotL"
     inkscape:isstock="true"><path
       transform="scale(0.8) translate(7.4, 1)"
       style="fill-rule:evenodd;stroke:#808080;stroke-width:1pt;stroke-opacity:1;fill:#808080;fill-opacity:1"
       d="M -2.5,-1.0 C -2.5,1.7600000 -4.7400000,4.0 -7.5,4.0 C -10.260000,4.0 -12.5,1.7600000 -12.5,-1.0 C -12.5,-3.7600000 -10.260000,-6.0 -7.5,-6.0 C -4.7400000,-6.0 -2.5,-3.7600000 -2.5,-1.0 z "
       id="path1339" /></marker><marker
     style="overflow:visible"
     id="marker1331"
     refX="0.0"
     refY="0.0"
     orient="auto"
     inkscape:stockid="DotL"
     inkscape:isstock="true"><path
       transform="scale(0.8) translate(7.4, 1)"
       style="fill-rule:evenodd;stroke:#808080;stroke-width:1pt;stroke-opacity:1;fill:#808080;fill-opacity:1"
       d="M -2.5,-1.0 C -2.5,1.7600000 -4.7400000,4.0 -7.5,4.0 C -10.260000,4.0 -12.5,1.7600000 -12.5,-1.0 C -12.5,-3.7600000 -10.260000,-6.0 -7.5,-6.0 C -4.7400000,-6.0 -2.5,-3.7600000 -2.5,-1.0 z "
       id="path1329" /></marker></defs><sodipodi:namedview
   pagecolor="#ffffff"
   bordercolor="#666666"
   borderopacity="1"
   objecttolerance="10"
   gridtolerance="10"
   guidetolerance="10"
   inkscape:pageopacity="0"
   inkscape:pageshadow="2"
   inkscape:window-width="2560"
   inkscape:window-height="1017"
   id="namedview16"
   showgrid="false"
   inkscape:zoom="9.1429872"
   inkscape:cx="34.600084"
   inkscape:cy="19.821801"
   inkscape:window-x="-8"
   inkscape:window-y="-8"
   inkscape:window-maximized="1"
   inkscape:current-layer="Layer_1"
   inkscape:document-rotation="0" />
<style
   type="text/css"
   id="style2">
	.Yellow{fill:#FFB115;}
	.Red{fill:#D11C1C;}
	.Black{fill:#727272;}
	.Blue{fill:#1177D7;}
	.White{fill:#FFFFFF;}
	.Green{fill:#039C23;}
	.st0{opacity:0.75;}
	.st1{opacity:0.5;}
	.st2{opacity:0.25;}
	.st3{fill:#FFB115;}
</style>

<rect
   style="fill:#ffffff;stroke:none;stroke-width:1.5;stroke-miterlimit:22.9256;stroke-dasharray:3, 1.5"
   id="rect850"
   width="24"
   height="20"
   x="4"
   y="6" /><g
   id="Images">
	<path
   class="Black"
   d="M29,4H3C2.5,4,2,4.5,2,5v22c0,0.5,0.5,1,1,1h26c0.5,0,1-0.5,1-1V5C30,4.5,29.5,4,29,4z M28,26H4V6h24V26z"
   id="path4" />
	
	
	<g
   class="st1"
   id="g12">
		
	</g>
</g><style
   type="text/css"
   id="style834">
	.Green{fill:#039C23;}
	.Black{fill:#727272;}
	.Red{fill:#D11C1C;}
	.Yellow{fill:#FFB115;}
	.Blue{fill:#1177D7;}
	.White{fill:#FFFFFF;}
	.st0{opacity:0.5;}
	.st1{opacity:0.75;}
</style><style
   type="text/css"
   id="style2-2">
	.Blue{fill:#1177D7;}
	.Yellow{fill:#FFB115;}
	.Red{fill:#D11C1C;}
</style><path
   class="Black"
   d="m 21.920499,20.33538 c -0.630222,-0.381971 -1.378224,-0.332651 -1.927295,-0.01914 l -4.029587,-3.304018 c 0.308765,-0.746403 0.02868,-1.706078 -0.759095,-2.183542 -0.682741,-0.413802 -1.515093,-0.343794 -2.107138,0.159105 L 9.7361964,12.950606 c 0.171897,-0.757547 -0.15116,-1.527835 -0.833901,-1.941637 -0.8928158,-0.541126 -1.9893588,-0.272187 -2.5304845,0.620628 -0.5411256,0.892816 -0.2721866,1.989359 0.6206293,2.530485 0.682741,0.413802 1.5150924,0.343794 2.1071372,-0.159105 l 3.3611876,2.037179 c -0.171897,0.757546 0.15116,1.527835 0.833902,1.941637 0.577703,0.35014 1.293875,0.353338 1.874775,-0.01269 l 4.029588,3.30402 c -0.288078,0.830752 0.07635,1.769739 0.811614,2.215372 0.892816,0.541126 1.989359,0.272187 2.530484,-0.620629 0.509295,-0.840296 0.272187,-1.989358 -0.620629,-2.530483 z M 7.6290584,13.109711 C 7.3139466,12.918725 7.2311963,12.581327 7.4221818,12.266216 7.6131673,11.951105 7.9505652,11.868354 8.265677,12.05934 c 0.3151107,0.190985 0.3978617,0.528383 0.2068762,0.843494 -0.1909855,0.315112 -0.5283841,0.397862 -0.8434948,0.206877 z m 6.3022266,3.819711 c -0.315112,-0.190985 -0.397862,-0.528384 -0.206877,-0.843495 0.190986,-0.315111 0.528384,-0.397862 0.843495,-0.206876 0.315111,0.190985 0.397862,0.528383 0.206876,0.843494 -0.190985,0.315112 -0.528383,0.397863 -0.843494,0.206877 z m 6.715978,5.5067 c -0.315112,-0.190986 -0.397862,-0.528384 -0.206877,-0.843496 0.190985,-0.31511 0.528383,-0.397861 0.843495,-0.206875 0.315111,0.190985 0.397861,0.528383 0.206876,0.843494 -0.190986,0.315111 -0.528384,0.397862 -0.843494,0.206877 z"
   id="path8"
   style="fill:#d11c1c;fill-opacity:1;stroke-width:0.614118" /><style
   type="text/css"
   id="style923">
	.Black{fill:#727272;}
	.Green{fill:#039C23;}
	.Yellow{fill:#FFB115;}
	.st0{opacity:0.5;}
</style><path
   id="polygon931"
   style="fill:#4d4d4d"
   d="M 6.1129413,24.145882 H 16.112941 L 9.4682354,18.781176 6.1129413,16.263529 Z"
   class="Green"
   sodipodi:nodetypes="ccccc" /><g
   class="st0"
   id="g935"
   transform="translate(-0.03764695,2.2211763)"
   style="fill:#808080">
	<path
   id="polygon933"
   transform="translate(-2.1082353,-10.465882)"
   style="fill:#808080"
   d="M 28.315294,28.776471 14,18 16,16 28.324706,15.97647 Z"
   class="Green"
   sodipodi:nodetypes="ccccc" />
</g><style
   type="text/css"
   id="style857">
	.Red{fill:#D11C1C;}
</style></svg>
