<?xml version="1.0" encoding="UTF-8" standalone="no"?>
<!-- Created with Inkscape (http://www.inkscape.org/) -->

<svg
   xmlns:dc="http://purl.org/dc/elements/1.1/"
   xmlns:cc="http://creativecommons.org/ns#"
   xmlns:rdf="http://www.w3.org/1999/02/22-rdf-syntax-ns#"
   xmlns:svg="http://www.w3.org/2000/svg"
   xmlns="http://www.w3.org/2000/svg"
   xmlns:sodipodi="http://sodipodi.sourceforge.net/DTD/sodipodi-0.dtd"
   xmlns:inkscape="http://www.inkscape.org/namespaces/inkscape"
   width="215.24001"
   height="217.44658"
   id="svg19454"
   version="1.1"
   inkscape:version="0.92.2 (5c3e80d, 2017-08-06)"
   sodipodi:docname="compass1.svg">
  <defs
     id="defs19456" />
  <sodipodi:namedview
     id="base"
     pagecolor="#ffffff"
     bordercolor="#666666"
     borderopacity="1.0"
     inkscape:pageopacity="0.0"
     inkscape:pageshadow="2"
     inkscape:zoom="1.979899"
     inkscape:cx="52.121193"
     inkscape:cy="143.20915"
     inkscape:document-units="px"
     inkscape:current-layer="layer1"
     showgrid="false"
     inkscape:window-width="2560"
     inkscape:window-height="1017"
     inkscape:window-x="-8"
     inkscape:window-y="-8"
     inkscape:window-maximized="1"
     fit-margin-top="0"
     fit-margin-left="0"
     fit-margin-right="0"
     fit-margin-bottom="0" />
  <metadata
     id="metadata19459">
    <rdf:RDF>
      <cc:Work
         rdf:about="">
        <dc:format>image/svg+xml</dc:format>
        <dc:type
           rdf:resource="http://purl.org/dc/dcmitype/StillImage" />
        <dc:title></dc:title>
      </cc:Work>
    </rdf:RDF>
  </metadata>
  <g
     inkscape:label="Livello 1"
     inkscape:groupmode="layer"
     id="layer1"
     transform="translate(-272.865,-436.5856)">
    <path
       inkscape:connector-curvature="0"
       d="m 272.915,546.42218 0.02,-2.07 0.06,-2.08 0.1,-2.07 0.14,-2.07 0.18,-2.06 0.22,-2.06 0.26,-2.06 0.3,-2.05 0.33,-2.05 0.38,-2.04 0.42,-2.03 0.45,-2.02 0.5,-2.01 0.53,-2.01 0.57,-1.99 0.61,-1.98 0.65,-1.97 0.69,-1.95 0.72,-1.95 0.76,-1.93 0.8,-1.91 0.84,-1.9 0.87,-1.88 0.9,-1.86 0.95,-1.85 0.98,-1.83 1.01,-1.81 1.05,-1.78 1.08,-1.77 1.12,-1.75 1.15,-1.72 1.18,-1.71 1.21,-1.68 1.25,-1.65 1.28,-1.63 1.31,-1.61 1.34,-1.58 1.37,-1.56 1.4,-1.52 1.43,-1.51 1.46,-1.47 1.49,-1.44 1.52,-1.42 1.54,-1.39 1.56,-1.35 1.6,-1.33 1.62,-1.29 1.64,-1.27 1.67,-1.23 1.69,-1.2 1.71,-1.16 1.74,-1.14 1.76,-1.09 1.78,-1.07 1.8,-1.03 1.81,-1 1.84,-0.96 1.86,-0.92 1.87,-0.89 1.89,-0.85 1.9,-0.82 1.93,-0.78 1.93,-0.74 1.95,-0.71 1.96,-0.67 1.98,-0.62 1.99,-0.6 1.99,-0.55 2.01,-0.51 2.02,-0.48 2.03,-0.43 2.03,-0.4 2.04,-0.36 2.05,-0.32 2.06,-0.28 2.06,-0.24 2.06,-0.19 2.07,-0.16 2.07,-0.12 2.07,-0.08 2.07,-0.04 h 2.07 l 2.08,0.04 2.07,0.08 2.07,0.12 2.07,0.16 2.06,0.19 2.06,0.24 2.05,0.28 2.05,0.32 2.04,0.36 2.04,0.4 2.03,0.43 2.01,0.48 2.01,0.51 2,0.55 1.99,0.6 1.97,0.62 1.97,0.67 1.94,0.71 1.94,0.74 1.92,0.78 1.91,0.82 1.89,0.85 1.87,0.89 1.85,0.92 1.84,0.96 1.82,1 1.8,1.03 1.78,1.07 1.76,1.09 1.73,1.14 1.72,1.16 1.69,1.2 1.66,1.23 1.65,1.27 1.62,1.29 1.59,1.33 1.57,1.35 1.54,1.39 1.52,1.42 1.48,1.44 1.46,1.47 1.43,1.51 1.4,1.52 1.37,1.56 1.34,1.58 1.32,1.61 1.27,1.63 1.25,1.65 1.22,1.68 1.18,1.71 1.15,1.72 1.12,1.75 1.08,1.77 1.05,1.78 1.01,1.81 0.98,1.83 0.94,1.85 0.91,1.86 0.87,1.88 0.83,1.9 0.8,1.91 0.76,1.93 0.73,1.95 0.68,1.95 0.65,1.97 0.61,1.98 0.57,1.99 0.54,2.01 0.49,2.01 0.46,2.02 0.41,2.03 0.38,2.04 0.34,2.05 0.3,2.05 0.26,2.06 0.22,2.06 0.18,2.06 0.14,2.07 0.1,2.07 0.06,2.08 0.02,2.07 -0.02,2.07 -0.06,2.07 -0.1,2.07 -0.14,2.07 -0.18,2.07 -0.22,2.06 -0.26,2.06 -0.3,2.05 -0.34,2.04 -0.38,2.04 -0.41,2.03 -0.46,2.03 -0.49,2.01 -0.54,2 -0.57,2 -0.61,1.98 -0.65,1.97 -0.68,1.95 -0.73,1.95 -0.76,1.92 -0.8,1.92 -0.83,1.89 -0.87,1.89 -0.91,1.86 -0.94,1.85 -0.98,1.82 -1.01,1.81 -1.05,1.79 -1.08,1.77 -1.12,1.75 -1.15,1.72 -1.18,1.7 -1.22,1.68 -1.25,1.66 -1.27,1.63 -1.32,1.61 -1.34,1.58 -1.37,1.55 -1.4,1.53 -1.43,1.5 -1.46,1.48 -1.48,1.44 -1.52,1.42 -1.54,1.38 -1.57,1.36 -1.59,1.32 -1.62,1.3 -1.65,1.26 -1.66,1.23 -1.69,1.2 -1.72,1.17 -1.73,1.13 -1.76,1.1 -1.78,1.07 -1.8,1.03 -1.82,0.99 -1.84,0.97 -1.85,0.92 -1.87,0.89 -1.89,0.85 -1.91,0.82 -1.92,0.78 -1.94,0.74 -1.94,0.71 -1.97,0.66 -1.97,0.63 -1.99,0.59 -2,0.56 -2.01,0.51 -2.01,0.47 -2.03,0.44 -2.04,0.4 -2.04,0.36 -2.05,0.31 -2.05,0.28 -2.06,0.24 -2.06,0.2 -2.07,0.16 -2.07,0.12 -2.07,0.08 -2.08,0.04 h -2.07 l -2.07,-0.04 -2.07,-0.08 -2.07,-0.12 -2.07,-0.16 -2.06,-0.2 -2.06,-0.24 -2.06,-0.28 -2.05,-0.31 -2.04,-0.36 -2.03,-0.4 -2.03,-0.44 -2.02,-0.47 -2.01,-0.51 -1.99,-0.56 -1.99,-0.59 -1.98,-0.63 -1.96,-0.66 -1.95,-0.71 -1.93,-0.74 -1.93,-0.78 -1.9,-0.82 -1.89,-0.85 -1.87,-0.89 -1.86,-0.92 -1.84,-0.97 -1.81,-0.99 -1.8,-1.03 -1.78,-1.07 -1.76,-1.1 -1.74,-1.13 -1.71,-1.17 -1.69,-1.2 -1.67,-1.23 -1.64,-1.26 -1.62,-1.3 -1.6,-1.32 -1.56,-1.36 -1.54,-1.38 -1.52,-1.42 -1.49,-1.44 -1.46,-1.48 -1.43,-1.5 -1.4,-1.53 -1.37,-1.55 -1.34,-1.58 -1.31,-1.61 -1.28,-1.63 -1.25,-1.66 -1.21,-1.68 -1.18,-1.7 -1.15,-1.72 -1.12,-1.75 -1.08,-1.77 -1.05,-1.79 -1.01,-1.81 -0.98,-1.82 -0.95,-1.85 -0.9,-1.86 -0.87,-1.89 -0.84,-1.89 -0.8,-1.92 -0.76,-1.92 -0.72,-1.95 -0.69,-1.95 -0.65,-1.97 -0.61,-1.98 -0.57,-2 -0.53,-2 -0.5,-2.01 -0.45,-2.03 -0.42,-2.03 -0.38,-2.04 -0.33,-2.04 -0.3,-2.05 -0.26,-2.06 -0.22,-2.06 -0.18,-2.07 -0.14,-2.07 -0.1,-2.07 -0.06,-2.07 -0.02,-2.07"
       id="path32126"
       style="fill:none;stroke:#000000;stroke-width:0.1;stroke-miterlimit:4;stroke-dasharray:none" />
    <path
       inkscape:connector-curvature="0"
       d="m 380.485,546.42218 v 107.57"
       id="path32140"
       style="fill:none;stroke:#000000;stroke-width:0.1" />
    <path
       inkscape:connector-curvature="0"
       d="M 380.485,546.42218 H 272.915"
       id="path32154"
       style="fill:none;stroke:#000000;stroke-width:0.1" />
    <path
       inkscape:connector-curvature="0"
       d="m 380.485,546.42218 h 107.57"
       id="path32168"
       style="fill:none;stroke:#000000;stroke-width:0.1" />
    <path
       inkscape:connector-curvature="0"
       d="M 385.7611,545.9081 H 375.2089 V 437.08831 h 10.5522 z"
       id="path32272"
       style="fill:#000000;fill-rule:evenodd;stroke:#000000;stroke-width:1.00542116" />
  </g>
</svg>
