<?xml version="1.0" encoding="UTF-8"?>
<!DOCTYPE svg PUBLIC "-//W3C//DTD SVG 1.1//EN" "http://www.w3.org/Graphics/SVG/1.1/DTD/svg11.dtd">
<!-- Creator: CorelDRAW -->
<svg xmlns="http://www.w3.org/2000/svg" xml:space="preserve" width="210mm" height="297mm" style="shape-rendering:geometricPrecision; text-rendering:geometricPrecision; image-rendering:optimizeQuality; fill-rule:evenodd; clip-rule:evenodd"
viewBox="0 0 210 297"
 xmlns:xlink="http://www.w3.org/1999/xlink">
 <defs>
  <style type="text/css">
   <![CDATA[
    .str0 {stroke:#1F1A17;stroke-width:0.2}
    .fil0 {fill:white}
   ]]>
  </style>
 </defs>
 <g id="Livello_x0020_1">
  <metadata id="CorelCorpID_0Corel-Layer"/>
  <path class="fil0 str0" d="M118.415 128.086c-0.6846,-3.1154 -3.4711,-6.1466 -6.1604,-8.7956 -2.1986,-2.1657 -9.2574,-7.4571 -12.9626,-7.2006 -1.9765,0.1369 -4.4177,-0.045 -6.6276,0.108 -1.8395,0.1273 -4.7665,1.4169 -6.3499,1.263 -1.559,1.7781 -4.9022,3.4965 -6.8946,5.1956 -3.2826,2.7997 -4.6325,7.0083 -7.506,10.4004 -2.6612,3.1414 -2.758,5.9339 -4.0613,9.2311 -1.0117,2.5595 0.9005,4.9152 0.2679,6.8693 0.9882,0.9015 1.0594,2.8025 2.4683,3.6239 -0.2232,0.7535 0.4514,1.6138 1.2444,2.0761 -0.5544,4.7186 23.0699,12.3736 26.6035,7.9246 1.0639,0.1034 5.0958,-4.2814 9.6505,-6.1311 4.5546,-1.8497 11.0123,-21.4493 10.3278,-24.5647z"/>
  <path class="fil0 str0" d="M167.31 92.4403c-0.5818,-2.6479 -2.9503,-5.2242 -5.236,-7.4757 -1.8687,-1.8408 -7.8682,-6.3381 -11.0175,-6.1201 -1.6799,0.1163 -3.7547,-0.0383 -5.6331,0.0918 -1.5634,0.1082 -4.0511,1.2043 -5.397,1.0734 -1.325,1.5113 -4.1666,2.9718 -5.86,4.4161 -2.79,2.3795 -3.9373,5.9566 -6.3797,8.8396 -2.2618,2.6701 -2.3441,5.0435 -3.4518,7.8459 -0.8599,2.1755 0.7653,4.1777 0.2277,5.8386 0.8399,0.7662 0.9004,2.3819 2.0979,3.0801 -0.1897,0.6404 0.3836,1.3716 1.0577,1.7646 -0.4712,4.0105 19.6081,10.5168 22.6114,6.7354 0.9043,0.0879 4.3312,-3.6389 8.2024,-5.2111 3.8712,-1.5721 9.3598,-18.2307 8.778,-20.8786z"/>
  <path class="fil0 str0" d="M195.08 68.4013c-0.2909,-1.3239 -1.4751,-2.6121 -2.618,-3.7378 -0.9343,-0.9204 -3.9341,-3.169 -5.5087,-3.06 -0.84,0.0581 -1.8774,-0.0192 -2.8166,0.0458 -0.7817,0.0541 -2.0255,0.6022 -2.6985,0.5368 -0.6625,0.7556 -2.0832,1.4859 -2.9299,2.208 -1.3951,1.1897 -1.9687,2.9783 -3.1899,4.4198 -1.1309,1.335 -1.172,2.5217 -1.7259,3.9229 -0.4299,1.0878 0.3827,2.0889 0.1138,2.9193 0.42,0.3831 0.4502,1.191 1.049,1.54 -0.0949,0.3203 0.1918,0.6859 0.5288,0.8824 -0.2356,2.0052 9.8041,5.2583 11.3057,3.3676 0.4522,0.044 2.1656,-1.8194 4.1012,-2.6055 1.9356,-0.786 4.6799,-9.1153 4.389,-10.4393z"/>
 </g>
</svg>
