<?xml version="1.0" encoding="UTF-8"?>
<!DOCTYPE svg PUBLIC "-//W3C//DTD SVG 1.1//EN" "http://www.w3.org/Graphics/SVG/1.1/DTD/svg11.dtd">
<!-- Creator: CorelDRAW -->
<svg xmlns="http://www.w3.org/2000/svg" xml:space="preserve" width="210mm" height="297mm" style="shape-rendering:geometricPrecision; text-rendering:geometricPrecision; image-rendering:optimizeQuality; fill-rule:evenodd; clip-rule:evenodd"
viewBox="0 0 210 297"
 xmlns:xlink="http://www.w3.org/1999/xlink">
 <defs>
  <style type="text/css">
   <![CDATA[
    .str0 {stroke:#1F1A17;stroke-width:0.2}
    .fil0 {fill:white}
   ]]>
  </style>
 </defs>
 <g id="Livello_x0020_1">
  <metadata id="CorelCorpID_0Corel-Layer"/>
  <path class="fil0 str0" d="M132.276 39.3944c13.9972,3.2301 13.3281,36.3392 16.5908,48.0852 1.7553,6.3191 2.4144,23.1213 0.5624,28.9636 -0.9335,2.9446 -2.1316,12.9352 -6.1864,12.9352 -3.9809,0 -7.5924,-6.2653 -7.5924,-9.842 -1.369,-0.3911 -0.9541,-1.1248 -2.812,-1.1248 0,3.558 -10.7417,23.9582 -13.4976,24.7456 0,2.0985 -3.124,3.1378 -4.7804,3.3744l88.2986 0c-2.454,-2.1579 -8.5676,-5.4072 -9.0002,-8.436 -1.2153,-0.2025 -0.1907,-1.4847 -1.406,-1.6872 0,-8.1534 -5.5754,-13.703 -6.1864,-21.6524 -0.8835,-11.4928 -0.5624,-21.7284 -0.5624,-33.4628 0,-7.3251 -1.2007,-13.7303 0.8436,-21.09 0.6476,-2.3314 1.4447,-6.1715 1.6872,-8.436 0.4349,-4.0595 4.9248,-6.6342 5.3428,-9.5608 0.3063,-0.051 6.6627,-2.5536 6.7488,-2.812 0.9372,0 1.3744,-0.2812 2.2496,-0.2812l-70.3 0.2812zm32.6192 11.248c-7.5081,5.7755 -4.4992,28.6138 -4.4992,38.5244 0,5.8873 -1.6872,12.56 -1.6872,19.1216 0,5.5799 1.8352,14.7754 4.7804,19.684 3.3299,0 4.8832,-1.9684 7.03,-1.9684l0.5624 -0.5624c0,-5.0268 1.5574,-13.5453 3.3744,-17.9968 2.993,-7.3328 1.406,-19.5721 1.406,-27.8388 0,-8.1473 -0.3334,-20.632 -3.6556,-27.2764 -2.6706,-0.3815 -4.5385,-1.9684 -7.3112,-1.6872z"/>
 </g>
</svg>
