<?xml version="1.0" encoding="UTF-8"?>
<!DOCTYPE svg PUBLIC "-//W3C//DTD SVG 1.1//EN" "http://www.w3.org/Graphics/SVG/1.1/DTD/svg11.dtd">
<!-- Creator: CorelDRAW -->
<svg xmlns="http://www.w3.org/2000/svg" xml:space="preserve" width="210mm" height="297mm" style="shape-rendering:geometricPrecision; text-rendering:geometricPrecision; image-rendering:optimizeQuality; fill-rule:evenodd; clip-rule:evenodd"
viewBox="0 0 210 297"
 xmlns:xlink="http://www.w3.org/1999/xlink">
 <defs>
  <style type="text/css">
   <![CDATA[
    .str0 {stroke:#1F1A17;stroke-width:0.2}
    .fil0 {fill:white}
   ]]>
  </style>
 </defs>
 <g id="Livello_x0020_1">
  <metadata id="CorelCorpID_0Corel-Layer"/>
  <path class="fil0 str0" d="M35.8248 81.8556c-0.7916,7.5677 1.7299,8.3168 7.03,10.9668 10.6849,5.3423 9.842,10.5679 9.842,21.9336 0,19.3223 22.4606,32.0568 39.6492,32.0568 9.3385,0 21.5621,-1.9844 28.6824,-8.1548 3.5982,-3.1183 6.0001,-5.9892 8.436,-10.4044 1.9159,-3.4728 6.3032,-10.3299 7.5924,-15.466 1.2892,-5.1361 -3.1075,-39.9304 -13.7788,-39.9304 -1.6998,-5.0995 -25.8303,6.2068 -34.3064,-3.0932 -8.4761,-9.3 -20.9756,-23.3587 -31.7756,-21.6524 -10.8,1.7063 -5.7638,11.4745 -8.7172,16.0284 -2.9534,4.5539 -11.8624,10.1479 -12.654,17.7156z"/>
 </g>
</svg>
