<?xml version="1.0" encoding="UTF-8"?>
<!DOCTYPE svg PUBLIC "-//W3C//DTD SVG 1.1//EN" "http://www.w3.org/Graphics/SVG/1.1/DTD/svg11.dtd">
<!-- Creator: CorelDRAW -->
<svg xmlns="http://www.w3.org/2000/svg" xml:space="preserve" width="210mm" height="297mm" style="shape-rendering:geometricPrecision; text-rendering:geometricPrecision; image-rendering:optimizeQuality; fill-rule:evenodd; clip-rule:evenodd"
viewBox="0 0 210 297"
 xmlns:xlink="http://www.w3.org/1999/xlink">
 <defs>
  <style type="text/css">
   <![CDATA[
    .str0 {stroke:#1F1A17;stroke-width:0.2}
    .fil0 {fill:white}
   ]]>
  </style>
 </defs>
 <g id="Livello_x0020_1">
  <metadata id="CorelCorpID_0Corel-Layer"/>
  <path class="fil0 str0" d="M166.06 109.011c-1.8209,-8.2869 -9.2331,-16.3496 -16.3864,-23.396 -5.8484,-5.7607 -24.6244,-19.8356 -34.4804,-19.1533 -5.2574,0.364 -11.7508,-0.1198 -17.6292,0.2872 -4.8929,0.3386 -12.6786,3.7689 -16.8905,3.3594 -4.1468,4.7298 -13.0397,9.3006 -18.3394,13.8204 -8.7318,7.447 -12.3224,18.6418 -19.9659,27.6646 -7.0787,8.3562 -7.3361,15.784 -10.8028,24.5545 -2.6911,6.8084 2.3952,13.0745 0.7125,18.2722 2.6286,2.398 2.8179,7.4546 6.5656,9.6395 -0.5936,2.0043 1.2007,4.2927 3.3101,5.5225 -1.4747,12.5513 61.3655,32.9134 70.7648,21.0791 2.8299,0.2752 13.5547,-11.3884 25.6699,-16.3085 12.1153,-4.9201 29.2926,-57.0546 27.4717,-65.3416z"/>
  <path class="fil0 str0" d="M127.395 122.43c-0.8054,-3.6655 -4.0839,-7.2317 -7.248,-10.3484 -2.5868,-2.5481 -10.8917,-8.7736 -15.2512,-8.4718 -2.3254,0.161 -5.1975,-0.053 -7.7976,0.127 -2.1643,0.1498 -5.608,1.6671 -7.471,1.4859 -1.8342,2.0921 -5.7676,4.1138 -8.1118,6.113 -3.8622,3.2939 -5.4504,8.2455 -8.8312,12.2365 -3.131,3.696 -3.2449,6.9815 -4.7783,10.8608 -1.1902,3.0114 1.0595,5.783 0.3152,8.0821 1.1627,1.0607 1.2464,3.2973 2.904,4.2637 -0.2625,0.8865 0.5311,1.8987 1.4642,2.4427 -0.6523,5.5516 27.1429,14.5581 31.3003,9.3236 1.2518,0.1217 5.9955,-5.0373 11.3543,-7.2135 5.3587,-2.1763 12.9565,-25.2362 12.1511,-28.9016z"/>
 </g>
</svg>
