<?xml version="1.0" encoding="UTF-8"?>
<!DOCTYPE svg PUBLIC "-//W3C//DTD SVG 1.1//EN" "http://www.w3.org/Graphics/SVG/1.1/DTD/svg11.dtd">
<!-- Creator: CorelDRAW -->
<svg xmlns="http://www.w3.org/2000/svg" xml:space="preserve" width="210mm" height="297mm" style="shape-rendering:geometricPrecision; text-rendering:geometricPrecision; image-rendering:optimizeQuality; fill-rule:evenodd; clip-rule:evenodd"
viewBox="0 0 210 297"
 xmlns:xlink="http://www.w3.org/1999/xlink">
 <defs>
  <style type="text/css">
   <![CDATA[
    .fil0 {fill:#1F1A17}
   ]]>
  </style>
 </defs>
 <g id="Livello_x0020_1">
  <metadata id="CorelCorpID_0Corel-Layer"/>
  <path class="fil0" d="M173 -55.1248l0.2566 0.171 0.342 0.1283 0.2565 0.0427 0.342 0.0428 0.171 -0.2565 0.2137 -0.2138 0.171 -0.2565 0.2138 -0.2137 0.171 -0.2565 0.2138 -0.2565 0.171 -0.2566 0.2137 -0.2137 0.1283 -0.2565 0.2137 -0.2565 0.1283 -0.2565 0.2137 -0.2138 0.342 -0.4703 0.3848 -0.4275 0.1283 -0.2565 0.2137 -0.2565 0.171 -0.2565 0.2138 -0.2137 0.3847 -0.4276 0.4703 -0.3847 0.2138 -0.2565 0.2137 -0.171 0.2565 -0.2138 0.2565 -0.1282 0.2565 -0.2138 0.2565 -0.171 0.2566 -0.1282 0.342 -0.1283 -0.0855 0.2565 -0.0855 0.2993 -0.0855 0.2565 -0.0428 0.2992 -0.1283 0.2565 -0.0855 0.2565 -0.1282 0.2565 -0.0855 0.2993 -0.171 0.2565 -0.1283 0.2565 -0.1282 0.2565 -0.1283 0.2565 -0.171 0.2565 -0.171 0.2566 -0.171 0.2565 -0.1282 0.2992 -0.2138 0.2138 -0.171 0.2565 -0.171 0.2565 -0.171 0.2565 -0.2138 0.2565 -0.171 0.2565 -0.171 0.2565 -0.171 0.2565 -0.2137 0.2565 -0.171 0.2565 -0.171 0.2565 -0.1283 0.2993 -0.171 0.2565 -0.171 0.2993 -0.1283 0.2992 -0.1282 0.342 0.3847 0.1283 0.4276 0.0855 0.4275 0 0.4275 -0.0428 0.3847 -0.171 0.4276 -0.1282 0.4275 -0.2138 0.4275 -0.2137 0.3847 -0.2565 0.4275 -0.2138 0.4276 -0.2565 0.4702 -0.2138 0.2138 -0.1282 0.2565 -0.0855 0.2137 -0.0855 0.2565 -0.0428 0.2566 -0.0427 0.2565 -0.0428 0.2565 0 0.2565 0 -0.2565 0.171 -0.2565 0.2138 -0.2993 0.2137 -0.2565 0.2566 -0.2993 0.2137 -0.2992 0.2138 -0.2565 0.2565 -0.2565 0.2565 -0.2565 0.2565 -0.2138 0.2565 -0.2138 0.2565 -0.1282 0.342 -0.1283 0.2993 -0.0855 0.342 0 0.342 0.0855 0.3848 4.6599 1.9238 -0.342 -0.1283 -0.2992 -0.0427 -0.3421 -0.0856 -0.342 -0.0427 -0.3847 -0.0855 -0.342 -0.0428 -0.342 -0.0427 -0.3421 0 -0.3847 -0.0428 -0.3848 0 -0.342 0.0428 -0.342 0.0427 -0.342 0.0428 -0.2993 0.0855 -0.342 0.1283 -0.2565 0.171 5.0447 5.0446 -0.4276 -0.0428 -0.4275 0 -0.4702 -0.0427 -0.4275 0 -0.2565 -0.0428 -0.2566 -0.0427 -0.2565 0 -0.2565 0 -0.2565 -0.0428 -0.2565 -0.0427 -0.2565 0 -0.2565 0 -0.2993 -0.0428 -0.2992 -0.0427 -0.2565 -0.0428 -0.2565 0 -0.2993 -0.0427 -0.2992 -0.0428 -0.2566 -0.0427 -0.2565 0 -0.2992 -0.0428 -0.2565 -0.0427 -0.2993 -0.0428 -0.2565 0 -0.2565 -0.0427 -0.2565 -0.0428 -0.2565 -0.0427 -0.2565 0 -0.2138 0.3847 -0.0855 0.4703 -0.0427 0.3848 0.0855 0.4702 0.0855 0.3848 0.2137 0.4702 0.2138 0.3848 0.2992 0.4703 0.2566 0.3847 0.342 0.4275 0.3847 0.4276 0.3848 0.4275 0.3847 0.3847 0.3848 0.3848 0.3848 0.3848 0.4275 0.3847 -0.3848 0 -0.2992 0 -0.342 0 -0.2993 0 -0.3848 -0.0427 -0.2992 -0.0428 -0.342 -0.0427 -0.2993 -0.0428 -0.342 -0.0855 -0.342 -0.0855 -0.342 -0.0855 -0.2993 -0.0855 -0.342 -0.1283 -0.2993 -0.0855 -0.342 -0.0855 -0.2992 -0.0855 -0.3848 -0.1282 -0.2992 -0.1283 -0.342 -0.1282 -0.2993 -0.0855 -0.3848 -0.1283 -0.2992 -0.1282 -0.342 -0.0855 -0.2993 -0.0855 -0.342 -0.1283 -0.342 -0.0855 -0.342 -0.0855 -0.2993 -0.0427 -0.342 -0.1283 -0.2992 -0.0428 -0.3421 -0.0427 -0.2992 0 -0.1283 -0.2565 -0.0855 -0.2565c-1.053,2.7353 -0.2114,0.1443 -4.4461,-1.4108l-0.342 -0.342 -0.342 -0.2993 -0.3848 -0.2992 -0.342 -0.2565 -0.4275 -0.2993 -0.4275 -0.2993 -0.4275 -0.2992 -0.3848 -0.2565 0.2565 0.171 0.2993 0.1282 0.2992 0.0428 0.2993 0.0427 0 -0.342 0 -0.2992 0 -0.2993 0.0428 -0.2992 0 -0.3421 0 -0.2565 0 -0.342 0.0427 -0.2565 -0.0427 -0.342 0 -0.2992 -0.0428 -0.2993 0 -0.2993 -0.0428 -0.342 0 -0.2565 -0.0427 -0.342 0 -0.2565 -0.0428 -0.342 -0.0427 -0.2993 -0.0428 -0.342 0 -0.2565 -0.0427 -0.342 -0.0428 -0.2993 0 -0.342 0 -0.2565 -0.0427 -0.342 0 -0.2992 -0.0428 -0.2993 0 -0.2565 0 -0.2993 0 -0.2992 0 -0.2993 0 -0.2565 0.0855 0.171 0.1283 0.2993 0.0855 0.2565 0.0855 0.342 0.0428 0.2565 0.1282 0.342 0.0855 0.2993 0.1283 0.342 0.0855 0.2565 0.1282 0.2565 0.1283 0.2138 0.2565 0.2137 0.2137 0.0855 0.2993 0.1283 0.3848 0.0427 0.4275 0 1.5818 -5.4294 0.2137 0 0.171 0.1283 0.0855 0.171 0.1283 0.2565 0.0427 0.2565 0.0428 0.342 0 0.3848 0.0855 0.3847 0 0.342 0.0855 0.342 0.1282 0.2993 0.171 0.2993 0.2138 0.2137 0.342 0.2138 0.171 0.0427 0.2565 0.0855 0.2565 0.0428 0.2993 0.0427 0.0855 -0.342 0.1282 -0.2992 0.1283 -0.2993 0.1282 -0.2565 0.0855 -0.342 0.1283 -0.2993 0.0855 -0.2992 0.1283 -0.2565 0.0855 -0.3421 0.0855 -0.2992 0.0855 -0.2993 0.1282 -0.2565 0.0855 -0.342 0.1283 -0.2992 0.0855 -0.2993 0.1282 -0.2565 0.0428 -0.342 0.1282 -0.2993 0.0428 -0.2992 0.1282 -0.2993 0.0855 -0.2993 0.0855 -0.2992 0.0855 -0.2993 0.1283 -0.2565 0.0855 -0.342 0.0855 -0.2993 0.0855 -0.2992 0.1283 -0.2565 0.0855 -0.2993 0.1282 -0.2992 0.1283 -0.2993 0.1282 -0.2565 0.0855 -0.342 0.1283 -0.2993 0.0855 -0.2992 0.1282 -0.2565 0.1283 -0.2993 0.1282 -0.2992 0.1283 -0.2566 0.1283 -0.2565 0.1282 -0.2992 0.1283 -0.2993 0.1282 -0.2992 0.171 -0.2565 0.1283 -0.2566 0.171 -0.2565 0.171 -0.2565 0.2137 -0.2565 0.1283 -0.2992 0.171 -0.2565 0.171 -0.2565 0.2138 -0.2566 0.171 -0.2565 0.2137 -0.2565 0.171 -0.2565 0.2565 -0.2137 0.2138 -0.2565 0.2137 -0.2565 0.2565 -0.2138 0.2566 -0.2138 0.2137 -0.2565 0.2565 -0.2137 0.2993 -0.2138 0.2992 -0.171 -0.171 0.3848 -0.1282 0.4702 -0.1283 0.3848 -0.1282 0.4703 -0.171 0.4275 -0.1283 0.4702 -0.0855 0.2138 -0.0855 0.2138 -0.0855 0.2565 -0.0427 0.2565 -0.2138 0.4275 -0.171 0.4702 -0.171 0.4276 -0.171 0.4702 -0.1283 0.2138 -0.0855 0.2137 -0.0855 0.2565 -0.0427 0.2565 -0.1283 0.2138 -0.0855 0.2138 -0.0855 0.2565 -0.0427 0.2565 -0.2138 0.4275 -0.171 0.4702 -0.1283 0.2138 -0.0855 0.2565 -0.0855 0.2138 -0.0855 0.2565 -0.1282 0.2137 -0.0428 0.2565 -0.1282 0.2138 -0.0428 0.2565 -0.0855 0.2138 -0.0855 0.2565 -0.0855 0.2565 -0.0427 0.2565 -0.171 0.4275 -0.171 0.4703 -0.0855 0.2137 -0.0855 0.2565 -0.0855 0.2565 -0.0428 0.2565 -0.0855 0.2138 -0.0427 0.2565 -0.0855 0.2137 -0.0428 0.2566 -0.0855 0.2137 -0.0428 0.2565 -0.0855 0.2565 0 0.2565z"/>
  <path class="fil0" d="M156.284 -36.4852l0.2565 -0.0428 0.2993 -0.0427 0.2565 -0.0855 0.2993 -0.0856 0.2137 -0.1282 0.2565 -0.1283 0.171 -0.1282 0.2138 -0.1283 1.1543 6.9685 -0.2565 -0.1283 -0.2566 -0.0855 -0.2565 -0.0855c1.63,1.1348 0.2146,4.2192 0.5131,4.6172l0.2565 0.3847 0.7695 0.3848 -0.2993 0 -0.2565 0.0855 -0.2565 0.1282 -0.2565 0.2138 -0.2565 0.171 -0.171 0.2992 -0.2138 0.2566 -0.171 0.3847 -0.2565 0.2993 -0.171 0.342 -0.2137 0.342 -0.171 0.3848 -0.2138 0.342 -0.2138 0.342 -0.2137 0.342 -0.171 0.342 -0.171 -0.2565 -0.0428 -0.2565 0 -0.3848 0 -0.3847 0 -0.4703 0.0428 -0.4275 0 -0.4703 0.0427 -0.3847 -0.0855 -0.4703 -0.0427 -0.3848 -0.171 -0.342 -0.171 -0.2137 -0.2993 -0.171 -0.3848 0 -0.2565 0 -0.2137 0.0855 -0.2993 0.0855 -0.2565 0.171 -1.9665 1.539 -0.2565 -0.3847 -0.0855 -0.3421 -0.0428 -0.4702 0.0855 -0.4275 0 -0.2565 0.0428 -0.2565 0.0427 -0.2566 0.0855 -0.2137 0 -0.2565 0.0428 -0.2565 0.0427 -0.2138 0.0428 -0.171 -0.3848 -0.2137 -0.342 -0.1283 -0.342 -0.0855 -0.2993 0.0428 -0.2992 0 -0.2993 0.1282 -0.2992 0.0855 -0.2566 0.171 -0.2992 0.1283 -0.2993 0.171 -0.2992 0.1282 -0.2993 0.2138 -0.342 0.1282 -0.342 0.1283 -0.342 0.1282 -0.2993 0.1283 0.0855 -0.4703 0.0855 -0.3847 0.0428 -0.342 0.0855 -0.342 0 -0.3848c0.0707,-0.6375 0.2211,-1.0489 -0.2993,-1.4535l-0.3847 -0.2138 -0.3848 -0.1283 -0.3848 -0.0427 -0.4275 -0.0428 -0.3847 0 -0.4275 0.0428 -0.3848 0.1282 -0.4703 0.0855 -0.3847 0.1283 -0.4703 0.1283 -0.3848 0.1282 -0.4702 0.0855 -0.3848 0.1283 -0.4702 0.1282 -0.3848 0.1283 0.1283 -0.2993 0.2137 -0.2565 0.2565 -0.2565 0.2565 -0.2138 0.171 -0.2992 0.1283 -0.2993 0.0427 -0.342 -0.0427 -0.3847 -3.8904 -1.1543 0.1283 -0.171 0.2137 -0.0428 0.2138 -0.0427 0.2992 0 0.2566 0 0.2992 0 0.2993 0.0427 0.342 0.0428 0.2992 -0.0428 0.2993 0 0.2565 -0.0427 0.2993 -0.0428 0.171 -0.171 0.2137 -0.1282 0.1283 -0.2993 0.171 -0.2565 -7.396 -6.2417 0.342 -0.171 0.3848 -0.0427 0.3848 0 0.3847 0.0855 0.3848 0.0855 0.4275 0.1282 0.4275 0.171 0.4275 0.171 0.3848 0.1283 0.4275 0.171 0.4275 0.1282 0.4275 0.171 0.4275 0.0855 0.4703 0.0856 0.4275 0 0.4703 0 -0.1283 -0.3421 -0.0855 -0.2565 -0.1282 -0.2565 -0.1283 -0.2565 -0.2993 -0.4275 -0.2992 -0.3848 -0.4275 -0.4275 -0.3848 -0.342 -0.3848 -0.342 -0.3847 -0.2992 -0.4275 -0.3421 -0.3848 -0.342 -0.342 -0.3847 -0.2565 -0.342 -0.2993 -0.4275 -0.171 -0.4276 -0.0855 -0.2565 -0.0427 -0.2565 0 -0.2565 0 -0.2565 0.2565 0 0.2565 0 0.2565 0 0.2993 0.0855 0.2565 0 0.2565 0.0855 0.2565 0.0428 0.2565 0.1282 0.2137 0.0428 0.2566 0.0855 0.2137 0.1282 0.2565 0.1283 0.2138 0.1282 0.2565 0.1283 0.2137 0.1282 0.2565 0.1283 0.4276 0.2565 0.4702 0.2565 0.4275 0.2565 0.4703 0.2565 0.2137 0.0855 0.2566 0.1283 0.2137 0.1282 0.2565 0.1283 0.2565 0.0855 0.2565 0.0855 0.2565 0.0855 0.2565 0.1283 0.0855 -0.2138 0.1283 -0.171 0.0428 -0.2565 0.0855 -0.2138 0 -0.2992 0.0427 -0.2565 0 -0.2993 0.0428 -0.2565 0.2565 0.0427 0.2565 0.1711 0.2565 0.1282 0.2992 0.2138 0.2565 0.2137 0.2566 0.2565 0.2565 0.2565 0.2565 0.2565 0.2565 0.2138 0.2565 0.2565 0.2565 0.2138 0.2565 0.2565 0.2565 0.171 0.2565 0.2137 0.2993 0.1283 0.342 0.1282 0.0855 -0.3847 0.0855 -0.3848 0.0427 -0.3847 0.0855 -0.3421 0 -0.3847 0 -0.342 -0.0427 -0.342 0 -0.342 -0.0855 -0.3848 0 -0.3848 -0.0855 -0.3847 0 -0.342 -0.0428 -0.3848 -0.0427 -0.342 0 -0.342 0 -0.342 0.2992 0.2137 0.2993 0.2565 0.2565 0.2565 0.2993 0.2993 0.2565 0.2565 0.2565 0.2993 0.2565 0.2992 0.2565 0.2993 0.2137 0.2565 0.2138 0.342 0.2138 0.2993 0.2565 0.342 0.171 0.2992 0.2137 0.342 0.2138 0.2993 0.2137 0.342 0.171 0.2993 0.171 0.342 0.1711 0.2992 0.2137 0.342 0.171 0.342 0.171 0.3421 0.171 0.342 0.2138 0.3847 0.171 0.2993 0.2137 0.342 0.171 0.342 0.2138 0.342 0.171 0.2993 0.2138 0.3847 0.2137 0.2993 0.2565 0.3848z"/>
  <path class="fil0" d="M164.834 -6.9442l-0.2993 0.2565 -0.2138 0.2993 -0.0855 0.2993 0.2138 0.2992 0.3848 0.7695 0.2565 -0.2565 0.2565 -0.2137 0.2565 -0.2138 0.2565 -0.171 0.2565 -0.2137 0.2565 -0.171 0.2565 -0.2138 0.2993 -0.1283 0.2565 -0.2137 0.2565 -0.171 0.2565 -0.2138 0.2565 -0.1282 0.2565 -0.2138 0.2993 -0.171 0.2565 -0.171 0.2992 -0.1282 0.2565 -0.2138 0.2565 -0.171 0.2566 -0.171c12.1287,-15.8714 3.7631,-3.8372 0,0.8123l-0.2566 0.2992 -0.2565 0.342 -0.2565 0.2993 -0.2565 0.342 -0.2565 0.2565 -0.2565 0.342 -0.2565 0.2565 -0.2565 0.342 -0.2565 0.2993 -0.2565 0.342 -0.2138 0.2993 -0.2137 0.3847 -0.2565 0.2993 -0.2138 0.342 -0.2137 0.342 -0.2138 0.3848 -0.2138 0.342 -0.171 0.342 -0.2137 0.3847 -0.1283 0.3848 0.342 0.1283 0.342 0.0855 0.3848 0 0.3848 0 0.342 -0.1283 0.3847 -0.0855 0.3848 -0.171 0.3848 -0.1283 0.3847 -0.2137 0.3848 -0.171 0.3847 -0.171 0.4276 -0.1283 0.3847 -0.171 0.4275 -0.0427 0.4275 -0.0428 0.4703 0.0855 -0.342 0.2565 -0.342 0.2565 -0.342 0.2565 -0.2993 0.2993 -0.342 0.2565 -0.2993 0.2993 -0.342 0.2565 -0.2992 0.2992 -0.3848 0.2565 -0.2992 0.2565 -0.3848 0.2565 -0.2993 0.2993 -0.342 0.2565 -0.2992 0.2993 -0.342 0.2992 -0.2993 0.2993 -0.3848 0.2565 -0.2992 0.2565 -0.342 0.2993 -0.2993 0.2992 -0.342 0.2565 -0.2993 0.2993 -0.342 0.2992 -0.2992 0.3421 -0.342 0.2565 -0.2993 0.2992 -0.2992 0.2993 -0.2566 0.342 -0.2992 0.2992 -0.2993 0.3421 -0.2565 0.2992 -0.2565 0.342 -0.2992 0.2993 -0.2993 0.342 -0.2565 0.2992 -0.2565 0.3421 -0.2565 0.2992 -0.2565 0.342 -0.2138 0.2993 -0.2137 0.3847 -0.2566 0.3421 -0.2565 0.342 -0.2137 0.342 -0.171 0.3847 -0.2138 0.342 -0.171 0.3848 -0.1282 0.3848 -0.1283 0.3847 -0.171 0.342 -0.171 0.3848 -0.1282 0.3848 -0.0856 0.3847 -0.1282 0.3848 -0.0855 0.4275 -0.0855 0.4275 -0.0428 0.4275 -0.1282 0.3848 -0.0428 0.4275 -0.0427 0.4275 0 0.4275 0 0.4275c3.9109,1.2896 33.9554,-15.4269 8.3365,-0.2137l-0.4703 0.2992 -0.4275 0.342 -0.4275 0.342 -0.4275 0.3848 -0.4275 0.342 -0.4276 0.3848 -0.3847 0.3847 -0.3848 0.4276 -0.4275 0.3847 -0.3848 0.3848 -0.3847 0.3847 -0.342 0.4703 -0.3848 0.3848 -0.2992 0.4702 -0.171 0.2138 -0.1711 0.2137 -0.1282 0.2565 -0.1283 0.2565 -0.171 0.2138 -0.171 0.2565 -0.1282 0.2138 -0.1283 0.2565 -0.1282 0.2565 -0.1283 0.2565 -0.0855 0.2565 -0.0855 0.2565 -0.1282 0.2565 -0.1283 0.2565 -0.0855 0.2565 -0.0427 0.2993 -0.1283 0.2565 -0.0428 0.2992 -0.0855 0.2993 0 0.342 -0.0855 0.2565 -0.0427 0.2993 -0.0428 0.2992 -0.0427 0.2993 -0.0855 0.2565 0 0.2993 -0.0855 0.2992 0 0.2993 -0.0855 0.2565 -0.0428 0.2992 -0.0427 0.2993 -0.0428 0.2993 -0.0427 0.2565 -0.0428 0.2992 -0.0427 0.2993 0 0.342 -0.0855 0.2565 -0.0428 0.2993 -0.0427 0.2992 -0.0428 0.2993 -0.0427 0.2565 -0.0428 0.2992 -0.0427 0.2993 0 0.2993 -0.0428 0.2565 0 0.2992 -0.0427 0.2993 0 0.2992 0 0.2566 0 0.2992 0 0.2993 0 0.342 3.5056 -1.9238 0.2137 0.1282 0.2138 0.2138 0.171 0.2137 0.2137 0.2565 0.1283 0.2138 0.1282 0.2565 0.0855 0.2565 0.1283 0.2993 0.0427 0.2565 0.0856 0.2565 0.0855 0.2992 0.0855 0.2993 0.0427 0.2993 0.0855 0.2992 0.0428 0.2993 0.0855 0.342 0 0.2565 0.0855 0.2993 0.0427 0.2992 0.0855 0.2993 0.0855 0.2565 0.0855 0.2992 0.1283 0.2565 0.1282 0.2993 0.1283 0.2138 0.1282 0.2565 0.171 0.2137 0.2566 0.2565 0.2137 0.171 0.2565 0.2138 0.2565 0.171 0.3848 0.2138c13.8861,-0.5645 11.0038,0.5739 3.4628,1.4107l-0.3847 0.1283 -0.3848 0.0427 -0.3848 0.0855 -0.3847 0.0428 -0.342 0.0855 -0.4275 0 -0.3848 0.0428 -0.3848 0.0427 -0.3847 0.0428 -0.3848 0 -0.3847 0 -0.3848 0 -0.3848 0 -0.2565 -0.3848 -0.2137 -0.3848 -0.2565 -0.3847 -0.2138 -0.3848 -0.2565 -0.3847 -0.2138 -0.3848 -0.2137 -0.342 -0.2138 -0.342 -0.2565 -0.3848 -0.2565 -0.2992 -0.2565 -0.2993 -0.2137 -0.2565 -0.2993 -0.2565 -0.2565 -0.2138 -0.2565 -0.2137 -0.2565 -0.1283 -0.3848 0 -0.3847 0 -0.3848 0 -0.3848 0 -0.3847 0 -0.342 0.0428 -0.3848 0.0427 -0.2993 0.0855 -0.342 0.0428 -0.2992 0.1282 -0.2565 0.1283 -0.2138 0.171 -0.2565 0.1282 -0.1282 0.2565 -0.1711 0.2138 -0.0427 0.2993 0.7695 0.3847 -0.0855 0.342 -0.0427 0.342 -0.0428 0.342 0 0.3848 -0.0855 0.342 -0.0427 0.3848 -0.0428 0.342 0 0.3847 -0.0427 0.3421 -0.0428 0.3847 -0.0427 0.342 -0.0428 0.3848 -0.0427 0.342 -0.0428 0.3848 -0.0427 0.342 0 0.3847 -0.0856 0.342 -0.0427 0.342 -0.0428 0.3421 -0.0427 0.3847 -0.0855 0.342 -0.0428 0.342 -0.0427 0.342 -0.0428 0.3848 -0.0855 0.342 -0.0427 0.342 -0.0855 0.342 -0.0428 0.342 -0.0855 0.3421 -0.0855 0.342 -0.0855 0.342 -0.0427 0.3847 -0.1283 0.2993 -0.0855 0.342 -0.1282 0.2993 -0.0855 0.342 -0.1283 0.2992 -0.0855 0.342 -0.1282 0.3421 -0.0855 0.342 -0.1283 0.2992 -0.1283 0.2993 -0.1282 0.2992 -0.1283 0.342 -0.171 0.2993 -0.1282 0.342 -0.171 0.2993 -0.1283 0.342 -0.2137 0.2565 -0.171 0.2992 -0.171 0.2993 -0.1711 0.2993 -0.2137 0.2565 -0.171 0.2992 -0.2138 0.2993 -0.171 0.2992 -0.2565 0.2566 -0.2137 0.2992 -0.2138 0.2565 -0.2137 0.2993 -0.2566 0.2565 -0.2565 0.2565 -0.2565 0.2565 -0.2565 0.2993 -0.2992 0.7695 -0.2565 0.855 -0.2138 0.7695 -0.2138 0.855 -0.2137 0.8123 -0.171 0.855 -0.1283 0.8123 -0.1282 0.8978 -0.171 0.8123 -0.1283 0.855 -0.0855 0.8123 -0.0855 0.855 -0.0855 0.8123 -0.0427 0.8977 -0.0428 0.8123 0 0.8978 -0.0427 0.8123 -0.0428 0.855 0 0.855 0 0.8978 0 0.855 0 0.855 0.0428 0.8551 0.0855 0.8977 0 0.855 0.0427 0.8551 0.0428 0.8977 0.0855 0.8978 0.0427 0.855 0.0855 0.8551 0.0428 0.8977 0.1282 0.8978 0.0428 0.855 0.0855 0.8551 0.0427 0.855 0.0855 0.8978 0.0428 0.855 0.1282 0.8978 0.0428 0.8977 0.1282 0.8978 0.0428 0.855 0.0427 0.8551 0.0428 0.855 0.0855 0.8978 0.0427 0.855 0.0856 0.8978 0.0427 0.8977 0.0855 0.8978 0 0.855 0.0428 0.8551 0 0.855 0.0427 0.8978 0 0.855 0 0.8978 0 0.855 0 0.8978 -0.0427 0.855 -0.0428 0.855 -0.0427 0.855 -0.0428 0.8978 -0.0855 0.855 -0.0855 0.8551 -0.1283 0.855 -0.0855 0.8978 0.2565 0.2565 0.2993 0.342 0.1283 0.342 0.171 0.3847 0.0427 0.3848 0.0855 0.3848 0 0.4275 0.0428 0.4275 -0.0428 0.3847 0 0.4276 0 0.4275 0.0428 0.4275 0.0427 0.3847 0.1283 0.3848 0.1282 0.3848 0.2138 0.4275 -0.3848 0.0855 -0.342 0.0427 -0.3847 0.0428 -0.3848 0.0855 -0.4275 0.0855 -0.342 0.171 -0.2993 0.2565 -0.1282 0.4275 -0.1283 0.2565 -0.0427 0.2565 -0.1283 0.2565 -0.0428 0.2565 -0.1282 0.4276 -0.0855 0.4702 -0.0855 0.3848 0 0.4702 0 0.2565 0.0427 0.2566 0.0428 0.2565 0.1282 0.2992 -2.6933 1.5818 0 -0.3847 0 -0.2993 0 -0.342 0 -0.2993 0 -0.342 0 -0.2992 0 -0.342 0 -0.2993 -0.0427 -0.342 0 -0.2993 -0.0428 -0.342 0 -0.2992 -0.0427 -0.3421 0 -0.2565 0 -0.342 0 -0.2565 -0.0428 -0.342 -0.0427 -0.2992 -0.0428 -0.2993 0 -0.2993 -0.0427 -0.342 -0.0428 -0.2565 -0.0427 -0.342 0 -0.2565 -0.0855 -0.342 0 -0.2565 -0.0855 -0.342 0 -0.2565 -0.0428 -0.2993 -0.0427 -0.2992 -0.0428 -0.2993 0 -0.2565 -0.0855 -0.342 -0.0428 -0.2993 -0.0427 -0.2992 -0.0428 -0.2565 -0.0427 -0.3421 -0.0428 -0.2992 -0.0427 -0.2993 0 -0.2565 -0.0855 -0.342 -0.0428 -0.2565 -0.0427 -0.342 0 -0.2565 -0.0428 -0.2993 -0.0427 -0.2992 -0.0428 -0.2993 0 -0.2565 -0.0427 -0.342 -0.0428 -0.2993 -0.0427 -0.2992 0 -0.2993 -0.0428 -0.342 -0.0427 -0.2565 0 -0.342 0 -0.2565 -0.0428 -0.342 0 -0.2565 0 -0.342 0 -0.2565 0 -0.3421 0 -0.2565 0 -0.342 0 -0.2565 -0.0427 -0.684 -0.0428 -0.684 -0.0427 -0.6413 0 -0.6413 -0.0428 -0.684 0 -0.684 0 -0.6413 0 -0.6412 -0.0427 -0.684 0 -0.6841 0 -0.684 0 -0.6413 0 -0.684 0 -0.6412 0 -0.6841 0 -0.6412 0 -0.684 0 -0.6841 0 -0.684 0 -0.6413 0 -0.684 0 -0.6412 0 -0.6841 0 -0.6412 0 -0.684 0 -0.6841 0 -0.6412 0 -0.6413 0 -0.684 0 -0.684 0 -0.6413 0 -0.6413 -0.0428 -0.684 0 -0.684 0 -0.684 0 -0.6413 0 -0.684 0 -0.6413 0 -0.6413 0 -0.6412 0 -0.684 0 -0.6413 0 -0.684 0 -0.6413 0 -0.6413 0 -0.6412 0 -0.6413 0 -0.6413 -0.0427 -0.684 0 -0.6413 0 -0.6412 0 -0.6413 0 -0.6413 0 -0.6412 0 -0.6413 0 -0.5985 -0.0428 -0.6413 0 -0.6413 0 -0.6412 0 -0.6413 -0.0427 -0.6413 0 -0.5985 0 -0.5985 0 -0.5985 0.2565 -0.4275 0.2565 -0.4275 0.2565 -0.3848 0.2565 -0.3848 0.2565 -0.4275 0.2565 -0.4275 0.2565 -0.3847 0.2565 -0.3848 0.2138 -0.4275 0.2565 -0.4275 0.2565 -0.4275 0.2565 -0.3848 0.2138 -0.4275 0.2565 -0.3848 0.2565 -0.4275 0.2565 -0.3847 0.2137 -0.4276 0.2138 -0.4275 0.2137 -0.4275 0.2138 -0.4275 0.2138 -0.4275 0.2137 -0.4275 0.2138 -0.4275 0.2565 -0.3848 0.171 -0.4275 0.2137 -0.4275 0.171 -0.4275 0.2138 -0.4275 0.171 -0.4275 0.2138 -0.4276 0.171 -0.4275 0.2137 -0.3847 0.1283 -0.4703 0.171 -0.4275 0.1282 -0.4703 0.171 -0.4275 0.1283 -0.4702 0.171 -0.4276 0.1282 -0.4275 0.1711 -0.4275 0.1282 -0.4702 0.1283 -0.4276 0.1282 -0.4702 0.1283 -0.4275 0.0855 -0.4703 0.1282 -0.4275 0.1283 -0.4703 0.1282 -0.4275 0.0428 -0.513 0.1282 -0.4275 0.0428 -0.513 0.1282 -0.4275 0.0428 -0.4703 0.0855 -0.4703 0.0855 -0.4702 0.0855 -0.4275 0.0428 -0.513 0.0427 -0.4703 0.0428 -0.4703 0.0855 -0.4702 0 -0.5131 0.0855 -0.4702 0 -0.4703 0.0855 -0.4702 -0.1283 -0.4276 -0.1282 -0.3847 -0.1283 -0.4275 -0.0855 -0.3848 -0.1283 -0.4275 -0.1282 -0.3848 -0.1283 -0.3847 -0.0855 -0.3848 -0.171 -0.3847 -0.1282 -0.3848 -0.171 -0.3848 -0.1283 -0.3847 -0.171 -0.3848 -0.1282 -0.3847 -0.1283 -0.3848 -0.1282 -0.3848 -0.1711 -0.3847 -0.171 -0.3848 -0.171 -0.3848 -0.1282 -0.3847 -0.171 -0.3848 -0.171 -0.3847 -0.171 -0.3848 -0.1283 -0.3848 -0.171 -0.3847 -0.171 -0.3848 -0.1282 -0.3847 -0.1283 -0.3848 -0.171 -0.3848 -0.1283 -0.3847 -0.1282 -0.3848 -0.1283 -0.342 -0.171 -0.4275 -0.1282 -0.3848 -0.171 -0.3847 -0.1283 -0.3848 -0.1282 -0.4275 -0.1283 -0.3848 -0.1282 -0.3847 -0.0855 -0.3848 -0.1283 -0.4275 -0.0855 -0.3848 -0.0855 -0.4275 -0.0855 -0.3847 -0.1283 -0.4275 -0.0427 -0.3848 -0.0855 -0.3848 0 -0.3847 -0.0855 -0.4703 -0.0428 -0.3847 -0.0427 -0.4703 0 -0.3848 0 -0.4275 0 -0.4275 0 -0.4275 0.0427 -0.3848 0 -0.4702 0 -0.4275 0.0428 -0.4276 0.0855 -0.4275 0.0427 -0.4702 0.0855 -0.4275 0.1283 -0.4276 0.1282 -0.4275 -0.2992 -0.4275 -0.2993 -0.3847 -0.2992 -0.3848 -0.2993 -0.342 -0.342 -0.3848 -0.342 -0.2992 -0.342 -0.342 -0.342 -0.2565 -0.4275 -0.3421 -0.3848 -0.2565 -0.4275 -0.2565 -0.3848 -0.2565 -0.4275 -0.2565 -0.4275 -0.2565 -0.4275 -0.2137 -0.4275 -0.171 -0.2565 -0.1283 -0.2138 -0.1283 -0.2565 -0.0855 -0.2137 -0.0855 -0.4703 -0.2137 -0.4275 -0.1283 -0.2565 -0.1282 -0.2138 -0.0855 -0.2565 -0.0855 -0.2137 -0.0428 -0.4703 -0.1282 -0.4275 -0.1283 -0.2565 -0.0855 -0.2565 -0.0427 -0.2138 -0.0855 -0.2137 -0.0428 -0.2566 -0.0855 -0.2565 -0.0427 -0.2137 -0.0855 -0.2138 0 -0.4702 -0.1283 -0.4276 -0.0428 -0.4702 -0.0855 -0.3848 -0.0427 0.2565 -0.0428 0.342 0 0.2993 -0.0427 0.342 0 0.342 -0.0855 0.342 0 0.3848 -0.0855 0.3848 0 0.3847 -0.0855 0.3848 -0.0428 0.3847 -0.0427 0.4275 0 0.3848 -0.0428 0.3848 -0.0427 0.4275 0 0.4275 0.0427 0.3848 0 0.3847 0 0.3848 0.0428 0.3847 0.0855 0.342 0.0427 0.3848 0.1283 0.3848 0.1282 0.3847 0.171 0.2993 0.1283 0.342 0.2138 0.2993 0.2137 0.342 0.2565 0.2565 0.2565 0.2992 0.342 0.2565 0.342 0.2565 0.4276 0.7696 0 -0.0855 -0.3848 -0.0428 -0.3848 -0.0855 -0.3847 -0.0427 -0.342 -0.0855 -0.3848 -0.0428 -0.342 -0.0427 -0.3848 -0.0428 -0.342 -0.1283 -0.3847 -0.0427 -0.3848 -0.0855 -0.342 -0.0428 -0.342 -0.0855 -0.3848 -0.0427 -0.3847 -0.0855 -0.342 -0.0428 -0.3421 -0.0855 -0.3847 -0.0427 -0.3848 -0.0855 -0.3847 -0.0428 -0.342 -0.0427 -0.3848 -0.0428 -0.342 0 -0.342 0 -0.342 -0.0427 -0.3848 0 -0.3848 0 -0.3847 0.0427 -0.342 0 -0.3848 0.0428 -0.342 0.0427 -0.342 0.1283 -0.342 0 -0.4703 0 -0.4275 0 -0.4703 0.0427 -0.4275 -0.0427 -0.4702 0 -0.4275 0 -0.4703 0 -0.4275 -0.0428 -0.4703 -0.0427 -0.4275 -0.0428 -0.4703 -0.0427 -0.3847 -0.0855 -0.4703 -0.0855 -0.4275 -0.0855 -0.4275 -0.0428 -0.3848 -0.1282 -0.4702 -0.1283 -0.4275 -0.1282 -0.4276 -0.1283 -0.3847 -0.171 -0.4275 -0.1283 -0.3848 -0.171 -0.3847 -0.171 -0.3848 -0.2137 -0.3848 -0.2138 -0.3847 -0.2137 -0.3848 -0.2138 -0.342 -0.2565 -0.3848 -0.2565 -0.342 -0.2565 -0.342 -0.2565 -0.2992 0.342 0.2137 0.342 0.342 0.1283 0.171 0.2137 0.2138 0.1283 0.2137 0.2137 0.2565 0.1283 0.2138 0.171 0.2565 0.1282 0.2565 0.171 0.2565 0.1283 0.2565 0.171 0.2993 0.171 0.2993 0.171 0.342 0.1283 0.2565 0.1282 0.342 0.1283 0.2992 0.1282 0.342 0.1283 0.2993 0.1282 0.3848 0.1283 0.2992 0.171 0.3848 0.0855 0.2992 0.1282 0.3848 0.1283 0.2993 0.1282 0.3847 0.1283 0.2993 0.1283 0.3847 0.1282 0.2993 0.1283 0.3848 0.1282 0.2565 0.171 0.342 0.0855 0.2992 0.1283 0.3848 0.0427 0.342 0.0428 0.3848 0 0.3847 0.0427 0.4275 -0.0427 0.3848 0 0.3848 0 0.4275 0 0.4275 0 0.4275 0 0.4703 0.0427 0.4275 0.1283 0.4702 -0.1283 0.342 -0.0427 0.3421 -0.0855 0.342 0 0.342 -0.0428 0.342 -0.0427 0.342 0 0.342 0 0.3848 0 0.2992 0 0.342 0 0.342 0 0.342 0 0.2993 0.0427 0.342 0.0428 0.342 0.0855 0.342 0 0.2993 0.0855 0.2993 0.0427 0.2992 0.0855 0.342 0.0428 0.2993 0.0855 0.342 0.0427 0.2992 0.0855 0.3421 0.0428 0.2992 0.0855 0.2993 0.0855 0.2992 0.0855 0.342 0.0855 0.2993 0.0855 0.342 0.0855 0.2993 0.1283 0.342 0.0427 0.2565 0.0855 0.342 0.0855 0.2565 0.0855 0.342 0.0428 0.2993 0.0855 0.2992 0.0855 0.2993 0.0855 0.342 0.0427 0.2993 0.0428 0.342 0.0427 0.2992 0.0855 0.342 0.0428 0.2993 0.0855 0.342 0.0427 0.2993 0.0855 0.342 0 0.2992 0.0428 0.342 0.0427 0.2993 0.0428 0.342 0 0.2993 0 0.3847 0 0.2993 0.0427 0.3847 -0.0427 0.3421 0 0.342 -0.0428 0.342 0 0.3847 -0.0427 0.342 -0.0428 0.3421 -0.0427 0.3847 -0.0428 0.3848 0 0.2565 0 0.2565 0 0.2565 0 0.2565 0 0.2565 0.0428 0.2565 0.0427 0.2565 0.0855 0.2565 0 0.2138 0.0855 0.2565 0.0428 0.2565 0.0855 0.2565 0.0428 0.2138 0.0855 0.2565 0.0855 0.2565 0.1282 0.2565 0.1283 0.4275 0.2137 0.4703 0.0855 0.2137 0.0855 0.2565 0.0855 0.2138 0.1283 0.2565 0.0855 0.2137 0.1282 0.2138 0.0855 0.2565 0.1283 0.2565 0.0855 0.2138 0.1282 0.2137 0.1283 0.2565 0.1283 0.2565 0.2137 0.4276 0.2138 0.4702 0.2137 0.4275 0.2565 0.4703 0.0855 0.2137 0.0855 0.2138 0.0855 0.2565 0.1283 0.2565 0.0855 0.2138 0.1282 0.2137 0.0856 0.2565 0.1282 0.2565 0.0428 0.2138 0.1282 0.2565 0.0428 0.2138 0.1282 0.2565 0.0428 0.2565 0.0855 0.2565 0.0427 0.2565 0.0855 0.2565 0.0428 0.2565 0.0427 0.2565 0.0428 0.2565 0.0855 0.2565 0 0.2565 0.0855 0.2993 0 0.2565 0.0855 0.2993 0.2992 0 0.2565 0 0.2138 -0.0855 0.171 -0.0428 0.171 -0.2565 0.0855 -0.342 0 -0.4703 0.0428 -0.3847 0.0427 -0.4275 0.2565 -0.2993 0 -0.3848 0.0428 -0.3847 0.0427 -0.3848 0.0428 -0.342 0 -0.3848 0.0427 -0.3847 0.0428 -0.3848 0.0427 -0.342 0 -0.3848 0.0855 -0.3847 0 -0.3848 0.0855 -0.342 0.0428 -0.3847 0.0427 -0.3848 0.0428 -0.3848 0.0855 -0.342 0 -0.3847 0.0855 -0.3848 0 -0.3848 0.0855 -0.3847 0.0427 -0.3848 0.0428 -0.3847 0.0428 -0.3848 0.0855 -0.342 0 -0.3848 0.0855 -0.3847 0 -0.3848 0.0855 -0.3848 0.0427 -0.3847 0.0428 -0.3848 0.0427 -0.3847 0.0855 -0.342 0 -0.3848 0.0855 -0.3848 0 -0.3847 0.0855 -0.3848 0.0428 -0.3847 0.0427 -0.3848 0.0428 -0.3848 0.0855 -0.3847 0 -0.3848 0.0855 -0.3848 0.0427 -0.3847 0.0855 -0.3848 0 -0.3847 0.0855 -0.3848 0.0428 -0.3848 0.0855 -0.342 0 -0.3847 0.0855 -0.3848 0.0427 -0.3847 0.0855 -0.3848 0 -0.3848 0.0855 -0.3847 0.0428 -0.3848 0.0855 -0.342 0.0428 -0.3848 0.0427 -0.3847 0.0428 -0.3848 0.0855 -0.342 0.0427 -0.3848 0.0855 -0.342 0.0428 -0.342 0.0855 -0.342 0.1282 -0.4702 0.171 -0.4276 0.171 -0.4702 0.2138 -0.3848 0.171 -0.4275 0.2137 -0.4275 0.2138 -0.3848 0.2565 -0.3847 0.2138 -0.4275 0.2565 -0.3848 0.2565 -0.3848 0.2565 -0.3847 0.2565 -0.3848 0.2565 -0.3847 0.2565 -0.3848 0.2993 -0.3848 0.2137 -0.4275 0.2565 -0.3847 0.2565 -0.3848 0.2565 -0.3848 0.2138 -0.4275 0.2138 -0.3847 0.2137 -0.4275 0.2565 -0.3848 0.171 -0.4703 0.171 -0.3847 0.171 -0.4703 0.171 -0.3848 0.0855 -0.4702 0.1283 -0.4275 0.1282 -0.4703 0.1283 -0.4275 0 -0.3848 0 -0.2992 0 -0.3848 0.0428 -0.2992 0 -0.3421 0.0427 -0.342 0 -0.342 0.0428 -0.2992 0 -0.342 0.0427 -0.342 0 -0.3421 0.0428 -0.2992 0 -0.342 0.0427 -0.342 0.0428 -0.342 0.0427 -0.2993 0 -0.3848 0.0428 -0.2992 0.0427 -0.3848 0.0428 -0.2992 0 -0.3421 0.0427 -0.342 0.0428 -0.342 0.0427 -0.2992 0 -0.3848 0.0428 -0.2992 0.0427 -0.3848 0.0428 -0.2993 0 -0.342 0.0427 -0.342 0.0428 -0.342 0.0427 -0.2993 0 -0.3847 0 -0.342 0.0428 -0.342 0.0427 -0.342 0 -0.3848 0 -0.2993 0.0428 -0.3847 0.0427 -0.2993 0 -0.3847 0 -0.3421 0 -0.342 0.0428 -0.2992 0 -0.3848 0.0427 -0.342 0 -0.342 0.0428 -0.2993 0 -0.3847 0 -0.342 0 -0.342 0 -0.342 0 -0.3848 0 -0.2993 0 -0.3847 0.0427 -0.2993 -0.0427 -0.3847 0 -0.3421 0 -0.342 0 -0.2992 0 -0.3848 0 -0.342 0 -0.342 0 -0.2993 -0.342 -0.3847 -0.2993 -0.3848 -0.2992 -0.3847 -0.2993 -0.3421 -0.342 -0.3847 -0.2993 -0.342 -0.342 -0.342 -0.2992 -0.342 -0.3848 -0.3848 -0.342 -0.2993 -0.342 -0.3847 -0.342 -0.2993 -0.3848 -0.342 -0.342 -0.2993 -0.342 -0.2992 -0.342 -0.2565 -0.3848 -0.2993 -0.3847 -0.2992 -0.3848 -0.2565 -0.3848 -0.2565 -0.4275 -0.2566 -0.3847 -0.2565 -0.4275 -0.2137 -0.3848 -0.171 -0.4703 -0.2138 -0.4275 -0.171 -0.4275 -0.171 -0.4275 -0.1282 -0.4703 -0.1283 -0.4275 -0.1282 -0.4702 -0.0856 -0.4276 -0.0427 0.3421 0 0.342 0 0.342 0.0427 0.3847 0.0428 0.342 0.0428 0.3848 0.0855 0.3848 0.0855 0.3847 0.1282 0.342 0.0855 0.342 0.1283 0.3421 0.1282 0.3847 0.1283 0.342 0.1282 0.3848 0.171 0.3847 0.171 0.3848 0.171 0.342 0.1283 0.342 0.171 0.3848 0.171 0.3847 0.2138 0.3421 0.1282 0.342 0.2138 0.3847 0.171 0.3848 0.2137 0.342 0.1283 0.3848 0.2137 0.342 0.1283 0.3847 0.2137 0.342 0.1283 0.3848 0.171 0.3848 0.171 0.3847 0.171 1.9238 1.9666 0.1283 -0.2993 0.1282 -0.2992 0.1283 -0.2993 0.1282 -0.2565 0.0855 -0.2993 0.1283 -0.2992 0.0855 -0.2993 0.1283 -0.2565 0.0427 -0.2993 0.0855 -0.2992 0.0428 -0.2993 0.0855 -0.2992 0 -0.2993 0.0427 -0.2992 0.0428 -0.2993 0.0427 -0.2565 0 -0.342 0 -0.2993 0 -0.342 0 -0.2565 -0.0427 -0.342 0 -0.2993 0 -0.342 0 -0.2565 -0.0428 -0.342 -0.0427 -0.2992 -0.0428 -0.3421 0 -0.2565 -0.0427 -0.342 0 -0.2992 -0.0428 -0.342 0 -0.2565 -0.0855 -0.3421 -0.0427 -0.2992 -0.0428 -0.342 0 -0.2993 -0.0428 -0.342 -0.0427 -0.2993 -0.0428 -0.342 0 -0.2565 -0.0427 -0.342 -0.0428 -0.2992 -0.0427 -0.342 0 -0.2993 0 -0.342 0 -0.2565 0 -0.342 0 -0.2565 0 -0.342 0 -0.2993 0 -0.342 0.0427 -0.2993 0 -0.342 0.0428 -0.2565 0.0427 -0.342 0.0855 -0.2565 0 -0.342 0.0856 -0.2993 0.0427 -0.2992 0.1283 -0.2565 0.0855 -0.2993 0.1282 -0.2993 0.1283 -0.2992 0.1282 -0.2565 1.5391 8.5502 -3.5056 29.1563z"/>
  <path class="fil0" d="M125.204 -29.8588l0.0428 0.3848 0.0427 0.4702 0.0428 0.4275 0.0855 0.4703 0.0427 0.4275 0.0855 0.4703 0 0.2137 0.0428 0.2565 0.0427 0.2138 0.0855 0.2565 0.0855 0.4275 0.0855 0.4275 0.1283 0.4275 0.2137 0.4703 0.1283 0.3848 0.2565 0.4275 0.2137 0.3847 0.2993 0.4275 0.2138 -0.171 0.2137 -0.1282 0.2565 -0.1283 0.2565 -0.1282 0.2138 -0.1283 0.2565 -0.1282 0.2138 -0.1283 0.2565 -0.0855 0.4275 -0.2993 0.4702 -0.2992 0.342 -0.342 0.3848 -0.342 0 0.2992 0 0.342 0.0428 0.2993 0.0855 0.2993 0.0855 0.2565 0.0855 0.2565 0.1282 0.2565 0.1283 0.2565 0.171 0.4275 0.2137 0.4703 0.0428 0.2565 0.0855 0.2565 0.0427 0.2565 0.0428 0.342 0.2565 0 0.2993 0 0.2992 -0.0428 0.2993 -0.0427 0.2565 -0.1283 0.2992 -0.0855 0.2993 -0.1282 0.342 -0.1283 0.2565 -0.2137 0.2993 -0.171 0.2992 -0.2138 0.2993 -0.171 0.2565 -0.2138 0.2993 -0.1282 0.2992 -0.171 0.342 -0.1283 0.3848 3.8904 0.2565 0 0.2992 0 0.2993 0 0.342 0 0.2993 0 0.342 0 0.2992 0 0.342 0.0427 0.2993 -0.0427 0.342 -0.0428 0.2993 -0.0855 0.342 -0.0427 0.2992 -0.1283 0.3421 -0.1282 0.2992 -0.171 0.342 -0.171 0.6413 2.6505 0.2565 -0.0427 0.2565 -0.0855 0.2993 -0.0428 0.2565 -0.1282 0.2565 -0.0855 0.2565 -0.0855 0.2992 -0.0855 0.2565 -0.1283 0.2566 -0.1282 0.2565 -0.0855 0.2565 -0.0855 0.2565 -0.0855 0.2565 -0.0428 0.2992 0 0.2993 0 -0.2993 0.171 -0.2992 0.2565 -0.2565 0.2565 -0.2565 0.2993 -0.2565 0.2565 -0.2565 0.2993 -0.2138 0.2992 -0.171 0.3848 -0.2565 0.2992 -0.171 0.342 -0.171 0.2993 -0.1283 0.3848 -0.1282 0.342 -0.1283 0.3847 -0.0855 0.3848 -0.0427 0.3848 0.2565 0.0855 0.2992 0.0855 0.2993 0.0427 0.2992 0.0428 0.2566 -0.0428 0.2992 -0.0427 0.2993 -0.0855 0.2992 -0.0428 0.2565 -0.1282 0.2993 -0.1283 0.2993 -0.1283 0.2992 -0.0855 0.2993 -0.1282 0.2992 -0.0855 0.2993 -0.0855 0.2992 -0.0428 -4.2751 5.857 -0.2137 -0.2566 -0.171 -0.2565 -0.171 -0.2565c0.0872,1.5263 -3.0029,0.117 -3.0354,1.9666l0.1283 0.3847 0.0855 0.3421 0.0855 0.3847 0.0855 0.3848 0.1282 0.3847 -0.3847 -0.2565 -0.3848 -0.2565 -0.3847 -0.2565 -0.3848 -0.171 -0.3848 -0.2137 -0.3847 -0.171 -0.3848 -0.1711 -0.342 -0.1282 -0.4275 -0.171 -0.3848 -0.1283 -0.3847 -0.1282 -0.3848 -0.1283 -0.3848 -0.1282 -0.3847 -0.0428 -0.3848 -0.0855 -0.3847 0 -0.4275 -0.0855 -0.4276 -0.0427 -0.4275 0 -0.3847 0 -0.4275 -0.0428 -0.3848 0 -0.4275 0.0428 -0.3848 0.0427 -0.4702 0 -0.3848 0.0428 -0.4703 0.0427 -0.3847 0.1283 -0.4703 0.0427 -0.3847 0.0855 -0.4703 0.1283 -0.3848 0.1282 0.2993 -0.0855 0.2992 -0.171 0.2993 -0.2565 0.2993 -0.2565 -0.2565 -0.4275 -0.2566 -0.2993 -0.3847 -0.2565 -0.342 -0.1282 -0.4275 -0.171 -0.3848 -0.0855 -0.3848 -0.1283 -0.2992 -0.0855 -0.4703 -0.1282 -0.4275 -0.0428 -0.4703 -0.0427 -0.3847 0 -0.4703 -0.0428 -0.4275 -0.0427 -0.3848 -0.0428 -0.3847 0 -0.4275 -0.0855 -0.3848 -0.0855 -0.3847 -0.1282 -0.3421 -0.0856 -0.342 -0.171 -0.2992 -0.171 -0.342 -0.2565 -0.2565 -0.2137 0.2992 0.0427 0.4703 0.0428 0.171 -0.0428 0.2137 -0.0855 0.171 -0.1282 0.2138 -0.2138 -0.2138 -0.2565 -0.2137 -0.2565 -0.2138 -0.2565 -0.171 -0.2565 -0.2137 -0.2565 -0.2138 -0.2138 -0.2137 -0.2565 -0.171 -0.2137 -0.4276 -0.4703 -0.4275 -0.4275 -0.3847 -0.4703 -0.3848 -0.4275 -0.2137 -0.2565 -0.171 -0.2138 -0.2138 -0.2565 -0.171 -0.2137 -0.2138 -0.2565 -0.171 -0.2138 -0.2137 -0.2565 -0.1283 -0.2137 -0.171 -0.2993 -0.171 -0.2565 -0.1282 -0.2565 -0.1283 -0.2565 -0.171 -0.2993 -0.1283 -0.2565 -0.0855 -0.2565 -0.0855 -0.2565 0.2565 0 0.2566 0 0.2565 0 0.2992 0.0427 0.2138 0 0.2565 0.0428 0.2565 0.0427 0.2565 0.0856 0.4275 0.1282 0.4703 0.1283 0.4275 0.1282 0.4702 0.171 -0.1282 -0.3847 -0.0855 -0.3848 -0.0855 -0.3848 -0.0855 -0.342 -0.1283 -0.3847 -0.1282 -0.342 -0.1283 -0.3848 -0.0855 -0.342 -0.171 -0.3848 -0.1282 -0.3847 -0.1283 -0.342 -0.1282 -0.3421 -0.171 -0.3847 -0.1283 -0.3848 -0.171 -0.342 -0.1283 -0.342 -0.171 -0.3848 -0.171 -0.3847 -0.171 -0.342 -0.1282 -0.342 -0.171 -0.3848 -0.171 -0.3848 -0.1283 -0.342 -0.1282 -0.342 -0.171 -0.3847 -0.1283 -0.342 -0.1283 -0.3848 -0.1282 -0.342 -0.1283 -0.3848 -0.1282 -0.342 -0.1283 -0.342 -0.0855 -0.342 0 -0.8123 0.342 0.342 0.3848 0.342 0.3848 0.342 0.4275 0.3848 0.3847 0.2993 0.4275 0.342 0.4276 0.3847 0.4275 0.3848 0.342 0.342 0.3847 0.3848 0.3848 0.3847 0.3848 0.4275 0.2992 0.3848 0.2993 0.4703 0.1282 0.2565 0.1283 0.2565 0.1282 0.2565 0.171 0.2565 1.1543 0 -0.1282 -0.2565 -0.0428 -0.2993 -0.0855 -0.3847 0 -0.342 -0.0427 -0.2565 -0.0428 -0.2138 -0.0427 -0.2565 0 -0.2138 0 -0.2565 0 -0.2565 0 -0.2565 0 -0.2565 0 -0.2993 0 -0.2992 0 -0.2993 0 -0.2565 0 -0.2992 0 -0.2565 0 -0.2993 0.0427 -0.2565 0 -0.2993 0 -0.2565 0 -0.2992 0.0428 -0.2565 0 -0.2565 0.0427 -0.2566 0.0428 -0.2137 0.0855 -0.2138 0 -0.2565 0.0427 -0.2565 0.0428 -0.2137 0.0427 -0.171 0.1283 -0.3421 0.1282 -0.2565 0.1283 -0.2565 0.1282 -0.1282 0.1283 -0.0855 0.2137 0.0427 0.1283 0.0855 0.2138 0.2138 0.0855 0.1282 0.1282 0.171 0.1283 0.2138 0.1282 0.2565 0.0855 0.2138 0.1283 0.2992 0.1282 0.2993 0.1283 0.3847 0.1282 0.3848 0.1283 0.4275 0.171 0.4703 0.171 0.513z"/>
  <path class="fil0" d="M172.615 -17.0762l0.3847 0.2993 0.3848 0.2137 0.342 0.0428 0.342 -0.0428 0.2993 -0.171 0.2992 -0.2137 0.2993 -0.3421 0.2993 -0.2992 0.2565 -0.4275 0.2565 -0.3848 0.2565 -0.4275 0.2992 -0.3848 0.2565 -0.3847 0.3421 -0.2565 0.342 -0.2138 0.3847 -0.0855 1.1971 -0.7695 -0.0428 0.2993 -0.0855 0.342 -0.171 0.342 -0.1283 0.342 -0.2137 0.2992 -0.1283 0.342 -0.2137 0.3421 -0.1283 0.342 -0.171 0.2565 -0.0855 0.2992 -0.0427 0.2993 0.0427 0.342 0.0855 0.2565 0.2138 0.2993 0.2565 0.2992 0.4275 0.342 0.2138 -0.0855 0.2565 -0.0427 0.2137 -0.0855 0.2565 -0.0428 0.2138 -0.1282 0.2565 -0.0855 0.2565 -0.0855 0.2565 -0.0855 0.2138 -0.1283 0.2565 -0.1282 0.2137 -0.1283 0.2565 -0.1282 0.2138 -0.1283 0.2565 -0.1283 0.2565 -0.1282 0.2565 -0.0855 0.2138 -0.171 0.2565 -0.1283 0.2137 -0.171 0.2565 -0.1282 0.2138 -0.1283 0.2565 -0.1282 0.2565 -0.1283 0.2565 -0.0855 0.2138 -0.1282 0.2565 -0.1283 0.2565 -0.1283 0.2565 -0.0855 0.2565 -0.1282 0.2565 -0.0855 0.2565 -0.0855 0.2565 -0.0428 -0.4275 0.342 -0.3848 0.3848 -0.4275 0.3848 -0.3847 0.4275 -0.4275 0.3847 -0.4276 0.4703 -0.4275 0.4275 -0.3847 0.4703 -0.4275 0.3847 -0.4276 0.4703 -0.3847 0.3848 -0.3848 0.4702 -0.3847 0.3848 -0.342 0.3847 -0.3421 0.3848 -0.2565 0.4275 0.1283 0.2993 0.2137 0.2565 0.2138 0.2137 0.2565 0.171 0.2565 0.0855 0.2565 0.0856 0.2993 0.0427 0.342 0.0855 0.2993 0 0.2992 0 0.2993 0 0.342 0.0428 0.2565 0 0.2992 0.0427 0.2566 0.0855 0.2565 0.171 -0.2138 0.0855 -0.171 0.1283 -0.2138 0.1282 -0.2137 0.1283 -0.2565 0.0855 -0.2565 0.1282 -0.2993 0.1283 -0.2565 0.1282 -0.342 0.0855 -0.2565 0.1283 -0.342 0.0855 -0.2565 0.1283 -0.342 0.1282 -0.2993 0.1283 -0.2993 0.1282 -0.2565 0.171 2.7361 3.1209 -0.2565 0.1282 -0.2565 0.1283 -0.2565 0.0855 -0.2565 0.0855 -0.2565 0 -0.2138 0.0427 -0.2565 0 -0.2137 0 -0.4703 -0.1282 -0.4275 -0.171 -0.4703 -0.2138 -0.3847 -0.2138 -0.4703 -0.342 -0.4275 -0.2565 -0.4703 -0.2992 -0.4275 -0.2138 -0.2565 -0.1282 -0.2138 -0.1283 -0.2565 -0.1282 -0.2137 -0.0428 -0.2565 -0.0855 -0.2138 -0.0427 -0.2565 0 -0.2137 0 0 1.9238 -0.2565 -0.0428 -0.3421 -0.0855 -0.4275 -0.1283 -0.4275 -0.0855 -0.2565 -0.1282 -0.2137 -0.1283 -0.2566 -0.1282 -0.2137 -0.1283 -0.4275 -0.342 -0.2993 -0.342 0.0428 -0.342 0.0855 -0.2565 0.1282 -0.2565 0.171 -0.2565c-4.0924,2.4307 1.2123,-5.1881 -1.9665,-2.0093l-0.1283 -0.4275 -0.0427 -0.4275 -0.0855 -0.4276 0 -0.3847 -0.0855 -0.4275 -0.0428 -0.4275 0 -0.4276 0 -0.3847 -0.0427 -0.4703 0 -0.4275 0 -0.4275 0.0427 -0.4275 0 -0.4275 0.0428 -0.4275 0.0427 -0.4276 0.0855 -0.3847 0 -0.4703 0.0855 -0.4275 0.0428 -0.4275 0.1282 -0.4275 0.0855 -0.4275 0.1283 -0.4275 0.1282 -0.3848 0.1283 -0.3848 0.1282 -0.4275 0.1283 -0.4275 0.1283 -0.3847 0.2137 -0.3848 0.1283 -0.3848 0.2137 -0.3847 0.2138 -0.342 0.2565 -0.342 0 6.9684z"/>
  <path class="fil0" d="M132.984 6.266l1.9238 -4.6599 0 6.1989c-1.1563,2.6753 0.681,3.4911 1.1543,4.2751l-0.3848 0.342 -0.342 0.3848 -0.342 0.4275 -0.2992 0.4275 -0.2993 0.3848 -0.2565 0.4702 -0.1283 0.2138 -0.1282 0.2565 -0.1283 0.2565 -0.1282 0.2565 -0.1283 0.2138 -0.1282 0.2565 -0.1283 0.2565 -0.1282 0.2565 -0.1283 0.2565 -0.1282 0.2565 -0.1283 0.2565 -0.0855 0.2993 -0.1282 0.2565 -0.1283 0.2565 -0.0855 0.2992 -0.0855 0.2993 -0.1283 0.2565 -0.1282 0.2993 -0.0855 0.2992 -0.0855 0.342 -0.171 -0.4275 -0.0855 -0.3847 -0.0855 -0.4275 0 -0.3848 -0.0428 -0.4703 0 -0.4275 0 -0.4702 0 -0.3848 -0.0855 -0.4275 -0.0855 -0.3848 -0.1282 -0.3847 -0.0855 -0.2993 -0.2565 -0.342 -0.2138 -0.2565 -0.342 -0.2138 -0.342 -0.1282 -0.2565 0 -0.2565 0.0427 -0.2565 0.0428 -0.2138 0.0855 -0.4275 0.1282 -0.342 0.2138 -0.3848 0.171 -0.342 0.2565 -0.2992 0.2565 -0.2566 0.2993 -0.2992 0.2565 -0.2993 0.2565 -0.2992 0.2992 -0.2565 0.342 -0.2993 0.2566 -0.2993 0.342 -0.342 0.2992 -0.2992 0.342 0 -0.3847 0.1282 -0.4275 0.0428 -0.2565 0.0855 -0.2566 0.0855 -0.2565 0.0855 -0.2565 0 -0.2992 0.0427 -0.2993 0 -0.2565 0 -0.2565 -0.0855 -0.2565 -0.0855 -0.2565 -0.171 -0.2565 -0.1282 -0.171 -0.342 -0.0855 -0.2993 0 -0.2565 0 -0.2565 0.0427 -0.2993 0 -0.2565 0.0428 -0.2565 0.0427 -0.2137 0.1283 -0.2565 0.0427 -0.2565 0.0855 -0.2566 0.0428 -0.2565 0.1282 -0.4702 0.2138 -0.4275 0.2565 -0.2565 0.0855 -0.2565 0.0855 -0.2566 0.0855 -0.2137 0.1283 -0.2565 0.0855 -0.2565 0.0855 -0.2565 0.0855 -0.2138 0.1282 -0.2565 0.0428 -0.2565 0.0427 -0.2565 0.0428 -0.2565 0.0427 -0.2993 0 -0.2565 0.0428 -0.2565 0 -0.2565 0 0.0428 -0.4275 0.171 -0.3848 0.1282 -0.3848 0.2565 -0.3847 0.2138 -0.4275 0.2992 -0.4275 0.2565 -0.3848 0.3848 -0.3848 0.342 -0.4275 0.3848 -0.3847 0.3847 -0.3848 0.4275 -0.2993 0.3848 -0.3847 0.4703 -0.2565 0.4275 -0.2993 0.4702 -0.171 -0.0855 -0.3847 -0.1282 -0.2138 -0.2565 -0.1283 -0.2138 0 -0.342 -0.0427 -0.2992 -0.0428 -0.3848 -0.171 -0.2565 -0.171 -0.2565 0.0428 -0.2565 0.0427 -0.2565 0.0428 -0.2565 0.0427 -0.2565 -0.0427 -0.2566 0 -0.2565 0 -0.2137 0 -0.4703 -0.2138 -0.2992 -0.2565 -0.171 -0.2137 -0.0855 -0.171 -0.0428 -0.2565 0 -0.2138 0.171 -0.2565 0.2565 -0.2138 0.2565 -0.2137 0.2565 -0.1283 0.2565 -0.2137 0.342 -0.171 0.2993 -0.1283 0.342 -0.1282 0.2993 -0.171 0.342 -0.1283 0.342 -0.1283 0.3848 -0.0855 0.342 -0.1282 0.3847 -0.0855 0.3848 -0.0855 0.3847 -0.0428 0.0855 -0.342 0.0428 -0.2565 -0.0428 -0.2992 0 -0.2565 -0.1282 -0.2566 -0.0855 -0.2137 -0.1283 -0.2138 -0.1282 -0.1282 0.2565 -0.2138 0.3848 -0.0427 0.3847 -0.0428 0.4275 0.0855 0.4275 0.0428 0.4703 0.1282 0.2138 0.0428 0.2565 0.0427 0.2137 0.0428 0.2565 0.0855 0.3848 0 0.4275 0.0427 0.342 -0.0855 0.342 -0.1282 0.2138 -0.2993 0.2137 -0.3847 0.0428 -0.2993 0.0855 -0.2565 0.0427 -0.342 0.0428 -0.342 0.2992 0.342 0.3848 0.342 0.171 0.0855 0.2138 0.1282 0.2565 0.0856 0.2565 0.1282 0.2565 0.0428 0.2565 0.0855 0.2565 0.0855 0.2565 0.0855 0.2565 0.0427 0.2993 0.0855 0.2565 0.0428 0.2992 0.1282 0.2138 0.0428 0.2565 0.0855 0.2565 0.0427 0.2565 0.1283 0.2138 0.1282 0.2565 0.1283 0.2137 0.1282 0.2138 0.171 0.171 0.1283 0.171 0.2138 0.1283 0.2565 0.171 0.2565 0.0855 0.2565 0.1282 0.2992 0.0855 0.2993 0.0855 0.3848z"/>
  <path class="fil0" d="M173.384 8.5745l0.342 0 0.342 0.0428 0.342 -0.0428 0.342 -0.0427 0.2993 -0.1283 0.3848 -0.0855 0.2992 -0.1282 0.3848 -0.0855 0.2992 -0.171 0.342 -0.1711 0.2993 -0.171 0.342 -0.1282 0.342 -0.1283 0.342 -0.1282 0.3848 -0.1283 0.3848 -0.0427 -0.2138 0.171 -0.171 0.2137 -0.2565 0.2138 -0.2138 0.2565 -0.2565 0.2138 -0.2565 0.2137 -0.2565 0.2565 -0.2565 0.2565 -0.2565 0.2138 -0.2565 0.2565 -0.2565 0.2565 -0.1283 0.2565 -0.171 0.2565 -0.0855 0.2565 -0.0855 0.2993 0 0.2992 0.1283 0.2138 0.171 0.2137 0.171 0.1283 0.2565 0.1283 0.2565 0.0427 0.2565 0.0855 0.2565 0 0.2565 0.0428 0.2138 -0.0428 0.2565 0 0.2565 0 0.2565 0.0428 0.3848 0.0427 0.3847 0.2565 -1.9665 1.1971 1.197 1.539 -5.0874 1.1543 0.0428 0.2565 0.0855 0.2992 0.0855 0.2993 0.1282 0.2993 0.0855 0.2565 0.0855 0.342 0.0855 0.2992 0.0855 0.342 0.0428 0.2993 0.0427 0.342 0.0428 0.3848 0.0427 0.3847 0 0.3848 0 0.3848 -0.0427 0.3847 0 0.4703 -0.4703 -0.3848 -0.3847 -0.3847 -0.4276 -0.4703 -0.4275 -0.4275 -0.2565 -0.2565 -0.2137 -0.171 -0.2565 -0.171 -0.2565 -0.1283 -0.2993 -0.171 -0.2565 -0.0855 -0.342 -0.0427 -0.2993 0 -0.2137 0.3847 -0.171 0.4703 -0.2138 0.4275 -0.2138 0.4703 -0.1282 0.2137 -0.1283 0.2565 -0.1282 0.2565 -0.0855 0.2565 -0.1283 0.2565 -0.0427 0.2565 -0.0855 0.2993 -0.0428 0.342 -0.171 -0.342 -0.1282 -0.342 -0.0855 -0.342 -0.0855 -0.342 -0.1283 -0.3848 -0.0427 -0.342 -0.0855 -0.3848 0 -0.342 -0.0855 -0.3847 -0.0428 -0.3848 -0.0855 -0.3847 0 -0.3848 -0.0855 -0.3848 -0.0428 -0.3847 -0.0427 -0.3848 -0.0428 -0.342 0.2565 -0.2138 0.2566 -0.171 0.2565 -0.2137c-1.5131,1.2971 -2.7423,0.0433 -0.0428,-2.9926l-0.3847 0.0855 -0.3848 0.0855 -0.3848 0 -0.342 -0.0427 0.171 -0.3421 0.2138 -0.2992 0.171 -0.2993 0.2137 -0.2992 0.171 -0.342 0.2138 -0.2566 0.2138 -0.342 0.2137 -0.2565 0.171 -0.342 0.2138 -0.2992 0.171 -0.2993 0.2137 -0.2993 0.171 -0.2992 0.2138 -0.2993 0.171 -0.2992 0.2138 -0.2565 0.171 -0.342 0.2137 -0.2993 0.171 -0.2993 0.2138 -0.2992 0.171 -0.2993 0.2137 -0.2992 0.171 -0.2993 0.2566 -0.2565 0.171 -0.2993 0.2137 -0.2565 0.2138 -0.2992 0.2565 -0.2565 0.2565 -0.2565 0.2565 -0.2565 0.2565 -0.2566 0.2565 -0.2565 -0.0427 0.1283 -0.0428 0.2137 -0.0427 0.2138 -0.0428 0.2565 -0.1283 0.2565 -0.0427 0.2993 -0.0855 0.2992 -0.0428 0.3848 -0.0855 0.2993 0 0.342 -0.0427 0.2992 0.0855 0.3848 0 0.2992 0.1282 0.3421 0.1283 0.2992 0.2565 0.342z"/>
  <path class="fil0" d="M175.736 39.6974l0.3848 0.171 0.4275 0.0427 0.4275 -0.0855 0.4275 -0.171 0.3848 -0.2565 0.3847 -0.2992 0.342 -0.342 0.3421 -0.2565 -0.3848 2.3513 0.3848 0.0427 0.4702 0.0428 0.2138 -0.0428 0.2565 0 0.2565 -0.0427 0.2565 -0.0428 0.2138 -0.0855 0.2565 -0.0427 0.2565 -0.0855 0.2565 -0.0428 0.2565 -0.0855 0.2565 -0.0427 0.2565 -0.0855 0.2565 -0.0428 0.2138 -0.0855 0.2565 -0.0427 0.2565 -0.0855 0.2565 0 0.2565 -0.0428 0.2565 0 0.2565 0 0.2565 0.0855 0.2138 0 0.2565 0.0855 0.2565 0.0855 0.2565 0.1283 0.2137 0.1282 0.2566 0.2138 0.2137 0.2137 0.2565 0.2565 -1.197 1.5391 4.2751 3.1208 -0.2138 0.1283 -0.171 0.1282 -0.2565 0.0855 -0.2565 0.0855 -0.342 0.0428 -0.2992 0.0427 -0.3421 0 -0.342 0.0428 -0.4275 -0.0428 -0.3847 -0.0427 -0.3848 -0.0428 -0.3848 0 -0.3847 -0.0427 -0.3848 -0.0428 -0.3847 0 -0.3848 0 -0.3848 -0.0427 -0.3847 0 -0.3848 0.0427 -0.2565 0.0855 -0.342 0.0428 -0.2565 0.1282 -0.2565 0.0855 -0.171 0.2138 -0.2138 0.171 -0.1282 0.2565 -0.0855 0.2565 0 0.3848 0 0.3847 0.0855 0.4275 0.0427 0.2566 0.0855 0.2565 0.0855 0.2565 0.1283 0.342 -0.3848 0 -0.342 -0.0428 -0.2992 -0.1282 -0.2566 -0.0855 -0.2992 -0.2138 -0.2565 -0.171 -0.2138 -0.2137 -0.2137 -0.1283 -0.2565 -0.2138 -0.2565 -0.1282 -0.2566 -0.1283 -0.2137 0 -0.2565 0 -0.2565 0.1283 -0.2565 0.2137 -0.2565 0.3421 0 0.2565 0 0.2565 0.0427 0.2565 0.0428 0.2992 0.0427 0.2565 0.0855 0.2565 0.0428 0.2566 0.0855 0.2992 0 0.2565 0.0427 0.2565 0.0428 0.2993 0.0427 0.342 0 0.2993 0 0.342 -0.0427 0.342 -0.0428 0.3847 -5.8141 -8.593c-3.1525,-0.4235 -6.7692,-2.1227 1.539,-3.078l2.7361 -5.0447 -0.3848 2.7361z"/>
  <polygon class="fil0" points="154.36,141.873 153.933,141.958 153.548,142.087 153.163,142.129 152.778,142.172 152.394,142.129 152.009,142.087 151.624,142.001 151.239,141.916 150.854,141.702 150.47,141.531 150.085,141.36 149.7,141.189 149.315,140.975 148.931,140.804 148.546,140.59 148.204,140.419 147.776,140.163 147.392,139.992 147.007,139.821 146.622,139.692 146.195,139.521 145.81,139.436 145.425,139.35 145.04,139.35 144.57,139.308 144.185,139.35 143.715,139.436 143.33,139.607 142.86,139.735 142.432,140.035 141.962,140.291 141.535,140.719 140.338,141.488 140.423,141.146 140.509,140.804 140.594,140.462 140.68,140.163 140.722,139.778 140.851,139.436 140.893,139.051 141.022,138.709 141.064,138.324 141.15,137.94 141.193,137.555 141.278,137.17 141.364,136.785 141.449,136.401 141.577,136.016 141.706,135.631 141.791,135.246 141.919,134.862 142.048,134.477 142.219,134.135 142.347,133.75 142.561,133.451 142.732,133.109 142.988,132.852 143.159,132.51 143.416,132.254 143.672,131.997 144.014,131.741 144.271,131.484 144.656,131.313 144.998,131.142 145.425,131.014 145.682,130.715 145.895,130.415 146.024,130.031 146.109,129.646 146.109,129.176 146.152,128.748 146.152,128.278 146.152,127.85 146.152,127.38 146.195,126.995 146.28,126.653 146.451,126.397 146.665,126.098 147.05,125.969 147.221,125.884 147.477,125.884 147.734,125.884 148.118,125.969 148.418,126.354 148.76,126.782 149.016,127.209 149.273,127.679 149.358,127.893 149.486,128.15 149.572,128.406 149.7,128.663 149.786,128.919 149.871,129.176 149.957,129.432 150.085,129.689 150.128,129.945 150.213,130.202 150.256,130.458 150.341,130.715 150.384,130.971 150.47,131.228 150.555,131.484 150.641,131.784 150.683,132.04 150.726,132.339 150.769,132.596 150.854,132.895 150.897,133.152 150.94,133.451 150.983,133.75 151.068,134.049 151.068,134.306 151.154,134.562 151.154,134.819 151.239,135.118 151.282,135.375 151.367,135.631 151.41,135.888 151.496,136.187 151.538,136.443 151.624,136.7 151.667,136.956 151.752,137.256 151.795,137.512 151.881,137.769 151.966,138.025 152.094,138.324 152.18,138.538 152.265,138.795 152.351,139.008 152.479,139.265 152.607,139.479 152.736,139.735 152.864,139.949 152.992,140.206 153.249,140.633 153.591,141.06 153.933,141.445 "/>
  <polygon class="fil0" points="150.854,143.839 151.111,143.797 151.367,143.797 151.624,143.754 151.881,143.754 152.137,143.668 152.436,143.626 152.693,143.583 152.992,143.54 153.249,143.455 153.505,143.412 153.804,143.326 154.104,143.284 154.36,143.198 154.659,143.155 154.959,143.113 155.258,143.113 155.514,143.07 155.771,143.027 156.027,143.027 156.327,143.027 156.583,143.027 156.882,143.027 157.139,143.07 157.438,143.155 157.652,143.155 157.908,143.241 158.165,143.369 158.421,143.497 158.635,143.626 158.892,143.797 159.148,143.968 159.405,144.224 159.747,144.181 160.089,144.139 160.431,144.096 160.815,144.053 161.158,143.925 161.5,143.839 161.842,143.754 162.226,143.668 162.568,143.54 162.91,143.412 163.252,143.284 163.637,143.155 163.979,143.027 164.321,142.899 164.663,142.771 165.048,142.685 165.347,142.557 165.689,142.428 166.031,142.3 166.416,142.215 166.715,142.129 167.057,142.087 167.399,142.044 167.784,142.044 168.126,142.001 168.468,142.001 168.81,142.044 169.195,142.129 169.537,142.172 169.922,142.3 170.306,142.428 170.691,142.642 171.076,142.728 171.503,142.856 171.931,142.941 172.358,143.07 172.743,143.113 173.171,143.198 173.598,143.284 174.026,143.369 174.41,143.369 174.838,143.412 175.265,143.455 175.693,143.497 176.078,143.497 176.505,143.54 176.933,143.583 177.403,143.626 177.788,143.626 178.215,143.626 178.643,143.626 179.07,143.626 179.455,143.626 179.925,143.626 180.31,143.626 180.78,143.626 181.165,143.583 181.593,143.583 182.02,143.54 182.448,143.54 182.832,143.497 183.303,143.497 183.687,143.497 184.158,143.497 184.542,143.455 184.97,143.455 185.355,143.412 185.782,143.412 186.167,143.369 186.594,143.369 187.022,143.369 187.449,143.369 187.834,143.369 188.262,143.369 188.647,143.369 189.074,143.369 189.459,143.369 189.886,143.412 190.314,143.455 190.741,143.497 191.126,143.497 191.511,143.54 191.896,143.583 192.323,143.668 192.708,143.668 193.135,143.754 193.52,143.839 193.948,143.968 194.332,144.01 194.717,144.096 195.102,144.224 195.529,144.352 195.914,144.481 196.299,144.609 196.684,144.78 197.111,144.994 204.122,146.148 203.738,146.062 203.353,146.02 202.968,145.977 202.626,145.977 202.241,145.934 201.899,145.934 201.557,145.934 201.258,145.934 200.873,145.934 200.531,145.934 200.189,145.977 199.847,146.02 199.505,146.02 199.206,146.105 198.864,146.148 198.565,146.233 198.18,146.276 197.881,146.362 197.539,146.404 197.24,146.49 196.898,146.533 196.598,146.618 196.256,146.661 195.957,146.789 195.615,146.832 195.316,146.96 194.974,147.003 194.674,147.131 194.332,147.217 194.033,147.302 193.691,147.388 193.435,147.516 193.093,147.559 192.751,147.644 192.409,147.687 192.109,147.772 191.767,147.815 191.468,147.901 191.126,147.986 190.827,148.072 190.485,148.114 190.185,148.157 189.844,148.2 189.544,148.285 189.202,148.285 188.903,148.328 188.561,148.371 188.262,148.414 187.877,148.414 187.578,148.414 187.193,148.414 186.894,148.414 186.552,148.371 186.21,148.371 185.868,148.328 185.568,148.328 185.184,148.243 184.842,148.2 184.5,148.114 184.158,148.072 183.773,147.986 183.431,147.901 183.089,147.815 182.747,147.73 182.405,147.644 182.106,147.601 181.764,147.516 181.464,147.516 181.122,147.473 180.823,147.43 180.481,147.388 180.182,147.388 179.84,147.345 179.498,147.345 179.156,147.302 178.856,147.302 178.514,147.302 178.215,147.302 177.873,147.302 177.574,147.302 177.189,147.302 176.89,147.302 176.548,147.302 176.249,147.302 175.864,147.302 175.565,147.302 175.223,147.302 174.923,147.345 174.581,147.345 174.239,147.345 173.897,147.345 173.598,147.345 173.256,147.345 172.957,147.388 172.615,147.388 172.315,147.43 171.931,147.388 171.632,147.388 171.29,147.388 170.99,147.388 170.606,147.388 170.306,147.388 169.964,147.388 169.665,147.388 169.323,147.345 169.024,147.345 168.682,147.302 168.382,147.302 168.04,147.259 167.784,147.217 167.442,147.174 167.185,147.174 166.843,147.088 166.544,147.046 166.202,146.96 165.903,146.917 165.604,146.832 165.304,146.789 165.005,146.704 164.749,146.661 164.449,146.533 164.15,146.447 163.851,146.362 163.594,146.276 163.295,146.148 163.039,146.02 162.782,145.891 162.525,145.763 162.098,145.635 161.713,145.549 161.286,145.464 160.901,145.421 160.516,145.336 160.131,145.293 159.747,145.293 159.362,145.293 158.977,145.293 158.592,145.293 158.208,145.293 157.823,145.378 157.438,145.378 157.053,145.464 156.669,145.507 156.327,145.592 155.942,145.635 155.557,145.72 155.172,145.763 154.83,145.849 154.446,145.934 154.104,146.02 153.719,146.105 153.377,146.233 152.992,146.276 152.607,146.362 152.223,146.447 151.881,146.575 151.496,146.618 151.154,146.704 150.812,146.789 150.47,146.917 150.17,146.789 149.871,146.746 149.572,146.661 149.315,146.661 149.016,146.618 148.76,146.575 148.503,146.575 148.247,146.575 147.947,146.575 147.691,146.575 147.392,146.575 147.135,146.575 146.836,146.575 146.579,146.618 146.323,146.661 146.066,146.704 145.767,146.704 145.511,146.746 145.211,146.789 144.955,146.832 144.656,146.875 144.399,146.917 144.143,146.96 143.886,147.046 143.63,147.046 143.373,147.131 143.117,147.174 142.86,147.259 142.603,147.259 142.347,147.345 142.09,147.388 141.834,147.473 141.535,147.473 141.278,147.516 141.022,147.559 140.765,147.601 140.509,147.601 140.252,147.644 139.996,147.687 139.739,147.73 139.483,147.73 139.226,147.73 138.97,147.73 138.756,147.73 138.499,147.687 138.243,147.687 137.986,147.644 137.773,147.644 137.516,147.559 137.26,147.516 137.003,147.43 136.789,147.388 136.319,147.217 135.892,147.046 135.421,146.746 134.994,146.49 134.524,146.105 134.139,145.763 133.797,145.763 133.497,145.763 133.198,145.763 132.942,145.763 132.642,145.72 132.343,145.72 132.044,145.678 131.787,145.678 131.488,145.592 131.232,145.592 130.932,145.507 130.676,145.507 130.377,145.421 130.12,145.378 129.864,145.336 129.607,145.293 129.308,145.207 129.051,145.122 128.752,145.036 128.495,144.994 128.196,144.908 127.94,144.823 127.683,144.737 127.427,144.694 127.128,144.609 126.871,144.523 126.614,144.438 126.358,144.395 126.102,144.31 125.845,144.224 125.589,144.139 125.332,144.096 125.033,143.968 124.776,143.925 124.477,143.797 124.22,143.754 123.921,143.668 123.665,143.583 123.365,143.497 123.109,143.455 122.81,143.369 122.553,143.326 122.254,143.241 121.997,143.198 121.698,143.113 121.442,143.07 121.185,143.027 120.929,143.027 120.629,142.941 120.33,142.899 120.031,142.856 119.774,142.856 119.475,142.856 119.176,142.856 118.876,142.856 118.62,142.856 118.321,142.856 118.022,142.856 117.722,142.856 117.423,142.899 117.124,142.899 116.825,142.941 116.525,142.984 116.269,143.07 115.927,143.241 115.67,143.369 115.328,143.412 115.072,143.455 113.917,141.873 114.217,141.873 114.559,141.873 114.858,141.873 115.2,141.873 115.499,141.873 115.841,141.873 116.14,141.873 116.483,141.916 116.782,141.916 117.081,141.916 117.38,141.916 117.722,141.916 118.022,141.916 118.364,141.916 118.663,141.916 119.005,141.958 119.304,141.916 119.603,141.916 119.903,141.916 120.245,141.916 120.544,141.916 120.843,141.916 121.142,141.916 121.484,141.916 121.784,141.873 122.083,141.873 122.382,141.873 122.724,141.873 123.023,141.873 123.365,141.873 123.665,141.873 124.007,141.873 124.263,141.83 124.605,141.83 124.862,141.787 125.204,141.787 125.503,141.744 125.802,141.744 126.102,141.744 126.444,141.744 126.743,141.744 127.042,141.744 127.341,141.744 127.683,141.744 127.983,141.744 128.325,141.744 128.624,141.744 128.966,141.744 129.265,141.702 129.607,141.702 129.906,141.702 130.248,141.702 130.548,141.702 130.89,141.702 131.189,141.702 131.531,141.744 131.83,141.744 132.172,141.744 132.471,141.744 132.813,141.744 133.113,141.744 133.455,141.787 133.754,141.83 134.139,141.873 134.481,142.172 134.823,142.428 135.208,142.642 135.635,142.813 136.02,142.856 136.405,142.941 136.832,142.941 137.26,142.984 137.644,142.899 138.115,142.856 138.499,142.813 138.97,142.771 139.397,142.685 139.867,142.642 140.295,142.642 140.765,142.642 141.022,142.471 141.321,142.343 141.62,142.215 141.962,142.087 142.261,141.958 142.603,141.873 142.903,141.744 143.245,141.659 143.544,141.531 143.886,141.403 144.185,141.274 144.527,141.189 144.827,141.06 145.168,140.932 145.468,140.804 145.81,140.719 146.152,140.847 146.494,140.975 146.836,141.146 147.221,141.317 147.563,141.488 147.905,141.702 148.247,141.873 148.589,142.087 148.888,142.257 149.187,142.471 149.486,142.685 149.828,142.941 150.085,143.155 150.341,143.369 150.598,143.583 "/>
 </g>
</svg>
