<?xml version="1.0" encoding="UTF-8" standalone="no"?>
<!-- Created with Inkscape (http://www.inkscape.org/) -->
<svg xmlns:dc="http://purl.org/dc/elements/1.1/" xmlns:cc="http://creativecommons.org/ns#" xmlns:rdf="http://www.w3.org/1999/02/22-rdf-syntax-ns#" xmlns:svg="http://www.w3.org/2000/svg" xmlns="http://www.w3.org/2000/svg" xmlns:sodipodi="http://sodipodi.sourceforge.net/DTD/sodipodi-0.dtd" xmlns:inkscape="http://www.inkscape.org/namespaces/inkscape" width="744.09448819" height="1052.3622047" id="svg52781" version="1.1" inkscape:version="0.48.4 r9939" sodipodi:docname="sink.svg" xmlns:csurvey="http://www.csurvey.it" csurvey:caption="" csurvey:author="" csurvey:note="" csurvey:sign="524">
  <defs id="defs52783">
    <clipPath id="clipPath25208" clipPathUnits="userSpaceOnUse">
      <path inkscape:connector-curvature="0" id="path25210" d="m 263.1935,4696 129.613,0 0,82 -129.613,0 0,-82 z" />
    </clipPath>
    <clipPath id="clipPath25214" clipPathUnits="userSpaceOnUse">
      <path inkscape:connector-curvature="0" id="path25216" clip-rule="evenodd" d="m 265.8387,4698.645 124.5863,0 0,76.994 -124.5863,0 0,-76.994 z" />
    </clipPath>
    <clipPath id="clipPath25220" clipPathUnits="userSpaceOnUse">
      <path inkscape:connector-curvature="0" id="path25222" d="m 263,4696 130,0 0,82 -130,0 0,-82 z" />
    </clipPath>
  </defs>
  <sodipodi:namedview id="base" pagecolor="#ffffff" bordercolor="#666666" borderopacity="1.0" inkscape:pageopacity="0.0" inkscape:pageshadow="2" inkscape:zoom="3.959798" inkscape:cx="384.8267" inkscape:cy="540.80174" inkscape:document-units="px" inkscape:current-layer="layer1" showgrid="false" inkscape:window-width="1440" inkscape:window-height="837" inkscape:window-x="-8" inkscape:window-y="-8" inkscape:window-maximized="1" />
  <metadata id="metadata52786">
    <rdf:RDF>
      <cc:Work rdf:about="">
        <dc:format>image/svg+xml</dc:format>
        <dc:type rdf:resource="http://purl.org/dc/dcmitype/StillImage" />
        <dc:title>
        </dc:title>
      </cc:Work>
    </rdf:RDF>
  </metadata>
  <g inkscape:label="Livello 1" inkscape:groupmode="layer" id="layer1">
    <g id="g26780" transform="matrix(1.6532262,0,0,-1.6532262,294.60384,576.95891)">
      <path inkscape:connector-curvature="0" d="m 52.8497,35.9075 c 0,0.9946 -0.3952,1.9484 -1.0984,2.6516 -0.7032,0.7032 -1.657,1.0984 -2.6516,1.0984 -0.9946,0 -1.9483,-0.3952 -2.6516,-1.0984 -0.7032,-0.7032 -1.0984,-1.657 -1.0984,-2.6516 0,-0.9946 0.3952,-1.9483 1.0984,-2.6516 0.7033,-0.7032 1.657,-1.0984 2.6516,-1.0984 0.9946,0 1.9484,0.3952 2.6516,1.0984 0.7032,0.7033 1.0984,1.657 1.0984,2.6516 z" style="fill:none;stroke:#000000;stroke-width:1.49997997;stroke-linecap:round;stroke-linejoin:round;stroke-miterlimit:10;stroke-opacity:1;stroke-dasharray:none" id="path26782" />
    </g>
    <g id="g26784" transform="matrix(1.6532262,0,0,-1.6532262,294.60384,576.95891)">
      <path inkscape:connector-curvature="0" d="m 43.0677,31.955 c -0.8614,-0.4973 -1.4897,-1.3164 -1.7471,-2.2771 -0.2574,-0.9606 -0.1228,-1.9842 0.3745,-2.8455 0.4973,-0.8613 1.3164,-1.4897 2.277,-1.7471 0.9607,-0.2574 1.9842,-0.1228 2.8456,0.3745 0.8613,0.4973 1.4897,1.3164 1.7471,2.2771 0.2574,0.9606 0.1228,1.9841 -0.3745,2.8455 -0.4973,0.8613 -1.3164,1.4897 -2.2771,1.7471 -0.9606,0.2574 -1.9842,0.1228 -2.8455,-0.3745 z" style="fill:none;stroke:#000000;stroke-width:1.49997997;stroke-linecap:round;stroke-linejoin:round;stroke-miterlimit:10;stroke-opacity:1;stroke-dasharray:none" id="path26786" />
    </g>
    <g id="g26788" transform="matrix(1.6532262,0,0,-1.6532262,294.60384,576.95891)">
      <path inkscape:connector-curvature="0" d="m 51.3817,25.4598 c 0.8614,-0.4973 1.8849,-0.6319 2.8455,-0.3745 0.9607,0.2574 1.7798,0.8858 2.2771,1.7471 0.4973,0.8613 0.6319,1.8849 0.3745,2.8455 -0.2574,0.9607 -0.8857,1.7798 -1.7471,2.2771 -0.8613,0.4973 -1.8849,0.6319 -2.8456,0.3745 -0.9606,-0.2574 -1.7797,-0.8858 -2.277,-1.7471 -0.4973,-0.8614 -0.6319,-1.8849 -0.3745,-2.8455 0.2574,-0.9607 0.8858,-1.7798 1.7471,-2.2771 z" style="fill:none;stroke:#000000;stroke-width:1.49997997;stroke-linecap:round;stroke-linejoin:round;stroke-miterlimit:10;stroke-opacity:1;stroke-dasharray:none" id="path26790" />
    </g>
  </g>
</svg>