<?xml version="1.0" encoding="UTF-8" standalone="no"?>
<!-- Created with Inkscape (http://www.inkscape.org/) -->
<svg xmlns:dc="http://purl.org/dc/elements/1.1/" xmlns:cc="http://creativecommons.org/ns#" xmlns:rdf="http://www.w3.org/1999/02/22-rdf-syntax-ns#" xmlns:svg="http://www.w3.org/2000/svg" xmlns="http://www.w3.org/2000/svg" xmlns:sodipodi="http://sodipodi.sourceforge.net/DTD/sodipodi-0.dtd" xmlns:inkscape="http://www.inkscape.org/namespaces/inkscape" width="744.09448819" height="1052.3622047" id="svg52781" version="1.1" inkscape:version="0.48.4 r9939" sodipodi:docname="spring.svg" xmlns:csurvey="http://www.csurvey.it" csurvey:caption="" csurvey:author="" csurvey:note="" csurvey:sign="782">
  <defs id="defs52783">
    <clipPath id="clipPath25208" clipPathUnits="userSpaceOnUse">
      <path inkscape:connector-curvature="0" id="path25210" d="m 263.1935,4696 129.613,0 0,82 -129.613,0 0,-82 z" />
    </clipPath>
    <clipPath id="clipPath25214" clipPathUnits="userSpaceOnUse">
      <path inkscape:connector-curvature="0" id="path25216" clip-rule="evenodd" d="m 265.8387,4698.645 124.5863,0 0,76.994 -124.5863,0 0,-76.994 z" />
    </clipPath>
    <clipPath id="clipPath25220" clipPathUnits="userSpaceOnUse">
      <path inkscape:connector-curvature="0" id="path25222" d="m 263,4696 130,0 0,82 -130,0 0,-82 z" />
    </clipPath>
  </defs>
  <sodipodi:namedview id="base" pagecolor="#ffffff" bordercolor="#666666" borderopacity="1.0" inkscape:pageopacity="0.0" inkscape:pageshadow="2" inkscape:zoom="3.959798" inkscape:cx="384.8267" inkscape:cy="540.80174" inkscape:document-units="px" inkscape:current-layer="layer1" showgrid="false" inkscape:window-width="1440" inkscape:window-height="837" inkscape:window-x="-8" inkscape:window-y="-8" inkscape:window-maximized="1" />
  <metadata id="metadata52786">
    <rdf:RDF>
      <cc:Work rdf:about="">
        <dc:format>image/svg+xml</dc:format>
        <dc:type rdf:resource="http://purl.org/dc/dcmitype/StillImage" />
        <dc:title>
        </dc:title>
      </cc:Work>
    </rdf:RDF>
  </metadata>
  <g inkscape:label="Livello 1" inkscape:groupmode="layer" id="layer1">
    <g id="g25402" transform="matrix(1.6532262,0,0,-1.6532262,299.8192,592.90518)">
      <path inkscape:connector-curvature="0" d="m 11.4205,31.1074 c 2.5407,7.0025 12.8163,7.1185 18.8393,0 4.6515,-5.4974 13.1392,-4.9989 18.8393,0 5.1381,4.5061 12.2791,0 18.8402,0 l 0,0" style="fill:none;stroke:#cccccc;stroke-width:1.05001998;stroke-linecap:round;stroke-linejoin:round;stroke-miterlimit:10;stroke-opacity:1;stroke-dasharray:none" id="path25404" />
    </g>
    <g id="g25406" transform="matrix(1.6532262,0,0,-1.6532262,299.8192,592.90518)">
      <path inkscape:connector-curvature="0" d="m 58.1904,28.8803 c 3.192,0.7069 6.7475,0.9839 9.7489,2.2271 l 0,0 0,0 c -3.0014,1.2433 -5.7114,3.5616 -8.4683,5.3189 l -1.2806,-7.546 z" style="fill:none;stroke:#cccccc;stroke-width:1.05001998;stroke-linecap:round;stroke-linejoin:round;stroke-miterlimit:10;stroke-opacity:1;stroke-dasharray:none" id="path25408" />
    </g>
    <path inkscape:connector-curvature="0" d="m 396.02107,545.15888 c 5.27713,-1.1675 11.15525,-1.6262 16.11725,-3.6812 l 0,0 0,0 c -4.962,-2.055 -9.44225,-5.8888 -14.00012,-8.7938 l -2.11713,12.475 z" style="fill:#cccccc;fill-opacity:1;fill-rule:evenodd;stroke:none" id="path25410" />
    <g id="g25412" transform="matrix(1.6532262,0,0,-1.6532262,299.8192,592.90518)">
      <path inkscape:connector-curvature="0" d="m 67.9393,40.1075 c 6.1458,0 11.9998,-3.3887 11.9998,-9.0001 0,-5.6113 -5.854,-9 -11.9998,-9" style="fill:none;stroke:#000000;stroke-width:1.49997997;stroke-linecap:round;stroke-linejoin:round;stroke-miterlimit:10;stroke-opacity:1;stroke-dasharray:none" id="path25414" />
    </g>
  </g>
</svg>