<?xml version="1.0" encoding="UTF-8" standalone="no"?>
<!-- Created with Inkscape (http://www.inkscape.org/) -->
<svg xmlns:dc="http://purl.org/dc/elements/1.1/" xmlns:cc="http://creativecommons.org/ns#" xmlns:rdf="http://www.w3.org/1999/02/22-rdf-syntax-ns#" xmlns:svg="http://www.w3.org/2000/svg" xmlns="http://www.w3.org/2000/svg" xmlns:sodipodi="http://sodipodi.sourceforge.net/DTD/sodipodi-0.dtd" xmlns:inkscape="http://www.inkscape.org/namespaces/inkscape" width="744.09448819" height="1052.3622047" id="svg52781" version="1.1" inkscape:version="0.48.4 r9939" sodipodi:docname="spring.svg" xmlns:csurvey="http://www.csurvey.it" csurvey:caption="" csurvey:author="" csurvey:note="" csurvey:sign="781">
  <defs id="defs52783">
    <clipPath id="clipPath25208" clipPathUnits="userSpaceOnUse">
      <path inkscape:connector-curvature="0" id="path25210" d="m 263.1935,4696 129.613,0 0,82 -129.613,0 0,-82 z" />
    </clipPath>
    <clipPath id="clipPath25214" clipPathUnits="userSpaceOnUse">
      <path inkscape:connector-curvature="0" id="path25216" clip-rule="evenodd" d="m 265.8387,4698.645 124.5863,0 0,76.994 -124.5863,0 0,-76.994 z" />
    </clipPath>
    <clipPath id="clipPath25220" clipPathUnits="userSpaceOnUse">
      <path inkscape:connector-curvature="0" id="path25222" d="m 263,4696 130,0 0,82 -130,0 0,-82 z" />
    </clipPath>
  </defs>
  <sodipodi:namedview id="base" pagecolor="#ffffff" bordercolor="#666666" borderopacity="1.0" inkscape:pageopacity="0.0" inkscape:pageshadow="2" inkscape:zoom="3.959798" inkscape:cx="384.8267" inkscape:cy="540.80174" inkscape:document-units="px" inkscape:current-layer="layer1" showgrid="false" inkscape:window-width="1440" inkscape:window-height="837" inkscape:window-x="-8" inkscape:window-y="-8" inkscape:window-maximized="1" />
  <metadata id="metadata52786">
    <rdf:RDF>
      <cc:Work rdf:about="">
        <dc:format>image/svg+xml</dc:format>
        <dc:type rdf:resource="http://purl.org/dc/dcmitype/StillImage" />
        <dc:title>
        </dc:title>
      </cc:Work>
    </rdf:RDF>
  </metadata>
  <g inkscape:label="Livello 1" inkscape:groupmode="layer" id="layer1">
    <g id="g25226" transform="matrix(1.6532262,0,0,-1.6532262,293.82706,583.7897)">
      <path inkscape:connector-curvature="0" d="m 30.2601,31.1074 c 7.0503,3.1782 15.2876,5.926 18.8393,0 3.904,-6.5137 13.476,-6.3253 18.8393,0 4.6006,5.4258 12.1669,0 18.8402,0 l 0,0" style="fill:none;stroke:#cccccc;stroke-width:1.05001998;stroke-linecap:round;stroke-linejoin:round;stroke-miterlimit:10;stroke-opacity:1;stroke-dasharray:none" id="path25228" />
    </g>
    <g id="g25230" transform="matrix(1.6532262,0,0,-1.6532262,293.82706,583.7897)">
      <path inkscape:connector-curvature="0" d="m 76.971,29.1574 c 3.215,0.5743 6.8462,0.7232 9.8079,1.95 l 0,0 0,0 c -2.9617,1.2268 -5.6345,3.6892 -8.314,5.5565 L 76.971,29.1574 z" style="fill:none;stroke:#cccccc;stroke-width:1.05001998;stroke-linecap:round;stroke-linejoin:round;stroke-miterlimit:10;stroke-opacity:1;stroke-dasharray:none" id="path25232" />
    </g>
    <path inkscape:connector-curvature="0" d="m 421.07756,535.58595 c 5.31513,-0.95 11.31838,-1.19625 16.21463,-3.22375 l 0,0 0,0 c -4.89625,-2.02875 -9.315,-6.09875 -13.74488,-9.18625 l -2.46975,12.41 z" style="fill:#cccccc;fill-opacity:1;fill-rule:evenodd;stroke:none" id="path25234" />
    <g id="g25236" transform="matrix(1.6532262,0,0,-1.6532262,293.82706,583.7897)">
      <path inkscape:connector-curvature="0" d="m 27.2604,40.1075 c -3.6335,-1.5138 -6.0003,-5.0639 -6.0003,-9.0001 0,-3.9361 2.3668,-7.4862 6.0003,-9" style="fill:none;stroke:#000000;stroke-width:1.49997997;stroke-linecap:round;stroke-linejoin:round;stroke-miterlimit:10;stroke-opacity:1;stroke-dasharray:none" id="path25238" />
    </g>
  </g>
</svg>